<svg width="74.444mm" height="75mm" version="1.1" viewBox="0 0 281.36 283.46" xmlns="http://www.w3.org/2000/svg">
 <defs>
  <style id="current-color-scheme" type="text/css">.ColorScheme-Text {
        color:#eff0f1;
      }</style>
 </defs>
 <path class="ColorScheme-Text" d="m135.04 1.4249a67.319 67.32 0 0 0-67.319 67.319 67.319 67.32 0 0 0 67.319 67.319 67.319 67.32 0 0 0 67.319-67.319 67.319 67.32 0 0 0-67.319-67.319zm0 16.83a50.489 50.49 0 0 1 50.489 50.489 50.489 50.49 0 0 1-50.489 50.489 50.489 50.49 0 0 1-50.489-50.489 50.489 50.49 0 0 1 50.489-50.489zm0 134.64a134.64 134.64 0 0 0-133.42 117.81h16.961a117.81 117.81 0 0 1 116.46-100.98 117.81 117.81 0 0 1 116.49 100.98h16.961a134.64 134.64 0 0 0-133.45-117.81z" fill="currentColor" stroke="#000" stroke-width="2.8498"/>
</svg>
