<svg version="1.1" viewBox="0 0 500 140" xmlns="http://www.w3.org/2000/svg">
  <defs>
    <style id="y" type="text/css">.ColorScheme-Text {
        color:#eff0f1;
      }</style>
    <linearGradient id="a" x1="229.14101" x2="229.14101" y1="113.979" y2="297.16901" gradientTransform="matrix(.97011451 0 0 .50650252 -60.901587 -25.182308)" gradientUnits="userSpaceOnUse">
      <stop stop-color="#2a2e32" offset="0"/>
      <stop stop-color="#2a2e32" offset="1"/>
    </linearGradient>
  </defs>
  <path class="ColorScheme-Text" d="m143.22091 47.212775v6.14286h-9.21428v43h43v-43h-9.21429v-6.14286zm-6.14285 9.21429h3.07142v6.14286h30.7143v-6.14286h3.07142v36.8571h-36.8571zm6.14285 9.21429v3.07143h24.5714v-3.07143zm0 9.21428v3.07143h18.4286v-3.07143zm0 9.21429v3.07143h9.21429v-3.07143z" color="#eff0f1" fill="currentColor"/>
  <rect x="1.5053101" y="1.5053101" width="496.98938" height="136.98938" ry="4.86623" fill="url(#a)" stroke="#888" stroke-width="3.75"/>
  <g transform="translate(-6)" fill="#eff0f1">
    <g transform="translate(7.26249 -.232075)" fill="#eff0f1">
      <g class="ColorScheme-Text" transform="matrix(4,0,0,4,239.18091,41.415875)" color="#eff0f1">
        <path d="m8 2-4 4v4l4 4h1v-12z"/>
        <path d="m2 6v4h1v-4z"/>
        <path d="M 10.128906,4.615234 9.7988281,5.603516 A 3,3 0 0 1 11,8 3,3 0 0 1 9.7988281,10.396484 l 0.3281249,0.984375 A 4,4 0 0 0 12,8 4,4 0 0 0 10.128906,4.615234 Z"/>
        <path d="m9.94531 2.33203-0.167969 1a5 5 0 0 1 3.22266 4.66797 5 5 0 0 1-3.2207 4.67188l0.166016 0.998047a6 6 0 0 0 4.05469-5.66992 6 6 0 0 0-4.05469-5.66797z"/>
      </g>
      <path class="ColorScheme-Text" d="m363.40643 46.732075v21.416l-13.9951-13.9951-3.00492 3.00492 15.0742 15.0742-15.0742 15.0742 3.00492 3.00489 13.9951-13.9951v21.416h4.25l12.75-12.75-12.75-12.75 12.75-12.75-12.75-12.75zm4.25 6.00976 6.74028 6.74024-6.74028 6.74025zm0 25.5 6.74028 6.74024-6.74028 6.74025z" color="#eff0f1"/>
      <path class="ColorScheme-Text" d="m431.63191 47.905475v18h6v21c0 4.986 4.014 9 9 9h21v-3h-6v-6h18v-39h-30v3h27v30h-33v6h6v6h-3c-3.324 0-6-2.676-6-6v-21h6v-18zm3 3h9v12h-9zm3 3v6h3v-6zm-6 15v18h3v-18z" color="#eff0f1"/>
    </g>
  </g>
  <path d="M 155.05503,43.762953 154.89238,100.72353 112,69.931995 Z" fill="#eff0f1"/>
  <g transform="translate(32,100)" stroke-width="3.75">
    <circle cx="137.26791" cy="-27.809036" r="30" fill="#f7941d" stroke="#eff0f1"/>
    <text x="125.30791" y="-13.869037" fill="#eff0f1" font-family="Nunito" font-size="40px" font-weight="bold" style="font-variant-caps:normal;font-variant-east-asian:normal;font-variant-ligatures:normal;font-variant-numeric:normal;line-height:1.25" xml:space="preserve"><tspan x="125.30791" y="-13.869037" fill="#eff0f1" font-family="Nunito" font-size="40px" font-weight="bold" stroke-width="3.75" style="font-variant-caps:normal;font-variant-east-asian:normal;font-variant-ligatures:normal;font-variant-numeric:normal">7</tspan></text>
  </g>
  <g transform="translate(7.502732,-199.88871)" fill="#eff0f1"></g>
  <path class="ColorScheme-Text" d="m22.436387 30.22608v71.99915h71.990143v-57.138673h-0.036l0.036-0.04499-14.81633-14.816337-0.036 0.04499v-0.04499h-3.1461zm4.499383 4.508158h13.49815v22.496922h35.99508v-22.496922h1.31818l12.17997 12.179968v50.811414h-8.99877v-31.49569h-44.99384v31.49569h-8.99877zm17.99754 0h17.54935v17.997532h-17.54935zm-4.49939 35.995072h35.99508v26.99631h-35.99508z" color="#eff0f1" fill="currentColor"/>
</svg>
