<?xml version="1.0" encoding="UTF-8" standalone="no"?>
<!-- Generator: Adobe Illustrator 20.0.0, SVG Export Plug-In . SVG Version: 6.00 Build 0)  -->

<svg
   version="1.1"
   id="Layer_1"
   x="0px"
   y="0px"
   viewBox="0 0 200.13732 170.07874"
   xml:space="preserve"
   sodipodi:docname="dropbox_logo.svg"
   width="52.952999mm"
   height="45mm"
   inkscape:version="1.2.2 (b0a8486541, 2022-12-01)"
   xmlns:inkscape="http://www.inkscape.org/namespaces/inkscape"
   xmlns:sodipodi="http://sodipodi.sourceforge.net/DTD/sodipodi-0.dtd"
   xmlns="http://www.w3.org/2000/svg"
   xmlns:svg="http://www.w3.org/2000/svg"><defs
   id="defs18" /><sodipodi:namedview
   id="namedview16"
   pagecolor="#ffffff"
   bordercolor="#000000"
   borderopacity="0.25"
   inkscape:showpageshadow="2"
   inkscape:pageopacity="0.0"
   inkscape:pagecheckerboard="0"
   inkscape:deskcolor="#d1d1d1"
   showgrid="false"
   inkscape:zoom="2.8739717"
   inkscape:cx="125.61015"
   inkscape:cy="81.942353"
   inkscape:window-width="1920"
   inkscape:window-height="1007"
   inkscape:window-x="0"
   inkscape:window-y="0"
   inkscape:window-maximized="1"
   inkscape:current-layer="Layer_1"
   inkscape:document-units="mm" />
<style
   type="text/css"
   id="style2">
	.st0{fill:#0061FF;}
	.st1{display:none;}
	.st2{display:inline;}
	.st3{fill:none;}
</style>
<path
   class="st0"
   d="M 100.19875,31.959946 50.099376,63.919892 100.19875,95.879837 50.099376,127.83978 0,95.707083 50.099376,63.747137 0,31.959946 50.099376,0 Z M 49.840241,138.11879 99.939617,106.15885 150.03899,138.11879 99.939617,170.07874 Z M 100.19875,95.707083 150.29813,63.747137 100.19875,31.959946 150.03899,0 l 50.09938,31.959946 -50.09938,31.959946 50.09938,31.959945 -50.09938,31.959943 z"
   id="path4"
   style="stroke-width:0.863781" />

<g
   id="Editble"
   class="st1">
	<g
   class="st2"
   id="g12">
		<rect
   x="233"
   y="71.599998"
   class="st3"
   width="506"
   height="71.800003"
   id="rect8" />
		<path
   d="m 338.2,80.2 h 16.3 c 10.4,0 19,6.1 19,19.8 v 2.9 c 0,13.8 -8,20 -18.7,20 h -16.6 z m 9.2,7.7 v 27.2 h 7 c 5.9,0 9.9,-3.9 9.9,-12.5 v -2.2 c 0,-8.6 -4.1,-12.5 -10.2,-12.5 z m 31,0.5 h 7.3 l 1.1,8 c 1.4,-5.5 4.9,-8.3 11.3,-8.3 h 2.2 v 9.2 h -3.7 c -7.4,0 -9.2,2.6 -9.2,9.9 V 123 h -9 c 0,0 0,-34.6 0,-34.6 z m 23.9,18 v -1 c 0,-11.6 7.4,-17.9 17.5,-17.9 10.3,0 17.5,6.4 17.5,17.9 v 1 c 0,11.4 -7,17.5 -17.5,17.5 -11.2,0 -17.5,-6.1 -17.5,-17.5 z m 25.8,-0.1 v -0.8 c 0,-6.5 -3.2,-10.3 -8.3,-10.3 -5,0 -8.4,3.5 -8.4,10.3 v 0.8 c 0,6.2 3.2,9.7 8.3,9.7 5.2,0 8.4,-3.4 8.4,-9.7 z M 442,88.4 h 7.6 l 0.9,6.6 c 1.9,-4.4 5.7,-7.4 11.4,-7.4 8.8,0 14.6,6.4 14.6,18 v 1 c 0,11.4 -6.4,17.3 -14.6,17.3 -5.5,0 -9.2,-2.5 -11,-6.5 v 17.5 H 442 Z m 25.3,18 v -0.8 c 0,-6.9 -3.5,-10.3 -8.3,-10.3 -5,0 -8.4,3.8 -8.4,10.3 v 0.7 c 0,6.1 3.2,10 8.2,10 5.2,-0.2 8.5,-3.6 8.5,-9.9 z m 22.4,10.3 -0.7,6.3 h -7.8 V 76.8 h 8.8 v 17.8 c 1.9,-4.5 5.8,-7 11.2,-7 8.2,0.1 14.3,5.8 14.3,17.3 v 1 c 0,11.5 -5.8,18 -14.6,18 -5.6,0 -9.4,-2.8 -11.2,-7.2 z m 16.8,-10.8 v -0.8 c 0,-6.4 -3.5,-9.8 -8.3,-9.8 -5,0 -8.4,4 -8.4,10 v 0.7 c 0,6.5 3.3,10.2 8.3,10.2 5.2,-0.1 8.4,-3.5 8.4,-10.3 z m 13.1,0.5 v -1 c 0,-11.6 7.4,-17.9 17.5,-17.9 10.3,0 17.5,6.4 17.5,17.9 v 1 c 0,11.4 -7.1,17.5 -17.5,17.5 -11.2,0 -17.5,-6.1 -17.5,-17.5 z m 25.8,-0.1 v -0.8 c 0,-6.5 -3.2,-10.3 -8.3,-10.3 -5,0 -8.4,3.5 -8.4,10.3 v 0.8 c 0,6.2 3.2,9.7 8.3,9.7 5.2,0 8.4,-3.4 8.4,-9.7 z M 566.3,105 554.2,88.3 h 10.4 l 7,10.4 7.1,-10.4 H 589 l -12.3,16.6 13,18 h -10.2 l -8,-11.5 -7.7,11.5 h -10.6 z"
   id="path10" />
	</g>
</g>
</svg>
