<svg width="38.077mm" height="45mm" version="1.1" xmlns="http://www.w3.org/2000/svg" xmlns:xlink="http://www.w3.org/1999/xlink">
 <linearGradient id="a">
  <stop stop-color="#292c2f" offset="0"/>
  <stop stop-opacity="0" offset="1"/>
 </linearGradient>
 <linearGradient id="e" x1="16" x2="44" y1="16" y2="44" gradientTransform="matrix(3.0527 0 0 3.0527 -30.527 -18.316)" gradientUnits="userSpaceOnUse" xlink:href="#a"/>
 <linearGradient id="f" x1="22" x2="22" y1="40" y2="16" gradientTransform="matrix(3.0527 0 0 3.0527 -30.527 -18.316)" gradientUnits="userSpaceOnUse">
  <stop stop-color="#3e3e3e" offset="0"/>
  <stop stop-color="#5c5c5c" offset="1"/>
 </linearGradient>
 <linearGradient id="b" x1="386.57" x2="386.57" y1="549.8" y2="497.8" gradientTransform="matrix(3.0527 0 0 3.0527 -1180.1 -1519.6)" gradientUnits="userSpaceOnUse">
  <stop stop-color="#7f8c8d" offset="0"/>
  <stop stop-color="#afb0b3" offset="1"/>
 </linearGradient>
 <linearGradient id="d" x1="12" x2="12" y1="48" y2="10" gradientTransform="matrix(3.0527 0 0 3.0527 -30.527 -18.316)" gradientUnits="userSpaceOnUse">
  <stop stop-color="#eef1f2" offset="0"/>
  <stop stop-color="#f9fafb" offset="1"/>
 </linearGradient>
 <linearGradient id="c" x1="400.57" x2="420.57" y1="511.8" y2="531.8" gradientTransform="matrix(3.0527 0 0 3.0527 -1180.1 -1519.6)" gradientUnits="userSpaceOnUse" xlink:href="#a"/>
 <path d="m1.8667e-7 7.874e-8h134.32v158.74h-134.32z" fill="url(#b)" stroke-width="3.0527"/>
 <path d="m112.95 140.42h21.369v18.316h-21.369zm-112.95 0h21.369v18.316h-21.369z" fill="#292c2f" opacity=".2" stroke-width="3.0527"/>
 <g transform="matrix(3.0527 0 0 3.0527 -30.527 -18.316)" stroke-width="1.857">
  <path d="m10 52h7v6h-1zm37 0h7v6h-7z" fill="#292c2f" opacity=".2"/>
  <path d="m16 52h32v6h-32z" fill="#292c2e"/>
  <path d="m20 54h14v2h-14zm16 0h8v2h-8z" fill="#f6b44d"/>
 </g>
 <g stroke-width="3.0527">
  <path d="m12.211 109.9 48.843 48.843h73.265v-118.22l-20.258-20.258z" fill="url(#c)" opacity=".2"/>
  <path d="m39.685 12.211a27.474 27.474 0 0 0-27.474 27.474v26.055a18.316 18.316 0 0 1 6.1054 13.63 18.316 18.316 0 0 1-6.1054 13.624v16.903l18.316 18.316h73.265l18.316-18.316v-16.897a18.316 18.316 0 0 1-6.1054-13.63 18.316 18.316 0 0 1 6.1054-13.624v-26.061a27.474 27.474 0 0 0-27.474-27.474z" fill="url(#d)"/>
  <path d="m1.8667e-7 155.69h134.32v3.0527h-134.32z" fill="#292c2f" opacity=".4"/>
  <path d="m80.121 35.878 41.987 41.99v50.345h-61.054l-24.422-24.422 12.211-36.632 6.1054-27.474 6.1054-6.1054z" fill="url(#e)" opacity=".2"/>
  <path d="m67.159 30.527c-10.147 0-18.316 8.169-18.316 18.316v18.316h-12.211v36.632h61.054v-36.632h-12.211v-18.316c0-10.147-8.169-18.316-18.316-18.316m0 6.1054c7.6073 0 12.211 3.3335 12.211 12.211v18.316h-24.422v-18.316c0-8.8772 4.6035-12.211 12.211-12.211" fill="url(#f)"/>
 </g>
</svg>
