<svg width="45mm" height="45mm" version="1.1" xmlns="http://www.w3.org/2000/svg">
 <style id="current-color-scheme" type="text/css">.ColorScheme-NeutralText {
            color:#f67400;
        }
        .ColorScheme-Text {
            color:#eff0f1;
        }</style>
 <rect class="ColorScheme-NeutralText" width="158.74" height="158.74" rx="14.431" fill="currentColor"/>
 <path d="m72.155 137.09v-14.431h14.431v14.431zm0-28.862v-86.586h14.431v86.586z" fill="#fff" stroke-width="7.2155"/>
 <path class="ColorScheme-Text" d="m14.431 0c-7.9947 0-14.431 6.4362-14.431 14.431v129.88c0 7.9947 6.4362 14.431 14.431 14.431h129.88c7.9947 0 14.431-6.4362 14.431-14.431v-129.88c0-7.9947-6.4362-14.431-14.431-14.431zm0 7.2155h129.88c3.9974 0 7.2155 3.2181 7.2155 7.2155v129.88c0 3.9974-3.2181 7.2155-7.2155 7.2155h-129.88c-3.9974 0-7.2155-3.2181-7.2155-7.2155v-129.88c0-3.9974 3.2181-7.2155 7.2155-7.2155z" fill="currentColor" fill-opacity=".6"/>
</svg>
