<?xml version="1.0" encoding="UTF-8" standalone="no"?>
<!-- Created with Inkscape (http://www.inkscape.org/) -->

<svg
   width="120.355mm"
   height="37mm"
   version="1.1"
   viewBox="0 0 120.355 37"
   xml:space="preserve"
   id="svg47"
   sodipodi:docname="extra_software.svg"
   inkscape:version="1.2.2 (b0a8486541, 2022-12-01)"
   xmlns:inkscape="http://www.inkscape.org/namespaces/inkscape"
   xmlns:sodipodi="http://sodipodi.sourceforge.net/DTD/sodipodi-0.dtd"
   xmlns:xlink="http://www.w3.org/1999/xlink"
   xmlns="http://www.w3.org/2000/svg"
   xmlns:svg="http://www.w3.org/2000/svg"><sodipodi:namedview
     id="namedview49"
     pagecolor="#ffffff"
     bordercolor="#000000"
     borderopacity="0.25"
     inkscape:showpageshadow="2"
     inkscape:pageopacity="0.0"
     inkscape:pagecheckerboard="0"
     inkscape:deskcolor="#d1d1d1"
     inkscape:document-units="mm"
     showgrid="false"
     inkscape:zoom="2.3911726"
     inkscape:cx="272.66957"
     inkscape:cy="85.10469"
     inkscape:window-width="1920"
     inkscape:window-height="1051"
     inkscape:window-x="0"
     inkscape:window-y="0"
     inkscape:window-maximized="1"
     inkscape:current-layer="svg47" /><defs
     id="defs23"><linearGradient
       id="linearGradient4372"
       x1="408.57001"
       x2="422.57001"
       y1="523.79999"
       y2="537.79999"
       gradientTransform="matrix(1.2999,0,0,1.3,-499.1,-648.94)"
       gradientUnits="userSpaceOnUse"
       xlink:href="#linearGradient4227" /><linearGradient
       id="linearGradient4227"><stop
         stop-color="#292c2f"
         offset="0"
         id="stop3" /><stop
         stop-opacity="0"
         offset="1"
         id="stop5" /></linearGradient><linearGradient
       id="linearGradient3834"
       x2="0"
       y1="540.79999"
       y2="506.79999"
       gradientTransform="matrix(1.5293,0,0,1.5294,-592.82,-769.1)"
       gradientUnits="userSpaceOnUse"
       xlink:href="#linearGradient4300" /><linearGradient
       id="linearGradient3862"
       x2="0"
       y1="540.79999"
       y2="506.79999"
       gradientTransform="matrix(0.52941,0,0,0.52941,-184.3,-245.31)"
       gradientUnits="userSpaceOnUse"
       xlink:href="#linearGradient4351" /><linearGradient
       id="linearGradient4215-6"
       x1="29.735001"
       x2="47.735001"
       gradientTransform="matrix(1.1111,0,0,1.1111,381.53,-618.95)"
       gradientUnits="userSpaceOnUse"
       xlink:href="#linearGradient4351" /><linearGradient
       id="linearGradient4300"><stop
         stop-color="#e00a5e"
         offset="0"
         id="stop11" /><stop
         stop-color="#f62870"
         offset="1"
         id="stop13" /></linearGradient><linearGradient
       id="linearGradient4351"><stop
         stop-color="#f78fb9"
         offset="0"
         id="stop16" /><stop
         stop-color="#f7a5c4"
         offset="1"
         id="stop18" /></linearGradient><linearGradient
       id="linearGradient4372-2"
       x1="407.56"
       x2="418.32999"
       y1="522.91998"
       y2="533.69"
       gradientTransform="matrix(1.2999,0,0,1.3,-112.21,-177.99)"
       gradientUnits="userSpaceOnUse"
       xlink:href="#linearGradient4227" /><linearGradient
       id="linearGradient4371"
       x2="0"
       y1="1050.4"
       y2="1038.4"
       gradientUnits="userSpaceOnUse"
       xlink:href="#linearGradient4300" /></defs><g
     transform="matrix(0.71147266,0,0,0.71147266,-272.1897,-354.17493)"
     id="g41"><path
       transform="translate(376.57,491.8)"
       d="M 32,6 C 17.597,6 6.002,17.596 6.002,32 6.002,46.404 17.597,58 32,58 46.403,58 57.998,46.404 57.998,32 57.998,17.596 46.403,6 32,6 Z m 0,23 c 1.662,0 3,1.338 3,3 0,1.662 -1.338,3 -3,3 -1.662,0 -3,-1.338 -3,-3 0,-1.662 1.338,-3 3,-3 z"
       fill="url(#linearGradient3834)"
       id="path25"
       style="fill:url(#linearGradient3834)" /><path
       transform="translate(376.57,491.8)"
       d="m 38.125,25.375 -0.55469,0.88281 a 8,8 0 0 1 2.4297,5.7422 8,8 0 0 1 -8,8 8,8 0 0 1 -6.3301,-3.123 l -0.95117,0.49805 17.965,18.309 c 5.7701,-2.5977 10.401,-7.2293 12.998,-13 z m -1.0996,1.752 -2.2891,3.6504 c 0.16664,0.37383 0.26367,0.78556 0.26367,1.2227 0,1.662 -1.338,3 -3,3 -0.64179,0 -1.232,-0.20428 -1.7188,-0.54492 l -3.7168,1.9512 a 7,7 0 0 0 5.4355,2.5938 7,7 0 0 0 7,-7 7,7 0 0 0 -1.9746,-4.873 z"
       fill="url(#linearGradient4372)"
       fill-rule="evenodd"
       opacity="0.2"
       id="path27"
       style="fill:url(#linearGradient4372)" /><path
       transform="translate(376.57,491.8)"
       d="m 32,23 c -4.986,0 -9,4.014 -9,9 0,4.986 4.014,9 9,9 4.986,0 9,-4.014 9,-9 0,-4.986 -4.014,-9 -9,-9 z m 0,1 a 8,8 0 0 1 8,8 8,8 0 0 1 -8,8 8,8 0 0 1 -8,-8 8,8 0 0 1 8,-8 z m 0,1 a 7,7 0 0 0 -7,7 7,7 0 0 0 7,7 7,7 0 0 0 7,-7 7,7 0 0 0 -7,-7 z m 0,4 c 1.662,0 3,1.338 3,3 0,1.662 -1.338,3 -3,3 -1.662,0 -3,-1.338 -3,-3 0,-1.662 1.338,-3 3,-3 z"
       fill="url(#linearGradient3862)"
       id="path29"
       style="fill:url(#linearGradient3862)" /><path
       transform="translate(376.57,491.8)"
       d="m 6.002,31.191 c -0.005,0.21774 0,0.43513 0,0.6543 0,14.489 11.595,26.154 25.998,26.154 14.403,0 25.998,-11.665 25.998,-26.154 0,-0.21917 0.005,-0.43656 0,-0.6543 C 57.65396,45.374 46.184,57 32,57 17.816,57 6.346,45.375 6.002,31.191 Z"
       fill="#2e3132"
       fill-opacity="0.29412"
       id="path31" /><path
       transform="translate(376.57,491.8)"
       d="m 32,24 a 8,8 0 0 0 -8,8 8,8 0 0 0 8,8 8,8 0 0 0 8,-8 8,8 0 0 0 -8,-8 z m 0,1 a 7,7 0 0 1 7,7 7,7 0 0 1 -7,7 7,7 0 0 1 -7,-7 7,7 0 0 1 7,-7 z"
       fill="#ffffff"
       fill-opacity="0.66265"
       stroke-linecap="round"
       id="path33" /><circle
       cx="424.57001"
       cy="507.79999"
       r="10"
       fill="url(#linearGradient4215-6)"
       stroke-linecap="round"
       id="circle35"
       style="fill:url(#linearGradient4215-6)" /><path
       d="m 430.57,513.8 h -12 l 16,16 v -24 l -4,-4 z"
       fill="url(#linearGradient4372-2)"
       fill-rule="evenodd"
       opacity="0.2"
       id="path37"
       style="fill:url(#linearGradient4372-2)" /><path
       transform="translate(416.57,-536.56)"
       d="m 2,1038.4 v 12 h 12 v -12 z m 3,1 h 6 v 4 H 5 Z m -2,1 h 1 v 1 H 3 Z m 9,0 h 1 v 1 h -1 z m -9,3.5 h 1 v 1 H 3 Z m 9,0 h 1 v 1 h -1 z m -7,1.5 h 6 v 4 H 5 Z m -2,2 h 1 v 1 H 3 Z m 9,0 h 1 v 1 h -1 z"
       fill="url(#linearGradient4371)"
       id="path39"
       style="fill:url(#linearGradient4371)" /></g><path
     d="m 56.168191,32.561411 c -3.142178,0 -5.284538,-1.523774 -4.713225,-5.403503 0.714087,-4.849948 3.713407,-6.443604 13.211138,-7.75995 0.07167,0 2.999287,-0.48502 2.999287,-0.48502 l -1.213987,8.591475 c -2.570866,3.117347 -7.212646,5.057047 -10.28346,5.057047 z m 9.783591,-0.415137 0.142792,4.017932 h 4.070467 L 73.878449,10.183427 C 75.021074,2.285519 70.379211,-5.5287749e-4 63.881098,-5.5287749e-4 c -4.64178,0 -9.212197,1.31642747749 -11.926116,2.84085907749 l 0.785572,4.2951612 C 55.66848,5.749897 59.667502,4.7802526 63.3093,4.7802526 c 4.498972,0 6.141465,2.1474574 5.570153,6.3043324 l -0.642684,3.949201 -3.356347,0.415104 c -8.640803,1.316427 -17.067846,2.632855 -18.424395,11.91625 -0.999735,6.651033 3.070733,9.629849 8.497749,9.629849 3.427792,0 7.641149,-1.246873 10.997086,-4.849373 z"
     fill="#6c7a89"
     id="path43"
     style="stroke-width:0.822151" /><path
     d="M 83.357532,1.9626611e-4 V 36.996149 H 120.35348 V 1.9626611e-4 Z M 85.669831,2.3124948 H 118.04119 V 6.9369272 H 85.669831 Z m 0,6.9367309 h 2.312216 v 4.6244323 h -2.312216 z m 4.624432,0 h 2.312295 v 4.6244323 h -2.312295 z m 4.624517,0 h 2.312213 V 13.873658 H 94.91878 Z m 4.624509,0 h 2.312221 v 4.6244323 h -2.312221 z m 4.624431,0 h 2.3123 v 4.6244323 h -2.3123 z m 4.62452,0 h 2.31222 v 4.6244323 h -2.31222 z m 4.62451,0 h 4.62444 v 2.3122163 h -4.62444 z M 85.669995,16.185956 h 32.371355 v 4.624433 H 85.669995 Z m 0,6.936732 h 2.312216 v 4.624432 h -2.312216 z m 4.624433,0 h 2.312296 v 4.624432 h -2.312296 z m 4.624519,0 h 2.312213 v 4.624432 h -2.312213 z m 4.624509,0 h 2.312214 v 4.624432 h -2.312214 z m 4.624434,0 h 2.3123 v 4.624432 h -2.3123 z m 4.62451,0 h 2.31222 v 4.624432 h -2.31222 z m 4.62452,0 h 4.62443 v 2.312216 h -4.62443 z m -27.746761,6.936731 h 32.371351 v 4.624432 H 85.670159 Z"
     fill="#7fcc74"
     stroke-linecap="square"
     stroke-width="4.62452"
     id="path45" /></svg>
