<!-- Created with Inkscape (http://www.inkscape.org/) -->
<svg width="92.459mm" height="45mm" version="1.1" viewBox="0 0 92.459 45" xml:space="preserve" xmlns="http://www.w3.org/2000/svg" xmlns:xlink="http://www.w3.org/1999/xlink"><defs><linearGradient id="a" x1="6" x2="6" y1="58" y2="6" gradientUnits="userSpaceOnUse"><stop stop-color="#98a7b0" offset="0"/><stop stop-color="#dde1e3" offset="1"/></linearGradient><linearGradient id="d" x1="32" x2="32" y1="32" y2="6" gradientUnits="userSpaceOnUse"><stop stop-color="#1190d9" offset="0"/><stop stop-color="#73c4ef" offset="1"/></linearGradient><linearGradient id="b" x1="32" x2="32" y1="41" y2="23" gradientUnits="userSpaceOnUse"><stop stop-color="#cecece" offset="0"/><stop stop-color="#ececec" offset="1"/></linearGradient><linearGradient id="e" x1="32" x2="32" y1="36" y2="28" gradientUnits="userSpaceOnUse"><stop stop-color="#5c7274" offset="0"/><stop stop-color="#a4a4a4" offset="1"/></linearGradient><linearGradient id="f" x1="35" x2="52" y1="32" y2="49" gradientUnits="userSpaceOnUse" xlink:href="#c"/><linearGradient id="c"><stop stop-color="#292c2f" offset="0"/><stop stop-opacity="0" offset="1"/></linearGradient><linearGradient id="g" x1="26" x2="50" y1="26" y2="50" gradientUnits="userSpaceOnUse" xlink:href="#c"/><linearGradient id="h" x1="25.637" x2="57.998" y1="40.676" y2="40.676" gradientUnits="userSpaceOnUse"><stop stop-color="#292c2f" offset="0"/><stop stop-color="#292c2f" stop-opacity="0" offset="1"/></linearGradient><linearGradient id="i" x1="32" x2="32" y1="58" y2="40" gradientUnits="userSpaceOnUse" xlink:href="#b"/><linearGradient id="j" x1="46" x2="53.135" y1="40" y2="47.135" gradientUnits="userSpaceOnUse" xlink:href="#c"/><linearGradient id="k" x1="32" x2="32" y1="35" y2="29" gradientUnits="userSpaceOnUse" xlink:href="#a"/><linearGradient id="linearGradient1640" x1="6" x2="6" y1="58" y2="6" gradientTransform="matrix(.26458 0 0 .26458 84.916 148.38)" gradientUnits="userSpaceOnUse" xlink:href="#a"/><linearGradient id="linearGradient1642" x1="32" x2="32" y1="41" y2="23" gradientTransform="matrix(.26458 0 0 .26458 84.916 148.38)" gradientUnits="userSpaceOnUse" xlink:href="#b"/><linearGradient id="linearGradient2160" x1="32" x2="32" y1="32" y2="6" gradientTransform="matrix(.26458 0 0 .26458 84.916 148.38)" gradientUnits="userSpaceOnUse" xlink:href="#d"/><linearGradient id="linearGradient2162" x1="32" x2="32" y1="36" y2="28" gradientTransform="matrix(.26458 0 0 .26458 84.916 148.38)" gradientUnits="userSpaceOnUse" xlink:href="#e"/><linearGradient id="linearGradient2164" x1="35" x2="52" y1="32" y2="49" gradientTransform="matrix(.26458 0 0 .26458 84.916 148.38)" gradientUnits="userSpaceOnUse" xlink:href="#c"/><linearGradient id="linearGradient2166" x1="26" x2="50" y1="26" y2="50" gradientTransform="matrix(.26458 0 0 .26458 84.916 148.38)" gradientUnits="userSpaceOnUse" xlink:href="#c"/><linearGradient id="linearGradient2168" x1="25.637" x2="57.998" y1="40.676" y2="40.676" gradientTransform="matrix(.26458 0 0 .26458 84.916 148.38)" gradientUnits="userSpaceOnUse" xlink:href="#h"/><linearGradient id="linearGradient2170" x1="32" x2="32" y1="58" y2="40" gradientTransform="matrix(.26458 0 0 .26458 84.916 148.38)" gradientUnits="userSpaceOnUse" xlink:href="#b"/><linearGradient id="linearGradient2172" x1="46" x2="53.135" y1="40" y2="47.135" gradientTransform="matrix(.26458 0 0 .26458 84.916 148.38)" gradientUnits="userSpaceOnUse" xlink:href="#c"/><linearGradient id="linearGradient2174" x1="32" x2="32" y1="35" y2="29" gradientTransform="matrix(.26458 0 0 .26458 84.916 148.38)" gradientUnits="userSpaceOnUse" xlink:href="#a"/><style id="current-color-scheme" type="text/css">
            .ColorScheme-Text {
                color:#eff0f1;
            }
        </style><linearGradient id="linearGradient10269" x1="6" x2="6" y1="58" y2="6" gradientUnits="userSpaceOnUse" xlink:href="#a"/><linearGradient id="linearGradient10271" x1="32" x2="32" y1="32" y2="6" gradientUnits="userSpaceOnUse" xlink:href="#d"/><linearGradient id="linearGradient10273" x1="32" x2="32" y1="41" y2="23" gradientUnits="userSpaceOnUse" xlink:href="#b"/><linearGradient id="linearGradient10275" x1="32" x2="32" y1="36" y2="28" gradientUnits="userSpaceOnUse" xlink:href="#e"/><linearGradient id="linearGradient10277" x1="25.637" x2="57.998" y1="40.676" y2="40.676" gradientUnits="userSpaceOnUse" xlink:href="#h"/></defs><g transform="matrix(.26458 0 0 .26458 -172.18 95.121)"><path d="m32 6c-14.403 0-25.998 11.596-25.998 26s11.595 26 25.998 26 25.998-11.596 25.998-26-11.595-26-25.998-26zm0 23c1.662 0 3 1.338 3 3s-1.338 3-3 3-3-1.338-3-3 1.338-3 3-3z" fill="url(#linearGradient10269)"/><path d="m6.002 31.191c-5e-3 0.218 0 0.436 0 0.655 0 14.489 11.595 26.154 25.998 26.154s25.998-11.665 25.998-26.154c0-0.22 5e-3 -0.437 0-0.655-0.344 14.184-11.813 25.809-25.998 25.809s-25.654-11.625-25.998-25.809z" fill="#292c2f" opacity=".4"/><path d="m32 6v21a5 5 0 0 1 5 5h20.998c0-14.404-11.595-26-25.998-26z" fill="url(#linearGradient10271)"/><path d="m36.898 31a5 5 0 0 1 0.102 1h20.998c0-0.335-0.013-0.668-0.025-1z" fill="#292c2f" opacity=".2"/><path d="m32 27a5 5 0 1 0 0 10 5 5 0 0 0 0-10zm0 2c1.662 0 3 1.338 3 3s-1.338 3-3 3-3-1.338-3-3 1.338-3 3-3z" fill="#292c2f" opacity=".2"/><path d="m32 23a9 9 0 1 0 0 18 9 9 0 0 0 0-18zm0 4a5 5 0 1 1 0 10 5 5 0 0 1 0-10z" fill="url(#linearGradient10273)"/><path d="m37 28a1 1 0 1 1 0-2 1 1 0 0 1 0 2zm-10 10a1 1 0 1 1 0-2 1 1 0 0 1 0 2zm1-11a1 1 0 1 1-2 0 1 1 0 0 1 2 0zm10 10a1 1 0 1 1-2 0 1 1 0 0 1 2 0z" fill="#292c2f" opacity=".4"/><path d="m32 28a4 4 0 1 0 0 8 4 4 0 0 0 0-8zm0 1a3 3 0 1 1 0 6 3 3 0 0 1 0-6z" fill="url(#linearGradient10275)"/><path d="m33 25a1 1 0 1 1-2 0 1 1 0 0 1 2 0zm7 7a1 1 0 1 1-2 0 1 1 0 0 1 2 0zm-7 7a1 1 0 1 1-2 0 1 1 0 0 1 2 0zm-7-7a1 1 0 1 1-2 0 1 1 0 0 1 2 0z" fill="#4d4d4d"/><path d="M 40.979,32.424 A 9,9 0 0 1 32,41 9,9 0 0 1 23.021,32.576 9,9 0 0 0 23,33 a 9,9 0 0 0 9,9 9,9 0 0 0 9,-9 9,9 0 0 0 -0.021,-0.576 z" fill="#7f8c8d"/><path d="m44.719 32 10.883 10.88a25.912 25.912 0 0 0 2.396-10.88z" fill="url(#f)" opacity=".2"/><path d="m41 32a9 9 0 0 1-9 9 9 9 0 0 1-6.36-2.64l-3e-3 3e-3 9.5 9.5 1.863-1.863 1-2 8-4 7.135 7.135a25.966 25.966 0 0 0 2.486-4.242l-10.894-10.893zm11.967 15.389c-0.086 0.116-0.177 0.228-0.264 0.343a25.966 25.966 0 0 0 0.264-0.343zm-1.705 2.095c-0.053 0.058-0.11 0.113-0.162 0.17a25.966 25.966 0 0 0 0.162-0.17zm-1.722 1.716c-0.08 0.074-0.159 0.15-0.24 0.223a25.966 25.966 0 0 0 0.24-0.223zm-2.01 1.658c-0.102 0.077-0.203 0.154-0.306 0.229a25.966 25.966 0 0 0 0.306-0.229zm-2.203 1.475c-0.11 0.066-0.222 0.13-0.334 0.193a25.966 25.966 0 0 0 0.334-0.193zm-2.371 1.258-0.066 0.03 4e-3 3e-3a25.966 25.966 0 0 0 0.062-0.033z" fill="url(#g)" opacity=".3"/><path d="m41 32h3.727l-6.27-6.27a9 9 0 0 1 2.543 6.27z" fill="url(#linearGradient10277)" opacity=".2"/><path d="m46 40-8 4-1 2-3 3-10.447 7.6c2.647 0.903 5.486 1.4 8.447 1.4 0.218 0 0.432-0.01 0.648-0.016l4.352-5.984 3-3 2-1z" fill="#292c2f" opacity=".2"/><path d="m46 40-8 4-1 2-3 3-10.447 7.6c2.647 0.903 5.486 1.4 8.447 1.4 0.218 0 0.432-0.01 0.648-0.016l4.352-5.984 3-3 2-1zm-6 4.586 1.414 1.414-1.414 1.414-1.414-1.414zm-3.414 3.414 1.414 1.414-0.586 0.586h-1.414v-1.414zm-2.586 3a1 1 0 0 1 1 1 1 1 0 0 1-1 1 1 1 0 0 1-1-1 1 1 0 0 1 1-1zm-3 2 2 2-1.654 1.984a25.525 25.525 0 0 1-4.516-0.51zm-4.035 4.51c0.096 0.019 0.193 0.033 0.289 0.05-0.096-0.017-0.193-0.031-0.29-0.05z" fill="url(#i)"/><path d="m36 48.586-5 4.414 2 2 4.414-5h-1.414zm2.586-2.586-2 2 1.414 1.414 2-2zm5.414-4-4 2.586 1.414 1.414z" fill="#292c2f" opacity=".1"/><path d="m46 40-4 8-2 1-3 3-4.352 5.984a25.91 25.91 0 0 0 20.5-10.836z" fill="url(#j)" opacity=".2"/><circle cx="32" cy="32" r="3" fill="url(#k)"/></g><g transform="matrix(3.2707 0 0 3.2707 -282.93 -490.52)" stroke-width=".26458"><path d="m93.382 149.97c-3.8108 0-6.8786 3.0681-6.8786 6.8792 0 3.811 3.0678 6.8792 6.8786 6.8792 3.8108 0 6.8786-3.0681 6.8786-6.8792 0-3.8111-3.0678-6.8792-6.8786-6.8792zm0 6.0854c0.43974 0 0.79375 0.35401 0.79375 0.79375 0 0.43973-0.35401 0.79375-0.79375 0.79375-0.43974 0-0.79375-0.35402-0.79375-0.79375 0-0.43974 0.35401-0.79375 0.79375-0.79375z" fill="url(#linearGradient1640)"/><path d="m86.504 156.64c-0.0013 0.0577 0 0.11536 0 0.1733 0 3.8336 3.0678 6.9199 6.8786 6.9199 3.8108 0 6.8786-3.0864 6.8786-6.9199 0-0.0582 1e-3 -0.11562 0-0.1733-0.091 3.7528-3.1255 6.8286-6.8786 6.8286-3.7531 0-6.7876-3.0758-6.8786-6.8286z" fill="#292c2f" opacity=".4"/><path d="m93.382 149.97v5.5562a1.3229 1.3229 0 0 1 1.3229 1.3229h5.5557c0-3.8111-3.0678-6.8792-6.8786-6.8792z" fill="url(#linearGradient2160)"/><path d="m94.678 156.59a1.3229 1.3229 0 0 1 0.02699 0.26459h5.5557c0-0.0886-3e-3 -0.17675-7e-3 -0.26459z" fill="#292c2f" opacity=".2"/><path d="m93.382 155.53a1.3229 1.3229 0 1 0 0 2.6458 1.3229 1.3229 0 0 0 0-2.6458zm0 0.52917c0.43974 0 0.79375 0.35401 0.79375 0.79375 0 0.43973-0.35401 0.79375-0.79375 0.79375-0.43974 0-0.79375-0.35402-0.79375-0.79375 0-0.43974 0.35401-0.79375 0.79375-0.79375z" fill="#292c2f" opacity=".2"/><path d="m93.382 154.47a2.3812 2.3812 0 1 0 0 4.7625 2.3812 2.3812 0 0 0 0-4.7625zm0 1.0583a1.3229 1.3229 0 1 1 0 2.6458 1.3229 1.3229 0 0 1 0-2.6458z" fill="url(#linearGradient1642)"/><path d="m94.705 155.79a0.26458 0.26458 0 1 1 0-0.52916 0.26458 0.26458 0 0 1 0 0.52916zm-2.6458 2.6458a0.26458 0.26458 0 1 1 0-0.52917 0.26458 0.26458 0 0 1 0 0.52917zm0.26458-2.9104a0.26458 0.26458 0 1 1-0.52917 0 0.26458 0.26458 0 0 1 0.52917 0zm2.6458 2.6458a0.26458 0.26458 0 1 1-0.52917 0 0.26458 0.26458 0 0 1 0.52917 0z" fill="#292c2f" opacity=".4"/><path d="m93.382 155.79a1.0583 1.0583 0 1 0 0 2.1167 1.0583 1.0583 0 0 0 0-2.1167zm0 0.26459a0.79375 0.79375 0 1 1 0 1.5875 0.79375 0.79375 0 0 1 0-1.5875z" fill="url(#linearGradient2162)"/><path d="m93.647 155a0.26458 0.26458 0 1 1-0.52917 0 0.26458 0.26458 0 0 1 0.52917 0zm1.8521 1.8521a0.26458 0.26458 0 1 1-0.52917 0 0.26458 0.26458 0 0 1 0.52917 0zm-1.8521 1.8521a0.26458 0.26458 0 1 1-0.52917 0 0.26458 0.26458 0 0 1 0.52917 0zm-1.8521-1.8521a0.26458 0.26458 0 1 1-0.52917 0 0.26458 0.26458 0 0 1 0.52917 0z" fill="#4d4d4d"/><path d="m95.758 156.96a2.3812 2.3812 0 0 1-2.3757 2.2691 2.3812 2.3812 0 0 1-2.3757-2.2288 2.3812 2.3812 0 0 0-0.0056 0.11218 2.3812 2.3812 0 0 0 2.3812 2.3812 2.3812 2.3812 0 0 0 2.3812-2.3812 2.3812 2.3812 0 0 0-0.0056-0.1524z" fill="#7f8c8d"/><path d="m96.748 156.85 2.8795 2.8787a6.8559 6.8559 0 0 0 0.63394-2.8787z" fill="url(#linearGradient2164)" opacity=".2"/><path d="m95.764 156.85a2.3812 2.3812 0 0 1-2.3812 2.3812 2.3812 2.3812 0 0 1-1.6828-0.6985l-7.94e-4 7.9e-4 2.5135 2.5135 0.49292-0.49292 0.26458-0.52916 2.1167-1.0583 1.8878 1.8878a6.8702 6.8702 0 0 0 0.65775-1.1224l-2.8824-2.8821zm3.1663 4.0717c-0.02275 0.0307-0.04683 0.0603-0.06985 0.0908a6.8702 6.8702 0 0 0 0.06985-0.0908zm-0.45111 0.5543c-0.01402 0.0154-0.02911 0.0299-0.04286 0.045a6.8702 6.8702 0 0 0 0.04286-0.045zm-0.45561 0.45403c-0.02117 0.0196-0.04207 0.0397-0.0635 0.059a6.8702 6.8702 0 0 0 0.0635-0.059zm-0.53181 0.43868c-0.02699 0.0204-0.05371 0.0407-0.08096 0.0606a6.8702 6.8702 0 0 0 0.08096-0.0606zm-0.58288 0.39026c-0.02911 0.0175-0.05874 0.0344-0.08837 0.0511a6.8702 6.8702 0 0 0 0.08837-0.0511zm-0.62733 0.33284-0.01746 8e-3 0.0011 7.9e-4a6.8702 6.8702 0 0 0 0.0164-9e-3z" fill="url(#linearGradient2166)" opacity=".3"/><path d="m95.764 156.85h0.9861l-1.6589-1.6589a2.3812 2.3812 0 0 1 0.67284 1.6589z" fill="url(#linearGradient2168)" opacity=".2"/><path d="m97.087 158.97-2.1167 1.0583-0.26458 0.52916-0.79375 0.79375-2.7641 2.0108c0.70035 0.23892 1.4515 0.37041 2.2349 0.37041 0.05768 0 0.1143-3e-3 0.17145-4e-3l1.1515-1.5833 0.79375-0.79375 0.52917-0.26458z" fill="#292c2f" opacity=".2"/><path d="m97.087 158.97-2.1167 1.0583-0.26458 0.52916-0.79375 0.79375-2.7641 2.0108c0.70035 0.23892 1.4515 0.37041 2.2349 0.37041 0.05768 0 0.1143-3e-3 0.17145-4e-3l1.1515-1.5833 0.79375-0.79375 0.52917-0.26458zm-1.5875 1.2134 0.37412 0.37412-0.37412 0.37412-0.37412-0.37412zm-0.90329 0.90329 0.37412 0.37412-0.15505 0.15505h-0.37412v-0.37412zm-0.68421 0.79375a0.26458 0.26458 0 0 1 0.26458 0.26458 0.26458 0.26458 0 0 1-0.26458 0.26459 0.26458 0.26458 0 0 1-0.26458-0.26459 0.26458 0.26458 0 0 1 0.26458-0.26458zm-0.79375 0.52917 0.52917 0.52916-0.43762 0.52494a6.7535 6.7535 0 0 1-1.1949-0.13494zm-1.0676 1.1933c0.0254 5e-3 0.05107 9e-3 0.07646 0.0132-0.0254-4e-3 -0.05106-8e-3 -0.07673-0.0132z" fill="url(#linearGradient2170)"/><path d="m94.441 161.24-1.3229 1.1679 0.52917 0.52916 1.1679-1.3229h-0.37412zm0.68421-0.68422-0.52917 0.52917 0.37412 0.37412 0.52917-0.52917zm1.4325-1.0583-1.0583 0.68421 0.37412 0.37412z" fill="#292c2f" opacity=".1"/><path d="m97.087 158.97-1.0583 2.1167-0.52917 0.26458-0.79375 0.79375-1.1515 1.5833a6.8554 6.8554 0 0 0 5.424-2.867z" fill="url(#linearGradient2172)" opacity=".2"/><circle cx="93.382" cy="156.85" r=".79375" fill="url(#linearGradient2174)"/></g><path class="ColorScheme-Text" d="m53.335 0.33475v38.789h11.083v5.5414h27.707v-24.936l-11.083-11.083h-2.7707l-8.3119-8.3119zm2.7707 2.7707h11.083v5.5412h-2.7706v27.707h-8.3119zm11.083 8.312h11.083v11.083h11.083v19.395h-22.165z" fill="currentColor" stroke="#000" stroke-width=".6695"/></svg>
