<?xml version="1.0" encoding="UTF-8" standalone="no"?>
<svg
   height="45mm"
   width="45mm"
   version="1.1"
   id="svg9"
   sodipodi:docname="finished.svg"
   inkscape:version="1.2.2 (b0a8486541, 2022-12-01)"
   xmlns:inkscape="http://www.inkscape.org/namespaces/inkscape"
   xmlns:sodipodi="http://sodipodi.sourceforge.net/DTD/sodipodi-0.dtd"
   xmlns="http://www.w3.org/2000/svg"
   xmlns:svg="http://www.w3.org/2000/svg">
  <defs
     id="defs9625" />
  <sodipodi:namedview
     id="namedview11"
     pagecolor="#ffffff"
     bordercolor="#000000"
     borderopacity="0.25"
     inkscape:showpageshadow="2"
     inkscape:pageopacity="0.0"
     inkscape:pagecheckerboard="0"
     inkscape:deskcolor="#d1d1d1"
     showgrid="false"
     inkscape:zoom="2.2430164"
     inkscape:cx="58.626409"
     inkscape:cy="113.46328"
     inkscape:window-width="1920"
     inkscape:window-height="1007"
     inkscape:window-x="0"
     inkscape:window-y="0"
     inkscape:window-maximized="1"
     inkscape:current-layer="svg9"
     inkscape:document-units="mm" />
  <rect
     height="158.74016"
     width="158.74016"
     x="0"
     y="0"
     rx="14.430923"
     style="fill:#27ae60;fill-opacity:1;stroke-width:0.933334"
     id="rect9628" />
  <path
     d="M 126.89111,39.064509 64.939155,101.01647 31.849047,67.926356 21.646384,78.129018 64.939155,121.42179 137.09376,49.267172 Z"
     fill="#ffffff"
     style="stroke-width:7.21545"
     id="path9630" />
  <path
     d="M 14.430924,0 C 6.4361916,0 0,6.4361916 0,14.430924 V 144.30924 c 0,7.99473 6.4361916,14.43092 14.430924,14.43092 H 144.30924 c 7.99473,0 14.43092,-6.43619 14.43092,-14.43092 V 14.430924 C 158.74016,6.4361916 152.30397,0 144.30924,0 Z m 0,7.2154616 H 144.30924 c 3.99736,0 7.21545,3.2180964 7.21545,7.2154624 V 144.30924 c 0,3.99736 -3.21809,7.21545 -7.21545,7.21545 H 14.430924 c -3.997366,0 -7.2154624,-3.21809 -7.2154624,-7.21545 V 14.430924 c 0,-3.997366 3.2180964,-7.2154624 7.2154624,-7.2154624 z"
     style="fill:#eff0f1;fill-opacity:0.6;stroke-width:0.933334"
     id="path9632" />
</svg>
