<svg width="45mm" height="45mm" version="1.1" xmlns="http://www.w3.org/2000/svg">
 <rect width="158.74" height="158.74" rx="14.431" fill="#f67400" stroke-width=".93333"/>
 <path d="m126.89 39.065-61.952 61.952-33.09-33.09-10.203 10.203 43.293 43.293 72.155-72.155z" fill="#fff" stroke-width="7.2154"/>
 <path d="m14.431 0c-7.9947 0-14.431 6.4362-14.431 14.431v129.88c0 7.9947 6.4362 14.431 14.431 14.431h129.88c7.9947 0 14.431-6.4362 14.431-14.431v-129.88c0-7.9947-6.4362-14.431-14.431-14.431zm0 7.2155h129.88c3.9974 0 7.2154 3.2181 7.2154 7.2155v129.88c0 3.9974-3.2181 7.2154-7.2154 7.2154h-129.88c-3.9974 0-7.2155-3.2181-7.2155-7.2154v-129.88c0-3.9974 3.2181-7.2155 7.2155-7.2155z" fill="#eff0f1" fill-opacity=".6" stroke-width=".93333"/>
</svg>
