<svg version="1.1" viewBox="0 0 500 140" xmlns="http://www.w3.org/2000/svg">
  <defs>
    <style id="y" type="text/css">.ColorScheme-Text {
        color:#eff0f1;
      }</style>
    <linearGradient id="a" x1="229.14101" x2="229.14101" y1="113.979" y2="297.16901" gradientTransform="matrix(.97011451 0 0 .50650252 -60.901587 -25.182308)" gradientUnits="userSpaceOnUse">
      <stop stop-color="#2a2e32" offset="0"/>
      <stop stop-color="#2a2e32" offset="1"/>
    </linearGradient>
  </defs>
  <path class="ColorScheme-Text" d="m143.22091 47.212775v6.14286h-9.21428v43h43v-43h-9.21429v-6.14286zm-6.14285 9.21429h3.07142v6.14286h30.7143v-6.14286h3.07142v36.8571h-36.8571zm6.14285 9.21429v3.07143h24.5714v-3.07143zm0 9.21428v3.07143h18.4286v-3.07143zm0 9.21429v3.07143h9.21429v-3.07143z" color="#eff0f1" fill="currentColor"/>
  <rect x="1.5053101" y="1.5053101" width="496.98938" height="136.98938" ry="4.86623" fill="url(#a)" stroke="#888" stroke-width="3.75"/>
  <g transform="translate(-6)" fill="#eff0f1">
    <g class="ColorScheme-Text" transform="matrix(4,0,0,4,219.18091,39.415875)" color="#eff0f1">
      <path d="m8 2-4 4v4l4 4h1v-12z"/>
      <path d="m2 6v4h1v-4z"/>
      <path d="M 10.128906,4.615234 9.7988281,5.603516 A 3,3 0 0 1 11,8 3,3 0 0 1 9.7988281,10.396484 l 0.3281249,0.984375 A 4,4 0 0 0 12,8 4,4 0 0 0 10.128906,4.615234 Z"/>
      <path d="m9.94531 2.33203-0.167969 1a5 5 0 0 1 3.22266 4.66797 5 5 0 0 1-3.2207 4.67188l0.166016 0.998047a6 6 0 0 0 4.05469-5.66992 6 6 0 0 0-4.05469-5.66797z"/>
    </g>
    <path class="ColorScheme-Text" d="m352.69191 46.732075v21.416l-13.9951-13.9951-3.00492 3.00492 15.0742 15.0742-15.0742 15.0742 3.00492 3.00489 13.9951-13.9951v21.416h4.25l12.75-12.75-12.75-12.75 12.75-12.75-12.75-12.75zm4.25 6.00976 6.74028 6.74024-6.74028 6.74025zm0 25.5 6.74028 6.74024-6.74028 6.74025z" color="#eff0f1"/>
    <path class="ColorScheme-Text" d="m431.63191 47.905475v18h6v21c0 4.986 4.014 9 9 9h21v-3h-6v-6h18v-39h-30v3h27v30h-33v6h6v6h-3c-3.324 0-6-2.676-6-6v-21h6v-18zm3 3h9v12h-9zm3 3v6h3v-6zm-6 15v18h3v-18z" color="#eff0f1"/>
  </g>
  <path d="M 123.05503,43.762953 122.89238,100.72353 80,69.931995 Z" fill="#eff0f1"/>
  <g transform="translate(0,100)" stroke-width="3.75">
    <circle cx="137.26791" cy="-27.809036" r="30" fill="#f7941d" stroke="#eff0f1"/>
    <text x="124.90791" y="-13.709036" fill="#eff0f1" font-family="Nunito" font-size="40px" font-weight="bold" style="font-variant-caps:normal;font-variant-east-asian:normal;font-variant-ligatures:normal;font-variant-numeric:normal;line-height:1.25" xml:space="preserve"><tspan x="124.90791" y="-13.709036" fill="#eff0f1" font-family="Nunito" font-size="40px" font-weight="bold" stroke-width="3.75" style="font-variant-caps:normal;font-variant-east-asian:normal;font-variant-ligatures:normal;font-variant-numeric:normal">4</tspan></text>
  </g>
  <g transform="translate(7.502732,-199.88871)" fill="#eff0f1">
    <g fill="#eff0f1">
      <g transform="translate(394.71778,231.04612)" fill="#eff0f1" stroke-width=".912274">
        <path id="XMLID_7_" d="m-344.21671 7.856455c-17.58149 0-31.83456 14.252578-31.83456 31.834216 0 0.735565 0.0272 1.464753 0.0763 2.187798h7.87463c-0.0566-0.677774-0.0924-1.361395-0.0924-2.053787 0-13.463444 10.91433-24.378115 24.37777-24.378115 0.9365 0 1.85911 0.05803 2.76816 0.160812v-7.5942367c-1.04275-0.10308-2.09998-0.1566873-3.16984-0.1566873zm-0.0451 11.47468c-10.99775 0-19.91318 8.915441-19.91318 19.913181 0 0.893649 0.0651 1.771644 0.17902 2.634153h7.11421c-0.15456-0.810033-0.23881-1.645365-0.23881-2.500487 3.5e-4 -7.323479 5.93715-13.260448 13.26078-13.260448 0.96554 0 1.90586 0.10621 2.81284 0.302037v-6.8266c-1.04676-0.169975-2.11996-0.261836-3.21486-0.261836zm-1.29681 12.818561a5.221615 5.221615 0 0 0-5.22157 5.221574 5.221615 5.221615 0 0 0 5.22157 5.221574 5.221615 5.221615 0 0 0 5.22157-5.221574 5.221615 5.221615 0 0 0-5.22157-5.221574zm-3.07844 13.479331c-1.1787 0-2.14313 0.964437-2.14313 2.143127v17.941174c0 1.178689 0.96443 2.143127 2.14313 2.143127h6.15689c1.1787 0 2.14312-0.964438 2.14312-2.143127v-17.941174c0-1.17869-0.96442-2.143127-2.14312-2.143127z" fill="#eff0f1" stroke-width=".160497"/>
      </g>
    </g>
  </g>
</svg>
