<svg width="512" height="511.99911" enable-background="new 0 0 600 600" version="1.1" viewBox="0 0 512 511.99912" xmlns="http://www.w3.org/2000/svg">
    <path id="XMLID_12_" d="M 423.24941,511.99912 H 88.74964 C 39.93754,511.99912 0,472.06159 0,423.24948 V 88.74964 C 0,39.93753 39.93754,0 88.74964,0 H 423.25036 C 472.06246,0 512,39.93753 512,88.74964 v 334.50072 c -8.8e-4,48.81123 -39.93841,88.74876 -88.75059,88.74876 z" fill="#30c1f1" stroke-width=".912274"/>
    <g transform="translate(221,220.99962)" fill="#fff" stroke-width=".912274">
        <path id="XMLID_7_" d="m95.147566-95.18886c5.323114 0 10.567824 0.329874 15.734934 0.914139v-43.166059c-5.92706-0.58588-11.937138-0.89132-18.018308-0.89132-99.934135 0-180.94775 81.012662-180.94775 180.94767 0 4.180992 0.154332 8.325413 0.433738 12.435237h44.757942c-0.321828-3.852508-0.525165-7.738807-0.525165-11.674405 0-76.526957 62.038308-138.56527 138.56527-138.56527z"/>
        <path id="XMLID_9_" d="m94.893979-34.534487c5.488201 0 10.833261 0.601965 15.988521 1.715053v-38.8017c-5.94988-0.966144-12.049339-1.488823-18.272845-1.488823-62.511762 0-113.18762 50.675858-113.18762 113.18762 0 5.079552 0.36864 10.070602 1.016247 14.973148h40.437468c-0.878519-4.60427-1.356581-9.351753-1.356581-14.212316 0.0018-41.627062 33.746871-75.372982 75.374811-75.372982z"/>
        <circle id="XMLID_11_" cx="85.23764" cy="29.431406" r="29.679918"/>
        <path id="XMLID_13_" d="m102.73584 76.368809h-34.996585c-6.69974 0-12.18165 5.481837-12.18165 12.181577v101.97855c0 6.69974 5.48191 12.18157 12.18165 12.18157h34.996585c6.69974 0 12.18165-5.48183 12.18165-12.18157v-101.97855c0-6.69974-5.48191-12.181577-12.18165-12.181577z"/>
    </g>
</svg>
