<svg version="1.1" viewBox="0 0 512 512" xmlns="http://www.w3.org/2000/svg" xmlns:xlink="http://www.w3.org/1999/xlink"><linearGradient id="a"><stop offset="0"/><stop stop-opacity="0" offset="1"/></linearGradient><linearGradient id="b" x1="16" x2="34.942" y1="11" y2="29.942" gradientUnits="userSpaceOnUse" xlink:href="#a"/><linearGradient id="c" x1="31.021" x2="43.104" y1="-9.896" y2="-9.896" gradientTransform="rotate(45)" gradientUnits="userSpaceOnUse" xlink:href="#a"/><linearGradient id="d" x1="23.716" x2="26.348" y1="13.219" y2="15.851" gradientUnits="userSpaceOnUse" xlink:href="#a"/><linearGradient id="e" x1="-45.2219" x2=".691726" y1="-4.91011" y2="41.6971" gradientTransform="matrix(1.04544,0,0,1.02988,46.0768,3.85684)" gradientUnits="userSpaceOnUse"><stop stop-color="#2bc0ff" offset="0"/><stop stop-color="#1d99f3" offset="1"/></linearGradient><g transform="matrix(12.8 0 0 12.8 -51.1999 -51.1998)"><path transform="matrix(.833333 0 0 .833333 4 4)" d="m6-9.14e-6h36c3.6 0 6 2.40001 6 6.00001v36c0 3.6-2.4 6.00001-6 6.00001h-36c-3.6 0-6-2.40001-6-6.00001v-36c0-3.6 2.4-6.00001 6-6.00001z" fill="url(#e)"/><path d="m22.1621 18.7266-2.19336-2.19336-2.30469 1.45508-0.867187 1.99219-6.75 6.75 4.60742 4.60742-1.96484 1.74805 9.91406 9.91406h14.209c2.87406 0 5.1875-2.28032 5.1875-5.11133-8.49628-10.4821-18-21.8887-19.8379-19.1621z" fill="url(#b)" opacity=".2"/><path d="m36.9707 10.9883-4.36914 1.17774-4.51953 9.5 3.91797 8.32812 11.2852 11.2852c0.45228-0.7842 0.714844-1.69039 0.714844-2.66016v-20.6016z" fill="url(#c)" opacity=".2"/><path d="m26.0008 9.99539 4.53131 4.53131-3.14225 6.65533-6.28785-6.28785z" fill="url(#d)" opacity=".2"/><path d="m15.209 14.6172c-0.123062-0.0059-0.241909 0.03097-0.339843 0.128906l-2.12305 2.12305c-0.195869 0.195869-0.195869 0.511162 0 0.707031l2.19336 3.44531c-0.175549 0.354193-0.327571 0.719568-0.455078 1.09375l-3.98438 0.884766c-0.277 0-0.5 0.223-0.5 0.5v3c0 0.277 0.229596 0.43991 0.5 0.5l3.98633 0.886719c0.12346 0.370523 0.270907 0.732616 0.441406 1.08398l-2.19726 3.45312c-0.148715 0.233695-0.195869 0.511162 0 0.707031l2.12109 2.12305c0.19587 0.195869 0.511163 0.195869 0.707032 0l3.45312-2.19922c0.357212 0.177942 0.725864 0.331927 1.10352 0.460937l0.884766 3.98438c0 0.277 0.223 0.5 0.5 0.5h3c0.277 0 0.43991-0.229596 0.5-0.5l0.886719-3.98633c0.376029-0.125362 0.743365-0.275428 1.09961-0.449219l3.4375 2.18945c0.195869 0.195869 0.511162 0.195869 0.707031 0l2.12305-2.12305c0.195869-0.195869 0.148715-0.473336 0-0.707031l-0.9375-1.47266-0.699218 0.279297-2.24024-3.35938c-1.12898 2.51038-3.62439 4.12609-6.37695 4.12891-3.86599 0-7-3.13401-7-7 0.0031-2.70083 1.55978-5.15891 4-6.31641v-2.15234c-0.336475 0.11516-0.665829 0.250162-0.986328 0.404297l-3.4375-2.18945c-0.116848-0.07436-0.244125-0.123012-0.367188-0.128906z" fill="#fff"/><path d="m26 10-5 0.462891v19.5371l5-1v-8l6 9 5-2-6.5-8.41406 6.50391-8.58594-5.23633-1-5.76758 8.5z" fill="#fff"/><path d="m4 38v1c0 3 2 5 5 5h30c3 0 5-2 5-5v-1c0 3-2 5-5 5h-30c-3 0-5-2-5-5z" opacity=".2"/></g></svg>
