<svg version="1.1" viewBox="0 0 503.5 290" xmlns="http://www.w3.org/2000/svg" xmlns:xlink="http://www.w3.org/1999/xlink"><defs><linearGradient id="e" x1="64" x2="64" y1="-3.314" y2="118.49" gradientUnits="userSpaceOnUse"><stop stop-color="#414141" offset="0"/><stop stop-color="#3e3e3e" offset=".196"/><stop stop-color="#3a3a3a" offset="1"/></linearGradient><radialGradient id="g" cx="-237.64" cy="32.915" r="207.23" gradientTransform="matrix(.3539 0 0 .3539 144.28 41.655)" gradientUnits="userSpaceOnUse"><stop stop-color="#fcfcfc" stop-opacity="0" offset=".6733"/><stop stop-color="#fcfcfc" offset="1"/></radialGradient><radialGradient id="i" cx="-229.3" cy="60.213" r="172.39" gradientTransform="matrix(.3539 0 0 .3539 144.28 41.655)" gradientUnits="userSpaceOnUse"><stop stop-color="#0f0f0d" stop-opacity="0" offset=".1088"/><stop stop-color="#414141" stop-opacity="0" offset=".8856"/><stop stop-color="#1e1e1d" stop-opacity=".6841" offset=".9339"/><stop stop-color="#0f0f0d" offset=".9874"/></radialGradient><radialGradient id="n" cx="-223.55" cy="-43.152" r="334.84" gradientTransform="matrix(.3539 0 0 .2026 144.28 35.195)" gradientUnits="userSpaceOnUse"><stop stop-color="#2e6b26" offset="0"/><stop stop-color="#6ab536" offset="1"/></radialGradient><radialGradient id="p" cx="-212.61" cy="12.058" r="148.11" gradientTransform="matrix(.3539 0 0 .4347 144.28 40.66)" gradientUnits="userSpaceOnUse"><stop offset="0"/><stop stop-color="#fff" offset=".7192"/></radialGradient><radialGradient id="r" cx="-226.06" cy="-44.918" r="65.393" gradientTransform="matrix(.3539 0 0 .3539 144.28 41.655)" gradientUnits="userSpaceOnUse"><stop stop-color="#6ab536" offset="0"/><stop stop-color="#2e6b26" offset="1"/></radialGradient><radialGradient id="t" cx="-263.92" cy="-1.8335" r="96.585" gradientTransform="matrix(.3356 0 0 .5572 152.49 40.142)" gradientUnits="userSpaceOnUse"><stop offset="0"/><stop stop-color="#4f4f4f" stop-opacity="0" offset=".7842"/></radialGradient><radialGradient id="w" cx="-227.45" cy="-64.573" r="223.51" gradientTransform="matrix(.3539 0 0 .3539 144.28 41.655)" gradientUnits="userSpaceOnUse"><stop stop-color="#f5f5f5" offset="0"/><stop stop-color="#e3e3e3" offset="1"/></radialGradient><linearGradient id="linearGradient14580" x1="436.21" x2="436.21" y1="362.61" y2="344.49" gradientTransform="matrix(5.0596 0 0 .9344 -1766.6 -411.51)" gradientUnits="userSpaceOnUse"><stop stop-color="#303539" offset="0"/><stop stop-color="#373c41" offset="1"/></linearGradient><linearGradient id="linearGradient31638" x1="436.21" x2="436.21" y1="362.61" y2="344.49" gradientTransform="matrix(5.0596 0 0 .9344 -1743.1 -107.51)" gradientUnits="userSpaceOnUse" xlink:href="#linearGradient14580"/><linearGradient id="linearGradient31646" x1="436.21" x2="436.21" y1="362.61" y2="344.49" gradientTransform="matrix(4.5521 0 0 .93769 -1383.4 -108.63)" gradientUnits="userSpaceOnUse" xlink:href="#linearGradient14580"/><linearGradient id="linearGradient31654" x1="436.21" x2="436.21" y1="362.61" y2="344.49" gradientTransform="matrix(4.7074 0 0 .93663 -1296.4 -108.53)" gradientUnits="userSpaceOnUse" xlink:href="#linearGradient14580"/></defs><rect x="1.7105" y="1.7105" width="500.08" height="286.58" ry="9.1777" fill="#2a2e32" stroke="#888" stroke-width="3.4211"/><g stroke-width="3.75"><circle cx="456.88" cy="45.123" r="30" fill="#f7941d" stroke="#eff0f1"/><text x="445.233" y="59.222584" font-family="Nunito" font-size="40px" font-weight="bold" style="font-variant-caps:normal;font-variant-east-asian:normal;font-variant-ligatures:normal;font-variant-numeric:normal;line-height:1.25" xml:space="preserve"><tspan x="445.233" y="59.222584" fill="#ffffff" font-family="Nunito" font-size="40px" font-weight="bold" stroke-width="3.75" style="font-variant-caps:normal;font-variant-east-asian:normal;font-variant-ligatures:normal;font-variant-numeric:normal">3</tspan></text></g><g stroke="#666a6d"><rect x="30.839" y="191.35" width="161.4" height="35.586" ry="3.9779" fill="url(#linearGradient31638)" stroke-width="2.5"/><rect x="200.07" y="191.29" width="152.25" height="35.481" ry="3.9919" fill="url(#linearGradient31646)" stroke-width="2.3755"/><rect x="360.11" y="191.05" width="112.6" height="35.962" ry="3.9874" fill="url(#linearGradient31654)" stroke-width="2.4143"/></g><g transform="matrix(.5 0 0 .5 219.75 61.78)" style="isolation:isolate"><g id="b"><g id="c"><rect width="128" height="128" fill="none"/><g id="d"><path id="f" d="m64 124.9c-33.58 0-60.9-27.32-60.9-60.9s27.32-60.9 60.9-60.9 60.9 27.32 60.9 60.9-27.319 60.9-60.9 60.9zm0-116.68c-30.742 0-55.752 25.021-55.752 55.776s25.01 55.776 55.752 55.776 55.751-25.021 55.751-55.776-25.01-55.776-55.751-55.776z" fill="url(#e)"/><path id="h" d="m64 3.1238c-33.567 0-60.876 27.309-60.876 60.876s27.309 60.876 60.876 60.876 60.876-27.309 60.876-60.876-27.309-60.876-60.876-60.876z" fill="url(#g)" opacity=".32" style="mix-blend-mode:lighten"/><path id="j" d="m64 124.9c-33.58 0-60.9-27.32-60.9-60.9s27.32-60.9 60.9-60.9 60.9 27.32 60.9 60.9-27.319 60.9-60.9 60.9zm0-116.68c-30.742 0-55.752 25.021-55.752 55.776s25.01 55.776 55.752 55.776 55.751-25.021 55.751-55.776-25.01-55.776-55.751-55.776z" fill="url(#i)" opacity=".44"/><path id="k" d="m64 8.5504c-30.978 0-56.181 25.202-56.181 56.181s25.202 56.181 56.181 56.181 56.181-25.203 56.181-56.181-25.202-56.181-56.181-56.181z"/><path id="l" d="m64 124.9c-33.58 0-60.9-27.32-60.9-60.9s27.32-60.9 60.9-60.9 60.9 27.32 60.9 60.9-27.319 60.9-60.9 60.9zm0-120.5c-33.58 0-60.9 26.956-60.9 60.09s27.32 60.09 60.9 60.09 60.9-26.956 60.9-60.09-27.319-60.09-60.9-60.09z" fill="#0f0f0d" opacity=".35"/></g><g id="m"><path id="o" d="m64 8.2241c-30.755 0-55.776 25.021-55.776 55.776s25.021 55.776 55.776 55.776 55.776-25.021 55.776-55.776-25.021-55.776-55.776-55.776z" fill="url(#n)"/><path id="q" d="m64 8.2241c-30.755 0-55.776 25.021-55.776 55.776s25.021 55.776 55.776 55.776 55.776-25.021 55.776-55.776-25.021-55.776-55.776-55.776z" fill="url(#p)" opacity=".13" style="mix-blend-mode:multiply"/><path id="s" d="m64 12.861c-9.1608 0-16.614 7.4528-16.614 16.614s7.4528 16.614 16.614 16.614 16.614-7.4528 16.614-16.614-7.4527-16.614-16.614-16.614z" fill="url(#r)" opacity=".7" style="mix-blend-mode:lighten"/><path id="u" d="m34.687 16.364c-0.0027 0.0191-0.0054 0.0378-0.0081 0.0569-0.0725 0.0136-0.0736-0.0037 0.0081-0.0569zm42.118 35.8-0.7714 13.782 9.1023 9.9165-9.1023 9.9165 6.0168 6.5549-6.0168 6.5549 0.7714 13.67h-25.61v-60.395c-10.182-5.2104-17.125-16.471-17.125-29.413 0-2.1659 0.3032-4.1671 0.609-6.33 1.1046-0.2082 18.967-7.6947 18.967-7.6947-0.1483 0.8092 20.855 0.8092 20.707 0 0 0 17.258 7.4257 18.989 7.7899 0.438 2.1264 0.5873 4.101 0.5873 6.2348 0 12.942-7.0968 24.203-17.125 29.413zm16.508-35.8c0.0108 0.0511 0.0194 0.1011 0.0299 0.1521 0.1896 0.0399 0.196-0.0035-0.0299-0.1521z" fill="url(#t)" opacity=".3" style="mix-blend-mode:multiply"/><path id="v" d="m34.116 100.43c-9.8977-8.6081-16.164-21.297-16.164-35.497 0-16.523 8.6409-31.774 22.873-40.29-0.2541 1.6523-0.5083 3.1774-0.5083 4.8297 0 9.7865 5.7182 18.302 14.105 22.242v44.611l10.547 10.549 10.547-10.549-0.6354-9.2781 4.9558-4.9568-4.9558-4.9568 7.4972-7.4988-7.4972-7.4988 0.6354-10.422c8.2596-3.94 14.105-12.456 14.105-22.242 0-1.6523-0.1271-3.1774-0.5083-4.8297 5.1643 3.1178 9.5922 7.1416 13.142 11.797-8.5841-11.789-22.529-19.459-38.277-19.459-26.091 0-47.242 21.05-47.242 47.016 0 14.693 6.7736 27.81 17.381 36.432zm27.421-7.6624h-3.558v-35.206h3.558zm-5.0828-73.971c2.7956-0.5084 5.7182-0.7626 8.5138-0.7626 2.9226-0.1271 5.7182 0.2542 8.5138 0.7626 0.1271 0.6355 0.2542 1.271 0.2542 1.9064 0 4.8297-3.9392 8.7698-8.7679 8.7698s-8.7679-3.94-8.7679-8.7698c0-0.6355 0.1271-1.2709 0.2542-1.9064z" fill="#0f0f0d" opacity=".2" style="mix-blend-mode:multiply"/><path id="x" d="m64 8.2241c-30.742 0-55.751 25.021-55.751 55.776s25.01 55.776 55.751 55.776 55.751-25.021 55.751-55.776-25.01-55.776-55.751-55.776zm-8.5138 9.5882c2.7956-0.5084 5.7182-0.7626 8.5138-0.7626 2.9226-0.1271 5.7182 0.2542 8.5138 0.7626 0.1271 0.6355 0.2542 1.271 0.2542 1.9064 0 4.8297-3.9392 8.7698-8.7679 8.7698s-8.7679-3.94-8.7679-8.7698c0-0.6355 0.1271-1.2709 0.2542-1.9064zm5.0828 38.765v35.206h-3.558v-35.206zm3.4309 54.398c-25.922 0-47.016-20.971-47.016-47.026 0-16.523 8.6409-31.774 22.873-40.29-0.2541 1.6523-0.5083 3.1774-0.5083 4.8297 0 9.7865 5.7182 18.302 14.105 22.242v44.611l10.547 10.549 10.547-10.549-0.6354-9.2781 4.9558-4.9568-4.9558-4.9568 7.4972-7.4988-7.4972-7.4988 0.6354-10.422c8.2596-3.94 14.105-12.456 14.105-22.242 0-1.6523-0.1271-3.1774-0.5083-4.8297 14.105 8.5156 22.746 23.767 22.873 40.29 0 25.928-20.967 47.026-47.016 47.026z" fill="url(#w)"/></g></g></g></g><g fill="#eff0f1" aria-label="Welcome to KeePassXC"><path d="m137.64 139.44-4.368 17.136h-4.128l-2.328-9q-0.072-0.264-0.192-0.792-0.096-0.528-0.24-1.152-0.12-0.624-0.216-1.176-0.096-0.576-0.144-0.888-0.024 0.312-0.144 0.888-0.096 0.552-0.216 1.176-0.12 0.6-0.24 1.152-0.12 0.528-0.192 0.816l-2.304 8.976h-4.128l-4.368-17.136h3.576l2.184 9.36q0.144 0.552 0.312 1.392t0.312 1.68 0.216 1.416q0.072-0.6 0.216-1.416 0.144-0.84 0.288-1.608 0.168-0.792 0.288-1.224l2.496-9.6h3.432l2.496 9.6q0.12 0.408 0.264 1.2 0.168 0.792 0.312 1.632t0.216 1.416q0.072-0.6 0.216-1.416 0.144-0.84 0.312-1.68 0.192-0.84 0.312-1.392l2.184-9.36z"/><path d="m144.43 143.23q2.712 0 4.296 1.56 1.584 1.536 1.584 4.392v1.728h-8.448q0.048 1.512 0.888 2.376 0.864 0.864 2.376 0.864 1.272 0 2.304-0.24 1.032-0.264 2.136-0.792v2.76q-0.96 0.48-2.04 0.696-1.056 0.24-2.568 0.24-1.968 0-3.48-0.72-1.512-0.744-2.376-2.232t-0.864-3.744q0-2.304 0.768-3.816 0.792-1.536 2.184-2.304t3.24-0.768zm0.024 2.544q-1.032 0-1.728 0.672-0.672 0.672-0.792 2.088h5.016q-0.024-1.2-0.624-1.968-0.6-0.792-1.872-0.792z"/><path d="m156.79 156.58h-3.576v-18.24h3.576z"/><path d="m165.87 156.82q-2.928 0-4.536-1.608-1.584-1.632-1.584-5.112 0-2.4 0.816-3.912t2.256-2.232q1.464-0.72 3.36-0.72 1.344 0 2.328 0.264 1.008 0.264 1.752 0.624l-1.056 2.76q-0.84-0.336-1.584-0.552-0.72-0.216-1.44-0.216-2.784 0-2.784 3.96 0 1.968 0.72 2.904 0.744 0.936 2.064 0.936 1.128 0 1.992-0.288 0.864-0.312 1.68-0.84v3.048q-0.816 0.528-1.728 0.744-0.888 0.24-2.256 0.24z"/><path d="m184.78 150q0 3.264-1.728 5.04-1.704 1.776-4.656 1.776-1.824 0-3.264-0.792-1.416-0.792-2.232-2.304-0.816-1.536-0.816-3.72 0-3.264 1.704-5.016t4.68-1.752q1.848 0 3.264 0.792t2.232 2.304q0.816 1.488 0.816 3.672zm-9.048 0q0 1.944 0.624 2.952 0.648 0.984 2.088 0.984 1.416 0 2.04-0.984 0.648-1.008 0.648-2.952t-0.648-2.904q-0.624-0.984-2.064-0.984-1.416 0-2.064 0.984-0.624 0.96-0.624 2.904z"/><path d="m203.11 143.23q2.232 0 3.36 1.152 1.152 1.128 1.152 3.648v8.544h-3.576v-7.656q0-2.832-1.968-2.832-1.416 0-2.016 1.008t-0.6 2.904v6.576h-3.576v-7.656q0-2.832-1.968-2.832-1.488 0-2.064 1.128-0.552 1.104-0.552 3.192v6.168h-3.576v-13.104h2.736l0.48 1.68h0.192q0.6-1.008 1.632-1.464 1.056-0.456 2.184-0.456 1.44 0 2.448 0.48 1.008 0.456 1.536 1.44h0.312q0.6-1.008 1.656-1.464 1.08-0.456 2.208-0.456z"/><path d="m216.7 143.23q2.712 0 4.296 1.56 1.584 1.536 1.584 4.392v1.728h-8.448q0.048 1.512 0.888 2.376 0.864 0.864 2.376 0.864 1.272 0 2.304-0.24 1.032-0.264 2.136-0.792v2.76q-0.96 0.48-2.04 0.696-1.056 0.24-2.568 0.24-1.968 0-3.48-0.72-1.512-0.744-2.376-2.232t-0.864-3.744q0-2.304 0.768-3.816 0.792-1.536 2.184-2.304t3.24-0.768zm0.024 2.544q-1.032 0-1.728 0.672-0.672 0.672-0.792 2.088h5.016q-0.024-1.2-0.624-1.968-0.6-0.792-1.872-0.792z"/><path d="m237.24 153.96q0.6 0 1.152-0.12t1.104-0.288v2.664q-0.576 0.24-1.44 0.408-0.84 0.192-1.848 0.192-1.176 0-2.112-0.384-0.912-0.384-1.464-1.32-0.528-0.96-0.528-2.64v-6.312h-1.704v-1.512l1.968-1.2 1.032-2.76h2.28v2.784h3.672v2.688h-3.672v6.312q0 0.744 0.432 1.128 0.432 0.36 1.128 0.36z"/><path d="m254.04 150q0 3.264-1.728 5.04-1.704 1.776-4.656 1.776-1.824 0-3.264-0.792-1.416-0.792-2.232-2.304-0.816-1.536-0.816-3.72 0-3.264 1.704-5.016t4.68-1.752q1.848 0 3.264 0.792t2.232 2.304q0.816 1.488 0.816 3.672zm-9.048 0q0 1.944 0.624 2.952 0.648 0.984 2.088 0.984 1.416 0 2.04-0.984 0.648-1.008 0.648-2.952t-0.648-2.904q-0.624-0.984-2.064-0.984-1.416 0-2.064 0.984-0.624 0.96-0.624 2.904z"/><path d="m277.3 156.58h-4.128l-4.488-7.224-1.536 1.104v6.12h-3.624v-17.136h3.624v7.848q0.36-0.504 0.72-1.008t0.72-1.008l4.632-5.832h4.032l-5.976 7.584z"/><path d="m284.57 143.23q2.712 0 4.296 1.56 1.584 1.536 1.584 4.392v1.728h-8.448q0.048 1.512 0.888 2.376 0.864 0.864 2.376 0.864 1.272 0 2.304-0.24 1.032-0.264 2.136-0.792v2.76q-0.96 0.48-2.04 0.696-1.056 0.24-2.568 0.24-1.968 0-3.48-0.72-1.512-0.744-2.376-2.232t-0.864-3.744q0-2.304 0.768-3.816 0.792-1.536 2.184-2.304t3.24-0.768zm0.024 2.544q-1.032 0-1.728 0.672-0.672 0.672-0.792 2.088h5.016q-0.024-1.2-0.624-1.968-0.6-0.792-1.872-0.792z"/><path d="m298.75 143.23q2.712 0 4.296 1.56 1.584 1.536 1.584 4.392v1.728h-8.448q0.048 1.512 0.888 2.376 0.864 0.864 2.376 0.864 1.272 0 2.304-0.24 1.032-0.264 2.136-0.792v2.76q-0.96 0.48-2.04 0.696-1.056 0.24-2.568 0.24-1.968 0-3.48-0.72-1.512-0.744-2.376-2.232t-0.864-3.744q0-2.304 0.768-3.816 0.792-1.536 2.184-2.304t3.24-0.768zm0.024 2.544q-1.032 0-1.728 0.672-0.672 0.672-0.792 2.088h5.016q-0.024-1.2-0.624-1.968-0.6-0.792-1.872-0.792z"/><path d="m313.3 139.44q3.312 0 4.824 1.44 1.536 1.416 1.536 3.912 0 1.488-0.624 2.808-0.624 1.296-2.088 2.088-1.44 0.792-3.936 0.792h-1.56v6.096h-3.624v-17.136zm-0.192 2.976h-1.656v5.088h1.2q1.536 0 2.424-0.6 0.912-0.624 0.912-1.992 0-2.496-2.88-2.496z"/><path d="m327.99 143.21q2.64 0 4.032 1.152 1.416 1.128 1.416 3.48v8.736h-2.496l-0.696-1.776h-0.096q-0.84 1.056-1.776 1.536t-2.568 0.48q-1.752 0-2.904-1.008-1.152-1.032-1.152-3.144 0-2.088 1.464-3.072 1.464-1.008 4.392-1.104l2.28-0.072v-0.576q0-1.032-0.552-1.512-0.528-0.48-1.488-0.48t-1.872 0.288q-0.912 0.264-1.824 0.672l-1.176-2.424q1.056-0.552 2.328-0.864 1.296-0.312 2.688-0.312zm0.504 7.344q-1.728 0.048-2.4 0.624t-0.672 1.512q0 0.816 0.48 1.176 0.48 0.336 1.248 0.336 1.152 0 1.944-0.672 0.792-0.696 0.792-1.944v-1.08z"/><path d="m346.25 152.69q0 1.992-1.416 3.072-1.392 1.056-4.176 1.056-1.368 0-2.352-0.192-0.984-0.168-1.968-0.576v-2.952q1.056 0.48 2.28 0.792t2.16 0.312q1.056 0 1.488-0.312 0.456-0.312 0.456-0.816 0-0.336-0.192-0.6-0.168-0.264-0.768-0.6t-1.872-0.864q-1.224-0.528-2.016-1.032-0.792-0.528-1.176-1.248-0.384-0.744-0.384-1.848 0-1.824 1.416-2.736t3.768-0.912q1.224 0 2.328 0.24t2.28 0.792l-1.08 2.568q-0.96-0.408-1.824-0.672-0.864-0.288-1.752-0.288-1.584 0-1.584 0.864 0 0.312 0.192 0.576 0.216 0.24 0.792 0.528 0.6 0.288 1.752 0.768 1.128 0.456 1.944 0.96 0.816 0.48 1.248 1.224 0.456 0.72 0.456 1.896z"/><path d="m358.18 152.69q0 1.992-1.416 3.072-1.392 1.056-4.176 1.056-1.368 0-2.352-0.192-0.984-0.168-1.968-0.576v-2.952q1.056 0.48 2.28 0.792t2.16 0.312q1.056 0 1.488-0.312 0.456-0.312 0.456-0.816 0-0.336-0.192-0.6-0.168-0.264-0.768-0.6t-1.872-0.864q-1.224-0.528-2.016-1.032-0.792-0.528-1.176-1.248-0.384-0.744-0.384-1.848 0-1.824 1.416-2.736t3.768-0.912q1.224 0 2.328 0.24t2.28 0.792l-1.08 2.568q-0.96-0.408-1.824-0.672-0.864-0.288-1.752-0.288-1.584 0-1.584 0.864 0 0.312 0.192 0.576 0.216 0.24 0.792 0.528 0.6 0.288 1.752 0.768 1.128 0.456 1.944 0.96 0.816 0.48 1.248 1.224 0.456 0.72 0.456 1.896z"/><path d="m375.1 156.58h-4.152l-3.984-6.48-3.984 6.48h-3.888l5.688-8.832-5.328-8.304h4.008l3.696 6.168 3.624-6.168h3.912l-5.376 8.496z"/><path d="m384.05 142.23q-2.088 0-3.192 1.56t-1.104 4.272q0 2.736 1.008 4.248 1.032 1.488 3.288 1.488 1.056 0 2.088-0.24 1.056-0.24 2.28-0.672v3.048q-1.128 0.456-2.232 0.672t-2.472 0.216q-2.64 0-4.368-1.08-1.704-1.104-2.52-3.072-0.816-1.992-0.816-4.632 0-2.592 0.936-4.584t2.712-3.12q1.8-1.128 4.392-1.128 1.272 0 2.544 0.336 1.296 0.312 2.472 0.864l-1.176 2.952q-0.96-0.456-1.944-0.792-0.96-0.336-1.896-0.336z"/></g><g fill="#fff"><g aria-label="Create Database"><path d="m46.476 204.11q-2.1467 0-3.3787 1.4373-1.232 1.4373-1.232 3.9387 0 2.4827 1.1387 3.9387 1.1573 1.4373 3.4533 1.4373 0.87734 0 1.6613-0.14933 0.784-0.14934 1.5307-0.37334v1.456q-0.74667 0.28001-1.5493 0.41067-0.784 0.13067-1.8853 0.13067-2.0347 0-3.3973-0.84t-2.0533-2.3893q-0.672-1.5493-0.672-3.64 0-2.016 0.728-3.5467 0.74667-1.5493 2.184-2.408 1.4373-0.87734 3.4907-0.87734 2.1093 0 3.6773 0.784l-0.672 1.4187q-0.616-0.28-1.3813-0.504-0.74667-0.224-1.6427-0.224z"/><path d="m57.004 205.96q0.28 0 0.59734 0.0373 0.336 0.0187 0.57867 0.0747l-0.20533 1.512q-0.24267-0.056-0.54134-0.0933-0.28-0.0373-0.54133-0.0373-0.76534 0-1.4373 0.42933-0.672 0.41067-1.0827 1.176-0.392 0.74666-0.392 1.7547v5.3387h-1.6427v-10.005h1.344l0.18667 1.8293h0.07467q0.48533-0.82134 1.2507-1.4187 0.76534-0.59734 1.8107-0.59734z"/><path d="m63.538 205.96q1.288 0 2.2027 0.56 0.93334 0.56001 1.4187 1.5867 0.504 1.008 0.504 2.3707v0.98933h-6.8507q0.03733 1.6987 0.85867 2.5947 0.84 0.87734 2.3333 0.87734 0.952 0 1.68-0.168 0.74667-0.18667 1.5307-0.52267v1.4373q-0.76534 0.33601-1.512 0.48534-0.74667 0.168-1.7733 0.168-1.4187 0-2.52-0.57867-1.0827-0.57867-1.6987-1.7173-0.59734-1.1573-0.59734-2.8187 0-1.6427 0.54133-2.8187 0.56-1.176 1.5493-1.8107 1.008-0.63467 2.3333-0.63467zm-0.01867 1.344q-1.176 0-1.8667 0.76533-0.672 0.74667-0.80267 2.0907h5.096q-0.01867-1.2693-0.59733-2.0533-0.57867-0.80266-1.8293-0.80266z"/><path d="m73.991 205.97q1.8293 0 2.7067 0.80267t0.87734 2.5573v6.8133h-1.1947l-0.31733-1.4187h-0.07467q-0.65334 0.82134-1.3813 1.2133-0.70933 0.392-1.9787 0.392-1.3627 0-2.2587-0.70934-0.896-0.728-0.896-2.2587 0-1.4933 1.176-2.296 1.176-0.82134 3.6213-0.896l1.6987-0.056v-0.59734q0-1.2507-0.54133-1.736t-1.5307-0.48533q-0.784 0-1.4933 0.24266-0.70934 0.224-1.3253 0.52267l-0.504-1.232q0.65333-0.35467 1.5493-0.59734 0.896-0.26133 1.8667-0.26133zm0.48533 5.3387q-1.8667 0.0747-2.5947 0.59733-0.70934 0.52267-0.70934 1.4747 0 0.84 0.504 1.232 0.52267 0.392 1.3253 0.392 1.2693 0 2.1093-0.69066 0.84-0.70934 0.84-2.1653v-0.896z"/><path d="m84.015 214.99q0.37333 0 0.76533-0.056 0.392-0.0747 0.63467-0.14934v1.2507q-0.26133 0.13067-0.74667 0.20534-0.48533 0.0933-0.93334 0.0933-0.784 0-1.456-0.26133-0.65333-0.28001-1.064-0.95201-0.41067-0.672-0.41067-1.8853v-5.824h-1.4187v-0.78401l1.4373-0.65333 0.65333-2.128h0.97067v2.296h2.8933v1.2693h-2.8933v5.7867q0 0.91467 0.42933 1.3627 0.448 0.42934 1.1387 0.42934z"/><path d="m91.276 205.96q1.288 0 2.2027 0.56 0.93334 0.56001 1.4187 1.5867 0.504 1.008 0.504 2.3707v0.98933h-6.8507q0.03733 1.6987 0.85867 2.5947 0.84 0.87734 2.3333 0.87734 0.952 0 1.68-0.168 0.74667-0.18667 1.5307-0.52267v1.4373q-0.76534 0.33601-1.512 0.48534-0.74667 0.168-1.7733 0.168-1.4187 0-2.52-0.57867-1.0827-0.57867-1.6987-1.7173-0.59734-1.1573-0.59734-2.8187 0-1.6427 0.54134-2.8187 0.56-1.176 1.5493-1.8107 1.008-0.63467 2.3333-0.63467zm-0.01867 1.344q-1.176 0-1.8667 0.76533-0.672 0.74667-0.80267 2.0907h5.096q-0.01867-1.2693-0.59734-2.0533-0.57867-0.80266-1.8293-0.80266z"/><path d="m113.69 209.35q0 3.3787-1.848 5.096-1.8293 1.6987-5.1147 1.6987h-3.7147v-13.328h4.1067q2.016 0 3.4907 0.74667 1.4747 0.74666 2.2773 2.2027 0.80266 1.4373 0.80266 3.584zm-1.7733 0.056q0-2.6693-1.3253-3.9013-1.3067-1.2507-3.7147-1.2507h-2.184v10.453h1.8107q5.4134 0 5.4134-5.3014z"/><path d="m120.21 205.97q1.8293 0 2.7067 0.80267 0.87734 0.80267 0.87734 2.5573v6.8133h-1.1947l-0.31733-1.4187h-0.0747q-0.65333 0.82134-1.3813 1.2133-0.70933 0.392-1.9787 0.392-1.3627 0-2.2587-0.70934-0.896-0.728-0.896-2.2587 0-1.4933 1.176-2.296 1.176-0.82134 3.6213-0.896l1.6987-0.056v-0.59734q0-1.2507-0.54133-1.736-0.54134-0.48533-1.5307-0.48533-0.784 0-1.4933 0.24266-0.70933 0.224-1.3253 0.52267l-0.504-1.232q0.65333-0.35467 1.5493-0.59734 0.896-0.26133 1.8667-0.26133zm0.48534 5.3387q-1.8667 0.0747-2.5947 0.59733-0.70934 0.52267-0.70934 1.4747 0 0.84 0.504 1.232 0.52267 0.392 1.3253 0.392 1.2693 0 2.1093-0.69066 0.84-0.70934 0.84-2.1653v-0.896z"/><path d="m130.23 214.99q0.37334 0 0.76534-0.056 0.392-0.0747 0.63467-0.14934v1.2507q-0.26134 0.13067-0.74667 0.20534-0.48534 0.0933-0.93334 0.0933-0.784 0-1.456-0.26133-0.65333-0.28001-1.064-0.95201t-0.41067-1.8853v-5.824h-1.4187v-0.78401l1.4373-0.65333 0.65333-2.128h0.97067v2.296h2.8933v1.2693h-2.8933v5.7867q0 0.91467 0.42933 1.3627 0.44801 0.42934 1.1387 0.42934z"/><path d="m137.42 205.97q1.8293 0 2.7067 0.80267 0.87734 0.80267 0.87734 2.5573v6.8133h-1.1947l-0.31734-1.4187h-0.0747q-0.65334 0.82134-1.3813 1.2133-0.70933 0.392-1.9787 0.392-1.3627 0-2.2587-0.70934-0.896-0.728-0.896-2.2587 0-1.4933 1.176-2.296 1.176-0.82134 3.6213-0.896l1.6987-0.056v-0.59734q0-1.2507-0.54133-1.736-0.54134-0.48533-1.5307-0.48533-0.78401 0-1.4933 0.24266-0.70933 0.224-1.3253 0.52267l-0.504-1.232q0.65334-0.35467 1.5493-0.59734 0.896-0.26133 1.8667-0.26133zm0.48533 5.3387q-1.8667 0.0747-2.5947 0.59733-0.70933 0.52267-0.70933 1.4747 0 0.84 0.504 1.232 0.52267 0.392 1.3253 0.392 1.2693 0 2.1093-0.69066 0.84-0.70934 0.84-2.1653v-0.896z"/><path d="m145.75 205.41q0 0.63467-0.0373 1.1947-0.0187 0.54133-0.056 0.85867h0.0933q0.42933-0.63467 1.176-1.064 0.74667-0.42933 1.9227-0.42933 1.8667 0 2.9867 1.3067 1.1387 1.288 1.1387 3.864 0 2.576-1.1387 3.8827-1.1387 1.3067-2.9867 1.3067-1.176 0-1.9227-0.42934-0.74667-0.42933-1.176-1.0267h-0.13067l-0.336 1.2693h-1.176v-14.187h1.6427zm2.8187 1.9227q-1.5867 0-2.2027 0.91467t-0.616 2.8373v0.0747q0 1.848 0.59733 2.8373 0.616 0.97067 2.2587 0.97067 1.344 0 1.9973-0.98934 0.672-0.98933 0.672-2.856 0-3.7893-2.7067-3.7893z"/><path d="m159.37 205.97q1.8293 0 2.7067 0.80267 0.87734 0.80267 0.87734 2.5573v6.8133h-1.1947l-0.31734-1.4187h-0.0747q-0.65334 0.82134-1.3813 1.2133-0.70933 0.392-1.9787 0.392-1.3627 0-2.2587-0.70934-0.896-0.728-0.896-2.2587 0-1.4933 1.176-2.296 1.176-0.82134 3.6213-0.896l1.6987-0.056v-0.59734q0-1.2507-0.54134-1.736-0.54133-0.48533-1.5307-0.48533-0.78401 0-1.4933 0.24266-0.70934 0.224-1.3253 0.52267l-0.504-1.232q0.65334-0.35467 1.5493-0.59734 0.896-0.26133 1.8667-0.26133zm0.48533 5.3387q-1.8667 0.0747-2.5947 0.59733-0.70933 0.52267-0.70933 1.4747 0 0.84 0.504 1.232 0.52267 0.392 1.3253 0.392 1.2693 0 2.1093-0.69066 0.84-0.70934 0.84-2.1653v-0.896z"/><path d="m172.57 213.38q0 1.456-1.0827 2.2027t-2.912 0.74667q-1.0453 0-1.8107-0.168-0.74666-0.168-1.3253-0.46667v-1.4933q0.59733 0.29866 1.4373 0.56 0.85867 0.24266 1.736 0.24266 1.2507 0 1.8107-0.392 0.56-0.41066 0.56-1.0827 0-0.37333-0.20534-0.672-0.20533-0.29866-0.74666-0.59733-0.52267-0.29867-1.512-0.672-0.97066-0.37334-1.6613-0.74667t-1.064-0.896q-0.37334-0.52267-0.37334-1.344 0-1.2693 1.0267-1.96 1.0453-0.69067 2.7253-0.69067 0.91467 0 1.6987 0.18667 0.80267 0.168 1.4933 0.48533l-0.56 1.3067q-0.63467-0.26133-1.3253-0.448-0.69067-0.18666-1.4187-0.18666-1.008 0-1.5493 0.336-0.52267 0.31733-0.52267 0.87733 0 0.41067 0.24267 0.70934 0.24267 0.28 0.80267 0.56 0.57867 0.26133 1.5307 0.63466 0.952 0.35467 1.624 0.72801 0.672 0.37333 1.0267 0.91466 0.35467 0.52267 0.35467 1.3253z"/><path d="m178.86 205.96q1.288 0 2.2027 0.56 0.93333 0.56001 1.4187 1.5867 0.504 1.008 0.504 2.3707v0.98933h-6.8507q0.0373 1.6987 0.85867 2.5947 0.84 0.87734 2.3333 0.87734 0.95201 0 1.68-0.168 0.74667-0.18667 1.5307-0.52267v1.4373q-0.76534 0.33601-1.512 0.48534-0.74666 0.168-1.7733 0.168-1.4187 0-2.52-0.57867-1.0827-0.57867-1.6987-1.7173-0.59733-1.1573-0.59733-2.8187 0-1.6427 0.54133-2.8187 0.56-1.176 1.5493-1.8107 1.008-0.63467 2.3333-0.63467zm-0.0187 1.344q-1.176 0-1.8667 0.76533-0.672 0.74667-0.80267 2.0907h5.096q-0.0187-1.2693-0.59733-2.0533-0.57867-0.80266-1.8293-0.80266z"/></g><g aria-label="Open Database"><path d="m221.69 209.67q0 2.072-0.70933 3.6213-0.69067 1.5307-2.0533 2.3893t-3.3787 0.85867q-2.072 0-3.4533-0.85867-1.3627-0.85867-2.0347-2.408-0.672-1.5493-0.672-3.6213 0-2.0533 0.672-3.584t2.0347-2.3893q1.3813-0.85867 3.472-0.85867 1.9973 0 3.36 0.85867 1.3627 0.84 2.0533 2.3893 0.70933 1.5307 0.70933 3.6027zm-10.528 0q0 2.52 1.064 3.976 1.064 1.4373 3.3227 1.4373 2.2773 0 3.3227-1.4373 1.0453-1.456 1.0453-3.976 0-2.52-1.0453-3.9387-1.0453-1.4373-3.304-1.4373t-3.3413 1.4373q-1.064 1.4187-1.064 3.9387z"/><path d="m229.17 206.16q1.848 0 2.968 1.288 1.1387 1.288 1.1387 3.8827 0 2.5573-1.1387 3.8827-1.12 1.3253-2.9867 1.3253-1.1573 0-1.9227-0.42934-0.74667-0.448-1.176-1.0267h-0.112q0.0373 0.31733 0.0747 0.80266 0.0373 0.48534 0.0373 0.84001v4.1067h-1.6427v-14.485h1.344l0.224 1.3627h0.0747q0.448-0.65334 1.176-1.1013 0.728-0.448 1.9413-0.448zm-0.29866 1.3813q-1.5307 0-2.1653 0.85867-0.616 0.85867-0.65334 2.6133v0.31733q0 1.848 0.59734 2.856 0.616 0.98934 2.2587 0.98934 0.91467 0 1.4933-0.504 0.59733-0.504 0.87733-1.3627 0.29867-0.87734 0.29867-1.9973 0-1.7173-0.672-2.744-0.65334-1.0267-2.0347-1.0267z"/><path d="m239.76 206.16q1.288 0 2.2027 0.56 0.93333 0.56001 1.4187 1.5867 0.504 1.008 0.504 2.3707v0.98934h-6.8507q0.0373 1.6987 0.85867 2.5947 0.84 0.87734 2.3333 0.87734 0.952 0 1.68-0.168 0.74667-0.18667 1.5307-0.52267v1.4373q-0.76534 0.336-1.512 0.48534-0.74667 0.168-1.7733 0.168-1.4187 0-2.52-0.57867-1.0827-0.57867-1.6987-1.7173-0.59733-1.1573-0.59733-2.8187 0-1.6427 0.54133-2.8187 0.56001-1.176 1.5493-1.8107 1.008-0.63467 2.3333-0.63467zm-0.0187 1.344q-1.176 0-1.8667 0.76533-0.672 0.74667-0.80267 2.0907h5.096q-0.0187-1.2693-0.59733-2.0533-0.57867-0.80266-1.8293-0.80266z"/><path d="m251.24 206.16q1.792 0 2.7067 0.87734 0.91467 0.85867 0.91467 2.8v6.5147h-1.624v-6.4027q0-2.408-2.24-2.408-1.6613 0-2.296 0.93333-0.63467 0.93334-0.63467 2.688v5.1893h-1.6427v-10.005h1.3253l0.24267 1.3627h0.0933q0.48534-0.784 1.344-1.1573 0.85867-0.392 1.8107-0.392z"/><path d="m273.71 209.55q0 3.3787-1.848 5.096-1.8293 1.6987-5.1147 1.6987h-3.7147v-13.328h4.1067q2.016 0 3.4907 0.74667 1.4747 0.74666 2.2773 2.2027 0.80266 1.4373 0.80266 3.584zm-1.7733 0.056q0-2.6693-1.3253-3.9013-1.3067-1.2507-3.7147-1.2507h-2.184v10.453h1.8107q5.4134 0 5.4134-5.3014z"/><path d="m280.23 206.18q1.8293 0 2.7067 0.80267 0.87733 0.80267 0.87733 2.5573v6.8133h-1.1947l-0.31733-1.4187h-0.0747q-0.65333 0.82134-1.3813 1.2133-0.70934 0.392-1.9787 0.392-1.3627 0-2.2587-0.70934-0.896-0.728-0.896-2.2587 0-1.4933 1.176-2.296 1.176-0.82134 3.6213-0.896l1.6987-0.056v-0.59734q0-1.2507-0.54134-1.736-0.54133-0.48533-1.5307-0.48533-0.784 0-1.4933 0.24266-0.70934 0.224-1.3253 0.52267l-0.504-1.232q0.65334-0.35467 1.5493-0.59734 0.896-0.26133 1.8667-0.26133zm0.48533 5.3387q-1.8667 0.0747-2.5947 0.59733-0.70933 0.52267-0.70933 1.4747 0 0.84 0.504 1.232 0.52266 0.392 1.3253 0.392 1.2693 0 2.1093-0.69067 0.84-0.70933 0.84-2.1653v-0.896z"/><path d="m290.25 215.19q0.37333 0 0.76533-0.056 0.392-0.0747 0.63467-0.14934v1.2507q-0.26133 0.13067-0.74667 0.20534-0.48533 0.0933-0.93333 0.0933-0.784 0-1.456-0.26134-0.65333-0.28-1.064-0.952t-0.41067-1.8853v-5.824h-1.4187v-0.78401l1.4373-0.65333 0.65334-2.128h0.97066v2.296h2.8933v1.2693h-2.8933v5.7867q0 0.91467 0.42934 1.3627 0.448 0.42934 1.1387 0.42934z"/><path d="m297.44 206.18q1.8293 0 2.7067 0.80267 0.87733 0.80267 0.87733 2.5573v6.8133h-1.1947l-0.31733-1.4187h-0.0747q-0.65333 0.82134-1.3813 1.2133-0.70934 0.392-1.9787 0.392-1.3627 0-2.2587-0.70934-0.89601-0.728-0.89601-2.2587 0-1.4933 1.176-2.296 1.176-0.82134 3.6213-0.896l1.6987-0.056v-0.59734q0-1.2507-0.54134-1.736-0.54133-0.48533-1.5307-0.48533-0.784 0-1.4933 0.24266-0.70934 0.224-1.3253 0.52267l-0.504-1.232q0.65333-0.35467 1.5493-0.59734 0.896-0.26133 1.8667-0.26133zm0.48533 5.3387q-1.8667 0.0747-2.5947 0.59733-0.70934 0.52267-0.70934 1.4747 0 0.84 0.504 1.232 0.52267 0.392 1.3253 0.392 1.2693 0 2.1093-0.69067 0.84-0.70933 0.84-2.1653v-0.896z"/><path d="m305.76 205.62q0 0.63467-0.0373 1.1947-0.0187 0.54133-0.056 0.85867h0.0933q0.42934-0.63467 1.176-1.064 0.74666-0.42933 1.9227-0.42933 1.8667 0 2.9867 1.3067 1.1387 1.288 1.1387 3.864 0 2.576-1.1387 3.8827t-2.9867 1.3067q-1.176 0-1.9227-0.42934-0.74667-0.42933-1.176-1.0267h-0.13066l-0.336 1.2693h-1.176v-14.187h1.6427zm2.8187 1.9227q-1.5867 0-2.2027 0.91467-0.616 0.91467-0.616 2.8373v0.0747q0 1.848 0.59734 2.8373 0.616 0.97067 2.2587 0.97067 1.344 0 1.9973-0.98934 0.672-0.98933 0.672-2.856 0-3.7893-2.7067-3.7893z"/><path d="m319.39 206.18q1.8293 0 2.7067 0.80267 0.87734 0.80267 0.87734 2.5573v6.8133h-1.1947l-0.31733-1.4187h-0.0747q-0.65333 0.82134-1.3813 1.2133-0.70933 0.392-1.9787 0.392-1.3627 0-2.2587-0.70934-0.896-0.728-0.896-2.2587 0-1.4933 1.176-2.296 1.176-0.82134 3.6213-0.896l1.6987-0.056v-0.59734q0-1.2507-0.54133-1.736-0.54134-0.48533-1.5307-0.48533-0.784 0-1.4933 0.24266-0.70933 0.224-1.3253 0.52267l-0.504-1.232q0.65333-0.35467 1.5493-0.59734 0.896-0.26133 1.8667-0.26133zm0.48534 5.3387q-1.8667 0.0747-2.5947 0.59733-0.70934 0.52267-0.70934 1.4747 0 0.84 0.504 1.232 0.52267 0.392 1.3253 0.392 1.2693 0 2.1093-0.69067 0.84001-0.70933 0.84001-2.1653v-0.896z"/><path d="m332.59 213.59q0 1.456-1.0827 2.2027t-2.912 0.74667q-1.0453 0-1.8107-0.168-0.74667-0.168-1.3253-0.46667v-1.4933q0.59734 0.29867 1.4373 0.56001 0.85867 0.24266 1.736 0.24266 1.2507 0 1.8107-0.392 0.56-0.41067 0.56-1.0827 0-0.37333-0.20533-0.672-0.20534-0.29866-0.74667-0.59733-0.52267-0.29867-1.512-0.672-0.97067-0.37334-1.6613-0.74667-0.69067-0.37334-1.064-0.896-0.37333-0.52267-0.37333-1.344 0-1.2693 1.0267-1.96 1.0453-0.69067 2.7253-0.69067 0.91467 0 1.6987 0.18667 0.80267 0.168 1.4933 0.48533l-0.56 1.3067q-0.63467-0.26133-1.3253-0.448-0.69067-0.18666-1.4187-0.18666-1.008 0-1.5493 0.336-0.52267 0.31733-0.52267 0.87733 0 0.41067 0.24267 0.70934 0.24266 0.28 0.80266 0.56 0.57867 0.26133 1.5307 0.63466 0.952 0.35467 1.624 0.72801 0.672 0.37333 1.0267 0.91466 0.35467 0.52267 0.35467 1.3253z"/><path d="m338.88 206.16q1.288 0 2.2027 0.56 0.93334 0.56001 1.4187 1.5867 0.504 1.008 0.504 2.3707v0.98934h-6.8507q0.0373 1.6987 0.85867 2.5947 0.84 0.87734 2.3333 0.87734 0.952 0 1.68-0.168 0.74667-0.18667 1.5307-0.52267v1.4373q-0.76533 0.336-1.512 0.48534-0.74667 0.168-1.7733 0.168-1.4187 0-2.52-0.57867-1.0827-0.57867-1.6987-1.7173-0.59734-1.1573-0.59734-2.8187 0-1.6427 0.54134-2.8187 0.56-1.176 1.5493-1.8107 1.008-0.63467 2.3333-0.63467zm-0.0187 1.344q-1.176 0-1.8667 0.76533-0.67201 0.74667-0.80267 2.0907h5.096q-0.0187-1.2693-0.59734-2.0533-0.57866-0.80266-1.8293-0.80266z"/></g><g aria-label="Import File"><path d="m374.22 216.35h-4.816v-0.97067l1.568-0.35466v-10.659l-1.568-0.37333v-0.97067h4.816v0.97067l-1.568 0.37333v10.659l1.568 0.35466z"/><path d="m387.55 206.16q1.6987 0 2.5387 0.87734 0.84 0.85867 0.84 2.8v6.5147h-1.624v-6.44q0-2.3707-2.0347-2.3707-1.456 0-2.0907 0.84-0.616 0.84-0.616 2.4453v5.5253h-1.624v-6.44q0-2.3707-2.0533-2.3707-1.512 0-2.0907 0.93333-0.57867 0.93334-0.57867 2.688v5.1893h-1.6427v-10.005h1.3253l0.24267 1.3627h0.0933q0.46667-0.784 1.2507-1.1573 0.80267-0.392 1.6987-0.392 2.352 0 3.0613 1.68h0.0933q0.504-0.85867 1.3627-1.2693 0.87734-0.41067 1.848-0.41067z"/><path d="m398.79 206.16q1.848 0 2.968 1.288 1.1387 1.288 1.1387 3.8827 0 2.5573-1.1387 3.8827-1.12 1.3253-2.9867 1.3253-1.1573 0-1.9227-0.42934-0.74667-0.448-1.176-1.0267h-0.112q0.0373 0.31733 0.0747 0.80266 0.0373 0.48534 0.0373 0.84001v4.1067h-1.6427v-14.485h1.344l0.224 1.3627h0.0747q0.448-0.65334 1.176-1.1013 0.728-0.448 1.9413-0.448zm-0.29866 1.3813q-1.5307 0-2.1653 0.85867-0.616 0.85867-0.65334 2.6133v0.31733q0 1.848 0.59734 2.856 0.616 0.98934 2.2587 0.98934 0.91467 0 1.4933-0.504 0.59734-0.504 0.87734-1.3627 0.29867-0.87734 0.29867-1.9973 0-1.7173-0.672-2.744-0.65334-1.0267-2.0347-1.0267z"/><path d="m414.2 211.33q0 2.4827-1.2693 3.8453-1.2507 1.3627-3.3973 1.3627-1.3253 0-2.3707-0.59734-1.0267-0.616-1.624-1.7733-0.59734-1.176-0.59734-2.8373 0-2.4827 1.2507-3.8267 1.2507-1.344 3.3973-1.344 1.3627 0 2.3893 0.616 1.0453 0.59734 1.624 1.7547 0.59733 1.1387 0.59733 2.8zm-7.56 0q0 1.7733 0.69067 2.8187 0.70933 1.0267 2.24 1.0267 1.512 0 2.2213-1.0267 0.70933-1.0453 0.70933-2.8187t-0.70933-2.7813-2.24-1.008-2.2213 1.008-0.69067 2.7813z"/><path d="m421.47 206.16q0.28 0 0.59733 0.0373 0.33601 0.0187 0.57867 0.0747l-0.20533 1.512q-0.24267-0.056-0.54134-0.0933-0.28-0.0373-0.54133-0.0373-0.76533 0-1.4373 0.42933-0.672 0.41067-1.0827 1.176-0.39201 0.74666-0.39201 1.7547v5.3387h-1.6427v-10.005h1.344l0.18666 1.8293h0.0747q0.48534-0.82134 1.2507-1.4187 0.76533-0.59734 1.8107-0.59734z"/><path d="m427.85 215.19q0.37334 0 0.76534-0.056 0.392-0.0747 0.63467-0.14934v1.2507q-0.26134 0.13067-0.74667 0.20534-0.48533 0.0933-0.93334 0.0933-0.784 0-1.456-0.26134-0.65333-0.28-1.064-0.952t-0.41067-1.8853v-5.824h-1.4187v-0.78401l1.4373-0.65333 0.65333-2.128h0.97067v2.296h2.8933v1.2693h-2.8933v5.7867q0 0.91467 0.42934 1.3627 0.448 0.42934 1.1387 0.42934z"/><path d="m438 216.35h-1.68v-13.328h7.448v1.4747h-5.768v4.7227h5.4134v1.4747h-5.4134z"/><path d="m446.63 202.59q0.37333 0 0.65333 0.26134 0.29867 0.24266 0.29867 0.784 0 0.52267-0.29867 0.784-0.28 0.26133-0.65333 0.26133-0.41067 0-0.69067-0.26133t-0.28-0.784q0-0.54134 0.28-0.784 0.28-0.26134 0.69067-0.26134zm0.80266 3.752v10.005h-1.6427v-10.005z"/><path d="m452.25 216.35h-1.6427v-14.187h1.6427z"/><path d="m459.28 206.16q1.288 0 2.2027 0.56 0.93333 0.56001 1.4187 1.5867 0.504 1.008 0.504 2.3707v0.98934h-6.8507q0.0373 1.6987 0.85867 2.5947 0.84 0.87734 2.3333 0.87734 0.952 0 1.68-0.168 0.74667-0.18667 1.5307-0.52267v1.4373q-0.76534 0.336-1.512 0.48534-0.74667 0.168-1.7733 0.168-1.4187 0-2.52-0.57867-1.0827-0.57867-1.6987-1.7173-0.59733-1.1573-0.59733-2.8187 0-1.6427 0.54133-2.8187 0.56001-1.176 1.5493-1.8107 1.008-0.63467 2.3333-0.63467zm-0.0187 1.344q-1.176 0-1.8667 0.76533-0.672 0.74667-0.80267 2.0907h5.096q-0.0187-1.2693-0.59733-2.0533-0.57867-0.80266-1.8293-0.80266z"/></g></g></svg>
