<svg version="1.1" viewBox="0 0 503.5 290" xmlns="http://www.w3.org/2000/svg" xmlns:xlink="http://www.w3.org/1999/xlink">
 <defs>
  <linearGradient id="e" x1="64" x2="64" y1="-3.314" y2="118.49" gradientUnits="userSpaceOnUse">
   <stop stop-color="#414141" offset="0"/>
   <stop stop-color="#3e3e3e" offset=".196"/>
   <stop stop-color="#3a3a3a" offset="1"/>
  </linearGradient>
  <radialGradient id="g" cx="-237.64" cy="32.915" r="207.23" gradientTransform="matrix(.3539 0 0 .3539 144.28 41.655)" gradientUnits="userSpaceOnUse">
   <stop stop-color="#fcfcfc" stop-opacity="0" offset=".6733"/>
   <stop stop-color="#fcfcfc" offset="1"/>
  </radialGradient>
  <radialGradient id="i" cx="-229.3" cy="60.213" r="172.39" gradientTransform="matrix(.3539 0 0 .3539 144.28 41.655)" gradientUnits="userSpaceOnUse">
   <stop stop-color="#0f0f0d" stop-opacity="0" offset=".1088"/>
   <stop stop-color="#414141" stop-opacity="0" offset=".8856"/>
   <stop stop-color="#1e1e1d" stop-opacity=".6841" offset=".9339"/>
   <stop stop-color="#0f0f0d" offset=".9874"/>
  </radialGradient>
  <radialGradient id="n" cx="-223.55" cy="-43.152" r="334.84" gradientTransform="matrix(.3539 0 0 .2026 144.28 35.195)" gradientUnits="userSpaceOnUse">
   <stop stop-color="#2e6b26" offset="0"/>
   <stop stop-color="#6ab536" offset="1"/>
  </radialGradient>
  <radialGradient id="p" cx="-212.61" cy="12.058" r="148.11" gradientTransform="matrix(.3539 0 0 .4347 144.28 40.66)" gradientUnits="userSpaceOnUse">
   <stop offset="0"/>
   <stop stop-color="#fff" offset=".7192"/>
  </radialGradient>
  <radialGradient id="r" cx="-226.06" cy="-44.918" r="65.393" gradientTransform="matrix(.3539 0 0 .3539 144.28 41.655)" gradientUnits="userSpaceOnUse">
   <stop stop-color="#6ab536" offset="0"/>
   <stop stop-color="#2e6b26" offset="1"/>
  </radialGradient>
  <radialGradient id="t" cx="-263.92" cy="-1.8335" r="96.585" gradientTransform="matrix(.3356 0 0 .5572 152.49 40.142)" gradientUnits="userSpaceOnUse">
   <stop offset="0"/>
   <stop stop-color="#4f4f4f" stop-opacity="0" offset=".7842"/>
  </radialGradient>
  <radialGradient id="w" cx="-227.45" cy="-64.573" r="223.51" gradientTransform="matrix(.3539 0 0 .3539 144.28 41.655)" gradientUnits="userSpaceOnUse">
   <stop stop-color="#f5f5f5" offset="0"/>
   <stop stop-color="#e3e3e3" offset="1"/>
  </radialGradient>
  <linearGradient id="linearGradient14580" x1="436.21" x2="436.21" y1="362.61" y2="344.49" gradientTransform="matrix(5.0596 0 0 .9344 -1766.6 -411.51)" gradientUnits="userSpaceOnUse">
   <stop stop-color="#303539" offset="0"/>
   <stop stop-color="#373c41" offset="1"/>
  </linearGradient>
  <linearGradient id="linearGradient31630" x1="436.21" x2="436.21" y1="362.61" y2="344.49" gradientTransform="matrix(5.0596 0 0 .9344 -1758.9 -110.49)" gradientUnits="userSpaceOnUse" xlink:href="#linearGradient14580"/>
  <linearGradient id="linearGradient31638" x1="436.21" x2="436.21" y1="362.61" y2="344.49" gradientTransform="matrix(5.0596 0 0 .9344 -1758.9 -64.485)" gradientUnits="userSpaceOnUse" xlink:href="#linearGradient14580"/>
  <linearGradient id="linearGradient31646" x1="436.21" x2="436.21" y1="362.61" y2="344.49" gradientTransform="matrix(5.0596 0 0 .9344 -1575.6 -64.485)" gradientUnits="userSpaceOnUse" xlink:href="#linearGradient14580"/>
  <linearGradient id="linearGradient31654" x1="436.21" x2="436.21" y1="362.61" y2="344.49" gradientTransform="matrix(5.0596 0 0 .9344 -1418.9 -64.485)" gradientUnits="userSpaceOnUse" xlink:href="#linearGradient14580"/>
  <linearGradient id="linearGradient31755" x1="436.21" x2="436.21" y1="362.61" y2="344.49" gradientTransform="matrix(5.0596 0 0 .9344 -1758.9 -156.49)" gradientUnits="userSpaceOnUse" xlink:href="#linearGradient14580"/>
 </defs>
 <rect x="1.7105" y="1.7105" width="500.08" height="286.58" ry="9.1777" fill="#2a2e32" stroke="#888" stroke-width="3.4211"/>
 <g stroke-width="3.75">
  <circle cx="456.88" cy="45.123" r="30" fill="#f7941d" stroke="#eff0f1"/>
  <text x="445.233" y="59.222584" font-family="Nunito" font-size="40px" font-weight="bold" style="font-variant-caps:normal;font-variant-east-asian:normal;font-variant-ligatures:normal;font-variant-numeric:normal;line-height:1.25" xml:space="preserve"><tspan x="445.233" y="59.222584" fill="#ffffff" font-family="Nunito" font-size="40px" font-weight="bold" stroke-width="3.75" style="font-variant-caps:normal;font-variant-east-asian:normal;font-variant-ligatures:normal;font-variant-numeric:normal">3</tspan></text>
 </g>
 <g stroke-width="2.5">
  <rect x="15.085" y="142.38" width="469.74" height="35.603" ry="3.9779" fill="url(#linearGradient31755)" stroke="#666a6d"/>
  <g transform="translate(-38.287 255.03)" fill="#eff0f1" style="inline-size:473.363;white-space:pre" aria-label="Create new database">
   <path d="m204.13-101.45q-2.1467 0-3.3787 1.4373-1.232 1.4373-1.232 3.9387 0 2.4827 1.1387 3.9387 1.1573 1.4373 3.4533 1.4373 0.87734 0 1.6613-0.14933 0.784-0.14933 1.5307-0.37333v1.456q-0.74667 0.28-1.5493 0.41067-0.784 0.13067-1.8853 0.13067-2.0347 0-3.3973-0.84-1.3627-0.84-2.0533-2.3893-0.672-1.5493-0.672-3.64 0-2.016 0.728-3.5467 0.74667-1.5493 2.184-2.408 1.4373-0.87733 3.4907-0.87733 2.1093 0 3.6773 0.784l-0.672 1.4187q-0.616-0.28-1.3813-0.50401-0.74667-0.224-1.6427-0.224z"/>
   <path d="m214.66-99.603q0.28 0 0.59733 0.03733 0.336 0.01867 0.57867 0.07467l-0.20533 1.512q-0.24267-0.056-0.54134-0.09333-0.28-0.03733-0.54133-0.03733-0.76534 0-1.4373 0.42933-0.672 0.41067-1.0827 1.176-0.392 0.74667-0.392 1.7547v5.3387h-1.6427v-10.005h1.344l0.18666 1.8293h0.0747q0.48533-0.82134 1.2507-1.4187 0.76533-0.59733 1.8107-0.59733z"/>
   <path d="m221.19-99.603q1.288 0 2.2027 0.56 0.93334 0.56 1.4187 1.5867 0.504 1.008 0.504 2.3707v0.98934h-6.8507q0.0373 1.6987 0.85867 2.5947 0.84 0.87734 2.3333 0.87734 0.952 0 1.68-0.168 0.74667-0.18667 1.5307-0.52267v1.4373q-0.76533 0.336-1.512 0.48533-0.74667 0.168-1.7733 0.168-1.4187 0-2.52-0.57867-1.0827-0.57867-1.6987-1.7173-0.59734-1.1573-0.59734-2.8187 0-1.6427 0.54134-2.8187 0.56-1.176 1.5493-1.8107 1.008-0.63467 2.3333-0.63467zm-0.0187 1.344q-1.176 0-1.8667 0.76534-0.672 0.74667-0.80266 2.0907h5.096q-0.0187-1.2693-0.59734-2.0533-0.57867-0.80267-1.8293-0.80267z"/>
   <path d="m231.65-99.584q1.8293 0 2.7067 0.80267 0.87733 0.80267 0.87733 2.5573v6.8133h-1.1947l-0.31734-1.4187h-0.0747q-0.65333 0.82134-1.3813 1.2133-0.70934 0.392-1.9787 0.392-1.3627 0-2.2587-0.70933-0.896-0.728-0.896-2.2587 0-1.4933 1.176-2.296 1.176-0.82134 3.6213-0.896l1.6987-0.056v-0.59733q0-1.2507-0.54134-1.736-0.54133-0.48534-1.5307-0.48534-0.784 0-1.4933 0.24267-0.70934 0.224-1.3253 0.52267l-0.504-1.232q0.65334-0.35467 1.5493-0.59734 0.896-0.26133 1.8667-0.26133zm0.48533 5.3387q-1.8667 0.07467-2.5947 0.59733-0.70933 0.52267-0.70933 1.4747 0 0.84 0.504 1.232 0.52266 0.392 1.3253 0.392 1.2693 0 2.1093-0.69067 0.84-0.70934 0.84-2.1653v-0.896z"/>
   <path d="m241.67-90.568q0.37333 0 0.76533-0.056 0.392-0.07467 0.63467-0.14933v1.2507q-0.26133 0.13067-0.74667 0.20533-0.48533 0.09333-0.93333 0.09333-0.784 0-1.456-0.26133-0.65333-0.28-1.064-0.952t-0.41067-1.8853v-5.824h-1.4187v-0.784l1.4373-0.65333 0.65334-2.128h0.97066v2.296h2.8933v1.2693h-2.8933v5.7867q0 0.91467 0.42934 1.3627 0.448 0.42933 1.1387 0.42933z"/>
   <path d="m248.93-99.603q1.288 0 2.2027 0.56 0.93333 0.56 1.4187 1.5867 0.504 1.008 0.504 2.3707v0.98934h-6.8507q0.0373 1.6987 0.85867 2.5947 0.84 0.87734 2.3333 0.87734 0.952 0 1.68-0.168 0.74667-0.18667 1.5307-0.52267v1.4373q-0.76534 0.336-1.512 0.48533-0.74667 0.168-1.7733 0.168-1.4187 0-2.52-0.57867-1.0827-0.57867-1.6987-1.7173-0.59733-1.1573-0.59733-2.8187 0-1.6427 0.54133-2.8187 0.56001-1.176 1.5493-1.8107 1.008-0.63467 2.3333-0.63467zm-0.0187 1.344q-1.176 0-1.8667 0.76534-0.672 0.74667-0.80267 2.0907h5.096q-0.0187-1.2693-0.59733-2.0533-0.57867-0.80267-1.8293-0.80267z"/>
   <path d="m265.26-99.603q1.792 0 2.7067 0.87734 0.91467 0.85867 0.91467 2.8v6.5147h-1.624v-6.4027q0-2.408-2.24-2.408-1.6613 0-2.296 0.93334t-0.63467 2.688v5.1893h-1.6427v-10.005h1.3253l0.24267 1.3627h0.0933q0.48534-0.784 1.344-1.1573 0.85867-0.392 1.8107-0.392z"/>
   <path d="m275.85-99.603q1.288 0 2.2027 0.56 0.93333 0.56 1.4187 1.5867 0.504 1.008 0.504 2.3707v0.98934h-6.8507q0.0373 1.6987 0.85867 2.5947 0.84 0.87734 2.3333 0.87734 0.952 0 1.68-0.168 0.74666-0.18667 1.5307-0.52267v1.4373q-0.76534 0.336-1.512 0.48533-0.74667 0.168-1.7733 0.168-1.4187 0-2.52-0.57867-1.0827-0.57867-1.6987-1.7173-0.59733-1.1573-0.59733-2.8187 0-1.6427 0.54133-2.8187 0.56-1.176 1.5493-1.8107 1.008-0.63467 2.3333-0.63467zm-0.0187 1.344q-1.176 0-1.8667 0.76534-0.672 0.74667-0.80267 2.0907h5.096q-0.0187-1.2693-0.59733-2.0533-0.57867-0.80267-1.8293-0.80267z"/>
   <path d="m288.6-95.067q-0.24267-0.76534-0.42933-1.4933-0.168-0.74667-0.26134-1.1573h-0.0747q-0.0747 0.41067-0.24267 1.1573-0.168 0.728-0.42934 1.512l-1.792 5.6187h-1.8667l-2.744-10.005h1.6987l1.3813 5.3387q0.20534 0.80267 0.392 1.624 0.18667 0.82134 0.26134 1.3627h0.0747q0.0747-0.31733 0.168-0.784 0.112-0.46667 0.24267-0.97067 0.13067-0.52267 0.26133-0.93334l1.7733-5.6373h1.792l1.7173 5.6373q0.20533 0.63467 0.392 1.3813 0.20533 0.74667 0.28 1.288h0.0747q0.056-0.46667 0.24267-1.288 0.20533-0.82134 0.42933-1.68l1.4-5.3387h1.68l-2.7813 10.005h-1.9227z"/>
   <path d="m305.21-89.224q-1.8667 0-2.9867-1.288-1.12-1.3067-1.12-3.8827 0-2.576 1.12-3.8827 1.1387-1.3253 3.0053-1.3253 1.1573 0 1.8853 0.42933 0.74667 0.42933 1.2133 1.0453h0.112q-0.0187-0.24267-0.0747-0.70933-0.0373-0.48534-0.0373-0.76534v-3.9947h1.6427v14.187h-1.3253l-0.24267-1.344h-0.0747q-0.448 0.63467-1.1947 1.0827-0.74667 0.448-1.9227 0.448zm0.26133-1.3627q1.5867 0 2.2213-0.85867 0.65333-0.87734 0.65333-2.632v-0.29867q0-1.8667-0.616-2.856-0.616-1.008-2.2773-1.008-1.3253 0-1.9973 1.064-0.65334 1.0453-0.65334 2.8187 0 1.792 0.65334 2.7813 0.672 0.98934 2.016 0.98934z"/>
   <path d="m316.93-99.584q1.8293 0 2.7067 0.80267 0.87734 0.80267 0.87734 2.5573v6.8133h-1.1947l-0.31733-1.4187h-0.0747q-0.65333 0.82134-1.3813 1.2133-0.70933 0.392-1.9787 0.392-1.3627 0-2.2587-0.70933-0.896-0.728-0.896-2.2587 0-1.4933 1.176-2.296 1.176-0.82134 3.6213-0.896l1.6987-0.056v-0.59733q0-1.2507-0.54133-1.736-0.54134-0.48534-1.5307-0.48534-0.784 0-1.4933 0.24267-0.70933 0.224-1.3253 0.52267l-0.504-1.232q0.65333-0.35467 1.5493-0.59734 0.896-0.26133 1.8667-0.26133zm0.48534 5.3387q-1.8667 0.07467-2.5947 0.59733-0.70934 0.52267-0.70934 1.4747 0 0.84 0.504 1.232 0.52267 0.392 1.3253 0.392 1.2693 0 2.1093-0.69067 0.84001-0.70934 0.84001-2.1653v-0.896z"/>
   <path d="m326.96-90.568q0.37334 0 0.76534-0.056 0.392-0.07467 0.63466-0.14933v1.2507q-0.26133 0.13067-0.74666 0.20533-0.48534 0.09333-0.93334 0.09333-0.784 0-1.456-0.26133-0.65334-0.28-1.064-0.952-0.41067-0.672-0.41067-1.8853v-5.824h-1.4187v-0.784l1.4373-0.65333 0.65333-2.128h0.97067v2.296h2.8933v1.2693h-2.8933v5.7867q0 0.91467 0.42933 1.3627 0.448 0.42933 1.1387 0.42933z"/>
   <path d="m334.14-99.584q1.8293 0 2.7067 0.80267 0.87734 0.80267 0.87734 2.5573v6.8133h-1.1947l-0.31733-1.4187h-0.0747q-0.65333 0.82134-1.3813 1.2133-0.70933 0.392-1.9787 0.392-1.3627 0-2.2587-0.70933-0.896-0.728-0.896-2.2587 0-1.4933 1.176-2.296 1.176-0.82134 3.6213-0.896l1.6987-0.056v-0.59733q0-1.2507-0.54133-1.736-0.54134-0.48534-1.5307-0.48534-0.784 0-1.4933 0.24267-0.70933 0.224-1.3253 0.52267l-0.504-1.232q0.65333-0.35467 1.5493-0.59734 0.896-0.26133 1.8667-0.26133zm0.48534 5.3387q-1.8667 0.07467-2.5947 0.59733-0.70934 0.52267-0.70934 1.4747 0 0.84 0.504 1.232 0.52267 0.392 1.3253 0.392 1.2693 0 2.1093-0.69067 0.84001-0.70934 0.84001-2.1653v-0.896z"/>
   <path d="m342.47-100.14q0 0.63467-0.0373 1.1947-0.0187 0.54134-0.056 0.85867h0.0933q0.42934-0.63467 1.176-1.064 0.74667-0.42933 1.9227-0.42933 1.8667 0 2.9867 1.3067 1.1387 1.288 1.1387 3.864 0 2.576-1.1387 3.8827t-2.9867 1.3067q-1.176 0-1.9227-0.42933-0.74666-0.42933-1.176-1.0267h-0.13066l-0.33601 1.2693h-1.176v-14.187h1.6427zm2.8187 1.9227q-1.5867 0-2.2027 0.91467t-0.616 2.8373v0.07467q0 1.848 0.59734 2.8373 0.616 0.97067 2.2587 0.97067 1.344 0 1.9973-0.98934 0.67201-0.98934 0.67201-2.856 0-3.7893-2.7067-3.7893z"/>
   <path d="m356.1-99.584q1.8293 0 2.7067 0.80267 0.87734 0.80267 0.87734 2.5573v6.8133h-1.1947l-0.31734-1.4187h-0.0747q-0.65334 0.82134-1.3813 1.2133-0.70933 0.392-1.9787 0.392-1.3627 0-2.2587-0.70933-0.896-0.728-0.896-2.2587 0-1.4933 1.176-2.296 1.176-0.82134 3.6213-0.896l1.6987-0.056v-0.59733q0-1.2507-0.54134-1.736-0.54133-0.48534-1.5307-0.48534-0.78401 0-1.4933 0.24267-0.70934 0.224-1.3253 0.52267l-0.504-1.232q0.65334-0.35467 1.5493-0.59734 0.896-0.26133 1.8667-0.26133zm0.48533 5.3387q-1.8667 0.07467-2.5947 0.59733-0.70933 0.52267-0.70933 1.4747 0 0.84 0.504 1.232 0.52267 0.392 1.3253 0.392 1.2693 0 2.1093-0.69067 0.84-0.70934 0.84-2.1653v-0.896z"/>
   <path d="m369.29-92.173q0 1.456-1.0827 2.2027t-2.912 0.74667q-1.0453 0-1.8107-0.168-0.74667-0.168-1.3253-0.46667v-1.4933q0.59734 0.29867 1.4373 0.56 0.85867 0.24267 1.736 0.24267 1.2507 0 1.8107-0.392 0.56-0.41067 0.56-1.0827 0-0.37333-0.20533-0.672t-0.74667-0.59733q-0.52267-0.29867-1.512-0.672-0.97067-0.37333-1.6613-0.74667t-1.064-0.896q-0.37333-0.52267-0.37333-1.344 0-1.2693 1.0267-1.96 1.0453-0.69067 2.7253-0.69067 0.91467 0 1.6987 0.18667 0.80267 0.168 1.4933 0.48533l-0.56 1.3067q-0.63467-0.26133-1.3253-0.448t-1.4187-0.18667q-1.008 0-1.5493 0.336-0.52267 0.31733-0.52267 0.87734 0 0.41067 0.24267 0.70933 0.24266 0.28 0.80266 0.56 0.57867 0.26133 1.5307 0.63467 0.95201 0.35467 1.624 0.728t1.0267 0.91467q0.35467 0.52267 0.35467 1.3253z"/>
   <path d="m375.58-99.603q1.288 0 2.2027 0.56 0.93333 0.56 1.4187 1.5867 0.504 1.008 0.504 2.3707v0.98934h-6.8507q0.0373 1.6987 0.85867 2.5947 0.84 0.87734 2.3333 0.87734 0.952 0 1.68-0.168 0.74666-0.18667 1.5307-0.52267v1.4373q-0.76534 0.336-1.512 0.48533-0.74667 0.168-1.7733 0.168-1.4187 0-2.52-0.57867-1.0827-0.57867-1.6987-1.7173-0.59733-1.1573-0.59733-2.8187 0-1.6427 0.54133-2.8187 0.56-1.176 1.5493-1.8107 1.008-0.63467 2.3333-0.63467zm-0.0187 1.344q-1.176 0-1.8667 0.76534-0.672 0.74667-0.80267 2.0907h5.096q-0.0187-1.2693-0.59733-2.0533-0.57867-0.80267-1.8293-0.80267z"/>
  </g>
  <rect x="15.085" y="188.38" width="468.54" height="35.603" ry="3.9779" fill="url(#linearGradient31630)" stroke="#666a6d"/>
  <g transform="translate(-38.287 301.03)" fill="#eff0f1" style="inline-size:473.363;white-space:pre" aria-label="Open an existing database">
   <path d="m185.26-96.093q0 2.072-0.70934 3.6213-0.69067 1.5307-2.0533 2.3893-1.3627 0.85867-3.3787 0.85867-2.072 0-3.4533-0.85867-1.3627-0.85867-2.0347-2.408t-0.672-3.6213q0-2.0533 0.672-3.584 0.672-1.5307 2.0347-2.3893 1.3813-0.85867 3.472-0.85867 1.9973 0 3.36 0.85867 1.3627 0.84 2.0533 2.3893 0.70934 1.5307 0.70934 3.6027zm-10.528 0q0 2.52 1.064 3.976 1.064 1.4373 3.3227 1.4373 2.2773 0 3.3227-1.4373 1.0453-1.456 1.0453-3.976 0-2.52-1.0453-3.9387-1.0453-1.4373-3.304-1.4373t-3.3413 1.4373q-1.064 1.4187-1.064 3.9387z"/>
   <path d="m192.74-99.603q1.848 0 2.968 1.288 1.1387 1.288 1.1387 3.8827 0 2.5573-1.1387 3.8827-1.12 1.3253-2.9867 1.3253-1.1573 0-1.9227-0.42933-0.74666-0.448-1.176-1.0267h-0.112q0.0373 0.31733 0.0747 0.80267 0.0373 0.48533 0.0373 0.84v4.1067h-1.6427v-14.485h1.344l0.224 1.3627h0.0747q0.448-0.65333 1.176-1.1013 0.72801-0.448 1.9413-0.448zm-0.29867 1.3813q-1.5307 0-2.1653 0.85867-0.616 0.85867-0.65334 2.6133v0.31733q0 1.848 0.59734 2.856 0.616 0.98934 2.2587 0.98934 0.91467 0 1.4933-0.504 0.59734-0.504 0.87734-1.3627 0.29867-0.87734 0.29867-1.9973 0-1.7173-0.67201-2.744-0.65333-1.0267-2.0347-1.0267z"/>
   <path d="m203.33-99.603q1.288 0 2.2027 0.56 0.93333 0.56 1.4187 1.5867 0.504 1.008 0.504 2.3707v0.98934h-6.8507q0.0373 1.6987 0.85867 2.5947 0.84 0.87734 2.3333 0.87734 0.95201 0 1.68-0.168 0.74667-0.18667 1.5307-0.52267v1.4373q-0.76534 0.336-1.512 0.48533-0.74666 0.168-1.7733 0.168-1.4187 0-2.52-0.57867-1.0827-0.57867-1.6987-1.7173-0.59733-1.1573-0.59733-2.8187 0-1.6427 0.54133-2.8187 0.56-1.176 1.5493-1.8107 1.008-0.63467 2.3333-0.63467zm-0.0187 1.344q-1.176 0-1.8667 0.76534-0.672 0.74667-0.80267 2.0907h5.096q-0.0187-1.2693-0.59733-2.0533-0.57867-0.80267-1.8293-0.80267z"/>
   <path d="m214.81-99.603q1.792 0 2.7067 0.87734 0.91467 0.85867 0.91467 2.8v6.5147h-1.624v-6.4027q0-2.408-2.24-2.408-1.6613 0-2.296 0.93334t-0.63467 2.688v5.1893h-1.6427v-10.005h1.3253l0.24267 1.3627h0.0933q0.48533-0.784 1.344-1.1573 0.85867-0.392 1.8107-0.392z"/>
   <path d="m230.17-99.584q1.8293 0 2.7067 0.80267 0.87733 0.80267 0.87733 2.5573v6.8133h-1.1947l-0.31733-1.4187h-0.0747q-0.65333 0.82134-1.3813 1.2133-0.70934 0.392-1.9787 0.392-1.3627 0-2.2587-0.70933-0.896-0.728-0.896-2.2587 0-1.4933 1.176-2.296 1.176-0.82134 3.6213-0.896l1.6987-0.056v-0.59733q0-1.2507-0.54134-1.736-0.54133-0.48534-1.5307-0.48534-0.784 0-1.4933 0.24267-0.70934 0.224-1.3253 0.52267l-0.504-1.232q0.65334-0.35467 1.5493-0.59734 0.896-0.26133 1.8667-0.26133zm0.48533 5.3387q-1.8667 0.07467-2.5947 0.59733-0.70933 0.52267-0.70933 1.4747 0 0.84 0.504 1.232 0.52266 0.392 1.3253 0.392 1.2693 0 2.1093-0.69067 0.84-0.70934 0.84-2.1653v-0.896z"/>
   <path d="m241.67-99.603q1.792 0 2.7067 0.87734 0.91467 0.85867 0.91467 2.8v6.5147h-1.624v-6.4027q0-2.408-2.24-2.408-1.6613 0-2.296 0.93334-0.63466 0.93334-0.63466 2.688v5.1893h-1.6427v-10.005h1.3253l0.24267 1.3627h0.0933q0.48534-0.784 1.344-1.1573 0.85866-0.392 1.8107-0.392z"/>
   <path d="m257.11-99.603q1.288 0 2.2027 0.56 0.93334 0.56 1.4187 1.5867 0.504 1.008 0.504 2.3707v0.98934h-6.8507q0.0373 1.6987 0.85867 2.5947 0.84 0.87734 2.3333 0.87734 0.952 0 1.68-0.168 0.74667-0.18667 1.5307-0.52267v1.4373q-0.76533 0.336-1.512 0.48533-0.74667 0.168-1.7733 0.168-1.4187 0-2.52-0.57867-1.0827-0.57867-1.6987-1.7173-0.59734-1.1573-0.59734-2.8187 0-1.6427 0.54134-2.8187 0.56-1.176 1.5493-1.8107 1.008-0.63467 2.3333-0.63467zm-0.0187 1.344q-1.176 0-1.8667 0.76534-0.67201 0.74667-0.80267 2.0907h5.096q-0.0187-1.2693-0.59734-2.0533-0.57867-0.80267-1.8293-0.80267z"/>
   <path d="m265.77-94.525-3.4533-4.8907h1.8667l2.576 3.7707 2.5573-3.7707h1.848l-3.4533 4.8907 3.64 5.1147h-1.8667l-2.7253-3.9947-2.7627 3.9947h-1.848z"/>
   <path d="m274.11-103.17q0.37334 0 0.65334 0.26133 0.29866 0.24267 0.29866 0.784 0 0.52267-0.29866 0.784-0.28 0.26134-0.65334 0.26134-0.41067 0-0.69067-0.26134-0.28-0.26133-0.28-0.784 0-0.54133 0.28-0.784 0.28-0.26133 0.69067-0.26133zm0.80267 3.752v10.005h-1.6427v-10.005z"/>
   <path d="m284.6-92.173q0 1.456-1.0827 2.2027-1.0827 0.74667-2.912 0.74667-1.0453 0-1.8107-0.168-0.74667-0.168-1.3253-0.46667v-1.4933q0.59734 0.29867 1.4373 0.56 0.85867 0.24267 1.736 0.24267 1.2507 0 1.8107-0.392 0.56-0.41067 0.56-1.0827 0-0.37333-0.20533-0.672t-0.74667-0.59733q-0.52267-0.29867-1.512-0.672-0.97067-0.37333-1.6613-0.74667t-1.064-0.896q-0.37333-0.52267-0.37333-1.344 0-1.2693 1.0267-1.96 1.0453-0.69067 2.7253-0.69067 0.91467 0 1.6987 0.18667 0.80267 0.168 1.4933 0.48533l-0.56 1.3067q-0.63467-0.26133-1.3253-0.448t-1.4187-0.18667q-1.008 0-1.5493 0.336-0.52267 0.31733-0.52267 0.87734 0 0.41067 0.24267 0.70933 0.24266 0.28 0.80266 0.56 0.57867 0.26133 1.5307 0.63467 0.95201 0.35467 1.624 0.728t1.0267 0.91467q0.35466 0.52267 0.35466 1.3253z"/>
   <path d="m290.37-90.568q0.37333 0 0.76533-0.056 0.392-0.07467 0.63467-0.14933v1.2507q-0.26133 0.13067-0.74667 0.20533-0.48533 0.09333-0.93333 0.09333-0.784 0-1.456-0.26133-0.65333-0.28-1.064-0.952-0.41066-0.672-0.41066-1.8853v-5.824h-1.4187v-0.784l1.4373-0.65333 0.65334-2.128h0.97067v2.296h2.8933v1.2693h-2.8933v5.7867q0 0.91467 0.42933 1.3627 0.448 0.42933 1.1387 0.42933z"/>
   <path d="m294.61-103.17q0.37333 0 0.65333 0.26133 0.29867 0.24267 0.29867 0.784 0 0.52267-0.29867 0.784-0.28 0.26134-0.65333 0.26134-0.41067 0-0.69067-0.26134-0.28-0.26133-0.28-0.784 0-0.54133 0.28-0.784 0.28-0.26133 0.69067-0.26133zm0.80267 3.752v10.005h-1.6427v-10.005z"/>
   <path d="m303.4-99.603q1.792 0 2.7067 0.87734 0.91467 0.85867 0.91467 2.8v6.5147h-1.624v-6.4027q0-2.408-2.24-2.408-1.6613 0-2.296 0.93334t-0.63467 2.688v5.1893h-1.6427v-10.005h1.3253l0.24266 1.3627h0.0933q0.48533-0.784 1.344-1.1573 0.85867-0.392 1.8107-0.392z"/>
   <path d="m313.67-99.603q0.98933 0 1.7733 0.37333 0.80266 0.37333 1.3627 1.1387h0.0933l0.224-1.3253h1.3067v10.173q0 2.1467-1.1013 3.2293-1.0827 1.0827-3.3787 1.0827-2.2027 0-3.6027-0.63467v-1.512q1.4747 0.784 3.696 0.784 1.288 0 2.016-0.76533 0.74666-0.74667 0.74666-2.0533v-0.392q0-0.224 0.0187-0.63467 0.0187-0.42933 0.0373-0.59733h-0.0747q-1.008 1.512-3.0987 1.512-1.9413 0-3.0427-1.3627-1.0827-1.3627-1.0827-3.808 0-2.3893 1.0827-3.7893 1.1013-1.4187 3.024-1.4187zm0.224 1.3813q-1.2507 0-1.9413 1.008-0.69067 0.98934-0.69067 2.8373t0.67201 2.8373q0.69066 0.97067 1.9973 0.97067 1.512 0 2.2027-0.80267 0.69067-0.82134 0.69067-2.632v-0.392q0-2.0533-0.70933-2.9307-0.70934-0.896-2.2213-0.896z"/>
   <path d="m330-89.224q-1.8667 0-2.9867-1.288-1.12-1.3067-1.12-3.8827 0-2.576 1.12-3.8827 1.1387-1.3253 3.0053-1.3253 1.1573 0 1.8853 0.42933 0.74667 0.42933 1.2133 1.0453h0.112q-0.0187-0.24267-0.0747-0.70933-0.0373-0.48534-0.0373-0.76534v-3.9947h1.6427v14.187h-1.3253l-0.24267-1.344h-0.0747q-0.448 0.63467-1.1947 1.0827-0.74667 0.448-1.9227 0.448zm0.26133-1.3627q1.5867 0 2.2213-0.85867 0.65333-0.87734 0.65333-2.632v-0.29867q0-1.8667-0.616-2.856-0.616-1.008-2.2773-1.008-1.3253 0-1.9973 1.064-0.65334 1.0453-0.65334 2.8187 0 1.792 0.65334 2.7813 0.672 0.98934 2.016 0.98934z"/>
   <path d="m341.72-99.584q1.8293 0 2.7067 0.80267 0.87733 0.80267 0.87733 2.5573v6.8133h-1.1947l-0.31733-1.4187h-0.0747q-0.65333 0.82134-1.3813 1.2133-0.70934 0.392-1.9787 0.392-1.3627 0-2.2587-0.70933-0.89601-0.728-0.89601-2.2587 0-1.4933 1.176-2.296 1.176-0.82134 3.6213-0.896l1.6987-0.056v-0.59733q0-1.2507-0.54134-1.736-0.54133-0.48534-1.5307-0.48534-0.784 0-1.4933 0.24267-0.70934 0.224-1.3253 0.52267l-0.504-1.232q0.65333-0.35467 1.5493-0.59734 0.896-0.26133 1.8667-0.26133zm0.48533 5.3387q-1.8667 0.07467-2.5947 0.59733-0.70934 0.52267-0.70934 1.4747 0 0.84 0.504 1.232 0.52267 0.392 1.3253 0.392 1.2693 0 2.1093-0.69067 0.84-0.70934 0.84-2.1653v-0.896z"/>
   <path d="m351.75-90.568q0.37334 0 0.76534-0.056 0.392-0.07467 0.63467-0.14933v1.2507q-0.26134 0.13067-0.74667 0.20533-0.48534 0.09333-0.93334 0.09333-0.784 0-1.456-0.26133-0.65333-0.28-1.064-0.952t-0.41067-1.8853v-5.824h-1.4187v-0.784l1.4373-0.65333 0.65333-2.128h0.97067v2.296h2.8933v1.2693h-2.8933v5.7867q0 0.91467 0.42934 1.3627 0.448 0.42933 1.1387 0.42933z"/>
   <path d="m358.93-99.584q1.8293 0 2.7067 0.80267 0.87734 0.80267 0.87734 2.5573v6.8133h-1.1947l-0.31733-1.4187h-0.0747q-0.65333 0.82134-1.3813 1.2133-0.70933 0.392-1.9787 0.392-1.3627 0-2.2587-0.70933-0.896-0.728-0.896-2.2587 0-1.4933 1.176-2.296 1.176-0.82134 3.6213-0.896l1.6987-0.056v-0.59733q0-1.2507-0.54133-1.736-0.54134-0.48534-1.5307-0.48534-0.784 0-1.4933 0.24267-0.70933 0.224-1.3253 0.52267l-0.504-1.232q0.65333-0.35467 1.5493-0.59734 0.896-0.26133 1.8667-0.26133zm0.48534 5.3387q-1.8667 0.07467-2.5947 0.59733-0.70934 0.52267-0.70934 1.4747 0 0.84 0.504 1.232 0.52267 0.392 1.3253 0.392 1.2693 0 2.1093-0.69067 0.84001-0.70934 0.84001-2.1653v-0.896z"/>
   <path d="m367.26-100.14q0 0.63467-0.0373 1.1947-0.0187 0.54134-0.056 0.85867h0.0933q0.42933-0.63467 1.176-1.064t1.9227-0.42933q1.8667 0 2.9867 1.3067 1.1387 1.288 1.1387 3.864 0 2.576-1.1387 3.8827t-2.9867 1.3067q-1.176 0-1.9227-0.42933t-1.176-1.0267h-0.13067l-0.336 1.2693h-1.176v-14.187h1.6427zm2.8187 1.9227q-1.5867 0-2.2027 0.91467t-0.616 2.8373v0.07467q0 1.848 0.59733 2.8373 0.616 0.97067 2.2587 0.97067 1.344 0 1.9973-0.98934 0.672-0.98934 0.672-2.856 0-3.7893-2.7067-3.7893z"/>
   <path d="m380.89-99.584q1.8293 0 2.7067 0.80267 0.87733 0.80267 0.87733 2.5573v6.8133h-1.1947l-0.31733-1.4187h-0.0747q-0.65333 0.82134-1.3813 1.2133-0.70934 0.392-1.9787 0.392-1.3627 0-2.2587-0.70933-0.896-0.728-0.896-2.2587 0-1.4933 1.176-2.296 1.176-0.82134 3.6213-0.896l1.6987-0.056v-0.59733q0-1.2507-0.54133-1.736-0.54133-0.48534-1.5307-0.48534-0.784 0-1.4933 0.24267-0.70933 0.224-1.3253 0.52267l-0.504-1.232q0.65333-0.35467 1.5493-0.59734 0.89601-0.26133 1.8667-0.26133zm0.48534 5.3387q-1.8667 0.07467-2.5947 0.59733-0.70934 0.52267-0.70934 1.4747 0 0.84 0.504 1.232 0.52267 0.392 1.3253 0.392 1.2693 0 2.1093-0.69067 0.84-0.70934 0.84-2.1653v-0.896z"/>
   <path d="m394.08-92.173q0 1.456-1.0827 2.2027-1.0827 0.74667-2.912 0.74667-1.0453 0-1.8107-0.168-0.74667-0.168-1.3253-0.46667v-1.4933q0.59734 0.29867 1.4373 0.56 0.85867 0.24267 1.736 0.24267 1.2507 0 1.8107-0.392 0.56-0.41067 0.56-1.0827 0-0.37333-0.20533-0.672t-0.74667-0.59733q-0.52267-0.29867-1.512-0.672-0.97067-0.37333-1.6613-0.74667t-1.064-0.896q-0.37333-0.52267-0.37333-1.344 0-1.2693 1.0267-1.96 1.0453-0.69067 2.7253-0.69067 0.91467 0 1.6987 0.18667 0.80267 0.168 1.4933 0.48533l-0.56 1.3067q-0.63467-0.26133-1.3253-0.448t-1.4187-0.18667q-1.008 0-1.5493 0.336-0.52267 0.31733-0.52267 0.87734 0 0.41067 0.24267 0.70933 0.24266 0.28 0.80266 0.56 0.57867 0.26133 1.5307 0.63467 0.95201 0.35467 1.624 0.728t1.0267 0.91467q0.35466 0.52267 0.35466 1.3253z"/>
   <path d="m400.37-99.603q1.288 0 2.2027 0.56 0.93333 0.56 1.4187 1.5867 0.504 1.008 0.504 2.3707v0.98934h-6.8507q0.0373 1.6987 0.85867 2.5947 0.84 0.87734 2.3333 0.87734 0.952 0 1.68-0.168 0.74666-0.18667 1.5307-0.52267v1.4373q-0.76534 0.336-1.512 0.48533-0.74667 0.168-1.7733 0.168-1.4187 0-2.52-0.57867-1.0827-0.57867-1.6987-1.7173-0.59733-1.1573-0.59733-2.8187 0-1.6427 0.54133-2.8187 0.56-1.176 1.5493-1.8107 1.008-0.63467 2.3333-0.63467zm-0.0187 1.344q-1.176 0-1.8667 0.76534-0.672 0.74667-0.80267 2.0907h5.096q-0.0187-1.2693-0.59733-2.0533-0.57867-0.80267-1.8293-0.80267z"/>
  </g>
  <rect x="15.085" y="234.38" width="161.4" height="35.586" ry="3.9779" fill="url(#linearGradient31638)" stroke="#666a6d"/>
  <g transform="translate(-191.55 345.43)" fill="#eff0f1" style="inline-size:355.016;white-space:pre" aria-label="Import from KeePass 1">
   <path d="m216.04-89.411h-3.784v-0.76267l1.232-0.27867v-8.3747l-1.232-0.29333v-0.76267h3.784v0.76267l-1.232 0.29333v8.3747l1.232 0.27867z"/>
   <path d="m226.31-97.419q1.3347 0 1.9947 0.68934 0.66 0.67467 0.66 2.2v5.1187h-1.276v-5.06q0-1.8627-1.5987-1.8627-1.144 0-1.6427 0.66-0.484 0.66-0.484 1.9213v4.3413h-1.276v-5.06q0-1.8627-1.6133-1.8627-1.188 0-1.6427 0.73334t-0.45467 2.112v4.0773h-1.2907v-7.8614h1.0413l0.19067 1.0707h0.0733q0.36667-0.616 0.98267-0.90934 0.63067-0.308 1.3347-0.308 1.848 0 2.4053 1.32h0.0733q0.396-0.67467 1.0707-0.99734 0.68934-0.32267 1.452-0.32267z"/>
   <path d="m234.94-97.419q1.452 0 2.332 1.012 0.89466 1.012 0.89466 3.0507 0 2.0093-0.89466 3.0507-0.88001 1.0413-2.3467 1.0413-0.90933 0-1.5107-0.33733-0.58666-0.352-0.924-0.80667h-0.088q0.0293 0.24933 0.0587 0.63067 0.0293 0.38133 0.0293 0.66v3.2267h-1.2907v-11.381h1.056l0.176 1.0707h0.0587q0.352-0.51333 0.924-0.86534t1.5253-0.352zm-0.23467 1.0853q-1.2027 0-1.7013 0.67467-0.48401 0.67467-0.51334 2.0533v0.24933q0 1.452 0.46934 2.244 0.484 0.77734 1.7747 0.77734 0.71866 0 1.1733-0.396 0.46934-0.396 0.68934-1.0707 0.23466-0.68934 0.23466-1.5693 0-1.3493-0.528-2.156-0.51333-0.80667-1.5987-0.80667z"/>
   <path d="m246.86-93.356q0 1.9507-0.99733 3.0213-0.98267 1.0707-2.6693 1.0707-1.0413 0-1.8627-0.46933-0.80666-0.484-1.276-1.3933-0.46933-0.924-0.46933-2.2293 0-1.9507 0.98267-3.0067 0.98267-1.056 2.6693-1.056 1.0707 0 1.8773 0.484 0.82134 0.46933 1.276 1.3787 0.46933 0.89467 0.46933 2.2zm-5.94 0q0 1.3933 0.54267 2.2147 0.55733 0.80667 1.76 0.80667 1.188 0 1.7453-0.80667 0.55733-0.82134 0.55733-2.2147 0-1.3933-0.55733-2.1853-0.55734-0.792-1.76-0.792t-1.7453 0.792q-0.54267 0.792-0.54267 2.1853z"/>
   <path d="m252.36-97.419q0.22 0 0.46934 0.02933 0.264 0.01467 0.45467 0.05867l-0.16134 1.188q-0.19067-0.044-0.42533-0.07333-0.22-0.02933-0.42534-0.02933-0.60133 0-1.1293 0.33733-0.528 0.32267-0.85067 0.924-0.308 0.58667-0.308 1.3787v4.1947h-1.2907v-7.8614h1.056l0.14667 1.4373h0.0587q0.38134-0.64534 0.98267-1.1147 0.60134-0.46933 1.4227-0.46933z"/>
   <path d="m257.18-90.32q0.29333 0 0.60133-0.044 0.308-0.05867 0.49867-0.11733v0.98267q-0.20534 0.10267-0.58667 0.16133-0.38133 0.07333-0.73333 0.07333-0.61601 0-1.144-0.20533-0.51333-0.22-0.836-0.748t-0.32267-1.4813v-4.576h-1.1147v-0.616l1.1293-0.51333 0.51333-1.672h0.76267v1.804h2.2733v0.99734h-2.2733v4.5467q0 0.71867 0.33734 1.0707 0.352 0.33733 0.89467 0.33733z"/>
   <path d="m266.88-96.275h-1.98v6.864h-1.2907v-6.864h-1.3787v-0.60134l1.3787-0.44v-0.45467q0-1.5253 0.67467-2.1853 0.67466-0.67467 1.8773-0.67467 0.46934 0 0.85067 0.088 0.396 0.0733 0.67467 0.176l-0.33733 1.012q-0.23467-0.07333-0.54267-0.14667-0.308-0.07333-0.63067-0.07333-0.64534 0-0.968 0.44-0.308 0.42533-0.308 1.3493v0.51334h1.98z"/>
   <path d="m271.77-97.419q0.22 0 0.46933 0.02933 0.264 0.01467 0.45467 0.05867l-0.16134 1.188q-0.19066-0.044-0.42533-0.07333-0.22-0.02933-0.42533-0.02933-0.60134 0-1.1293 0.33733-0.528 0.32267-0.85067 0.924-0.308 0.58667-0.308 1.3787v4.1947h-1.2907v-7.8614h1.056l0.14667 1.4373h0.0587q0.38133-0.64534 0.98267-1.1147 0.60133-0.46933 1.4227-0.46933z"/>
   <path d="m280.5-93.356q0 1.9507-0.99733 3.0213-0.98267 1.0707-2.6693 1.0707-1.0413 0-1.8627-0.46933-0.80667-0.484-1.276-1.3933-0.46933-0.924-0.46933-2.2293 0-1.9507 0.98267-3.0067 0.98267-1.056 2.6693-1.056 1.0707 0 1.8773 0.484 0.82133 0.46933 1.276 1.3787 0.46933 0.89467 0.46933 2.2zm-5.94 0q0 1.3933 0.54267 2.2147 0.55733 0.80667 1.76 0.80667 1.188 0 1.7453-0.80667 0.55733-0.82134 0.55733-2.2147 0-1.3933-0.55733-2.1853-0.55734-0.792-1.76-0.792-1.2027 0-1.7453 0.792-0.54267 0.792-0.54267 2.1853z"/>
   <path d="m290.97-97.419q1.3347 0 1.9947 0.68934 0.66 0.67467 0.66 2.2v5.1187h-1.276v-5.06q0-1.8627-1.5987-1.8627-1.144 0-1.6427 0.66-0.484 0.66-0.484 1.9213v4.3413h-1.276v-5.06q0-1.8627-1.6133-1.8627-1.188 0-1.6427 0.73334t-0.45467 2.112v4.0773h-1.2907v-7.8614h1.0413l0.19067 1.0707h0.0733q0.36667-0.616 0.98267-0.90934 0.63067-0.308 1.3347-0.308 1.848 0 2.4053 1.32h0.0733q0.396-0.67467 1.0707-0.99734 0.68934-0.32267 1.452-0.32267z"/>
   <path d="m307.3-89.411h-1.5547l-3.7107-5.0013-1.0707 0.93867v4.0627h-1.32v-10.472h1.32v5.1627q0.44-0.49867 0.89467-0.99734 0.45466-0.49867 0.90933-0.99734l2.8307-3.168h1.54l-4.1507 4.5613z"/>
   <path d="m311.38-97.419q1.012 0 1.7307 0.44 0.73333 0.44 1.1147 1.2467 0.396 0.792 0.396 1.8627v0.77734h-5.3827q0.0293 1.3347 0.67467 2.0387 0.66 0.68934 1.8333 0.68934 0.748 0 1.32-0.132 0.58667-0.14667 1.2027-0.41067v1.1293q-0.60134 0.264-1.188 0.38133-0.58666 0.132-1.3933 0.132-1.1147 0-1.98-0.45467-0.85066-0.45467-1.3347-1.3493-0.46933-0.90934-0.46933-2.2147 0-1.2907 0.42533-2.2147 0.44-0.924 1.2173-1.4227 0.792-0.49867 1.8333-0.49867zm-0.0147 1.056q-0.924 0-1.4667 0.60134-0.528 0.58667-0.63067 1.6427h4.004q-0.0147-0.99734-0.46933-1.6133-0.45467-0.63067-1.4373-0.63067z"/>
   <path d="m319.46-97.419q1.012 0 1.7307 0.44 0.73334 0.44 1.1147 1.2467 0.396 0.792 0.396 1.8627v0.77734h-5.3827q0.0293 1.3347 0.67466 2.0387 0.66001 0.68934 1.8333 0.68934 0.748 0 1.32-0.132 0.58667-0.14667 1.2027-0.41067v1.1293q-0.60133 0.264-1.188 0.38133-0.58667 0.132-1.3933 0.132-1.1147 0-1.98-0.45467-0.85067-0.45467-1.3347-1.3493-0.46933-0.90934-0.46933-2.2147 0-1.2907 0.42533-2.2147 0.44-0.924 1.2173-1.4227 0.792-0.49867 1.8333-0.49867zm-0.0147 1.056q-0.92401 0-1.4667 0.60134-0.528 0.58667-0.63067 1.6427h4.004q-0.0147-0.99734-0.46934-1.6133-0.45466-0.63067-1.4373-0.63067z"/>
   <path d="m327.44-99.883q2.0533 0 2.992 0.80667 0.93867 0.80667 0.93867 2.2733 0 0.86534-0.39601 1.628-0.38133 0.748-1.3053 1.2173-0.90934 0.46934-2.4787 0.46934h-1.2027v4.0773h-1.32v-10.472zm-0.11733 1.1293h-1.3347v4.136h1.056q1.496 0 2.2293-0.484 0.73333-0.484 0.73333-1.6427 0-1.012-0.64533-1.5107-0.64534-0.49867-2.0387-0.49867z"/>
   <path d="m336.14-97.404q1.4373 0 2.1267 0.63067 0.68934 0.63067 0.68934 2.0093v5.3533h-0.93867l-0.24934-1.1147h-0.0587q-0.51334 0.64534-1.0853 0.95334-0.55733 0.308-1.5547 0.308-1.0707 0-1.7747-0.55733-0.704-0.572-0.704-1.7747 0-1.1733 0.924-1.804 0.924-0.64534 2.8453-0.704l1.3347-0.044v-0.46933q0-0.98267-0.42533-1.364-0.42534-0.38134-1.2027-0.38134-0.616 0-1.1733 0.19067-0.55733 0.176-1.0413 0.41067l-0.39601-0.968q0.51334-0.27867 1.2173-0.46934 0.704-0.20533 1.4667-0.20533zm0.38133 4.1947q-1.4667 0.05867-2.0387 0.46933-0.55733 0.41067-0.55733 1.1587 0 0.66 0.396 0.968 0.41067 0.308 1.0413 0.308 0.99733 0 1.6573-0.54267 0.66-0.55734 0.66-1.7013v-0.704z"/>
   <path d="m346.31-91.581q0 1.144-0.85067 1.7307t-2.288 0.58667q-0.82133 0-1.4227-0.132-0.58666-0.132-1.0413-0.36667v-1.1733q0.46933 0.23467 1.1293 0.44 0.67466 0.19067 1.364 0.19067 0.98267 0 1.4227-0.308 0.44-0.32267 0.44-0.85067 0-0.29333-0.16133-0.528-0.16134-0.23467-0.58667-0.46933-0.41067-0.23467-1.188-0.528-0.76266-0.29333-1.3053-0.58667t-0.836-0.704q-0.29334-0.41067-0.29334-1.056 0-0.99734 0.80667-1.54 0.82134-0.54267 2.1413-0.54267 0.71867 0 1.3347 0.14667 0.63067 0.132 1.1733 0.38133l-0.44001 1.0267q-0.49866-0.20533-1.0413-0.352t-1.1147-0.14667q-0.792 0-1.2173 0.264-0.41066 0.24933-0.41066 0.68934 0 0.32267 0.19066 0.55733 0.19067 0.22 0.63067 0.44 0.45467 0.20533 1.2027 0.49867 0.748 0.27867 1.276 0.572t0.80667 0.71867q0.27867 0.41067 0.27867 1.0413z"/>
   <path d="m353.14-91.581q0 1.144-0.85067 1.7307t-2.288 0.58667q-0.82134 0-1.4227-0.132-0.58667-0.132-1.0413-0.36667v-1.1733q0.46934 0.23467 1.1293 0.44 0.67467 0.19067 1.364 0.19067 0.98267 0 1.4227-0.308 0.44-0.32267 0.44-0.85067 0-0.29333-0.16133-0.528-0.16134-0.23467-0.58667-0.46933-0.41067-0.23467-1.188-0.528-0.76267-0.29333-1.3053-0.58667t-0.836-0.704q-0.29333-0.41067-0.29333-1.056 0-0.99734 0.80666-1.54 0.82134-0.54267 2.1413-0.54267 0.71867 0 1.3347 0.14667 0.63067 0.132 1.1733 0.38133l-0.44 1.0267q-0.49867-0.20533-1.0413-0.352t-1.1147-0.14667q-0.792 0-1.2173 0.264-0.41067 0.24933-0.41067 0.68934 0 0.32267 0.19067 0.55733 0.19066 0.22 0.63066 0.44 0.45467 0.20533 1.2027 0.49867 0.748 0.27867 1.276 0.572 0.528 0.29333 0.80666 0.71867 0.27867 0.41067 0.27867 1.0413z"/>
   <path d="m362.42-89.411h-1.2613v-7.3187q0-0.63067 0.0147-1.012 0.0147-0.38133 0.044-0.792-0.23467 0.23467-0.42533 0.396-0.19067 0.16133-0.484 0.41067l-1.1147 0.90934-0.67467-0.86534 2.8307-2.2h1.0707z"/>
  </g>
  <rect x="184.38" y="234.38" width="169.22" height="35.356" ry="3.9779" fill="url(#linearGradient31646)" stroke="#666a6d"/>
  <g transform="translate(-19.32 345.32)" fill="#eff0f1" style="inline-size:355.016;white-space:pre" aria-label="Import from 1Password">
   <path d="m213.17-89.411h-3.784v-0.76267l1.232-0.27867v-8.3747l-1.232-0.29333v-0.76267h3.784v0.76267l-1.232 0.29333v8.3747l1.232 0.27867z"/>
   <path d="m223.44-97.419q1.3347 0 1.9947 0.68934 0.66 0.67467 0.66 2.2v5.1187h-1.276v-5.06q0-1.8627-1.5987-1.8627-1.144 0-1.6427 0.66-0.484 0.66-0.484 1.9213v4.3413h-1.276v-5.06q0-1.8627-1.6133-1.8627-1.188 0-1.6427 0.73334t-0.45467 2.112v4.0773h-1.2907v-7.8614h1.0413l0.19066 1.0707h0.0733q0.36666-0.616 0.98267-0.90934 0.63066-0.308 1.3347-0.308 1.848 0 2.4053 1.32h0.0733q0.396-0.67467 1.0707-0.99734 0.68933-0.32267 1.452-0.32267z"/>
   <path d="m232.07-97.419q1.452 0 2.332 1.012 0.89467 1.012 0.89467 3.0507 0 2.0093-0.89467 3.0507-0.88 1.0413-2.3467 1.0413-0.90934 0-1.5107-0.33733-0.58667-0.352-0.924-0.80667h-0.088q0.0293 0.24933 0.0587 0.63067 0.0293 0.38133 0.0293 0.66v3.2267h-1.2907v-11.381h1.056l0.176 1.0707h0.0587q0.352-0.51333 0.924-0.86534t1.5253-0.352zm-0.23467 1.0853q-1.2027 0-1.7013 0.67467-0.484 0.67467-0.51333 2.0533v0.24933q0 1.452 0.46933 2.244 0.484 0.77734 1.7747 0.77734 0.71867 0 1.1733-0.396 0.46933-0.396 0.68933-1.0707 0.23467-0.68934 0.23467-1.5693 0-1.3493-0.528-2.156-0.51334-0.80667-1.5987-0.80667z"/>
   <path d="m243.98-93.356q0 1.9507-0.99734 3.0213-0.98267 1.0707-2.6693 1.0707-1.0413 0-1.8627-0.46933-0.80667-0.484-1.276-1.3933-0.46934-0.924-0.46934-2.2293 0-1.9507 0.98267-3.0067 0.98267-1.056 2.6693-1.056 1.0707 0 1.8773 0.484 0.82133 0.46933 1.276 1.3787 0.46934 0.89467 0.46934 2.2zm-5.94 0q0 1.3933 0.54267 2.2147 0.55734 0.80667 1.76 0.80667 1.188 0 1.7453-0.80667 0.55734-0.82134 0.55734-2.2147 0-1.3933-0.55734-2.1853-0.55733-0.792-1.76-0.792t-1.7453 0.792q-0.54267 0.792-0.54267 2.1853z"/>
   <path d="m249.49-97.419q0.22 0 0.46933 0.02933 0.264 0.01467 0.45467 0.05867l-0.16133 1.188q-0.19067-0.044-0.42534-0.07333-0.22-0.02933-0.42533-0.02933-0.60134 0-1.1293 0.33733-0.528 0.32267-0.85067 0.924-0.308 0.58667-0.308 1.3787v4.1947h-1.2907v-7.8614h1.056l0.14666 1.4373h0.0587q0.38133-0.64534 0.98267-1.1147 0.60133-0.46933 1.4227-0.46933z"/>
   <path d="m254.3-90.32q0.29334 0 0.60134-0.044 0.308-0.05867 0.49866-0.11733v0.98267q-0.20533 0.10267-0.58666 0.16133-0.38134 0.07333-0.73334 0.07333-0.616 0-1.144-0.20533-0.51334-0.22-0.836-0.748-0.32267-0.528-0.32267-1.4813v-4.576h-1.1147v-0.616l1.1293-0.51333 0.51333-1.672h0.76267v1.804h2.2733v0.99734h-2.2733v4.5467q0 0.71867 0.33733 1.0707 0.352 0.33733 0.89467 0.33733z"/>
   <path d="m264.01-96.275h-1.98v6.864h-1.2907v-6.864h-1.3787v-0.60134l1.3787-0.44v-0.45467q0-1.5253 0.67467-2.1853 0.67467-0.67467 1.8773-0.67467 0.46933 0 0.85067 0.088 0.396 0.0733 0.67467 0.176l-0.33734 1.012q-0.23467-0.07333-0.54267-0.14667-0.308-0.07333-0.63066-0.07333-0.64534 0-0.96801 0.44-0.308 0.42533-0.308 1.3493v0.51334h1.98z"/>
   <path d="m268.9-97.419q0.22 0 0.46934 0.02933 0.264 0.01467 0.45466 0.05867l-0.16133 1.188q-0.19067-0.044-0.42533-0.07333-0.22001-0.02933-0.42534-0.02933-0.60133 0-1.1293 0.33733-0.52801 0.32267-0.85067 0.924-0.308 0.58667-0.308 1.3787v4.1947h-1.2907v-7.8614h1.056l0.14667 1.4373h0.0587q0.38134-0.64534 0.98267-1.1147 0.60134-0.46933 1.4227-0.46933z"/>
   <path d="m277.63-93.356q0 1.9507-0.99734 3.0213-0.98267 1.0707-2.6693 1.0707-1.0413 0-1.8627-0.46933-0.80667-0.484-1.276-1.3933-0.46933-0.924-0.46933-2.2293 0-1.9507 0.98266-3.0067 0.98267-1.056 2.6693-1.056 1.0707 0 1.8773 0.484 0.82134 0.46933 1.276 1.3787 0.46934 0.89467 0.46934 2.2zm-5.94 0q0 1.3933 0.54266 2.2147 0.55734 0.80667 1.76 0.80667 1.188 0 1.7453-0.80667 0.55734-0.82134 0.55734-2.2147 0-1.3933-0.55734-2.1853-0.55733-0.792-1.76-0.792t-1.7453 0.792q-0.54266 0.792-0.54266 2.1853z"/>
   <path d="m288.09-97.419q1.3347 0 1.9947 0.68934 0.66 0.67467 0.66 2.2v5.1187h-1.276v-5.06q0-1.8627-1.5987-1.8627-1.144 0-1.6427 0.66-0.484 0.66-0.484 1.9213v4.3413h-1.276v-5.06q0-1.8627-1.6133-1.8627-1.188 0-1.6427 0.73334t-0.45467 2.112v4.0773h-1.2907v-7.8614h1.0413l0.19066 1.0707h0.0733q0.36666-0.616 0.98267-0.90934 0.63066-0.308 1.3347-0.308 1.848 0 2.4053 1.32h0.0733q0.396-0.67467 1.0707-0.99734 0.68933-0.32267 1.452-0.32267z"/>
   <path d="m300.55-89.411h-1.2613v-7.3187q0-0.63067 0.0147-1.012 0.0147-0.38133 0.044-0.792-0.23467 0.23467-0.42534 0.396-0.19066 0.16133-0.484 0.41067l-1.1147 0.90934-0.67466-0.86534 2.8307-2.2h1.0707z"/>
   <path d="m307.73-99.883q2.0533 0 2.992 0.80667 0.93867 0.80667 0.93867 2.2733 0 0.86534-0.396 1.628-0.38133 0.748-1.3053 1.2173-0.90933 0.46934-2.4787 0.46934h-1.2027v4.0773h-1.32v-10.472zm-0.11734 1.1293h-1.3347v4.136h1.056q1.496 0 2.2293-0.484 0.73334-0.484 0.73334-1.6427 0-1.012-0.64534-1.5107-0.64533-0.49867-2.0387-0.49867z"/>
   <path d="m316.43-97.404q1.4373 0 2.1267 0.63067 0.68933 0.63067 0.68933 2.0093v5.3533h-0.93867l-0.24933-1.1147h-0.0587q-0.51333 0.64534-1.0853 0.95334-0.55734 0.308-1.5547 0.308-1.0707 0-1.7747-0.55733-0.704-0.572-0.704-1.7747 0-1.1733 0.924-1.804 0.924-0.64534 2.8453-0.704l1.3347-0.044v-0.46933q0-0.98267-0.42534-1.364-0.42533-0.38134-1.2027-0.38134-0.616 0-1.1733 0.19067-0.55734 0.176-1.0413 0.41067l-0.396-0.968q0.51334-0.27867 1.2173-0.46934 0.704-0.20533 1.4667-0.20533zm0.38133 4.1947q-1.4667 0.05867-2.0387 0.46933-0.55733 0.41067-0.55733 1.1587 0 0.66 0.396 0.968 0.41066 0.308 1.0413 0.308 0.99734 0 1.6573-0.54267 0.66-0.55734 0.66-1.7013v-0.704z"/>
   <path d="m326.6-91.581q0 1.144-0.85067 1.7307t-2.288 0.58667q-0.82133 0-1.4227-0.132-0.58667-0.132-1.0413-0.36667v-1.1733q0.46933 0.23467 1.1293 0.44 0.67467 0.19067 1.364 0.19067 0.98267 0 1.4227-0.308 0.44001-0.32267 0.44001-0.85067 0-0.29333-0.16134-0.528-0.16133-0.23467-0.58667-0.46933-0.41066-0.23467-1.188-0.528-0.76267-0.29333-1.3053-0.58667-0.54267-0.29333-0.83601-0.704-0.29333-0.41067-0.29333-1.056 0-0.99734 0.80667-1.54 0.82133-0.54267 2.1413-0.54267 0.71866 0 1.3347 0.14667 0.63066 0.132 1.1733 0.38133l-0.44 1.0267q-0.49867-0.20533-1.0413-0.352-0.54266-0.14667-1.1147-0.14667-0.79201 0-1.2173 0.264-0.41067 0.24933-0.41067 0.68934 0 0.32267 0.19067 0.55733 0.19067 0.22 0.63067 0.44 0.45466 0.20533 1.2027 0.49867 0.748 0.27867 1.276 0.572t0.80667 0.71867q0.27867 0.41067 0.27867 1.0413z"/>
   <path d="m333.43-91.581q0 1.144-0.85067 1.7307t-2.288 0.58667q-0.82134 0-1.4227-0.132-0.58667-0.132-1.0413-0.36667v-1.1733q0.46934 0.23467 1.1293 0.44 0.67466 0.19067 1.364 0.19067 0.98267 0 1.4227-0.308 0.44-0.32267 0.44-0.85067 0-0.29333-0.16133-0.528-0.16134-0.23467-0.58667-0.46933-0.41067-0.23467-1.188-0.528-0.76267-0.29333-1.3053-0.58667t-0.836-0.704q-0.29334-0.41067-0.29334-1.056 0-0.99734 0.80667-1.54 0.82134-0.54267 2.1413-0.54267 0.71867 0 1.3347 0.14667 0.63067 0.132 1.1733 0.38133l-0.44 1.0267q-0.49867-0.20533-1.0413-0.352t-1.1147-0.14667q-0.792 0-1.2173 0.264-0.41066 0.24933-0.41066 0.68934 0 0.32267 0.19066 0.55733 0.19067 0.22 0.63067 0.44 0.45467 0.20533 1.2027 0.49867 0.748 0.27867 1.276 0.572 0.52801 0.29333 0.80667 0.71867 0.27867 0.41067 0.27867 1.0413z"/>
   <path d="m340.21-93.855q-0.19067-0.60134-0.33734-1.1733-0.132-0.58667-0.20533-0.90934h-0.0587q-0.0587 0.32267-0.19067 0.90934-0.132 0.572-0.33733 1.188l-1.408 4.4147h-1.4667l-2.156-7.8614h1.3347l1.0853 4.1947q0.16133 0.63067 0.308 1.276 0.14666 0.64534 0.20533 1.0707h0.0587q0.0587-0.24933 0.132-0.616 0.088-0.36667 0.19067-0.76267 0.10266-0.41067 0.20533-0.73334l1.3933-4.4293h1.408l1.3493 4.4293q0.16133 0.49867 0.308 1.0853 0.16133 0.58667 0.22 1.012h0.0587q0.044-0.36667 0.19067-1.012 0.16133-0.64534 0.33733-1.32l1.1-4.1947h1.32l-2.1853 7.8614h-1.5107z"/>
   <path d="m353.3-93.356q0 1.9507-0.99734 3.0213-0.98267 1.0707-2.6693 1.0707-1.0413 0-1.8627-0.46933-0.80667-0.484-1.276-1.3933-0.46934-0.924-0.46934-2.2293 0-1.9507 0.98267-3.0067 0.98267-1.056 2.6693-1.056 1.0707 0 1.8773 0.484 0.82134 0.46933 1.276 1.3787 0.46934 0.89467 0.46934 2.2zm-5.94 0q0 1.3933 0.54267 2.2147 0.55734 0.80667 1.76 0.80667 1.188 0 1.7453-0.80667 0.55734-0.82134 0.55734-2.2147 0-1.3933-0.55734-2.1853-0.55733-0.792-1.76-0.792t-1.7453 0.792q-0.54267 0.792-0.54267 2.1853z"/>
   <path d="m358.8-97.419q0.22 0 0.46933 0.02933 0.26401 0.01467 0.45467 0.05867l-0.16133 1.188q-0.19067-0.044-0.42534-0.07333-0.22-0.02933-0.42533-0.02933-0.60133 0-1.1293 0.33733-0.528 0.32267-0.85066 0.924-0.30801 0.58667-0.30801 1.3787v4.1947h-1.2907v-7.8614h1.056l0.14666 1.4373h0.0587q0.38134-0.64534 0.98267-1.1147 0.60133-0.46933 1.4227-0.46933z"/>
   <path d="m363.49-89.264q-1.4667 0-2.3467-1.012-0.88001-1.0267-0.88001-3.0507 0-2.024 0.88001-3.0507 0.89466-1.0413 2.3613-1.0413 0.90934 0 1.4813 0.33733 0.58667 0.33733 0.95334 0.82134h0.088q-0.0147-0.19067-0.0587-0.55733-0.0293-0.38134-0.0293-0.60134v-3.1387h1.2907v11.147h-1.0413l-0.19067-1.056h-0.0587q-0.352 0.49867-0.93867 0.85067-0.58667 0.352-1.5107 0.352zm0.20533-1.0707q1.2467 0 1.7453-0.67467 0.51333-0.68934 0.51333-2.068v-0.23467q0-1.4667-0.484-2.244-0.484-0.792-1.7893-0.792-1.0413 0-1.5693 0.836-0.51334 0.82134-0.51334 2.2147 0 1.408 0.51334 2.1853 0.528 0.77734 1.584 0.77734z"/>
  </g>
  <rect x="361.49" y="234.38" width="121.02" height="35.876" ry="3.9779" fill="url(#linearGradient31654)" stroke="#666a6d"/>
  <g transform="translate(133.07 345.58)" fill="#eff0f1" style="inline-size:355.016;white-space:pre" aria-label="Import from CSV">
   <path d="m236.87-89.411h-3.784v-0.76267l1.232-0.27867v-8.3747l-1.232-0.29333v-0.76267h3.784v0.76267l-1.232 0.29333v8.3747l1.232 0.27867z"/>
   <path d="m247.14-97.419q1.3347 0 1.9947 0.68934 0.66 0.67467 0.66 2.2v5.1187h-1.276v-5.06q0-1.8627-1.5987-1.8627-1.144 0-1.6427 0.66-0.484 0.66-0.484 1.9213v4.3413h-1.276v-5.06q0-1.8627-1.6133-1.8627-1.188 0-1.6427 0.73334t-0.45467 2.112v4.0773h-1.2907v-7.8614h1.0413l0.19066 1.0707h0.0733q0.36666-0.616 0.98267-0.90934 0.63066-0.308 1.3347-0.308 1.848 0 2.4053 1.32h0.0733q0.396-0.67467 1.0707-0.99734 0.68933-0.32267 1.452-0.32267z"/>
   <path d="m255.77-97.419q1.452 0 2.332 1.012 0.89467 1.012 0.89467 3.0507 0 2.0093-0.89467 3.0507-0.88 1.0413-2.3467 1.0413-0.90934 0-1.5107-0.33733-0.58667-0.352-0.924-0.80667h-0.088q0.0293 0.24933 0.0587 0.63067 0.0293 0.38133 0.0293 0.66v3.2267h-1.2907v-11.381h1.056l0.176 1.0707h0.0587q0.352-0.51333 0.924-0.86534t1.5253-0.352zm-0.23467 1.0853q-1.2027 0-1.7013 0.67467-0.484 0.67467-0.51333 2.0533v0.24933q0 1.452 0.46933 2.244 0.484 0.77734 1.7747 0.77734 0.71867 0 1.1733-0.396 0.46933-0.396 0.68933-1.0707 0.23467-0.68934 0.23467-1.5693 0-1.3493-0.528-2.156-0.51334-0.80667-1.5987-0.80667z"/>
   <path d="m267.68-93.356q0 1.9507-0.99734 3.0213-0.98267 1.0707-2.6693 1.0707-1.0413 0-1.8627-0.46933-0.80667-0.484-1.276-1.3933-0.46934-0.924-0.46934-2.2293 0-1.9507 0.98267-3.0067 0.98267-1.056 2.6693-1.056 1.0707 0 1.8773 0.484 0.82133 0.46933 1.276 1.3787 0.46934 0.89467 0.46934 2.2zm-5.94 0q0 1.3933 0.54267 2.2147 0.55734 0.80667 1.76 0.80667 1.188 0 1.7453-0.80667 0.55734-0.82134 0.55734-2.2147 0-1.3933-0.55734-2.1853-0.55733-0.792-1.76-0.792t-1.7453 0.792q-0.54267 0.792-0.54267 2.1853z"/>
   <path d="m273.19-97.419q0.22 0 0.46933 0.02933 0.264 0.01467 0.45467 0.05867l-0.16133 1.188q-0.19067-0.044-0.42534-0.07333-0.22-0.02933-0.42533-0.02933-0.60134 0-1.1293 0.33733-0.528 0.32267-0.85067 0.924-0.308 0.58667-0.308 1.3787v4.1947h-1.2907v-7.8614h1.056l0.14666 1.4373h0.0587q0.38133-0.64534 0.98267-1.1147 0.60133-0.46933 1.4227-0.46933z"/>
   <path d="m278.01-90.32q0.29334 0 0.60134-0.044 0.308-0.05867 0.49866-0.11733v0.98267q-0.20533 0.10267-0.58666 0.16133-0.38134 0.07333-0.73334 0.07333-0.616 0-1.144-0.20533-0.51334-0.22-0.836-0.748-0.32267-0.528-0.32267-1.4813v-4.576h-1.1147v-0.616l1.1293-0.51333 0.51333-1.672h0.76267v1.804h2.2733v0.99734h-2.2733v4.5467q0 0.71867 0.33733 1.0707 0.352 0.33733 0.89467 0.33733z"/>
   <path d="m287.71-96.275h-1.98v6.864h-1.2907v-6.864h-1.3787v-0.60134l1.3787-0.44v-0.45467q0-1.5253 0.67467-2.1853 0.67467-0.67467 1.8773-0.67467 0.46933 0 0.85067 0.088 0.396 0.0733 0.67467 0.176l-0.33734 1.012q-0.23467-0.07333-0.54267-0.14667-0.308-0.07333-0.63066-0.07333-0.64534 0-0.96801 0.44-0.308 0.42533-0.308 1.3493v0.51334h1.98z"/>
   <path d="m292.6-97.419q0.22 0 0.46934 0.02933 0.264 0.01467 0.45466 0.05867l-0.16133 1.188q-0.19067-0.044-0.42533-0.07333-0.22-0.02933-0.42534-0.02933-0.60133 0-1.1293 0.33733-0.52801 0.32267-0.85067 0.924-0.308 0.58667-0.308 1.3787v4.1947h-1.2907v-7.8614h1.056l0.14667 1.4373h0.0587q0.38134-0.64534 0.98267-1.1147 0.60134-0.46933 1.4227-0.46933z"/>
   <path d="m301.33-93.356q0 1.9507-0.99734 3.0213-0.98267 1.0707-2.6693 1.0707-1.0413 0-1.8627-0.46933-0.80667-0.484-1.276-1.3933-0.46933-0.924-0.46933-2.2293 0-1.9507 0.98266-3.0067 0.98267-1.056 2.6693-1.056 1.0707 0 1.8773 0.484 0.82134 0.46933 1.276 1.3787 0.46934 0.89467 0.46934 2.2zm-5.94 0q0 1.3933 0.54266 2.2147 0.55734 0.80667 1.76 0.80667 1.188 0 1.7453-0.80667 0.55734-0.82134 0.55734-2.2147 0-1.3933-0.55734-2.1853-0.55733-0.792-1.76-0.792t-1.7453 0.792q-0.54266 0.792-0.54266 2.1853z"/>
   <path d="m311.79-97.419q1.3347 0 1.9947 0.68934 0.66 0.67467 0.66 2.2v5.1187h-1.276v-5.06q0-1.8627-1.5987-1.8627-1.144 0-1.6427 0.66-0.484 0.66-0.484 1.9213v4.3413h-1.276v-5.06q0-1.8627-1.6133-1.8627-1.188 0-1.6427 0.73334t-0.45467 2.112v4.0773h-1.2907v-7.8614h1.0413l0.19066 1.0707h0.0733q0.36666-0.616 0.98267-0.90934 0.63066-0.308 1.3347-0.308 1.848 0 2.4053 1.32h0.0733q0.396-0.67467 1.0707-0.99734 0.68933-0.32267 1.452-0.32267z"/>
   <path d="m324.96-98.871q-1.6867 0-2.6547 1.1293-0.96801 1.1293-0.96801 3.0947 0 1.9507 0.89467 3.0947 0.90934 1.1293 2.7133 1.1293 0.68934 0 1.3053-0.11733 0.616-0.11733 1.2027-0.29333v1.144q-0.58667 0.22-1.2173 0.32267-0.616 0.10267-1.4813 0.10267-1.5987 0-2.6693-0.66-1.0707-0.66-1.6133-1.8773-0.528-1.2173-0.528-2.86 0-1.584 0.572-2.7867 0.58667-1.2173 1.716-1.892 1.1293-0.68933 2.7427-0.68933 1.6573 0 2.8893 0.616l-0.528 1.1147q-0.48401-0.22-1.0853-0.396-0.58667-0.176-1.2907-0.176z"/>
   <path d="m335.48-92.212q0 1.3933-1.012 2.1707t-2.728 0.77734q-0.88001 0-1.628-0.132t-1.2467-0.36667v-1.2613q0.528 0.23467 1.3053 0.42534 0.792 0.19067 1.628 0.19067 1.1733 0 1.76-0.45467 0.60133-0.45467 0.60133-1.232 0-0.51333-0.22-0.86534t-0.76267-0.64534q-0.528-0.308-1.4813-0.64534-1.3347-0.484-2.024-1.188-0.67467-0.704-0.67467-1.9213 0-0.836 0.42534-1.4227 0.42533-0.60134 1.1733-0.924 0.76267-0.32266 1.7453-0.32266 0.86534 0 1.584 0.16133 0.71867 0.16133 1.3053 0.42533l-0.41067 1.1293q-0.54267-0.23467-1.188-0.396-0.63067-0.16133-1.32-0.16133-0.98267 0-1.4813 0.42533-0.49867 0.41067-0.49867 1.1 0 0.528 0.22 0.88 0.22 0.352 0.71867 0.63067 0.49867 0.27867 1.3493 0.60133 0.924 0.33733 1.5547 0.73334 0.64533 0.38133 0.968 0.924 0.33733 0.54267 0.33733 1.364z"/>
   <path d="m344.77-99.883-3.74 10.472h-1.32l-3.74-10.472h1.3787l2.3613 6.7173q0.23467 0.64534 0.396 1.2173 0.16133 0.55734 0.264 1.0707 0.10267-0.51333 0.264-1.0853 0.16134-0.572 0.396-1.232l2.3467-6.688z"/>
  </g>
 </g>
 <g transform="matrix(.5 0 0 .5 219.75 22.806)" style="isolation:isolate">
  <g id="b">
   <g id="c">
    <rect width="128" height="128" fill="none"/>
    <g id="d">
     <path id="f" d="m64 124.9c-33.58 0-60.9-27.32-60.9-60.9s27.32-60.9 60.9-60.9 60.9 27.32 60.9 60.9-27.319 60.9-60.9 60.9zm0-116.68c-30.742 0-55.752 25.021-55.752 55.776s25.01 55.776 55.752 55.776 55.751-25.021 55.751-55.776-25.01-55.776-55.751-55.776z" fill="url(#e)"/>
     <path id="h" d="m64 3.1238c-33.567 0-60.876 27.309-60.876 60.876s27.309 60.876 60.876 60.876 60.876-27.309 60.876-60.876-27.309-60.876-60.876-60.876z" fill="url(#g)" opacity=".32" style="mix-blend-mode:lighten"/>
     <path id="j" d="m64 124.9c-33.58 0-60.9-27.32-60.9-60.9s27.32-60.9 60.9-60.9 60.9 27.32 60.9 60.9-27.319 60.9-60.9 60.9zm0-116.68c-30.742 0-55.752 25.021-55.752 55.776s25.01 55.776 55.752 55.776 55.751-25.021 55.751-55.776-25.01-55.776-55.751-55.776z" fill="url(#i)" opacity=".44"/>
     <path id="k" d="m64 8.5504c-30.978 0-56.181 25.202-56.181 56.181s25.202 56.181 56.181 56.181 56.181-25.203 56.181-56.181-25.202-56.181-56.181-56.181z"/>
     <path id="l" d="m64 124.9c-33.58 0-60.9-27.32-60.9-60.9s27.32-60.9 60.9-60.9 60.9 27.32 60.9 60.9-27.319 60.9-60.9 60.9zm0-120.5c-33.58 0-60.9 26.956-60.9 60.09s27.32 60.09 60.9 60.09 60.9-26.956 60.9-60.09-27.319-60.09-60.9-60.09z" fill="#0f0f0d" opacity=".35"/>
    </g>
    <g id="m">
     <path id="o" d="m64 8.2241c-30.755 0-55.776 25.021-55.776 55.776s25.021 55.776 55.776 55.776 55.776-25.021 55.776-55.776-25.021-55.776-55.776-55.776z" fill="url(#n)"/>
     <path id="q" d="m64 8.2241c-30.755 0-55.776 25.021-55.776 55.776s25.021 55.776 55.776 55.776 55.776-25.021 55.776-55.776-25.021-55.776-55.776-55.776z" fill="url(#p)" opacity=".13" style="mix-blend-mode:multiply"/>
     <path id="s" d="m64 12.861c-9.1608 0-16.614 7.4528-16.614 16.614s7.4528 16.614 16.614 16.614 16.614-7.4528 16.614-16.614-7.4527-16.614-16.614-16.614z" fill="url(#r)" opacity=".7" style="mix-blend-mode:lighten"/>
     <path id="u" d="m34.687 16.364c-0.0027 0.0191-0.0054 0.0378-0.0081 0.0569-0.0725 0.0136-0.0736-0.0037 0.0081-0.0569zm42.118 35.8-0.7714 13.782 9.1023 9.9165-9.1023 9.9165 6.0168 6.5549-6.0168 6.5549 0.7714 13.67h-25.61v-60.395c-10.182-5.2104-17.125-16.471-17.125-29.413 0-2.1659 0.3032-4.1671 0.609-6.33 1.1046-0.2082 18.967-7.6947 18.967-7.6947-0.1483 0.8092 20.855 0.8092 20.707 0 0 0 17.258 7.4257 18.989 7.7899 0.438 2.1264 0.5873 4.101 0.5873 6.2348 0 12.942-7.0968 24.203-17.125 29.413zm16.508-35.8c0.0108 0.0511 0.0194 0.1011 0.0299 0.1521 0.1896 0.0399 0.196-0.0035-0.0299-0.1521z" fill="url(#t)" opacity=".3" style="mix-blend-mode:multiply"/>
     <path id="v" d="m34.116 100.43c-9.8977-8.6081-16.164-21.297-16.164-35.497 0-16.523 8.6409-31.774 22.873-40.29-0.2541 1.6523-0.5083 3.1774-0.5083 4.8297 0 9.7865 5.7182 18.302 14.105 22.242v44.611l10.547 10.549 10.547-10.549-0.6354-9.2781 4.9558-4.9568-4.9558-4.9568 7.4972-7.4988-7.4972-7.4988 0.6354-10.422c8.2596-3.94 14.105-12.456 14.105-22.242 0-1.6523-0.1271-3.1774-0.5083-4.8297 5.1643 3.1178 9.5922 7.1416 13.142 11.797-8.5841-11.789-22.529-19.459-38.277-19.459-26.091 0-47.242 21.05-47.242 47.016 0 14.693 6.7736 27.81 17.381 36.432zm27.421-7.6624h-3.558v-35.206h3.558zm-5.0828-73.971c2.7956-0.5084 5.7182-0.7626 8.5138-0.7626 2.9226-0.1271 5.7182 0.2542 8.5138 0.7626 0.1271 0.6355 0.2542 1.271 0.2542 1.9064 0 4.8297-3.9392 8.7698-8.7679 8.7698s-8.7679-3.94-8.7679-8.7698c0-0.6355 0.1271-1.2709 0.2542-1.9064z" fill="#0f0f0d" opacity=".2" style="mix-blend-mode:multiply"/>
     <path id="x" d="m64 8.2241c-30.742 0-55.751 25.021-55.751 55.776s25.01 55.776 55.751 55.776 55.751-25.021 55.751-55.776-25.01-55.776-55.751-55.776zm-8.5138 9.5882c2.7956-0.5084 5.7182-0.7626 8.5138-0.7626 2.9226-0.1271 5.7182 0.2542 8.5138 0.7626 0.1271 0.6355 0.2542 1.271 0.2542 1.9064 0 4.8297-3.9392 8.7698-8.7679 8.7698s-8.7679-3.94-8.7679-8.7698c0-0.6355 0.1271-1.2709 0.2542-1.9064zm5.0828 38.765v35.206h-3.558v-35.206zm3.4309 54.398c-25.922 0-47.016-20.971-47.016-47.026 0-16.523 8.6409-31.774 22.873-40.29-0.2541 1.6523-0.5083 3.1774-0.5083 4.8297 0 9.7865 5.7182 18.302 14.105 22.242v44.611l10.547 10.549 10.547-10.549-0.6354-9.2781 4.9558-4.9568-4.9558-4.9568 7.4972-7.4988-7.4972-7.4988 0.6354-10.422c8.2596-3.94 14.105-12.456 14.105-22.242 0-1.6523-0.1271-3.1774-0.5083-4.8297 14.105 8.5156 22.746 23.767 22.873 40.29 0 25.928-20.967 47.026-47.016 47.026z" fill="url(#w)"/>
    </g>
   </g>
  </g>
 </g>
 <text x="84.014282" y="117.6046" fill="#eff0f1" font-family="'Noto Sans'" font-size="21.333px" xml:space="preserve"><tspan x="84.014282" y="117.6046" fill="#eff0f1" font-family="'Noto Sans'" font-size="24px" font-weight="bold" style="font-variant-caps:normal;font-variant-east-asian:normal;font-variant-ligatures:normal;font-variant-numeric:normal">Welcome to KeePassXC 2.7.5</tspan></text>
</svg>
