<svg width="75.053mm" height="75mm" data-name="Layer 3" version="1.1" viewBox="0 0 283.66 283.46" xmlns="http://www.w3.org/2000/svg">
 <defs>
  <linearGradient id="linearGradient1401" x1="93.743" x2="93.743" y1="106.74" y2="75.026" gradientTransform="matrix(2.2146 0 0 2.2146 55.008 0)" gradientUnits="userSpaceOnUse">
   <stop stop-color="#1d99f3" offset="0"/>
   <stop stop-color="#c7e7f9" offset="1"/>
  </linearGradient>
  <linearGradient id="linearGradient2049" x1="93.743" x2="93.743" y1="123.16" y2="67.312" gradientTransform="matrix(2.2146 0 0 2.2146 55.008 0)" gradientUnits="userSpaceOnUse">
   <stop stop-color="#232629" offset="0"/>
   <stop stop-color="#17181b" offset="1"/>
  </linearGradient>
  <linearGradient id="linearGradient8271" x1="53.809" x2="112.34" y1="22.613" y2="241.07" gradientTransform="scale(2.2146)" gradientUnits="userSpaceOnUse">
   <stop stop-color="#fff" offset="0"/>
   <stop stop-color="#606060" offset="1"/>
  </linearGradient>
 </defs>
 <g stroke-width="2.2146">
  <path d="m138.54 15.537c-35.158 0.69464-69.65 17.057-92.454 43.824-18.847 21.825-29.952 50.242-30.537 79.102-0.77432 29.463 9.0113 59.16 27.6 82.085 19.977 25.016 49.715 42.154 81.523 46.256 30.829 4.1922 63.204-3.2844 88.742-21.155 27.177-18.759 46.721-48.461 52.474-81.049 5.7074-31.062-0.54777-64.262-17.751-90.815-17.712-27.731-46.561-48.255-78.781-55.234-3.9594-0.91238-8.6988-1.6717-12.271-2.1107-6.1507-0.74339-12.353-1.04-18.547-0.90399zm-9.0919 24.247c4.4353 9.469 8.8687 18.94 13.305 28.408 0.62298 1.1865 0.85064 2.9283 2.5822 2.5693 5.8013 0.47626 11.513 1.5692 17.172 2.9066 7.8821-8.195 15.699-16.454 23.647-24.586 4.589 2.6936 9.2365 5.2853 13.802 8.0192-2.919 9.9868-5.8349 19.975-8.7544 29.961-0.19488 1.2784-1.4637 2.8085 0.039 3.6939 4.0941 4.23 7.7251 8.858 11.103 13.672 11.34-0.93207 22.673-1.9617 34.018-2.8114 1.4731 4.4644 3.0189 8.9041 4.4768 13.374l-33.542 7.0979c-4.5481-15.169-14.464-28.703-27.746-37.371-15.488-10.313-35.278-13.976-53.382-9.533-3.5384-10.902-7.1254-21.821-10.571-32.638 2.9206-0.58806 5.8768-1.1954 8.7243-1.7561 1.1938-0.24021 2.968-0.58558 3.802-0.76126 0.44263-0.08218 0.88525-0.16436 1.3279-0.24655zm-60.378 29.542c7.6724 8.4707 15.296 16.988 22.95 25.476-1.4812 1.57-2.8831 3.2118-4.1999 4.9223-10.343 13.119-15.465 30.14-14.243 46.787 0.90839 15.629 7.9532 30.499 18.426 41.995-7.5864 8.5823-15.341 17.021-22.985 25.554-3.115-3.5404-6.2604-7.0549-9.3384-10.627 5.889-8.4583 11.78-16.918 17.669-25.377 0.48692-1.1537 2.3519-2.1698 1.3668-3.4689-2.5388-5.4111-4.5474-11.038-6.2415-16.765-11.039-2.7166-22.098-5.3486-33.114-8.1532 0.0018-5.3418-0.03898-10.684 0.01772-16.025 10.029-2.4506 20.059-4.9019 30.087-7.353 1.1343-0.54155 3.2102-0.0716 3.3218-1.7085 1.6495-5.7388 3.8595-11.284 6.3625-16.7-6.4683-9.3311-13.012-18.609-19.403-27.994 2.1531-2.4343 4.3025-4.8714 6.436-7.3227zm138.1 92.095c11.231 2.409 22.407 4.7159 33.626 7.1887-1.4978 4.4546-2.9677 8.9189-4.5157 13.356-10.435-0.88536-20.871-1.7707-31.307-2.6557-1.3474-0.0603-2.9655-0.71814-3.5165 0.96887-3.2762 4.8032-7.091 9.1862-11.09 13.395 3.1327 10.935 6.4497 21.817 9.4941 32.778-2.3479 1.3455-4.7042 2.6772-7.0372 4.0484-2.2133 1.2961-4.4958 2.5997-6.8902 3.9362-7.1575-7.47-14.319-14.938-21.48-22.405-1.0379-0.71233-1.6744-2.7421-3.1489-2.0156-5.7849 1.4504-11.684 2.3023-17.617 2.8548-4.8426 10.268-9.6139 20.571-14.537 30.8-4.6085-0.96865-9.2383-1.8311-13.845-2.8072l10.619-32.587c1.3771 0.3309 2.7698 0.60327 4.1654 0.84344 16.155 2.8428 33.285-0.39158 47.237-9.0356 14.239-8.6322 25.151-22.613 29.832-38.618z" fill-opacity=".5"/>
  <path d="m141.73 0a141.73 141.73 0 0 0-141.73 141.73 141.73 141.73 0 0 0 141.73 141.73 141.73 141.73 0 0 0 141.73-141.73 141.73 141.73 0 0 0-141.73-141.73zm-1.7518 13.318c13.95-0.21824 27.917 1.9052 41.191 6.1939 1.4887 0.47894 3.3945 1.1351 4.5979 1.5744 26.101 9.4425 48.906 27.656 63.877 51.03 15.878 24.42 22.998 54.372 19.741 83.323-0.11782 1.2627-0.37715 3.0242-0.48012 3.9621-0.78024 5.4396-1.8613 10.838-3.3174 16.138-0.29279 1.1273-0.78057 2.7489-1.0078 3.5338-0.96752 3.1341-2.0122 6.2468-3.2138 9.2994-11.15 28.913-33.258 53.358-60.814 67.5-1.6925 0.85245-2.8378 1.4343-4.5199 2.2146-1.7484 0.82508-3.9151 1.727-5.4543 2.3833-10.314 4.2746-21.203 7.1557-32.275 8.5728-26.116 3.4357-53.243-1.4071-76.515-13.763-1.1109-0.56533-2.6258-1.4438-3.4386-1.8729-13.58-7.7454-25.747-17.963-35.697-30.023-19.246-23.144-29.753-53.269-29.308-83.35 0.01822-1.9754 0.08236-3.5688 0.18599-5.4111 0.03501-0.96276 0.16593-2.5775 0.22491-3.3867 0.96785-11.508 3.4419-22.894 7.4396-33.732 1.0187-2.7091 1.9193-4.9881 3.0537-7.565 0.5951-1.3613 1.4349-3.1387 1.955-4.2086 4.801-9.8717 10.834-19.152 17.98-27.487 0.83688-0.99414 2.0438-2.3439 2.7033-3.0709 18.91-20.801 44.836-35.046 72.523-39.893 1.3728-0.25306 3.2428-0.51808 4.3211-0.69205 5.3863-0.74031 10.814-1.1808 16.25-1.2716z" fill-opacity=".5"/>
  <ellipse cx="141.86" cy="141.07" rx="141.81" ry="140.92" fill="none"/>
  <path d="m139.32 7.7656c-10.021 0.16202-20.043 1.4873-29.728 3.9003-21.617 5.3249-41.734 16.067-58.168 31.084-9.0826 8.2986-17.218 18.052-23.714 28.63-11.052 17.798-17.798 38.469-19.532 59.439-0.63948 8.1941-0.58349 16.719 0.30103 24.952 2.1039 19.925 8.7517 39.402 19.331 56.496 12.885 20.813 31.693 38.122 53.703 49.146 25.204 12.733 54.627 17.226 82.583 12.419 21.032-3.5606 41.587-12.352 58.611-25.352 25.871-19.542 44.105-48.581 50.39-80.373 3.1484-15.727 3.4492-32.051 0.91181-47.797-2.8227-17.672-9.367-35.046-18.972-50.107-15.376-24.387-38.708-43.547-65.706-53.739-10.52-4.0095-21.537-6.6678-32.603-7.875-5.8115-0.6469-11.539-0.90536-17.408-0.82395zm-7.3152 23.667c2.5556 0.02456 3.4226 2.7653 4.277 4.6902 4.2746 9.0766 8.5112 18.172 12.771 27.257 3.6545 0.342 7.2839 0.93904 10.854 1.7903 7.8382-8.1286 15.585-16.362 23.516-24.391 2.1177-1.5054 4.4247 0.30747 6.2517 1.3874 5.928 3.5079 12.011 6.795 17.813 10.481 1.9018 1.874 0.43336 4.5396-0.10785 6.6672-2.778 9.502-5.5561 19.004-8.3341 28.506 2.5244 2.6699 4.8603 5.5176 6.9746 8.5234 11.235-0.91486 22.473-1.9683 33.71-2.754 2.3873 0.18392 3.1724 2.7157 3.6673 4.6601 2.1506 6.5824 4.5219 13.097 6.4894 19.731 0.26914 2.4622-2.3452 3.9107-4.4954 3.9676-14.612 3.0933-29.226 6.1833-43.837 9.2786-2.5603-14.039-10.031-27.182-21.12-36.224-12.306-10.187-28.701-15.294-44.546-13.611-5.0459 0.47352-9.9897 1.701-14.793 3.2889-4.8512-15.005-9.8236-29.972-14.556-45.011-0.35541-2.4099 2.1473-4.0606 4.3126-4.0671 7.0485-1.3901 14.083-2.9339 21.152-4.1698zm-62.655 27.983c2.634 0.41738 3.742 3.1905 5.567 4.7992 9.2844 10.337 18.578 20.665 27.886 30.982-8.0991 6.8886-14.425 15.847-18.058 25.848-4.0467 11.138-4.7328 23.893-1.7613 35.535 2.9837 11.906 10.599 23.632 19.838 31.699 0 0-0.99249 0.85797-2.4245 2.4398-7.4549 8.5099-15.155 16.851-22.706 25.29-2.3625 2.477-4.4929 5.22-6.996 7.536-2.1235 1.2547-4.4998-0.42721-5.6232-2.2436-4.6262-5.2882-9.3665-10.493-13.888-15.862-1.3292-2.2327 0.67325-4.3862 1.9025-6.1144l17.189-24.69c-1.5335-3.3429-2.8178-6.7967-3.8757-10.318-10.956-2.7148-21.957-5.2926-32.871-8.1414-2.3474-1.0743-1.9504-3.9643-1.9275-6.077 0.03499-6.8614-0.09257-13.739 0.08305-20.59 0.50669-2.512 3.3721-2.849 5.4361-3.3002 9.7569-2.4004 19.523-4.7673 29.283-7.1548 1.0623-3.5203 2.3605-6.9684 3.8965-10.31-6.4079-9.2744-12.944-18.475-19.233-27.822-1.0489-2.3523 1.1149-4.2949 2.5665-5.8338 4.512-5.043 8.8627-10.255 13.539-15.134 0.63937-0.41306 1.4187-0.6205 2.1767-0.53998zm133.14 93.074c15.158 3.2884 30.366 6.3749 45.498 9.7572 1.0398 0.22206 1.0213 1.8298 2.2223 1.5295 0.66475 0.51125-0.63281 2.306-0.74183 3.3241-2.3977 7.0791-4.6889 14.209-7.2215 21.232-1.2696 2.1975-4.0706 1.638-6.1532 1.398-10.029-0.83585-20.058-1.7044-30.087-2.5527-2.1176 3.0049-4.4468 5.8615-6.9872 8.5194 3.1197 10.86 6.4413 21.678 9.3882 32.578 0.18204 2.6451-2.6278 3.7034-4.5071 4.7892-5.9658 3.3566-11.82 6.9695-17.881 10.12-2.5716 0.72248-4.1607-1.9008-5.7262-3.4284-6.8572-7.1528-13.714-14.306-20.571-21.459-3.5748 0.85223-7.2084 1.4484-10.867 1.7903-4.816 10.176-9.5235 20.418-14.456 30.53-1.5201 2.1106-4.3153 1.2031-6.4014 0.73105-6.6486-1.4378-13.403-2.5253-19.975-4.2261-2.1386-1.0876-2.0166-3.9636-1.025-5.8068 4.6249-14.196 9.2518-28.391 13.876-42.586 13.008 4.6827 27.746 4.9223 40.706 0.29078 15.71-5.4543 29.037-17.548 35.61-32.866 1.961-4.4415 3.3236-9.1282 4.2566-13.888 0.34756 0.0748 0.69511 0.14952 1.0427 0.22431z" fill="url(#linearGradient8271)"/>
  <path d="m260.12 141.21c-28.568 0.12452-57.138-0.0184-85.706 0.0668-13.214 0.0362-26.438 0.0182-39.645 0.20762-10.011 1.278-17.08 13.232-12.949 22.549 2.9179 6.222 8.2916 10.749 12.313 16.209 13.545 16.334 27.091 32.667 40.635 49.002 0.19023 9.2354-0.57063 18.545 0.63011 27.724 1.6584 5.7218 7.1801 8.8302 11.777 11.969 6.8182 4.5496 13.167 9.9155 20.573 13.504 8.5571 2.7872 18.792-4.4849 18.509-13.593 0.0804-13.206 0.0631-26.411 0.0598-39.616 17.28-20.862 34.678-41.623 51.706-62.688 5.4892-8.6472 0.49961-21.815-9.4285-24.489-2.754-0.76327-5.6314-0.88246-8.474-0.84439z" fill="url(#linearGradient2049)"/>
  <path d="m270.6 163.71-52.011 62.721v42.037c0 5.4999-6.1902 8.6499-10.636 5.5393l-22.54-15.773c-1.8173-1.2623-2.888-3.3473-2.888-5.5448v-26.26l-52.018-62.721c-4.8856-5.8914-0.60916-14.705 7.1353-14.705h125.83c7.7483 0 11.777 8.8133 7.1285 14.705z" fill="url(#linearGradient1401)"/>
 </g>
</svg>
