<svg width="124" height="124.01" data-name="Layer 3" version="1.1" viewBox="0 0 123.99999 124.01" xmlns="http://www.w3.org/2000/svg">
    <path d="m60.929364 2.5013766c-4.450453 0.07197-8.900634 0.66066-13.202217 1.732375-9.600538 2.365128-18.534892 7.1373434-25.834352 13.807349-4.033819 3.685866-7.647781 8.01858-10.532623 12.717004-4.908497 7.905335-7.9046101 17.084429-8.6747938 26.398897-0.284006 3.639441-0.258169 7.426263 0.134683 11.082408 0.9343927 8.849747 3.8858988 17.500141 8.5843908 25.092697 5.722577 9.244413 14.075482 16.933273 23.851068 21.829043 11.193972 5.65536 24.262518 7.65168 36.678768 5.51629 3.414809-0.57814 6.79794-1.47414 10.089842-2.65114-0.833333-0.59998-1.667-1.19754-2.518309-1.76558-1.960792-1.33869-4.316345-2.66436-5.023707-5.10489-0.465142-3.55582-0.267508-10.73925-0.267508-10.73925l-17.334829-21.987701s-4.006071-4.25898-5.250629-6.9129c-1.762346-3.973622 1.251929-9.074289 5.521829-9.61939 5.633712-0.0808 11.27418-0.07313 16.910499-0.08856 12.185447-0.03633 24.371934 0.02543 36.557004-0.02766 1.21247-0.01637 2.43945 0.03419 3.61419 0.35976 4.23472 1.140469 6.36333 6.757542 4.02192 10.445913-7.26299 8.984459-14.68359 17.840122-22.05413 26.738359 9.5e-4 3.788399-9e-3 7.576299-0.0168 11.364679 0.59687-0.42012 1.20129-0.83074 1.78035-1.27299 11.49006-8.6795 19.58881-21.576745 22.38074-35.69728 1.39836-6.985456 1.53106-14.236371 0.40411-21.229448-1.25362-7.849102-4.15986-15.565401-8.4257-22.255217-6.82901-10.83107-17.191978-19.341759-29.182858-23.86767-4.672079-1.780792-9.56407-2.96179-14.478898-3.49796-2.580985-0.287318-5.125698-0.403298-7.73204-0.367138z" fill="none" stroke="#fff" stroke-width="4.98996"/>
    <path d="m31.29098 25.996245s8.78499 10.174879 13.43198 15.34255c-3.57723 3.052063-6.37105 7.021352-7.97571 11.452627-1.78733 4.934733-2.09037 10.586241-0.77793 15.744372 1.31785 5.275311 4.68193 10.470607 8.76281 14.045715 0 0-0.43901 0.381267-1.07149 1.082133-3.29272 3.770423-6.69406 7.464612-10.02881 11.204173-1.0435 1.097468-1.98412 2.314133-3.08974 3.340275-0.93789 0.555913-1.98622-0.190856-2.48242-0.995641-2.04335-2.343021-4.13822-4.647456-6.13545-7.026531-0.58706-0.989248 0.29738-1.943308 0.84032-2.709017l7.59224-10.939177c-0.67732-1.481077-1.24452-3.013175-1.71183-4.573319-4.83892-1.2028-9.69816-2.344964-14.51846-3.607138-1.03684-0.475992-0.86145-1.75645-0.85133-2.692458 0.0155-3.040031-0.0409-6.087218 0.0367-9.122704 0.2238-1.112986 1.49006-1.261382 2.4017-1.46126 4.30949-1.063528 8.62226-2.113136 12.93324-3.170963 0.4692-1.559692 1.04255-3.087448 1.72099-4.567797-2.83022-4.109086-5.71726-8.185575-8.49494-12.326804-0.46328-1.042229 0.49279-1.902147 1.13389-2.583877 1.99282-2.234386 3.91412-4.544414 5.97949-6.706312 0.95942-0.976556 1.49628-0.603403 2.30474 0.271153z" fill="#fff"/>
</svg>
