<svg width="124" height="124.01" data-name="Layer 3" version="1.1" viewBox="0 0 124 124.01" xmlns="http://www.w3.org/2000/svg">
 <path d="m60.929 2.5014c-4.4505 0.07197-8.9006 0.66066-13.202 1.7324-9.6005 2.3651-18.535 7.1373-25.834 13.807-4.0338 3.6859-7.6478 8.0186-10.533 12.717-4.9085 7.9053-7.9046 17.084-8.6748 26.399-0.28401 3.6394-0.25817 7.4263 0.13468 11.082 0.93439 8.8497 3.8859 17.5 8.5844 25.093 5.7226 9.2444 14.075 16.933 23.851 21.829 11.194 5.6554 24.263 7.6517 36.679 5.5163 3.4148-0.57814 6.7979-1.4741 10.09-2.6511-0.83333-0.59998-1.667-1.1975-2.5183-1.7656-1.9608-1.3387-4.3163-2.6644-5.0237-5.1049-0.46514-3.5558-0.26751-10.739-0.26751-10.739l-17.335-21.988s-4.0061-4.259-5.2506-6.9129c-1.7623-3.9736 1.2519-9.0743 5.5218-9.6194 5.6337-0.0808 11.274-0.07313 16.91-0.08856 12.185-0.03633 24.372 0.02543 36.557-0.02766 1.2125-0.01637 2.4394 0.03419 3.6142 0.35976 4.2347 1.1405 6.3633 6.7575 4.0219 10.446-7.263 8.9845-14.684 17.84-22.054 26.738 9.5e-4 3.7884-9e-3 7.5763-0.0168 11.365 0.59687-0.42012 1.2013-0.83074 1.7804-1.273 11.49-8.6795 19.589-21.577 22.381-35.697 1.3984-6.9855 1.5311-14.236 0.40411-21.229-1.2536-7.8491-4.1599-15.565-8.4257-22.255-6.829-10.831-17.192-19.342-29.183-23.868-4.6721-1.7808-9.5641-2.9618-14.479-3.498-2.581-0.28732-5.1257-0.4033-7.732-0.36714z" fill="none" stroke="#000" stroke-width="4.99"/>
 <path d="m31.291 25.996s8.785 10.175 13.432 15.343c-3.5772 3.0521-6.371 7.0214-7.9757 11.453-1.7873 4.9347-2.0904 10.586-0.77793 15.744 1.3178 5.2753 4.6819 10.471 8.7628 14.046 0 0-0.43901 0.38127-1.0715 1.0821-3.2927 3.7704-6.6941 7.4646-10.029 11.204-1.0435 1.0975-1.9841 2.3141-3.0897 3.3403-0.93789 0.55591-1.9862-0.19086-2.4824-0.99564-2.0434-2.343-4.1382-4.6475-6.1354-7.0265-0.58706-0.98925 0.29738-1.9433 0.84032-2.709l7.5922-10.939c-0.67732-1.4811-1.2445-3.0132-1.7118-4.5733-4.8389-1.2028-9.6982-2.345-14.518-3.6071-1.0368-0.47599-0.86145-1.7564-0.85133-2.6925 0.0155-3.04-0.0409-6.0872 0.0367-9.1227 0.2238-1.113 1.4901-1.2614 2.4017-1.4613 4.3095-1.0635 8.6223-2.1131 12.933-3.171 0.4692-1.5597 1.0426-3.0874 1.721-4.5678-2.8302-4.1091-5.7173-8.1856-8.4949-12.327-0.46328-1.0422 0.49279-1.9021 1.1339-2.5839 1.9928-2.2344 3.9141-4.5444 5.9795-6.7063 0.95942-0.97656 1.4963-0.6034 2.3047 0.27115z"/>
</svg>
