<svg width="45mm" height="45mm" version="1.1" xmlns="http://www.w3.org/2000/svg">
 <style id="current-color-scheme" type="text/css">.ColorScheme-NeutralText {
            color:#f67400;
        }
        .ColorScheme-Text {
            color:#eff0f1;
        }</style>
 <rect class="ColorScheme-NeutralText" width="158.74" height="158.74" rx="14.431" fill="currentColor"/>
 <path class="ColorScheme-Text" d="m14.431 0c-7.9947 0-14.431 6.4362-14.431 14.431v129.88c0 7.9947 6.4362 14.431 14.431 14.431h129.88c7.9947 0 14.431-6.4362 14.431-14.431v-129.88c0-7.9947-6.4362-14.431-14.431-14.431zm0 7.2155h129.88c3.9974 0 7.2155 3.2181 7.2155 7.2155v129.88c0 3.9974-3.2181 7.2155-7.2155 7.2155h-129.88c-3.9974 0-7.2155-3.2181-7.2155-7.2155v-129.88c0-3.9974 3.2181-7.2155 7.2155-7.2155z" fill="currentColor" fill-opacity=".6"/>
 <path d="m79.37 21.646c-15.989 0-28.862 12.872-28.862 28.862v28.862h-14.431v57.724h86.586v-57.724h-14.431v-28.862c0-15.989-12.872-28.862-28.862-28.862m0 7.2155c11.992 0 21.646 11.263 21.646 25.254v25.254h-43.293v-25.254c0-13.991 9.6543-25.254 21.646-25.254" fill="#fff" stroke-width="7.2155"/>
</svg>
