<svg version="1.1" viewBox="0 0 500 176" xmlns="http://www.w3.org/2000/svg"><style id="a" type="text/css">.ColorScheme-Text {
            color:#eff0f1;
        }
        .ColorScheme-NegativeText {
            color:#da4453;
        }</style><g transform="matrix(4 0 0 4 31.5349 47.6019)"><g transform="matrix(2 0 0 2 -2.88372 -6.90372)"><path class="ColorScheme-Text" d="m3 3v6h2v7c0 1.662 1.338 3 3 3h4v-5h-5v2h2v2h-1c-1.108 0-2-0.892-2-2v-7h2v-6zm6 0v1h9v7h1v-8h-1zm-5 1h3v4h-3zm1 1v2h1v-2zm-2 5v6h1v-6z" fill="#eff0f1" opacity=".5"/><path class="ColorScheme-NegativeText" d="m13.8484 13.0033-0.84845 0.848437 2.15156 2.15156-2.15156 2.15156 0.84845 0.848437 2.15156-2.15156 2.15154 2.15156 0.84845-0.848437-2.15156-2.15156 2.15156-2.15156-0.84845-0.848437-2.15154 2.15156z" fill="#f00"/></g><g transform="matrix(.25 0 0 .25 -35.732 -21.9795)"><g transform="translate(6,100)" stroke-width="3.75"><circle cx="137.268" cy="-27.809" r="30" fill="#f7941d" stroke="#eff0f1"/><text x="124.18791" y="-13.549036" font-family="Nunito" font-size="40px" font-weight="bold" style="font-variant-caps:normal;font-variant-east-asian:normal;font-variant-ligatures:normal;font-variant-numeric:normal;line-height:1.25" xml:space="preserve"><tspan x="124.18791" y="-13.549036" fill="#ffffff" font-family="Nunito" font-size="40px" font-weight="bold" stroke-width="3.75" style="font-variant-caps:normal;font-variant-east-asian:normal;font-variant-ligatures:normal;font-variant-numeric:normal">1</tspan></text></g></g><g transform="matrix(.25 0 0 .25 43.268 -21.9795)"><g transform="translate(6,100)" stroke-width="3.75"><circle cx="137.268" cy="-27.809" r="30" fill="#f7941d" stroke="#eff0f1"/><text x="125.02347" y="-13.509036" font-family="Nunito" font-size="40px" font-weight="bold" style="font-variant-caps:normal;font-variant-east-asian:normal;font-variant-ligatures:normal;font-variant-numeric:normal;line-height:1.25" xml:space="preserve"><tspan x="125.02347" y="-13.509036" fill="#ffffff" font-family="Nunito" font-size="40px" font-weight="bold" stroke-width="3.75" style="font-variant-caps:normal;font-variant-east-asian:normal;font-variant-ligatures:normal;font-variant-numeric:normal">2</tspan></text></g></g></g><g transform="matrix(3.82334 0 0 3.92764 689.456 -74.9486)" stroke-width=".999964"><g transform="matrix(2.00293 0 0 2.00293 -229.774 27.8264)"><path d="m86.85 10.9705a1.884 1.884 0 0 0-1.665 1.7865 1.884 1.884 0 0 0 0 0.0847h0.94198a0.94198 0.94198 0 0 1 0.83159-0.93649h0.10856v-0.9346h-0.21711zm0.21892 2e-3v0.94197a0.94198 0.94198 0 0 1 0.93646 0.8316v0.10859h6e-3a0.94198 0.94198 0 0 1-0.83159 0.93645l-0.10859-3e-5v-7e-3a1.884 1.884 0 0 0-0.18766 2e-3 1.884 1.884 0 0 0-0.75432 0.20614v-0.1951h-2e-3v1.884h0.94198v-0.95486h0.2191a1.884 1.884 0 0 0 1.665-1.7865 1.884 1.884 0 0 0 0-0.0847h-0.0128v-0.21718a1.884 1.884 0 0 0-1.7864-1.665 1.884 1.884 0 0 0-0.0846 0zm-0.94015 5.6371v0.94201h0.94199v-0.94201z" fill="#fdbc4b" stroke-width=".499251"/><path class="ColorScheme-Text" d="m80.017 1.2807c-3.8953 0-7.4118 1.5671-9.9536 4.1089l0.66467 0.66466c2.3724-2.3724 5.6533-3.8361 9.289-3.8361 3.6356 0 6.9166 1.4637 9.2889 3.8361l0.66468-0.66466c-2.5418-2.5418-6.0583-4.1089-9.9536-4.1089zm0 3.75c-2.8566 0-5.4346 1.15-7.2986 3.0139l0.66284 0.66281c1.6945-1.6945 4.0389-2.7393 6.6358-2.7393s4.9412 1.0447 6.6358 2.7393l0.66283-0.66281c-1.864-1.864-4.442-3.0139-7.2986-3.0139zm0 3.75c-1.8178 0-3.4592 0.73096-4.6454 1.9171l0.66467 0.66467c1.0167-1.0167 2.4226-1.6443 3.9807-1.6443s2.964 0.62756 3.9807 1.6443l0.66467-0.66467c-1.1862-1.1862-2.8276-1.9171-4.6454-1.9171zm0 3.75c-1.0388 0-1.875 0.83626-1.875 1.875 0 1.0388 0.83626 1.875 1.875 1.875 1.0387 0 1.875-0.83625 1.875-1.875 0-1.0387-0.83625-1.875-1.875-1.875zm0 0.93749c0.51938 0 0.9375 0.41815 0.9375 0.93749 0 0.51938-0.41812 0.93752-0.9375 0.93752s-0.93751-0.41814-0.93751-0.93752c0-0.51934 0.41813-0.93749 0.93751-0.93749z" color="#eff0f1" fill="currentColor" opacity=".5" stroke-width=".499251"/></g></g></svg>
