<svg width="132.487mm" height="37.2373mm" version="1.1" viewBox="0 0 132.487 37.2373" xmlns="http://www.w3.org/2000/svg"><defs><linearGradient id="a" x1="229.141" x2="229.141" y1="113.979" y2="297.169" gradientTransform="matrix(.256301 0 0 .133301 -15.9933 -6.52922)" gradientUnits="userSpaceOnUse"><stop stop-color="#2a2e32" offset="0"/><stop stop-color="#2a2e32" offset="1"/></linearGradient></defs><path class="ColorScheme-Text" d="m39.5204 12.5237v1.61668h-2.43438v11.3167h11.3604v-11.3167h-2.43438v-1.61668zm-1.62292 2.42501h0.811458v1.61668h8.11461v-1.61668h0.811457v9.70005h-9.73752zm1.62292 2.42502v0.808338h6.49168v-0.808338zm0 2.42501v0.808339h4.86877v-0.808339zm0 2.42502v0.808337h2.43438v-0.808337z" color="#eff0f1" fill="currentColor" stroke-width=".263688"/><rect x=".494415" y=".494415" width="131.303" height="36.0528" ry="1.28069" fill="url(#a)" stroke="#888" stroke-width=".98883"/><g class="ColorScheme-Text" transform="matrix(1.05679 0 0 1.05272 34.7542 10.4717)" color="#eff0f1" fill="currentColor"><path d="m8 2-4 4v4l4 4h1v-12z"/><path d="m2 6v4h1v-4z"/><path d="M 10.128906,4.615234 9.7988281,5.603516 A 3,3 0 0 1 11,8 3,3 0 0 1 9.7988281,10.396484 l 0.3281249,0.984375 A 4,4 0 0 0 12,8 4,4 0 0 0 10.128906,4.615234 Z"/><path d="m9.94531 2.33203-0.167969 1a5 5 0 0 1 3.22266 4.66797 5 5 0 0 1-3.2207 4.67188l0.166016 0.998047a6 6 0 0 0 4.05469-5.66992 6 6 0 0 0-4.05469-5.66797z"/></g><path class="ColorScheme-Text" d="m64.2151 12.3972v5.63626l-3.69746-3.68323-0.79389 0.790835 3.98255 3.96722-3.98255 3.96722 0.79389 0.790828 3.69746-3.68323v5.63626h1.12284l3.3685-3.35554-3.3685-3.35554 3.3685-3.35554-3.3685-3.35554zm1.12284 1.58165 1.78076 1.77389-1.78076 1.7739zm0 6.71108 1.78076 1.7739-1.78076 1.7739z" color="#eff0f1" fill="currentColor" stroke-width=".263688"/><g transform="matrix(.264196 0 0 .26318 78.2989 .0982502)"><path d="m129.055 43.763-0.16265 56.9606-42.8924-30.7915z" fill="#eff0f1"/><g transform="translate(6,100)" stroke-width="3.75"><circle cx="137.268" cy="-27.809" r="30" fill="#f7941d" stroke="#eff0f1"/><text x="125.02356" y="-13.509" fill="#eff0f1" font-family="Nunito" font-size="40px" font-weight="bold" style="font-variant-caps:normal;font-variant-east-asian:normal;font-variant-ligatures:normal;font-variant-numeric:normal;line-height:1.25" xml:space="preserve"><tspan x="125.02356" y="-13.509" fill="#eff0f1" font-family="Nunito" font-size="40px" font-weight="bold" stroke-width="3.75" style="font-variant-caps:normal;font-variant-east-asian:normal;font-variant-ligatures:normal;font-variant-numeric:normal">2</tspan></text></g></g><g transform="matrix(.849368 0 0 .846099 19.0201 11.2585)"><path d="m86.85 11.479a1.884 1.884 0 0 0-1.665 1.7865 1.884 1.884 0 0 0 0 0.0847h0.94198a0.94198 0.94198 0 0 1 0.83159-0.93649h0.10856v-0.9346h-0.21711zm0.21892 2e-3v0.94197a0.94198 0.94198 0 0 1 0.93646 0.8316v0.10859h6e-3a0.94198 0.94198 0 0 1-0.83159 0.93645l-0.10859-3e-5v-7e-3a1.884 1.884 0 0 0-0.18766 2e-3 1.884 1.884 0 0 0-0.75432 0.20614v-0.1951h-2e-3v1.884h0.94198v-0.95486h0.2191a1.884 1.884 0 0 0 1.665-1.7865 1.884 1.884 0 0 0 0-0.0847h-0.0128v-0.21718a1.884 1.884 0 0 0-1.7864-1.665 1.884 1.884 0 0 0-0.0846 0zm-0.94015 5.6371v0.94201h0.94199v-0.94201z" fill="#fdbc4b"/><path class="ColorScheme-Text" d="m80.017 1.2807c-3.8953 0-7.4118 1.5671-9.9536 4.1089l0.66467 0.66466c2.3724-2.3724 5.6533-3.8361 9.289-3.8361 3.6356 0 6.9166 1.4637 9.2889 3.8361l0.66468-0.66466c-2.5418-2.5418-6.0583-4.1089-9.9536-4.1089zm0 3.75c-2.8566 0-5.4346 1.15-7.2986 3.0139l0.66284 0.66281c1.6945-1.6945 4.0389-2.7393 6.6358-2.7393s4.9412 1.0447 6.6358 2.7393l0.66283-0.66281c-1.864-1.864-4.442-3.0139-7.2986-3.0139zm0 3.75c-1.8178 0-3.4592 0.73096-4.6454 1.9171l0.66467 0.66467c1.0167-1.0167 2.4226-1.6443 3.9807-1.6443s2.964 0.62756 3.9807 1.6443l0.66467-0.66467c-1.1862-1.1862-2.8276-1.9171-4.6454-1.9171zm0 3.75c-1.0388 0-1.875 0.83626-1.875 1.875 0 1.0388 0.83626 1.875 1.875 1.875 1.0387 0 1.875-0.83625 1.875-1.875 0-1.0387-0.83625-1.875-1.875-1.875zm0 0.93749c0.51938 0 0.9375 0.41815 0.9375 0.93749 0 0.51938-0.41812 0.93752-0.9375 0.93752s-0.93751-0.41814-0.93751-0.93752c0-0.51934 0.41813-0.93749 0.93751-0.93749z" color="#eff0f1" fill="currentColor" opacity=".5"/></g><path class="ColorScheme-Text" d="m14.2835 11.9653v1.80466h-2.71745v12.6326h12.6814v-12.6326h-2.71745v-1.80466zm-1.81163 2.70699h0.905807v1.80466h9.05816v-1.80466h0.905835v10.828h-10.8698zm1.81163 2.70699v0.902321h7.24653v-0.902321zm0 2.70699v0.902322h5.4349v-0.902322zm0 2.70699v0.902321h2.71745v-0.902321z" color="#eff0f1" fill="currentColor" stroke-width=".964344"/></svg>
