<?xml version="1.0" encoding="UTF-8" standalone="no"?>
<svg
   version="1.1"
   viewBox="0 0 499.95801 350.07501"
   id="svg270"
   sodipodi:docname="rollback-restore.svg"
   width="499.95801"
   height="350.07501"
   inkscape:version="1.2.2 (b0a8486541, 2022-12-01)"
   xmlns:inkscape="http://www.inkscape.org/namespaces/inkscape"
   xmlns:sodipodi="http://sodipodi.sourceforge.net/DTD/sodipodi-0.dtd"
   xmlns:xlink="http://www.w3.org/1999/xlink"
   xmlns="http://www.w3.org/2000/svg"
   xmlns:svg="http://www.w3.org/2000/svg">
  <sodipodi:namedview
     id="namedview272"
     pagecolor="#ffffff"
     bordercolor="#000000"
     borderopacity="0.25"
     inkscape:showpageshadow="2"
     inkscape:pageopacity="0.0"
     inkscape:pagecheckerboard="0"
     inkscape:deskcolor="#d1d1d1"
     showgrid="false"
     inkscape:zoom="1.0688141"
     inkscape:cx="459.85545"
     inkscape:cy="290.97669"
     inkscape:window-width="1920"
     inkscape:window-height="997"
     inkscape:window-x="0"
     inkscape:window-y="0"
     inkscape:window-maximized="1"
     inkscape:current-layer="svg270" />
  <defs
     id="defs42">
    <linearGradient
       id="linearGradient42076"
       x1="116.84924"
       x2="75.976242"
       y1="164.85487"
       y2="120.04626"
       gradientTransform="matrix(0.5122,0,0,0.5122,24.953,0.20732)"
       gradientUnits="userSpaceOnUse">
      <stop
         stop-color="#e2e2e2"
         offset="0"
         id="stop2" />
      <stop
         stop-color="#fefefe"
         offset="1"
         id="stop4" />
    </linearGradient>
    <linearGradient
       id="linearGradient11473"
       x1="436.21014"
       x2="436.21014"
       y1="362.60602"
       y2="344.49173"
       gradientTransform="translate(0,-54)"
       gradientUnits="userSpaceOnUse">
      <stop
         stop-color="#324c5b"
         offset="0"
         id="stop7" />
      <stop
         stop-color="#415a67"
         offset="1"
         id="stop9" />
    </linearGradient>
    <linearGradient
       id="linearGradient14580"
       x1="436.21014"
       x2="436.21014"
       y1="362.60602"
       y2="344.49173"
       gradientTransform="matrix(1.453583,0,0,0.98888825,-203.63682,-100.99671)"
       gradientUnits="userSpaceOnUse">
      <stop
         stop-color="#303539"
         offset="0"
         id="stop12" />
      <stop
         stop-color="#373c41"
         offset="1"
         id="stop14" />
    </linearGradient>
    <linearGradient
       id="linearGradient4416"
       x2="0"
       y1="43.999989"
       y2="6.999989"
       gradientTransform="matrix(-1.4054053,0,0,1.4054053,804.69502,154.09579)"
       gradientUnits="userSpaceOnUse">
      <stop
         stop-color="#8e44ad"
         offset="0"
         id="stop17" />
      <stop
         stop-color="#9b59b6"
         offset="1"
         id="stop19" />
    </linearGradient>
    <linearGradient
       id="linearGradient4191"
       x1="9.0000095"
       x2="23.00004"
       y1="9"
       y2="23"
       gradientTransform="matrix(2,0,0,2,-0.99999,-5)"
       gradientUnits="userSpaceOnUse">
      <stop
         stop-color="#292c2f"
         offset="0"
         id="stop22" />
      <stop
         stop-opacity="0"
         offset="1"
         id="stop24" />
    </linearGradient>
    <linearGradient
       id="linearGradient4244"
       x2="0"
       y1="38"
       y2="12.999999"
       gradientUnits="userSpaceOnUse">
      <stop
         stop-color="#b985ce"
         offset="0"
         id="stop27" />
      <stop
         stop-color="#e2cdeb"
         offset="1"
         id="stop29" />
    </linearGradient>
    <linearGradient
       id="linearGradient34609"
       x1="97.298294"
       x2="97.383865"
       y1="25.402227"
       y2="58.856739"
       gradientTransform="matrix(1.0009138,0,0,0.993028,-49.568471,-18.272369)"
       gradientUnits="userSpaceOnUse">
      <stop
         stop-color="#31363b"
         offset="0"
         id="stop32" />
      <stop
         stop-color="#31363b"
         offset="1"
         id="stop34" />
    </linearGradient>
    <linearGradient
       id="linearGradient40329"
       x1="229.14143"
       x2="229.14143"
       y1="113.97903"
       y2="297.1691"
       gradientTransform="matrix(0.96867833,0,0,1.0029345,-60.441445,-50.97145)"
       gradientUnits="userSpaceOnUse">
      <stop
         stop-color="#2a2e32"
         offset="0"
         id="stop37" />
      <stop
         stop-color="#2a2e32"
         offset="1"
         id="stop39" />
    </linearGradient>
    <linearGradient
       inkscape:collect="always"
       xlink:href="#linearGradient11473"
       id="linearGradient776"
       gradientUnits="userSpaceOnUse"
       gradientTransform="matrix(4.4611193,0,0,0.94672307,-1690.6,-155.18278)"
       x1="436.21014"
       y1="362.60602"
       x2="436.21014"
       y2="344.49173" />
    <linearGradient
       inkscape:collect="always"
       xlink:href="#linearGradient14580"
       id="linearGradient918"
       gradientUnits="userSpaceOnUse"
       gradientTransform="matrix(1.4476495,0,0,0.98896637,-505.38628,-122.2834)"
       x1="436.21014"
       y1="362.60602"
       x2="436.21014"
       y2="344.49173" />
    <linearGradient
       inkscape:collect="always"
       xlink:href="#linearGradient11473"
       id="linearGradient2267"
       gradientUnits="userSpaceOnUse"
       gradientTransform="translate(0,-54)"
       x1="436.21014"
       y1="362.60602"
       x2="436.21014"
       y2="344.49173" />
    <linearGradient
       inkscape:collect="always"
       xlink:href="#linearGradient14580"
       id="linearGradient2269"
       gradientUnits="userSpaceOnUse"
       gradientTransform="matrix(1.453583,0,0,0.98888825,-203.63682,-24.99671)"
       x1="436.21014"
       y1="362.60602"
       x2="436.21014"
       y2="344.49173" />
  </defs>
  <rect
     x="1.8730448"
     y="1.8730447"
     width="496.21161"
     height="346.32852"
     ry="9.6356945"
     fill="url(#linearGradient40329)"
     stroke="#888888"
     stroke-width="3.74609"
     id="rect44"
     style="fill:url(#linearGradient40329)" />
  <path
     d="M 10.902372,3.704654 H 487.59599 c 4.43345,0 8.63602,3.039549 8.63602,7.225512 V 43.315781 L 3.776652,43.387618 V 11.21365 c 0,-4.34025 2.98085,-7.508996 7.125723,-7.508996 z"
     fill="url(#linearGradient34609)"
     stroke-width="0.797571"
     id="path46"
     style="fill:url(#linearGradient34609)" />
  <path
     class="ColorScheme-Text"
     d="m 63.867708,12.467783 -8.15819,8.158182 -2.37801,-2.378016 -1.12243,1.122423 4.19641,4.194822 -5.78175,5.78016 1.12242,1.12243 5.78017,-5.781752 4.19482,4.196407 1.12242,-1.122424 -2.37801,-2.378017 8.15818,-8.158182 z"
     color="#eff0f1"
     fill="#eff0f1"
     stroke-width="1.58534"
     id="path48" />
  <g
     transform="matrix(0.23624006,0,0,0.23428552,9.667395,7.314597)"
     id="g58">
    <path
       d="M 62.861861,1.0068349 C 58.150372,1.0830199 53.437996,1.7061947 48.884109,2.8407698 38.720462,5.344621 29.262186,10.395661 21.534583,17.45689 c -4.270419,3.902055 -8.09534,8.488256 -11.149388,13.462261 -5.196398,8.369014 -8.368132,18.088214 -9.18349,27.949012 -0.300664,3.852906 -0.274352,7.861353 0.141538,11.731945 0.9892,9.368818 4.114854,18.527041 9.088931,26.56493 6.058228,9.786642 14.901424,17.925512 25.250386,23.108432 11.85054,5.98707 25.683982,8.09996 38.828492,5.83933 9.888834,-1.67423 19.553458,-5.80824 27.557308,-11.92113 12.16392,-9.18858 20.73707,-22.842889 23.69275,-37.791647 1.4803,-7.395176 1.62176,-15.07103 0.42871,-22.474276 C 124.86264,45.616265 121.7857,37.447176 117.26966,30.364978 110.04008,18.898622 99.06994,9.8885308 86.37575,5.0971578 81.429635,3.2119158 76.249574,1.9618792 71.046473,1.3942603 68.314103,1.0900889 65.621075,0.96855342 62.861861,1.0068349 Z M 59.422408,12.135741 c 1.201636,0.01155 1.609215,1.300271 2.010944,2.205431 2.009813,4.267845 4.001733,8.544737 6.004681,12.816053 1.718265,0.160806 3.424693,0.441542 5.103516,0.841797 3.685326,-3.822137 7.327827,-7.693437 11.05664,-11.46875 0.995666,-0.707864 2.080381,0.144574 2.939451,0.652344 2.78719,1.649479 5.64734,3.195082 8.3754,4.928133 0.89416,0.881186 0.20376,2.134552 -0.0507,3.134926 -1.30616,4.467912 -2.61232,8.935825 -3.91849,13.403738 1.18687,1.255404 2.28516,2.594435 3.2793,4.007812 5.28241,-0.430172 10.56679,-0.925521 15.84961,-1.294922 1.12246,0.08648 1.49153,1.276986 1.72429,2.191217 1.01118,3.09512 2.12614,6.158068 3.0511,9.277533 0.12654,1.157772 -1.10267,1.838871 -2.11363,1.865632 -6.87029,1.454479 -13.74089,2.907473 -20.61098,4.362884 -1.20376,-6.601383 -4.71648,-12.781057 -9.929976,-17.033149 -5.78611,-4.789934 -13.494415,-7.191365 -20.94466,-6.400031 -2.372494,0.222653 -4.696893,0.799833 -6.955442,1.546461 -2.280894,-7.055702 -4.61877,-14.093538 -6.84371,-21.164062 -0.167109,-1.13318 1.009585,-1.909376 2.027702,-1.912406 3.314011,-0.653641 6.621352,-1.379568 9.944954,-1.960641 z M 29.963424,25.293944 c 1.238392,0.196256 1.759401,1.500212 2.617421,2.256651 4.365303,4.86041 8.734862,9.716996 13.111094,14.567568 -3.808004,3.239056 -6.782058,7.451522 -8.490234,12.154297 -1.902645,5.237065 -2.225229,11.234827 -0.828125,16.708984 1.402881,5.598512 4.983271,11.11136 9.327426,14.905506 0,0 -0.46664,0.403422 -1.139926,1.147233 -3.50514,4.001432 -7.125593,7.923404 -10.675484,11.892086 -1.110815,1.164711 -2.112416,2.454451 -3.28936,3.543461 -0.998395,0.58998 -2.115645,-0.20088 -2.643868,-1.05497 -2.175166,-2.486578 -4.403871,-4.933866 -6.52996,-7.458703 -0.624936,-1.049859 0.316551,-2.06237 0.894531,-2.875 L 30.39897,79.471683 c -0.721022,-1.57182 -1.324815,-3.195836 -1.822265,-4.851567 -5.151098,-1.276489 -10.323813,-2.488632 -15.455078,-3.828125 -1.10373,-0.505163 -0.917023,-1.864075 -0.90625,-2.857422 0.01647,-3.226288 -0.04348,-6.460166 0.03906,-9.68164 0.238236,-1.181172 1.585467,-1.33965 2.555929,-1.551779 4.587503,-1.128687 9.179184,-2.2416 13.76829,-3.364237 0.499476,-1.655251 1.109816,-3.276614 1.832031,-4.847656 -3.012817,-4.360843 -6.086106,-8.687075 -9.042969,-13.082032 -0.493175,-1.106084 0.524213,-2.01956 1.206673,-2.743061 2.12138,-2.371279 4.166992,-4.821957 6.365593,-7.116314 0.300611,-0.194228 0.667006,-0.29176 1.023438,-0.253906 z M 92.56304,69.057616 c 7.1269,1.546208 14.27699,2.997536 21.39257,4.587891 0.48892,0.104414 0.4802,0.860381 1.0449,0.71919 0.31255,0.240392 -0.29753,1.084326 -0.34879,1.563031 -1.12737,3.328666 -2.20465,6.681085 -3.39533,9.983404 -0.59691,1.033269 -1.91386,0.770194 -2.89307,0.657333 -4.71554,-0.393023 -9.43062,-0.801404 -14.14599,-1.200302 -0.99563,1.412996 -2.09082,2.756078 -3.28516,4.005859 1.4668,5.106559 3.0285,10.193288 4.41407,15.318358 0.0856,1.24375 -1.23551,1.74134 -2.11914,2.25195 -2.80499,1.5783 -5.55754,3.27713 -8.407052,4.75865 -1.209141,0.33972 -1.956298,-0.89378 -2.69229,-1.61201 -3.224049,-3.36333 -6.448098,-6.72666 -9.672147,-10.09 -1.680708,0.40073 -3.389185,0.68103 -5.109375,0.8418 -2.26437,4.78503 -4.477717,9.60068 -6.796875,14.35547 -0.714708,0.9924 -2.0289,0.56569 -3.009765,0.34375 -3.125998,-0.67606 -6.301566,-1.18737 -9.391664,-1.98714 -1.005544,-0.51139 -0.948142,-1.86374 -0.481926,-2.73037 2.174559,-6.67492 4.349929,-13.349584 6.52398,-20.024677 6.116074,2.201878 13.045174,2.314517 19.138672,0.136719 7.386438,-2.564613 13.652482,-8.251229 16.742802,-15.454158 0.92204,-2.088442 1.56274,-4.292166 2.00134,-6.530217 0.16341,0.03516 0.32682,0.07031 0.49024,0.105469 z"
       fill="#0079c1"
       stroke="#80cfff"
       id="path50" />
  </g>
  <text
     x="175.34424"
     y="29.092794"
     xml:space="preserve"
     id="text62"
     style="fill:#eff0f1"><tspan
       x="175.34424"
       y="29.092794"
       fill="#eff0f1"
       font-family="'Noto Sans'"
       font-size="21.3333px"
       style="font-variant-ligatures:normal;font-variant-caps:normal;font-variant-numeric:normal;font-variant-east-asian:normal"
       id="tspan60">System Rollback</tspan></text>
  <text
     x="104.58172"
     y="123.51686"
     xml:space="preserve"
     id="text62-7"
     style="fill:#eff0f1"><tspan
       x="104.58172"
       y="123.51686"
       fill="#eff0f1"
       font-family="'Noto Sans'"
       font-size="21.3333px"
       style="font-variant-ligatures:normal;font-variant-caps:normal;font-variant-numeric:normal;font-variant-east-asian:normal"
       id="tspan60-9">Select the snapshot to restore.</tspan></text>
  <path
     class="ColorScheme-Text"
     d="m 441.81838,27.844351 -9,-9 1.0605,-1.0605 7.9395,7.9395 7.9395,-7.9395 1.0605,1.0605 z"
     color="#eff0f1"
     stroke-width="1.5"
     id="path64"
     style="fill:#eff0f1" />
  <path
     class="ColorScheme-NegativeText"
     d="m 468.9684,16.280167 5.73242,5.732422 -5.72852,5.728516 1.30664,1.103515 5.62696,-5.626953 5.72851,5.728516 1.10352,-1.306641 -5.62695,-5.626953 5.72851,-5.728516 -1.30664,-1.103515 -5.62695,5.626953 -5.73242,-5.732422 z"
     color="#da4453"
     id="path66"
     style="fill:#eff0f1" />
  <g
     aria-label="Restore (1 of 3)"
     id="text62-3"
     style="font-size:32px;fill:#f7941d">
    <path
       d="m 145.48986,64.041893 q 4.256,0 6.272,1.632 2.048,1.6 2.048,4.864 0,1.824 -0.672,3.04 -0.672,1.216 -1.728,1.952 -1.024,0.704 -2.176,1.12 l 6.272,10.24 h -3.36 l -5.536,-9.44 h -4.544 v 9.44 h -2.88 v -22.848 z m -0.16,2.496 h -3.264 v 8.48 h 3.424 q 2.784,0 4.064,-1.088 1.28,-1.12 1.28,-3.264 0,-2.24 -1.344,-3.168 -1.344,-0.96 -4.16,-0.96 z"
       style="font-family:'Noto Sans'"
       id="path3248" />
    <path
       d="m 165.32986,69.417893 q 2.208,0 3.776,0.96 1.6,0.96 2.432,2.72 0.864,1.728 0.864,4.064 v 1.696 h -11.744 q 0.064,2.912 1.472,4.448 1.44,1.504 4,1.504 1.632,0 2.88,-0.288 1.28,-0.32 2.624,-0.896 v 2.464 q -1.312,0.576 -2.592,0.832 -1.28,0.288 -3.04,0.288 -2.432,0 -4.32,-0.992 -1.856,-0.992 -2.912,-2.944 -1.024,-1.984 -1.024,-4.832 0,-2.816 0.928,-4.832 0.96,-2.016 2.656,-3.104 1.728,-1.088 4,-1.088 z m -0.032,2.304 q -2.016,0 -3.2,1.312 -1.152,1.28 -1.376,3.584 h 8.736 q -0.032,-2.176 -1.024,-3.52 -0.992,-1.376 -3.136,-1.376 z"
       style="font-family:'Noto Sans'"
       id="path3250" />
    <path
       d="m 187.92183,82.153893 q 0,2.496 -1.856,3.776 -1.856,1.28 -4.992,1.28 -1.792,0 -3.104,-0.288 -1.28,-0.288 -2.272,-0.8 v -2.56 q 1.024,0.512 2.464,0.96 1.472,0.416 2.976,0.416 2.144,0 3.104,-0.672 0.96,-0.704 0.96,-1.856 0,-0.64 -0.352,-1.152 -0.352,-0.512 -1.28,-1.024 -0.896,-0.512 -2.592,-1.152 -1.664,-0.64 -2.848,-1.28 -1.184,-0.64 -1.824,-1.536 -0.64,-0.896 -0.64,-2.304 0,-2.176 1.76,-3.36 1.792,-1.184 4.672,-1.184 1.568,0 2.912,0.32 1.376,0.288 2.56,0.832 l -0.96,2.24 q -1.088,-0.448 -2.272,-0.768 -1.184,-0.32 -2.432,-0.32 -1.728,0 -2.656,0.576 -0.896,0.544 -0.896,1.504 0,0.704 0.416,1.216 0.416,0.48 1.376,0.96 0.992,0.448 2.624,1.088 1.632,0.608 2.784,1.248 1.152,0.64 1.76,1.568 0.608,0.896 0.608,2.272 z"
       style="font-family:'Noto Sans'"
       id="path3252" />
    <path
       d="m 197.80983,84.905893 q 0.64,0 1.312,-0.096 0.672,-0.128 1.088,-0.256 v 2.144 q -0.448,0.224 -1.28,0.352 -0.832,0.16 -1.6,0.16 -1.344,0 -2.496,-0.448 -1.12,-0.48 -1.824,-1.632 -0.704,-1.152 -0.704,-3.232 v -9.984 h -2.432 v -1.344 l 2.464,-1.12 1.12,-3.648 h 1.664 v 3.936 h 4.96 v 2.176 h -4.96 v 9.92 q 0,1.568 0.736,2.336 0.768,0.736 1.952,0.736 z"
       style="font-family:'Noto Sans'"
       id="path3254" />
    <path
       d="m 218.54583,78.281893 q 0,4.256 -2.176,6.592 -2.144,2.336 -5.824,2.336 -2.272,0 -4.064,-1.024 -1.76,-1.056 -2.784,-3.04 -1.024,-2.016 -1.024,-4.864 0,-4.256 2.144,-6.56 2.144,-2.304 5.824,-2.304 2.336,0 4.096,1.056 1.792,1.024 2.784,3.008 1.024,1.952 1.024,4.8 z m -12.96,0 q 0,3.04 1.184,4.832 1.216,1.76 3.84,1.76 2.592,0 3.808,-1.76 1.216,-1.792 1.216,-4.832 0,-3.04 -1.216,-4.768 -1.216,-1.728 -3.84,-1.728 -2.624,0 -3.808,1.728 -1.184,1.728 -1.184,4.768 z"
       style="font-family:'Noto Sans'"
       id="path3256" />
    <path
       d="m 230.99382,69.417893 q 0.48,0 1.024,0.064 0.576,0.032 0.992,0.128 l -0.352,2.592 q -0.416,-0.096 -0.928,-0.16 -0.48,-0.064 -0.928,-0.064 -1.312,0 -2.464,0.736 -1.152,0.704 -1.856,2.016 -0.672,1.28 -0.672,3.008 v 9.152 h -2.816 v -17.152 h 2.304 l 0.32,3.136 h 0.128 q 0.832,-1.408 2.144,-2.432 1.312,-1.024 3.104,-1.024 z"
       style="font-family:'Noto Sans'"
       id="path3258" />
    <path
       d="m 242.19381,69.417893 q 2.208,0 3.776,0.96 1.6,0.96 2.432,2.72 0.864,1.728 0.864,4.064 v 1.696 h -11.744 q 0.064,2.912 1.472,4.448 1.44,1.504 4,1.504 1.632,0 2.88,-0.288 1.28,-0.32 2.624,-0.896 v 2.464 q -1.312,0.576 -2.592,0.832 -1.28,0.288 -3.04,0.288 -2.432,0 -4.32,-0.992 -1.856,-0.992 -2.912,-2.944 -1.024,-1.984 -1.024,-4.832 0,-2.816 0.928,-4.832 0.96,-2.016 2.656,-3.104 1.728,-1.088 4,-1.088 z m -0.032,2.304 q -2.016,0 -3.2,1.312 -1.152,1.28 -1.376,3.584 h 8.736 q -0.032,-2.176 -1.024,-3.52 -0.992,-1.376 -3.136,-1.376 z"
       style="font-family:'Noto Sans'"
       id="path3260" />
    <path
       d="m 260.49779,78.121893 q 0,-3.904 1.12,-7.52 1.152,-3.648 3.584,-6.56 h 2.656 q -2.24,3.008 -3.392,6.624 -1.12,3.616 -1.12,7.424 0,3.712 1.12,7.296 1.152,3.552 3.36,6.56 h -2.624 q -2.432,-2.816 -3.584,-6.368 -1.12,-3.584 -1.12,-7.456 z"
       style="font-family:'Noto Sans'"
       id="path3262" />
    <path
       d="m 280.17776,86.889893 h -2.752 v -15.968 q 0,-1.376 0.032,-2.208 0.032,-0.832 0.096,-1.728 -0.512,0.512 -0.928,0.864 -0.416,0.352 -1.056,0.896 l -2.432,1.984 -1.472,-1.888 6.176,-4.8 h 2.336 z"
       style="font-family:'Noto Sans'"
       id="path3264" />
    <path
       d="m 313.07379,78.281893 q 0,4.256 -2.176,6.592 -2.144,2.336 -5.824,2.336 -2.272,0 -4.064,-1.024 -1.76,-1.056 -2.784,-3.04 -1.024,-2.016 -1.024,-4.864 0,-4.256 2.144,-6.56 2.144,-2.304 5.824,-2.304 2.336,0 4.096,1.056 1.792,1.024 2.784,3.008 1.024,1.952 1.024,4.8 z m -12.96,0 q 0,3.04 1.184,4.832 1.216,1.76 3.84,1.76 2.592,0 3.808,-1.76 1.216,-1.792 1.216,-4.832 0,-3.04 -1.216,-4.768 -1.216,-1.728 -3.84,-1.728 -2.624,0 -3.808,1.728 -1.184,1.728 -1.184,4.768 z"
       style="font-family:'Noto Sans'"
       id="path3266" />
    <path
       d="m 325.42577,71.913893 h -4.32 v 14.976 h -2.816 v -14.976 h -3.008 v -1.312 l 3.008,-0.96 v -0.992 q 0,-3.328 1.472,-4.768 1.472,-1.472 4.096,-1.472 1.024,0 1.856,0.192 0.864,0.16 1.472,0.384 l -0.736,2.208 q -0.512,-0.16 -1.184,-0.32 -0.672,-0.16 -1.376,-0.16 -1.408,0 -2.112,0.96 -0.672,0.928 -0.672,2.944 v 1.12 h 4.32 z"
       style="font-family:'Noto Sans'"
       id="path3268" />
    <path
       d="m 349.90578,69.385893 q 0,2.304 -1.28,3.68 -1.28,1.344 -3.456,1.792 v 0.128 q 2.752,0.32 4.096,1.728 1.344,1.408 1.344,3.68 0,1.984 -0.928,3.552 -0.928,1.536 -2.88,2.4 -1.92,0.864 -4.96,0.864 -1.792,0 -3.328,-0.288 -1.536,-0.256 -2.944,-0.96 v -2.624 q 1.44,0.704 3.104,1.12 1.664,0.384 3.2,0.384 3.072,0 4.416,-1.184 1.376,-1.216 1.376,-3.328 0,-2.144 -1.696,-3.072 -1.664,-0.96 -4.704,-0.96 h -2.208 v -2.4 h 2.24 q 2.816,0 4.256,-1.184 1.472,-1.184 1.472,-3.136 0,-1.664 -1.12,-2.56 -1.12,-0.928 -3.04,-0.928 -1.856,0 -3.168,0.544 -1.312,0.544 -2.592,1.376 l -1.408,-1.92 q 1.216,-0.96 3.008,-1.664 1.824,-0.704 4.128,-0.704 3.584,0 5.312,1.6 1.76,1.6 1.76,4.064 z"
       style="font-family:'Noto Sans'"
       id="path3270" />
    <path
       d="m 360.75379,78.121893 q 0,3.872 -1.152,7.456 -1.12,3.552 -3.552,6.368 h -2.624 q 2.208,-3.008 3.328,-6.56 1.152,-3.584 1.152,-7.296 0,-3.808 -1.152,-7.424 -1.12,-3.616 -3.36,-6.624 h 2.656 q 2.432,2.912 3.552,6.56 1.152,3.616 1.152,7.52 z"
       style="font-family:'Noto Sans'"
       id="path3272" />
  </g>
  <path
     d="M 3.682652,43.302233 496.257,43.301999 v 3.75 L 3.682652,47.052233 Z"
     fill="#525659"
     stroke-width="1.54558"
     id="path70" />
  <g
     transform="translate(-118.01113,25.19377)"
     id="g80">
    <rect
       x="393.66147"
       y="266.45773"
       width="81.152176"
       height="44.756485"
       ry="4.2572007"
       fill="url(#linearGradient11473)"
       stroke="#5687a3"
       stroke-width="2.5"
       id="rect72"
       style="fill:url(#linearGradient2267)" />
    <text
       x="427.65329"
       y="296.58926"
       fill="#eff0f1"
       font-family="'Noto Sans'"
       font-size="21.3333px"
       style="font-variant-ligatures:normal;font-variant-caps:normal;font-variant-numeric:normal;font-variant-east-asian:normal"
       xml:space="preserve"
       id="text76"><tspan
         x="427.65329"
         y="296.58926"
         id="tspan74">OK</tspan></text>
    <path
       class="ColorScheme-Text"
       d="m 418.96875,283.58008 c -2.49023,2.46484 -4.98047,4.92969 -7.4707,7.39453 -0.96798,-0.95911 -1.93694,-1.91723 -2.9043,-2.87695 -0.23967,0.39535 -1.15981,0.69471 -0.76172,1.26953 1.23481,1.18979 2.45109,2.3991 3.66602,3.60937 2.88292,-2.85405 5.76592,-5.70805 8.65039,-8.56054 -0.41614,-0.23626 -0.61676,-0.97945 -1.17969,-0.83594 z"
       color="#eff0f1"
       fill="currentColor"
       id="path78" />
  </g>
  <rect
     x="65.570763"
     y="148.20195"
     width="362.02954"
     height="42.372002"
     ry="4.0303903"
     fill="url(#linearGradient11473)"
     stroke="#5687a3"
     stroke-width="5.13776"
     id="rect72-5"
     style="fill:url(#linearGradient776)" />
  <text
     x="83.21637"
     y="177.0146"
     fill="#eff0f1"
     font-family="'Noto Sans'"
     font-size="21.3333px"
     style="font-variant-ligatures:normal;font-variant-caps:normal;font-variant-numeric:normal;font-variant-east-asian:normal"
     xml:space="preserve"
     id="text76-6"><tspan
       x="83.21637"
       y="177.0146"
       id="tspan74-2">Created by user — Mon</tspan></text>
  <rect
     x="368.58279"
     y="291.90015"
     width="117.96143"
     height="44.259159"
     ry="4.2098956"
     fill="url(#linearGradient14580)"
     stroke="#666a6d"
     id="rect82"
     style="fill:url(#linearGradient2269);stroke-width:2.99732" />
  <text
     x="404.32599"
     y="321.78302"
     fill="#eff0f1"
     font-family="'Noto Sans'"
     font-size="21.3333px"
     style="font-variant-ligatures:normal;font-variant-caps:normal;font-variant-numeric:normal;font-variant-east-asian:normal;stroke-width:2.5"
     xml:space="preserve"
     id="text86"><tspan
       x="404.32599"
       y="321.78302"
       stroke-width="2.5"
       id="tspan84">Cancel</tspan></text>
  <path
     class="ColorScheme-Text"
     d="m 390.71369,307.35589 c -3.0323,0.0891 -5.69129,2.74939 -5.78125,5.78125 -0.21228,2.98719 2.09712,5.87821 5.06211,6.32036 2.98112,0.57894 6.17084,-1.44436 6.90786,-4.39485 0.88651,-2.94262 -0.87245,-6.35994 -3.78899,-7.34061 -0.76239,-0.29026 -1.58581,-0.40515 -2.39973,-0.36615 z m 0.30859,1.19141 c 2.65513,-0.0643 5.02872,2.34983 4.89728,5.00612 -0.0182,1.04042 -0.41308,2.0596 -1.0633,2.86692 -2.26823,-2.26823 -4.53645,-4.53646 -6.80468,-6.80468 0.83442,-0.6738 1.89465,-1.06838 2.9707,-1.06836 z m 2.97461,8.73242 c -1.9383,1.65622 -5.12231,1.30746 -6.70946,-0.66799 -1.4875,-1.68255 -1.55222,-4.41606 -0.0952,-6.1367 l 6.80469,6.80469 z"
     color="#eff0f1"
     fill="currentColor"
     id="path88"
     style="stroke-width:2.5" />
  <text
     x="39.494316"
     y="180.92882"
     font-family="Mandali"
     font-size="40px"
     style="line-height:1.25"
     xml:space="preserve"
     id="text268"><tspan
       x="39.494316"
       y="180.92882"
       id="tspan266" /></text>
  <path
     class="ColorScheme-Text"
     d="m 402.97812,174.41821 -9,-9 1.0605,-1.0605 7.9395,7.9395 7.9395,-7.9395 1.0605,1.0605 z"
     color="#eff0f1"
     stroke-width="1.5"
     id="path64-1"
     style="fill:#eff0f1" />
  <rect
     x="64.497536"
     y="194.63849"
     width="364.17599"
     height="76.069427"
     ry="2.999608"
     fill="url(#linearGradient14580)"
     stroke="#666a6d"
     id="rect82-0"
     style="fill:url(#linearGradient918);stroke-width:2.99131"
     rx="0" />
  <text
     x="82.448372"
     y="221.32977"
     fill="#eff0f1"
     font-family="'Noto Sans'"
     font-size="21.3333px"
     style="font-variant-ligatures:normal;font-variant-caps:normal;font-variant-numeric:normal;font-variant-east-asian:normal"
     xml:space="preserve"
     id="text76-6-9"><tspan
       x="82.448372"
       y="221.32977"
       id="tspan74-2-3">Created by user — Fri</tspan></text>
  <text
     x="83.429703"
     y="256.09229"
     fill="#eff0f1"
     font-family="'Noto Sans'"
     font-size="21.3333px"
     style="font-variant-ligatures:normal;font-variant-caps:normal;font-variant-numeric:normal;font-variant-east-asian:normal"
     xml:space="preserve"
     id="text76-6-9-6"><tspan
       x="83.429703"
       y="256.09229"
       id="tspan74-2-3-0">Before Package Change — Thu</tspan></text>
  <circle
     cx="450.81839"
     cy="94.38488"
     r="30"
     fill="#f7941d"
     stroke="#eff0f1"
     stroke-width="3.75"
     id="circle104-6" />
  <text
     x="439.27841"
     y="108.86488"
     font-family="Nunito"
     font-size="40px"
     font-weight="bold"
     stroke-width="3.75"
     style="line-height:1.25;font-variant-ligatures:normal;font-variant-caps:normal;font-variant-numeric:normal;font-variant-east-asian:normal"
     xml:space="preserve"
     id="text108-1"><tspan
       x="439.27841"
       y="108.86488"
       fill="#ffffff"
       font-family="Nunito"
       font-size="40px"
       font-weight="bold"
       stroke-width="3.75"
       style="font-variant-ligatures:normal;font-variant-caps:normal;font-variant-numeric:normal;font-variant-east-asian:normal"
       id="tspan106-8">4</tspan></text>
</svg>
