<?xml version="1.0" encoding="UTF-8"?>
<svg width="132.49mm" height="37.237mm" version="1.1" viewBox="0 0 132.49 37.237" xmlns="http://www.w3.org/2000/svg">
 <defs>
  <linearGradient id="a" x1="229.14" x2="229.14" y1="113.98" y2="297.17" gradientTransform="matrix(.2563 0 0 .1333 -15.993 -6.5292)" gradientUnits="userSpaceOnUse">
   <stop stop-color="#2a2e32" offset="0"/>
   <stop stop-color="#2a2e32" offset="1"/>
  </linearGradient>
  <linearGradient id="linearGradient10889" x1="-761.37" x2="-761.37" y1="109.03" y2="66.956" gradientTransform="translate(860,-28)" gradientUnits="userSpaceOnUse">
   <stop stop-color="#f7941d" offset="0"/>
   <stop stop-color="#f8e5c6" offset="1"/>
  </linearGradient>
 </defs>
 <path class="ColorScheme-Text" d="m39.52 12.524v1.6167h-2.4344v11.317h11.36v-11.317h-2.4344v-1.6167zm-1.6229 2.425h0.81146v1.6167h8.1146v-1.6167h0.81146v9.7h-9.7375zm1.6229 2.425v0.80834h6.4917v-0.80834zm0 2.425v0.80834h4.8688v-0.80834zm0 2.425v0.80834h2.4344v-0.80834z" color="#eff0f1" fill="currentColor" stroke-width=".26369"/>
 <rect x=".49442" y=".49442" width="131.3" height="36.053" ry="1.2807" fill="url(#a)" stroke="#888" stroke-width=".98883"/>
 <path class="ColorScheme-Text" d="m10.887 11.772v14.437h14.437v-11.693l-2.7446-2.7446h-10.49zm1.2031 1.2031h2.4062v4.8124h7.2186v-4.8124h0.33836l2.0678 2.0678v9.9632h-1.2031v-4.8124h-9.6624v4.8124h-1.1655zm3.6093 0h2.2934v3.6093h-2.2934zm-1.2031 8.4217h7.2186v3.6093h-7.2186z" color="#eff0f1" fill="currentColor"/>
 <path class="ColorScheme-Text" d="m116.88 11.908v5.6363l-3.6975-3.6832-0.79389 0.79084 3.9826 3.9672-3.9826 3.9672 0.79389 0.79083 3.6975-3.6832v5.6363h1.1228l3.3685-3.3555-3.3685-3.3555 3.3685-3.3555-3.3685-3.3555zm1.1228 1.5816 1.7808 1.7739-1.7808 1.7739zm0 6.7111 1.7808 1.7739-1.7808 1.7739z" color="#eff0f1" fill="currentColor" stroke-width=".26369"/>
 <g transform="matrix(.2642 0 0 .26318 33.875 -.38058)">
  <path d="m129.06 43.763-0.16265 56.961-42.892-30.792z" fill="#eff0f1"/>
  <g transform="translate(6,100)" stroke-width="3.75">
   <circle cx="137.27" cy="-27.809" r="30" fill="#f7941d" stroke="#eff0f1"/>
   <text x="125.02556" y="-13.509" fill="#eff0f1" font-family="Nunito" font-size="40px" font-weight="bold" style="font-variant-caps:normal;font-variant-east-asian:normal;font-variant-ligatures:normal;font-variant-numeric:normal;line-height:1.25" xml:space="preserve"><tspan x="125.02556" y="-13.509" fill="#eff0f1" font-family="Nunito" font-size="40px" font-weight="bold" stroke-width="3.75" style="font-variant-caps:normal;font-variant-east-asian:normal;font-variant-ligatures:normal;font-variant-numeric:normal">2</tspan></text>
  </g>
 </g>
 <g transform="matrix(.1128 0 0 .1128 33.475 11.315)">
  <path d="m62.732 0.01095c-18.717 0.27409-37.106 9.3154-48.71 24.013-9.8172 12.218-14.935 28.138-13.903 43.792 0.85577 14.399 6.6842 28.486 16.442 39.135 10.695 11.784 25.87 19.501 41.768 20.784 15.401 1.3774 31.302-2.963 43.686-12.268 12.667-9.3433 21.768-23.473 24.749-38.954 3.281-16.429-0.1041-34.153-9.5345-48.041-8.2919-12.412-21.004-21.857-35.389-25.933-6.1929-1.8017-12.661-2.6529-19.109-2.5283z" fill="#ecf0f9"/>
  <path d="m63.999 3.5c-33.413 0-60.499 27.086-60.499 60.498s27.087 60.502 60.499 60.502c33.413 0 60.501-27.09 60.501-60.502s-27.088-60.498-60.501-60.498zm-3.5458 14.353c0.39907 0.067 0.74909 0.3325 0.91392 0.72191l4.8152 11.371c2.5608 0.1616 5.0447 0.606 7.4213 1.3017l8.4081-9.0331c0.38426-0.41272 1.0026-0.50534 1.4909-0.2234l7.1277 4.1154c0.48825 0.28194 0.71748 0.86326 0.55205 1.4023l-3.6215 11.807c1.8174 1.7351 3.4429 3.6694 4.8429 5.767l12.253-1.5158c0.55962-0.0692 1.0922 0.25765 1.285 0.78745l2.8415 7.8071c0.17724 0.48731-5e-3 1.0315-0.43944 1.3137l-18.158 6.5369c-0.72317 0.26043-1.5012-0.21221-1.6524-0.96562-2.2981-11.448-12.409-20.07-24.534-20.07-2.7476 0-5.3919 0.44272-7.8653 1.261-0.72883 0.24124-1.5229-0.19995-1.6552-0.95639l-3.2624-18.643c-0.11531-0.65765 0.32386-1.2836 0.98132-1.3995l7.8459-1.3838c0.13884-0.02447 0.27686-0.02417 0.40988-0.0017zm-28.1 12.894c0.12291 0.01623 0.24464 0.05371 0.36002 0.11263l14.74 12.457c0.58694 0.496 0.56764 1.406-0.0096 1.9137-8.7648 7.7139-11.178 20.781-5.1152 31.281 1.3739 2.3798 3.0793 4.4487 5.0247 6.1815 0.57342 0.51094 0.588 1.4198-9.5e-4 1.9128l-14.513 12.147c-0.51197 0.42823-1.275 0.36094-1.7041-0.15047l-5.1207-6.103c-0.36238-0.43201-0.37852-1.0566-0.03879-1.5066l7.4406-9.8556c-1.1404-2.298-1.9972-4.6716-2.583-7.0778l-12.027-2.7649c-0.54946-0.1262-0.93886-0.61591-0.93886-1.1798v-8.2299c0-0.56388 0.38939-1.0531 0.93886-1.1798l12.036-2.7667c0.59399-2.4417 1.4552-4.8168 2.5719-7.0778l-7.4388-9.8538c-0.33975-0.44997-0.32361-1.0747 0.03879-1.5066l5.3414-6.3652c0.24985-0.29777 0.62828-0.4364 0.99701-0.38772zm57.274 37.298c0.17698-0.01844 0.36065 0.0014 0.54096 0.0674l17.776 6.4963c0.62722 0.22924 0.95021 0.92277 0.7219 1.55l-2.7252 7.4859c-0.19282 0.52985-0.72587 0.85646-1.285 0.78745l-12.256-1.5158c-1.4199 2.1369-3.0469 4.0657-4.8373 5.7762l3.6188 11.798c0.16495 0.53884-0.06377 1.1206-0.55205 1.4023l-7.1286 4.1154c-0.48825 0.28218-1.1066 0.18923-1.4909-0.22339l-8.4137-9.0396c-2.4115 0.70615-4.8997 1.1473-7.4166 1.3109l-4.8133 11.369c-0.21978 0.51947-0.76844 0.81791-1.3238 0.72007l-8.1829-1.4429c-0.51-0.0902-0.89116-0.52006-0.91762-1.0376l3.4175-18.994c0.13612-0.75625 0.93472-1.1939 1.6626-0.94808 11.063 3.7335 23.586-0.7117 29.648-11.212 1.374-2.3798 2.3126-4.8911 2.8406-7.4425 0.11662-0.564 0.58518-0.96754 1.1161-1.0229z" fill="#0064ff"/>
 </g>
 <g transform="matrix(.1128 0 0 .1128 33.474 13.797)" stroke-width="31.432">
  <path d="m109.66 31.521c-6.4229 0.29246-13.075-0.03064-19.18 2.3262-8.3538 3.884-15.193 10.202-22.145 16.105-5.7413 5.065-11.32 10.311-16.968 15.481 11.065 9.4695 21.704 19.45 33.213 28.387 4.2509 3.0254 9.3308 5.1003 14.606 5.0883 2.7293 0.16263 10.728 0.13156 10.728 0.13156s0.0775-3.5815-0.0494-5.8432v-9.4644h18.182v-36.783h-18.182v-15.434c-0.0684 2e-3 -0.13672 0.0039-0.20508 0.0059z" fill="#3f4f69"/>
  <path d="m82.556 43.556c-9.6322 7.2654-24.905 21.786-24.905 21.786l25.032 21.904s6.6765 5.3044 10.683 6.6162c3.9023 1.2778 12.319 0.99649 12.319 0.99649v-15.31h18.181v-28.416h-18.181v-15.31s-8.4484 0.05354-12.517 1.4098c-4.0902 1.3636-10.611 6.3242-10.611 6.3242z" fill="url(#linearGradient10889)"/>
 </g>
 <g transform="matrix(.84937 0 0 .8461 28.304 10.437)">
  <path d="m86.85 11.479a1.884 1.884 0 0 0-1.665 1.7865 1.884 1.884 0 0 0 0 0.0847h0.94198a0.94198 0.94198 0 0 1 0.83159-0.93649h0.10856v-0.9346h-0.21711zm0.21892 2e-3v0.94197a0.94198 0.94198 0 0 1 0.93646 0.8316v0.10859h6e-3a0.94198 0.94198 0 0 1-0.83159 0.93645l-0.10859-3e-5v-7e-3a1.884 1.884 0 0 0-0.18766 2e-3 1.884 1.884 0 0 0-0.75432 0.20614v-0.1951h-2e-3v1.884h0.94198v-0.95486h0.2191a1.884 1.884 0 0 0 1.665-1.7865 1.884 1.884 0 0 0 0-0.0847h-0.0128v-0.21718a1.884 1.884 0 0 0-1.7864-1.665 1.884 1.884 0 0 0-0.0846 0zm-0.94015 5.6371v0.94201h0.94199v-0.94201z" fill="#fdbc4b"/>
  <path class="ColorScheme-Text" d="m80.017 1.2807c-3.8953 0-7.4118 1.5671-9.9536 4.1089l0.66467 0.66466c2.3724-2.3724 5.6533-3.8361 9.289-3.8361 3.6356 0 6.9166 1.4637 9.2889 3.8361l0.66468-0.66466c-2.5418-2.5418-6.0583-4.1089-9.9536-4.1089zm0 3.75c-2.8566 0-5.4346 1.15-7.2986 3.0139l0.66284 0.66281c1.6945-1.6945 4.0389-2.7393 6.6358-2.7393s4.9412 1.0447 6.6358 2.7393l0.66283-0.66281c-1.864-1.864-4.442-3.0139-7.2986-3.0139zm0 3.75c-1.8178 0-3.4592 0.73096-4.6454 1.9171l0.66467 0.66467c1.0167-1.0167 2.4226-1.6443 3.9807-1.6443s2.964 0.62756 3.9807 1.6443l0.66467-0.66467c-1.1862-1.1862-2.8276-1.9171-4.6454-1.9171zm0 3.75c-1.0388 0-1.875 0.83626-1.875 1.875 0 1.0388 0.83626 1.875 1.875 1.875 1.0387 0 1.875-0.83625 1.875-1.875 0-1.0387-0.83625-1.875-1.875-1.875zm0 0.93749c0.51938 0 0.9375 0.41815 0.9375 0.93749 0 0.51938-0.41812 0.93752-0.9375 0.93752s-0.93751-0.41814-0.93751-0.93752c0-0.51934 0.41813-0.93749 0.93751-0.93749z" color="#eff0f1" fill="currentColor" opacity=".5"/>
 </g>
</svg>
