<svg version="1.1" viewBox="0 0 500 275" xmlns="http://www.w3.org/2000/svg" xmlns:xlink="http://www.w3.org/1999/xlink"><defs><linearGradient id="linearGradient11473" x1="436.21" x2="436.21" y1="362.61" y2="344.49" gradientTransform="translate(0,-54)" gradientUnits="userSpaceOnUse"><stop stop-color="#324c5b" offset="0"/><stop stop-color="#415a67" offset="1"/></linearGradient><linearGradient id="linearGradient14580" x1="436.21" x2="436.21" y1="362.61" y2="344.49" gradientTransform="matrix(1.4536 0 0 .98889 -203.64 -101)" gradientUnits="userSpaceOnUse"><stop stop-color="#303539" offset="0"/><stop stop-color="#373c41" offset="1"/></linearGradient><linearGradient id="linearGradient34609" x1="97.298" x2="97.384" y1="25.402" y2="58.857" gradientTransform="matrix(1.0009 0 0 .99303 -49.568 -18.272)" gradientUnits="userSpaceOnUse"><stop stop-color="#31363b" offset="0"/><stop stop-color="#31363b" offset="1"/></linearGradient><linearGradient id="linearGradient40329" x1="229.14" x2="229.14" y1="113.98" y2="297.17" gradientTransform="matrix(.96868 0 0 1.0029 -60.441 -50.971)" gradientUnits="userSpaceOnUse"><stop stop-color="#2a2e32" offset="0"/><stop stop-color="#2a2e32" offset="1"/></linearGradient><linearGradient id="linearGradient776" x1="436.21" x2="436.21" y1="362.61" y2="344.49" gradientTransform="matrix(4.4611 0 0 .94672 -1687.2 -198.33)" gradientUnits="userSpaceOnUse" xlink:href="#linearGradient11473"/><linearGradient id="linearGradient918" x1="436.21" x2="436.21" y1="362.61" y2="344.49" gradientTransform="matrix(1.4476 0 0 .98897 -501.97 -165.43)" gradientUnits="userSpaceOnUse" xlink:href="#linearGradient14580"/></defs><rect x="1.873" y="1.873" width="496.25" height="271.25" ry="9.6357" fill="url(#linearGradient40329)" stroke="#888" stroke-width="3.7461"/><path d="m10.902 3.7047h476.69c4.4334 0 8.636 3.0395 8.636 7.2255v32.386l-492.46 0.071837v-32.174c0-4.3402 2.9808-7.509 7.1257-7.509z" fill="url(#linearGradient34609)" stroke-width=".79757"/><path class="ColorScheme-Text" d="m63.868 12.468-8.1582 8.1582-2.378-2.378-1.1224 1.1224 4.1964 4.1948-5.7818 5.7802 1.1224 1.1224 5.7802-5.7818 4.1948 4.1964 1.1224-1.1224-2.378-2.378 8.1582-8.1582z" color="#eff0f1" fill="#eff0f1" stroke-width="1.5853"/><g transform="matrix(.23624 0 0 .23429 9.6674 7.3146)"><path d="m62.862 1.0068c-4.7115 0.076185-9.4239 0.69936-13.978 1.8339-10.164 2.5039-19.622 7.5549-27.35 14.616-4.2704 3.9021-8.0953 8.4883-11.149 13.462-5.1964 8.369-8.3681 18.088-9.1835 27.949-0.30066 3.8529-0.27435 7.8614 0.14154 11.732 0.9892 9.3688 4.1149 18.527 9.0889 26.565 6.0582 9.7866 14.901 17.926 25.25 23.108 11.851 5.9871 25.684 8.1 38.828 5.8393 9.8888-1.6742 19.553-5.8082 27.557-11.921 12.164-9.1886 20.737-22.843 23.693-37.792 1.4803-7.3952 1.6218-15.071 0.42871-22.474-1.3272-8.3095-4.4041-16.479-8.9202-23.561-7.2296-11.466-18.2-20.476-30.894-25.268-4.9461-1.8852-10.126-3.1353-15.329-3.7029-2.7324-0.30417-5.4254-0.42571-8.1846-0.38743zm-3.4395 11.129c1.2016 0.01155 1.6092 1.3003 2.0109 2.2054 2.0098 4.2678 4.0017 8.5447 6.0047 12.816 1.7183 0.16081 3.4247 0.44154 5.1035 0.8418 3.6853-3.8221 7.3278-7.6934 11.057-11.469 0.99567-0.70786 2.0804 0.14457 2.9395 0.65234 2.7872 1.6495 5.6473 3.1951 8.3754 4.9281 0.89416 0.88119 0.20376 2.1346-0.0507 3.1349-1.3062 4.4679-2.6123 8.9358-3.9185 13.404 1.1869 1.2554 2.2852 2.5944 3.2793 4.0078 5.2824-0.43017 10.567-0.92552 15.85-1.2949 1.1225 0.08648 1.4915 1.277 1.7243 2.1912 1.0112 3.0951 2.1261 6.1581 3.0511 9.2775 0.12654 1.1578-1.1027 1.8389-2.1136 1.8656-6.8703 1.4545-13.741 2.9075-20.611 4.3629-1.2038-6.6014-4.7165-12.781-9.93-17.033-5.7861-4.7899-13.494-7.1914-20.945-6.4-2.3725 0.22265-4.6969 0.79983-6.9554 1.5465-2.2809-7.0557-4.6188-14.094-6.8437-21.164-0.16711-1.1332 1.0096-1.9094 2.0277-1.9124 3.314-0.65364 6.6214-1.3796 9.945-1.9606zm-29.459 13.158c1.2384 0.19626 1.7594 1.5002 2.6174 2.2567 4.3653 4.8604 8.7349 9.717 13.111 14.568-3.808 3.2391-6.7821 7.4515-8.4902 12.154-1.9026 5.2371-2.2252 11.235-0.82812 16.709 1.4029 5.5985 4.9833 11.111 9.3274 14.906 0 0-0.46664 0.40342-1.1399 1.1472-3.5051 4.0014-7.1256 7.9234-10.675 11.892-1.1108 1.1647-2.1124 2.4545-3.2894 3.5435-0.9984 0.58998-2.1156-0.20088-2.6439-1.055-2.1752-2.4866-4.4039-4.9339-6.53-7.4587-0.62494-1.0499 0.31655-2.0624 0.89453-2.875l8.082-11.609c-0.72102-1.5718-1.3248-3.1958-1.8223-4.8516-5.1511-1.2765-10.324-2.4886-15.455-3.8281-1.1037-0.50516-0.91702-1.8641-0.90625-2.8574 0.01647-3.2263-0.04348-6.4602 0.03906-9.6816 0.23824-1.1812 1.5855-1.3396 2.5559-1.5518 4.5875-1.1287 9.1792-2.2416 13.768-3.3642 0.49948-1.6553 1.1098-3.2766 1.832-4.8477-3.0128-4.3608-6.0861-8.6871-9.043-13.082-0.49318-1.1061 0.52421-2.0196 1.2067-2.7431 2.1214-2.3713 4.167-4.822 6.3656-7.1163 0.30061-0.19423 0.66701-0.29176 1.0234-0.25391zm62.6 43.764c7.1269 1.5462 14.277 2.9975 21.393 4.5879 0.48892 0.10441 0.4802 0.86038 1.0449 0.71919 0.31255 0.24039-0.29753 1.0843-0.34879 1.563-1.1274 3.3287-2.2046 6.6811-3.3953 9.9834-0.59691 1.0333-1.9139 0.77019-2.8931 0.65733-4.7155-0.39302-9.4306-0.8014-14.146-1.2003-0.99563 1.413-2.0908 2.7561-3.2852 4.0059 1.4668 5.1066 3.0285 10.193 4.4141 15.318 0.0856 1.2438-1.2355 1.7413-2.1191 2.252-2.805 1.5783-5.5575 3.2771-8.4071 4.7586-1.2091 0.33972-1.9563-0.89378-2.6923-1.612-3.224-3.3633-6.4481-6.7267-9.6721-10.09-1.6807 0.40073-3.3892 0.68103-5.1094 0.8418-2.2644 4.785-4.4777 9.6007-6.7969 14.355-0.71471 0.9924-2.0289 0.56569-3.0098 0.34375-3.126-0.67606-6.3016-1.1874-9.3917-1.9871-1.0055-0.51139-0.94814-1.8637-0.48193-2.7304 2.1746-6.6749 4.3499-13.35 6.524-20.025 6.1161 2.2019 13.045 2.3145 19.139 0.13672 7.3864-2.5646 13.652-8.2512 16.743-15.454 0.92204-2.0884 1.5627-4.2922 2.0013-6.5302 0.16341 0.03516 0.32682 0.07031 0.49024 0.10547z" fill="#0079c1" stroke="#80cfff"/></g><g fill="#eff0f1"><text x="175.34424" y="29.092794" xml:space="preserve"><tspan x="175.34424" y="29.092794" fill="#eff0f1" font-family="'Noto Sans'" font-size="21.333px" style="font-variant-caps:normal;font-variant-east-asian:normal;font-variant-ligatures:normal;font-variant-numeric:normal">System Rollback</tspan></text><path class="ColorScheme-Text" d="m441.82 27.844-9-9 1.0605-1.0605 7.9395 7.9395 7.9395-7.9395 1.0605 1.0605z" color="#eff0f1" stroke-width="1.5"/><path class="ColorScheme-NegativeText" d="m468.97 16.28 5.7324 5.7324-5.7285 5.7285 1.3066 1.1035 5.627-5.627 5.7285 5.7285 1.1035-1.3066-5.627-5.627 5.7285-5.7285-1.3066-1.1035-5.627 5.627-5.7324-5.7324z" color="#da4453"/><text x="64.56308" y="80.314926" xml:space="preserve"><tspan x="64.56308" y="80.314926" fill="#eff0f1" font-family="'Noto Sans'" font-size="21.333px" style="font-variant-caps:normal;font-variant-east-asian:normal;font-variant-ligatures:normal;font-variant-numeric:normal">Select an action below to get started.</tspan></text></g><path d="m3.6827 43.302 492.57-2.34e-4v3.75l-492.57 2.34e-4z" fill="#525659" stroke-width="1.5456"/><g transform="translate(-118.01 -50.806)"><rect x="393.66" y="266.46" width="81.152" height="44.756" ry="4.2572" fill="url(#linearGradient11473)" stroke="#5687a3" stroke-width="2.5"/><text x="427.65329" y="296.58926" fill="#eff0f1" font-family="'Noto Sans'" font-size="21.333px" style="font-variant-caps:normal;font-variant-east-asian:normal;font-variant-ligatures:normal;font-variant-numeric:normal" xml:space="preserve"><tspan x="427.65329" y="296.58926">OK</tspan></text><path class="ColorScheme-Text" d="m418.97 283.58c-2.4902 2.4648-4.9805 4.9297-7.4707 7.3945-0.96798-0.95911-1.9369-1.9172-2.9043-2.877-0.23967 0.39535-1.1598 0.69471-0.76172 1.2695 1.2348 1.1898 2.4511 2.3991 3.666 3.6094 2.8829-2.854 5.7659-5.708 8.6504-8.5605-0.41614-0.23626-0.61676-0.97945-1.1797-0.83594z" color="#eff0f1" fill="currentColor"/></g><rect x="68.985" y="105.05" width="362.03" height="42.372" ry="4.0304" fill="url(#linearGradient776)" stroke="#5687a3" stroke-width="5.1378"/><text x="86.630836" y="133.86583" fill="#eff0f1" font-family="'Noto Sans'" font-size="21.333px" style="font-variant-caps:normal;font-variant-east-asian:normal;font-variant-ligatures:normal;font-variant-numeric:normal" xml:space="preserve"><tspan x="86.630836" y="133.86583">CREATE Snapshot</tspan></text><rect x="368.58" y="215.9" width="117.96" height="44.259" ry="4.2099" fill="url(#linearGradient14580)" stroke="#666a6d" stroke-width="2.9973"/><text x="404.32599" y="245.78304" fill="#eff0f1" font-family="'Noto Sans'" font-size="21.333px" stroke-width="2.5" style="font-variant-caps:normal;font-variant-east-asian:normal;font-variant-ligatures:normal;font-variant-numeric:normal" xml:space="preserve"><tspan x="404.32599" y="245.78304" stroke-width="2.5">Cancel</tspan></text><path class="ColorScheme-Text" d="m390.71 231.36c-3.0323 0.0891-5.6913 2.7494-5.7812 5.7812-0.21228 2.9872 2.0971 5.8782 5.0621 6.3204 2.9811 0.57894 6.1708-1.4444 6.9079-4.3948 0.88651-2.9426-0.87245-6.3599-3.789-7.3406-0.76239-0.29026-1.5858-0.40515-2.3997-0.36615zm0.30859 1.1914c2.6551-0.0643 5.0287 2.3498 4.8973 5.0061-0.0182 1.0404-0.41308 2.0596-1.0633 2.8669-2.2682-2.2682-4.5364-4.5365-6.8047-6.8047 0.83442-0.6738 1.8946-1.0684 2.9707-1.0684zm2.9746 8.7324c-1.9383 1.6562-5.1223 1.3075-6.7095-0.66799-1.4875-1.6826-1.5522-4.4161-0.0952-6.1367l6.8047 6.8047z" color="#eff0f1" fill="currentColor" stroke-width="2.5"/><g transform="translate(418.18 37.031)"><g transform="translate(6,100)" stroke-width="3.75"><circle cx="-118.96" cy="-19.721" r="30" fill="#f7941d" stroke="#eff0f1"/><text x="-132.03789" y="-5.4610643" font-family="Nunito" font-size="40px" font-weight="bold" style="font-variant-caps:normal;font-variant-east-asian:normal;font-variant-ligatures:normal;font-variant-numeric:normal;line-height:1.25" xml:space="preserve"><tspan x="-132.03789" y="-5.4610643" fill="#ffffff" font-family="Nunito" font-size="40px" font-weight="bold" stroke-width="3.75" style="font-variant-caps:normal;font-variant-east-asian:normal;font-variant-ligatures:normal;font-variant-numeric:normal">1</tspan></text></g></g><text x="39.494316" y="180.92882" font-family="Mandali" font-size="40px" style="line-height:1.25" xml:space="preserve"><tspan x="39.494316" y="180.92882"/></text><path class="ColorScheme-Text" d="m406.39 131.27-9-9 1.0605-1.0605 7.9395 7.9395 7.9395-7.9395 1.0605 1.0605z" color="#eff0f1" fill="#eff0f1" stroke-width="1.5"/><rect x="67.912" y="151.49" width="364.18" height="76.069" rx="0" ry="2.9996" fill="url(#linearGradient918)" stroke="#666a6d" stroke-width="2.9913"/><text x="85.862839" y="180.90576" fill="#eff0f1" font-family="'Noto Sans'" font-size="21.333px" style="font-variant-caps:normal;font-variant-east-asian:normal;font-variant-ligatures:normal;font-variant-numeric:normal" xml:space="preserve"><tspan x="85.862839" y="180.90576">RESTORE Snapshot</tspan></text><text x="86.84417" y="215.66812" fill="#eff0f1" font-family="'Noto Sans'" font-size="21.333px" style="font-variant-caps:normal;font-variant-east-asian:normal;font-variant-ligatures:normal;font-variant-numeric:normal" xml:space="preserve"><tspan x="86.84417" y="215.66812">SWITCH AUTO / MANUAL</tspan></text><circle cx="50.624" cy="237.3" r="30" fill="#f7941d" stroke="#eff0f1" stroke-width="3.75"/><text x="39.083736" y="251.78111" font-family="Nunito" font-size="40px" font-weight="bold" stroke-width="3.75" style="font-variant-caps:normal;font-variant-east-asian:normal;font-variant-ligatures:normal;font-variant-numeric:normal;line-height:1.25" xml:space="preserve"><tspan x="39.083736" y="251.78111" fill="#ffffff" font-family="Nunito" font-size="40px" font-weight="bold" stroke-width="3.75" style="font-variant-caps:normal;font-variant-east-asian:normal;font-variant-ligatures:normal;font-variant-numeric:normal">2</tspan></text></svg>
