<svg version="1.1" viewBox="0 0 500.14862 350.14862" xmlns="http://www.w3.org/2000/svg" xmlns:xlink="http://www.w3.org/1999/xlink">
  <defs>
    <linearGradient id="linearGradient40329" x1="229.14143" x2="229.14143" y1="113.97903" y2="297.1691" gradientTransform="matrix(.96773883 0 0 1.2784599 -60.066037 -65.173867)" gradientUnits="userSpaceOnUse">
      <stop stop-color="#2a2e32" offset="0"/>
      <stop stop-color="#2a2e32" offset="1"/>
    </linearGradient>
    <linearGradient id="linearGradient14580" x1="436.21014" x2="436.21014" y1="362.60602" y2="344.49173" gradientTransform="translate(90,-54)" gradientUnits="userSpaceOnUse">
      <stop stop-color="#303539" offset="0"/>
      <stop stop-color="#373c41" offset="1"/>
    </linearGradient>
    <linearGradient id="linearGradient1960" x1="436.21014" x2="436.21014" y1="362.60602" y2="344.49173" gradientTransform="matrix(.95991598 0 0 1.1631023 -351.55501 -333.39818)" gradientUnits="userSpaceOnUse" xlink:href="#linearGradient14580"/>
    <linearGradient id="linearGradient2598" x1="436.21014" x2="436.21014" y1="362.60602" y2="344.49173" gradientTransform="matrix(.95991599 0 0 1.1631021 -351.55502 -248.39815)" gradientUnits="userSpaceOnUse" xlink:href="#linearGradient14580"/>
    <linearGradient id="linearGradient2736" x1="436.21014" x2="436.21014" y1="362.60602" y2="344.49173" gradientTransform="matrix(.95991599 0 0 1.1631021 -351.55502 -163.39813)" gradientUnits="userSpaceOnUse" xlink:href="#linearGradient14580"/>
    <linearGradient id="linearGradient2275" x1="436.21014" x2="436.21014" y1="362.60602" y2="344.49173" gradientTransform="translate(-78.435183,327.52909)" gradientUnits="userSpaceOnUse" xlink:href="#linearGradient14580"/>
  </defs>
  <rect x="2.188015" y="2.188015" width="495.77258" height="345.77258" ry="12.282804" fill="url(#linearGradient40329)" stroke="#888" stroke-width="4.37603"/>
  <g transform="translate(.10859792 45.337468)">
    <g transform="translate(-60,-22.470893)">
      <rect x="411.89999" y="266.45773" width="120" height="44.7565" ry="4.2572007" fill="#45a1ff" stroke="#45a1ff" stroke-width="2.5"/>
      <text x="427.65329" y="296.58926" fill="#000000" font-family="'Noto Sans'" font-size="21.3333px" style="font-variant-caps:normal;font-variant-east-asian:normal;font-variant-ligatures:normal;font-variant-numeric:normal" xml:space="preserve"><tspan x="427.65329" y="296.58926" fill="#000000">Continue</tspan></text>
    </g>
  </g>
  <g transform="translate(-75.891402,-358.66253)" stroke-width="2.5">
    <rect x="302.2157" y="647.98682" width="95" height="44.7565" ry="4.2572007" fill="url(#linearGradient2275)" stroke="#666a6d"/>
    <text x="317.21811" y="678.11835" fill="#eff0f1" font-family="'Noto Sans'" font-size="21.3333px" style="font-variant-caps:normal;font-variant-east-asian:normal;font-variant-ligatures:normal;font-variant-numeric:normal" xml:space="preserve"><tspan x="317.21811" y="678.11835" stroke-width="2.5">Cancel</tspan></text>
  </g>
  <rect x="26.326944" y="39.326942" width="447.49472" height="33.49474" ry="4.95156" fill="url(#linearGradient1960)" stroke="#666a6d" stroke-width="2.50527"/>
  <text x="41.738297" y="61.906284" fill="#eff0f1" font-family="'Noto Sans'" font-size="21.3333px" stroke-width="2.5" style="font-variant-caps:normal;font-variant-east-asian:normal;font-variant-ligatures:normal;font-variant-numeric:normal" xml:space="preserve"><tspan x="41.738297" y="61.906284" font-family="'Noto Sans'" font-size="21.3333px" stroke-width="2.5" style="font-variant-caps:normal;font-variant-east-asian:normal;font-variant-ligatures:normal;font-variant-numeric:normal">John Doe</tspan></text>
  <text x="25.550304" y="27.354334" fill="#eff0f1" font-family="'Noto Sans'" font-size="18.6667px" stroke-width="3.5" style="font-variant-caps:normal;font-variant-east-asian:normal;font-variant-ligatures:normal;font-variant-numeric:normal" xml:space="preserve"><tspan x="25.550304" y="27.354334">Your full name</tspan></text>
  <rect x="26.326939" y="124.32693" width="447.49475" height="33.494736" ry="4.9515595" fill="url(#linearGradient2598)" stroke="#666a6d" stroke-width="2.50527"/>
  <g transform="translate(.07430792 -11.925692)" fill="#eff0f1">
    <text x="41.66399" y="159.2133" font-family="'Noto Sans'" font-size="21.3333px" stroke-width="2.5" style="font-variant-caps:normal;font-variant-east-asian:normal;font-variant-ligatures:normal;font-variant-numeric:normal" xml:space="preserve"><tspan x="41.66399" y="159.2133" font-family="'Noto Sans'" font-size="21.3333px" stroke-width="2.5" style="font-variant-caps:normal;font-variant-east-asian:normal;font-variant-ligatures:normal;font-variant-numeric:normal">john.doe@gmail.com</tspan></text>
    <text x="25.475996" y="124.18669" font-family="'Noto Sans'" font-size="18.6667px" stroke-width="3.5" style="font-variant-caps:normal;font-variant-east-asian:normal;font-variant-ligatures:normal;font-variant-numeric:normal" xml:space="preserve"><tspan x="25.475996" y="124.18669">Email address</tspan></text>
    <g transform="translate(440.72477,96.321579)" color="#eff0f1" fill-rule="evenodd" stroke-width="2">
      <path d="m6.27523-40.321579a12 12 0 0 0-12 12 12 12 0 0 0 12 12 12 12 0 0 0 12-12 12 12 0 0 0-12-12zm0 2a10 10 0 0 1 10 10 10 10 0 0 1-10 10 10 10 0 0 1-10-10 10 10 0 0 1 10-10z"/>
      <path d="m4.27523-36.321579h4v4h-4z"/>
      <path d="m4.27523-30.321579h4v10h-4z"/>
    </g>
    <g transform="translate(440.72477,181.22824)" color="#eff0f1" fill-rule="evenodd" stroke-width="2">
      <path d="m6.27523-40.321579a12 12 0 0 0-12 12 12 12 0 0 0 12 12 12 12 0 0 0 12-12 12 12 0 0 0-12-12zm0 2a10 10 0 0 1 10 10 10 10 0 0 1-10 10 10 10 0 0 1-10-10 10 10 0 0 1 10-10z"/>
      <path d="m4.27523-36.321579h4v4h-4z"/>
      <path d="m4.27523-30.321579h4v10h-4z"/>
    </g>
  </g>
  <rect x="26.326939" y="209.32693" width="447.49475" height="33.494736" ry="4.9515595" fill="url(#linearGradient2736)" stroke="#45a1ff" stroke-width="2.5"/>
  <text x="25.550304" y="197.35434" fill="#eff0f1" font-family="'Noto Sans'" font-size="18.6667px" stroke-width="3.5" style="font-variant-caps:normal;font-variant-east-asian:normal;font-variant-ligatures:normal;font-variant-numeric:normal" xml:space="preserve"><tspan x="25.550304" y="197.35434">Your full name</tspan></text>
  <path class="ColorScheme-Text" d="m458.27144 214.98981-22.6289 22.58984 1.42967 1.41016 22.57033-22.60546zm-10.6289 2a17.999983 18.000006 0 0 0-15.75391 9.33594c0.25788 0.72746 0.71488 1.35318 1.3125 1.8164a15.999985 16.000006 0 0 1 14.44141-9.15234 7.9999986 8.0000014 0 0 0-8 8 7.9999986 8.0000014 0 0 0 0.21094 1.78906l1.78906-1.78906a5.9999986 6.000001 0 0 1 6-6l1.78516-1.78516a7.9999986 8.0000014 0 0 0-1.08595-0.1796 15.999985 16.000006 0 0 1 1.15625 0.1094l1.75782-1.7578a17.999983 18.000006 0 0 0-3.61328-0.38672zm11.67188 4.32812-1.42971 1.4297a15.999985 16.000006 0 0 1 4.19922 5.39452c0.60304-0.46742 1.06382-1.1001 1.32032-1.83594a17.999983 18.000006 0 0 0-4.08983-4.98828zm-3.88283 3.88282-1.78905 1.78906a5.9999986 6.000001 0 0 1-6 6l-1.78516 1.78516a7.9999986 8.0000014 0 0 0 1.78516 0.21484 7.9999986 8.0000014 0 0 0 8-8 7.9999986 8.0000014 0 0 0-0.21095-1.78906z" color="#eff0f1" fill="currentColor"/>
  <g transform="translate(.07430792 -9.9256921)" fill="#eff0f1" stroke-width="3.5">
    <circle cx="44.986977" cy="237.34625" r="6"/>
    <circle cx="62.986977" cy="237.34625" r="6"/>
    <circle cx="80.986977" cy="237.34625" r="6"/>
    <circle cx="98.986977" cy="237.34625" r="6"/>
    <circle cx="116.98698" cy="237.34625" r="6"/>
    <circle cx="134.98697" cy="237.34625" r="6"/>
    <circle cx="152.98697" cy="237.34625" r="6"/>
    <circle cx="170.98697" cy="237.34625" r="6"/>
    <circle cx="188.98697" cy="237.34625" r="6"/>
  </g>
  <text x="65.550308" y="271.03809" fill="#eff0f1" font-family="'Noto Sans'" font-size="18.6667px" stroke-width="3.5" style="font-variant-caps:normal;font-variant-east-asian:normal;font-variant-ligatures:normal;font-variant-numeric:normal" xml:space="preserve"><tspan x="65.550308" y="271.03809">Remember password</tspan></text>
  <g transform="translate(.07430792 -8.2419461)">
    <g transform="translate(72,-34)">
      <rect class="ColorScheme-PositiveText" x="-45.324284" y="295.31625" width="24" height="24" rx="3" color="#27ae60" fill="#45a1ff"/>
      <path d="m-26.445283 300.69526-9.129 9.129-4.629-4.629-2.121 2.121 6.75 6.75 11.25-11.25z" fill="#fff" stroke-width="1.5"/>
    </g>
  </g>
  <text x="25.550306" y="327.35434" fill="#45a1ff" font-family="'Noto Sans'" font-size="18.6667px" stroke-width="3.5" style="font-variant-caps:normal;font-variant-east-asian:normal;font-variant-ligatures:normal;font-variant-numeric:normal" xml:space="preserve"><tspan x="25.550306" y="327.35434">Configure Manually</tspan></text>
  <g transform="translate(238.66143,69.327728)">
    <g transform="translate(6,100)" stroke-width="3.75">
      <circle cx="137.26791" cy="-27.809036" r="30" fill="#f7941d" stroke="#eff0f1"/>
      <text x="125.62592" y="-13.709036" font-family="Nunito" font-size="40px" font-weight="bold" style="font-variant-caps:normal;font-variant-east-asian:normal;font-variant-ligatures:normal;font-variant-numeric:normal;line-height:1.25" xml:space="preserve"><tspan x="125.62592" y="-13.709036" fill="#ffffff" font-family="Nunito" font-size="40px" font-weight="bold" stroke-width="3.75" style="font-variant-caps:normal;font-variant-east-asian:normal;font-variant-ligatures:normal;font-variant-numeric:normal">2</tspan></text>
    </g>
  </g>
</svg>
