/* XPM */
static char *kfocus_bug_rx[] = {
/* columns rows colors chars-per-pixel */
"64 64 110 2 ",
"   c black",
".  c #010308",
"X  c #020A15",
"o  c #091E31",
"O  c #2D2D2D",
"+  c #0E2840",
"@  c #102C46",
"#  c #163654",
"$  c #173959",
"%  c #183A5A",
"&  c #2A3340",
"*  c #003E66",
"=  c #003F69",
"-  c #1A3F61",
";  c #0B4067",
":  c #00426C",
">  c #1C4366",
",  c #154268",
"<  c #1C4469",
"1  c #024774",
"2  c #014D7D",
"3  c #184D78",
"4  c #23466A",
"5  c #27496C",
"6  c #2E4A69",
"7  c #204A71",
"8  c #234F78",
"9  c #314F70",
"0  c #385271",
"q  c #464646",
"w  c gray30",
"e  c #48505C",
"r  c #52555A",
"t  c #555A64",
"y  c #435A76",
"u  c gray40",
"i  c gray42",
"p  c #7B7B7B",
"a  c #005183",
"s  c #005488",
"d  c #005E97",
"f  c #185E94",
"g  c #265B8B",
"h  c #00629D",
"j  c #1E669F",
"k  c #2E6394",
"l  c #31699E",
"z  c #0067A5",
"x  c #0068A7",
"c  c #006CAC",
"v  c #1A66A0",
"b  c #0071B5",
"n  c #0175BA",
"m  c #0C74B8",
"M  c #0078BF",
"N  c #2D6CA4",
"B  c #3470A7",
"V  c #3077B5",
"C  c #3778B3",
"Z  c #337BBA",
"A  c #5B6B82",
"S  c #677489",
"D  c #6E7B8E",
"F  c #737F91",
"G  c #0079C1",
"H  c #0B7AC1",
"J  c #147BC2",
"K  c #1C7CC2",
"L  c #247DC2",
"P  c #2B7FC3",
"I  c #347FC0",
"U  c #7C8087",
"Y  c #78818E",
"T  c #778293",
"R  c #2F80C3",
"E  c #3481C4",
"W  c #3E84C5",
"Q  c #8E8E8E",
"!  c #818B9A",
"~  c #88919F",
"^  c #9A9A9A",
"/  c #9098A5",
"(  c #999DA3",
")  c #A5A5A5",
"_  c #A6A7A8",
"`  c #A0A6B0",
"'  c #A5ABB4",
"]  c #AAAFB8",
"[  c #ADB2BA",
"{  c #B3B3B3",
"}  c #B0B4BD",
"|  c #B9B9B9",
" . c #B5B9C1",
".. c #B9BDC4",
"X. c #BDC1C7",
"o. c #C5C5C6",
"O. c #C5C9CE",
"+. c #CACACB",
"@. c #CDD0D5",
"#. c #D4D4D4",
"$. c #D6D7DA",
"%. c #D6D8DC",
"&. c #D9D9DA",
"*. c #DDDFE1",
"=. c #E2E3E5",
"-. c #E7E8EA",
";. c #ECECED",
":. c #F4F4F5",
">. c #FFFFFF",
",. c None",
/* pixels */
",.,.,.,.,.,.,.,.,.,.,.,.,.,.,.,.,.,.,.,.,.,.,.,.,.,.,.,.,.,.,.,.,.,.,.,.,.,.,.,.,.,.,.,.,.,.,.,.,.,.,.,.,.,.,.,.,.,.,.,.,.,.,.,.",
",.,.,.,.,.,.,.,.,.,.,.,.,.,.,.,.,.,.,.,.,.,.,.,.,.,.,.,.,.,.,.,.,.,.,.,.,.,.,.,.,.,.,.,.,.,.,.,.,.,.,.,.,.,.,.,.,.,.,.,.,.,.,.,.",
",.,.,.,.,.,.,.,.,.,.,.,.,.,.,.,.,.,.,.,.,.,.,.,.,.,.,.W W W W W W W W W W ,.,.,.,.,.,.,.,.,.,.,.,.,.,.,.,.,.,.,.,.,.,.,.,.,.,.,.",
",.,.,.,.,.,.,.,.,.,.,.,.,.,.,.,.,.,.,.,.,.,.,.W W W E E P K K J J K L P E W W W W ,.,.,.,.,.,.,.,.,.,.,.,.,.,.,.,.,.,.,.,.,.,.,.",
",.,.,.,.,.,.,.,.,.,.,.,.,.,.,.,.,.,.,.,.W W E E L G G G G G G G G G G G G G J L E W W W ,.,.,.,.,.,.,.,.,.,.,.,.,.,.,.,.,.,.,.,.",
",.,.,.,.,.,.,.,.,.,.,.,.,.,.,.,.,.,.W W E L G G G G G G G G G G G G G G G G G G G J P W W W ,.,.,.,.,.,.,.,.,.,.,.,.,.,.,.,.,.,.",
",.,.,.,.,.,.,.,.,.,.,.,.,.,.,.,.W W E L G G G G G G G G G G G G G G G G G G G G G G G G P W W ,.,.,.,.,.,.,.,.,.,.,.,.,.,.,.,.,.",
",.,.,.,.,.,.,.,.,.,.,.,.,.,.,.W W L G G G G G G H K L E E E E H G G G G G G G G G G G G G H E W W ,.,.,.,.,.,.,.,.,.,.,.,.,.,.,.",
",.,.,.,.,.,.,.,.,.,.,.,.,.W W E H G G G G G G K W W W W ,.,.W P G G G G G G G G G G G G G G G K W W ,.,.,.,.,.,.,.,.,.,.,.,.,.,.",
",.,.,.,.,.,.,.,.,.,.,.,.W W P G G G G G G G G K W ,.,.,.,.,.W W G G G G G G G K E E E L G G G G H E W ,.,.,.,.,.,.,.,.,.,.,.,.,.",
",.,.,.,.,.,.,.,.,.,.,.W W K G G G G G G G G G L W ,.,.,.,.,.,.W P G G G G G K W W ,.W W E J G G G G E W ,.,.,.,.,.,.,.,.,.,.,.,.",
",.,.,.,.,.,.,.,.,.,.W W K G G G G G G G G G G H W ,.,.,.,.,.,.W E G G G G K W W ,.,.,.,.W W R G G G G I W ,.,.,.,.,.,.,.,.,.,.,.",
",.,.,.,.,.,.,.,.,.W W K G G G G G G G G G G G G W W ,.,.,.,.,.,.W L G G K W W ,.,.,.,.,.,.W E G G G G G I W ,.,.,.,.,.,.,.,.,.,.",
",.,.,.,.,.,.,.,.W W K G G G L L L L G G G G G G P W ,.,.,.,.,.,.W E G J W W ,.,.,.,.,.,.,.,.E G G G G G G E W ,.,.,.,.,.,.,.,.,.",
",.,.,.,.,.,.,.,.W P G G G K W W W W K G G G G G J W ,.,.,.,.,.,.,.W W W W ,.,.,.,.,.,.,.,.W W G G G G G G G W W ,.,.,.,.,.,.,.,.",
",.,.,.,.,.,.,.W E G G G K W W ,.,.W W J G G G G G E W ,.,.,.,.,.,.,.,.W ,.,.,.,.,.,.,.,.,.W P G G G G G G G J W W ,.,.,.,.,.,.,.",
",.,.,.,.,.,.W W H G G J W W ,.,.,.,.W W J G G G G P W ,.,.,.,.,.,.,.,.,.,.,.,.,.,.,.,.,.,.W J G G G G G G G G P W ,.,.,.,.,.,.,.",
",.,.,.,.,.,.W L G G G L W ,.,.,.,.,.,.W E H G G G J W ,.,.,.,.,.,.,.,.,.,.,.,.,.,.,.,.,.,.E G G G G G G G G G G E W ,.,.,.,.,.,.",
",.,.,.,.,.W E G G G G L W ,.,.,.,.,.,.,.W E G G G G E W ,.W W W W W W ,.,.,.,.,.,.,.,.,.W E G G G G G G G G G G K W ,.,.,.,.,.,.",
",.,.,.,.,.W L G G G G P W ,.,.,.,.,.,.,.,.W E G G G L R P R L J K P E W W W ,.,.,.,.,.,.W K G G G G G G G G G G G E W ,.,.,.,.,.",
",.,.,.,.W E G G G G G G E W ,.,.,.,.,.,.,.,.W P G G G G G G G G G G G G P E W W ,.,.,.,.W W H G G H J K K K H G G K W ,.,.,.,.,.",
",.,.,.,.W L G G G G G G J W W ,.,.,.,.,.,.,.W P G G G G G G G G G G G G G H P W W ,.,.,.,.W E W W W W W W W R G G G E W ,.,.,.,.",
",.,.,.,.W H G G G G G G G L W ,.,.,.,.,.,.,.W P G G G G G G G G G G G G G G G K W W ,.,.,.,.,.,.,.,.,.,.,.,.W G G G P W ,.,.,.,.",
",.,.,.W E G G G G G G G G G E W ,.,.,.,.,.W E H G G G G G G G G G G G G G G G G K W W ,.,.,.,.,.,.,.,.,.,.,.W K G G H W ,.,.,.,.",
",.,.,.W L G G G G G G G G G H W W ,.,.,.W W H G G G G G G G G G G G G G G G G G G P E ,.,.,.,.,.,.,.,.,.,.,.W P G G G E W ,.,.,.",
",.,.,.W H G G G G G G G G G G W ,.,.,.,.W K G G G G G G G G G G G G G G G G G G G G E W ,.,.,.,.,.,.,.,.,.,.,.W G G G P W ,.,.,.",
",.,.,.E G G G G G G G G K R W W ,.,.,.W E G G G G G G G G G G G G G G G G G G G G G J W ,.,.,.,.,.,.,.,.,.,.,.E G G G K W ,.,.,.",
",.,.W E G G G H K E E W W W W ,.,.,.,.W K G G G G G G G G G G G G G G G G G G G G G G E W ,.,.,.,.,.,.,.W W W E G G G H W ,.,.,.",
",.,.W R G G G E W W W ,.,.,.,.,.,.,.,.E G G G G G G G G G G G G G G G G G G G G G G G K W ,.,.W W W W E E P J G G G G G W ,.,.,.",
",.,.W L G G G E ,.,.,.,.,.,.,.,.,.,.W E G G G G G G G G G G G G G G G G G G G G G G G G W E E E P L H G G G G G G G G G E ,.,.,.",
",.,.W K G G G E ,.,.,.,.,.,.,.,.,.,.W L G G G G G G G G G G G G G G G G G G G G G G G G G G G G G G G G G G G G G G G G E ,.,.,.",
",.,.W K G G G E ,.,.,.,.,.,.,.,.,.,.W K G G G G G G G G G G G G G G G G G G G G G G G G G G G G G G G G G G G G G G G G E ,.,.,.",
",.,.W K G G G E ,.,.,.,.,.,.,.,.,.,.W K G G G G G G G G G G G G G G G G G G G G G G G G G G G G G G G G G G G G G G G G E ,.,.,.",
",.,.W L G G G E ,.,.,.,.,.,.,.,.,.,.W P G G G G G G G G G G G G G G G G G G G G G G G G K K L J G G G G G G G G G G G G E ,.,.,.",
",.,.W L G G G E W ,.,.,.,.,.,.,.,.,.W E G G G G G G G G G G G G G G G G G G G G G G G J W W W W W E P K H G G G G G G G E ,.,.,.",
",.,.W E G G G L W W W W ,.,.,.,.,.,.,.W G G G G G G G G G G G G G G G G G G G G G G G L W ,.,.,.,.W W W W E E P G G G G W ,.,.,.",
",.,.,.E G G G G G H K R E W W W ,.,.,.W P G G G G G G G G G 2 * * * * * = = * * * = 1 g l ,.,.,.,.,.,.,.,.,.W E G G G J W ,.,.,.",
",.,.,.W G G G G G G G G G G P W ,.,.,.W W G G G G G G G G G * ;.>.>.>.>.>.>.>.>.>.:.&.' &   ,.,.,.,.,.,.,.,.,.E G G G L W ,.,.,.",
",.,.,.W J G G G G G G G G G G W W ,.,.,.W P G G G G G G G G * >.>.>.>.>.>.>.>.>.>.>.>.>.;.u   ,.,.,.,.,.,.,.W E G G G E W ,.,.,.",
",.,.,.W P G G G G G G G G G L W ,.,.,.,.,.W L G G G G G G G * >.>.>.>.>.>.>.>.>.>.>.>.>.>.;.O ,.,.,.,.,.,.,.W L G G G W ,.,.,.,.",
",.,.,.W E G G G G G G G G H W W ,.,.,.,.,.W W L G G G G G G * >.>.>.O.D D D D D ! [ :.>.>.>.{   ,.,.,.,.,.,.W H G G K W ,.,.,.,.",
",.,.,.,.W K G G G G G G G E W ,.,.,.,.,.,.,.W L G G G G G G * >.>.>...d b n m V B # u >.>.>.=.% # # 7 ,.,.W I a : * , -   ,.,.,.",
",.,.,.,.W R G G G G G G L W ,.,.,.,.,.,.,.,.W K G G G G G G : >.>.>...h G P W W ,.,.  &.>.>.>.>.>.%.5 N E E f y -.>.>.*.  ,.,.,.",
",.,.,.,.,.W H G G G G J W W ,.,.,.,.,.,.,.W W K G G H J H G * >.>.>...j E W W ,.,.,.,.+.>.>.>.>.>.>. .: n c * @.>.>.>._   ,.,.,.",
",.,.,.,.,.W R G G G G L W ,.,.,.,.,.,.,.W W K G G G E W W W < >.>.>...l W ,.,.,.,.,.  &.>.>.:.;.>.>.>.F 2 1 / >.>.>.$.  ,.,.,.,.",
",.,.,.,.,.W W J G G G L W ,.,.,.,.,.,.W W L G G G G W ,.,.,.+ >.>.>.o.,.,.,.,.,.,.  i >.>.>.=.T >.>.>.-.5 y :.>.>.:.r ,.,.,.,.,.",
",.,.,.,.,.,.W E G G G P W ,.,.,.,.,.,.W P G G G G L W ,.,.,.  >.>.>.#.p p p p p Q | :.>.>.>.[ :  .>.>.>.X.@.>.>.>.(   ,.,.,.,.,.",
",.,.,.,.,.,.,.W L G G G E W ,.,.,.,.W P G G G G G E W ,.,.,.  >.>.>.>.>.>.>.>.>.>.>.>.>.>.:.y h , =.>.>.>.>.>.>.@.X ,.,.,.,.,.,.",
",.,.,.,.,.,.,.W W J G G G E W ,.,.W E G G G G G G W ,.,.,.,.  >.>.>.>.>.>.>.>.>.>.>.>.>.:.Y 3 M a S >.>.>.>.>.:.e ,.,.,.,.,.,.,.",
",.,.,.,.,.,.,.,.W E G G G H E W E E H G G G G G L W ,.,.,.,.  >.>.>.>.>.>.>.>.>.>.>.>.;.q % C G n : [ >.>.>.>.(   ,.,.,.,.,.,.,.",
",.,.,.,.,.,.,.,.,.W E G G G H H H G G G G G G G E W ,.,.,.,.  >.>.>...* , y U #.>.>.>.>._ @ E G x * %.>.>.>.>.#.  ,.,.,.,.,.,.,.",
",.,.,.,.,.,.,.,.,.,.W E G G G G G G G G G G G G W ,.,.,.,.,.  >.>.>...h M Z k + &.>.>.>.:.6 B n : ' >.>.>.>.>.>.^   ,.,.,.,.,.,.",
",.,.,.,.,.,.,.,.,.,.,.W E G G G G G G G G G G K W ,.,.,.,.,.. >.>.>...h G G E k t >.>.>.>.] 1 s A >.>.>.-.:.>.>.:.q ,.,.,.,.,.,.",
",.,.,.,.,.,.,.,.,.,.,.,.W E H G G G G G G G G K W ,.,.,.,.,.@ >.>.>...h G G H I 4 ..>.>.>.:.9 * *.>.>.>.p { >.>.>.#.  ,.,.,.,.,.",
",.,.,.,.,.,.,.,.,.,.,.,.,.W E K G G G G G G G L W ,.,.,.,.,.> >.>.>...h G G G G v 0 :.>.>.>. .] >.>.>.o.    =.>.>.>.^   ,.,.,.,.",
",.,.,.,.,.,.,.,.,.,.,.,.,.,.W W P G G G G G G J E E W W W W > >.>.>...h G G G G M 1 ' >.>.>.>.>.>.>.;.O ,.  u >.>.>.:.w ,.,.,.,.",
",.,.,.,.,.,.,.,.,.,.,.,.,.,.,.W W W K G G G G G G G G J K K ; >.>.>...h G G G G G x < ;.>.>.>.>.>.>.Q   ,.,.  { >.>.>.#.  ,.,.,.",
",.,.,.,.,.,.,.,.,.,.,.,.,.,.,.,.,.W W E L G G G G G G G G G * ;.>.>.` h G G G G G G 2 ~ :.>.>.>.>.+.  ,.,.,.,.  &.>.>.>.w ,.,.,.",
",.,.,.,.,.,.,.,.,.,.,.,.,.,.,.,.,.,.,.W W W L H G G G G G G 2 * * * = x G G G G K R C 8 > o         ,.,.,.,.,.,.          ,.,.,.",
",.,.,.,.,.,.,.,.,.,.,.,.,.,.,.,.,.,.,.,.,.W W W E R K H G G G G G G G G J L R W W W ,.,.,.,.,.,.,.,.,.,.,.,.,.,.,.,.,.,.,.,.,.,.",
",.,.,.,.,.,.,.,.,.,.,.,.,.,.,.,.,.,.,.,.,.,.,.,.W W W W W E E E E E E W W W W ,.,.,.,.,.,.,.,.,.,.,.,.,.,.,.,.,.,.,.,.,.,.,.,.,.",
",.,.,.,.,.,.,.,.,.,.,.,.,.,.,.,.,.,.,.,.,.,.,.,.,.,.,.,.,.,.,.,.,.,.,.,.,.,.,.,.,.,.,.,.,.,.,.,.,.,.,.,.,.,.,.,.,.,.,.,.,.,.,.,.",
",.,.,.,.,.,.,.,.,.,.,.,.,.,.,.,.,.,.,.,.,.,.,.,.,.,.,.,.,.,.,.,.,.,.,.,.,.,.,.,.,.,.,.,.,.,.,.,.,.,.,.,.,.,.,.,.,.,.,.,.,.,.,.,.",
",.,.,.,.,.,.,.,.,.,.,.,.,.,.,.,.,.,.,.,.,.,.,.,.,.,.,.,.,.,.,.,.,.,.,.,.,.,.,.,.,.,.,.,.,.,.,.,.,.,.,.,.,.,.,.,.,.,.,.,.,.,.,.,."
};
