/* XPM */
static char *kfocus_bug_wizard[] = {
/* columns rows colors chars-per-pixel */
"64 64 116 2 ",
"   c #646464",
".  c #6C6C6C",
"X  c #666E7B",
"o  c #67707C",
"O  c #6E737C",
"+  c #727272",
"@  c #797979",
"#  c #3F6D9D",
"$  c #176AA7",
"%  c #1B6FAF",
"&  c #0A6EB0",
"*  c #1B70B0",
"=  c #2C6FA8",
"-  c #346FA6",
";  c #2672AF",
":  c #3770A6",
">  c #2A72B0",
",  c #3476B2",
"<  c #3B78B3",
"1  c #5C7392",
"2  c #677384",
"3  c #6C7585",
"4  c #6F7887",
"5  c #67778E",
"6  c #6A7689",
"7  c #6A788E",
"8  c #757980",
"9  c #7A7D82",
"0  c #707A89",
"q  c #6A7B94",
"w  c #6C7E98",
"e  c #727E92",
"r  c #5477A0",
"t  c #607DA3",
"y  c #0079C1",
"u  c #0B7AC1",
"i  c #137BC2",
"p  c #1C7CC2",
"a  c #247DC2",
"s  c #2B7FC3",
"d  c #7F8183",
"f  c #7B838E",
"g  c #2F80C3",
"h  c #3481C4",
"j  c #3E84C5",
"k  c #1D99F3",
"l  c #239AF3",
"z  c #2C9BF3",
"x  c #349CF3",
"c  c #3C9EF3",
"v  c #419FF3",
"b  c #45A0F3",
"n  c #4CA1F4",
"m  c #54A4F4",
"M  c #5DA6F3",
"N  c #5FA8F4",
"B  c #6AA7ED",
"V  c #6FA9ED",
"C  c #7EAEEC",
"Z  c #61A7F3",
"A  c #63A9F4",
"S  c #6BACF4",
"D  c #72AEF3",
"F  c #7DB2F4",
"G  c #808285",
"H  c #ADAEAF",
"J  c #ACAEB0",
"K  c #AFB0B2",
"L  c #B1B1B2",
"P  c #B6BAC1",
"I  c #BABDC2",
"U  c #84B1EC",
"Y  c #8CB5EE",
"T  c #97BBED",
"R  c #9CBDED",
"E  c #84B5F3",
"W  c #88B7F3",
"Q  c #8EBAF3",
"!  c #93BCF4",
"~  c #9ABFF2",
"^  c #A4BDE1",
"/  c #AABFE1",
"(  c #BEC1C5",
")  c #9DC0F2",
"_  c #AEC2E1",
"`  c #ACC3E9",
"'  c #BCCAE3",
"]  c #B4C9EA",
"[  c #BECFEA",
"{  c #A4C4F2",
"}  c #A9C6F2",
"|  c #ADC9F2",
" . c #B3CCF2",
".. c #B8CFF2",
"X. c #BBD1F2",
"o. c #C1C2C5",
"O. c #C6CBD3",
"+. c #CBCED4",
"@. c #CED0D4",
"#. c #C0CDE3",
"$. c #C6D2E6",
"%. c #CFD9E7",
"&. c #C3D2EB",
"*. c #D2DAE7",
"=. c #D5DBE8",
"-. c #DADFE8",
";. c #C4D6F2",
":. c #C9D9F2",
">. c #D3DEF2",
",. c #D4E0F3",
"<. c #DCE4F2",
"1. c #E0E6F1",
"2. c #E3E9F4",
"3. c #ECEEF1",
"4. c #EFF0F1",
"5. c None",
/* pixels */
"5.5.5.5.5.5.5.5.5.5.5.5.5.5.5.5.5.5.5.5.5.5.5.5.5.5.5.5.5.5.5.5.5.5.5.5.5.5.5.5.5.5.5.5.5.5.5.5.5.5.5.5.5.5.5.5.5.5.5.5.5.5.5.5.",
"5.5.5.5.5.5.5.5.5.5.5.5.5.5.5.5.5.5.5.5.5.5.5.5.5.5.5.5.5.5.5.5.5.5.5.5.5.5.5.5.5.5.5.5.5.5.5.5.5.5.5.5.5.5.5.5.5.5.5.5.5.5.5.5.",
"5.5.5.5.5.5.5.5.5.5.5.5.5.5.5.5.5.5.5.5.5.5.5.5.5.5.5.j j j j j j j j j j 5.5.5.5.5.5.5.5.5.5.5.5.5.5.5.5.5.5.5.5.5.5.5.5.5.5.5.",
"5.5.5.5.5.5.5.5.5.5.5.5.5.5.5.5.5.5.5.5.5.5.5.j j j h h s p p i i p a s h j j j j 5.5.5.5.5.5.5.5.5.5.5.5.5.5.5.5.5.5.5.5.5.5.5.",
"5.5.5.5.5.5.5.5.5.5.5.5.5.5.5.5.5.5.5.5.j j j s a y y y y y y y y y y y y y i a h j j j 5.5.5.5.5.5.5.5.5.5.5.5.5.5.5.5.5.5.5.5.",
"5.5.5.5.5.5.5.5.5.5.5.5.5.5.5.5.5.5.j j h a y y y y y y y y y y y y y y y y y y y i s j j j 5.5.5.5.5.5.5.5.5.5.5.5.5.5.5.5.5.5.",
"5.5.5.5.5.5.5.5.5.5.5.5.5.5.5.5.j j h a y y y y y y y y y y y y y y y y y y y y y y y y s j j 5.5.5.5.5.5.5.5.5.5.5.5.5.5.5.5.5.",
"5.5.5.5.5.5.5.5.5.5.5.5.5.5.5.j j a y y y y y y u p a h h h j y y y y y y y y y y y y y y u h j j 5.5.5.5.5.5.5.5.5.5.5.5.5.5.5.",
"5.5.5.5.5.5.5.5.5.5.5.5.5.j j h u y y y y y y p j j j j 5.5.j s y y y y y y y y y y y y y y y p j j 5.5.5.5.5.5.5.5.5.5.5.5.5.5.",
"5.5.5.5.5.5.5.5.5.5.5.5.j j s y y y y y y y y p j 5.5.5.5.5.j j y y y y y y y p h h h a y y y y u h j 5.5.5.5.5.5.5.5.5.5.5.5.5.",
"5.5.5.5.5.5.5.5.5.5.5.j j p y y y y y y y y y a j 5.5.5.5.5.5.j s y y y y y p j j 5.j j h i y y y y h j 5.5.5.5.5.5.5.5.5.5.5.5.",
"5.5.5.5.5.5.5.5.5.5.j j p y y y y y y y y y y u j 5.5.5.5.5.5.j h y y y y p j j 5.5.5.5.j j g y y y u s j 5.5.5.5.5.5.5.5.5.5.5.",
"5.5.5.5.5.5.5.5.5.j j p y y y y y y y y y y y y h j 5.5.5.5.5.5.j a y y p j j 5.5.5.5.5.5.j h y y y y y s j 5.5.5.5.5.5.5.5.5.5.",
"5.5.5.5.5.5.5.5.j j p y y y a a a a y y y y y y g j 5.5.5.5.5.5.j h y i j j 5.5.5.5.5.5.5.5.h y y y y y y h j 5.5.5.5.5.5.5.5.5.",
"5.5.5.5.5.5.5.5.j s y y y p j j j j p y y y y y i j 5.5.5.5.5.5.5.j j j j 5.5.5.5.5.5.5.5.j j y y y y y y y j j 5.5.5.5.5.5.5.5.",
"5.5.5.5.5.5.5.j h y y y p j j 5.5.j j i y y y y y j j 5.5.5.5.5.5.5.5.j 5.5.5.5.5.5.5.5.5.j s y y y y y y y i j j 5.5.5.5.5.5.5.",
"5.5.5.5.5.5.j j u y y i j j 5.5.5.5.j j i y y y y s j 5.5.5.5.5.5.5.5.5.5.5.5.5.5.5.5.5.5.j i y y y y y y y y a j 5.5.5.5.5.5.5.",
"5.5.5.5.5.5.j a y y y a j 5.5.5.5.5.5.j h u y y y i j 5.5.5.5.5.5.5.5.5.5.5.5.5.5.5.5.5.5.h y y y y y y y y y y j j 5.5.5.5.5.5.",
"5.5.5.5.5.j h y y y y a j 5.5.5.5.5.5.5.j h y y y y h j 5.j j j j j j 5.5.5.5.5.5.5.5.5.j s y y y y y y y y y y p j 5.5.5.5.5.5.",
"5.5.5.5.5.j a y y y y s j 5.5.5.5.5.5.5.5.j h y y y a g s h a i p a h j j j 5.5.5.5.5.5.j a y y y y y y y y y y y h j 5.5.5.5.5.",
"5.5.5.5.j h y y y y y y h j 5.5.5.5.5.5.5.5.j s y y y y y y y y y y y y s h j j 5.5.5.5.j j u y y u p p p p u y y p j 5.5.5.5.5.",
"5.5.5.5.j a y y y y y y i j j 5.5.5.5.5.5.5.j s y y y y y y y y y y y y y y g j j 5.5.5.5.j h j j j j j j j s y y y h j 5.5.5.5.",
"5.5.5.5.j u y y y y y y y a j 5.5.5.5.5.5.5.j s y y y y y y y y y y y y y y y p j j 5.5.5.5.5.5.5.5.5.5.5.5.j y y y s j 5.5.5.5.",
"5.5.5.j h y y y y y y y y y h j 5.5.5.5.5.j h u y y y y y y y y y y y y y y y y p j j 5.5.5.5.5.5.5.5.5.5.5.j p y y u j 5.5.5.5.",
"5.5.5.j a y y y y y y y y y u j j 5.5.5.j j u y y y y y y y y y y y y y y y y y y a j 5.5.5.5.5.5.5.5.5.5.5.j s y y y j j 5.5.5.",
"5.5.5.j u y y y y y y y y y y j 5.5.5.5.j p y y y y y y y y y y y y y y y y y y y y h j 5.5.5.5.5.5.5.5.5.5.5.h y y y s j 5.5.5.",
"5.5.5.h y y y y y y y y a g h j 5.5.5.j h y y y y y y y y y y y y y y y y y y y y y i j 5.5.5.5.5.5.5.5.5.5.5.j y y y p j 5.5.5.",
"5.5.j h y y y u p h h j j j j 5.5.5.5.j p y y y y y y y y y y y y y y y y y y y y y y h j 5.5.5.5.5.5.5.j j j j y y y y j 5.5.5.",
"5.5.j g y y y h j j j 5.5.5.5.5.5.5.5.h y y y y y y y y y y y y y y y y y y y y y y y p j 5.5.j j j j j s s i y y y y y j 5.5.5.",
"5.5.j a y y y h 5.5.5.5.5.5.5.5.5.5.j h y y y y y y y y y y y y y y y y y y y y y y y y h h j h s p y y y y y y y y y y h 5.5.5.",
"5.5.j p y y y h 5.5.5.5.5.5.5.5.5.5.j a y y y y y y y y y y y y y y y y y y y y y y y y y y y y y y y y y y y y y y y y h 5.5.5.",
"5.5.j p y y y h 5.5.5.5.5.5.5.5.5.5.j p y y y y y y y y y y y y y y y y y y y y y y y y y y y y y y y y y y y y y y y y h 5.5.5.",
"5.5.j p y y y h 5.5.5.5.5.5.5.5.5.5.j p y y y y y y y y y y y y y y y y y y y y y y y y y y y y y y y y y y y y y y y y h 5.5.5.",
"5.5.j p y y y j 5.5.5.5.5.5.5.5.5.5.j s y y y y y y y y y y y y y y y y y y y y y y y y p p a u y y y y y y y y y y y y h 5.5.5.",
"5.5.j s y y y h j 5.5.5.5.5.5.5.5.5.j h y y y y y y y y y y y y y y y y y y y y y y y ; r q 3 o X 2 1 r * y y y y y y y h 5.5.5.",
"5.5.j s y y y a j j j j 5.5.5.5.5.5.5.j y y y y y y y y y y y y y y y y y y y y y - q 9 L +.%.>.>.%.O.J 8 5 : a y y y y j 5.5.5.",
"5.5.5.h y y y y y u p s j j j j 5.5.5.j a y y y y y y y y y y y y y y y y y y * q d I ` F v z k k x b E [ o.8 1 & y y u j 5.5.5.",
"5.5.5.j y y y y y y y y y y a j 5.5.5.j j y y y y y y y y y y y y y y y y y = f J / m k k k l k k k k k k A ' J 6 $ y a j 5.5.5.",
"5.5.5.j i y y y y y y y y y y j j 5.5.5.j g y y y y y y y y y y y y y y y = f P U l k k k k k k k k k k k l z T I 0 $ h j 5.5.5.",
"5.5.5.j s y y y y y y y y y a j 5.5.5.5.5.j a y y y y y y y y y y y y y * f P B v v k k k l m l k k k k l D k k Q L 6 < 5.5.5.5.",
"5.5.5.j j y y y y y y y y u j j 5.5.5.5.5.j j a y y y y y y y y y y y y w J C x  .X.c k l W ,.m k k k z  .3.! k l ~ K 1 5.5.5.5.",
"5.5.5.5.j i y y y y y y y h j 5.5.5.5.5.5.5.j a y y y y y y y y y y y : d ^ k S ,.<.D k v ;.3.~ k k l  .<.| 3.! k z ' 8 5.5.5.5.",
"5.5.5.5.j s y y y y y y a j 5.5.5.5.5.5.5.5.j p y y y y y y y y y y y e P b k k S D k k k c ! k k l ] <.A l  .2.S k S o.  5.5.5.",
"5.5.5.5.5.j u y y y y u j j 5.5.5.5.5.5.5.j j p y y u u u y y y y y > d ` k k k k k l z k k k k l | 1.S k A <. .z k k &.+ 5.5.5.",
"5.5.5.5.5.j g y y y y g j 5.5.5.5.5.5.5.j j p y y y h j j j h h h h t L S k k k k l E { l k k l | 3.! k M <...z k k k ! L 5.5.5.",
"5.5.5.5.5.j j i y y y a j 5.5.5.5.5.5.j j a y y y u j 5.5.5.5.5.5.5.9 O.z k k k k M <.3.Q k l } 3.4.<.E <.X.z k k k k N @.  5.5.",
"5.5.5.5.5.5.j h y y y a j 5.5.5.5.5.5.j s y y y y a j 5.5.5.5.5.5.5.@ $.l k k k k k E } l l { 4.4.4.4.3.X.z k k k k k c -.  5.5.",
"5.5.5.5.5.5.5.j a y y y h j 5.5.5.5.j g y y y y y h j 5.5.5.5.5.5.5.+ ;.k k k k k k k l l { 3.4.4.4.4.X.z k k k k k k k 2.  5.5.",
"5.5.5.5.5.5.5.j j i y y y j j 5.5.j h y y y y y y j 5.5.5.5.5.5.5.j O :.k k k k k k k l { 3.4.4.4.3.X.x k k k k k k k k 2.  5.5.",
"5.5.5.5.5.5.5.5.j h y y y u j h h h u y y y y y a j 5.5.5.5.5.5.5.j 4 $.l k k k k k k { 3.4.4.4.4.;.x k k k k k k k k c -.  5.5.",
"5.5.5.5.5.5.5.5.5.j h y y y u u u y y y y y y y h j 5.5.5.5.5.5.j s w O.l k k k k l ) 3.4.4.4.4.X.x k k k k k k k l k A +.  5.5.",
"5.5.5.5.5.5.5.5.5.5.j h y y y y y y y y y y y y j 5.5.5.5.5.5.5.j i r L S k k k k ) 3.4.4.4.4.;.x k k k k k k k k k k ! L 5.5.5.",
"5.5.5.5.5.5.5.5.5.5.5.j s y y y y y y y y y y a j 5.5.5.5.5.5.j h y ; 9 ` k k k ~ 3.4.4.4.4.;.c k k k k k k k k k k l &.+ 5.5.5.",
"5.5.5.5.5.5.5.5.5.5.5.5.j h u y y y y y y y y p j 5.5.5.5.5.5.j i y y e I n k E 3.4.4.4.4.;.x k k k k k k k k k k k S o.  5.5.5.",
"5.5.5.5.5.5.5.5.5.5.5.5.5.j j p y y y y y y y a j 5.5.5.5.5.j h y y y - G / k n >.4.4.4.:.c k k k k k k k k k k k x #.@ 5.5.5.5.",
"5.5.5.5.5.5.5.5.5.5.5.5.5.5.j j s y y y y y y i s h j j j j j a y y y y w J C k n >.4.:.x k k k k k k k k k k k k R H   5.5.5.5.",
"5.5.5.5.5.5.5.5.5.5.5.5.5.5.5.j j j p y y y y y y y y i p p p y y y y y * f P V k n  .c k k k k k k k k k k k k Y I + 5.5.5.5.5.",
"5.5.5.5.5.5.5.5.5.5.5.5.5.5.5.5.5.j j h a y y y y y y y y y y y y y y y y = f P U l k k k k k k k k k k k k z R I @ 5.5.5.5.5.5.",
"5.5.5.5.5.5.5.5.5.5.5.5.5.5.5.5.5.5.5.j j h s u y y y y y y y y y y y y y y = f J _ M k k k k k k k k k k S #.L + 5.5.5.5.5.5.5.",
"5.5.5.5.5.5.5.5.5.5.5.5.5.5.5.5.5.5.5.5.5.j j j h g p u y y y y y y y y i a s < w d ( ] E n x k k x m Q &.o.@   5.5.5.5.5.5.5.5.",
"5.5.5.5.5.5.5.5.5.5.5.5.5.5.5.5.5.5.5.5.5.5.5.5.j j j j j h h h h h h j j j j 5.5.5.@ @ L +.*.,.,.=.@.L + + 5.5.5.5.5.5.5.5.5.5.",
"5.5.5.5.5.5.5.5.5.5.5.5.5.5.5.5.5.5.5.5.5.5.5.5.5.5.5.5.5.5.5.5.5.5.5.5.5.5.5.5.5.5.5.5.5.. + . . . . 5.5.5.5.5.5.5.5.5.5.5.5.5.",
"5.5.5.5.5.5.5.5.5.5.5.5.5.5.5.5.5.5.5.5.5.5.5.5.5.5.5.5.5.5.5.5.5.5.5.5.5.5.5.5.5.5.5.5.5.5.5.5.5.5.5.5.5.5.5.5.5.5.5.5.5.5.5.5.",
"5.5.5.5.5.5.5.5.5.5.5.5.5.5.5.5.5.5.5.5.5.5.5.5.5.5.5.5.5.5.5.5.5.5.5.5.5.5.5.5.5.5.5.5.5.5.5.5.5.5.5.5.5.5.5.5.5.5.5.5.5.5.5.5."
};
