/* XPM */
static char *kfocus_bug_tools[] = {
/* columns rows colors chars-per-pixel */
"64 64 75 1 ",
"  c #0079C1",
". c #0179C1",
"X c #0279C1",
"o c #0379C1",
"O c #0479C1",
"+ c #0579C1",
"@ c #0679C1",
"# c #077AC1",
"$ c #087AC1",
"% c #097AC1",
"& c #0A7AC1",
"* c #0B7AC1",
"= c #0C7AC1",
"- c #0D7AC1",
"; c #0E7AC1",
": c #0F7AC1",
"> c #107AC1",
", c #117AC1",
"< c #127AC1",
"1 c #137BC1",
"2 c #137BC2",
"3 c #147BC2",
"4 c #157BC2",
"5 c #167BC2",
"6 c #177BC2",
"7 c #187BC2",
"8 c #197BC2",
"9 c #1A7BC2",
"0 c #1B7CC2",
"q c #1C7CC2",
"w c #1D7CC2",
"e c #1E7CC2",
"r c #1F7CC2",
"t c #207CC2",
"y c #217CC2",
"u c #217DC2",
"i c #227DC2",
"p c #237DC2",
"a c #247DC2",
"s c #257DC2",
"d c #267DC2",
"f c #267EC2",
"g c #277EC3",
"h c #287EC3",
"j c #297EC3",
"k c #2A7EC3",
"l c #2B7EC3",
"z c #2B7FC3",
"x c #2C7FC3",
"c c #2D7FC3",
"v c #2E7FC3",
"b c #2F7FC3",
"n c #2F80C3",
"m c #3080C3",
"M c #3180C3",
"N c #3280C3",
"B c #3380C3",
"V c #3381C3",
"C c #3381C4",
"Z c #3481C4",
"A c #3581C4",
"S c #3681C4",
"D c #3782C4",
"F c #3882C4",
"G c #3982C4",
"H c #3A82C4",
"J c #3A83C4",
"K c #3B83C4",
"L c #3C83C4",
"P c #3D83C4",
"I c #3D84C4",
"U c #3D84C5",
"Y c #3E84C5",
"T c #3F84C5",
"R c None",
/* pixels */
"RRRRRRRRRRRRRRRRRRRRRRRRRRRRRRRRRRRRRRRRRRRRRRRRRRRRRRRRRRRRRRRR",
"RRRRRRRRRRRRRRRRRRRRRRRRRRRRRRRRRRRRRRRRRRRRRRRRRRRRRRRRRRRRRRRR",
"RRRRRRRRRRRRRRRRRRRRRRRRRRRTTTTTTTTTYRRRRRRRRRRRRRRRRRRRRRRRRRRR",
"RRRRRRRRRRRRRRRRRRRRRRRTTYDnhe8249ilNJTTTRRRRRRRRRRRRRRRRRRRRRRR",
"RRRRRRRRRRRRRRRRRRRRTTPne@            <dSTTYRRRRRRRRRRRRRRRRRRRR",
"RRRRRRRRRRRRRRRRRRTTDuo                  >zLTYRRRRRRRRRRRRRRRRRR",
"RRRRRRRRRRRRRRRRTTSw                       @jPTRRRRRRRRRRRRRRRRR",
"RRRRRRRRRRRRRRRTLs.     O8gMSSS$             *bTTRRRRRRRRRRRRRRR",
"RRRRRRRRRRRRRTTV&      rYTTTRRTk               wLTRRRRRRRRRRRRRR",
"RRRRRRRRRRRRTYg        rYRRRRRYL+      eFFFe    -ATRRRRRRRRRRRRR",
"RRRRRRRRRRRTUe         rTRRRRRRTf     0YTRTTZ3   XMTRRRRRRRRRRRR",
"RRRRRRRRRRTL8          ;TRRRRRRTJ.   8UTRRRRTYz   .cTRRRRRRRRRRR",
"RRRRRRRRRTY8            DTRRRRRRTp  6PTRRRRRRYA     vTRRRRRRRRRR",
"RRRRRRRRTYe   aaat      hTRRRRRRTF 4LTRRRRRRRRA     .BTRRRRRRRRR",
"RRRRRRRRTh   rTYYY0     >TRRRRRRRTGLTRRRRRRRRTA      +GTRRRRRRRR",
"RRRRRRRTZ.  6UTRRTP5     FYRRRRRRRRYRRRRRRRRRTh       4YTRRRRRRR",
"RRRRRRTL=  <LTRRRRTK>    kTRRRRRRRRRRRRRRRRRRT<        gTRRRRRRR",
"RRRRRRTs   dTRRRRRRTG&   <TRRRRRRRRRRRRRRRRRRG         .FTRRRRRR",
"RRRRRTD.   dTRRRRRRRTS+   GTRTTTTTTRRRRRRRRRTv          8TRRRRRR",
"RRRRRTr    dTRRRRRRRRTV.  sccct60aNLTTRRRRRRTw           ZTRRRRR",
"RRRRTF     .STRRRRRRRRTh           osGTYRRRRTH%  &4qqq*  9TRRRRR",
"RRRRTa      >PTRRRRRRRTh             oxTTRRRRTGLYTTTTTv   DTRRRR",
"RRRRU@       aTRRRRRRRTh               wYTRRRRRRRRRRRRK.  gTRRRR",
"RRRTM         BTRRRRRTF#                0UTRRRRRRRRRRRT9  *YRRRR",
"RRRTu         *LTRRRTK-                  aTRRRRRRRRRRRTv   SYRRR",
"RRRT*         #YRRRRTt                    NTRRRRRRRRRRRF   lTRRR",
"RRRF       +wzDTRRRTZ                     ,YRRRRRRRRRRRF   0TRRR",
"RRYM   #exDYTTYRRRRT7                      mTRRRRRRRTTTF   @TRRR",
"RRTk   ATTYRRRRRRRRG                       wTRRYTTTFmd6.    KRRR",
"RRTi   SRRRRRRRRRRTc                       XFFFBjq@         SRRR",
"RRTw   SRRRRRRRRRRTp                                        BRRR",
"RRT8   SRRRRRRRRRRT8                                        MRRR",
"RRT0   SRRRRRRRRRRTw                                        NRRR",
"RRTe   SRRRRRRRRRRTg                        eee:            ZRRR",
"RRTd   STRRRRRRRRRTV                       :TTTTKCkw$       FRRR",
"RRTv   fDTTTRRRRRRRU@                      gTRRRRYTTTGMp   .YRRR",
"RRRZ     $rcDYTTRRRTf                     .GTRRRRRRRRRTS   ,TRRR",
"RRRL.        @aTRRRTK+                    pTRRRRRRRRRRRS   aTRRR",
"RRRT6          GYRRRTv                   -LTRRRRRRRRRRTS   MTRRR",
"RRRTj         yTRRRRRTa                 XATRRRRRRRRRRRTf   KRRRR",
"RRRYF        -LTRRRRRTTr               oNTRRRRRRRRRRRRT-  9TRRRR",
"RRRRT5       ZTRRRRRRRYr              -ZTRRRRTTTYRRRRTS   nTRRRR",
"RRRRTv      dTRRRRRRRRYr            .pLTRRRRRTgjcMAFFFi  #PRRRRR",
"RRRRRY=    1UTRRRRRRRTY8  ---O    >gJTTRRRRRTc           jTRRRRR",
"RRRRRTx    fTRRRRRRRTYe   ZYYYDNZHTTTRRRRRRRTs          +LYRRRRR",
"RRRRRYY>   fTRRRRRRYTa   @YRRRRRRRRRRRRRRRRRTV          zTRRRRRR",
"RRRRRRTV   fTRRRRRRTj    pTRRRRRRRRRRRRRRRRRRUo        <YYRRRRRR",
"RRRRRRRTu   mTRRRRTv     BTRRRRRRRRRRRRRRRRRRTw       .ATRRRRRRR",
"RRRRRRRTP,  oATRRTN.    +YRRRRRRRTTTRRRRRRRRRTv       kTRRRRRRRR",
"RRRRRRRRTD+  $FFFAo     uTRRRRRRRYaMTRRRRRRRRRF      qTYRRRRRRRR",
"RRRRRRRRRTZX  ***@      NTRRRRRRTv .NTRRRRRRRRF     5PTRRRRRRRRR",
"RRRRRRRRRRTm.          oIRRRRRRRY>  oZTRRRRRRTF    ,KTRRRRRRRRRR",
"RRRRRRRRRRRTMo         rTRRRRRRTM    OATRRRTTZ<   5KTRRRRRRRRRRR",
"RRRRRRRRRRRRTZ$        rTRRRRRRT4     @STTTFq    qPTRRRRRRRRRRRR",
"RRRRRRRRRRRRRTJ6       rTRRRRRTV       $iii.   .kTTRRRRRRRRRRRRR",
"RRRRRRRRRRRRRRTYjo     4vSUTTTT8              <ATYRRRRRRRRRRRRRR",
"RRRRRRRRRRRRRRRYTGq       .4eee             +zYTRRRRRRRRRRRRRRRR",
"RRRRRRRRRRRRRRRRRTTDe                     +gLTYRRRRRRRRRRRRRRRRR",
"RRRRRRRRRRRRRRRRRRRTTFh=                9nPTTRRRRRRRRRRRRRRRRRRR",
"RRRRRRRRRRRRRRRRRRRRRTTYSzq$        ,pmKTTRRRRRRRRRRRRRRRRRRRRRR",
"RRRRRRRRRRRRRRRRRRRRRRRRYTTTKSVmMZFYTTTRRRRRRRRRRRRRRRRRRRRRRRRR",
"RRRRRRRRRRRRRRRRRRRRRRRRRRRRRRRRRRRRRRRRRRRRRRRRRRRRRRRRRRRRRRRR",
"RRRRRRRRRRRRRRRRRRRRRRRRRRRRRRRRRRRRRRRRRRRRRRRRRRRRRRRRRRRRRRRR",
"RRRRRRRRRRRRRRRRRRRRRRRRRRRRRRRRRRRRRRRRRRRRRRRRRRRRRRRRRRRRRRRR"
};
