/* XPM */
static char * kfocus_bug_wizard_xpm[] = {
"64 64 480 2",
"  	c None",
". 	c #ECF0F9",
"+ 	c #EBEFF9",
"@ 	c #EDF0F9",
"# 	c #E3EBF9",
"$ 	c #CDDDFA",
"% 	c #C1D7FA",
"& 	c #B7D0FA",
"* 	c #ECEFF9",
"= 	c #E1EAF9",
"- 	c #A9C8FB",
"; 	c #6DA5FC",
"> 	c #3F89FD",
", 	c #1C74FE",
"' 	c #0165FF",
") 	c #0064FF",
"! 	c #E4ECF9",
"~ 	c #9ABFFB",
"{ 	c #448CFD",
"] 	c #0567FF",
"^ 	c #D8E4FA",
"/ 	c #6FA6FC",
"( 	c #0E6CFF",
"_ 	c #ECF0FA",
": 	c #ECF0F8",
"< 	c #DFE8F9",
"[ 	c #6AA3FC",
"} 	c #0969FF",
"| 	c #0868FF",
"1 	c #9BC0FB",
"2 	c #1872FE",
"3 	c #E0E9F9",
"4 	c #5396FD",
"5 	c #4C91FD",
"6 	c #DDE7F9",
"7 	c #EBF0F8",
"8 	c #C2D8FA",
"9 	c #2278FE",
"0 	c #0366FF",
"a 	c #EBF0F9",
"b 	c #B4CFFA",
"c 	c #0F6DFF",
"d 	c #106DFF",
"e 	c #6AA2FC",
"f 	c #93BCFB",
"g 	c #BDD4FA",
"h 	c #B4D0FA",
"i 	c #B3CEFA",
"j 	c #ECF1F9",
"k 	c #A8C7FB",
"l 	c #4F93FD",
"m 	c #3081FE",
"n 	c #0769FF",
"o 	c #A6C6FB",
"p 	c #2B7DFE",
"q 	c #94BCFB",
"r 	c #5597FD",
"s 	c #E6ECF9",
"t 	c #88B4FC",
"u 	c #116EFF",
"v 	c #C3D8FA",
"w 	c #0668FF",
"x 	c #E7EDF9",
"y 	c #E5EBF9",
"z 	c #1370FF",
"A 	c #478EFD",
"B 	c #DAE5F9",
"C 	c #639FFC",
"D 	c #0466FF",
"E 	c #2379FE",
"F 	c #70A7FC",
"G 	c #3A86FE",
"H 	c #7BADFC",
"I 	c #EBEFF8",
"J 	c #D0E0FA",
"K 	c #2B7EFE",
"L 	c #5698FD",
"M 	c #5093FD",
"N 	c #3785FE",
"O 	c #609DFD",
"P 	c #72A8FC",
"Q 	c #CBDCFA",
"R 	c #A2C4FB",
"S 	c #D9E4F9",
"T 	c #E9EEF9",
"U 	c #126FFF",
"V 	c #1972FE",
"W 	c #257AFE",
"X 	c #91BAFB",
"Y 	c #488EFD",
"Z 	c #B2CEFA",
"` 	c #1672FE",
" .	c #DEE8F9",
"..	c #EDF1F9",
"+.	c #6BA4FC",
"@.	c #B0CCFB",
"#.	c #1F76FE",
"$.	c #0265FF",
"%.	c #C9DBFA",
"&.	c #2178FE",
"*.	c #D7E3FA",
"=.	c #DBE6F9",
"-.	c #3B87FD",
";.	c #B5CFFA",
">.	c #90BAFB",
",.	c #7CADFC",
"'.	c #7DAEFC",
").	c #D5E2FA",
"!.	c #6EA5FC",
"~.	c #3E89FD",
"{.	c #5B9AFD",
"].	c #0B6AFF",
"^.	c #5194FD",
"/.	c #87B4FC",
"(.	c #76AAFC",
"_.	c #64A0FC",
":.	c #1A73FE",
"<.	c #448DFD",
"[.	c #ADCBFB",
"}.	c #1772FE",
"|.	c #BED5FA",
"1.	c #92BBFB",
"2.	c #AFCCFB",
"3.	c #CCDDFA",
"4.	c #EDF0FA",
"5.	c #E2EAF9",
"6.	c #1470FE",
"7.	c #D4E2FA",
"8.	c #BFD5FA",
"9.	c #BBD3FA",
"0.	c #6CA4FC",
"a.	c #ABC9FB",
"b.	c #D9E5F9",
"c.	c #1571FE",
"d.	c #4E92FD",
"e.	c #418BFD",
"f.	c #BCD3FA",
"g.	c #1D75FE",
"h.	c #65A0FC",
"i.	c #1B74FE",
"j.	c #1E75FE",
"k.	c #5496FD",
"l.	c #8AB6FB",
"m.	c #0C6BFF",
"n.	c #B8D1FA",
"o.	c #B6D0FA",
"p.	c #A0C3FB",
"q.	c #CDDEFA",
"r.	c #C4D9FA",
"s.	c #0363F8",
"t.	c #0B60E6",
"u.	c #0D60E0",
"v.	c #0D60E1",
"w.	c #0961EA",
"x.	c #0164FC",
"y.	c #0163FD",
"z.	c #135ED2",
"A.	c #2757A2",
"B.	c #37527C",
"C.	c #3F4F69",
"D.	c #3E506B",
"E.	c #335386",
"F.	c #2259AE",
"G.	c #0C5FE2",
"H.	c #0164FB",
"I.	c #1B5ABE",
"J.	c #385179",
"K.	c #40516B",
"L.	c #4D5E77",
"M.	c #596C84",
"N.	c #566981",
"O.	c #495A74",
"P.	c #315489",
"Q.	c #125ED3",
"R.	c #95BDFB",
"S.	c #0E5FDF",
"T.	c #355281",
"U.	c #54667E",
"V.	c #8098AD",
"W.	c #ABC8DA",
"X.	c #C7E6F7",
"Y.	c #C8E8F9",
"Z.	c #C2E2F3",
"`.	c #9FBACE",
" +	c #748BA2",
".+	c #2B5697",
"++	c #0563F4",
"@+	c #8BB6FB",
"#+	c #EAEFF9",
"$+	c #1A5CC1",
"%+	c #3E4F6C",
"&+	c #50627B",
"*+	c #97B1C5",
"=+	c #C6E7F8",
"-+	c #C1E0F1",
";+	c #829AB0",
">+	c #44566F",
",+	c #36527E",
"'+	c #67A0FC",
")+	c #1E5AB7",
"!+	c #778EA4",
"~+	c #C5E4F5",
"{+	c #B9D8EA",
"]+	c #5C6F88",
"^+	c #3C5171",
"/+	c #0F5FDC",
"(+	c #428BFD",
"_+	c #1F77FE",
":+	c #C0D6FA",
"<+	c #195CC3",
"[+	c #8EA8BD",
"}+	c #C4E3F4",
"|+	c #6F849B",
"1+	c #3A5075",
"2+	c #0861EC",
"3+	c #408AFD",
"4+	c #3D506D",
"5+	c #8CA5BA",
"6+	c #687C94",
"7+	c #345384",
"8+	c #6BA1F6",
"9+	c #ACCAFB",
"0+	c #335385",
"a+	c #7389A1",
"b+	c #C3E5F9",
"c+	c #B8D9ED",
"d+	c #A0BDD3",
"e+	c #9AB6CC",
"f+	c #BEE0F4",
"g+	c #B1D1E5",
"h+	c #829BB2",
"i+	c #C2E4F8",
"j+	c #BBDCF1",
"k+	c #556981",
"l+	c #758CB2",
"m+	c #185CC5",
"n+	c #4B5D78",
"o+	c #B7D9F4",
"p+	c #BCE0FA",
"q+	c #ABCDE7",
"r+	c #5F758F",
"s+	c #4E607A",
"t+	c #9BB9D3",
"u+	c #94B1CB",
"v+	c #495B75",
"w+	c #677E97",
"x+	c #B0D2EC",
"y+	c #ABCCE6",
"z+	c #4D5F78",
"A+	c #41526B",
"B+	c #768FA8",
"C+	c #BBDFF9",
"D+	c #A0C0D9",
"E+	c #40506A",
"F+	c #475670",
"G+	c #D9DEE9",
"H+	c #468EFD",
"I+	c #0064FE",
"J+	c #355280",
"K+	c #85A3BF",
"L+	c #B5DBFA",
"M+	c #B1D6F5",
"N+	c #718BA7",
"O+	c #5A6F8A",
"P+	c #A9CCEB",
"Q+	c #A4C6E5",
"R+	c #536681",
"S+	c #7C97B3",
"T+	c #B3D9F8",
"U+	c #A4C7E6",
"V+	c #4C5E78",
"W+	c #728CA9",
"X+	c #9ABAD8",
"Y+	c #455671",
"Z+	c #738CA8",
"`+	c #B4DAF9",
" @	c #657C97",
".@	c #727E95",
"+@	c #9CC1FB",
"@@	c #4A5C78",
"#@	c #ABD4F8",
"$@	c #ADD6FA",
"%@	c #AAD1F5",
"&@	c #9DC1E4",
"*@	c #99BEE1",
"=@	c #ACD5F9",
"-@	c #9EC3E6",
";@	c #6F8AA9",
">@	c #7A96B5",
",@	c #97BBDD",
"'@	c #98BCDE",
")@	c #42506C",
"!@	c #0A6AFF",
"~@	c #2258AD",
"{@	c #6984A4",
"]@	c #A6D1FA",
"^@	c #A1CBF3",
"/@	c #98BEE6",
"(@	c #4A5D78",
"_@	c #6D89A9",
":@	c #88ACD0",
"<@	c #43556F",
"[@	c #83A4C8",
"}@	c #4D607C",
"|@	c #71A7FC",
"1@	c #CFDFFA",
"2@	c #8FB9FB",
"3@	c #80B0FC",
"4@	c #4C6387",
"5@	c #83A9D1",
"6@	c #9FCCFB",
"7@	c #94BDE9",
"8@	c #556C8B",
"9@	c #9BC8F6",
"0@	c #92BAE7",
"a@	c #495C79",
"b@	c #475A77",
"c@	c #99C4F2",
"d@	c #7EA1C8",
"e@	c #6986A9",
"f@	c #404F68",
"g@	c #8FBDEE",
"h@	c #97C7FB",
"i@	c #93C2F4",
"j@	c #536A8A",
"k@	c #637FA4",
"l@	c #96C6FA",
"m@	c #8BB6E7",
"n@	c #526888",
"o@	c #789EC9",
"p@	c #799DC8",
"q@	c #779BC5",
"r@	c #97BDFB",
"s@	c #DFE5EE",
"t@	c #8FC0FA",
"u@	c #90C1FB",
"v@	c #8DBDF6",
"w@	c #617EA5",
"x@	c #86B3E8",
"y@	c #495D7B",
"z@	c #40506B",
"A@	c #7397C6",
"B@	c #7BA3D5",
"C@	c #5C9AFD",
"D@	c #D7DDE8",
"E@	c #475A78",
"F@	c #89BCFC",
"G@	c #88BBFB",
"H@	c #7FACE7",
"I@	c #475B79",
"J@	c #7096C9",
"K@	c #7CAAE3",
"L@	c #9DC1FB",
"M@	c #3282FE",
"N@	c #85B4FC",
"O@	c #DBE0EB",
"P@	c #435572",
"Q@	c #81B7FC",
"R@	c #79AAE9",
"S@	c #475C7C",
"T@	c #6991C7",
"U@	c #73A1DD",
"V@	c #E6EBF4",
"W@	c #77AEF6",
"X@	c #7AB2FC",
"Y@	c #73A6E9",
"Z@	c #465B7C",
"`@	c #3F506B",
" #	c #658EC7",
".#	c #6893CF",
"+#	c #3F4F68",
"@#	c #247AFE",
"##	c #45597A",
"$#	c #6B9EE5",
"%#	c #73ADFD",
"&#	c #6DA1EA",
"*#	c #455B7C",
"=#	c #618BC8",
"-#	c #5C84BD",
";#	c #404E69",
">#	c #C5D8FA",
",#	c #315A99",
"'#	c #5781BD",
")#	c #6BA8FD",
"!#	c #669DEA",
"~#	c #445A7C",
"{#	c #5B87C8",
"]#	c #4C6994",
"^#	c #438CFD",
"/#	c #1A5BC2",
"(#	c #48658E",
"_#	c #64A3FD",
":#	c #5F99EA",
"<#	c #44597C",
"[#	c #5784C8",
"}#	c #629FF6",
"|#	c #40526E",
"1#	c #A8C8FB",
"2#	c #0562F3",
"3#	c #5993E8",
"4#	c #5D9EFD",
"5#	c #5994EA",
"6#	c #43597C",
"7#	c #5281C8",
"8#	c #517FC2",
"9#	c #3E4F69",
"0#	c #28569F",
"a#	c #46689B",
"b#	c #5599FE",
"c#	c #528EE7",
"d#	c #425778",
"e#	c #4D7EC8",
"f#	c #5497F9",
"g#	c #415779",
"h#	c #0A61E8",
"i#	c #3E4F6D",
"j#	c #3F506A",
"k#	c #4B84DB",
"l#	c #4E94FE",
"m#	c #4C89E7",
"n#	c #415678",
"o#	c #497BC8",
"p#	c #4671B3",
"q#	c #5D9BFD",
"r#	c #2159B1",
"s#	c #405578",
"t#	c #4688EE",
"u#	c #478FFE",
"v#	c #4685E7",
"w#	c #405679",
"x#	c #4477C8",
"y#	c #457CD2",
"z#	c #9FC3FB",
"A#	c #2E5490",
"B#	c #3F5B88",
"C#	c #3F87F6",
"D#	c #3F8AFF",
"E#	c #3F88F9",
"F#	c #3F80E3",
"G#	c #3F5271",
"H#	c #0462F5",
"I#	c #36537F",
"J#	c #3E577F",
"K#	c #397CE7",
"L#	c #3885FF",
"M#	c #3A75D3",
"N#	c #3E5271",
"O#	c #0862ED",
"P#	c #335285",
"Q#	c #3F5274",
"R#	c #3B70C6",
"S#	c #3884FD",
"T#	c #3882F6",
"U#	c #3B67AD",
"V#	c #3F4F6A",
"W#	c #0363F9",
"X#	c #2B5699",
"Y#	c #3E5883",
"Z#	c #3A73CD",
"`#	c #3883F9",
" $	c #397FF1",
".$	c #3C6CBB",
"+$	c #3E5374",
"@$	c #6FA5FB",
"#$	c #869FC8",
"$$	c #55647D",
"%$	c #3F516E",
"&$	c #3C6097",
"*$	c #3B6BB7",
"=$	c #3A70C7",
"-$	c #3A75D5",
";$	c #3A75D2",
">$	c #3A6FC2",
",$	c #3B6AB2",
"'$	c #3E5B8B",
")$	c #CEDFFA",
"!$	c #8792A5",
"~$	c #46556F",
"{$	c #404F69",
"]$	c #3E4F6A",
"                                                      . . . . . . . . . . +                                                     ",
"                                            + @ . . . . # $ % & & % $ # . . . . * .                                             ",
"                                        . . . = - ; > , ' ) ) ) ) ) ) ' , > ; - = . . .                                         ",
"                                    . . ! ~ { ] ) ) ) ) ) ) ) ) ) ) ) ) ) ) ) ) ] { ~ ! . . .                                   ",
"                                . . ^ / ( ) ) ) ) ) ) ) ) ) ) ) ) ) ) ) ) ) ) ) ) ) ) ( / ^ . _                                 ",
"                            : . < [ } ) ) ) ) ) ) ) ) ) ) ) ) ) ) ) ) ) ) ) ) ) ) ) ) ) ) | [ < . *                             ",
"                          . . 1 2 ) ) ) ) ) ) ) ) ) ) ) ) ) ) ) ) ) ) ) ) ) ) ) ) ) ) ) ) ) ) 2 1 . .                           ",
"                      @ . 3 4 ) ) ) ) ) ) ) ) ) ) ) ) ) ) ) ) ) ) ) ) ) ) ) ) ) ) ) ) ) ) ) ) ) ) 5 6 . .                       ",
"                    7 . 8 9 ) ) ) ) ) ) ) ) ) ) ) ) ) ) ) 0 ] ) ) ) ) ) ) ) ) ) ) ) ) ) ) ) ) ) ) ) 9 8 . a                     ",
"                  a . b c ) ) ) ) ) ) ) ) ) ) ) ) d e f g ! h ) ) ) ) ) ) ) ) ) ) ) ) ) ) ) ) ) ) ) ) c i . j                   ",
"                j . k | ) ) ) ) ) ) ) ) ) ) ) ) ) l . . . . . m ) ) ) ) ) ) ) ) ) ] ) ) ) ) ) ) ) ) ) ) n o . a                 ",
"              . . b | ) ) ) ) ) ) ) ) ) ) ) ) ) ) p . . . . . q ) ) ) ) ) ) ) ) r s t u ) ) ) ) ) ) ) ) ) n i . .               ",
"              . v c ) ) ) ) ) ) ) ) ) ) ) ) ) ) ) w x . . . . y z ) ) ) ) ) ) A x . . B C D ) ) ) ) ) ) ) ) c v .               ",
"            . 3 E ) ) ) ) ) ) ) ) ) ) ) ) ) ) ) ) ) v . . . . . F ) ) ) ) ) G ! . . . . . H ) ) ) ) ) ) ) ) ) E 3 .             ",
"          I . r ) ) ) ) ) ) ) ) ) ) ) ) ) ) ) ) ) ) 1 . . . . . J D ) ) ) K 6 . . . . . . L ) ) ) ) ) ) ) ) ) ) M . I           ",
"          . 1 ) ) ) ) ) ) ) ) N O ) ) ) ) ) ) ) ) ) P . . . . . . s Q R / S . . . . . . T U ) ) ) ) ) ) ) ) ) ) ) 1 .           ",
"        _ 3 V ) ) ) ) ) ) ) W 6 . X w ) ) ) ) ) ) ) Y . . . . . . . . . . . . . . . . . Z ) ) ) ) ) ) ) ) ) ) ) ) `  .:         ",
"      ... +.) ) ) ) ) ) ) U Q . . . @.u ) ) ) ) ) ) #.. . . . . . . . . . . . . . . . . e ) ) ) ) ) ) ) ) ) ) ) ) ) +.. +       ",
"      7 ^ } ) ) ) ) ) ) $.Z . . . . . %.9 ) ) ) ) ) ' 3 . . . . . . . . . . . . . . . . &.) ) ) ) ) ) ) ) ) ) ) ) ) } ^ .       ",
"      . F ) ) ) ) ) ) ) } *.. . . . . . =.-.) ) ) ) ) @.s ;.>.,.'.f b x . . . . . . . ).' ) ) ) ) ) ) ) ) ) ) ) ) ) ) !..       ",
"    . ! c ) ) ) ) ) ) ) ) ~.T . . . . . . s {.) ) ) ) } } ) ) ) ) ) ) ].^.g . . . . . . /.) ) ) ) ) ) ) ) ) ) ) ) ) ) ( ! .     ",
"    . 1 ) ) ) ) ) ) ) ) ) ) (.. . . . . . . . (.) ) ) ) ) ) ) ) ) ) ) ) ) ) M B . . . . . _.) ) ) ) $.:.&.) ) ) ) ) ) ) ~ .     ",
"  @ . <.) ) ) ) ) ) ) ) ) ) $.[.. . . . . . . [.) ) ) ) ) ) ) ) ) ) ) ) ) ) ) }.|.. . . . s H 1.2.3.s . x 2 ) ) ) ) ) ) { . 4.  ",
"  a 5.w ) ) ) ) ) ) ) ) ) ) ) 6.7.. . . . . 8.d ) ) ) ) ) ) ) ) ) ) ) ) ) ) ) ) d 9.. . . . . . . . . . . 0.) ) ) ) ) ) ] = a   ",
"  . a.) ) ) ) ) ) ) ) ) ) ) ) ) _.. . . . b.c.) ) ) ) ) ) ) ) ) ) ) ) ) ) ) ) ) ) V B . . . . . . . . . . 8 ) ) ) ) ) ) ) - .   ",
"  . !.) ) ) ) ) ) ) ) ) ) ) ) ) 2.. . . . ^.) ) ) ) ) ) ) ) ) ) ) ) ) ) ) ) ) ) ) ) d.. . . . . . . . . . . K ) ) ) ) ) ) ; .   ",
"... e.) ) ) ) ) ) ) ) ) ) ) ) #.. . . . f.) ) ) ) ) ) ) ) ) ) ) ) ) ) ) ) ) ) ) ) ) ' g . . . . . . . . . < > ) ) ) ) ) ) > .   ",
". . g.) ) ) ) ) ) ) ) ) ) ) ) h.. . . . 4 ) ) ) ) ) ) ) ) ) ) ) ) ) ) ) ) ) ) ) ) ) ) ^.. . . . . . x o ^.| ) ) ) ) ) ) ) i.. * ",
". ! $.) ) ) ) ) ) ) ) j.k.l.% T . . . x ].) ) ) ) ) ) ) ) ) ) ) ) ) ) ) ) ) ) ) ) ) ) m.s . . . n._.z ) ) ) ) ) ) ) ) ) ) ' 5.. ",
". J ) ) ) ) ) ) $.q 7.. . . . . . . . o.) ) ) ) ) ) ) ) ) ) ) ) ) ) ) ) ) ) ) ) ) ) ) ) p.Q (.9 ) ) ) ) ) ) ) ) ) ) ) ) ) ) q.a ",
". r.) ) ) ) ) ) ( . . . . . . . . . . >.) ) ) ) ) ) ) ) ) ) ) ) ) ) ) ) ) ) ) ) ) ) ) ) ) ) ) ) ) ) ) ) ) ) ) ) ) ) ) ) ) ) 8 7 ",
". n.) ) ) ) ) ) ( . . . . . . . . . . ,.) ) ) ) ) ) ) ) ) ) ) ) ) ) ) ) ) ) ) ) ) ) ) ) ) s.t.u.v.w.x.) ) ) ) ) ) ) ) ) ) ) ;.. ",
". n.) ) ) ) ) ) ( . . . . . . . . . . '.) ) ) ) ) ) ) ) ) ) ) ) ) ) ) ) ) ) ) ) ) y.z.A.B.C.C.C.C.C.D.E.F.G.) ) ) ) ) ) ) ) ;.. ",
". r.) ) ) ) ) ) ( . . . . . . . . . . X ) ) ) ) ) ) ) ) ) ) ) ) ) ) ) ) ) ) ) H.I.J.C.C.C.K.L.M.N.O.C.C.C.C.P.Q.) ) ) ) ) ) 8 . ",
". J ) ) ) ) ) ) $.R.7.. . . . . . . . ;.) ) ) ) ) ) ) ) ) ) ) ) ) ) ) ) ) ) S.T.C.C.U.V.W.X.Y.Y.Y.Y.Z.`. +O.C.C..+++) ) ) ) q.. ",
"* ! $.) ) ) ) ) ) ) ) #.r @+% #+. . . x m.) ) ) ) ) ) ) ) ) ) ) ) ) ) ) ) $+%+C.&+*+=+Y.Y.Y.Y.Y.Y.Y.Y.Y.Y.-+;+>+C.,+t.) ) ' # . ",
". . j.) ) ) ) ) ) ) ) ) ) ) ) '+. . . . k.) ) ) ) ) ) ) ) ) ) ) ) ) ) ) )+C.C.!+~+Y.Y.Y.Y.Y.Y.Y.Y.Y.Y.Y.Y.Y.Y.{+]+C.^+/+) , . . ",
"  . (+) ) ) ) ) ) ) ) ) ) ) ) _+. . . . :+' ) ) ) ) ) ) ) ) ) ) ) ) ) <+C.K.[+Y.Y.Y.Y.Y.Y.Y.Y.Y.Y.Y.Y.Y.Y.Y.Y.Y.}+|+C.1+2+3+. + ",
"  . / ) ) ) ) ) ) ) ) ) ) ) ) ) @.. . . . ^.) ) ) ) ) ) ) ) ) ) ) ) G.4+C.5+Y.Y.Y.Y.Y.Y.Y.Y.Y.Y.Y.Y.Y.Y.Y.Y.Y.Y.Y.=+6+C.7+8+.   ",
"  . 9+) ) ) ) ) ) ) ) ) ) ) ) ) _.. . . . B 2 ) ) ) ) ) ) ) ) ) ) y.0+C.a+b+b+b+c+d+b+b+b+b+e+f+b+b+b+b+b+g+h+i+b+b+j+k+C.l+.   ",
"  a # w ) ) ) ) ) ) ) ) ) ) ) 6.7.. . . . . 8.c ) ) ) ) ) ) ) ) ) m+C.n+o+p+p+q+r+s+t+p+p+u+v+w+x+p+p+p+y+z+A+B+C+p+p+D+E+F+G+  ",
"  . . H+) ) ) ) ) ) ) ) ) ) $.[.. . . . . . . k ) ) ) ) ) ) ) ) I+J+C.K+L+L+L+M+N+O+P+L+L+Q+R+S+T+L+L+U+V+W+X+Y+Z+`+L+L+ @C..@  ",
"    . +@) ) ) ) ) ) ) ) ) ) (.. . . . . . . #+_.) ) ) ) ) ) ) ) /+C.@@#@$@$@$@$@%@&@$@$@$@$@*@=@$@$@-@n+;@$@$@>@K.,@$@$@'@C.)@  ",
"    . y d ) ) ) ) ) ) ) ) ~.T . . . . . . = Y ) ) ) ) c !@) ) ) ~@C.{@]@]@]@]@]@]@]@]@^@]@]@]@]@]@/@(@_@]@]@:@<@[@]@]@]@]@}@C.  ",
"      . |@) ) ) ) ) ) ) } *.. . . . . . 1@p ) ) ) ) ) :+x n.2@3@4@C.5@6@6@6@6@6@6@6@7@8@9@6@6@6@0@a@b@c@6@5@<@d@6@6@6@6@6@e@C.f@",
"      . S !@) ) ) ) ) ) $.Z . . . . . & c.) ) ) ) ) | T . . . I F+C.g@h@h@h@h@h@h@i@j@C.k@l@h@m@a@C.C.n@o@<@p@h@h@h@h@h@h@q@C.C.",
"      + . ; ) ) ) ) ) ) ) U 3.. . . r@n ) ) ) ) ) ) m . . . . s@C.K.t@u@u@u@u@u@u@u@v@w@u@u@x@y@C.C.C.C.z@A@u@u@u@u@u@u@u@B@C.C.",
"        . 3 :.) ) ) ) ) ) ) W 6 + (.' ) ) ) ) ) ) ) C@. . . . D@C.E@F@F@F@F@F@F@F@F@F@G@F@H@I@C.C.C.C.z@J@F@F@F@F@F@F@F@F@K@C.C.",
"          . L@) ) ) ) ) ) ) ) M@e.) ) ) ) ) ) ) ) ) N@. . . . O@C.P@Q@Q@Q@Q@Q@Q@Q@Q@Q@Q@R@S@C.C.C.C.z@T@Q@Q@Q@Q@Q@Q@Q@Q@Q@U@C.C.",
"          I . L ) ) ) ) ) ) ) ) ) ) ) ) ) ) ) ) ) ) @.. . . . V@E+C.W@X@X@X@X@X@X@X@X@Y@Z@C.C.C.C.`@ #X@X@X@X@X@X@X@X@X@X@.#C.+#",
"            . = @#) ) ) ) ) ) ) ) ) ) ) ) ) ) ) ) ) b.. . . . . ##C.$#%#%#%#%#%#%#%#&#*#C.C.C.C.`@=#%#%#%#%#%#%#%#%#%#%#%#-#C.;#",
"              . >#d ) ) ) ) ) ) ) ) ) ) ) ) ) ) ) 2 . . . . . y ,#C.'#)#)#)#)#)#)#!#~#C.C.C.C.`@{#)#)#)#)#)#)#)#)#)#)#)#)#]#C.  ",
"              . . ;.} ) ) ) ) ) ) ) ) ) ) ) ) ) ) ^#. . . . . q /#C.(#_#_#_#_#_#:#<#C.C.C.C.`@[#_#_#_#_#_#_#_#_#_#_#_#_#}#|#C.  ",
"                . . 1#} ) ) ) ) ) ) ) ) ) ) ) ) ) +.. . . . . m 2#%+`@3#4#4#4#5#6#C.C.C.C.`@7#4#4#4#4#4#4#4#4#4#4#4#4#4#8#C.9#  ",
"                  @ . ;.d ) ) ) ) ) ) ) ) ) ) ) ) :.+.q |.y b ) ) 0#C.a#b#b#b#c#d#C.C.C.`@e#b#b#b#b#b#b#b#b#b#b#b#b#b#f#g#C.    ",
"                    a . >#W ) ) ) ) ) ) ) ) ) ) ) ) ) ) ) 0 ] ) ) h#i#j#k#l#l#l#m#n#C.`@o#l#l#l#l#l#l#l#l#l#l#l#l#l#l#p#C.C.    ",
"                        . ! q#) ) ) ) ) ) ) ) ) ) ) ) ) ) ) ) ) ) ) r#C.s#t#u#u#u#v#w#x#u#u#u#u#u#u#u#u#u#u#u#u#u#u#y#`@C.      ",
"                          . . z#:.) ) ) ) ) ) ) ) ) ) ) ) ) ) ) ) ) y.A#C.B#C#D#D#D#E#D#D#D#D#D#D#D#D#D#D#D#D#D#D#F#G#C.        ",
"                            _ . = !.!@) ) ) ) ) ) ) ) ) ) ) ) ) ) ) ) H#I#C.J#K#L#L#L#L#L#L#L#L#L#L#L#L#L#L#L#L#M#N#C.+#        ",
"                                j . b.P c ) ) ) ) ) ) ) ) ) ) ) ) ) ) ) O#P#C.Q#R#S#L#L#L#L#L#L#L#L#L#L#L#L#T#U#V#C.C.          ",
"                                  + . . y +@H+w ) ) ) ) ) ) ) ) ) ) ) ) ) W#X#C.C.Y#Z#`#L#L#L#L#L#L#L#L# $.$+$C.C.              ",
"                                        . . . # 9+/ e.j.$.) ) ) ) ) ) $.j.e.@$#$$$C.C.%$&$*$=$-$;$>$,$'$V#C.C.C.                ",
"                                            . . . . . . y )$v n.& v )$y . . . . V@!$~$C.C.C.C.C.C.C.C.C.C.C.                    ",
"                                                    * . . . . . . . @ . * ..              V#C.C.C.{$]$                          "};
