/* XPM */
static char * kfocus_bug_rx_xpm[] = {
"64 64 417 2",
"  	c None",
". 	c #EDF0F9",
"+ 	c #ECF0F9",
"@ 	c #EDF0F8",
"# 	c #E1EAF9",
"$ 	c #D7E3FA",
"% 	c #ECEFF9",
"& 	c #ECF1F9",
"* 	c #C9DBFA",
"= 	c #8DB7FB",
"- 	c #5E9CFD",
"; 	c #3B87FD",
"> 	c #1772FE",
", 	c #0064FF",
"' 	c #ECF0FA",
") 	c #B9D2FA",
"! 	c #639FFC",
"~ 	c #1972FE",
"{ 	c #E6ECF9",
"] 	c #8FB9FB",
"^ 	c #257AFE",
"/ 	c #8EB8FB",
"( 	c #E9EEF9",
"_ 	c #8AB6FB",
": 	c #1A73FE",
"< 	c #EBF0F9",
"[ 	c #BED5FA",
"} 	c #3282FE",
"| 	c #2C7EFE",
"1 	c #B6D0FA",
"2 	c #E8EEF9",
"3 	c #71A7FC",
"4 	c #0265FF",
"5 	c #D4E2FA",
"6 	c #3885FE",
"7 	c #C8DAFA",
"8 	c #1D75FE",
"9 	c #0668FF",
"0 	c #4B90FD",
"a 	c #75AAFC",
"b 	c #9EC2FB",
"c 	c #9BC0FB",
"d 	c #ECEFFA",
"e 	c #BDD4FA",
"f 	c #1370FF",
"g 	c #5093FD",
"h 	c #EBEFF9",
"i 	c #247AFE",
"j 	c #136FFF",
"k 	c #BCD3FA",
"l 	c #C7DAFA",
"m 	c #3081FE",
"n 	c #87B4FC",
"o 	c #3E89FD",
"p 	c #CCDDFA",
"q 	c #6AA2FC",
"r 	c #0567FF",
"s 	c #126FFF",
"t 	c #C6D9FA",
"u 	c #D2E1FA",
"v 	c #1C74FE",
"w 	c #0969FF",
"x 	c #DFE8F9",
"y 	c #0C6BFF",
"z 	c #E0E9F9",
"A 	c #448DFD",
"B 	c #1B74FE",
"C 	c #E7EDF9",
"D 	c #3382FE",
"E 	c #287BFE",
"F 	c #DAE5F9",
"G 	c #6EA5FC",
"H 	c #A0C3FB",
"I 	c #0165FF",
"J 	c #D0E0FA",
"K 	c #5F9DFD",
"L 	c #6AA3FC",
"M 	c #AFCCFB",
"N 	c #438CFD",
"O 	c #76AAFC",
"P 	c #ADCBFB",
"Q 	c #83B2FC",
"R 	c #5194FD",
"S 	c #CBDCFA",
"T 	c #267BFE",
"U 	c #1672FE",
"V 	c #D1E0FA",
"W 	c #4E92FD",
"X 	c #BBD3FA",
"Y 	c #2278FE",
"Z 	c #7DAEFC",
"` 	c #0868FF",
" .	c #95BDFB",
"..	c #73A8FC",
"+.	c #116EFF",
"@.	c #9CC1FB",
"#.	c #B4CFFA",
"$.	c #0366FF",
"%.	c #E4ECF9",
"&.	c #2B7DFE",
"*.	c #106DFF",
"=.	c #7FAFFC",
"-.	c #0B6AFF",
";.	c #BAD2FA",
">.	c #D5E2FA",
",.	c #B0CCFB",
"'.	c #B2CEFA",
").	c #7EAFFC",
"!.	c #5295FD",
"~.	c #DDE7F9",
"{.	c #408AFD",
"].	c #70A7FC",
"^.	c #6BA4FC",
"/.	c #A7C6FB",
"(.	c #5D9BFD",
"_.	c #4D91FD",
":.	c #A6C6FB",
"<.	c #0769FF",
"[.	c #BFD5FA",
"}.	c #CFDFFA",
"|.	c #DEE8F9",
"1.	c #74A9FC",
"2.	c #90BAFB",
"3.	c #AECBFB",
"4.	c #4F93FD",
"5.	c #2178FE",
"6.	c #CDDDFA",
"7.	c #619EFD",
"8.	c #B3CEFA",
"9.	c #69A2FC",
"0.	c #E2EAF9",
"a.	c #2379FE",
"b.	c #277CFE",
"c.	c #E3EBF9",
"d.	c #B7D0FA",
"e.	c #A2C4FB",
"f.	c #65A0FC",
"g.	c #458EFD",
"h.	c #CADCFA",
"i.	c #EAEFF9",
"j.	c #4A90FD",
"k.	c #448CFD",
"l.	c #5C9AFD",
"m.	c #609DFD",
"n.	c #C4D9FA",
"o.	c #6FA6FC",
"p.	c #1F77FE",
"q.	c #0466FF",
"r.	c #3684FE",
"s.	c #DCE7F9",
"t.	c #82B2FC",
"u.	c #2D7FFE",
"v.	c #EBEFF8",
"w.	c #B4D0FA",
"x.	c #E5EBF9",
"y.	c #B1CDFB",
"z.	c #0E6CFF",
"A.	c #94BCFB",
"B.	c #C3D8FA",
"C.	c #7BADFC",
"D.	c #0064FE",
"E.	c #0462F5",
"F.	c #0761EF",
"G.	c #0862EB",
"H.	c #0B60E4",
"I.	c #0D60E1",
"J.	c #0960E9",
"K.	c #0762EF",
"L.	c #C2D8FA",
"M.	c #0F5FDB",
"N.	c #37517D",
"O.	c #3F4F69",
"P.	c #3D506D",
"Q.	c #315489",
"R.	c #1F5AB5",
"S.	c #C0D6FA",
"T.	c #CEDFFA",
"U.	c #0263F9",
"V.	c #3A5075",
"W.	c #43526C",
"X.	c #7C8799",
"Y.	c #8C95A5",
"Z.	c #858FA0",
"`.	c #778295",
" +	c #626F84",
".+	c #41506A",
"++	c #41526D",
"@+	c #426AAA",
"#+	c #0866F9",
"$+	c #0A6AFF",
"%+	c #3C88FD",
"&+	c #A8C8FB",
"*+	c #9099A8",
"=+	c #FFFFFF",
"-+	c #F2F3F5",
";+	c #AFB6C1",
">+	c #56647B",
",+	c #5D6C85",
"'+	c #81ACF1",
")+	c #7AACFC",
"!+	c #488EFD",
"~+	c #135ED3",
"{+	c #9FA7B4",
"]+	c #F5F6F7",
"^+	c #7D8899",
"/+	c #6C798E",
"(+	c #EAEEF7",
"_+	c #C5D8FA",
":+	c #3D88FD",
"<+	c #297CFE",
"[+	c #FDFEFE",
"}+	c #788396",
"|+	c #9EA8B9",
"1+	c #1F76FE",
"2+	c #68A1FC",
"3+	c #3F89FD",
"4+	c #F1F2F4",
"5+	c #495871",
"6+	c #4E5E76",
"7+	c #E7EAF4",
"8+	c #67A0FC",
"9+	c #A4C6FB",
"0+	c #64A0FC",
"a+	c #929BAA",
"b+	c #59667D",
"c+	c #6B788C",
"d+	c #8A94A4",
"e+	c #D9DCE1",
"f+	c #97A0AE",
"g+	c #B1BAC8",
"h+	c #A3C5FB",
"i+	c #AAC9FB",
"j+	c #818C9D",
"k+	c #3B5072",
"l+	c #3B5173",
"m+	c #CED2D9",
"n+	c #D1D5DB",
"o+	c #8894A6",
"p+	c #77AAFC",
"q+	c #98BEFB",
"r+	c #96BCFB",
"s+	c #A6C5F9",
"t+	c #A3ABBC",
"u+	c #707C8F",
"v+	c #F9F9FA",
"w+	c #657389",
"x+	c #3A86FE",
"y+	c #91BAFB",
"z+	c #3483FE",
"A+	c #5B6980",
"B+	c #4D5B74",
"C+	c #4A5971",
"D+	c #3D5170",
"E+	c #3B77D6",
"F+	c #145ED0",
"G+	c #2857A0",
"H+	c #30548D",
"I+	c #325387",
"J+	c #2F548E",
"K+	c #52688B",
"L+	c #7A879B",
"M+	c #2B7EFE",
"N+	c #0A61E9",
"O+	c #A1C4FB",
"P+	c #616F86",
"Q+	c #46556E",
"R+	c #505F77",
"S+	c #3F4F6A",
"T+	c #175CC8",
"U+	c #2059B3",
"V+	c #3F5069",
"W+	c #418BFD",
"X+	c #C0CCE5",
"Y+	c #C6CCD9",
"Z+	c #626F85",
"`+	c #F4F5F7",
" @	c #4B5A72",
".@	c #3C5070",
"+@	c #135ED2",
"@@	c #3E506B",
"#@	c #536279",
"$@	c #DCDFE3",
"%@	c #FDFDFD",
"&@	c #1760D3",
"*@	c #6F7C91",
"=@	c #798599",
"-@	c #778397",
";@	c #6D7A8F",
">@	c #67748A",
",@	c #42526B",
"'@	c #B0B7C1",
")@	c #AEB5C0",
"!@	c #BDC2CB",
"~@	c #ECEEF0",
"{@	c #4A5972",
"]@	c #D9E4F9",
"^@	c #3170D2",
"/@	c #58667C",
"(@	c #ACB3BE",
"_@	c #FCFCFD",
":@	c #5F6C82",
"<@	c #6A768B",
"[@	c #FEFEFE",
"}@	c #7E899A",
"|@	c #3785FE",
"1@	c #4F83D3",
"2@	c #EEF0F2",
"3@	c #E5E8EB",
"4@	c #F6F7F8",
"5@	c #CACED5",
"6@	c #40506A",
"7@	c #D5D8DE",
"8@	c #C5CAD2",
"9@	c #8BB6FB",
"0@	c #498FFD",
"a@	c #6E95D3",
"b@	c #ADB4BF",
"c@	c #F7F8F9",
"d@	c #B7BDC7",
"e@	c #55637A",
"f@	c #8CA7D3",
"g@	c #A5ADB9",
"h@	c #99A1AF",
"i@	c #939CAA",
"j@	c #ACBBD3",
"k@	c #D0D4DA",
"l@	c #717D90",
"m@	c #DDE0E5",
"n@	c #D7DAE0",
"o@	c #41516B",
"p@	c #BFC6D4",
"q@	c #BFC4CD",
"r@	c #C1C6CF",
"s@	c #A3ABB7",
"t@	c #637085",
"u@	c #C1C8D5",
"v@	c #47566F",
"w@	c #657286",
"x@	c #B5BBC5",
"y@	c #ABB2BE",
"z@	c #3E5068",
"A@	c #EBF1F8",
"B@	c #C2C9D6",
"C@	c #2258AD",
"D@	c #1D5AB9",
"E@	c #2757A3",
"F@	c #3D506E",
"G@	c #CDD1D8",
"H@	c #DBDEE3",
"I@	c #D6DADF",
"J@	c #ECF0F8",
"K@	c #9DC1FB",
"L@	c #2A7CFE",
"M@	c #779DD9",
"N@	c #0961EA",
"O@	c #115ED6",
"P@	c #616E83",
"Q@	c #6D798D",
"R@	c #9AA3B0",
"S@	c #3E4E69",
"T@	c #0F5FDC",
"U@	c #2B5699",
"V@	c #C0C5CE",
"W@	c #D2D6DC",
"X@	c #5A687E",
"Y@	c #F8F9FA",
"Z@	c #F7F7F9",
"`@	c #0E60DD",
" #	c #748093",
".#	c #C7CCD3",
"+#	c #3F4E69",
"@#	c #80B0FC",
"##	c #0E5FDE",
"$#	c #C4C8D1",
"%#	c #F1F3F4",
"&#	c #7B8698",
"*#	c #828C9D",
"=#	c #0D60DF",
"-#	c #0C5FE2",
";#	c #647186",
">#	c #BDC3CC",
",#	c #F0F1F3",
"'#	c #4F5D75",
")#	c #5698FD",
"!#	c #0D60E0",
"~#	c #2C5595",
"{#	c #EBECEF",
"]#	c #D3E2FA",
"^#	c #85B4FC",
"/#	c #818B9C",
"(#	c #0861EC",
"_#	c #2C71DD",
":#	c #687589",
"<#	c #8690A0",
"[#	c #A5ACB8",
"}#	c #727E91",
"|#	c #2671E5",
"1#	c #FAFBFB",
"2#	c #0363F7",
"3#	c #47576F",
"4#	c #C8CDD4",
"5#	c #EBEDF0",
"6#	c #A8B0BB",
"7#	c #606E86",
"8#	c #4C5B73",
"9#	c #45556E",
"0#	c #65799B",
"a#	c #404F6A",
"b#	c #D9E0EA",
"c#	c #818BA0",
"d#	c #57667D",
"e#	c #516078",
"f#	c #56647C",
"g#	c #5E6C84",
"h#	c #8F99AB",
"i#	c #E4E9F2",
"j#	c #3E4F69",
"                                                      . . + + . . + @ . +                                                       ",
"                                              + + + + + + + # $ $ # + + + + + + %                                               ",
"                                        & + + + * = - ; > , , , , , , > ; - = * + + + '                                         ",
"                                    + + + ) ! ~ , , , , , , , , , , , , , , , , ~ ! ) + + +                                     ",
"                                + + { ] ^ , , , , , , , , , , , , , , , , , , , , , , ^ / { + +                                 ",
"                            % + ( _ : , , , , , , , , , , , , , , , , , , , , , , , , , , ~ _ ( + &                             ",
"                          < + [ } , , , , , , , , , , , , , , , , , , , , , , , , , , , , , , | 1 + +                           ",
"                        + 2 3 4 , , , , , , , , , , , , , , , , , , , , , , , , , , , , , , , , 4 3 2 +                         ",
"                    % + 5 6 , , , , , , , , , , , , , , , , , , , , , , , , , , , , , , , , , , , , 6 5 + +                     ",
"                  @ + 7 8 , , , , , , , , , , , , 9 0 a b * c , , , , , , , , , , , , , , , , , , , , 8 7 + d                   ",
"                + + e f , , , , , , , , , , , , , g + + + + h i , , , , , , , , , , , , , , , , , , , , j k + .                 ",
"                + l j , , , , , , , , , , , , , , m + + + + + n , , , , , , , , o p q r , , , , , , , , , s t +                 ",
"              + u v , , , , , , , , , , , , , , , w ( + + + + x y , , , , , , } z + + 7 A , , , , , , , , , B u +               ",
"            + C D , , , , , , , , , , , , , , , , , * + + + + + ! , , , , , E F + + + + + G , , , , , , , , , D C '             ",
"          + + q , , , , , , , , , , , , , , , , , , H + + + + + t I , , , B J + + + + + + K , , , , , , , , , , L + &           ",
"          + M I , , , , , , , i N , , , , , , , , , O + + + + + + * P Q R S + + + + + + h ~ , , , , , , , , , , I M +           ",
"        + { T , , , , , , , U V h O I , , , , , , , W + + + + + + + + + + + + + + + + + X , , , , , , , , , , , , Y { +         ",
"        + Z , , , , , , , ` X + + +  .9 , , , , , , i + + + + + + + + + + + + + + + + + .., , , , , , , , , , , , , Z +         ",
"      + z +., , , , , , , @.+ + + + + #.j , , , , , $.%.+ + + + + + + + + + + + + + + + &., , , , , , , , , , , , , *.x +       ",
"      + =., , , , , , , -.z + + + + + + p T , , , , , ;.+ >.,.c @.'.u + + + + + + + + >., , , , , , , , , , , , , , , ).+       ",
"    + 2 > , , , , , , , , !.+ + + + + + + ~.{., , , , : Y , , , , , , ^ ].>.+ + + + + + ^., , , , , , , , , , , , , , U C +     ",
"    + /., , , , , , , , , , = + + + + + + + 2 (., , , , , , , , , , , , , 9 G { + + + + h _., , , , , 4 w , , , , , , , :.+     ",
"  h + g , , , , , , , , , , <.[.+ + + + + + + X , , , , , , , , , , , , , , , &.}.+ + + + |.(.1.2.3.S { # +., , , , , , 4.+ h   ",
"  + { w , , , , , , , , , , , 5.x + + + + + }.8 , , , , , , , , , , , , , , , , 8 6.+ + + + + + + + + + + 7., , , , , , w { +   ",
"  + 8., , , , , , , , , , , , , 9.+ + + + 0.a., , , , , , , , , , , , , , , , , , b.c.+ + + + + + + + + + d., , , , , , , '.+   ",
"  + O , , , , , , , , , , , , , e.+ + + + f., , , , , , , , , , , , , , , , , , , , 7.+ + + + + + + + + + h 5., , , , , , a +   ",
"  + g., , , , , , , , , , , , U ( + + + 7 4 , , , , , , , , , , , , , , , , , , , , $.h.+ + + + + + + + + i.j., , , , , , k.+   ",
"% + 5., , , , , , , , , , , , l.+ + + + m., , , , , , , , , , , , , , , , , , , , , , (.+ + + + + + + n.o.v , , , , , , , p.+ + ",
"+ { q., , , , , , , , 9 r.^.e.s.+ + + i.+., , , , , , , , , , , , , , , , , , , , , , j ( + + + 5 t.u., , , , , , , , , , $.{ v.",
". V , , , , , , , O w.x.+ + + + + + + [ , , , , , , , , , , , , , , , , , , , , , , , , y.#  .{.$., , , , , , , , , , , , , }.+ ",
"+ t , , , , , , z.+ + + + + + + + + + A., , , , , , , , , , , , , , , , , , , , , , , , y w , , , , , , , , , , , , , , , , B.' ",
"+ ;., , , , , , z.+ + + + + + + + + + =., , , , , , , , , , , , , , , , , , , , , , , , , , , , , , , , , , , , , , , , , , d.+ ",
"+ d., , , , , , z.+ + + + + + + + + + C., , , , , , , , D.E.E.F.G.G.H.I.J.G.G.G.G.K.D., , , , , , , , , , , , , , , , , , , #.+ ",
"+ L., , , , , , z.+ + + + + + + + + + ] , , , , , , , M.N.O.O.O.O.O.O.O.O.O.O.O.O.O.P.Q.R.F., , , , , , , , , , , , , , , , S.+ ",
"+ T., , , , , , q.8.2 + + + + + + + + M , , , , , , U.V.W.X.Y.Y.Y.Y.Y.Y.Y.Y.Y.Y.Z.`. +.+O.++@+#+, , , , , , , , , , , , , , 6.+ ",
"+ # I , , , , , , , $+%+1.&+|.+ + + + %.<., , , , , M.O.*+=+=+=+=+=+=+=+=+=+=+=+=+=+=+-+;+>+O.,+'+m , , , , , , , , , , , , x + ",
"+ + ~ , , , , , , , , , , , 4 )++ + + + !+, , , , , ~+O.{+=+=+=+=+=+=+=+=+=+=+=+=+=+=+=+=+]+^+O./+(+_+].B , , , , , , , , > + + ",
"+ + :+, , , , , , , , , , , , <++ + + + 8., , , , , ~+O.{+=+=+=+=+=+=+=+=+=+=+=+=+=+=+=+=+=+[+}+O.|++ + i.M 1+, , , , , , ; + + ",
"  + 2+, , , , , , , , , , , , , e + + + + 3+, , , , ~+O.{+=+=+=+=+=+=+=+=+=+=+=+=+=+=+=+=+=+=+4+5+6+7++ + + r., , , , , , 8++   ",
"  + 9+, , , , , , , , , , , , , 0++ + + + }.z., , , ~+O.{+=+=+=+=+a+b+b+b+b+b+b+c+d+e+=+=+=+=+=+f+O.g++ + 6.I , , , , , , h++   ",
"  + ~.$., , , , , , , , , , , -.l + + + + + i+9 , , ~+O.{+=+=+=+=+j+O.k+l+l+l+l+P.O.W.m+=+=+=+=+n+O.o++ + p+, , , , , , $.s.<   ",
"  d + ; , , , , , , , , , , , q++ + + + + + + r+, , ~+O.{+=+=+=+=+j+O.J., , , $+s+t+O.u+=+=+=+=+v+O.w++ h Y , , , , , , x++ @   ",
"    + y+, , , , , , , , , , (.+ + + + + + + + )., , ~+O.{+=+=+=+=+j+O.J., , z+h.+ + A+B+=+=+=+=+=+C+D+E+:+, , F+G+H+I+J+K+L+    ",
"    . x w , , , , , , , , M+x.+ + + + + + 2 0+, , , ~+O.{+=+=+=+=+j+O.N+z+O+i.+ + + P+Q+[+=+=+=+=+R+O.S+T+, U+O.O.O.O.O.O.O.V+  ",
"      + ! , , , , , , , 9 h.+ + + + + + ~.W+, , , , ~+O.{+=+=+=+=+j+O.X++ + + + + Y+.+Z+=+=+=+=+=+`+n+ @.@+@@@#@$@v+=+=+%@^+O.  ",
"      + }.r , , , , , , 9 B.+ + + + + S T , , , , , &@O.{+=+=+=+=+j+O.*@=@=@-@;@>@,@O.'@=+=+=+=+=+=+=+)@O.S+O.!@=+=+=+=+~@{@O.  ",
"      d + (., , , , , , , 1+]@+ + + y.s , , , , , , ^@O.{+=+=+=+=+j+O.O.O.O.O.O.O./@(@=+=+=+=+=+=+=+=+_@:@O.<@[@=+=+=+=+}@O.    ",
"        + F s , , , , , , , |@{ + 2.9 , , , , , , , 1@O.{+=+=+=+=+2@3@3@3@3@3@3@4@=+=+=+=+=+=+=+=+=+=+=+5@6@7@=+=+=+=+8@O.V+    ",
"          + 9@, , , , , , , , 0@(., , , , , , , , , a@O.{+=+=+=+=+=+=+=+=+=+=+=+=+=+=+=+=+=+=+b@c@=+=+=+=+d@=+=+=+=+]+e@O.      ",
"          % i.{., , , , , , , , , , , , , , , , , , f@O.{+=+=+=+=+=+=+=+=+=+=+=+=+=+=+=+=+[@g@6@h@=+=+=+=+=+=+=+=+=+i@O.V+      ",
"            + $ > , , , , , , , , , , , , , , , , , j@O.{+=+=+=+=+=+=+=+=+=+=+=+=+=+=+=+k@l@O.O.W.m@=+=+=+=+=+=+=+n@o@O.        ",
"              + #.<., , , , , , , , , , , , , , , j p@O.{+=+=+=+=+7@q@q@r@k@4@=+=+=+=+=+s@O.O.O.O.<@[+=+=+=+=+=+_@t@O.          ",
"              % + 9+q., , , , , , , , , , , , , , o u@O.{+=+=+=+=+j+O.O.O.O.v@;+=+=+=+=+[+w@O.O.O.O.x@=+=+=+=+=+y@O.z@          ",
"                A@+ ] 4 , , , , , , , , , , , , , 2+B@O.{+=+=+=+=+j+O.C@D@E@F@O.G@=+=+=+=+5@O.O.O.,@H@=+=+=+=+=+I@o@O.          ",
"                  J@+ K@9 , , , , , , , , , , , , L@M@O.{+=+=+=+=+j+O.N@, , O@S+P@[+=+=+=+=+Q@O.O.R@=+=+=+=+=+=+=+a+O.S@        ",
"                    A@+ ,.f , , , , , , , , , , , , T@O.{+=+=+=+=+j+O.N@, , , U@O.V@=+=+=+=+W@O.X@Y@=+=+=+=+=+=+=+Z@/@O.        ",
"                      & + $ 3+, , , , , , , , , , , `@O.{+=+=+=+=+j+O.N@, , , H.S+Z+[@=+=+=+=+ #G@=+=+=+=+_@=+=+=+=+.#O.+#      ",
"                          + 2 @#$+, , , , , , , , , ##O.{+=+=+=+=+j+O.G., , , , U@O.$#=+=+=+=+%#=+=+=+=+`+&#[@=+=+=+=+*#O.      ",
"                            < + V 4.I , , , , , , , =#O.{+=+=+=+=+j+O.G., , , , -#S+;#[@=+=+=+=+=+=+=+=+R@O.>#=+=+=+=+,#'#O.    ",
"                              % + + n.)#q., , , , , !#O.{+=+=+=+=+j+O.N@, , , , , ~#O..#=+=+=+=+=+=+=+{#v@O.e@c@=+=+=+=+d@O.S@  ",
"                                  & + + ]#^#| , , , I.O.{+=+=+=+=+/#O.(#, , , , , _#O.:#=+=+=+=+=+=+=+<#O.O.O.[#=+=+=+=+[@}#O.  ",
"                                      h + + + * = g |#O.X.[+=+=+1# +S+2#q.5.g = * + -@O.y@Y@=+=+=+4+)@6@O.  O.3#4#5#-+-+-+6#O.  ",
"                                            < + + + v.7#O.3#8#8#9#O.0#l { + + + + .   a#O.O.{@8#8#6@O.O.      O.O.O.O.O.O.O.O.  ",
"                                                    % b#c#d#e#f#g#h#i#' v.&             a#+#+#+#O.O.j#          S@O.O.O.O.+#    "};
