<svg data-name="Layer 3" version="1.1" viewBox="0 0 128 128" xmlns="http://www.w3.org/2000/svg">
  <path d="m62.745 0.27762c-18.717 0.27409-37.106 9.3154-48.71 24.013-9.8172 12.218-14.935 28.138-13.903 43.792 0.85577 14.399 6.6842 28.486 16.442 39.135 10.695 11.784 25.87 19.501 41.768 20.784 15.401 1.3774 31.302-2.963 43.686-12.268 12.667-9.3433 21.768-23.473 24.749-38.954 3.281-16.429-0.1041-34.153-9.5345-48.041-8.2919-12.412-21.004-21.857-35.389-25.933-6.1929-1.8017-12.661-2.6529-19.109-2.5283z" fill="#ecf0f9"/>
  <path d="m64 3.5a60.5 60.5 0 0 0-60.5 60.5 60.5 60.5 0 0 0 60.5 60.5 60.5 60.5 0 0 0 60.5-60.5 60.5 60.5 0 0 0-60.5-60.5zm-0.70899 6.7616c18.747-0.29625 37.08 9.5541 46.622 25.878 11.755 18.63 10.026 44.298-3.9782 61.262-14.213 18.593-41.152 25.41-62.574 16.097-23.17-8.9874-37.093-35.63-32.022-59.817 4.1436-23.032 24.908-41.518 48.198-43.222 1.251-0.11098 2.5052-0.1772 3.755-0.19696z" fill="#3f4f69" stroke-width="6.7222"/>
  <path d="m66.527 21.953-21.65 40.333h20.167l-10.595 26.377-12.932-12.932 6.5909 30.316 33.742-16.871h-16.806l-5.6194 2.8097 27.06-36.421h-21.099l19.156-33.611z" fill="#3f4f69" stroke-width="6.7222"/>
</svg>
