<svg data-name="Layer 3" version="1.1" viewBox="0 0 128 128" xmlns="http://www.w3.org/2000/svg">
  <path d="m62.861861 1.0068349c-4.711489 0.076185-9.423865 0.6993598-13.977752 1.8339349-10.163647 2.5038512-19.621923 7.5548912-27.349526 14.61612-4.270419 3.902055-8.09534 8.488256-11.149388 13.462261-5.196398 8.369014-8.368132 18.088214-9.18349 27.949012-0.300664 3.852906-0.274352 7.861353 0.141538 11.731945 0.9892 9.368818 4.114854 18.527041 9.088931 26.56493 6.058228 9.786642 14.901424 17.925512 25.250386 23.108432 11.85054 5.98707 25.683982 8.09996 38.828492 5.83933 9.888834-1.67423 19.553458-5.80824 27.557308-11.92113 12.16392-9.18858 20.73707-22.842889 23.69275-37.791647 1.4803-7.395176 1.62176-15.07103 0.42871-22.474276-1.32718-8.309482-4.40412-16.478571-8.92016-23.560769-7.22958-11.466356-18.19972-20.476447-30.89391-25.26782-4.946115-1.885242-10.126176-3.1352786-15.329277-3.7028975-2.73237-0.3041714-5.425398-0.42570688-8.184612-0.3874254zm-3.439453 11.128906c1.201636 0.01155 1.609215 1.300271 2.010944 2.205431 2.009813 4.267845 4.001733 8.544737 6.004681 12.816053 1.718265 0.160806 3.424693 0.441542 5.103516 0.841797 3.685326-3.822137 7.327827-7.693437 11.05664-11.46875 0.995666-0.707864 2.080381 0.144574 2.939451 0.652344 2.78719 1.649479 5.64734 3.195082 8.3754 4.928133 0.89416 0.881186 0.20376 2.134552-0.0507 3.134926-1.30616 4.467912-2.61232 8.935825-3.91849 13.403738 1.18687 1.255404 2.28516 2.594435 3.2793 4.007812 5.28241-0.430172 10.56679-0.925521 15.84961-1.294922 1.12246 0.08648 1.49153 1.276986 1.72429 2.191217 1.01118 3.09512 2.12614 6.158068 3.0511 9.277533 0.12654 1.157772-1.10267 1.838871-2.11363 1.865632-6.87029 1.454479-13.74089 2.907473-20.61098 4.362884-1.20376-6.601383-4.71648-12.781057-9.929976-17.033149-5.78611-4.789934-13.494415-7.191365-20.94466-6.400031-2.372494 0.222653-4.696893 0.799833-6.955442 1.546461-2.280894-7.055702-4.61877-14.093538-6.84371-21.164062-0.167109-1.13318 1.009585-1.909376 2.027702-1.912406 3.314011-0.653641 6.621352-1.379568 9.944954-1.960641zm-29.458984 13.158203c1.238392 0.196256 1.759401 1.500212 2.617421 2.256651 4.365303 4.86041 8.734862 9.716996 13.111094 14.567568-3.808004 3.239056-6.782058 7.451522-8.490234 12.154297-1.902645 5.237065-2.225229 11.234827-0.828125 16.708984 1.402881 5.598512 4.983271 11.11136 9.327426 14.905506 0 0-0.46664 0.403422-1.139926 1.147233-3.50514 4.001432-7.125593 7.923404-10.675484 11.892086-1.110815 1.164711-2.112416 2.454451-3.28936 3.543461-0.998395 0.58998-2.115645-0.20088-2.643868-1.05497-2.175166-2.486578-4.403871-4.933866-6.52996-7.458703-0.624936-1.049859 0.316551-2.06237 0.894531-2.875l8.082031-11.609374c-0.721022-1.57182-1.324815-3.195836-1.822265-4.851567-5.151098-1.276489-10.323813-2.488632-15.455078-3.828125-1.10373-0.505163-0.917023-1.864075-0.90625-2.857422 0.01647-3.226288-0.04348-6.460166 0.03906-9.68164 0.238236-1.181172 1.585467-1.33965 2.555929-1.551779 4.587503-1.128687 9.179184-2.2416 13.76829-3.364237 0.499476-1.655251 1.109816-3.276614 1.832031-4.847656-3.012817-4.360843-6.086106-8.687075-9.042969-13.082032-0.493175-1.106084 0.524213-2.01956 1.206673-2.743061 2.12138-2.371279 4.166992-4.821957 6.365593-7.116314 0.300611-0.194228 0.667006-0.29176 1.023438-0.253906zm62.599616 43.763672c7.1269 1.546208 14.27699 2.997536 21.39257 4.587891 0.48892 0.104414 0.4802 0.860381 1.0449 0.71919 0.31255 0.240392-0.29753 1.084326-0.34879 1.563031-1.12737 3.328666-2.20465 6.681085-3.39533 9.983404-0.59691 1.033269-1.91386 0.770194-2.89307 0.657333-4.71554-0.393023-9.43062-0.801404-14.14599-1.200302-0.99563 1.412996-2.09082 2.756078-3.28516 4.005859 1.4668 5.106559 3.0285 10.193288 4.41407 15.318358 0.0856 1.24375-1.23551 1.74134-2.11914 2.25195-2.80499 1.5783-5.55754 3.27713-8.407052 4.75865-1.209141 0.33972-1.956298-0.89378-2.69229-1.61201-3.224049-3.36333-6.448098-6.72666-9.672147-10.09-1.680708 0.40073-3.389185 0.68103-5.109375 0.8418-2.26437 4.78503-4.477717 9.60068-6.796875 14.35547-0.714708 0.9924-2.0289 0.56569-3.009765 0.34375-3.125998-0.67606-6.301566-1.18737-9.391664-1.98714-1.005544-0.51139-0.948142-1.86374-0.481926-2.73037 2.174559-6.67492 4.349929-13.349584 6.52398-20.024677 6.116074 2.201878 13.045174 2.314517 19.138672 0.136719 7.386438-2.564613 13.652482-8.251229 16.742802-15.454158 0.92204-2.088442 1.56274-4.292166 2.00134-6.530217 0.16341 0.03516 0.32682 0.07031 0.49024 0.105469z" fill="#0079c1" stroke="#80cfff"/>
  <g transform="matrix(.89442917 0 0 .89442917 10.442602 -45.057112)">
    <g transform="matrix(.38858767 0 0 .34001421 4.9838382 121.77355)" fill="#232629">
      <path d="m140.10938 23.167969c-1e-5 7.325521-1e-5 14.651041 0 21.976562-18.35844 2.97031-35.80738 10.191455-51.801243 19.540952-14.833432 8.641866-28.694507 18.996623-41.032746 30.937564-1.356314 1.63858-1.055796 4.015404-0.124785 5.781033 8.038921 21.66517 21.229109 41.42905 38.286846 57.03168 15.062328 13.53706 33.744138 23.26641 53.748238 26.81532 0.7684-0.0335 1.11411 0.28839 0.92369 1.06103-1e-5 6.53984 0 13.07969 0 19.61953h175.10742v-184.13867h-175.10742c-1e-5 0.458333 0 0.916666 0 1.375z" fill="#232629" stroke-width=".999999"/>
    </g>
    <g transform="matrix(.38858767 0 0 .34001421 4.9838382 121.77355)">
      <path d="m82.211 102.414s22.504-33.203 67.437-36.638v-12.046c-49.769 3.997-92.867 46.149-92.867 46.149s24.41 70.565 92.867 77.026v-12.804c-50.237-6.32-67.437-61.687-67.437-61.687zm67.437 36.223v11.726c-37.968-6.769-48.507-46.237-48.507-46.237s18.23-20.195 48.507-23.47v12.867c-0.023 0-0.039-7e-3 -0.058-7e-3 -15.891-1.907-28.305 12.938-28.305 12.938s6.958 24.991 28.363 32.183m0-107.125v22.218c1.461-0.112 2.922-0.207 4.391-0.257 56.582-1.907 93.449 46.406 93.449 46.406s-42.343 51.488-86.457 51.488c-4.043 0-7.828-0.375-11.383-1.005v13.739c3.04 0.386 6.192 0.613 9.481 0.613 41.051 0 70.738-20.965 99.484-45.778 4.766 3.817 24.278 13.103 28.289 17.168-27.332 22.883-91.031 41.329-127.144 41.329-3.481 0-6.824-0.211-10.11-0.528v19.306h156.032v-164.699zm0 49.144v-14.879c1.446-0.101 2.903-0.179 4.391-0.226 40.688-1.278 67.382 34.965 67.382 34.965s-28.832 40.043-59.746 40.043c-4.449 0-8.438-0.715-12.028-1.922v-45.114c15.84 1.914 19.028 8.911 28.551 24.786l21.18-17.859s-15.461-20.277-41.524-20.277c-2.833-1e-3 -5.544 0.198-8.206 0.483" fill="#77b900"/>
    </g>
  </g>
</svg>
