<svg version="1.1" viewBox="0 0 18 18" xmlns="http://www.w3.org/2000/svg">
  <path d="m9 0a9 9 0 0 0-9 9 9 9 0 0 0 9 9 9 9 0 0 0 9-9 9 9 0 0 0-9-9zm-0.1054688 1.0058594c2.7888008-0.0440654 5.5160858 1.4212776 6.9355468 3.8496094 1.748713 2.7714247 1.491445 6.5897662-0.591797 9.1132812-2.114393 2.76584-6.121822 3.780043-9.3085935 2.394531-3.4468263-1.336976-5.5180183-5.300297-4.7636719-8.8984372 0.6164089-3.4262568 3.7053036-6.1761628 7.1699219-6.4296876 0.1861005-0.0165061 0.3726737-0.0263591 0.5585937-0.0292968z" fill="#232629"/>
  <path d="M 9.220703,3 6,9 H 9 L 7.4238281,12.923828 5.5,11 6.4804688,15.509766 11.5,13 H 9 L 8.164062,13.417969 12.189453,8 H 9.050781 l 2.84961,-5 z" fill="#232629"/>
</svg>
