<svg data-name="Layer 3" version="1.1" viewBox="0 0 128 128" xmlns="http://www.w3.org/2000/svg">
 <path d="m62.732422 0.015625c-18.717229 0.27408863-37.106167 9.3153846-48.70998 24.01331-9.817193 12.217886-14.934708 28.138302-13.903181 43.792346 0.85577188 14.398928 6.6842127 28.486399 16.441597 39.135349 10.695407 11.78443 25.870091 19.50091 41.768459 20.78351 15.40086 1.3774 31.301515-2.96304 43.686073-12.2678 12.66738-9.34334 21.76805-23.473452 24.7493-38.954437 3.28105-16.429416-0.1041-34.152755-9.53449-48.040795-8.29186-12.411528-21.003886-21.857193-35.388845-25.93318-6.192914-1.8017446-12.660585-2.652938-19.108933-2.5283025z" fill="#ecf0f9"/>
 <path d="m63.999077 3.5000012c-33.412544 0-60.499076 27.085903-60.499076 60.49815 0 33.411971 27.086532 60.501849 60.499076 60.501849 33.41339 0 60.500923-27.089878 60.500923-60.501849 0-33.412247-27.087533-60.49815-60.500923-60.49815zm-3.545848 14.353241c0.39907 0.067 0.749086 0.332498 0.913925 0.721908l4.815186 11.371444c2.560839 0.161601 5.044738 0.606 7.421256 1.301651l8.408116-9.033088c0.384262-0.412722 1.00264-0.505343 1.490895-0.223403l7.127696 4.115432c0.488254 0.28194 0.717482 0.863259 0.552048 1.402275l-3.621549 11.807174c1.817353 1.735115 3.442873 3.669365 4.84288 5.76696l12.253068-1.515822c0.55962-0.0692 1.0922 0.257653 1.28502 0.787452l2.84149 7.807137c0.17724 0.487308-5e-3 1.031478-0.43944 1.313654l-18.15848 6.536868c-0.723168 0.260434-1.501199-0.212209-1.652448-0.965621-2.29806-11.447553-12.408808-20.070349-24.533815-20.070349-2.747554 0-5.391884 0.442724-7.865297 1.261031-0.728833 0.241244-1.522872-0.199952-1.655222-0.956391l-3.262439-18.643148c-0.115314-0.657653 0.323858-1.283564 0.98132-1.399505l7.84591-1.383814c0.138841-0.02447 0.276857-0.02417 0.40988-0.0017zm-28.099962 12.893729c0.12291 0.01623 0.24464 0.05371 0.360021 0.112626l14.740048 12.457077c0.586945 0.496004 0.567644 1.406025-0.0096 1.913703-8.764826 7.713932-11.177538 20.78112-5.115207 31.281165 1.373915 2.379824 3.079344 4.448701 5.024745 6.18146 0.573425 0.510939 0.588004 1.419797-9.5e-4 1.912776l-14.512944 12.146897c-0.511974 0.428228-1.274974 0.360939-1.70414-0.150474l-5.120729-6.102989c-0.362385-0.432008-0.378519-1.056624-0.03879-1.506593l7.440645-9.855619c-1.140396-2.298049-1.997201-4.67155-2.583013-7.077842l-12.026881-2.764855c-0.549465-0.126199-0.938855-0.615913-0.938855-1.179793v-8.229943c0-0.563878 0.38939-1.053125 0.938855-1.179792l12.03611-2.766702c0.593994-2.441743 1.455226-4.816845 2.57192-7.077843l-7.438799-9.853775c-0.339751-0.449969-0.323608-1.074679 0.03879-1.506592l5.341382-6.365167c0.249846-0.297772 0.628278-0.436399 0.997011-0.387725zm57.274484 37.2983c0.176977-0.01844 0.360646 0.0014 0.540965 0.0674l17.776314 6.496254c0.62722 0.229238 0.95021 0.922767 0.7219 1.54998l-2.72516 7.485879c-0.19282 0.529847-0.72587 0.856463-1.28502 0.787454l-12.255834-1.515832c-1.419856 2.136877-3.046924 4.065652-4.837339 5.776194l3.618774 11.79793c0.164954 0.53884-0.06377 1.12059-0.552048 1.40229l-7.128619 4.11542c-0.488253 0.28218-1.106633 0.18923-1.490894-0.22339l-8.413656-9.039554c-2.411493 0.706148-4.899741 1.14734-7.416638 1.31088l-4.813342 11.368664c-0.219778 0.51947-0.768436 0.81791-1.323805 0.72007l-8.182857-1.44289c-0.509996-0.0902-0.891155-0.52006-0.917621-1.03762l3.417529-18.993957c0.136124-0.756251 0.934715-1.193864 1.662606-0.948083 11.062963 3.733512 23.58582-0.711697 29.648092-11.211735 1.374013-2.379815 2.312598-4.891101 2.840562-7.442489 0.116621-0.563997 0.585179-0.967537 1.116091-1.022861z" fill="#0064ff"/>
 <g transform="matrix(.89442917 0 0 .89442917 13.83132 -43.545463)">
  <g transform="matrix(.38858767 0 0 .34001421 4.9838382 121.77355)" fill="#1d2430">
   <path d="m140.10938 23.167969c-1e-5 7.325521-1e-5 14.651041 0 21.976562-18.35844 2.97031-35.80738 10.191455-51.801243 19.540952-14.833432 8.641866-28.694507 18.996623-41.032746 30.937564-1.356314 1.63858-1.055796 4.015404-0.124785 5.781033 8.038921 21.66517 21.229109 41.42905 38.286846 57.03168 15.062328 13.53706 33.744138 23.26641 53.748238 26.81532 0.7684-0.0335 1.11411 0.28839 0.92369 1.06103-1e-5 6.53984 0 13.07969 0 19.61953h175.10742v-184.13867h-175.10742c-1e-5 0.458333 0 0.916666 0 1.374999z" fill="#1d2430" stroke-width=".999999"/>
  </g>
  <g transform="matrix(.38858767 0 0 .34001421 4.9838387 121.77355)">
   <path d="m82.211 102.414s22.504-33.203 67.437-36.638v-12.046c-49.769 3.997-92.867 46.149-92.867 46.149s24.41 70.565 92.867 77.026v-12.804c-50.237-6.32-67.437-61.687-67.437-61.687zm67.437 36.223v11.726c-37.968-6.769-48.507-46.237-48.507-46.237s18.23-20.195 48.507-23.47v12.867c-0.023 0-0.039-7e-3 -0.058-7e-3 -15.891-1.907-28.305 12.938-28.305 12.938s6.958 24.991 28.363 32.183m0-107.125v22.218c1.461-0.112 2.922-0.207 4.391-0.257 56.582-1.907 93.449 46.406 93.449 46.406s-42.343 51.488-86.457 51.488c-4.043 0-7.828-0.375-11.383-1.005v13.739c3.04 0.386 6.192 0.613 9.481 0.613 41.051 0 70.738-20.965 99.484-45.778 4.766 3.817 24.278 13.103 28.289 17.168-27.332 22.883-91.031 41.329-127.144 41.329-3.481 0-6.824-0.211-10.11-0.528v19.306h156.032v-164.699zm0 49.144v-14.879c1.446-0.101 2.903-0.179 4.391-0.226 40.688-1.278 67.382 34.965 67.382 34.965s-28.832 40.043-59.746 40.043c-4.449 0-8.438-0.715-12.028-1.922v-45.114c15.84 1.914 19.028 8.911 28.551 24.786l21.18-17.859s-15.461-20.277-41.524-20.277c-2.833-1e-3 -5.544 0.198-8.206 0.483" fill="#77b900"/>
  </g>
 </g>
</svg>
