<svg width="64" height="64" version="1.1" xmlns="http://www.w3.org/2000/svg" xmlns:xlink="http://www.w3.org/1999/xlink">
 <defs>
  <linearGradient id="a-1" x1="20" x2="20" y1="40" y2="16" gradientUnits="userSpaceOnUse">
   <stop stop-color="#3e3e3e" offset="0"/>
   <stop stop-color="#5c5c5c" offset="1"/>
  </linearGradient>
  <linearGradient id="b-9" x1="16" x2="44" y1="16" y2="44" gradientUnits="userSpaceOnUse" xlink:href="#e"/>
  <linearGradient id="e" x1="400.57" x2="420.57" y1="511.8" y2="531.8" gradientUnits="userSpaceOnUse">
   <stop stop-color="#292c2f" offset="0"/>
   <stop stop-opacity="0" offset="1"/>
  </linearGradient>
  <linearGradient id="d" x1="12" x2="12" y1="48" y2="10" gradientUnits="userSpaceOnUse">
   <stop stop-color="#eef1f2" offset="0"/>
   <stop stop-color="#f9fafb" offset="1"/>
  </linearGradient>
  <linearGradient id="c-3" x1="386.57" x2="386.57" y1="549.8" y2="497.8" gradientTransform="translate(-376.57 -491.8)" gradientUnits="userSpaceOnUse">
   <stop stop-color="#7f8c8d" offset="0"/>
   <stop stop-color="#afb0b3" offset="1"/>
  </linearGradient>
  <linearGradient id="linearGradient358" x1="400.57" x2="420.57" y1="511.8" y2="531.8" gradientTransform="translate(-376.57 -491.8)" gradientUnits="userSpaceOnUse" xlink:href="#e"/>
 </defs>
 <path d="m9 6v53h46v-54h-46v1z" fill="#444"/>
 <path d="M10 57h44v1H10z" fill="#292c2f" opacity=".4"/>
 <path d="m10 6h44v52h-44z" fill="url(#c-3)"/>
 <path d="m47 52h7v6h-7zm-37 0h7v6h-7z" fill="#292c2f" opacity=".2"/>
 <path d="m10 52h7v6h-1zm37 0h7v6h-7z" fill="#292c2f" opacity=".2"/>
 <path d="m16 52h32v6h-32z" fill="#292c2e"/>
 <path d="m20 54h14v2h-14zm16 0h8v2h-8z" fill="#f6b44d"/>
 <path d="m14 42 16 16h24v-38.728l-6.636-6.636z" fill="url(#linearGradient358)" opacity=".2"/>
 <path d="m23 10a9 9 0 0 0-9 9v8.535a6 6 0 0 1 2 4.465 6 6 0 0 1-2 4.463v5.537l6 6h24l6-6v-5.535a6 6 0 0 1-2-4.465 6 6 0 0 1 2-4.463v-8.537a9 9 0 0 0-9-9z" fill="url(#d)"/>
 <path d="m10 57h44v1h-44z" fill="#292c2f" opacity=".4"/>
 <path d="m36 16-16 24 12 12h12l-12-12 12-2 6 6v-14z" fill="url(#b-9)" opacity=".2"/>
 <path d="m32 40 12 12h6v-8l-6-6z" fill="url(#b-9)"/>
 <path d="m32 38h12v2h-12zm0-22-12 24h4l12-24z" fill="url(#a-1)"/>
</svg>
