<svg data-name="Layer 3" version="1.1" viewBox="0 0 128 128" xmlns="http://www.w3.org/2000/svg" xmlns:xlink="http://www.w3.org/1999/xlink">
    <defs>
        <linearGradient id="linearGradient50674-9" x1="111.14" x2="111.14" y1="115.86" y2="76.593" gradientTransform="translate(-15.581 1.129)" gradientUnits="userSpaceOnUse">
            <stop stop-color="#1d99f3" offset="0"/>
            <stop stop-color="#c8e8f9" offset="1"/>
        </linearGradient>
        <linearGradient id="linearGradient7199" x1="96.724" x2="539.91" y1="9.9517" y2="9.9517" gradientUnits="userSpaceOnUse" xlink:href="#linearGradient50674-9"/>
        <linearGradient id="linearGradient7401" x1="176.79" x2="174.6" y1="82.659" y2="40.333" gradientUnits="userSpaceOnUse" xlink:href="#linearGradient50674-9"/>
    </defs>
    <path d="m62.862 1.0068c-4.7115 0.076185-9.4239 0.69936-13.978 1.8339-10.164 2.5039-19.622 7.5549-27.35 14.616-4.2704 3.9021-8.0953 8.4883-11.149 13.462-5.1964 8.369-8.3681 18.088-9.1835 27.949-0.30066 3.8529-0.27435 7.8614 0.14154 11.732 0.9892 9.3688 4.1149 18.527 9.0889 26.565 6.0582 9.7866 14.901 17.926 25.25 23.108 11.851 5.9871 25.684 8.1 38.828 5.8393 9.8888-1.6742 19.553-5.8082 27.557-11.921 12.164-9.1886 20.737-22.843 23.693-37.792 1.4803-7.3952 1.6218-15.071 0.42871-22.474-1.3272-8.3095-4.4041-16.479-8.9202-23.561-7.2296-11.466-18.2-20.476-30.894-25.268-4.9461-1.8852-10.126-3.1353-15.329-3.7029-2.7324-0.30417-5.4254-0.42571-8.1846-0.38743zm-3.4395 11.129c1.2016 0.01155 1.6092 1.3003 2.0109 2.2054 2.0098 4.2678 4.0017 8.5447 6.0047 12.816 1.7183 0.16081 3.4247 0.44154 5.1035 0.8418 3.6853-3.8221 7.3278-7.6934 11.057-11.469 0.99567-0.70786 2.0804 0.14457 2.9395 0.65234 2.7872 1.6495 5.6473 3.1951 8.3754 4.9281 0.89416 0.88119 0.20376 2.1346-0.0507 3.1349-1.3062 4.4679-2.6123 8.9358-3.9185 13.404 1.1869 1.2554 2.2852 2.5944 3.2793 4.0078 5.2824-0.43017 10.567-0.92552 15.85-1.2949 1.1225 0.08648 1.4915 1.277 1.7243 2.1912 1.0112 3.0951 2.1261 6.1581 3.0511 9.2775 0.12654 1.1578-1.1027 1.8389-2.1136 1.8656-6.8703 1.4545-13.741 2.9075-20.611 4.3629-1.2038-6.6014-4.7165-12.781-9.93-17.033-5.7861-4.7899-13.494-7.1914-20.945-6.4-2.3725 0.22265-4.6969 0.79983-6.9554 1.5465-2.2809-7.0557-4.6188-14.094-6.8437-21.164-0.16711-1.1332 1.0096-1.9094 2.0277-1.9124 3.314-0.65364 6.6214-1.3796 9.945-1.9606zm-29.459 13.158c1.2384 0.19626 1.7594 1.5002 2.6174 2.2567 4.3653 4.8604 8.7349 9.717 13.111 14.568-3.808 3.2391-6.7821 7.4515-8.4902 12.154-1.9026 5.2371-2.2252 11.235-0.82812 16.709 1.4029 5.5985 4.9833 11.111 9.3274 14.906 0 0-0.46664 0.40342-1.1399 1.1472-3.5051 4.0014-7.1256 7.9234-10.675 11.892-1.1108 1.1647-2.1124 2.4545-3.2894 3.5435-0.9984 0.58998-2.1156-0.20088-2.6439-1.055-2.1752-2.4866-4.4039-4.9339-6.53-7.4587-0.62494-1.0499 0.31655-2.0624 0.89453-2.875l8.082-11.609c-0.72102-1.5718-1.3248-3.1958-1.8223-4.8516-5.1511-1.2765-10.324-2.4886-15.455-3.8281-1.1037-0.50516-0.91702-1.8641-0.90625-2.8574 0.01647-3.2263-0.04348-6.4602 0.03906-9.6816 0.23824-1.1812 1.5855-1.3396 2.5559-1.5518 4.5875-1.1287 9.1792-2.2416 13.768-3.3642 0.49948-1.6553 1.1098-3.2766 1.832-4.8477-3.0128-4.3608-6.0861-8.6871-9.043-13.082-0.49318-1.1061 0.52421-2.0196 1.2067-2.7431 2.1214-2.3713 4.167-4.822 6.3656-7.1163 0.30061-0.19423 0.66701-0.29176 1.0234-0.25391zm62.6 43.764c7.1269 1.5462 14.277 2.9975 21.393 4.5879 0.48892 0.10441 0.4802 0.86038 1.0449 0.71919 0.31255 0.24039-0.29753 1.0843-0.34879 1.563-1.1274 3.3287-2.2046 6.6811-3.3953 9.9834-0.59691 1.0333-1.9139 0.77019-2.8931 0.65733-4.7155-0.39302-9.4306-0.8014-14.146-1.2003-0.99563 1.413-2.0908 2.7561-3.2852 4.0059 1.4668 5.1066 3.0285 10.193 4.4141 15.318 0.0856 1.2438-1.2355 1.7413-2.1191 2.252-2.805 1.5783-5.5575 3.2771-8.4071 4.7586-1.2091 0.33972-1.9563-0.89378-2.6923-1.612-3.224-3.3633-6.4481-6.7267-9.6721-10.09-1.6807 0.40073-3.3892 0.68103-5.1094 0.8418-2.2644 4.785-4.4777 9.6007-6.7969 14.355-0.71471 0.9924-2.0289 0.56569-3.0098 0.34375-3.126-0.67606-6.3016-1.1874-9.3917-1.9871-1.0055-0.51139-0.94814-1.8637-0.48193-2.7304 2.1746-6.6749 4.3499-13.35 6.524-20.025 6.1161 2.2019 13.045 2.3145 19.139 0.13672 7.3864-2.5646 13.652-8.2512 16.743-15.454 0.92204-2.0884 1.5627-4.2922 2.0013-6.5302 0.16341 0.03516 0.32682 0.07031 0.49024 0.10547z" fill="#0079c1" stroke="#80cfff"/>
    <g transform="translate(-45.561 21.741)">
        <path d="m173.29 73.79a32 32 0 0 1-32 32 32 32 0 0 1-32-32 32 32 0 0 1 32-32 32 32 0 0 1 32 32z" fill="#232629" fill-rule="evenodd" stroke-width=".75"/>
        <g transform="matrix(.11972 0 0 .11961 101.83 71.203)" fill="url(#linearGradient7199)">
            <g transform="translate(-52.197 -365.28)">
                <path transform="matrix(8.3528 0 0 8.3607 -1054.9 -131.45)" d="m174.37 34.371c-5.3423-0.04173-10.319 1.542-8.3008 4.916 3.2188 5.3816 3.5587 11.16 3.6777 12.975a10 10 0 0 1 2.2559-0.26172 10 10 0 0 1 9.8633 8.3594c10.134-5.1372 12.323-18.324 1.082-24.193-2.0374-1.159-5.3727-1.7699-8.5781-1.7949zm-18.008 17.176c-6.7717 0.20324-12.597 5.1506-12.227 13.879 0.04 6.2504 8.0818 18.554 11.143 13.059s7.9242-8.6877 9.4199-9.6875c6e-3 -0.0042 0.021-0.01722 0.0273-0.02148a10 10 0 0 1-2.7226-6.7754 10 10 0 0 1 3.6621-7.7148c-2.9693-1.9467-6.2334-2.8304-9.3027-2.7383zm25.15 13.365a10 10 0 0 1-9.5098 7.0879 10 10 0 0 1-3.5312-0.70703v0.01172c-0.66547 11.381 9.6864 19.918 20.412 13.104 5.393-3.1598 12.026-16.277 5.7363-16.18-6.2897 0.09709-11.486-2.5171-13.1-3.3125-2e-3 -8.3e-4 -6e-3 -0.0031-8e-3 -0.0039z" fill="url(#linearGradient7401)" stroke-width=".11966"/>
                <ellipse cx="381.72" cy="386.92" rx="50.117" ry="50.164" fill="url(#linearGradient7199)" stroke-width="5.0141"/>
            </g>
        </g>
    </g>
</svg>
