<?xml version="1.0" encoding="UTF-8" standalone="no"?>
<svg
   viewBox="0 0 6.4520521 6.0150585"
   version="1.1"
   id="svg7852"
   sodipodi:docname="arrow.svg"
   width="6.4520521"
   height="6.0150585"
   inkscape:version="1.2.2 (b0a8486541, 2022-12-01)"
   xmlns:inkscape="http://www.inkscape.org/namespaces/inkscape"
   xmlns:sodipodi="http://sodipodi.sourceforge.net/DTD/sodipodi-0.dtd"
   xmlns="http://www.w3.org/2000/svg"
   xmlns:svg="http://www.w3.org/2000/svg">
  <sodipodi:namedview
     id="namedview7854"
     pagecolor="#ffffff"
     bordercolor="#666666"
     borderopacity="1.0"
     inkscape:showpageshadow="2"
     inkscape:pageopacity="0.0"
     inkscape:pagecheckerboard="0"
     inkscape:deskcolor="#d1d1d1"
     showgrid="false"
     inkscape:zoom="132.03612"
     inkscape:cx="5.2106953"
     inkscape:cy="2.7454608"
     inkscape:window-width="2130"
     inkscape:window-height="1361"
     inkscape:window-x="0"
     inkscape:window-y="0"
     inkscape:window-maximized="0"
     inkscape:current-layer="svg7852" />
  <defs
     id="defs3051">
    <inkscape:path-effect
       effect="fillet_chamfer"
       id="path-effect12561"
       is_visible="true"
       lpeversion="1"
       nodesatellites_param="F,0,0,1,0,0.24007874,0,1 @ F,0,0,1,0,0.24007874,0,1 @ F,0,0,1,0,0.24007874,0,1 @ F,0,0,1,0,0.24007874,0,1 @ F,0,0,1,0,0.24007874,0,1 @ F,0,0,1,0,0.24007874,0,1 @ F,0,0,1,0,0.11132609,0,1"
       unit="px"
       method="auto"
       mode="F"
       radius="0"
       chamfer_steps="1"
       flexible="false"
       use_knot_distance="true"
       apply_no_radius="true"
       apply_with_radius="true"
       only_selected="false"
       hide_knots="false" />
    <inkscape:path-effect
       effect="fillet_chamfer"
       id="path-effect12555"
       is_visible="true"
       lpeversion="1"
       nodesatellites_param="F,0,0,1,0,0.24007874,0,1 @ F,0,0,1,0,0.24007874,0,1 @ F,0,0,1,0,0.24007874,0,1 @ F,0,0,1,0,0.24007874,0,1 @ F,0,0,1,0,0.24007874,0,1 @ F,0,0,1,0,0.24007874,0,1 @ F,0,0,1,0,0.11132609,0,1"
       unit="px"
       method="auto"
       mode="F"
       radius="0"
       chamfer_steps="1"
       flexible="false"
       use_knot_distance="true"
       apply_no_radius="true"
       apply_with_radius="true"
       only_selected="false"
       hide_knots="false" />
    <inkscape:path-effect
       effect="fillet_chamfer"
       id="path-effect12549"
       is_visible="true"
       lpeversion="1"
       nodesatellites_param="F,0,0,1,0,0.24007874,0,1 @ F,0,0,1,0,0.24007874,0,1 @ F,0,0,1,0,0.24007874,0,1 @ F,0,0,1,0,0.24007874,0,1 @ F,0,0,1,0,0.24007874,0,1 @ F,0,0,1,0,0.24007874,0,1 @ F,0,0,1,0,0.11132609,0,1"
       unit="px"
       method="auto"
       mode="F"
       radius="0"
       chamfer_steps="1"
       flexible="false"
       use_knot_distance="true"
       apply_no_radius="true"
       apply_with_radius="true"
       only_selected="false"
       hide_knots="false" />
    <style
       id="current-color-scheme"
       type="text/css">.ColorScheme-Text {
        color:#eff0f1;
      }</style>
  </defs>
  <path
     class="ColorScheme-Text"
     d="M 0.07171419,3.2011671 3.2456283,5.9880424 A 0.10869001,0.10869001 155.64248 0 0 3.4260325,5.9063687 V 4.3982276 A 0.24007874,0.24007874 135 0 1 3.6661112,4.1581489 h 2.545862 A 0.24007874,0.24007874 135 0 0 6.4520519,3.9180702 V 2.1674532 A 0.24007883,0.24007883 45.00001 0 0 6.2119732,1.9273744 l -2.545862,-9e-7 A 0.24007883,0.24007883 45.00001 0 1 3.4260325,1.6872947 V 0.05040029 A 0.05040024,0.05040024 24.357511 0 0 3.3423779,0.01252767 L 0.07171412,2.884357 a 0.21080274,0.21080274 89.999988 0 0 7e-8,0.3168101 z"
     fill="currentColor"
     id="path12557"
     sodipodi:nodetypes="cccccccc"
     style="fill:#000000;fill-opacity:1;stroke-width:1.04122"
     inkscape:path-effect="#path-effect12561"
     inkscape:original-d="M -0.10868996,3.0427621 3.4260325,6.1464474 V 4.1581489 H 6.4520519 V 1.9273745 l -3.0260194,-1.1e-6 v -1.9882992 z" />
  <path
     class="ColorScheme-Text"
     d="M 0.35464803,3.1936332 3.0202181,5.4786401 A 0.11041328,0.11041328 155.30209 0 0 3.2024916,5.3948117 V 4.2109407 A 0.24007874,0.24007874 135 0 1 3.4425703,3.970862 l 2.6008416,0 A 0.24007874,0.24007874 135 0 0 6.2834906,3.7307833 V 2.3439817 A 0.24007881,0.24007881 45.000008 0 0 6.0434119,2.1039029 l -2.6008416,-7e-7 A 0.24007881,0.24007881 45.000008 0 1 3.2024916,1.8638234 l 0,-1.31262406 A 0.05119934,0.05119934 24.697901 0 0 3.1179702,0.51232759 L 0.35464797,2.8811325 a 0.2058028,0.2058028 89.999988 0 0 6e-8,0.3125007 z"
     fill="currentColor"
     id="path12547"
     sodipodi:nodetypes="cccccccc"
     style="fill:#f7941d;fill-opacity:1;stroke-width:0.881928"
     inkscape:path-effect="#path-effect12549"
     inkscape:original-d="M 0.17237452,3.0373829 3.2024916,5.6348904 V 3.970862 h 3.080999 V 2.103903 l -3.080999,-9e-7 V 0.43987325 Z" />
</svg>
