<?xml version="1.0" encoding="UTF-8" standalone="no"?>
<svg
   version="1.1"
   viewBox="0 0 500 140"
   id="svg47"
   sodipodi:docname="backintime_panel.svg"
   inkscape:version="1.2.2 (b0a8486541, 2022-12-01)"
   xmlns:inkscape="http://www.inkscape.org/namespaces/inkscape"
   xmlns:sodipodi="http://sodipodi.sourceforge.net/DTD/sodipodi-0.dtd"
   xmlns="http://www.w3.org/2000/svg"
   xmlns:svg="http://www.w3.org/2000/svg">
  <sodipodi:namedview
     id="namedview49"
     pagecolor="#ffffff"
     bordercolor="#000000"
     borderopacity="0.25"
     inkscape:showpageshadow="2"
     inkscape:pageopacity="0.0"
     inkscape:pagecheckerboard="0"
     inkscape:deskcolor="#d1d1d1"
     showgrid="false"
     inkscape:zoom="3.764"
     inkscape:cx="238.31031"
     inkscape:cy="70.005313"
     inkscape:window-width="3840"
     inkscape:window-height="2119"
     inkscape:window-x="7680"
     inkscape:window-y="0"
     inkscape:window-maximized="1"
     inkscape:current-layer="g38" />
  <defs
     id="defs8">
    <style
       id="y"
       type="text/css">.ColorScheme-Text {
        color:#eff0f1;
      }</style>
    <linearGradient
       id="a"
       x1="229.14101"
       x2="229.14101"
       y1="113.979"
       y2="297.16901"
       gradientTransform="matrix(.97011451 0 0 .50650252 -60.901587 -25.182308)"
       gradientUnits="userSpaceOnUse">
      <stop
         stop-color="#2a2e32"
         offset="0"
         id="stop3" />
      <stop
         stop-color="#2a2e32"
         offset="1"
         id="stop5" />
    </linearGradient>
  </defs>
  <path
     class="ColorScheme-Text"
     d="m143.22091 47.212775v6.14286h-9.21428v43h43v-43h-9.21429v-6.14286zm-6.14285 9.21429h3.07142v6.14286h30.7143v-6.14286h3.07142v36.8571h-36.8571zm6.14285 9.21429v3.07143h24.5714v-3.07143zm0 9.21428v3.07143h18.4286v-3.07143zm0 9.21429v3.07143h9.21429v-3.07143z"
     color="#eff0f1"
     fill="currentColor"
     id="path10" />
  <rect
     x="1.5053101"
     y="1.5053101"
     width="496.98938"
     height="136.98938"
     ry="4.86623"
     fill="url(#a)"
     stroke="#888"
     stroke-width="3.75"
     id="rect12" />
  <g
     transform="translate(-6)"
     fill="#eff0f1"
     id="g28">
    <g
       class="ColorScheme-Text"
       transform="matrix(4,0,0,4,219.18091,39.415875)"
       color="#eff0f1"
       id="g22">
      <path
         d="m8 2-4 4v4l4 4h1v-12z"
         id="path14" />
      <path
         d="m2 6v4h1v-4z"
         id="path16" />
      <path
         d="M 10.128906,4.615234 9.7988281,5.603516 A 3,3 0 0 1 11,8 3,3 0 0 1 9.7988281,10.396484 l 0.3281249,0.984375 A 4,4 0 0 0 12,8 4,4 0 0 0 10.128906,4.615234 Z"
         id="path18" />
      <path
         d="m9.94531 2.33203-0.167969 1a5 5 0 0 1 3.22266 4.66797 5 5 0 0 1-3.2207 4.67188l0.166016 0.998047a6 6 0 0 0 4.05469-5.66992 6 6 0 0 0-4.05469-5.66797z"
         id="path20" />
    </g>
    <path
       class="ColorScheme-Text"
       d="m352.69191 46.732075v21.416l-13.9951-13.9951-3.00492 3.00492 15.0742 15.0742-15.0742 15.0742 3.00492 3.00489 13.9951-13.9951v21.416h4.25l12.75-12.75-12.75-12.75 12.75-12.75-12.75-12.75zm4.25 6.00976 6.74028 6.74024-6.74028 6.74025zm0 25.5 6.74028 6.74024-6.74028 6.74025z"
       color="#eff0f1"
       id="path24" />
    <path
       class="ColorScheme-Text"
       d="m431.63191 47.905475v18h6v21c0 4.986 4.014 9 9 9h21v-3h-6v-6h18v-39h-30v3h27v30h-33v6h6v6h-3c-3.324 0-6-2.676-6-6v-21h6v-18zm3 3h9v12h-9zm3 3v6h3v-6zm-6 15v18h3v-18z"
       color="#eff0f1"
       id="path26" />
  </g>
  <path
     d="M 155.05503,43.762953 154.89238,100.72353 112,69.931995 Z"
     fill="#eff0f1"
     id="path30" />
  <g
     transform="translate(32,100)"
     stroke-width="3.75"
     id="g38">
    <circle
       cx="137.26791"
       cy="-27.809036"
       r="30"
       fill="#f7941d"
       stroke="#eff0f1"
       id="circle32" />
    <text
       x="125.30791"
       y="-13.869037"
       fill="#eff0f1"
       font-family="Nunito"
       font-size="40px"
       font-weight="bold"
       style="line-height:1.25;font-variant-ligatures:normal;font-variant-caps:normal;font-variant-numeric:normal;font-variant-east-asian:normal"
       xml:space="preserve"
       id="text36"><tspan
         x="125.30791"
         y="-13.869037"
         fill="#eff0f1"
         font-family="Nunito"
         font-size="40px"
         font-weight="bold"
         stroke-width="3.75"
         style="font-variant-ligatures:normal;font-variant-caps:normal;font-variant-numeric:normal;font-variant-east-asian:normal"
         id="tspan34">7</tspan></text>
  </g>
  <g
     transform="translate(7.502732,-199.88871)"
     fill="#eff0f1"
     id="g45">
    <g
       fill="#eff0f1"
       id="g43">
      <g
         transform="translate(394.71778,231.04612)"
         fill="#eff0f1"
         stroke-width=".912274"
         id="g41" />
    </g>
  </g>
  <path
     style="color:#eff0f1;fill:currentColor;fill-opacity:1;stroke:none;stroke-width:4.49938"
     d="m 24.436387,30.22608 v 0.009 4.499384 67.490766 H 28.93577 96.42653 V 97.72584 48.23262 45.086557 h -0.036 l 0.036,-0.04499 -14.81633,-14.816337 -0.036,0.04499 v -0.04499 h -3.1461 z m 4.499383,4.508158 H 42.43392 V 52.73177 57.23116 H 78.429 V 52.73177 34.734238 h 1.31818 L 91.92715,46.914206 V 48.23239 97.72562 H 82.92838 V 66.22993 H 78.429 42.43392 37.93454 v 31.49569 h -8.99877 z m 17.99754,0 H 64.48266 V 52.73177 H 46.93331 Z M 42.43392,70.72931 H 78.429 V 97.72562 H 42.43392 Z"
     class="ColorScheme-Text"
     id="path2205" />
</svg>
