<!-- Created with Inkscape (http://www.inkscape.org/) -->
<svg width="101.19mm" height="70.47mm" version="1.1" viewBox="0 0 101.19 70.47" xmlns="http://www.w3.org/2000/svg">
 <rect width="101.19" height="70.47" fill="#483737" stroke-width="1.8375"/>
 <g transform="matrix(.26458 0 0 .26458 10.45 15.638)" fill="#f60" stroke-width="5.2233" style="shape-inside:url(#rect2266);white-space:pre" aria-label="BackInTime UI Placeholder">
  <path d="m51.394 80.766q-0.364 0-0.79733-0.01733-0.416-0.01733-0.84933-0.052-0.416-0.03467-0.832-0.08667-0.416-0.052-0.76266-0.13867v-11.648q0.34667-0.08667 0.76266-0.13867 0.416-0.052 0.832-0.08667 0.43333-0.03467 0.84933-0.052 0.416-0.01733 0.78-0.01733 1.04 0 1.9413 0.156 0.91866 0.156 1.5773 0.53733 0.676 0.364 1.0573 0.97066 0.38133 0.60666 0.38133 1.4907 0 0.988-0.468 1.6293-0.468 0.624-1.248 0.936 1.0573 0.312 1.6813 0.988t0.624 1.9067q0 1.8027-1.3347 2.7213-1.3173 0.90133-4.1947 0.90133zm-1.5773-5.7027v4.2293q0.19067 0.01733 0.45067 0.03467 0.22533 0.01733 0.52 0.03467 0.312 0 0.71066 0 0.74533 0 1.404-0.08667 0.676-0.104 1.1787-0.34667 0.50266-0.24267 0.79733-0.676 0.312-0.43333 0.312-1.092 0-0.58933-0.22533-0.988-0.22533-0.416-0.65866-0.65866-0.416-0.24267-1.0053-0.34667-0.58933-0.104-1.3173-0.104zm0-1.352h1.768q0.624 0 1.1787-0.08667 0.55466-0.08667 0.95333-0.312 0.416-0.22533 0.64133-0.58933 0.24267-0.364 0.24267-0.91866 0-0.52-0.24267-0.86666-0.24267-0.364-0.676-0.572-0.416-0.22533-0.988-0.32933t-1.2133-0.104-1.0053 0.01733q-0.364 0.01733-0.65866 0.052z"/>
  <path d="m62.245 79.501q0.572 0 1.0053-0.01733 0.45067-0.03467 0.74533-0.104v-2.6867q-0.17333-0.08667-0.572-0.13867-0.38133-0.06933-0.936-0.06933-0.364 0-0.78 0.052-0.39866 0.052-0.74533 0.22533-0.32933 0.156-0.55467 0.45067-0.22533 0.27733-0.22533 0.74533 0 0.86666 0.55467 1.2133 0.55466 0.32933 1.508 0.32933zm-0.13867-8.0773q0.97066 0 1.6293 0.26 0.676 0.24267 1.0747 0.71067 0.416 0.45066 0.58933 1.092 0.17333 0.624 0.17333 1.3867v5.6333q-0.208 0.03467-0.58933 0.104-0.364 0.052-0.832 0.104t-1.0227 0.08667q-0.53733 0.052-1.0747 0.052-0.76266 0-1.404-0.156-0.64133-0.156-1.1093-0.48533-0.468-0.34667-0.728-0.90133-0.26-0.55466-0.26-1.3347 0-0.74533 0.29467-1.2827 0.312-0.53733 0.832-0.86666t1.2133-0.48533q0.69333-0.156 1.456-0.156 0.24267 0 0.50266 0.03467 0.26 0.01733 0.48533 0.06933 0.24267 0.03467 0.416 0.06933 0.17333 0.03467 0.24267 0.052v-0.45067q0-0.39867-0.08667-0.78-0.08667-0.39867-0.312-0.69333-0.22533-0.312-0.624-0.48533-0.38133-0.19067-1.0053-0.19067-0.79733 0-1.404 0.12133-0.58933 0.104-0.884 0.22533l-0.19067-1.3347q0.312-0.13867 1.04-0.26 0.728-0.13867 1.5773-0.13867z"/>
  <path d="m72.159 80.87q-1.092 0-1.924-0.34667-0.81466-0.34667-1.3867-0.97066-0.55466-0.624-0.832-1.4733-0.27733-0.86666-0.27733-1.9067t0.29467-1.9067q0.312-0.86666 0.86666-1.4907 0.55467-0.64133 1.352-0.988 0.81467-0.364 1.8027-0.364 0.60666 0 1.2133 0.104 0.60666 0.104 1.1613 0.32933l-0.364 1.3693q-0.364-0.17333-0.84933-0.27733-0.468-0.104-1.0053-0.104-1.352 0-2.08 0.84933-0.71066 0.84933-0.71066 2.4787 0 0.728 0.156 1.3347 0.17333 0.60667 0.52 1.04 0.364 0.43333 0.91866 0.676 0.55466 0.22533 1.352 0.22533 0.64133 0 1.1613-0.12133 0.52-0.12133 0.81466-0.26l0.22533 1.352q-0.13867 0.08667-0.39867 0.17333-0.26 0.06933-0.58933 0.12133-0.32933 0.06933-0.71066 0.104-0.364 0.052-0.71067 0.052z"/>
  <path d="m79.561 75.705q0.52 0.39867 1.092 0.988 0.58933 0.58933 1.144 1.2827 0.572 0.676 1.0747 1.3867 0.50267 0.69333 0.84933 1.3h-1.8893q-0.364-0.60667-0.84933-1.2307-0.468-0.64133-0.988-1.2133-0.52-0.58933-1.0573-1.0747-0.53733-0.48533-1.0227-0.81466v4.3333h-1.612v-13.173l1.612-0.27733v8.216q0.416-0.416 0.91866-0.91866 0.50267-0.50266 0.988-1.0227 0.48533-0.52 0.91866-0.988 0.43333-0.48533 0.74533-0.84933h1.8893q-0.39867 0.43333-0.86666 0.95333t-0.97066 1.0573q-0.50267 0.52-1.0227 1.0573-0.50266 0.52-0.95333 0.988z"/>
  <path d="m85.454 68.65h1.6813v12.012h-1.6813z"/>
  <path d="m90.013 71.909q0.55466-0.13867 1.4733-0.29467 0.91866-0.156 2.1147-0.156 1.0747 0 1.7853 0.312 0.71066 0.29467 1.1267 0.84933 0.43333 0.53733 0.60666 1.3t0.17333 1.6813v5.0613h-1.612v-4.7147q0-0.832-0.12133-1.4213-0.104-0.58933-0.364-0.95333-0.26-0.364-0.69333-0.52-0.43333-0.17333-1.0747-0.17333-0.26 0-0.53733 0.01733-0.27733 0.01733-0.53733 0.052-0.24267 0.01733-0.45067 0.052-0.19067 0.03467-0.27733 0.052v7.6093h-1.612z"/>
  <path d="m108.09 68.65v1.456h-3.7787v10.556h-1.6813v-10.556h-3.7787v-1.456z"/>
  <path d="m111.37 80.662h-1.612v-9.0133h1.612zm-0.81466-10.643q-0.43334 0-0.74534-0.27733-0.29466-0.29467-0.29466-0.78 0-0.48533 0.29466-0.76266 0.312-0.29467 0.74534-0.29467 0.43333 0 0.72799 0.29467 0.312 0.27733 0.312 0.76266 0 0.48533-0.312 0.78-0.29466 0.27733-0.72799 0.27733z"/>
  <path d="m114.14 71.909q0.55466-0.13867 1.456-0.29467 0.91866-0.156 2.1147-0.156 0.86666 0 1.456 0.24267 0.58933 0.22533 0.98799 0.676 0.12134-0.08667 0.38134-0.24267 0.26-0.156 0.64133-0.29467 0.38133-0.156 0.84933-0.26 0.468-0.12133 1.0053-0.12133 1.04 0 1.6987 0.312 0.65866 0.29467 1.0227 0.84933 0.38133 0.55466 0.50267 1.3173 0.13866 0.76267 0.13866 1.664v5.0613h-1.612v-4.7147q0-0.79733-0.0867-1.3693-0.0693-0.572-0.29467-0.95333-0.208-0.38133-0.58933-0.55467-0.364-0.19067-0.95333-0.19067-0.81467 0-1.352 0.22533-0.52 0.208-0.71066 0.38133 0.13866 0.45066 0.208 0.988 0.0693 0.53733 0.0693 1.1267v5.0613h-1.612v-4.7147q0-0.79733-0.0867-1.3693-0.0867-0.572-0.312-0.95333-0.208-0.38133-0.58934-0.55467-0.364-0.19067-0.93599-0.19067-0.24267 0-0.52 0.01733-0.27734 0.01733-0.53734 0.052-0.24266 0.01733-0.45066 0.052t-0.27733 0.052v7.6093h-1.612z"/>
  <path d="m128.56 76.173q0-1.196 0.34666-2.08 0.34667-0.90133 0.91867-1.4907t1.3173-0.884 1.5253-0.29467q1.82 0 2.7907 1.144 0.97067 1.1267 0.97067 3.4493 0 0.104 0 0.27733 0 0.156-0.0173 0.29467h-6.1706q0.104 1.404 0.81466 2.132 0.71067 0.728 2.2187 0.728 0.84933 0 1.4213-0.13867 0.58933-0.156 0.88399-0.29467l0.22534 1.352q-0.29467 0.156-1.04 0.32933-0.728 0.17333-1.664 0.17333-1.1787 0-2.0453-0.34667-0.84933-0.364-1.404-0.988-0.55467-0.624-0.832-1.4733-0.26-0.86666-0.26-1.8893zm6.188-0.884q0.0173-1.092-0.55467-1.7853-0.55466-0.71066-1.5427-0.71066-0.55467 0-0.988 0.22533-0.416 0.208-0.71067 0.55467-0.29466 0.34667-0.468 0.79733-0.156 0.45067-0.20799 0.91866z"/>
  <path d="m147.33 80.922q-1.1787 0-2.0453-0.364-0.86667-0.364-1.4213-0.988-0.55467-0.64133-0.832-1.508-0.26-0.86666-0.26-1.872v-7.54h1.6813v7.3493q0 1.8027 0.79733 2.6173t2.08 0.81466q0.64133 0 1.1613-0.19067 0.53733-0.208 0.91866-0.624t0.58933-1.0573q0.208-0.65866 0.208-1.56v-7.3493h1.6813v7.54q0 1.0053-0.27733 1.872-0.26 0.86666-0.832 1.508-0.55466 0.624-1.4213 0.988-0.84933 0.364-2.028 0.364z"/>
  <path d="m154.79 68.65h1.6813v12.012h-1.6813z"/>
  <path d="m166.64 68.529q2.5307 0 3.8827 0.97066 1.3693 0.95333 1.3693 2.86 0 1.04-0.38133 1.7853-0.364 0.728-1.0747 1.196-0.69333 0.45066-1.6987 0.65866t-2.2707 0.208h-1.3347v4.4547h-1.6813v-11.839q0.71067-0.17333 1.5773-0.22533 0.884-0.06933 1.612-0.06933zm0.13867 1.4733q-1.0747 0-1.6467 0.052v4.7147h1.2653q0.86667 0 1.56-0.104 0.69333-0.12133 1.1613-0.38133 0.48533-0.27733 0.74533-0.74533 0.26-0.468 0.26-1.196 0-0.69333-0.27733-1.144-0.26-0.45067-0.728-0.71066-0.45066-0.27733-1.0573-0.38133-0.60666-0.104-1.2827-0.104z"/>
  <path d="m176.59 80.835q-1.4907-0.03467-2.1147-0.64133-0.624-0.60667-0.624-1.8893v-10.816l1.612-0.27733v10.833q0 0.39867 0.0693 0.65867 0.0693 0.26 0.22533 0.416 0.156 0.156 0.416 0.24267 0.26 0.06933 0.64133 0.12133z"/>
  <path d="m181.67 79.501q0.572 0 1.0053-0.01733 0.45066-0.03467 0.74533-0.104v-2.6867q-0.17333-0.08667-0.572-0.13867-0.38133-0.06933-0.936-0.06933-0.364 0-0.78 0.052-0.39866 0.052-0.74533 0.22533-0.32933 0.156-0.55466 0.45067-0.22534 0.27733-0.22534 0.74533 0 0.86666 0.55467 1.2133 0.55466 0.32933 1.508 0.32933zm-0.13867-8.0773q0.97066 0 1.6293 0.26 0.676 0.24267 1.0747 0.71067 0.416 0.45066 0.58934 1.092 0.17333 0.624 0.17333 1.3867v5.6333q-0.208 0.03467-0.58933 0.104-0.364 0.052-0.832 0.104t-1.0227 0.08667q-0.53733 0.052-1.0747 0.052-0.76267 0-1.404-0.156-0.64133-0.156-1.1093-0.48533-0.468-0.34667-0.728-0.90133-0.26-0.55466-0.26-1.3347 0-0.74533 0.29467-1.2827 0.312-0.53733 0.832-0.86666t1.2133-0.48533q0.69333-0.156 1.456-0.156 0.24266 0 0.50266 0.03467 0.26 0.01733 0.48533 0.06933 0.24267 0.03467 0.416 0.06933 0.17334 0.03467 0.24267 0.052v-0.45067q0-0.39867-0.0867-0.78-0.0867-0.39867-0.312-0.69333-0.22533-0.312-0.624-0.48533-0.38133-0.19067-1.0053-0.19067-0.79733 0-1.404 0.12133-0.58934 0.104-0.884 0.22533l-0.19067-1.3347q0.312-0.13867 1.04-0.26 0.728-0.13867 1.5773-0.13867z"/>
  <path d="m191.59 80.87q-1.092 0-1.924-0.34667-0.81466-0.34667-1.3867-0.97066-0.55467-0.624-0.832-1.4733-0.27733-0.86666-0.27733-1.9067t0.29466-1.9067q0.312-0.86666 0.86667-1.4907 0.55466-0.64133 1.352-0.988 0.81466-0.364 1.8027-0.364 0.60667 0 1.2133 0.104 0.60667 0.104 1.1613 0.32933l-0.364 1.3693q-0.364-0.17333-0.84933-0.27733-0.468-0.104-1.0053-0.104-1.352 0-2.08 0.84933-0.71066 0.84933-0.71066 2.4787 0 0.728 0.156 1.3347 0.17333 0.60667 0.52 1.04 0.364 0.43333 0.91866 0.676 0.55467 0.22533 1.352 0.22533 0.64133 0 1.1613-0.12133 0.52-0.12133 0.81467-0.26l0.22533 1.352q-0.13867 0.08667-0.39867 0.17333-0.26 0.06933-0.58933 0.12133-0.32933 0.06933-0.71067 0.104-0.36399 0.052-0.71066 0.052z"/>
  <path d="m195.23 76.173q0-1.196 0.34666-2.08 0.34667-0.90133 0.91867-1.4907t1.3173-0.884 1.5253-0.29467q1.82 0 2.7907 1.144 0.97066 1.1267 0.97066 3.4493 0 0.104 0 0.27733 0 0.156-0.0173 0.29467h-6.1706q0.104 1.404 0.81466 2.132 0.71067 0.728 2.2187 0.728 0.84933 0 1.4213-0.13867 0.58934-0.156 0.884-0.29467l0.22533 1.352q-0.29466 0.156-1.04 0.32933-0.728 0.17333-1.664 0.17333-1.1787 0-2.0453-0.34667-0.84933-0.364-1.404-0.988-0.55466-0.624-0.832-1.4733-0.25999-0.86666-0.25999-1.8893zm6.188-0.884q0.0173-1.092-0.55466-1.7853-0.55467-0.71066-1.5427-0.71066-0.55466 0-0.98799 0.22533-0.416 0.208-0.71067 0.55467t-0.468 0.79733q-0.156 0.45067-0.208 0.91866z"/>
  <path d="m205.42 80.662v-13.173l1.612-0.27733v4.6107q0.45066-0.17333 0.95333-0.26 0.52-0.104 1.0227-0.104 1.0747 0 1.7853 0.312 0.71067 0.29467 1.1267 0.84933 0.43333 0.53733 0.60666 1.3 0.17334 0.76266 0.17334 1.6813v5.0613h-1.612v-4.7147q0-0.832-0.12133-1.4213-0.104-0.58933-0.364-0.95333t-0.69333-0.52q-0.43334-0.17333-1.0747-0.17333-0.26 0-0.53733 0.03467t-0.53733 0.08667q-0.24267 0.03467-0.45067 0.08667-0.19067 0.052-0.27733 0.08667v7.488z"/>
  <path d="m223.27 76.155q0 1.0747-0.312 1.9413-0.31199 0.86666-0.88399 1.4907-0.55467 0.624-1.3347 0.97066-0.78 0.32933-1.6987 0.32933-0.91867 0-1.6987-0.32933-0.78-0.34667-1.352-0.97066-0.55467-0.624-0.86667-1.4907t-0.312-1.9413q0-1.0573 0.312-1.924 0.312-0.884 0.86667-1.508 0.572-0.624 1.352-0.95333 0.77999-0.34667 1.6987-0.34667 0.91866 0 1.6987 0.34667 0.78 0.32933 1.3347 0.95333 0.572 0.624 0.88399 1.508 0.312 0.86666 0.312 1.924zm-1.6813 0q0-1.5253-0.69333-2.4093-0.676-0.90133-1.8547-0.90133-1.1787 0-1.872 0.90133-0.676 0.884-0.676 2.4093 0 1.5253 0.676 2.4267 0.69333 0.884 1.872 0.884 1.1787 0 1.8547-0.884 0.69333-0.90133 0.69333-2.4267z"/>
  <path d="m228.25 80.835q-1.4907-0.03467-2.1147-0.64133-0.624-0.60667-0.624-1.8893v-10.816l1.612-0.27733v10.833q0 0.39867 0.0693 0.65867 0.0693 0.26 0.22533 0.416 0.156 0.156 0.416 0.24267 0.26 0.06933 0.64134 0.12133z"/>
  <path d="m236.1 73.555q-0.29467-0.24267-0.84934-0.468-0.55466-0.22533-1.2133-0.22533-0.69333 0-1.196 0.26-0.48534 0.24267-0.79734 0.69333-0.312 0.43333-0.45066 1.04-0.13867 0.60667-0.13867 1.3 0 1.5773 0.78 2.444 0.78 0.84933 2.08 0.84933 0.65866 0 1.092-0.052 0.45067-0.06933 0.69334-0.13867zm0-6.0667 1.612-0.27733v13.191q-0.55466 0.156-1.4213 0.312-0.86666 0.156-1.9933 0.156-1.04 0-1.872-0.32933-0.832-0.32933-1.4213-0.936-0.58934-0.60666-0.91867-1.4733-0.312-0.884-0.312-1.976 0-1.04 0.26-1.9067 0.27733-0.86666 0.79733-1.4907t1.2653-0.97066q0.76267-0.34667 1.7333-0.34667 0.78 0 1.3693 0.208 0.60667 0.208 0.90134 0.39867z"/>
  <path d="m239.98 76.173q0-1.196 0.34667-2.08 0.34666-0.90133 0.91866-1.4907t1.3173-0.884 1.5253-0.29467q1.82 0 2.7907 1.144 0.97067 1.1267 0.97067 3.4493 0 0.104 0 0.27733 0 0.156-0.0173 0.29467h-6.1707q0.104 1.404 0.81467 2.132 0.71066 0.728 2.2187 0.728 0.84933 0 1.4213-0.13867 0.58933-0.156 0.884-0.29467l0.22533 1.352q-0.29467 0.156-1.04 0.32933-0.728 0.17333-1.664 0.17333-1.1787 0-2.0453-0.34667-0.84934-0.364-1.404-0.988-0.55467-0.624-0.832-1.4733-0.26-0.86666-0.26-1.8893zm6.188-0.884q0.0173-1.092-0.55467-1.7853-0.55466-0.71066-1.5427-0.71066-0.55467 0-0.988 0.22533-0.416 0.208-0.71066 0.55467-0.29467 0.34667-0.468 0.79733-0.156 0.45067-0.208 0.91866z"/>
  <path d="m253.5 71.458q0.20799 0 0.46799 0.03467 0.27734 0.01733 0.53734 0.06933 0.26 0.03467 0.468 0.08667 0.22533 0.03467 0.32933 0.06933l-0.27733 1.404q-0.19067-0.06933-0.64134-0.156-0.43333-0.104-1.1267-0.104-0.45067 0-0.90133 0.104-0.43333 0.08667-0.572 0.12133v7.5747h-1.612v-8.632q0.572-0.208 1.4213-0.38133 0.84933-0.19067 1.9067-0.19067z"/>
 </g>
</svg>
