<?xml version="1.0" encoding="UTF-8" standalone="no"?>
<svg
   viewBox="0 0 16 16"
   version="1.1"
   id="svg9"
   sodipodi:docname="circle.svg"
   inkscape:version="1.2.2 (b0a8486541, 2022-12-01)"
   xmlns:inkscape="http://www.inkscape.org/namespaces/inkscape"
   xmlns:sodipodi="http://sodipodi.sourceforge.net/DTD/sodipodi-0.dtd"
   xmlns="http://www.w3.org/2000/svg"
   xmlns:svg="http://www.w3.org/2000/svg">
  <sodipodi:namedview
     id="namedview11"
     pagecolor="#ffffff"
     bordercolor="#666666"
     borderopacity="1.0"
     inkscape:showpageshadow="2"
     inkscape:pageopacity="0.0"
     inkscape:pagecheckerboard="0"
     inkscape:deskcolor="#d1d1d1"
     showgrid="false"
     inkscape:zoom="90.774833"
     inkscape:cx="15.191435"
     inkscape:cy="-2.1426644"
     inkscape:window-width="1720"
     inkscape:window-height="1361"
     inkscape:window-x="0"
     inkscape:window-y="0"
     inkscape:window-maximized="0"
     inkscape:current-layer="svg9" />
  <defs
     id="defs3">
    <style
       type="text/css"
       id="current-color-scheme">.ColorScheme-Text {
        color:#eff0f1;
      }</style>
  </defs>
  <path
     class="ColorScheme-Text"
     d="M 7.998234,0.01017736 A 7.9915888,7.9915888 0 0 0 0.0066452,8.001766 7.9915888,7.9915888 0 0 0 7.998234,15.993354 7.9915888,7.9915888 0 0 0 15.989823,8.001766 7.9915888,7.9915888 0 0 0 7.998234,0.01017736 m 0,1.33193144 A 6.6596573,6.6596573 0 0 1 14.65789,8.001766 6.6596573,6.6596573 0 0 1 7.998234,14.661424 6.6596573,6.6596573 0 0 1 1.3385765,8.001766 6.6596573,6.6596573 0 0 1 7.998234,1.3421088"
     fill="currentColor"
     id="path5"
     style="fill:#ffffff;stroke-width:1.33193" />
  <path
     class="ColorScheme-Text"
     d="m12.999991 7.9999781a5 5 0 0 1-4.9999996 4.9999999 5 5 0 0 1-5-4.9999999 5 5 0 0 1 5-5 5 5 0 0 1 4.9999996 5z"
     fill="currentColor"
     fill-opacity=".5"
     id="path7" />
  <path
     style="fill:#f7941d;stroke-width:0.005889;stroke-linejoin:round;stroke-miterlimit:0;fill-opacity:1"
     d="M 7.7740993,12.991467 C 6.8796188,12.937862 6.0786983,12.68804 5.3540909,12.236621 4.0494072,11.423823 3.1732449,10.013716 3.0314542,8.4985394 2.8826488,6.9084043 3.4664486,5.37637 4.6228668,4.3222813 c 1.262101,-1.15042 2.9717401,-1.578152 4.6293434,-1.1582085 1.8384568,0.4657617 3.2832388,1.997933 3.6460988,3.8666372 0.119793,0.6169272 0.122443,1.2954099 0.0074,1.9040514 -0.246319,1.3035696 -1.003737,2.4518746 -2.114169,3.2052446 -0.663666,0.450264 -1.4219044,0.730236 -2.2229285,0.820794 -0.21183,0.02395 -0.6344598,0.04026 -0.7945472,0.03067 z"
     id="path1139" />
  <path
     style="fill:#f7941d;fill-opacity:1;stroke-width:0.005889;stroke-linejoin:round;stroke-miterlimit:0"
     d="M 7.5092502,12.961471 C 6.145543,12.812255 4.9537393,12.164811 4.1119015,11.115871 3.8229888,10.755883 3.5425084,10.273288 3.3647826,9.8303785 2.7811735,8.3759682 2.9407496,6.6707873 3.7852079,5.3378433 4.4423899,4.3005074 5.4843977,3.526657 6.6695283,3.1957938 7.1267322,3.0681522 7.4642555,3.0242507 7.9922103,3.0237529 c 0.450009,-4.242e-4 0.6158114,0.014918 1.0089807,0.093366 1.496196,0.2985317 2.777773,1.2898993 3.462465,2.6784017 0.153376,0.3110343 0.219243,0.4756102 0.308641,0.7711782 0.311998,1.0315259 0.273964,2.175843 -0.105891,3.1859786 -0.569584,1.5146736 -1.858073,2.6711896 -3.4278471,3.0767496 -0.5210795,0.134624 -1.2188209,0.187901 -1.7293087,0.132044 z"
     id="path2212" />
  <path
     style="fill:#f7941d;fill-opacity:1;stroke-width:0.005889;stroke-linejoin:round;stroke-miterlimit:0"
     d="M 7.5092502,12.961471 C 6.3402851,12.833563 5.3184418,12.353479 4.5094388,11.552093 4.1097599,11.156178 3.8052795,10.739986 3.5572419,10.250544 3.3623896,9.8660506 3.2442169,9.5507082 3.1539174,9.1742779 2.7423386,7.4585355 3.2745549,5.6220861 4.5314018,4.4211719 5.5189872,3.4775366 6.8108259,2.9758468 8.1402142,3.0196779 c 0.3472533,0.011449 0.5101916,0.029221 0.8179163,0.089209 0.9851754,0.1920524 1.8424765,0.6489526 2.5554635,1.3619397 0.802448,0.802448 1.302958,1.8269018 1.432862,2.9328107 0.07897,0.672322 0.02486,1.3524325 -0.157644,1.981419 C 12.31278,11.025643 11.025643,12.31278 9.3850566,12.788812 8.80006,12.958555 8.0845213,13.024417 7.5092502,12.961471 Z"
     id="path2214" />
  <path
     style="fill:#f7941d;fill-opacity:1;stroke-width:0.005889;stroke-linejoin:round;stroke-miterlimit:0"
     d="M 7.563778,12.969644 C 6.1625846,12.823694 4.9591959,12.176109 4.1044913,11.108082 3.7410437,10.653923 3.4003219,10.012606 3.2353987,9.4722493 2.9672613,8.5937207 2.9451161,7.6679911 3.1707375,6.7692308 3.5583287,5.225266 4.6665679,3.9685725 6.1750227,3.3625068 7.1066977,2.9881792 8.1716599,2.9141379 9.1750456,3.1539309 c 1.8327804,0.4380049 3.2800154,1.9166185 3.6910654,3.7710934 0.175262,0.7907079 0.150589,1.6536716 -0.06971,2.4381695 -0.338499,1.2054202 -1.158064,2.2689972 -2.252445,2.9230732 -0.5851189,0.349707 -1.2559459,0.57884 -1.9363621,0.661399 -0.2323876,0.0282 -0.8577056,0.04136 -1.0438169,0.02198 z"
     id="path2216" />
  <path
     style="fill:#f7941d;fill-opacity:1;stroke-width:0.00855681;stroke-linejoin:round;stroke-miterlimit:0"
     d="M 7.3530777,15.222568 C 5.9269789,15.06235 4.7012274,14.58932 3.6414981,13.790227 2.2172979,12.716306 1.1985469,11.077872 0.87980913,9.3486709 0.78878735,8.8548643 0.76730693,8.603857 0.76648288,8.0244031 0.76568134,7.4608793 0.78514375,7.2174137 0.86962916,6.7340909 1.0767577,5.5491528 1.5887116,4.4153056 2.3436698,3.469467 2.577026,3.1771101 3.1424128,2.6102393 3.4264217,2.383873 5.2528715,0.92812161 7.5186871,0.42378798 9.7588836,0.97437024 11.424103,1.3836382 12.900796,2.3995563 13.919694,3.8368748 c 0.399507,0.5635718 0.740735,1.2393149 0.957212,1.8956039 0.483109,1.4646209 0.480799,3.1041521 -0.0064,4.5624883 -0.882779,2.642287 -3.231584,4.562329 -5.9894003,4.896066 -0.3376341,0.04086 -1.2731489,0.06017 -1.5280012,0.03153 z"
     id="path2218" />
</svg>
