<svg version="1.1" viewBox="0 0 500 275" xmlns="http://www.w3.org/2000/svg">
 <defs>
  <linearGradient id="linearGradient42076" x1="116.85" x2="75.976" y1="164.85" y2="120.05" gradientTransform="matrix(.5122 0 0 .5122 24.953 .20732)" gradientUnits="userSpaceOnUse">
   <stop stop-color="#e2e2e2" offset="0"/>
   <stop stop-color="#fefefe" offset="1"/>
  </linearGradient>
  <linearGradient id="linearGradient11473" x1="436.21" x2="436.21" y1="362.61" y2="344.49" gradientTransform="translate(0,-54)" gradientUnits="userSpaceOnUse">
   <stop stop-color="#324c5b" offset="0"/>
   <stop stop-color="#415a67" offset="1"/>
  </linearGradient>
  <linearGradient id="linearGradient14580" x1="436.21" x2="436.21" y1="362.61" y2="344.49" gradientTransform="translate(90,-54)" gradientUnits="userSpaceOnUse">
   <stop stop-color="#303539" offset="0"/>
   <stop stop-color="#373c41" offset="1"/>
  </linearGradient>
  <linearGradient id="linearGradient4416" x2="0" y1="44" y2="7" gradientTransform="matrix(-1.4054 0 0 1.4054 804.7 154.1)" gradientUnits="userSpaceOnUse">
   <stop stop-color="#8e44ad" offset="0"/>
   <stop stop-color="#9b59b6" offset="1"/>
  </linearGradient>
  <linearGradient id="linearGradient4191" x1="9" x2="23" y1="9" y2="23" gradientTransform="matrix(2 0 0 2 -.99999 -5)" gradientUnits="userSpaceOnUse">
   <stop stop-color="#292c2f" offset="0"/>
   <stop stop-opacity="0" offset="1"/>
  </linearGradient>
  <linearGradient id="linearGradient4244" x2="0" y1="38" y2="13" gradientUnits="userSpaceOnUse">
   <stop stop-color="#b985ce" offset="0"/>
   <stop stop-color="#e2cdeb" offset="1"/>
  </linearGradient>
  <linearGradient id="linearGradient34609" x1="97.298" x2="97.384" y1="25.402" y2="58.857" gradientTransform="matrix(1.0009 0 0 .99303 14.111 33.768)" gradientUnits="userSpaceOnUse">
   <stop stop-color="#31363b" offset="0"/>
   <stop stop-color="#31363b" offset="1"/>
  </linearGradient>
  <linearGradient id="linearGradient40329" x1="229.14" x2="229.14" y1="113.98" y2="297.17" gradientTransform="matrix(.96868 0 0 1.0029 3.2379 1.0684)" gradientUnits="userSpaceOnUse">
   <stop stop-color="#2a2e32" offset="0"/>
   <stop stop-color="#2a2e32" offset="1"/>
  </linearGradient>
 </defs>
 <g transform="translate(-63.679 -52.04)">
  <rect x="65.552" y="53.913" width="496.25" height="271.25" ry="9.6357" fill="url(#linearGradient40329)" stroke="#888" stroke-width="3.7461"/>
  <g fill="#fff" stroke-width=".37795" aria-label='"Microsoft Visual Studio Code: IDE is available but it is not installed.  Install and start now?'>
   <path d="m160.85 144.64-0.48 6.192h-1.32l-0.48-6.192zm4.392 0-0.48 6.192h-1.32l-0.48-6.192z"/>
   <path d="m176.69 161.78-5.64-15.024h-0.096q0.072 0.744 0.12 2.016 0.048 1.248 0.048 2.616v10.392h-1.992v-17.136h3.192l5.28 14.04h0.096l5.376-14.04h3.168v17.136h-2.136v-10.536q0-1.248 0.048-2.472 0.072-1.224 0.12-1.992h-0.096l-5.712 15z"/>
   <path d="m191.69 144.09q0.48 0 0.84 0.336 0.384 0.312 0.384 1.008 0 0.672-0.384 1.008-0.36 0.336-0.84 0.336-0.528 0-0.888-0.336t-0.36-1.008q0-0.696 0.36-1.008 0.36-0.336 0.888-0.336zm1.032 4.824v12.864h-2.112v-12.864z"/>
   <path d="m201.96 162.02q-1.704 0-3.048-0.696-1.32-0.696-2.088-2.16-0.744-1.464-0.744-3.744 0-2.376 0.792-3.864t2.136-2.184q1.368-0.696 3.096-0.696 0.984 0 1.896 0.216 0.912 0.192 1.488 0.48l-0.648 1.752q-0.576-0.216-1.344-0.408t-1.44-0.192q-3.792 0-3.792 4.872 0 2.328 0.912 3.576 0.936 1.224 2.76 1.224 1.056 0 1.848-0.216 0.816-0.216 1.488-0.528v1.872q-0.648 0.336-1.44 0.504-0.768 0.192-1.872 0.192z"/>
   <path d="m214.32 148.68q0.36 0 0.768 0.048 0.432 0.024 0.744 0.096l-0.264 1.944q-0.312-0.072-0.696-0.12-0.36-0.048-0.696-0.048-0.984 0-1.848 0.552-0.864 0.528-1.392 1.512-0.504 0.96-0.504 2.256v6.864h-2.112v-12.864h1.728l0.24 2.352h0.096q0.624-1.056 1.608-1.824t2.328-0.768z"/>
   <path d="m228.93 155.32q0 3.192-1.632 4.944-1.608 1.752-4.368 1.752-1.704 0-3.048-0.768-1.32-0.792-2.088-2.28-0.768-1.512-0.768-3.648 0-3.192 1.608-4.92t4.368-1.728q1.752 0 3.072 0.792 1.344 0.768 2.088 2.256 0.768 1.464 0.768 3.6zm-9.72 0q0 2.28 0.888 3.624 0.912 1.32 2.88 1.32 1.944 0 2.856-1.32 0.912-1.344 0.912-3.624t-0.912-3.576-2.88-1.296-2.856 1.296-0.888 3.576z"/>
   <path d="m240.65 158.23q0 1.872-1.392 2.832t-3.744 0.96q-1.344 0-2.328-0.216-0.96-0.216-1.704-0.6v-1.92q0.768 0.384 1.848 0.72 1.104 0.312 2.232 0.312 1.608 0 2.328-0.504 0.72-0.528 0.72-1.392 0-0.48-0.264-0.864t-0.96-0.768q-0.672-0.384-1.944-0.864-1.248-0.48-2.136-0.96t-1.368-1.152-0.48-1.728q0-1.632 1.32-2.52 1.344-0.888 3.504-0.888 1.176 0 2.184 0.24 1.032 0.216 1.92 0.624l-0.72 1.68q-0.816-0.336-1.704-0.576t-1.824-0.24q-1.296 0-1.992 0.432-0.672 0.408-0.672 1.128 0 0.528 0.312 0.912 0.312 0.36 1.032 0.72 0.744 0.336 1.968 0.816 1.224 0.456 2.088 0.936t1.32 1.176q0.456 0.672 0.456 1.704z"/>
   <path d="m254.95 155.32q0 3.192-1.632 4.944-1.608 1.752-4.368 1.752-1.704 0-3.048-0.768-1.32-0.792-2.088-2.28-0.768-1.512-0.768-3.648 0-3.192 1.608-4.92t4.368-1.728q1.752 0 3.072 0.792 1.344 0.768 2.088 2.256 0.768 1.464 0.768 3.6zm-9.72 0q0 2.28 0.888 3.624 0.912 1.32 2.88 1.32 1.944 0 2.856-1.32 0.912-1.344 0.912-3.624t-0.912-3.576-2.88-1.296-2.856 1.296-0.888 3.576z"/>
   <path d="m264.21 150.55h-3.24v11.232h-2.112v-11.232h-2.256v-0.984l2.256-0.72v-0.744q0-2.496 1.104-3.576 1.104-1.104 3.072-1.104 0.768 0 1.392 0.144 0.648 0.12 1.104 0.288l-0.552 1.656q-0.384-0.12-0.888-0.24t-1.032-0.12q-1.056 0-1.584 0.72-0.504 0.696-0.504 2.208v0.84h3.24z"/>
   <path d="m270.84 160.29q0.48 0 0.984-0.072 0.504-0.096 0.816-0.192v1.608q-0.336 0.168-0.96 0.264-0.624 0.12-1.2 0.12-1.008 0-1.872-0.336-0.84-0.36-1.368-1.224t-0.528-2.424v-7.488h-1.824v-1.008l1.848-0.84 0.84-2.736h1.248v2.952h3.72v1.632h-3.72v7.44q0 1.176 0.552 1.752 0.576 0.552 1.464 0.552z"/>
   <path d="m293.81 144.64-6.12 17.136h-2.16l-6.12-17.136h2.256l3.864 10.992q0.384 1.056 0.648 1.992 0.264 0.912 0.432 1.752 0.168-0.84 0.432-1.776t0.648-2.016l3.84-10.944z"/>
   <path d="m296.93 144.09q0.48 0 0.84 0.336 0.384 0.312 0.384 1.008 0 0.672-0.384 1.008-0.36 0.336-0.84 0.336-0.528 0-0.888-0.336t-0.36-1.008q0-0.696 0.36-1.008 0.36-0.336 0.888-0.336zm1.032 4.824v12.864h-2.112v-12.864z"/>
   <path d="m310.41 158.23q0 1.872-1.392 2.832t-3.744 0.96q-1.344 0-2.328-0.216-0.96-0.216-1.704-0.6v-1.92q0.768 0.384 1.848 0.72 1.104 0.312 2.232 0.312 1.608 0 2.328-0.504 0.72-0.528 0.72-1.392 0-0.48-0.264-0.864t-0.96-0.768q-0.672-0.384-1.944-0.864-1.248-0.48-2.136-0.96t-1.368-1.152-0.48-1.728q0-1.632 1.32-2.52 1.344-0.888 3.504-0.888 1.176 0 2.184 0.24 1.032 0.216 1.92 0.624l-0.72 1.68q-0.816-0.336-1.704-0.576t-1.824-0.24q-1.296 0-1.992 0.432-0.672 0.408-0.672 1.128 0 0.528 0.312 0.912 0.312 0.36 1.032 0.72 0.744 0.336 1.968 0.816 1.224 0.456 2.088 0.936t1.32 1.176q0.456 0.672 0.456 1.704z"/>
   <path d="m324.29 148.92v12.864h-1.728l-0.312-1.704h-0.096q-0.624 1.008-1.728 1.488-1.104 0.456-2.352 0.456-2.328 0-3.504-1.104-1.176-1.128-1.176-3.576v-8.424h2.136v8.28q0 3.072 2.856 3.072 2.136 0 2.952-1.2 0.84-1.2 0.84-3.456v-6.696z"/>
   <path d="m333.24 148.7q2.352 0 3.48 1.032t1.128 3.288v8.76h-1.536l-0.408-1.824h-0.096q-0.84 1.056-1.776 1.56-0.912 0.504-2.544 0.504-1.752 0-2.904-0.912-1.152-0.936-1.152-2.904 0-1.92 1.512-2.952 1.512-1.056 4.656-1.152l2.184-0.072v-0.768q0-1.608-0.696-2.232t-1.968-0.624q-1.008 0-1.92 0.312-0.912 0.288-1.704 0.672l-0.648-1.584q0.84-0.456 1.992-0.768 1.152-0.336 2.4-0.336zm0.624 6.864q-2.4 0.096-3.336 0.768-0.912 0.672-0.912 1.896 0 1.08 0.648 1.584 0.672 0.504 1.704 0.504 1.632 0 2.712-0.888 1.08-0.912 1.08-2.784v-1.152z"/>
   <path d="m343.94 161.78h-2.112v-18.24h2.112z"/>
   <path d="m364.27 157.2q0 2.28-1.656 3.552t-4.464 1.272q-1.44 0-2.664-0.216t-2.04-0.6v-2.064q0.864 0.384 2.136 0.696 1.296 0.312 2.664 0.312 1.92 0 2.88-0.744 0.984-0.744 0.984-2.016 0-0.84-0.36-1.416t-1.248-1.056q-0.864-0.504-2.424-1.056-2.184-0.792-3.312-1.944-1.104-1.152-1.104-3.144 0-1.368 0.696-2.328 0.696-0.984 1.92-1.512 1.248-0.528 2.856-0.528 1.416 0 2.592 0.264t2.136 0.696l-0.672 1.848q-0.888-0.384-1.944-0.648-1.032-0.264-2.16-0.264-1.608 0-2.424 0.696-0.816 0.672-0.816 1.8 0 0.864 0.36 1.44t1.176 1.032 2.208 0.984q1.512 0.552 2.544 1.2 1.056 0.624 1.584 1.512 0.552 0.888 0.552 2.232z"/>
   <path d="m371.73 160.29q0.48 0 0.984-0.072 0.504-0.096 0.816-0.192v1.608q-0.336 0.168-0.96 0.264-0.624 0.12-1.2 0.12-1.008 0-1.872-0.336-0.84-0.36-1.368-1.224t-0.528-2.424v-7.488h-1.824v-1.008l1.848-0.84 0.84-2.736h1.248v2.952h3.72v1.632h-3.72v7.44q0 1.176 0.552 1.752 0.576 0.552 1.464 0.552z"/>
   <path d="m386.85 148.92v12.864h-1.728l-0.312-1.704h-0.096q-0.624 1.008-1.728 1.488-1.104 0.456-2.352 0.456-2.328 0-3.504-1.104-1.176-1.128-1.176-3.576v-8.424h2.136v8.28q0 3.072 2.856 3.072 2.136 0 2.952-1.2 0.84-1.2 0.84-3.456v-6.696z"/>
   <path d="m395.49 162.02q-2.4 0-3.84-1.656-1.44-1.68-1.44-4.992t1.44-4.992q1.464-1.704 3.864-1.704 1.488 0 2.424 0.552 0.96 0.552 1.56 1.344h0.144q-0.024-0.312-0.096-0.912-0.048-0.624-0.048-0.984v-5.136h2.112v18.24h-1.704l-0.312-1.728h-0.096q-0.576 0.816-1.536 1.392t-2.472 0.576zm0.336-1.752q2.04 0 2.856-1.104 0.84-1.128 0.84-3.384v-0.384q0-2.4-0.792-3.672-0.792-1.296-2.928-1.296-1.704 0-2.568 1.368-0.84 1.344-0.84 3.624 0 2.304 0.84 3.576 0.864 1.272 2.592 1.272z"/>
   <path d="m406.77 144.09q0.48 0 0.84 0.336 0.384 0.312 0.384 1.008 0 0.672-0.384 1.008-0.36 0.336-0.84 0.336-0.528 0-0.888-0.336t-0.36-1.008q0-0.696 0.36-1.008 0.36-0.336 0.888-0.336zm1.032 4.824v12.864h-2.112v-12.864z"/>
   <path d="m423.07 155.32q0 3.192-1.632 4.944-1.608 1.752-4.368 1.752-1.704 0-3.048-0.768-1.32-0.792-2.088-2.28-0.768-1.512-0.768-3.648 0-3.192 1.608-4.92t4.368-1.728q1.752 0 3.072 0.792 1.344 0.768 2.088 2.256 0.768 1.464 0.768 3.6zm-9.72 0q0 2.28 0.888 3.624 0.912 1.32 2.88 1.32 1.944 0 2.856-1.32 0.912-1.344 0.912-3.624t-0.912-3.576-2.88-1.296-2.856 1.296-0.888 3.576z"/>
   <path d="m440.28 146.3q-2.76 0-4.344 1.848t-1.584 5.064q0 3.192 1.464 5.064 1.488 1.848 4.44 1.848 1.128 0 2.136-0.192t1.968-0.48v1.872q-0.96 0.36-1.992 0.528-1.008 0.168-2.424 0.168-2.616 0-4.368-1.08t-2.64-3.072q-0.864-1.992-0.864-4.68 0-2.592 0.936-4.56 0.96-1.992 2.808-3.096 1.848-1.128 4.488-1.128 2.712 0 4.728 1.008l-0.864 1.824q-0.792-0.36-1.776-0.648-0.96-0.288-2.112-0.288z"/>
   <path d="m459 155.32q0 3.192-1.632 4.944-1.608 1.752-4.368 1.752-1.704 0-3.048-0.768-1.32-0.792-2.088-2.28-0.768-1.512-0.768-3.648 0-3.192 1.608-4.92t4.368-1.728q1.752 0 3.072 0.792 1.344 0.768 2.088 2.256 0.768 1.464 0.768 3.6zm-9.72 0q0 2.28 0.888 3.624 0.912 1.32 2.88 1.32 1.944 0 2.856-1.32 0.912-1.344 0.912-3.624t-0.912-3.576-2.88-1.296-2.856 1.296-0.888 3.576z"/>
   <path d="m466.89 162.02q-2.4 0-3.84-1.656-1.44-1.68-1.44-4.992t1.44-4.992q1.464-1.704 3.864-1.704 1.488 0 2.424 0.552 0.96 0.552 1.56 1.344h0.144q-0.024-0.312-0.096-0.912-0.048-0.624-0.048-0.984v-5.136h2.112v18.24h-1.704l-0.312-1.728h-0.096q-0.576 0.816-1.536 1.392t-2.472 0.576zm0.336-1.752q2.04 0 2.856-1.104 0.84-1.128 0.84-3.384v-0.384q0-2.4-0.792-3.672-0.792-1.296-2.928-1.296-1.704 0-2.568 1.368-0.84 1.344-0.84 3.624 0 2.304 0.84 3.576 0.864 1.272 2.592 1.272z"/>
   <path d="m482.06 148.68q1.656 0 2.832 0.72 1.2 0.72 1.824 2.04 0.648 1.296 0.648 3.048v1.272h-8.808q0.048 2.184 1.104 3.336 1.08 1.128 3 1.128 1.224 0 2.16-0.216 0.96-0.24 1.968-0.672v1.848q-0.984 0.432-1.944 0.624-0.96 0.216-2.28 0.216-1.824 0-3.24-0.744-1.392-0.744-2.184-2.208-0.768-1.488-0.768-3.624 0-2.112 0.696-3.624 0.72-1.512 1.992-2.328 1.296-0.816 3-0.816zm-0.024 1.728q-1.512 0-2.4 0.984-0.864 0.96-1.032 2.688h6.552q-0.024-1.632-0.768-2.64-0.744-1.032-2.352-1.032z"/>
   <path d="m490.32 150.21q0-0.912 0.432-1.272t1.032-0.36q0.624 0 1.056 0.36 0.456 0.36 0.456 1.272 0 0.864-0.456 1.248-0.432 0.384-1.056 0.384-0.6 0-1.032-0.384t-0.432-1.248zm0 10.272q0-0.888 0.432-1.248t1.032-0.36q0.624 0 1.056 0.36 0.456 0.36 0.456 1.248 0 0.864-0.456 1.248-0.432 0.384-1.056 0.384-0.6 0-1.032-0.384t-0.432-1.248z"/>
   <path d="m508.41 161.78h-6.192v-1.248l2.016-0.456v-13.704l-2.016-0.48v-1.248h6.192v1.248l-2.016 0.48v13.704l2.016 0.456z"/>
   <path d="m525.45 153.04q0 4.344-2.376 6.552-2.352 2.184-6.576 2.184h-4.776v-17.136h5.28q2.592 0 4.488 0.96t2.928 2.832q1.032 1.848 1.032 4.608zm-2.28 0.072q0-3.432-1.704-5.016-1.68-1.608-4.776-1.608h-2.808v13.44h2.328q6.96 0 6.96-6.816z"/>
   <path d="m538.82 161.78h-9.576v-17.136h9.576v1.896h-7.416v5.352h6.984v1.872h-6.984v6.12h7.416z"/>
   <path d="m160.13 174.31q0.48 0 0.84 0.336 0.384 0.312 0.384 1.008 0 0.672-0.384 1.008-0.36 0.336-0.84 0.336-0.528 0-0.888-0.336t-0.36-1.008q0-0.696 0.36-1.008 0.36-0.336 0.888-0.336zm1.032 4.824v12.864h-2.112v-12.864z"/>
   <path d="m173.61 188.45q0 1.872-1.392 2.832t-3.744 0.96q-1.344 0-2.328-0.216-0.96-0.216-1.704-0.6v-1.92q0.768 0.384 1.848 0.72 1.104 0.312 2.232 0.312 1.608 0 2.328-0.504 0.72-0.528 0.72-1.392 0-0.48-0.264-0.864t-0.96-0.768q-0.672-0.384-1.944-0.864-1.248-0.48-2.136-0.96t-1.368-1.152-0.48-1.728q0-1.632 1.32-2.52 1.344-0.888 3.504-0.888 1.176 0 2.184 0.24 1.032 0.216 1.92 0.624l-0.72 1.68q-0.816-0.336-1.704-0.576t-1.824-0.24q-1.296 0-1.992 0.432-0.672 0.408-0.672 1.128 0 0.528 0.312 0.912 0.312 0.36 1.032 0.72 0.744 0.336 1.968 0.816 1.224 0.456 2.088 0.936t1.32 1.176q0.456 0.672 0.456 1.704z"/>
   <path d="m187.85 178.92q2.352 0 3.48 1.032t1.128 3.288v8.76h-1.536l-0.408-1.824h-0.096q-0.84 1.056-1.776 1.56-0.912 0.504-2.544 0.504-1.752 0-2.904-0.912-1.152-0.936-1.152-2.904 0-1.92 1.512-2.952 1.512-1.056 4.656-1.152l2.184-0.072v-0.768q0-1.608-0.696-2.232t-1.968-0.624q-1.008 0-1.92 0.312-0.912 0.288-1.704 0.672l-0.648-1.584q0.84-0.456 1.992-0.768 1.152-0.336 2.4-0.336zm0.624 6.864q-2.4 0.096-3.336 0.768-0.912 0.672-0.912 1.896 0 1.08 0.648 1.584 0.672 0.504 1.704 0.504 1.632 0 2.712-0.888 1.08-0.912 1.08-2.784v-1.152z"/>
   <path d="m199.27 192-4.872-12.864h2.256l2.736 7.584q0.192 0.528 0.408 1.176t0.384 1.248q0.168 0.576 0.24 0.984h0.096q0.096-0.408 0.264-1.008 0.192-0.6 0.408-1.248 0.24-0.648 0.408-1.152l2.736-7.584h2.256l-4.896 12.864z"/>
   <path d="m213.5 178.92q2.352 0 3.48 1.032t1.128 3.288v8.76h-1.536l-0.408-1.824h-0.096q-0.84 1.056-1.776 1.56-0.912 0.504-2.544 0.504-1.752 0-2.904-0.912-1.152-0.936-1.152-2.904 0-1.92 1.512-2.952 1.512-1.056 4.656-1.152l2.184-0.072v-0.768q0-1.608-0.696-2.232t-1.968-0.624q-1.008 0-1.92 0.312-0.912 0.288-1.704 0.672l-0.648-1.584q0.84-0.456 1.992-0.768 1.152-0.336 2.4-0.336zm0.624 6.864q-2.4 0.096-3.336 0.768-0.912 0.672-0.912 1.896 0 1.08 0.648 1.584 0.672 0.504 1.704 0.504 1.632 0 2.712-0.888 1.08-0.912 1.08-2.784v-1.152z"/>
   <path d="m223.17 174.31q0.48 0 0.84 0.336 0.384 0.312 0.384 1.008 0 0.672-0.384 1.008-0.36 0.336-0.84 0.336-0.528 0-0.888-0.336t-0.36-1.008q0-0.696 0.36-1.008 0.36-0.336 0.888-0.336zm1.032 4.824v12.864h-2.112v-12.864z"/>
   <path d="m230.4 192h-2.112v-18.24h2.112z"/>
   <path d="m239.35 178.92q2.352 0 3.48 1.032t1.128 3.288v8.76h-1.536l-0.408-1.824h-0.096q-0.84 1.056-1.776 1.56-0.912 0.504-2.544 0.504-1.752 0-2.904-0.912-1.152-0.936-1.152-2.904 0-1.92 1.512-2.952 1.512-1.056 4.656-1.152l2.184-0.072v-0.768q0-1.608-0.696-2.232t-1.968-0.624q-1.008 0-1.92 0.312-0.912 0.288-1.704 0.672l-0.648-1.584q0.84-0.456 1.992-0.768 1.152-0.336 2.4-0.336zm0.624 6.864q-2.4 0.096-3.336 0.768-0.912 0.672-0.912 1.896 0 1.08 0.648 1.584 0.672 0.504 1.704 0.504 1.632 0 2.712-0.888 1.08-0.912 1.08-2.784v-1.152z"/>
   <path d="m250.05 178.2q0 0.816-0.048 1.536-0.024 0.696-0.072 1.104h0.12q0.552-0.816 1.512-1.368t2.472-0.552q2.4 0 3.84 1.68 1.464 1.656 1.464 4.968t-1.464 4.992-3.84 1.68q-1.512 0-2.472-0.552t-1.512-1.32h-0.168l-0.432 1.632h-1.512v-18.24h2.112zm3.624 2.472q-2.04 0-2.832 1.176t-0.792 3.648v0.096q0 2.376 0.768 3.648 0.792 1.248 2.904 1.248 1.728 0 2.568-1.272 0.864-1.272 0.864-3.672 0-4.872-3.48-4.872z"/>
   <path d="m264.81 192h-2.112v-18.24h2.112z"/>
   <path d="m273.86 178.89q1.656 0 2.832 0.72 1.2 0.72 1.824 2.04 0.648 1.296 0.648 3.048v1.272h-8.808q0.048 2.184 1.104 3.336 1.08 1.128 3 1.128 1.224 0 2.16-0.216 0.96-0.24 1.968-0.672v1.848q-0.984 0.432-1.944 0.624-0.96 0.216-2.28 0.216-1.824 0-3.24-0.744-1.392-0.744-2.184-2.208-0.768-1.488-0.768-3.624 0-2.112 0.696-3.624 0.72-1.512 1.992-2.328 1.296-0.816 3-0.816zm-0.024 1.728q-1.512 0-2.4 0.984-0.864 0.96-1.032 2.688h6.552q-0.024-1.632-0.768-2.64-0.744-1.032-2.352-1.032z"/>
   <path d="m290.78 178.2q0 0.816-0.048 1.536-0.024 0.696-0.072 1.104h0.12q0.552-0.816 1.512-1.368t2.472-0.552q2.4 0 3.84 1.68 1.464 1.656 1.464 4.968t-1.464 4.992-3.84 1.68q-1.512 0-2.472-0.552t-1.512-1.32h-0.168l-0.432 1.632h-1.512v-18.24h2.112zm3.624 2.472q-2.04 0-2.832 1.176t-0.792 3.648v0.096q0 2.376 0.768 3.648 0.792 1.248 2.904 1.248 1.728 0 2.568-1.272 0.864-1.272 0.864-3.672 0-4.872-3.48-4.872z"/>
   <path d="m314.18 179.13v12.864h-1.728l-0.312-1.704h-0.096q-0.624 1.008-1.728 1.488-1.104 0.456-2.352 0.456-2.328 0-3.504-1.104-1.176-1.128-1.176-3.576v-8.424h2.136v8.28q0 3.072 2.856 3.072 2.136 0 2.952-1.2 0.84-1.2 0.84-3.456v-6.696z"/>
   <path d="m322.56 190.51q0.48 0 0.984-0.072 0.504-0.096 0.816-0.192v1.608q-0.336 0.168-0.96 0.264-0.624 0.12-1.2 0.12-1.008 0-1.872-0.336-0.84-0.36-1.368-1.224t-0.528-2.424v-7.488h-1.824v-1.008l1.848-0.84 0.84-2.736h1.248v2.952h3.72v1.632h-3.72v7.44q0 1.176 0.552 1.752 0.576 0.552 1.464 0.552z"/>
   <path d="m334.25 174.31q0.48 0 0.84 0.336 0.384 0.312 0.384 1.008 0 0.672-0.384 1.008-0.36 0.336-0.84 0.336-0.528 0-0.888-0.336t-0.36-1.008q0-0.696 0.36-1.008 0.36-0.336 0.888-0.336zm1.032 4.824v12.864h-2.112v-12.864z"/>
   <path d="m343.65 190.51q0.48 0 0.984-0.072 0.504-0.096 0.816-0.192v1.608q-0.336 0.168-0.96 0.264-0.624 0.12-1.2 0.12-1.008 0-1.872-0.336-0.84-0.36-1.368-1.224t-0.528-2.424v-7.488h-1.824v-1.008l1.848-0.84 0.84-2.736h1.248v2.952h3.72v1.632h-3.72v7.44q0 1.176 0.552 1.752 0.576 0.552 1.464 0.552z"/>
   <path d="m355.34 174.31q0.48 0 0.84 0.336 0.384 0.312 0.384 1.008 0 0.672-0.384 1.008-0.36 0.336-0.84 0.336-0.528 0-0.888-0.336t-0.36-1.008q0-0.696 0.36-1.008 0.36-0.336 0.888-0.336zm1.032 4.824v12.864h-2.112v-12.864z"/>
   <path d="m368.83 188.45q0 1.872-1.392 2.832t-3.744 0.96q-1.344 0-2.328-0.216-0.96-0.216-1.704-0.6v-1.92q0.768 0.384 1.848 0.72 1.104 0.312 2.232 0.312 1.608 0 2.328-0.504 0.72-0.528 0.72-1.392 0-0.48-0.264-0.864t-0.96-0.768q-0.672-0.384-1.944-0.864-1.248-0.48-2.136-0.96t-1.368-1.152-0.48-1.728q0-1.632 1.32-2.52 1.344-0.888 3.504-0.888 1.176 0 2.184 0.24 1.032 0.216 1.92 0.624l-0.72 1.68q-0.816-0.336-1.704-0.576t-1.824-0.24q-1.296 0-1.992 0.432-0.672 0.408-0.672 1.128 0 0.528 0.312 0.912 0.312 0.36 1.032 0.72 0.744 0.336 1.968 0.816 1.224 0.456 2.088 0.936t1.32 1.176q0.456 0.672 0.456 1.704z"/>
   <path d="m384.38 178.89q2.304 0 3.48 1.128 1.176 1.104 1.176 3.6v8.376h-2.088v-8.232q0-3.096-2.88-3.096-2.136 0-2.952 1.2t-0.816 3.456v6.672h-2.112v-12.864h1.704l0.312 1.752h0.12q0.624-1.008 1.728-1.488 1.104-0.504 2.328-0.504z"/>
   <path d="m404.21 185.54q0 3.192-1.632 4.944-1.608 1.752-4.368 1.752-1.704 0-3.048-0.768-1.32-0.792-2.088-2.28-0.768-1.512-0.768-3.648 0-3.192 1.608-4.92t4.368-1.728q1.752 0 3.072 0.792 1.344 0.768 2.088 2.256 0.768 1.464 0.768 3.6zm-9.72 0q0 2.28 0.888 3.624 0.912 1.32 2.88 1.32 1.944 0 2.856-1.32 0.912-1.344 0.912-3.624t-0.912-3.576-2.88-1.296-2.856 1.296-0.888 3.576z"/>
   <path d="m411.84 190.51q0.48 0 0.984-0.072 0.504-0.096 0.816-0.192v1.608q-0.336 0.168-0.96 0.264-0.624 0.12-1.2 0.12-1.008 0-1.872-0.336-0.84-0.36-1.368-1.224t-0.528-2.424v-7.488h-1.824v-1.008l1.848-0.84 0.84-2.736h1.248v2.952h3.72v1.632h-3.72v7.44q0 1.176 0.552 1.752 0.576 0.552 1.464 0.552z"/>
   <path d="m423.53 174.31q0.48 0 0.84 0.336 0.384 0.312 0.384 1.008 0 0.672-0.384 1.008-0.36 0.336-0.84 0.336-0.528 0-0.888-0.336t-0.36-1.008q0-0.696 0.36-1.008 0.36-0.336 0.888-0.336zm1.032 4.824v12.864h-2.112v-12.864z"/>
   <path d="m434.83 178.89q2.304 0 3.48 1.128 1.176 1.104 1.176 3.6v8.376h-2.088v-8.232q0-3.096-2.88-3.096-2.136 0-2.952 1.2t-0.816 3.456v6.672h-2.112v-12.864h1.704l0.312 1.752h0.12q0.624-1.008 1.728-1.488 1.104-0.504 2.328-0.504z"/>
   <path d="m451.85 188.45q0 1.872-1.392 2.832t-3.744 0.96q-1.344 0-2.328-0.216-0.96-0.216-1.704-0.6v-1.92q0.768 0.384 1.848 0.72 1.104 0.312 2.232 0.312 1.608 0 2.328-0.504 0.72-0.528 0.72-1.392 0-0.48-0.264-0.864t-0.96-0.768q-0.672-0.384-1.944-0.864-1.248-0.48-2.136-0.96t-1.368-1.152-0.48-1.728q0-1.632 1.32-2.52 1.344-0.888 3.504-0.888 1.176 0 2.184 0.24 1.032 0.216 1.92 0.624l-0.72 1.68q-0.816-0.336-1.704-0.576t-1.824-0.24q-1.296 0-1.992 0.432-0.672 0.408-0.672 1.128 0 0.528 0.312 0.912 0.312 0.36 1.032 0.72 0.744 0.336 1.968 0.816 1.224 0.456 2.088 0.936t1.32 1.176q0.456 0.672 0.456 1.704z"/>
   <path d="m459.26 190.51q0.48 0 0.984-0.072 0.504-0.096 0.816-0.192v1.608q-0.336 0.168-0.96 0.264-0.624 0.12-1.2 0.12-1.008 0-1.872-0.336-0.84-0.36-1.368-1.224t-0.528-2.424v-7.488h-1.824v-1.008l1.848-0.84 0.84-2.736h1.248v2.952h3.72v1.632h-3.72v7.44q0 1.176 0.552 1.752 0.576 0.552 1.464 0.552z"/>
   <path d="m468.5 178.92q2.352 0 3.48 1.032t1.128 3.288v8.76h-1.536l-0.408-1.824h-0.096q-0.84 1.056-1.776 1.56-0.912 0.504-2.544 0.504-1.752 0-2.904-0.912-1.152-0.936-1.152-2.904 0-1.92 1.512-2.952 1.512-1.056 4.656-1.152l2.184-0.072v-0.768q0-1.608-0.696-2.232t-1.968-0.624q-1.008 0-1.92 0.312-0.912 0.288-1.704 0.672l-0.648-1.584q0.84-0.456 1.992-0.768 1.152-0.336 2.4-0.336zm0.624 6.864q-2.4 0.096-3.336 0.768-0.912 0.672-0.912 1.896 0 1.08 0.648 1.584 0.672 0.504 1.704 0.504 1.632 0 2.712-0.888 1.08-0.912 1.08-2.784v-1.152z"/>
   <path d="m479.21 192h-2.112v-18.24h2.112z"/>
   <path d="m485.4 192h-2.112v-18.24h2.112z"/>
   <path d="m494.45 178.89q1.656 0 2.832 0.72 1.2 0.72 1.824 2.04 0.648 1.296 0.648 3.048v1.272h-8.808q0.048 2.184 1.104 3.336 1.08 1.128 3 1.128 1.224 0 2.16-0.216 0.96-0.24 1.968-0.672v1.848q-0.984 0.432-1.944 0.624-0.96 0.216-2.28 0.216-1.824 0-3.24-0.744-1.392-0.744-2.184-2.208-0.768-1.488-0.768-3.624 0-2.112 0.696-3.624 0.72-1.512 1.992-2.328 1.296-0.816 3-0.816zm-0.024 1.728q-1.512 0-2.4 0.984-0.864 0.96-1.032 2.688h6.552q-0.024-1.632-0.768-2.64-0.744-1.032-2.352-1.032z"/>
   <path d="m507.57 192.24q-2.4 0-3.84-1.656-1.44-1.68-1.44-4.992t1.44-4.992q1.464-1.704 3.864-1.704 1.488 0 2.424 0.552 0.96 0.552 1.56 1.344h0.144q-0.024-0.312-0.096-0.912-0.048-0.624-0.048-0.984v-5.136h2.112v18.24h-1.704l-0.312-1.728h-0.096q-0.576 0.816-1.536 1.392t-2.472 0.576zm0.336-1.752q2.04 0 2.856-1.104 0.84-1.128 0.84-3.384v-0.384q0-2.4-0.792-3.672-0.792-1.296-2.928-1.296-1.704 0-2.568 1.368-0.84 1.344-0.84 3.624 0 2.304 0.84 3.576 0.864 1.272 2.592 1.272z"/>
   <path d="m517.46 190.7q0-0.888 0.432-1.248t1.032-0.36q0.624 0 1.056 0.36 0.456 0.36 0.456 1.248 0 0.864-0.456 1.248-0.432 0.384-1.056 0.384-0.6 0-1.032-0.384t-0.432-1.248z"/>
   <path d="m164.16 252.44h-6.192v-1.248l2.016-0.456v-13.704l-2.016-0.48v-1.248h6.192v1.248l-2.016 0.48v13.704l2.016 0.456z"/>
   <path d="m173.37 239.33q2.304 0 3.48 1.128 1.176 1.104 1.176 3.6v8.376h-2.088v-8.232q0-3.096-2.88-3.096-2.136 0-2.952 1.2t-0.816 3.456v6.672h-2.112v-12.864h1.704l0.312 1.752h0.12q0.624-1.008 1.728-1.488 1.104-0.504 2.328-0.504z"/>
   <path d="m190.39 248.88q0 1.872-1.392 2.832t-3.744 0.96q-1.344 0-2.328-0.216-0.96-0.216-1.704-0.6v-1.92q0.768 0.384 1.848 0.72 1.104 0.312 2.232 0.312 1.608 0 2.328-0.504 0.72-0.528 0.72-1.392 0-0.48-0.264-0.864t-0.96-0.768q-0.672-0.384-1.944-0.864-1.248-0.48-2.136-0.96t-1.368-1.152-0.48-1.728q0-1.632 1.32-2.52 1.344-0.888 3.504-0.888 1.176 0 2.184 0.24 1.032 0.216 1.92 0.624l-0.72 1.68q-0.816-0.336-1.704-0.576t-1.824-0.24q-1.296 0-1.992 0.432-0.672 0.408-0.672 1.128 0 0.528 0.312 0.912 0.312 0.36 1.032 0.72 0.744 0.336 1.968 0.816 1.224 0.456 2.088 0.936t1.32 1.176q0.456 0.672 0.456 1.704z"/>
   <path d="m197.81 250.95q0.48 0 0.984-0.072 0.504-0.096 0.816-0.192v1.608q-0.336 0.168-0.96 0.264-0.624 0.12-1.2 0.12-1.008 0-1.872-0.336-0.84-0.36-1.368-1.224t-0.528-2.424v-7.488h-1.824v-1.008l1.848-0.84 0.84-2.736h1.248v2.952h3.72v1.632h-3.72v7.44q0 1.176 0.552 1.752 0.576 0.552 1.464 0.552z"/>
   <path d="m207.05 239.36q2.352 0 3.48 1.032t1.128 3.288v8.76h-1.536l-0.408-1.824h-0.096q-0.84 1.056-1.776 1.56-0.912 0.504-2.544 0.504-1.752 0-2.904-0.912-1.152-0.936-1.152-2.904 0-1.92 1.512-2.952 1.512-1.056 4.656-1.152l2.184-0.072v-0.768q0-1.608-0.696-2.232t-1.968-0.624q-1.008 0-1.92 0.312-0.912 0.288-1.704 0.672l-0.648-1.584q0.84-0.456 1.992-0.768 1.152-0.336 2.4-0.336zm0.624 6.864q-2.4 0.096-3.336 0.768-0.912 0.672-0.912 1.896 0 1.08 0.648 1.584 0.672 0.504 1.704 0.504 1.632 0 2.712-0.888 1.08-0.912 1.08-2.784v-1.152z"/>
   <path d="m217.75 252.44h-2.112v-18.24h2.112z"/>
   <path d="m223.94 252.44h-2.112v-18.24h2.112z"/>
   <path d="m239.13 239.36q2.352 0 3.48 1.032t1.128 3.288v8.76h-1.536l-0.408-1.824h-0.096q-0.84 1.056-1.776 1.56-0.912 0.504-2.544 0.504-1.752 0-2.904-0.912-1.152-0.936-1.152-2.904 0-1.92 1.512-2.952 1.512-1.056 4.656-1.152l2.184-0.072v-0.768q0-1.608-0.696-2.232t-1.968-0.624q-1.008 0-1.92 0.312-0.912 0.288-1.704 0.672l-0.648-1.584q0.84-0.456 1.992-0.768 1.152-0.336 2.4-0.336zm0.624 6.864q-2.4 0.096-3.336 0.768-0.912 0.672-0.912 1.896 0 1.08 0.648 1.584 0.672 0.504 1.704 0.504 1.632 0 2.712-0.888 1.08-0.912 1.08-2.784v-1.152z"/>
   <path d="m253.92 239.33q2.304 0 3.48 1.128 1.176 1.104 1.176 3.6v8.376h-2.088v-8.232q0-3.096-2.88-3.096-2.136 0-2.952 1.2t-0.816 3.456v6.672h-2.112v-12.864h1.704l0.312 1.752h0.12q0.624-1.008 1.728-1.488 1.104-0.504 2.328-0.504z"/>
   <path d="m267.12 252.68q-2.4 0-3.84-1.656-1.44-1.68-1.44-4.992t1.44-4.992q1.464-1.704 3.864-1.704 1.488 0 2.424 0.552 0.96 0.552 1.56 1.344h0.144q-0.024-0.312-0.096-0.912-0.048-0.624-0.048-0.984v-5.136h2.112v18.24h-1.704l-0.312-1.728h-0.096q-0.576 0.816-1.536 1.392t-2.472 0.576zm0.336-1.752q2.04 0 2.856-1.104 0.84-1.128 0.84-3.384v-0.384q0-2.4-0.792-3.672-0.792-1.296-2.928-1.296-1.704 0-2.568 1.368-0.84 1.344-0.84 3.624 0 2.304 0.84 3.576 0.864 1.272 2.592 1.272z"/>
   <path d="m291.93 248.88q0 1.872-1.392 2.832t-3.744 0.96q-1.344 0-2.328-0.216-0.96-0.216-1.704-0.6v-1.92q0.768 0.384 1.848 0.72 1.104 0.312 2.232 0.312 1.608 0 2.328-0.504 0.72-0.528 0.72-1.392 0-0.48-0.264-0.864t-0.96-0.768q-0.672-0.384-1.944-0.864-1.248-0.48-2.136-0.96t-1.368-1.152-0.48-1.728q0-1.632 1.32-2.52 1.344-0.888 3.504-0.888 1.176 0 2.184 0.24 1.032 0.216 1.92 0.624l-0.72 1.68q-0.816-0.336-1.704-0.576t-1.824-0.24q-1.296 0-1.992 0.432-0.672 0.408-0.672 1.128 0 0.528 0.312 0.912 0.312 0.36 1.032 0.72 0.744 0.336 1.968 0.816 1.224 0.456 2.088 0.936t1.32 1.176q0.456 0.672 0.456 1.704z"/>
   <path d="m299.35 250.95q0.48 0 0.984-0.072 0.504-0.096 0.816-0.192v1.608q-0.336 0.168-0.96 0.264-0.624 0.12-1.2 0.12-1.008 0-1.872-0.336-0.84-0.36-1.368-1.224t-0.528-2.424v-7.488h-1.824v-1.008l1.848-0.84 0.84-2.736h1.248v2.952h3.72v1.632h-3.72v7.44q0 1.176 0.552 1.752 0.576 0.552 1.464 0.552z"/>
   <path d="m308.59 239.36q2.352 0 3.48 1.032t1.128 3.288v8.76h-1.536l-0.408-1.824h-0.096q-0.84 1.056-1.776 1.56-0.912 0.504-2.544 0.504-1.752 0-2.904-0.912-1.152-0.936-1.152-2.904 0-1.92 1.512-2.952 1.512-1.056 4.656-1.152l2.184-0.072v-0.768q0-1.608-0.696-2.232t-1.968-0.624q-1.008 0-1.92 0.312-0.912 0.288-1.704 0.672l-0.648-1.584q0.84-0.456 1.992-0.768 1.152-0.336 2.4-0.336zm0.624 6.864q-2.4 0.096-3.336 0.768-0.912 0.672-0.912 1.896 0 1.08 0.648 1.584 0.672 0.504 1.704 0.504 1.632 0 2.712-0.888 1.08-0.912 1.08-2.784v-1.152z"/>
   <path d="m323.18 239.33q0.36 0 0.768 0.048 0.432 0.024 0.744 0.096l-0.264 1.944q-0.312-0.072-0.696-0.12-0.36-0.048-0.696-0.048-0.984 0-1.848 0.552-0.864 0.528-1.392 1.512-0.504 0.96-0.504 2.256v6.864h-2.112v-12.864h1.728l0.24 2.352h0.096q0.624-1.056 1.608-1.824t2.328-0.768z"/>
   <path d="m331.39 250.95q0.48 0 0.984-0.072 0.504-0.096 0.816-0.192v1.608q-0.336 0.168-0.96 0.264-0.624 0.12-1.2 0.12-1.008 0-1.872-0.336-0.84-0.36-1.368-1.224t-0.528-2.424v-7.488h-1.824v-1.008l1.848-0.84 0.84-2.736h1.248v2.952h3.72v1.632h-3.72v7.44q0 1.176 0.552 1.752 0.576 0.552 1.464 0.552z"/>
   <path d="m348.19 239.33q2.304 0 3.48 1.128 1.176 1.104 1.176 3.6v8.376h-2.088v-8.232q0-3.096-2.88-3.096-2.136 0-2.952 1.2t-0.816 3.456v6.672h-2.112v-12.864h1.704l0.312 1.752h0.12q0.624-1.008 1.728-1.488 1.104-0.504 2.328-0.504z"/>
   <path d="m368.01 245.98q0 3.192-1.632 4.944-1.608 1.752-4.368 1.752-1.704 0-3.048-0.768-1.32-0.792-2.088-2.28-0.768-1.512-0.768-3.648 0-3.192 1.608-4.92t4.368-1.728q1.752 0 3.072 0.792 1.344 0.768 2.088 2.256 0.768 1.464 0.768 3.6zm-9.72 0q0 2.28 0.888 3.624 0.912 1.32 2.88 1.32 1.944 0 2.856-1.32 0.912-1.344 0.912-3.624t-0.912-3.576-2.88-1.296-2.856 1.296-0.888 3.576z"/>
   <path d="m379.17 245.16q-0.312-0.984-0.552-1.92-0.216-0.96-0.336-1.488h-0.096q-0.096 0.528-0.312 1.488-0.216 0.936-0.552 1.944l-2.304 7.224h-2.4l-3.528-12.864h2.184l1.776 6.864q0.264 1.032 0.504 2.088t0.336 1.752h0.096q0.096-0.408 0.216-1.008 0.144-0.6 0.312-1.248 0.168-0.672 0.336-1.2l2.28-7.248h2.304l2.208 7.248q0.264 0.816 0.504 1.776 0.264 0.96 0.36 1.656h0.096q0.072-0.6 0.312-1.656 0.264-1.056 0.552-2.16l1.8-6.864h2.16l-3.576 12.864h-2.472z"/>
   <path d="m391.53 246.96q0-0.912 0.168-1.56 0.192-0.672 0.624-1.272 0.456-0.6 1.224-1.248 0.936-0.792 1.44-1.32 0.528-0.528 0.744-1.032t0.216-1.224q0-1.152-0.744-1.776t-2.16-0.624q-1.176 0-2.088 0.312-0.912 0.288-1.752 0.696l-0.744-1.68q0.96-0.504 2.112-0.84 1.176-0.336 2.616-0.336 2.28 0 3.528 1.128t1.248 3.072q0 1.08-0.36 1.848-0.336 0.744-0.984 1.392-0.624 0.624-1.488 1.344-0.792 0.672-1.224 1.176-0.408 0.504-0.552 1.008-0.144 0.48-0.144 1.176v0.408h-1.68zm-0.552 4.176q0-0.888 0.408-1.248 0.432-0.36 1.08-0.36 0.6 0 1.032 0.36t0.432 1.248q0 0.864-0.432 1.248t-1.032 0.384q-0.648 0-1.08-0.384-0.408-0.384-0.408-1.248z"/>
  </g>
  <path d="m74.582 55.745h476.69c4.4334 0 8.636 3.0395 8.636 7.2255v32.386l-492.46 0.071837v-32.174c0-4.3402 2.9808-7.509 7.1257-7.509z" fill="url(#linearGradient34609)" stroke-width=".79757"/>
  <path class="ColorScheme-Text" d="m127.55 64.508-8.1582 8.1582-2.378-2.378-1.1224 1.1224 4.1964 4.1948-5.7818 5.7802 1.1224 1.1224 5.7802-5.7818 4.1948 4.1964 1.1224-1.1224-2.378-2.378 8.1582-8.1582z" color="#eff0f1" fill="#eff0f1" stroke-width="1.5853"/>
  <g transform="matrix(.23624 0 0 .23429 73.347 59.354)">
   <path d="m62.862 1.0068c-4.7115 0.076185-9.4239 0.69936-13.978 1.8339-10.164 2.5039-19.622 7.5549-27.35 14.616-4.2704 3.9021-8.0953 8.4883-11.149 13.462-5.1964 8.369-8.3681 18.088-9.1835 27.949-0.30066 3.8529-0.27435 7.8614 0.14154 11.732 0.9892 9.3688 4.1149 18.527 9.0889 26.565 6.0582 9.7866 14.901 17.926 25.25 23.108 11.851 5.9871 25.684 8.1 38.828 5.8393 9.8888-1.6742 19.553-5.8082 27.557-11.921 12.164-9.1886 20.737-22.843 23.693-37.792 1.4803-7.3952 1.6218-15.071 0.42871-22.474-1.3272-8.3095-4.4041-16.479-8.9202-23.561-7.2296-11.466-18.2-20.476-30.894-25.268-4.9461-1.8852-10.126-3.1353-15.329-3.7029-2.7324-0.30417-5.4254-0.42571-8.1846-0.38743zm-3.4395 11.129c1.2016 0.01155 1.6092 1.3003 2.0109 2.2054 2.0098 4.2678 4.0017 8.5447 6.0047 12.816 1.7183 0.16081 3.4247 0.44154 5.1035 0.8418 3.6853-3.8221 7.3278-7.6934 11.057-11.469 0.99567-0.70786 2.0804 0.14457 2.9395 0.65234 2.7872 1.6495 5.6473 3.1951 8.3754 4.9281 0.89416 0.88119 0.20376 2.1346-0.0507 3.1349-1.3062 4.4679-2.6123 8.9358-3.9185 13.404 1.1869 1.2554 2.2852 2.5944 3.2793 4.0078 5.2824-0.43017 10.567-0.92552 15.85-1.2949 1.1225 0.08648 1.4915 1.277 1.7243 2.1912 1.0112 3.0951 2.1261 6.1581 3.0511 9.2775 0.12654 1.1578-1.1027 1.8389-2.1136 1.8656-6.8703 1.4545-13.741 2.9075-20.611 4.3629-1.2038-6.6014-4.7165-12.781-9.93-17.033-5.7861-4.7899-13.494-7.1914-20.945-6.4-2.3725 0.22265-4.6969 0.79983-6.9554 1.5465-2.2809-7.0557-4.6188-14.094-6.8437-21.164-0.16711-1.1332 1.0096-1.9094 2.0277-1.9124 3.314-0.65364 6.6214-1.3796 9.945-1.9606zm-29.459 13.158c1.2384 0.19626 1.7594 1.5002 2.6174 2.2567 4.3653 4.8604 8.7349 9.717 13.111 14.568-3.808 3.2391-6.7821 7.4515-8.4902 12.154-1.9026 5.2371-2.2252 11.235-0.82812 16.709 1.4029 5.5985 4.9833 11.111 9.3274 14.906 0 0-0.46664 0.40342-1.1399 1.1472-3.5051 4.0014-7.1256 7.9234-10.675 11.892-1.1108 1.1647-2.1124 2.4545-3.2894 3.5435-0.9984 0.58998-2.1156-0.20088-2.6439-1.055-2.1752-2.4866-4.4039-4.9339-6.53-7.4587-0.62494-1.0499 0.31655-2.0624 0.89453-2.875l8.082-11.609c-0.72102-1.5718-1.3248-3.1958-1.8223-4.8516-5.1511-1.2765-10.324-2.4886-15.455-3.8281-1.1037-0.50516-0.91702-1.8641-0.90625-2.8574 0.01647-3.2263-0.04348-6.4602 0.03906-9.6816 0.23824-1.1812 1.5855-1.3396 2.5559-1.5518 4.5875-1.1287 9.1792-2.2416 13.768-3.3642 0.49948-1.6553 1.1098-3.2766 1.832-4.8477-3.0128-4.3608-6.0861-8.6871-9.043-13.082-0.49318-1.1061 0.52421-2.0196 1.2067-2.7431 2.1214-2.3713 4.167-4.822 6.3656-7.1163 0.30061-0.19423 0.66701-0.29176 1.0234-0.25391zm62.6 43.764c7.1269 1.5462 14.277 2.9975 21.393 4.5879 0.48892 0.10441 0.4802 0.86038 1.0449 0.71919 0.31255 0.24039-0.29753 1.0843-0.34879 1.563-1.1274 3.3287-2.2046 6.6811-3.3953 9.9834-0.59691 1.0333-1.9139 0.77019-2.8931 0.65733-4.7155-0.39302-9.4306-0.8014-14.146-1.2003-0.99563 1.413-2.0908 2.7561-3.2852 4.0059 1.4668 5.1066 3.0285 10.193 4.4141 15.318 0.0856 1.2438-1.2355 1.7413-2.1191 2.252-2.805 1.5783-5.5575 3.2771-8.4071 4.7586-1.2091 0.33972-1.9563-0.89378-2.6923-1.612-3.224-3.3633-6.4481-6.7267-9.6721-10.09-1.6807 0.40073-3.3892 0.68103-5.1094 0.8418-2.2644 4.785-4.4777 9.6007-6.7969 14.355-0.71471 0.9924-2.0289 0.56569-3.0098 0.34375-3.126-0.67606-6.3016-1.1874-9.3917-1.9871-1.0055-0.51139-0.94814-1.8637-0.48193-2.7304 2.1746-6.6749 4.3499-13.35 6.524-20.025 6.1161 2.2019 13.045 2.3145 19.139 0.13672 7.3864-2.5646 13.652-8.2512 16.743-15.454 0.92204-2.0884 1.5627-4.2922 2.0013-6.5302 0.16341 0.03516 0.32682 0.07031 0.49024 0.10547z" fill="#0079c1" stroke="#80cfff"/>
   <g transform="translate(.5 -48.5)">
    <path d="m79.029 114.17c-7.2264 0.10305-14.464-0.18865-21.682 0.24219-2.7895 0.47765-4.6639 3.4116-4.4374 6.1457 0.05862 6.8694-0.0083 13.741 0.0069 20.611-8.72e-4 10.175-0.01971 20.356 0.20227 30.527 0.35907 2.8442 3.3192 4.6982 6.0402 4.6203 2.3583-0.18543 4.811 0.27579 7.0827-0.56353 2.05-0.64206 3.2763-2.7086 3.4829-4.7606 0.2407-1.9667-0.05737-3.9464 0.04423-5.9207 0.0071-3.2173 0.01478-6.4346 0.02149-9.652 2.1617 0.0293 4.6187-0.35165 6.4473 1.082 2.2244 2.6789 3.1569 6.1099 4.9114 9.0643 1.5981 3.1686 2.876 6.6208 5.368 9.2232 2.5348 1.821 5.8005 1.4626 8.7498 1.4679 2.819-0.0158 5.8886-0.20428 8.1104-2.1556 1.3159-1.2649 2.0638-3.0019 2.9697-4.5764 1.2125 2.2493 2.4232 4.8604 4.959 5.8574 3.408 1.1027 7.0308 0.37537 10.543 0.55037 2.2737-0.10879 4.5827-1.8924 4.6086-4.2959 0.17923-2.1175-1.1715-3.9078-2.3489-5.5216-2.5523-4.0095-5.1078-8.0171-7.6582-12.028 3.1721-5.2105 6.7476-10.194 9.4668-15.666 0.63266-3.0831-2.6027-6.1362-5.6742-5.4243-3.3893 0.0804-6.9899-0.55089-10.166 0.97115-1.7302 1.1027-2.6418 3.0215-3.5781 4.7695-1.3312-2.002-2.5259-4.4539-4.9453-5.3144-0.66231-0.49694-0.21564-1.4259-0.4789-2.1004-0.69401-5.7276-3.8308-11.36-8.9683-14.21-3.9182-2.3142-8.5815-3.0615-13.078-2.9434zm1.1816 16.244c2.1706-0.10035 4.0022 2.0432 3.7803 4.1602 0.23153 1.9714-1.0993 4.2705-3.227 4.3892-3.113 0.45621-6.2634-0.0118-9.3913 0.18011-0.48138-0.14489-1.5786 0.32736-1.582-0.29669v-8.4289c3.4733-1e-3 6.9466-3e-3 10.42-4e-3z" fill="#232629" style="font-variant-caps:normal;font-variant-east-asian:normal;font-variant-ligatures:normal;font-variant-numeric:normal"/>
    <path d="m59.195 117.77c-0.9738 0-1.6662 0.20479-2.0762 0.61719-0.41002 0.36085-0.61524 1.0323-0.61524 2.0117v49.643c0 0.97945 0.20521 1.6755 0.61524 2.0879 0.41002 0.36085 1.1024 0.54101 2.0762 0.54101h4.3809c0.9738 0 1.6412-0.18016 2-0.54101 0.41002-0.41241 0.61523-1.1084 0.61523-2.0879v-18.248h5.6875c2.6139 0 4.5356 0.36032 5.7656 1.082 1.2301 0.72171 2.3578 2.165 3.3828 4.3301l6.459 13.145c0.46127 0.97946 1.0251 1.6243 1.6914 1.9336 0.66628 0.25776 1.8438 0.38672 3.5352 0.38672h4.459c0.61793 0 1.0638-0.11038 1.3594-0.31836 1.8844-0.0802 2.3294-0.48529 3.1523-1.8516l4.6113-8.3242 4.709 8.3242c0.94189 1.7152 1.5374 1.8672 4.1152 1.8672h6.3457c1.5368 0 1.8342-1.0093 1.041-2.1191l-10.312-16.143 9.8164-15.537c0.69402-1.1098 0.39586-2.0176-0.99219-2.0176h-6.3457c-2.2308 0-2.8745 0.1009-3.8164 1.7656l-4.4121 7.8184-4.4609-7.8184c-0.94189-1.5638-1.587-1.7656-4.1152-1.7656h-0.22656c0.04195-0.57689 0.07031-1.1625 0.07031-1.7695 0-5.3097-1.5381-9.4612-4.6133-12.451-3.0752-3.0415-7.3021-4.5606-12.684-4.5606zm6.9961 9.0469h13.299c2.5626 0 4.561 0.66945 5.9961 2.0098 1.3838 1.3919 2.0762 3.3776 2.0762 5.9551s-0.69235 4.5347-2.0762 5.875c-1.4351 1.3919-3.4335 2.0879-5.9961 2.0879h-13.299zm28.736 18.068 5.7656 9.2207-5.7559 9.0996-4.9141-9.4805c-0.66628-1.3919-1.4871-2.4994-2.4609-3.3242 3.1751-1.0645 5.6273-2.9059 7.3652-5.5156z" fill="url(#linearGradient42076)" style="font-variant-caps:normal;font-variant-east-asian:normal;font-variant-ligatures:normal;font-variant-numeric:normal"/>
   </g>
  </g>
  <g fill="#eff0f1">
   <text x="241.71455" y="81.32019" xml:space="preserve"><tspan x="241.71455" y="81.32019" fill="#eff0f1" font-family="'Noto Sans'" font-size="21.333px" style="font-variant-caps:normal;font-variant-east-asian:normal;font-variant-ligatures:normal;font-variant-numeric:normal">Install Package</tspan></text>
   <path class="ColorScheme-Text" d="m505.5 79.884-9-9 1.0605-1.0605 7.9395 7.9395 7.9395-7.9395 1.0605 1.0605z" color="#eff0f1" stroke-width="1.5"/>
   <path class="ColorScheme-NegativeText" d="m532.65 68.32 5.7324 5.7324-5.7285 5.7285 1.3066 1.1035 5.627-5.627 5.7285 5.7285 1.1035-1.3066-5.627-5.627 5.7285-5.7285-1.3066-1.1035-5.627 5.627-5.7324-5.7324z" color="#da4453"/>
  </g>
  <path d="m67.362 95.342 492.57-2.34e-4v3.75l-492.57 2.34e-4z" fill="#525659" stroke-width="1.5456"/>
  <g transform="translate(-20.766 1.2337)">
   <rect x="393.66" y="266.46" width="81.152" height="44.756" ry="4.2572" fill="url(#linearGradient11473)" stroke="#5687a3" stroke-width="2.5"/>
   <text x="427.65329" y="296.58926" fill="#eff0f1" font-family="'Noto Sans'" font-size="21.333px" style="font-variant-caps:normal;font-variant-east-asian:normal;font-variant-ligatures:normal;font-variant-numeric:normal" xml:space="preserve"><tspan x="427.65329" y="296.58926">Yes</tspan></text>
   <path class="ColorScheme-Text" d="m418.97 283.58c-2.4902 2.4648-4.9805 4.9297-7.4707 7.3945-0.96798-0.95911-1.9369-1.9172-2.9043-2.877-0.23967 0.39535-1.1598 0.69471-0.76172 1.2695 1.2348 1.1898 2.4511 2.3991 3.666 3.6094 2.8829-2.854 5.7659-5.708 8.6504-8.5605-0.41614-0.23626-0.61676-0.97945-1.1797-0.83594z" color="#eff0f1" fill="currentColor"/>
  </g>
  <g transform="translate(-16.766 1.2337)" stroke-width="2.5">
   <rect x="483.66" y="266.46" width="81.152" height="44.756" ry="4.2572" fill="url(#linearGradient14580)" stroke="#666a6d"/>
   <text x="519.65332" y="296.58926" fill="#eff0f1" font-family="'Noto Sans'" font-size="21.333px" style="font-variant-caps:normal;font-variant-east-asian:normal;font-variant-ligatures:normal;font-variant-numeric:normal" xml:space="preserve"><tspan x="519.65332" y="296.58926" stroke-width="2.5">No</tspan></text>
   <path class="ColorScheme-Text" d="m506.04 282.16c-3.0323 0.0891-5.6913 2.7494-5.7812 5.7812-0.21228 2.9872 2.0971 5.8782 5.0621 6.3204 2.9811 0.57894 6.1708-1.4444 6.9079-4.3948 0.88651-2.9426-0.87245-6.3599-3.789-7.3406-0.76239-0.29026-1.5858-0.40515-2.3997-0.36615zm0.30859 1.1914c2.6551-0.0643 5.0287 2.3498 4.8973 5.0061-0.0182 1.0404-0.41308 2.0596-1.0633 2.8669-2.2682-2.2682-4.5364-4.5365-6.8047-6.8047 0.83442-0.6738 1.8946-1.0684 2.9707-1.0684zm2.9746 8.7324c-1.9383 1.6562-5.1223 1.3075-6.7095-0.66799-1.4875-1.6826-1.5522-4.4161-0.0952-6.1367l6.8047 6.8047z" color="#eff0f1" fill="currentColor"/>
  </g>
  <g transform="translate(-660.89 -37.523)">
   <g fill-rule="evenodd">
    <path d="m794.86 163.93v37.946h-25.297l-14.054 14.054v-14.054h-12.649v-37.946z" fill="url(#linearGradient4416)"/>
    <path transform="translate(736.86 157.93)" d="m36 14.93-7 1.5352-5 3.5352 6 6-1 3 4 4-4 4 6.9453 6.9453h22.055v-7.0156z" fill="url(#linearGradient4191)" opacity=".2"/>
    <path transform="translate(736.86 157.93)" d="m6 42.945v1h12.648v-1zm26.703 0-14.055 14.055v1l14.055-14.055h25.297v-1z" fill="#713e88"/>
   </g>
   <path transform="translate(736.86 157.93)" d="m31 13c-1.9444 0-3.76 0.68188-5.0391 1.9609-1.2791 1.2791-1.9609 3.0946-1.9609 5.0391h4c0-1.0556 0.31813-1.74 0.78906-2.2109 0.47094-0.47094 1.1554-0.78906 2.2109-0.78906 1.0556 0 1.74 0.31812 2.2109 0.78906 0.47094 0.47094 0.78906 1.1554 0.78906 2.2109 0 0.91667-0.1807 1.3066-0.42188 1.6523-0.24118 0.34569-0.63627 0.67214-1.2246 1.084-0.58835 0.41184-1.3699 0.88628-2.0918 1.7285s-1.2617 2.1185-1.2617 3.5352v1h4v-1c0-0.58333 0.0832-0.68208 0.29883-0.93359 0.21558-0.25151 0.686-0.58958 1.3477-1.0527 0.66165-0.46316 1.5166-1.0742 2.2129-2.0723s1.1406-2.3581 1.1406-3.9414c0-1.9444-0.68187-3.76-1.9609-5.0391-1.2791-1.2791-3.0946-1.9609-5.0391-1.9609zm-2 20v4h4v-4z" fill="url(#linearGradient4244)" stroke-linecap="round" stroke-linejoin="round" stroke-width="2"/>
  </g>
  <g transform="translate(-34.214 209.22)">
   <g transform="translate(6,100)" stroke-width="3.75">
    <circle cx="137.27" cy="-27.809" r="30" fill="#f7941d" stroke="#eff0f1"/>
    <text x="124.18791" y="-13.549036" font-family="Nunito" font-size="40px" font-weight="bold" style="font-variant-caps:normal;font-variant-east-asian:normal;font-variant-ligatures:normal;font-variant-numeric:normal;line-height:1.25" xml:space="preserve"><tspan x="124.18791" y="-13.549036" fill="#ffffff" font-family="Nunito" font-size="40px" font-weight="bold" stroke-width="3.75" style="font-variant-caps:normal;font-variant-east-asian:normal;font-variant-ligatures:normal;font-variant-numeric:normal">3</tspan></text>
   </g>
  </g>
  <text x="181.20706" y="-73.643448" fill="#ff0000" font-family="Nunito" font-size="32px" stroke-width=".37795" text-align="center" text-anchor="middle" style="line-height:0px" xml:space="preserve"><tspan x="181.20706" y="-73.643448"/></text>
 </g>
 <text x="39.494316" y="180.92882" font-family="Mandali" font-size="40px" style="line-height:1.25" xml:space="preserve"><tspan x="39.494316" y="180.92882"/></text>
</svg>
