<svg version="1.1" viewBox="0 0 500 140" xmlns="http://www.w3.org/2000/svg">
    <defs>
        <style id="y" type="text/css">.ColorScheme-Text {
        color:#eff0f1;
      }</style>
        <linearGradient id="a" x1="229.14101" x2="229.14101" y1="113.979" y2="297.16901" gradientTransform="matrix(.97011451 0 0 .50650252 -60.901587 -25.182308)" gradientUnits="userSpaceOnUse">
            <stop stop-color="#2a2e32" offset="0"/>
            <stop stop-color="#2a2e32" offset="1"/>
        </linearGradient>
    </defs>
    <path class="ColorScheme-Text" d="m149.22091 47.212775v6.14286h-9.21428v43h43v-43h-9.21429v-6.14286zm-6.14285 9.21429h3.07142v6.14286h30.7143v-6.14286h3.07142v36.8571h-36.8571zm6.14285 9.21429v3.07143h24.5714v-3.07143zm0 9.21428v3.07143h18.4286v-3.07143zm0 9.21429v3.07143h9.21429v-3.07143z" color="#eff0f1" fill="currentColor"/>
    <rect x="1.5053101" y="1.5053101" width="496.98938" height="136.98938" ry="4.86623" fill="url(#a)" stroke="#888" stroke-width="3.75"/>
    <g fill="#eff0f1">
        <g class="ColorScheme-Text" transform="matrix(4,0,0,4,219.18091,39.415875)" color="#eff0f1">
            <path d="m8 2-4 4v4l4 4h1v-12z"/>
            <path d="m2 6v4h1v-4z"/>
            <path d="M 10.128906,4.615234 9.7988281,5.603516 A 3,3 0 0 1 11,8 3,3 0 0 1 9.7988281,10.396484 l 0.3281249,0.984375 A 4,4 0 0 0 12,8 4,4 0 0 0 10.128906,4.615234 Z"/>
            <path d="m9.94531 2.33203-0.167969 1a5 5 0 0 1 3.22266 4.66797 5 5 0 0 1-3.2207 4.67188l0.166016 0.998047a6 6 0 0 0 4.05469-5.66992 6 6 0 0 0-4.05469-5.66797z"/>
        </g>
        <path class="ColorScheme-Text" d="m352.69191 46.732075v21.416l-13.9951-13.9951-3.00492 3.00492 15.0742 15.0742-15.0742 15.0742 3.00492 3.00489 13.9951-13.9951v21.416h4.25l12.75-12.75-12.75-12.75 12.75-12.75-12.75-12.75zm4.25 6.00976 6.74028 6.74024-6.74028 6.74025zm0 25.5 6.74028 6.74024-6.74028 6.74025z" color="#eff0f1"/>
        <path class="ColorScheme-Text" d="m431.63191 47.905475v18h6v21c0 4.986 4.014 9 9 9h21v-3h-6v-6h18v-39h-30v3h27v30h-33v6h6v6h-3c-3.324 0-6-2.676-6-6v-21h6v-18zm3 3h9v12h-9zm3 3v6h3v-6zm-6 15v18h3v-18z" color="#eff0f1"/>
    </g>
    <path d="M 129.05503,43.762953 128.89238,100.72353 86,69.931995 Z" fill="#eff0f1"/>
    <g transform="translate(6,100)" stroke-width="3.75">
        <circle cx="137.26791" cy="-27.809036" r="30" fill="#f7941d" stroke="#eff0f1"/>
        <text x="125.02347" y="-13.509041" fill="#eff0f1" font-family="Nunito" font-size="40px" font-weight="bold" style="font-variant-caps:normal;font-variant-east-asian:normal;font-variant-ligatures:normal;font-variant-numeric:normal;line-height:1.25" xml:space="preserve"><tspan x="125.02347" y="-13.509041" fill="#eff0f1" font-family="Nunito" font-size="40px" font-weight="bold" stroke-width="3.75" style="font-variant-caps:normal;font-variant-east-asian:normal;font-variant-ligatures:normal;font-variant-numeric:normal">2</tspan></text>
    </g>
    <path class="ColorScheme-Text" d="m41.31736 44.05928-17.04416 9.209641 11.33021 9.703453-10.24241 10.314563 17.0931 9.21581 9.92464-9.894816 9.77183 8.438063 16.50643-9.512111c-0.0157 0.01106-10.70078-9.376309-10.70078-9.376309l9.44185-8.401009-14.06796-9.592367-10.97571 9.456563zm-0.61722 3.475224 8.74515 7.709666-10.9024 5.962812-8.94681-7.425743zm22.50764 0.08028 9.78408 6.604755-7.83459 6.407232-9.97962-5.450484zm-10.82909 9.191113 10.90857 6.320832-10.90857 6.320832-10.90857-6.320832zm-14.31247 7.981275 11.42799 6.246756-7.66348 7.549189-11.30574-6.308485zm28.50279 0.06788 7.22958 6.271452-11.49523 6.135648-6.99736-6.252925zm1.45449 12.925564-3.12894 1.851804v7.845481l-12.51577 7.25291-12.51578-7.252908v-6.203545l-3.12895-1.691316v9.759013l15.64475 8.549165 15.64474-8.549165z" color="#eff0f1" fill="#eff0f1" stroke-width="1.08823"/>
</svg>
