<!-- Created with Inkscape (http://www.inkscape.org/) -->
<svg width="94.21mm" height="22.239mm" version="1.1" viewBox="0 0 94.21 22.239" xmlns="http://www.w3.org/2000/svg">
 <rect x="-1.4211e-14" width="94.21" height="22.239" fill="#483737" stroke-width="1.4852"/>
 <g transform="matrix(.26458 0 0 .26458 13.282 6.0593)" fill="#f60" stroke-width="5.2233" style="shape-inside:url(#rect1481);white-space:pre" aria-label="Dropbox Systray placeholder">
  <path d="m25.377 18.206q0 1.56-0.48533 2.7213-0.48533 1.144-1.3693 1.9067-0.884 0.74533-2.1147 1.1267-1.2307 0.364-2.704 0.364-0.728 0-1.612-0.06933-0.86666-0.052-1.5773-0.22533v-11.648q0.71067-0.17333 1.5773-0.22533 0.884-0.06933 1.612-0.06933 1.4733 0 2.704 0.38133 1.2307 0.364 2.1147 1.1267 0.884 0.74533 1.3693 1.9067 0.48533 1.144 0.48533 2.704zm-6.5347 4.6453q2.392 0 3.5707-1.2133 1.1787-1.2307 1.1787-3.432t-1.1787-3.4147q-1.1787-1.2307-3.5707-1.2307-0.71066 0-1.1093 0.01733-0.38133 0.01733-0.53733 0.03467v9.1866q0.156 0.01733 0.53733 0.03467 0.39867 0.01733 1.1093 0.01733z"/>
  <path d="m31.097 15.016q0.208 0 0.468 0.03467 0.27733 0.01733 0.53733 0.06933 0.26 0.03467 0.468 0.08667 0.22533 0.03467 0.32933 0.06933l-0.27733 1.404q-0.19067-0.06933-0.64133-0.156-0.43333-0.104-1.1267-0.104-0.45067 0-0.90133 0.104-0.43333 0.08667-0.572 0.12133v7.5747h-1.612v-8.632q0.572-0.208 1.4213-0.38133 0.84933-0.19067 1.9067-0.19067z"/>
  <path d="m42.415 19.714q0 1.0747-0.312 1.9413-0.312 0.86666-0.884 1.4907-0.55467 0.624-1.3347 0.97066-0.78 0.32933-1.6987 0.32933t-1.6987-0.32933q-0.78-0.34667-1.352-0.97066-0.55466-0.624-0.86666-1.4907-0.312-0.86666-0.312-1.9413 0-1.0573 0.312-1.924 0.312-0.884 0.86666-1.508 0.572-0.624 1.352-0.95333 0.78-0.34667 1.6987-0.34667t1.6987 0.34667q0.78 0.32933 1.3347 0.95333 0.572 0.624 0.884 1.508 0.312 0.86666 0.312 1.924zm-1.6813 0q0-1.5253-0.69333-2.4093-0.676-0.90133-1.8547-0.90133-1.1787 0-1.872 0.90133-0.676 0.884-0.676 2.4093 0 1.5253 0.676 2.4267 0.69333 0.884 1.872 0.884 1.1787 0 1.8547-0.884 0.69333-0.90133 0.69333-2.4267z"/>
  <path d="m50.943 19.731q0-1.5773-0.78-2.4267-0.78-0.84933-2.08-0.84933-0.728 0-1.144 0.052-0.39867 0.052-0.64133 0.12133v5.6853q0.29467 0.24267 0.84933 0.468 0.55467 0.22533 1.2133 0.22533 0.69333 0 1.1787-0.24267 0.50266-0.26 0.81466-0.69333 0.312-0.45067 0.45066-1.04 0.13867-0.60666 0.13867-1.3zm1.6813 0q0 1.0227-0.27733 1.8893-0.26 0.86666-0.78 1.4907t-1.2827 0.97066q-0.74533 0.34667-1.716 0.34667-0.78 0-1.3867-0.208-0.58933-0.208-0.884-0.39867v3.6053h-1.612v-11.943q0.572-0.13867 1.4213-0.29467 0.86666-0.17333 1.9933-0.17333 1.04 0 1.872 0.32933t1.4213 0.936q0.58933 0.60667 0.90133 1.4907 0.32933 0.86666 0.32933 1.9587z"/>
  <path d="m56.507 15.606q0.29467-0.19067 0.884-0.39866 0.60667-0.208 1.3867-0.208 0.97066 0 1.716 0.34667 0.76266 0.34667 1.2827 0.97066t0.78 1.4907q0.27733 0.86666 0.27733 1.9067 0 1.092-0.32933 1.976-0.312 0.86666-0.90133 1.4733-0.58933 0.60667-1.4213 0.936-0.832 0.32933-1.872 0.32933-1.1267 0-1.9933-0.156-0.86666-0.156-1.4213-0.312v-12.913l1.612-0.27733zm0 7.2107q0.24267 0.06933 0.676 0.13867 0.45066 0.052 1.1093 0.052 1.3 0 2.08-0.84933 0.78-0.86666 0.78-2.444 0-0.69333-0.13867-1.3-0.13867-0.60667-0.45067-1.04-0.312-0.45067-0.81466-0.69333-0.48533-0.26-1.1787-0.26-0.65867 0-1.2133 0.22533-0.55467 0.22533-0.84933 0.468z"/>
  <path d="m73.061 19.714q0 1.0747-0.312 1.9413-0.312 0.86666-0.884 1.4907-0.55466 0.624-1.3347 0.97066-0.78 0.32933-1.6987 0.32933t-1.6987-0.32933q-0.78-0.34667-1.352-0.97066-0.55467-0.624-0.86666-1.4907t-0.312-1.9413q0-1.0573 0.312-1.924 0.312-0.884 0.86666-1.508 0.572-0.624 1.352-0.95333 0.78-0.34667 1.6987-0.34667t1.6987 0.34667q0.78 0.32933 1.3347 0.95333 0.572 0.624 0.884 1.508 0.312 0.86666 0.312 1.924zm-1.6813 0q0-1.5253-0.69333-2.4093-0.676-0.90133-1.8547-0.90133-1.1787 0-1.872 0.90133-0.676 0.884-0.676 2.4093 0 1.5253 0.676 2.4267 0.69333 0.884 1.872 0.884 1.1787 0 1.8547-0.884 0.69333-0.90133 0.69333-2.4267z"/>
  <path d="m80.427 24.22q-0.19067-0.38133-0.468-0.84933t-0.60666-0.95333q-0.32933-0.50266-0.676-0.988-0.34667-0.48533-0.676-0.91866-0.32933 0.43333-0.676 0.936-0.34667 0.48533-0.676 0.988-0.312 0.48533-0.58933 0.95333t-0.468 0.832h-1.664q0.60666-1.1787 1.4387-2.392 0.84933-1.2307 1.6813-2.34l-2.9813-4.2813h1.82l2.1493 3.1547 2.1667-3.1547h1.716l-2.912 4.1773q0.832 1.1267 1.6987 2.392 0.884 1.248 1.4907 2.444z"/>
  <path d="m90.792 23.024q2.6347 0 2.6347-1.8027 0-0.55467-0.24267-0.936-0.22533-0.39867-0.624-0.676-0.39867-0.29467-0.91866-0.50267-0.50266-0.208-1.0747-0.416-0.65867-0.22533-1.248-0.50267-0.58933-0.29467-1.0227-0.676-0.43333-0.39866-0.69333-0.936-0.24267-0.53733-0.24267-1.3 0-1.5773 1.0747-2.4613 1.0747-0.884 2.964-0.884 1.092 0 1.976 0.24267 0.90133 0.22533 1.3173 0.50267l-0.53733 1.3693q-0.364-0.22533-1.092-0.43333-0.71066-0.22533-1.664-0.22533-0.48533 0-0.90133 0.104-0.416 0.104-0.728 0.312-0.312 0.208-0.50267 0.53733-0.17333 0.312-0.17333 0.74533 0 0.48533 0.19067 0.81467 0.19067 0.32933 0.53733 0.58933 0.34667 0.24267 0.79733 0.45067 0.468 0.208 1.0227 0.416 0.78 0.312 1.4213 0.624 0.65866 0.312 1.1267 0.74533 0.48533 0.43333 0.74533 1.04 0.26 0.58933 0.26 1.4387 0 1.5773-1.1613 2.4267-1.144 0.84933-3.2413 0.84933-0.71067 0-1.3173-0.104-0.58933-0.08667-1.0573-0.208-0.468-0.13867-0.81467-0.27733-0.32933-0.156-0.52-0.26l0.50267-1.3867q0.39867 0.22533 1.2133 0.50267t1.9933 0.27733z"/>
  <path d="m96.062 25.902q0.19067 0.08667 0.48533 0.156 0.312 0.08667 0.60667 0.08667 0.95333 0 1.4907-0.43333 0.53733-0.416 0.97066-1.3693-1.092-2.08-2.0453-4.4027-0.936-2.34-1.56-4.732h1.7333q0.19067 0.78 0.45067 1.6813 0.27733 0.90133 0.60666 1.8547 0.32933 0.95333 0.71066 1.9067 0.38133 0.95333 0.79733 1.8373 0.65867-1.82 1.144-3.6053t0.91866-3.6747h1.664q-0.624 2.548-1.3867 4.9053-0.76267 2.34-1.6467 4.3853-0.34666 0.78-0.728 1.3347-0.364 0.572-0.81466 0.936-0.45066 0.364-1.0227 0.53733-0.55467 0.17333-1.2653 0.17333-0.19067 0-0.39867-0.03467-0.208-0.01733-0.416-0.06933-0.19067-0.03467-0.364-0.08667-0.156-0.052-0.22533-0.08667z"/>
  <path d="m107.83 23.059q0.988 0 1.456-0.26 0.48533-0.26 0.48533-0.832 0-0.58933-0.468-0.936t-1.5427-0.78q-0.52-0.208-1.0053-0.416-0.468-0.22533-0.81467-0.52-0.34667-0.29467-0.55467-0.71067-0.20799-0.416-0.20799-1.0227 0-1.196 0.88399-1.8893 0.884-0.71066 2.4093-0.71066 0.38133 0 0.76267 0.052 0.38133 0.03467 0.71066 0.104 0.32934 0.052 0.572 0.12133 0.26 0.06933 0.39867 0.12133l-0.29467 1.3867q-0.26-0.13867-0.81466-0.27733-0.55467-0.156-1.3347-0.156-0.676 0-1.1787 0.27733-0.50267 0.26-0.50267 0.832 0 0.29467 0.104 0.52 0.12134 0.22533 0.34667 0.416 0.24266 0.17333 0.58933 0.32933t0.832 0.32933q0.64133 0.24267 1.144 0.48533 0.50266 0.22533 0.84933 0.53733 0.364 0.312 0.55466 0.76267 0.19067 0.43333 0.19067 1.0747 0 1.248-0.936 1.8893-0.91866 0.64133-2.6347 0.64133-1.196 0-1.872-0.208-0.67599-0.19067-0.91866-0.29467l0.29467-1.3867q0.27733 0.104 0.88399 0.312 0.60667 0.208 1.612 0.208z"/>
  <path d="m114.97 15.207h3.4147v1.352h-3.4147v4.16q0 0.676 0.104 1.1267 0.104 0.43333 0.312 0.69333 0.208 0.24267 0.52 0.34667t0.728 0.104q0.728 0 1.1613-0.156 0.45067-0.17333 0.624-0.24267l0.312 1.3347q-0.24267 0.12133-0.84933 0.29467-0.60667 0.19067-1.3867 0.19067-0.91866 0-1.5253-0.22533-0.58933-0.24267-0.95333-0.71067-0.364-0.468-0.52-1.144-0.13866-0.69333-0.13866-1.5947v-8.0427l1.612-0.27733z"/>
  <path d="m123.76 15.016q0.208 0 0.468 0.03467 0.27733 0.01733 0.53733 0.06933 0.26 0.03467 0.468 0.08667 0.22533 0.03467 0.32933 0.06933l-0.27733 1.404q-0.19067-0.06933-0.64133-0.156-0.43334-0.104-1.1267-0.104-0.45066 0-0.90133 0.104-0.43333 0.08667-0.572 0.12133v7.5747h-1.612v-8.632q0.572-0.208 1.4213-0.38133 0.84934-0.19067 1.9067-0.19067z"/>
  <path d="m130.17 23.059q0.57199 0 1.0053-0.01733 0.45066-0.03467 0.74533-0.104v-2.6867q-0.17333-0.08667-0.572-0.13867-0.38133-0.06933-0.936-0.06933-0.364 0-0.78 0.052-0.39866 0.052-0.74533 0.22533-0.32933 0.156-0.55466 0.45067-0.22534 0.27733-0.22534 0.74533 0 0.86666 0.55467 1.2133 0.55466 0.32933 1.508 0.32933zm-0.13867-8.0773q0.97066 0 1.6293 0.26 0.676 0.24267 1.0747 0.71066 0.416 0.45067 0.58934 1.092 0.17333 0.624 0.17333 1.3867v5.6333q-0.208 0.03467-0.58933 0.104-0.364 0.052-0.832 0.104t-1.0227 0.08667q-0.53733 0.052-1.0747 0.052-0.76267 0-1.404-0.156t-1.1093-0.48533q-0.468-0.34667-0.728-0.90133t-0.26-1.3347q0-0.74533 0.29467-1.2827 0.312-0.53733 0.832-0.86666 0.52-0.32933 1.2133-0.48533 0.69333-0.156 1.456-0.156 0.24266 0 0.50266 0.03467 0.26 0.01733 0.48533 0.06933 0.24267 0.03467 0.416 0.06933 0.17334 0.03467 0.24267 0.052v-0.45067q0-0.39867-0.0867-0.78-0.0867-0.39867-0.312-0.69333-0.22533-0.312-0.624-0.48533-0.38133-0.19067-1.0053-0.19067-0.79733 0-1.404 0.12133-0.58934 0.104-0.884 0.22533l-0.19067-1.3347q0.312-0.13867 1.04-0.26 0.728-0.13867 1.5773-0.13867z"/>
  <path d="m134.85 25.902q0.19067 0.08667 0.48533 0.156 0.312 0.08667 0.60667 0.08667 0.95333 0 1.4907-0.43333 0.53734-0.416 0.97067-1.3693-1.092-2.08-2.0453-4.4027-0.936-2.34-1.56-4.732h1.7333q0.19067 0.78 0.45067 1.6813 0.27733 0.90133 0.60666 1.8547 0.32934 0.95333 0.71067 1.9067 0.38133 0.95333 0.79733 1.8373 0.65867-1.82 1.144-3.6053t0.91866-3.6747h1.664q-0.624 2.548-1.3867 4.9053-0.76267 2.34-1.6467 4.3853-0.34666 0.78-0.728 1.3347-0.364 0.572-0.81466 0.936-0.45067 0.364-1.0227 0.53733-0.55466 0.17333-1.2653 0.17333-0.19066 0-0.39866-0.03467-0.208-0.01733-0.416-0.06933-0.19067-0.03467-0.364-0.08667-0.156-0.052-0.22533-0.08667z"/>
  <path d="m154.79 19.731q0-1.5773-0.78-2.4267-0.78-0.84933-2.08-0.84933-0.72799 0-1.144 0.052-0.39867 0.052-0.64134 0.12133v5.6853q0.29467 0.24267 0.84934 0.468 0.55466 0.22533 1.2133 0.22533 0.69333 0 1.1787-0.24267 0.50267-0.26 0.81467-0.69333 0.312-0.45067 0.45066-1.04 0.13867-0.60666 0.13867-1.3zm1.6813 0q0 1.0227-0.27733 1.8893-0.26 0.86666-0.78 1.4907t-1.2827 0.97066q-0.74533 0.34667-1.716 0.34667-0.78 0-1.3867-0.208-0.58933-0.208-0.884-0.39867v3.6053h-1.612v-11.943q0.572-0.13867 1.4213-0.29467 0.86666-0.17333 1.9933-0.17333 1.04 0 1.872 0.32933 0.832 0.32933 1.4213 0.936 0.58934 0.60667 0.90134 1.4907 0.32933 0.86666 0.32933 1.9587z"/>
  <path d="m161.44 24.394q-1.4907-0.03467-2.1147-0.64133-0.624-0.60666-0.624-1.8893v-10.816l1.612-0.27733v10.833q0 0.39867 0.0693 0.65867 0.0693 0.26 0.22533 0.416 0.156 0.156 0.416 0.24267 0.26 0.06933 0.64133 0.12133z"/>
  <path d="m166.52 23.059q0.572 0 1.0053-0.01733 0.45066-0.03467 0.74533-0.104v-2.6867q-0.17333-0.08667-0.572-0.13867-0.38133-0.06933-0.936-0.06933-0.364 0-0.77999 0.052-0.39867 0.052-0.74534 0.22533-0.32933 0.156-0.55466 0.45067-0.22534 0.27733-0.22534 0.74533 0 0.86666 0.55467 1.2133 0.55467 0.32933 1.508 0.32933zm-0.13867-8.0773q0.97067 0 1.6293 0.26 0.676 0.24267 1.0747 0.71066 0.41599 0.45067 0.58933 1.092 0.17333 0.624 0.17333 1.3867v5.6333q-0.208 0.03467-0.58933 0.104-0.364 0.052-0.832 0.104t-1.0227 0.08667q-0.53734 0.052-1.0747 0.052-0.76266 0-1.404-0.156-0.64133-0.156-1.1093-0.48533-0.468-0.34667-0.728-0.90133t-0.26-1.3347q0-0.74533 0.29467-1.2827 0.312-0.53733 0.832-0.86666 0.52-0.32933 1.2133-0.48533 0.69333-0.156 1.456-0.156 0.24266 0 0.50266 0.03467 0.26 0.01733 0.48534 0.06933 0.24266 0.03467 0.41599 0.06933 0.17334 0.03467 0.24267 0.052v-0.45067q0-0.39867-0.0867-0.78-0.0867-0.39867-0.312-0.69333-0.22533-0.312-0.62399-0.48533-0.38134-0.19067-1.0053-0.19067-0.79733 0-1.404 0.12133-0.58933 0.104-0.884 0.22533l-0.19067-1.3347q0.312-0.13867 1.04-0.26 0.728-0.13867 1.5773-0.13867z"/>
  <path d="m176.44 24.428q-1.092 0-1.924-0.34667-0.81467-0.34667-1.3867-0.97066-0.55467-0.624-0.832-1.4733-0.27734-0.86666-0.27734-1.9067t0.29467-1.9067q0.312-0.86666 0.86667-1.4907 0.55466-0.64133 1.352-0.988 0.81467-0.364 1.8027-0.364 0.60666 0 1.2133 0.104 0.60666 0.104 1.1613 0.32933l-0.364 1.3693q-0.364-0.17333-0.84933-0.27733-0.468-0.104-1.0053-0.104-1.352 0-2.08 0.84933-0.71067 0.84933-0.71067 2.4787 0 0.728 0.156 1.3347 0.17334 0.60666 0.52 1.04 0.364 0.43333 0.91867 0.676 0.55466 0.22533 1.352 0.22533 0.64133 0 1.1613-0.12133t0.81466-0.26l0.22533 1.352q-0.13866 0.08667-0.39866 0.17333-0.26 0.06933-0.58933 0.12133-0.32934 0.06933-0.71067 0.104-0.364 0.052-0.71066 0.052z"/>
  <path d="m180.08 19.731q0-1.196 0.34666-2.08 0.34667-0.90133 0.91867-1.4907t1.3173-0.884 1.5253-0.29467q1.82 0 2.7907 1.144 0.97066 1.1267 0.97066 3.4493 0 0.104 0 0.27733 0 0.156-0.0173 0.29467h-6.1706q0.104 1.404 0.81466 2.132 0.71067 0.728 2.2187 0.728 0.84934 0 1.4213-0.13867 0.58934-0.156 0.884-0.29467l0.22534 1.352q-0.29467 0.156-1.04 0.32933-0.728 0.17333-1.664 0.17333-1.1787 0-2.0453-0.34667-0.84933-0.364-1.404-0.988-0.55466-0.624-0.83199-1.4733-0.26-0.86666-0.26-1.8893zm6.188-0.884q0.0173-1.092-0.55466-1.7853-0.55467-0.71067-1.5427-0.71067-0.55467 0-0.988 0.22533-0.416 0.208-0.71067 0.55467-0.29466 0.34667-0.468 0.79733-0.156 0.45066-0.208 0.91866z"/>
  <path d="m190.27 24.22v-13.173l1.612-0.27733v4.6107q0.45067-0.17333 0.95334-0.26 0.51999-0.104 1.0227-0.104 1.0747 0 1.7853 0.312 0.71067 0.29467 1.1267 0.84933 0.43334 0.53733 0.60667 1.3t0.17333 1.6813v5.0613h-1.612v-4.7147q0-0.832-0.12134-1.4213-0.104-0.58933-0.364-0.95333t-0.69333-0.52q-0.43333-0.17333-1.0747-0.17333-0.26 0-0.53733 0.03467-0.27734 0.03467-0.53734 0.08667-0.24266 0.03467-0.45066 0.08667-0.19067 0.052-0.27734 0.08667v7.488z"/>
  <path d="m208.12 19.714q0 1.0747-0.312 1.9413t-0.884 1.4907q-0.55467 0.624-1.3347 0.97066-0.78 0.32933-1.6987 0.32933t-1.6987-0.32933q-0.78-0.34667-1.352-0.97066-0.55467-0.624-0.86667-1.4907t-0.312-1.9413q0-1.0573 0.312-1.924 0.312-0.884 0.86667-1.508 0.572-0.624 1.352-0.95333 0.78-0.34667 1.6987-0.34667t1.6987 0.34667q0.78 0.32933 1.3347 0.95333 0.572 0.624 0.884 1.508 0.312 0.86666 0.312 1.924zm-1.6813 0q0-1.5253-0.69333-2.4093-0.676-0.90133-1.8547-0.90133t-1.872 0.90133q-0.676 0.884-0.676 2.4093 0 1.5253 0.676 2.4267 0.69334 0.884 1.872 0.884t1.8547-0.884q0.69333-0.90133 0.69333-2.4267z"/>
  <path d="m213.1 24.394q-1.4907-0.03467-2.1147-0.64133-0.624-0.60666-0.624-1.8893v-10.816l1.612-0.27733v10.833q0 0.39867 0.0693 0.65867 0.0693 0.26 0.22533 0.416 0.156 0.156 0.416 0.24267 0.26 0.06933 0.64133 0.12133z"/>
  <path d="m220.95 17.114q-0.29467-0.24267-0.84933-0.468-0.55467-0.22533-1.2133-0.22533-0.69333 0-1.196 0.26-0.48534 0.24267-0.79734 0.69333-0.31199 0.43333-0.45066 1.04-0.13867 0.60666-0.13867 1.3 0 1.5773 0.78 2.444 0.78 0.84933 2.08 0.84933 0.65866 0 1.092-0.052 0.45067-0.06933 0.69334-0.13867zm0-6.0667 1.612-0.27733v13.191q-0.55466 0.156-1.4213 0.312-0.86666 0.156-1.9933 0.156-1.04 0-1.872-0.32933-0.832-0.32933-1.4213-0.936-0.58934-0.60666-0.91867-1.4733-0.312-0.884-0.312-1.976 0-1.04 0.26-1.9067 0.27733-0.86666 0.79733-1.4907t1.2653-0.97066q0.76267-0.34667 1.7333-0.34667 0.78 0 1.3693 0.208 0.60666 0.208 0.90133 0.39866z"/>
  <path d="m224.83 19.731q0-1.196 0.34667-2.08 0.34666-0.90133 0.91866-1.4907t1.3173-0.884q0.74534-0.29467 1.5253-0.29467 1.82 0 2.7907 1.144 0.97066 1.1267 0.97066 3.4493 0 0.104 0 0.27733 0 0.156-0.0173 0.29467h-6.1707q0.104 1.404 0.81467 2.132 0.71066 0.728 2.2187 0.728 0.84933 0 1.4213-0.13867 0.58933-0.156 0.884-0.29467l0.22533 1.352q-0.29466 0.156-1.04 0.32933-0.728 0.17333-1.664 0.17333-1.1787 0-2.0453-0.34667-0.84933-0.364-1.404-0.988t-0.832-1.4733q-0.26-0.86666-0.26-1.8893zm6.188-0.884q0.0173-1.092-0.55467-1.7853-0.55466-0.71067-1.5427-0.71067-0.55466 0-0.988 0.22533-0.416 0.208-0.71066 0.55467-0.29467 0.34667-0.468 0.79733-0.156 0.45066-0.208 0.91866z"/>
  <path d="m238.35 15.016q0.208 0 0.468 0.03467 0.27733 0.01733 0.53733 0.06933 0.26 0.03467 0.468 0.08667 0.22533 0.03467 0.32933 0.06933l-0.27733 1.404q-0.19067-0.06933-0.64134-0.156-0.43333-0.104-1.1267-0.104-0.45067 0-0.90133 0.104-0.43333 0.08667-0.572 0.12133v7.5747h-1.612v-8.632q0.572-0.208 1.4213-0.38133 0.84934-0.19067 1.9067-0.19067z"/>
 </g>
</svg>
