<svg version="1.1" viewBox="0 0 592.295 138" xmlns="http://www.w3.org/2000/svg"><defs><linearGradient id="e" x1="63.9998" x2="63.9998" y1="-3.314" y2="118.486" gradientUnits="userSpaceOnUse"><stop stop-color="#414141" offset="0"/><stop stop-color="#3e3e3e" offset=".196"/><stop stop-color="#3a3a3a" offset="1"/></linearGradient><radialGradient id="g" cx="-237.642" cy="32.9151" r="207.234" gradientTransform="matrix(.3539 0 0 .3539 144.283 41.6546)" gradientUnits="userSpaceOnUse"><stop stop-color="#fcfcfc" stop-opacity="0" offset=".6733"/><stop stop-color="#fcfcfc" offset="1"/></radialGradient><radialGradient id="i" cx="-229.296" cy="60.2127" r="172.389" gradientTransform="matrix(.3539 0 0 .3539 144.283 41.6546)" gradientUnits="userSpaceOnUse"><stop stop-color="#0f0f0d" stop-opacity="0" offset=".1088"/><stop stop-color="#414141" stop-opacity="0" offset=".8856"/><stop stop-color="#1e1e1d" stop-opacity=".6841" offset=".9339"/><stop stop-color="#0f0f0d" offset=".9874"/></radialGradient><radialGradient id="n" cx="-223.551" cy="-43.1522" r="334.836" gradientTransform="matrix(.3539 0 0 .2026 144.283 35.1949)" gradientUnits="userSpaceOnUse"><stop stop-color="#2e6b26" offset="0"/><stop stop-color="#6ab536" offset="1"/></radialGradient><radialGradient id="p" cx="-212.614" cy="12.0576" r="148.11" gradientTransform="matrix(.3539 0 0 .4347 144.283 40.66)" gradientUnits="userSpaceOnUse"><stop offset="0"/><stop stop-color="#fff" offset=".7192"/></radialGradient><radialGradient id="r" cx="-226.056" cy="-44.9179" r="65.3925" gradientTransform="matrix(.3539 0 0 .3539 144.283 41.6546)" gradientUnits="userSpaceOnUse"><stop stop-color="#6ab536" offset="0"/><stop stop-color="#2e6b26" offset="1"/></radialGradient><radialGradient id="t" cx="-263.923" cy="-1.8335" r="96.5851" gradientTransform="matrix(.3356 0 0 .5572 152.49 40.1419)" gradientUnits="userSpaceOnUse"><stop offset="0"/><stop stop-color="#4f4f4f" stop-opacity="0" offset=".7842"/></radialGradient><radialGradient id="w" cx="-227.449" cy="-64.5727" r="223.51" gradientTransform="matrix(.3539 0 0 .3539 144.283 41.6546)" gradientUnits="userSpaceOnUse"><stop stop-color="#f5f5f5" offset="0"/><stop stop-color="#e3e3e3" offset="1"/></radialGradient><style id="y" type="text/css">.ColorScheme-Text {
        color:#eff0f1;
      }</style><linearGradient id="a" x1="229.141" x2="229.141" y1="113.979" y2="297.169" gradientTransform="matrix(1.1542 0 0 .505894 -73.7521 -25.9588)" gradientUnits="userSpaceOnUse"><stop stop-color="#2a2e32" offset="0"/><stop stop-color="#2a2e32" offset="1"/></linearGradient></defs><g transform="matrix(.5 0 0 .5 16 40)" style="isolation:isolate"><g id="b"><g id="c"><rect width="128" height="128" fill="none"/><g id="d"><path id="f" d="m63.9999 124.9c-33.5805 0-60.9001-27.3198-60.9001-60.9s27.3196-60.9 60.9001-60.9 60.8999 27.3195 60.8999 60.9-27.3193 60.9-60.8999 60.9zm0-116.676c-30.7415 0-55.7515 25.021-55.7515 55.7759s25.01 55.7759 55.7515 55.7759 55.7512-25.0212 55.7512-55.7759-25.0097-55.7759-55.7512-55.7759z" fill="url(#e)"/><path id="h" d="m63.9999 3.1238c-33.5674 0-60.8763 27.3089-60.8763 60.8762s27.3089 60.8762 60.8763 60.8762 60.8761-27.3091 60.8761-60.8762-27.3086-60.8762-60.8761-60.8762z" fill="url(#g)" opacity=".32" style="mix-blend-mode:lighten"/><path id="j" d="m63.9999 124.9c-33.5805 0-60.9001-27.3198-60.9001-60.9s27.3196-60.9 60.9001-60.9 60.8999 27.3195 60.8999 60.9-27.3193 60.9-60.8999 60.9zm0-116.676c-30.7415 0-55.7515 25.021-55.7515 55.7759s25.01 55.7759 55.7515 55.7759 55.7512-25.0212 55.7512-55.7759-25.0097-55.7759-55.7512-55.7759z" fill="url(#i)" opacity=".44"/><path id="k" d="m63.9999 8.5504c-30.9783 0-56.1809 25.2025-56.1809 56.1808s25.2025 56.1808 56.1809 56.1808 56.1807-25.2028 56.1807-56.1808-25.2023-56.1808-56.1807-56.1808z"/><path id="l" d="m63.9999 124.9c-33.5805 0-60.9001-27.3198-60.9001-60.9s27.3196-60.9 60.9001-60.9 60.8999 27.3195 60.8999 60.9-27.3193 60.9-60.8999 60.9zm0-120.497c-33.5804 0-60.9001 26.9562-60.9001 60.0898s27.3197 60.0898 60.9001 60.0898 60.8999-26.9565 60.8999-60.0898-27.3194-60.0898-60.8998-60.0898z" fill="#0f0f0d" opacity=".35"/></g><g id="m"><path id="o" d="m63.9999 8.2241c-30.7551 0-55.776 25.0209-55.776 55.7759s25.0209 55.7759 55.776 55.7759 55.7758-25.0211 55.7758-55.7759-25.0207-55.7759-55.7758-55.7759z" fill="url(#n)"/><path id="q" d="m63.9999 8.2241c-30.7551 0-55.776 25.0209-55.776 55.7759s25.0209 55.7759 55.776 55.7759 55.7758-25.0211 55.7758-55.7759-25.0207-55.7759-55.7758-55.7759z" fill="url(#p)" opacity=".13" style="mix-blend-mode:multiply"/><path id="s" d="m63.9998 12.8613c-9.1608 0-16.6136 7.4528-16.6136 16.6135s7.4528 16.6135 16.6136 16.6135 16.6135-7.4528 16.6135-16.6135-7.4527-16.6135-16.6135-16.6135z" fill="url(#r)" opacity=".7" style="mix-blend-mode:lighten"/><path id="u" d="m34.6871 16.3645c-0.0027 0.0191-0.0054 0.0378-0.0081 0.0569-0.0725 0.0136-0.0736-0.0037 0.0081-0.0569zm42.1177 35.8001-0.7714 13.7822 9.1023 9.9165-9.1023 9.9165 6.0168 6.5549-6.0168 6.5549 0.7714 13.6696h-25.61v-60.3946c-10.1823-5.2104-17.1248-16.4714-17.1248-29.4132 0-2.1659 0.3032-4.1671 0.609-6.33 1.1046-0.2082 18.9673-7.6947 18.9673-7.6947-0.1483 0.8092 20.8551 0.8092 20.7068 0 0 0 17.2577 7.4257 18.9891 7.7899 0.438 2.1264 0.5873 4.101 0.5873 6.2348 0 12.9418-7.0968 24.2029-17.1248 29.4133zm16.5077-35.8001c0.0108 0.0511 0.0194 0.1011 0.0299 0.1521 0.1896 0.0399 0.196-0.0035-0.0299-0.1521z" fill="url(#t)" opacity=".3" style="mix-blend-mode:multiply"/><path id="v" d="m34.1161 100.432c-9.8977-8.6081-16.164-21.2969-16.164-35.4968 0-16.5227 8.6409-31.7744 22.8728-40.29-0.2541 1.6523-0.5083 3.1774-0.5083 4.8297 0 9.7865 5.7182 18.302 14.1049 22.2421v44.6113l10.5469 10.5491 10.5469-10.5491-0.6354-9.2781 4.9558-4.9568-4.9558-4.9568 7.4972-7.4988-7.4972-7.4988 0.6354-10.422c8.2596-3.94 14.1049-12.4556 14.1049-22.2421 0-1.6523-0.1271-3.1774-0.5083-4.8297 5.1643 3.1178 9.5922 7.1416 13.1419 11.7972-8.5841-11.7889-22.5293-19.4587-38.2766-19.4587-26.0911 0-47.2421 21.05-47.2421 47.0165 0 14.693 6.7736 27.8101 17.3809 36.4318zm27.4214-7.6624h-3.558v-35.2061h3.558zm-5.0828-73.9708c2.7956-0.5084 5.7182-0.7626 8.5138-0.7626 2.9226-0.1271 5.7182 0.2542 8.5138 0.7626 0.1271 0.6355 0.2542 1.271 0.2542 1.9064 0 4.8297-3.9392 8.7698-8.7679 8.7698s-8.7679-3.94-8.7679-8.7698c0-0.6355 0.1271-1.2709 0.2542-1.9064z" fill="#0f0f0d" opacity=".2" style="mix-blend-mode:multiply"/><path id="x" d="m63.9999 8.2241c-30.7415 0-55.7514 25.0209-55.7514 55.7759s25.01 55.7759 55.7514 55.7759 55.7512-25.0212 55.7512-55.7759-25.0097-55.7759-55.7512-55.7759zm-8.5138 9.5882c2.7956-0.5084 5.7182-0.7626 8.5138-0.7626 2.9226-0.1271 5.7182 0.2542 8.5138 0.7626 0.1271 0.6355 0.2542 1.271 0.2542 1.9064 0 4.8297-3.9392 8.7698-8.7679 8.7698s-8.7679-3.94-8.7679-8.7698c0-0.6355 0.1271-1.2709 0.2542-1.9064zm5.0828 38.7648v35.2061h-3.558v-35.2061zm3.4309 54.3978c-25.9225 0-47.0163-20.9711-47.0163-47.0261 0-16.5227 8.6409-31.7744 22.8728-40.29-0.2541 1.6523-0.5083 3.1774-0.5083 4.8297 0 9.7865 5.7182 18.302 14.1049 22.2421v44.6113l10.5469 10.5491 10.5469-10.5491-0.6354-9.2781 4.9558-4.9568-4.9558-4.9568 7.4972-7.4988-7.4972-7.4988 0.6354-10.422c8.2596-3.94 14.1049-12.4556 14.1049-22.2421 0-1.6523-0.1271-3.1774-0.5083-4.8297 14.1049 8.5156 22.7457 23.7673 22.8728 40.29 0 25.9279-20.9668 47.0261-47.0163 47.0261z" fill="url(#w)"/></g></g></g></g><rect x=".496688" y=".696688" width="591.295" height="136.824" ry="4.86038" fill="url(#a)" stroke="#888" stroke-width=".993375"/><g transform="translate(97.295)" fill="#eff0f1"><path class="ColorScheme-Text" d="m137.456 47.2939v6.14286h-9.21428v43h43v-43h-9.21429v-6.14286zm-6.14285 9.21429h3.07142v6.14286h30.7143v-6.14286h3.07142v36.8571h-36.8571zm6.14285 9.21429v3.07143h24.5714v-3.07143zm0 9.21428v3.07143h18.4286v-3.07143zm0 9.21429v3.07143h9.21429v-3.07143z" color="#eff0f1"/><g class="ColorScheme-Text" transform="matrix(4 0 0 4 219.222 39.2098)" color="#eff0f1"><path d="m8 2-4 4v4l4 4h1v-12z"/><path d="m2 6v4h1v-4z"/><path d="M 10.128906,4.615234 9.7988281,5.603516 A 3,3 0 0 1 11,8 3,3 0 0 1 9.7988281,10.396484 l 0.3281249,0.984375 A 4,4 0 0 0 12,8 4,4 0 0 0 10.128906,4.615234 Z"/><path d="m9.94531 2.33203-0.167969 1a5 5 0 0 1 3.22266 4.66797 5 5 0 0 1-3.2207 4.67188l0.166016 0.998047a6 6 0 0 0 4.05469-5.66992 6 6 0 0 0-4.05469-5.66797z"/></g><path class="ColorScheme-Text" d="m352.734 46.526v21.416l-13.9951-13.9951-3.00492 3.00492 15.0742 15.0742-15.0742 15.0742 3.00492 3.00489 13.9951-13.9951v21.416h4.25l12.75-12.75-12.75-12.75 12.75-12.75-12.75-12.75zm4.25 6.00976 6.74028 6.74024-6.74028 6.74025zm0 25.5 6.74028 6.74024-6.74028 6.74025z" color="#eff0f1"/><path class="ColorScheme-Text" d="m431.674 47.6994v18h6v21c0 4.986 4.014 9 9 9h21v-3h-6v-6h18v-39h-30v3h27v30h-33v6h6v6h-3c-3.324 0-6-2.676-6-6v-21h6v-18zm3 3h9v12h-9zm3 3v6h3v-6zm-6 15v18h3v-18z" color="#eff0f1"/><path class="ColorScheme-Text" d="m-64.0604 47.1867-15.7408 8.4207 10.4638 8.87221-9.45918 9.43097 15.786 8.42634 9.16571-9.04718 9.02458 7.71522 15.2442-8.69726c-0.0145 0.01011-9.8825-8.57309-9.8825-8.57309l8.71984-7.68134-12.9922-8.77064-10.1364 8.64647zm-0.57002 3.17752 8.07642 7.04922-10.0687 5.45201-8.26266-6.78962zm20.7865 0.0734 9.0359 6.03896-7.23549 5.85836-9.21648-4.98357zm-10.001 8.40376 10.0744 5.77936-10.0744 5.77936-10.0744-5.77936zm-13.218 7.29756 10.5541 5.71163-7.07746 6.90249-10.4412-5.76807zm26.3232 0.06207 6.67674 5.73421-10.6162 5.61004-6.46228-5.71727zm1.34326 11.8183-2.88967 1.69317v7.1734l-11.5587 6.63159-11.5587-6.63159v-5.67212l-2.88968-1.54643v8.92301l14.4484 7.8168 14.4484-7.8168z"/></g><path class="ColorScheme-Text" d="m90.9543 73.6469 64.5028 56.6372c1.27918 1.1232 3.28558 0.21485 3.28557-1.48747v-27.2347c0-2.4148 1.95758-4.37238 4.37238-4.37238h38.1006c2.4148 2e-6 4.37238-1.95758 4.37238-4.37238v-44.1103c0-2.4148-1.95758-4.37238-4.37238-4.37238l-38.1006-1.8e-5c-2.4148 1e-6 -4.37238-1.95758-4.37238-4.37238v-27.2347c0-1.7023-2.00638-2.61065-3.28556-1.48746l-64.5028 56.6372c-1.74144 1.52908-1.74144 4.24075 0 5.76983z" color="#eff0f1" fill="#f7941d" stroke="#eff0f1" stroke-width="4"/><text x="137.66837" y="84.925789" font-family="Panton" font-size="40px" font-weight="bold" style="font-variant-caps:normal;font-variant-east-asian:normal;font-variant-ligatures:normal;font-variant-numeric:normal;line-height:1.25" xml:space="preserve"><tspan x="137.66837" y="84.925789" fill="#ffffff" font-family="Panton" font-size="40px" font-weight="bold" style="font-variant-caps:normal;font-variant-east-asian:normal;font-variant-ligatures:normal;font-variant-numeric:normal">2</tspan></text></svg>
