<svg version="1.1" viewBox="0 0 499.98767 299.9877" xmlns="http://www.w3.org/2000/svg">
  <defs>
    <linearGradient id="linearGradient40329" x1="229.14143" x2="229.14143" y1="113.97903" y2="297.1691" gradientTransform="matrix(.96620669 0 0 1.1762852 -59.655492 -59.478311)" gradientUnits="userSpaceOnUse">
      <stop stop-color="#2a2e32" offset="0"/>
      <stop stop-color="#2a2e32" offset="1"/>
    </linearGradient>
    <linearGradient id="linearGradient2275" x1="436.21014" x2="436.21014" y1="362.60602" y2="344.49173" gradientTransform="translate(-78.435183,327.52909)" gradientUnits="userSpaceOnUse">
      <stop stop-color="#303539" offset="0"/>
      <stop stop-color="#373c41" offset="1"/>
    </linearGradient>
  </defs>
  <rect x="2.5" y="2.5" width="494.98767" height="294.9877" ry="11.301162" fill="url(#linearGradient40329)" stroke="#888" stroke-width="5"/>
  <g transform="translate(304.8223,169.93874)">
    <g transform="translate(6,100)" stroke-width="3.75">
      <g transform="translate(10,-200)">
        <circle cx="137.26791" cy="-27.809036" r="30" fill="#f7941d" stroke="#eff0f1"/>
        <text x="125.62592" y="-13.709036" fill="#eff0f1" font-family="Nunito" font-size="40px" font-weight="bold" style="font-variant-caps:normal;font-variant-east-asian:normal;font-variant-ligatures:normal;font-variant-numeric:normal;line-height:1.25" xml:space="preserve"><tspan x="125.62592" y="-13.709036" fill="#eff0f1" font-family="Nunito" font-size="40px" font-weight="bold" stroke-width="3.75" style="font-variant-caps:normal;font-variant-east-asian:normal;font-variant-ligatures:normal;font-variant-numeric:normal">3</tspan></text>
      </g>
    </g>
  </g>
  <text transform="translate(-56.43788,-8.818722)" x="202.21588" fill="#eff0f1" font-family="'Noto Sans'" font-size="21.3333px" stroke-width="0" text-align="center" style="font-variant-caps:normal;font-variant-east-asian:normal;font-variant-ligatures:normal;font-variant-numeric:normal;shape-inside:url(#rect4561);white-space:pre" xml:space="preserve"/>
  <g transform="translate(-148.47876,-151.18435)">
    <g transform="translate(-70.186577,136.57702)">
      <g transform="translate(-60,-22.470893)">
        <rect x="411.89999" y="266.45773" width="120" height="44.7565" ry="4.2572007" fill="#45a1ff" stroke="#45a1ff" stroke-width="2.5"/>
        <text x="427.65329" y="296.58926" fill="#000000" font-family="'Noto Sans'" font-size="21.3333px" style="font-variant-caps:normal;font-variant-east-asian:normal;font-variant-ligatures:normal;font-variant-numeric:normal" xml:space="preserve"><tspan x="427.65329" y="296.58926" fill="#000000">Connect</tspan></text>
      </g>
    </g>
    <g transform="translate(118.01609,-266.8779)" stroke-width="2.5">
      <rect x="302.2157" y="647.98682" width="95" height="44.7565" ry="4.2572007" fill="url(#linearGradient2275)" stroke="#666a6d"/>
      <text x="317.21811" y="678.11835" fill="#eff0f1" font-family="'Noto Sans'" font-size="21.3333px" style="font-variant-caps:normal;font-variant-east-asian:normal;font-variant-ligatures:normal;font-variant-numeric:normal" xml:space="preserve"><tspan x="317.21811" y="678.11835" stroke-width="2.5">Cancel</tspan></text>
    </g>
  </g>
  <g fill="#eff0f1" stroke-width="3.75">
    <text font-family="'Noto Sans'" font-size="21.333333px" stroke="#45a1ff" style="shape-inside:url(#rect1018);white-space:pre" xml:space="preserve"/>
    <text font-family="'Noto Sans'" font-size="21.333333px" stroke="#45a1ff" style="shape-inside:url(#rect1758);white-space:pre" xml:space="preserve"/>
    <g transform="translate(0,2)" style="shape-inside:url(#rect1764);white-space:pre" aria-label="John Doe,  Would you like to connect the computer kfocus-jdoe to your Dropbox account (john.doe@gmail.com)? If you didn’t request this, please click cancel.">
      <path d="m201.08301 45.961458q-0.576 0-1.008-0.096-0.432-0.072-0.768-0.216v-1.824q0.384 0.096 0.816 0.168t0.912 0.072q0.6 0 1.128-0.24 0.552-0.24 0.888-0.84t0.336-1.68v-17.04h2.16v16.872q0 2.472-1.224 3.648t-3.24 1.176z"/>
      <path d="m220.95498 34.945458q0 3.192-1.632 4.944-1.608 1.752-4.368 1.752-1.704 0-3.048-0.768-1.32-0.792-2.088-2.28-0.768-1.512-0.768-3.648 0-3.192 1.608-4.92t4.368-1.728q1.752 0 3.072 0.792 1.344 0.768 2.088 2.256 0.768 1.464 0.768 3.6zm-9.72 0q0 2.28 0.888 3.624 0.912 1.32 2.88 1.32 1.944 0 2.856-1.32 0.912-1.344 0.912-3.624t-0.912-3.576-2.88-1.296-2.856 1.296-0.888 3.576z"/>
      <path d="m226.40297 28.513458q0 0.96-0.12 1.8h0.144q0.624-0.984 1.68-1.488 1.08-0.504 2.328-0.504 2.352 0 3.528 1.128 1.176 1.104 1.176 3.576v8.376h-2.088v-8.232q0-3.096-2.88-3.096-2.16 0-2.976 1.224-0.792 1.2-0.792 3.456v6.648h-2.112v-18.24h2.112z"/>
      <path d="m245.31492 28.297458q2.304 0 3.48 1.128 1.176 1.104 1.176 3.6v8.376h-2.088v-8.232q0-3.096-2.88-3.096-2.136 0-2.952 1.2t-0.816 3.456v6.672h-2.112v-12.864h1.704l0.312 1.752h0.12q0.624-1.008 1.728-1.488 1.104-0.504 2.328-0.504z"/>
      <path d="m274.21084 32.665458q0 4.344-2.376 6.552-2.352 2.184-6.576 2.184h-4.776v-17.136h5.28q2.592 0 4.488 0.96t2.928 2.832q1.032 1.848 1.032 4.608zm-2.28 0.072q0-3.432-1.704-5.016-1.68-1.608-4.776-1.608h-2.808v13.44h2.328q6.96 0 6.96-6.816z"/>
      <path d="m288.89883 34.945458q0 3.192-1.632 4.944-1.608 1.752-4.368 1.752-1.704 0-3.048-0.768-1.32-0.792-2.088-2.28-0.768-1.512-0.768-3.648 0-3.192 1.608-4.92t4.368-1.728q1.752 0 3.072 0.792 1.344 0.768 2.088 2.256 0.768 1.464 0.768 3.6zm-9.72 0q0 2.28 0.888 3.624 0.912 1.32 2.88 1.32 1.944 0 2.856-1.32 0.912-1.344 0.912-3.624t-0.912-3.576-2.88-1.296-2.856 1.296-0.888 3.576z"/>
      <path d="m297.20282 28.297458q1.656 0 2.832 0.72 1.2 0.72 1.824 2.04 0.648 1.296 0.648 3.048v1.272h-8.808q0.048 2.184 1.104 3.336 1.08 1.128 3 1.128 1.224 0 2.16-0.216 0.96-0.24 1.968-0.672v1.848q-0.984 0.432-1.944 0.624-0.96 0.216-2.28 0.216-1.824 0-3.24-0.744-1.392-0.744-2.184-2.208-0.768-1.488-0.768-3.624 0-2.112 0.696-3.624 0.72-1.512 1.992-2.328 1.296-0.816 3-0.816zm-0.024 1.728q-1.512 0-2.4 0.984-0.864 0.96-1.032 2.688h6.552q-0.024-1.632-0.768-2.64-0.744-1.032-2.352-1.032z"/>
      <path d="m308.3388 38.881458q-0.312 1.272-0.912 2.784-0.576 1.536-1.152 2.832h-1.56q0.336-1.368 0.672-3 0.36-1.632 0.528-2.88h2.256z"/>
      <path d="m111.02333 84.265458-4.56 17.136002h-2.184l-3.336-11.232002q-0.192-0.696-0.384-1.392t-0.312-1.224q-0.12-0.552-0.168-0.768-0.024 0.312-0.264003 1.344-0.216 1.008-0.552 2.112l-3.24 11.160002h-2.184l-4.536-17.136002h2.256l2.664 10.464q0.288 1.104 0.48 2.136 0.216 1.032 0.336 1.944 0.12-0.936 0.36-2.04t0.552-2.16l3.024-10.344h2.232003l3.144 10.416q0.336 1.104 0.576 2.208 0.24 1.08 0.36 1.92 0.12-0.888 0.336-1.92 0.216-1.056 0.504-2.184l2.64-10.44z"/>
      <path d="m124.07928 94.945458q0 3.192-1.632 4.944-1.608 1.752002-4.368 1.752002-1.704 0-3.048-0.768-1.32-0.792-2.088-2.280002-0.768-1.512-0.768-3.648 0-3.192 1.608-4.92t4.368-1.728q1.752 0 3.072 0.792 1.344 0.768 2.088 2.256 0.768 1.464 0.768 3.6zm-9.72 0q0 2.28 0.888 3.624 0.912 1.32 2.88 1.32 1.944 0 2.856-1.32 0.912-1.344 0.912-3.624t-0.912-3.576-2.88-1.296-2.856 1.296-0.888 3.576z"/>
      <path d="m138.16727 88.537458v12.864002h-1.728l-0.312-1.704002h-0.096q-0.624 1.008002-1.728 1.488002-1.104 0.456-2.352 0.456-2.328 0-3.504-1.104-1.176-1.128002-1.176-3.576002v-8.424h2.136v8.28q0 3.072 2.856 3.072 2.136 0 2.952-1.2 0.84-1.2 0.84-3.456v-6.696z"/>
      <path d="m144.35922 101.40146h-2.112v-18.240002h2.112z"/>
      <path d="m152.99921 101.64146q-2.4 0-3.84-1.656002-1.44-1.68-1.44-4.992t1.44-4.992q1.464-1.704 3.864-1.704 1.488 0 2.424 0.552 0.96 0.552 1.56 1.344h0.144q-0.024-0.312-0.096-0.912-0.048-0.624-0.048-0.984v-5.136h2.112v18.240002h-1.704l-0.312-1.728002h-0.096q-0.576 0.816002-1.536 1.392002t-2.472 0.576zm0.336-1.752002q2.04 0 2.856-1.104 0.84-1.128 0.84-3.384v-0.384q0-2.4-0.792-3.672-0.792-1.296-2.928-1.296-1.704 0-2.568 1.368-0.84 1.344-0.84 3.624 0 2.304 0.84 3.576 0.864 1.272 2.592 1.272z"/>
      <path d="m167.42316 88.537458h2.256l2.784 7.32q0.36 0.96 0.648 1.848 0.288 0.864 0.432 1.656h0.096q0.144-0.6 0.456-1.56 0.312-0.984 0.648-1.968l2.616-7.296h2.28l-5.544 14.640002q-0.672 1.824-1.752 2.904-1.056 1.08-2.928 1.08-0.576 0-1.008-0.072-0.432-0.048-0.744-0.12v-1.68q0.264 0.048 0.624 0.096 0.384 0.048 0.792 0.048 1.104 0 1.776-0.624 0.696-0.624 1.08-1.656l0.672-1.704z"/>
      <path d="m192.86312 94.945458q0 3.192-1.632 4.944-1.608 1.752002-4.368 1.752002-1.704 0-3.048-0.768-1.32-0.792-2.088-2.280002-0.768-1.512-0.768-3.648 0-3.192 1.608-4.92t4.368-1.728q1.752 0 3.072 0.792 1.344 0.768 2.088 2.256 0.768 1.464 0.768 3.6zm-9.72 0q0 2.28 0.888 3.624 0.912 1.32 2.88 1.32 1.944 0 2.856-1.32 0.912-1.344 0.912-3.624t-0.912-3.576-2.88-1.296-2.856 1.296-0.888 3.576z"/>
      <path d="m206.95111 88.537458v12.864002h-1.728l-0.312-1.704002h-0.096q-0.624 1.008002-1.728 1.488002-1.104 0.456-2.352 0.456-2.328 0-3.504-1.104-1.176-1.128002-1.176-3.576002v-8.424h2.136v8.28q0 3.072 2.856 3.072 2.136 0 2.952-1.2 0.84-1.2 0.84-3.456v-6.696z"/>
      <path d="m219.38303 101.40146h-2.112v-18.240002h2.112z"/>
      <path d="m224.54301 83.713458q0.48 0 0.84 0.336 0.384 0.312 0.384 1.008 0 0.672-0.384 1.008-0.36 0.336-0.84 0.336-0.528 0-0.888-0.336t-0.36-1.008q0-0.696 0.36-1.008 0.36-0.336 0.888-0.336zm1.032 4.824v12.864002h-2.112v-12.864002z"/>
      <path d="m231.743 92.689458q0 0.384-0.048 1.008-0.024 0.624-0.048 1.08h0.096q0.144-0.192 0.432-0.552t0.576-0.72q0.312-0.384 0.528-0.624l4.104-4.344h2.472l-5.208 5.496 5.568 7.368002h-2.544l-4.464-6.000002-1.464 1.272v4.728002h-2.088v-18.240002h2.088z"/>
      <path d="m247.43896 88.297458q1.656 0 2.832 0.72 1.2 0.72 1.824 2.04 0.648 1.296 0.648 3.048v1.272h-8.808q0.048 2.184 1.104 3.336 1.08 1.128 3 1.128 1.224 0 2.16-0.216 0.96-0.24 1.968-0.672v1.848002q-0.984 0.432-1.944 0.624-0.96 0.216-2.28 0.216-1.824 0-3.24-0.744-1.392-0.744-2.184-2.208002-0.768-1.488-0.768-3.624 0-2.112 0.696-3.624 0.72-1.512 1.992-2.328 1.296-0.816 3-0.816zm-0.024 1.728q-1.512 0-2.4 0.984-0.864 0.96-1.032 2.688h6.552q-0.024-1.632-0.768-2.64-0.744-1.032-2.352-1.032z"/>
      <path d="m266.5429 99.913458q0.48 0 0.984-0.072 0.504-0.096 0.816-0.192v1.608002q-0.336 0.168-0.96 0.264-0.624 0.12-1.2 0.12-1.008 0-1.872-0.336-0.84-0.36-1.368-1.224-0.528-0.864002-0.528-2.424002v-7.488h-1.824v-1.008l1.848-0.84 0.84-2.736h1.248v2.952h3.72v1.632h-3.72v7.44q0 1.176 0.552 1.752 0.576 0.552 1.464 0.552z"/>
      <path d="m282.09486 94.945458q0 3.192-1.632 4.944-1.608 1.752002-4.368 1.752002-1.704 0-3.048-0.768-1.32-0.792-2.088-2.280002-0.768-1.512-0.768-3.648 0-3.192 1.608-4.92t4.368-1.728q1.752 0 3.072 0.792 1.344 0.768 2.088 2.256 0.768 1.464 0.768 3.6zm-9.72 0q0 2.28 0.888 3.624 0.912 1.32 2.88 1.32 1.944 0 2.856-1.32 0.912-1.344 0.912-3.624t-0.912-3.576-2.88-1.296-2.856 1.296-0.888 3.576z"/>
      <path d="m296.83081 101.64146q-1.704 0-3.048-0.696-1.32-0.696-2.088-2.160002-0.744-1.464-0.744-3.744 0-2.376 0.792-3.864t2.136-2.184q1.368-0.696 3.096-0.696 0.984 0 1.896 0.216 0.912 0.192 1.488 0.48l-0.648 1.752q-0.576-0.216-1.344-0.408t-1.44-0.192q-3.792 0-3.792 4.872 0 2.328 0.912 3.576 0.936 1.224 2.76 1.224 1.056 0 1.848-0.216 0.816-0.216 1.488-0.528v1.872002q-0.648 0.336-1.44 0.504-0.768 0.192-1.872 0.192z"/>
      <path d="m314.37479 94.945458q0 3.192-1.632 4.944-1.608 1.752002-4.368 1.752002-1.704 0-3.048-0.768-1.32-0.792-2.088-2.280002-0.768-1.512-0.768-3.648 0-3.192 1.608-4.92t4.368-1.728q1.752 0 3.072 0.792 1.344 0.768 2.088 2.256 0.768 1.464 0.768 3.6zm-9.72 0q0 2.28 0.888 3.624 0.912 1.32 2.88 1.32 1.944 0 2.856-1.32 0.912-1.344 0.912-3.624t-0.912-3.576-2.88-1.296-2.856 1.296-0.888 3.576z"/>
      <path d="m323.90278 88.297458q2.304 0 3.48 1.128 1.176 1.104 1.176 3.6v8.376002h-2.088v-8.232002q0-3.096-2.88-3.096-2.136 0-2.952 1.2t-0.816 3.456v6.672002h-2.112v-12.864002h1.704l0.312 1.752h0.12q0.624-1.008 1.728-1.488 1.104-0.504 2.328-0.504z"/>
      <path d="m338.73474 88.297458q2.304 0 3.48 1.128 1.176 1.104 1.176 3.6v8.376002h-2.088v-8.232002q0-3.096-2.88-3.096-2.136 0-2.952 1.2t-0.816 3.456v6.672002h-2.112v-12.864002h1.704l0.312 1.752h0.12q0.624-1.008 1.728-1.488 1.104-0.504 2.328-0.504z"/>
      <path d="m352.34269 88.297458q1.656 0 2.832 0.72 1.2 0.72 1.824 2.04 0.648 1.296 0.648 3.048v1.272h-8.808q0.048 2.184 1.104 3.336 1.08 1.128 3 1.128 1.224 0 2.16-0.216 0.96-0.24 1.968-0.672v1.848002q-0.984 0.432-1.944 0.624-0.96 0.216-2.28 0.216-1.824 0-3.24-0.744-1.392-0.744-2.184-2.208002-0.768-1.488-0.768-3.624 0-2.112 0.696-3.624 0.72-1.512 1.992-2.328 1.296-0.816 3-0.816zm-0.024 1.728q-1.512 0-2.4 0.984-0.864 0.96-1.032 2.688h6.552q-0.024-1.632-0.768-2.64-0.744-1.032-2.352-1.032z"/>
      <path d="m366.07067 101.64146q-1.704 0-3.048-0.696-1.32-0.696-2.088-2.160002-0.744-1.464-0.744-3.744 0-2.376 0.792-3.864t2.136-2.184q1.368-0.696 3.096-0.696 0.984 0 1.896 0.216 0.912 0.192 1.488 0.48l-0.648 1.752q-0.576-0.216-1.344-0.408t-1.44-0.192q-3.792 0-3.792 4.872 0 2.328 0.912 3.576 0.936 1.224 2.76 1.224 1.056 0 1.848-0.216 0.816-0.216 1.488-0.528v1.872002q-0.648 0.336-1.44 0.504-0.768 0.192-1.872 0.192z"/>
      <path d="m376.72666 99.913458q0.48 0 0.984-0.072 0.504-0.096 0.816-0.192v1.608002q-0.336 0.168-0.96 0.264-0.624 0.12-1.2 0.12-1.008 0-1.872-0.336-0.84-0.36-1.368-1.224-0.528-0.864002-0.528-2.424002v-7.488h-1.824v-1.008l1.848-0.84 0.84-2.736h1.248v2.952h3.72v1.632h-3.72v7.44q0 1.176 0.552 1.752 0.576 0.552 1.464 0.552z"/>
      <path d="m391.63056 99.913458q0.48 0 0.984-0.072 0.504-0.096 0.816-0.192v1.608002q-0.336 0.168-0.96 0.264-0.624 0.12-1.2 0.12-1.008 0-1.872-0.336-0.84-0.36-1.368-1.224-0.528-0.864002-0.528-2.424002v-7.488h-1.824v-1.008l1.848-0.84 0.84-2.736h1.248v2.952h3.72v1.632h-3.72v7.44q0 1.176 0.552 1.752 0.576 0.552 1.464 0.552z"/>
      <path d="m398.11053 88.513458q0 0.96-0.12 1.8h0.144q0.624-0.984 1.68-1.488 1.08-0.504 2.328-0.504 2.352 0 3.528 1.128 1.176 1.104 1.176 3.576v8.376002h-2.088v-8.232002q0-3.096-2.88-3.096-2.16 0-2.976 1.224-0.792 1.2-0.792 3.456v6.648002h-2.112v-18.240002h2.112z"/>
      <path d="m415.79847 88.297458q1.656 0 2.832 0.72 1.2 0.72 1.824 2.04 0.648 1.296 0.648 3.048v1.272h-8.808q0.048 2.184 1.104 3.336 1.08 1.128 3 1.128 1.224 0 2.16-0.216 0.96-0.24 1.968-0.672v1.848002q-0.984 0.432-1.944 0.624-0.96 0.216-2.28 0.216-1.824 0-3.24-0.744-1.392-0.744-2.184-2.208002-0.768-1.488-0.768-3.624 0-2.112 0.696-3.624 0.72-1.512 1.992-2.328 1.296-0.816 3-0.816zm-0.024 1.728q-1.512 0-2.4 0.984-0.864 0.96-1.032 2.688h6.552q-0.024-1.632-0.768-2.64-0.744-1.032-2.352-1.032z"/>
      <path d="m44.003352 131.64146q-1.704 0-3.048-0.696-1.32-0.696-2.088-2.16-0.744-1.464-0.744-3.744 0-2.376 0.792-3.864t2.136-2.184q1.368-0.696 3.096-0.696 0.984 0 1.896 0.216 0.912 0.192 1.488 0.48l-0.648 1.752q-0.576-0.216-1.344-0.408t-1.44-0.192q-3.792 0-3.792 4.872 0 2.328 0.912 3.576 0.936 1.224 2.76 1.224 1.056 0 1.848-0.216 0.816-0.216 1.488-0.528v1.872q-0.648 0.336-1.44 0.504-0.768 0.192-1.872 0.192z"/>
      <path d="m61.547341 124.94546q0 3.192-1.632 4.944-1.608 1.752-4.368 1.752-1.704 0-3.048-0.768-1.32-0.792-2.088-2.28-0.768-1.512-0.768-3.648 0-3.192 1.608-4.92t4.368-1.728q1.752 0 3.072 0.792 1.344 0.768 2.088 2.256 0.768 1.464 0.768 3.6zm-9.72 0q0 2.28 0.888 3.624 0.912 1.32 2.88 1.32 1.944 0 2.856-1.32 0.912-1.344 0.912-3.624t-0.912-3.576-2.88-1.296-2.856 1.296-0.888 3.576z"/>
      <path d="m78.99533 118.29746q2.184 0 3.264 1.128 1.08 1.104 1.08 3.6v8.376h-2.088v-8.28q0-3.048-2.616-3.048-1.872 0-2.688 1.08-0.792 1.08-0.792 3.144v7.104h-2.088v-8.28q0-3.048-2.64-3.048-1.944 0-2.688 1.2t-0.744 3.456v6.672h-2.112v-12.864h1.704l0.312 1.752h0.12q0.6-1.008 1.608-1.488 1.032-0.504 2.184-0.504 3.024 0 3.936 2.16h0.12q0.648-1.104 1.752-1.632 1.128-0.528 2.376-0.528z"/>
      <path d="m93.443318 118.29746q2.376 0 3.816 1.656 1.464 1.656 1.464 4.992 0 3.288-1.464 4.992-1.44 1.704-3.84 1.704-1.488 0-2.472-0.552-0.96-0.576-1.512-1.32h-0.144q0.048 0.408 0.096 1.032t0.048 1.08v5.28h-2.112v-18.624h1.728l0.288 1.752h0.096q0.576-0.84 1.512-1.416t2.496-0.576zm-0.384 1.776q-1.968 0-2.784 1.104-0.792 1.104-0.84 3.36v0.408q0 2.376 0.768 3.672 0.792 1.272 2.904 1.272 1.176 0 1.92-0.648 0.768-0.648 1.128-1.752 0.384-1.128 0.384-2.568 0-2.208-0.864-3.528-0.84-1.32-2.616-1.32z"/>
      <path d="m112.83531 118.53746v12.864h-1.728l-0.312-1.704h-0.096q-0.624 1.008-1.728 1.488-1.104 0.456-2.352 0.456-2.328 0-3.504-1.104-1.176-1.128-1.176-3.576v-8.424h2.136v8.28q0 3.072 2.856 3.072 2.136 0 2.952-1.2 0.84-1.2 0.84-3.456v-6.696z"/>
      <path d="m121.21127 129.91346q0.48 0 0.984-0.072 0.504-0.096 0.816-0.192v1.608q-0.336 0.168-0.96 0.264-0.624 0.12-1.2 0.12-1.008 0-1.872-0.336-0.84-0.36-1.368-1.224t-0.528-2.424v-7.488h-1.824v-1.008l1.848-0.84 0.84-2.736h1.248v2.952h3.72v1.632h-3.72v7.44q0 1.176 0.552 1.752 0.576 0.552 1.464 0.552z"/>
      <path d="m130.54722 118.29746q1.656 0 2.832 0.72 1.2 0.72 1.824 2.04 0.648 1.296 0.648 3.048v1.272h-8.808q0.048 2.184 1.104 3.336 1.08 1.128 3 1.128 1.224 0 2.16-0.216 0.96-0.24 1.968-0.672v1.848q-0.984 0.432-1.944 0.624-0.96 0.216-2.28 0.216-1.824 0-3.24-0.744-1.392-0.744-2.184-2.208-0.768-1.488-0.768-3.624 0-2.112 0.696-3.624 0.72-1.512 1.992-2.328 1.296-0.816 3-0.816zm-0.024 1.728q-1.512 0-2.4 0.984-0.864 0.96-1.032 2.688h6.552q-0.024-1.632-0.768-2.64-0.744-1.032-2.352-1.032z"/>
      <path d="m145.1152 118.29746q0.36 0 0.768 0.048 0.432 0.024 0.744 0.096l-0.264 1.944q-0.312-0.072-0.696-0.12-0.36-0.048-0.696-0.048-0.984 0-1.848 0.552-0.864 0.528-1.392 1.512-0.504 0.96-0.504 2.256v6.864h-2.112v-12.864h1.728l0.24 2.352h0.096q0.624-1.056 1.608-1.824t2.328-0.768z"/>
      <path d="m157.35512 122.68946q0 0.384-0.048 1.008-0.024 0.624-0.048 1.08h0.096q0.144-0.192 0.432-0.552t0.576-0.72q0.312-0.384 0.528-0.624l4.104-4.344h2.472l-5.208 5.496 5.568 7.368h-2.544l-4.464-6-1.464 1.272v4.728h-2.088v-18.24h2.088z"/>
      <path d="m174.01108 120.16946h-3.24v11.232h-2.112v-11.232h-2.256v-0.984l2.256-0.72v-0.744q0-2.496 1.104-3.576 1.104-1.104 3.072-1.104 0.768 0 1.392 0.144 0.648 0.12 1.104 0.288l-0.552 1.656q-0.384-0.12-0.888-0.24t-1.032-0.12q-1.056 0-1.584 0.72-0.504 0.696-0.504 2.208v0.84h3.24z"/>
      <path d="m187.52308 124.94546q0 3.192-1.632 4.944-1.608 1.752-4.368 1.752-1.704 0-3.048-0.768-1.32-0.792-2.088-2.28-0.768-1.512-0.768-3.648 0-3.192 1.608-4.92t4.368-1.728q1.752 0 3.072 0.792 1.344 0.768 2.088 2.256 0.768 1.464 0.768 3.6zm-9.72 0q0 2.28 0.888 3.624 0.912 1.32 2.88 1.32 1.944 0 2.856-1.32 0.912-1.344 0.912-3.624t-0.912-3.576-2.88-1.296-2.856 1.296-0.888 3.576z"/>
      <path d="m196.01907 131.64146q-1.704 0-3.048-0.696-1.32-0.696-2.088-2.16-0.744-1.464-0.744-3.744 0-2.376 0.792-3.864t2.136-2.184q1.368-0.696 3.096-0.696 0.984 0 1.896 0.216 0.912 0.192 1.488 0.48l-0.648 1.752q-0.576-0.216-1.344-0.408t-1.44-0.192q-3.792 0-3.792 4.872 0 2.328 0.912 3.576 0.936 1.224 2.76 1.224 1.056 0 1.848-0.216 0.816-0.216 1.488-0.528v1.872q-0.648 0.336-1.44 0.504-0.768 0.192-1.872 0.192z"/>
      <path d="m213.13106 118.53746v12.864h-1.728l-0.312-1.704h-0.096q-0.624 1.008-1.728 1.488-1.104 0.456-2.352 0.456-2.328 0-3.504-1.104-1.176-1.128-1.176-3.576v-8.424h2.136v8.28q0 3.072 2.856 3.072 2.136 0 2.952-1.2 0.84-1.2 0.84-3.456v-6.696z"/>
      <path d="m225.58701 127.84946q0 1.872-1.392 2.832t-3.744 0.96q-1.344 0-2.328-0.216-0.96-0.216-1.704-0.6v-1.92q0.768 0.384 1.848 0.72 1.104 0.312 2.232 0.312 1.608 0 2.328-0.504 0.72-0.528 0.72-1.392 0-0.48-0.264-0.864t-0.96-0.768q-0.672-0.384-1.944-0.864-1.248-0.48-2.136-0.96t-1.368-1.152-0.48-1.728q0-1.632 1.32-2.52 1.344-0.888 3.504-0.888 1.176 0 2.184 0.24 1.032 0.216 1.92 0.624l-0.72 1.68q-0.816-0.336-1.704-0.576t-1.824-0.24q-1.296 0-1.992 0.432-0.672 0.408-0.672 1.128 0 0.528 0.312 0.912 0.312 0.36 1.032 0.72 0.744 0.336 1.968 0.816 1.224 0.456 2.088 0.936t1.32 1.176q0.456 0.672 0.456 1.704z"/>
      <path d="m227.62697 125.90546v-1.872h5.808v1.872z"/>
      <path d="m236.26694 115.05746q0-0.696 0.36-1.008 0.36-0.336 0.888-0.336 0.48 0 0.84 0.336 0.384 0.312 0.384 1.008 0 0.672-0.384 1.008-0.36 0.336-0.84 0.336-0.528 0-0.888-0.336t-0.36-1.008zm-1.344 22.104q-0.6 0-1.056-0.096-0.456-0.072-0.792-0.192v-1.704q0.36 0.096 0.744 0.168t0.84 0.072q0.768 0 1.272-0.432 0.504-0.408 0.504-1.584v-14.856h2.112v14.784q0 1.8-0.864 2.808-0.864 1.032-2.76 1.032z"/>
      <path d="m247.18692 131.64146q-2.4 0-3.84-1.656-1.44-1.68-1.44-4.992t1.44-4.992q1.464-1.704 3.864-1.704 1.488 0 2.424 0.552 0.96 0.552 1.56 1.344h0.144q-0.024-0.312-0.096-0.912-0.048-0.624-0.048-0.984v-5.136h2.112v18.24h-1.704l-0.312-1.728h-0.096q-0.576 0.816-1.536 1.392t-2.472 0.576zm0.336-1.752q2.04 0 2.856-1.104 0.84-1.128 0.84-3.384v-0.384q0-2.4-0.792-3.672-0.792-1.296-2.928-1.296-1.704 0-2.568 1.368-0.84 1.344-0.84 3.624 0 2.304 0.84 3.576 0.864 1.272 2.592 1.272z"/>
      <path d="m268.57092 124.94546q0 3.192-1.632 4.944-1.608 1.752-4.368 1.752-1.704 0-3.048-0.768-1.32-0.792-2.088-2.28-0.768-1.512-0.768-3.648 0-3.192 1.608-4.92t4.368-1.728q1.752 0 3.072 0.792 1.344 0.768 2.088 2.256 0.768 1.464 0.768 3.6zm-9.72 0q0 2.28 0.888 3.624 0.912 1.32 2.88 1.32 1.944 0 2.856-1.32 0.912-1.344 0.912-3.624t-0.912-3.576-2.88-1.296-2.856 1.296-0.888 3.576z"/>
      <path d="m276.87491 118.29746q1.656 0 2.832 0.72 1.2 0.72 1.824 2.04 0.648 1.296 0.648 3.048v1.272h-8.808q0.048 2.184 1.104 3.336 1.08 1.128 3 1.128 1.224 0 2.16-0.216 0.96-0.24 1.968-0.672v1.848q-0.984 0.432-1.944 0.624-0.96 0.216-2.28 0.216-1.824 0-3.24-0.744-1.392-0.744-2.184-2.208-0.768-1.488-0.768-3.624 0-2.112 0.696-3.624 0.72-1.512 1.992-2.328 1.296-0.816 3-0.816zm-0.024 1.728q-1.512 0-2.4 0.984-0.864 0.96-1.032 2.688h6.552q-0.024-1.632-0.768-2.64-0.744-1.032-2.352-1.032z"/>
      <path d="m295.97885 129.91346q0.48 0 0.984-0.072 0.504-0.096 0.816-0.192v1.608q-0.336 0.168-0.96 0.264-0.624 0.12-1.2 0.12-1.008 0-1.872-0.336-0.84-0.36-1.368-1.224t-0.528-2.424v-7.488h-1.824v-1.008l1.848-0.84 0.84-2.736h1.248v2.952h3.72v1.632h-3.72v7.44q0 1.176 0.552 1.752 0.576 0.552 1.464 0.552z"/>
      <path d="m311.5308 124.94546q0 3.192-1.632 4.944-1.608 1.752-4.368 1.752-1.704 0-3.048-0.768-1.32-0.792-2.088-2.28-0.768-1.512-0.768-3.648 0-3.192 1.608-4.92t4.368-1.728q1.752 0 3.072 0.792 1.344 0.768 2.088 2.256 0.768 1.464 0.768 3.6zm-9.72 0q0 2.28 0.888 3.624 0.912 1.32 2.88 1.32 1.944 0 2.856-1.32 0.912-1.344 0.912-3.624t-0.912-3.576-2.88-1.296-2.856 1.296-0.888 3.576z"/>
      <path d="m319.09075 118.53746h2.256l2.784 7.32q0.36 0.96 0.648 1.848 0.288 0.864 0.432 1.656h0.096q0.144-0.6 0.456-1.56 0.312-0.984 0.648-1.968l2.616-7.296h2.28l-5.544 14.64q-0.672 1.824-1.752 2.904-1.056 1.08-2.928 1.08-0.576 0-1.008-0.072-0.432-0.048-0.744-0.12v-1.68q0.264 0.048 0.624 0.096 0.384 0.048 0.792 0.048 1.104 0 1.776-0.624 0.696-0.624 1.08-1.656l0.672-1.704z"/>
      <path d="m344.53071 124.94546q0 3.192-1.632 4.944-1.608 1.752-4.368 1.752-1.704 0-3.048-0.768-1.32-0.792-2.088-2.28-0.768-1.512-0.768-3.648 0-3.192 1.608-4.92t4.368-1.728q1.752 0 3.072 0.792 1.344 0.768 2.088 2.256 0.768 1.464 0.768 3.6zm-9.72 0q0 2.28 0.888 3.624 0.912 1.32 2.88 1.32 1.944 0 2.856-1.32 0.912-1.344 0.912-3.624t-0.912-3.576-2.88-1.296-2.856 1.296-0.888 3.576z"/>
      <path d="m358.6187 118.53746v12.864h-1.728l-0.312-1.704h-0.096q-0.624 1.008-1.728 1.488-1.104 0.456-2.352 0.456-2.328 0-3.504-1.104-1.176-1.128-1.176-3.576v-8.424h2.136v8.28q0 3.072 2.856 3.072 2.136 0 2.952-1.2 0.84-1.2 0.84-3.456v-6.696z"/>
      <path d="m368.69864 118.29746q0.36 0 0.768 0.048 0.432 0.024 0.744 0.096l-0.264 1.944q-0.312-0.072-0.696-0.12-0.36-0.048-0.696-0.048-0.984 0-1.848 0.552-0.864 0.528-1.392 1.512-0.504 0.96-0.504 2.256v6.864h-2.112v-12.864h1.728l0.24 2.352h0.096q0.624-1.056 1.608-1.824t2.328-0.768z"/>
      <path d="m392.86655 122.66546q0 4.344-2.376 6.552-2.352 2.184-6.576 2.184h-4.776v-17.136h5.28q2.592 0 4.488 0.96t2.928 2.832q1.032 1.848 1.032 4.608zm-2.28 0.072q0-3.432-1.704-5.016-1.68-1.608-4.776-1.608h-2.808v13.44h2.328q6.96 0 6.96-6.816z"/>
      <path d="m402.37057 118.29746q0.36 0 0.768 0.048 0.432 0.024 0.744 0.096l-0.264 1.944q-0.312-0.072-0.696-0.12-0.36-0.048-0.696-0.048-0.984 0-1.848 0.552-0.864 0.528-1.392 1.512-0.504 0.96-0.504 2.256v6.864h-2.112v-12.864h1.728l0.24 2.352h0.096q0.624-1.056 1.608-1.824t2.328-0.768z"/>
      <path d="m416.98652 124.94546q0 3.192-1.632 4.944-1.608 1.752-4.368 1.752-1.704 0-3.048-0.768-1.32-0.792-2.088-2.28-0.768-1.512-0.768-3.648 0-3.192 1.608-4.92t4.368-1.728q1.752 0 3.072 0.792 1.344 0.768 2.088 2.256 0.768 1.464 0.768 3.6zm-9.72 0q0 2.28 0.888 3.624 0.912 1.32 2.88 1.32 1.944 0 2.856-1.32 0.912-1.344 0.912-3.624t-0.912-3.576-2.88-1.296-2.856 1.296-0.888 3.576z"/>
      <path d="m426.44248 118.29746q2.376 0 3.816 1.656 1.464 1.656 1.464 4.992 0 3.288-1.464 4.992-1.44 1.704-3.84 1.704-1.488 0-2.472-0.552-0.96-0.576-1.512-1.32h-0.144q0.048 0.408 0.096 1.032t0.048 1.08v5.28h-2.112v-18.624h1.728l0.288 1.752h0.096q0.576-0.84 1.512-1.416t2.496-0.576zm-0.384 1.776q-1.968 0-2.784 1.104-0.792 1.104-0.84 3.36v0.408q0 2.376 0.768 3.672 0.792 1.272 2.904 1.272 1.176 0 1.92-0.648 0.768-0.648 1.128-1.752 0.384-1.128 0.384-2.568 0-2.208-0.864-3.528-0.84-1.32-2.616-1.32z"/>
      <path d="m437.19449 117.60146q0 0.816-0.048 1.536-0.024 0.696-0.072 1.104h0.12q0.552-0.816 1.512-1.368t2.472-0.552q2.4 0 3.84 1.68 1.464 1.656 1.464 4.968t-1.464 4.992-3.84 1.68q-1.512 0-2.472-0.552t-1.512-1.32h-0.168l-0.432 1.632h-1.512v-18.24h2.112zm3.624 2.472q-2.04 0-2.832 1.176t-0.792 3.648v0.096q0 2.376 0.768 3.648 0.792 1.248 2.904 1.248 1.728 0 2.568-1.272 0.864-1.272 0.864-3.672 0-4.872-3.48-4.872z"/>
      <path d="m461.0265 124.94546q0 3.192-1.632 4.944-1.608 1.752-4.368 1.752-1.704 0-3.048-0.768-1.32-0.792-2.088-2.28-0.768-1.512-0.768-3.648 0-3.192 1.608-4.92t4.368-1.728q1.752 0 3.072 0.792 1.344 0.768 2.088 2.256 0.768 1.464 0.768 3.6zm-9.72 0q0 2.28 0.888 3.624 0.912 1.32 2.88 1.32 1.944 0 2.856-1.32 0.912-1.344 0.912-3.624t-0.912-3.576-2.88-1.296-2.856 1.296-0.888 3.576z"/>
      <path d="m466.93048 124.82546-4.44-6.288h2.4l3.312 4.848 3.288-4.848h2.376l-4.44 6.288 4.68 6.576h-2.4l-3.504-5.136-3.552 5.136h-2.376z"/>
      <path d="m47.087331 148.32146q2.352 0 3.48 1.032t1.128 3.288v8.76h-1.536l-0.408-1.824h-0.096q-0.84 1.056-1.776 1.56-0.912 0.504-2.544 0.504-1.752 0-2.904-0.912-1.152-0.936-1.152-2.904 0-1.92 1.512-2.952 1.512-1.056 4.656-1.152l2.184-0.072v-0.768q0-1.608-0.696-2.232t-1.968-0.624q-1.008 0-1.92 0.312-0.912 0.288-1.704 0.672l-0.648-1.584q0.84-0.456 1.992-0.768 1.152-0.336 2.4-0.336zm0.624 6.864q-2.4 0.096-3.336 0.768-0.912 0.672-0.912 1.896 0 1.08 0.648 1.584 0.672 0.504 1.704 0.504 1.632 0 2.712-0.888 1.08-0.912 1.08-2.784v-1.152z"/>
      <path d="m60.839305 161.64146q-1.704 0-3.048-0.696-1.32-0.696-2.088-2.16-0.744-1.464-0.744-3.744 0-2.376 0.792-3.864t2.136-2.184q1.368-0.696 3.096-0.696 0.984 0 1.896 0.216 0.912 0.192 1.488 0.48l-0.648 1.752q-0.576-0.216-1.344-0.408t-1.44-0.192q-3.792 0-3.792 4.872 0 2.328 0.912 3.576 0.936 1.224 2.76 1.224 1.056 0 1.848-0.216 0.816-0.216 1.488-0.528v1.872q-0.648 0.336-1.44 0.504-0.768 0.192-1.872 0.192z"/>
      <path d="m72.359294 161.64146q-1.704 0-3.048-0.696-1.32-0.696-2.088-2.16-0.744-1.464-0.744-3.744 0-2.376 0.792-3.864t2.136-2.184q1.368-0.696 3.096-0.696 0.984 0 1.896 0.216 0.912 0.192 1.488 0.48l-0.648 1.752q-0.576-0.216-1.344-0.408t-1.44-0.192q-3.792 0-3.792 4.872 0 2.328 0.912 3.576 0.936 1.224 2.76 1.224 1.056 0 1.848-0.216 0.816-0.216 1.488-0.528v1.872q-0.648 0.336-1.44 0.504-0.768 0.192-1.872 0.192z"/>
      <path d="m89.903283 154.94546q0 3.192-1.632 4.944-1.608 1.752-4.368 1.752-1.704 0-3.048-0.768-1.32-0.792-2.088-2.28-0.768-1.512-0.768-3.648 0-3.192 1.608-4.92t4.368-1.728q1.752 0 3.072 0.792 1.344 0.768 2.088 2.256 0.768 1.464 0.768 3.6zm-9.72 0q0 2.28 0.888 3.624 0.912 1.32 2.88 1.32 1.944 0 2.856-1.32 0.912-1.344 0.912-3.624t-0.912-3.576-2.88-1.296-2.856 1.296-0.888 3.576z"/>
      <path d="m103.99127 148.53746v12.864h-1.728l-0.312-1.704h-0.096q-0.624 1.008-1.728 1.488-1.103998 0.456-2.351998 0.456-2.328 0-3.504-1.104-1.176-1.128-1.176-3.576v-8.424h2.136v8.28q0 3.072 2.856 3.072 2.135998 0 2.951998-1.2 0.84-1.2 0.84-3.456v-6.696z"/>
      <path d="m114.26323 148.29746q2.304 0 3.48 1.128 1.176 1.104 1.176 3.6v8.376h-2.088v-8.232q0-3.096-2.88-3.096-2.136 0-2.952 1.2t-0.816 3.456v6.672h-2.112v-12.864h1.704l0.312 1.752h0.12q0.624-1.008 1.728-1.488 1.104-0.504 2.328-0.504z"/>
      <path d="m127.19918 159.91346q0.48 0 0.984-0.072 0.504-0.096 0.816-0.192v1.608q-0.336 0.168-0.96 0.264-0.624 0.12-1.2 0.12-1.008 0-1.872-0.336-0.84-0.36-1.368-1.224t-0.528-2.424v-7.488h-1.824v-1.008l1.848-0.84 0.84-2.736h1.248v2.952h3.72v1.632h-3.72v7.44q0 1.176 0.552 1.752 0.576 0.552 1.464 0.552z"/>
      <path d="m136.7271 154.82546q0-2.928 0.84-5.64 0.864-2.736 2.688-4.92h1.992q-1.68 2.256-2.544 4.968-0.84 2.712-0.84 5.568 0 2.784 0.84 5.472 0.864 2.664 2.52 4.92h-1.968q-1.824-2.112-2.688-4.776-0.84-2.688-0.84-5.592z"/>
      <path d="m145.79906 145.05746q0-0.696 0.36-1.008 0.36-0.336 0.888-0.336 0.48 0 0.84 0.336 0.384 0.312 0.384 1.008 0 0.672-0.384 1.008-0.36 0.336-0.84 0.336-0.528 0-0.888-0.336t-0.36-1.008zm-1.344 22.104q-0.6 0-1.056-0.096-0.456-0.072-0.792-0.192v-1.704q0.36 0.096 0.744 0.168t0.84 0.072q0.768 0 1.272-0.432 0.504-0.408 0.504-1.584v-14.856h2.112v14.784q0 1.8-0.864 2.808-0.864 1.032-2.76 1.032z"/>
      <path d="m163.34304 154.94546q0 3.192-1.632 4.944-1.608 1.752-4.368 1.752-1.704 0-3.048-0.768-1.32-0.792-2.088-2.28-0.768-1.512-0.768-3.648 0-3.192 1.608-4.92t4.368-1.728q1.752 0 3.072 0.792 1.344 0.768 2.088 2.256 0.768 1.464 0.768 3.6zm-9.72 0q0 2.28 0.888 3.624 0.912 1.32 2.88 1.32 1.944 0 2.856-1.32 0.912-1.344 0.912-3.624t-0.912-3.576-2.88-1.296-2.856 1.296-0.888 3.576z"/>
      <path d="m168.79103 148.51346q0 0.96-0.12 1.8h0.144q0.624-0.984 1.68-1.488 1.08-0.504 2.328-0.504 2.352 0 3.528 1.128 1.176 1.104 1.176 3.576v8.376h-2.088v-8.232q0-3.096-2.88-3.096-2.16 0-2.976 1.224-0.792 1.2-0.792 3.456v6.648h-2.112v-18.24h2.112z"/>
      <path d="m187.70299 148.29746q2.304 0 3.48 1.128 1.176 1.104 1.176 3.6v8.376h-2.088v-8.232q0-3.096-2.88-3.096-2.136 0-2.952 1.2t-0.816 3.456v6.672h-2.112v-12.864h1.704l0.312 1.752h0.12q0.624-1.008 1.728-1.488 1.104-0.504 2.328-0.504z"/>
      <path d="m196.03094 160.10546q0-0.888 0.432-1.248t1.032-0.36q0.624 0 1.056 0.36 0.456 0.36 0.456 1.248 0 0.864-0.456 1.248-0.432 0.384-1.056 0.384-0.6 0-1.032-0.384t-0.432-1.248z"/>
      <path d="m207.33493 161.64146q-2.4 0-3.84-1.656-1.44-1.68-1.44-4.992t1.44-4.992q1.464-1.704 3.864-1.704 1.488 0 2.424 0.552 0.96 0.552 1.56 1.344h0.144q-0.024-0.312-0.096-0.912-0.048-0.624-0.048-0.984v-5.136h2.112v18.24h-1.704l-0.312-1.728h-0.096q-0.576 0.816-1.536 1.392t-2.472 0.576zm0.336-1.752q2.04 0 2.856-1.104 0.84-1.128 0.84-3.384v-0.384q0-2.4-0.792-3.672-0.792-1.296-2.928-1.296-1.704 0-2.568 1.368-0.84 1.344-0.84 3.624 0 2.304 0.84 3.576 0.864 1.272 2.592 1.272z"/>
      <path d="m228.71893 154.94546q0 3.192-1.632 4.944-1.608 1.752-4.368 1.752-1.704 0-3.048-0.768-1.32-0.792-2.088-2.28-0.768-1.512-0.768-3.648 0-3.192 1.608-4.92t4.368-1.728q1.752 0 3.072 0.792 1.344 0.768 2.088 2.256 0.768 1.464 0.768 3.6zm-9.72 0q0 2.28 0.888 3.624 0.912 1.32 2.88 1.32 1.944 0 2.856-1.32 0.912-1.344 0.912-3.624t-0.912-3.576-2.88-1.296-2.856 1.296-0.888 3.576z"/>
      <path d="m237.02292 148.29746q1.656 0 2.832 0.72 1.2 0.72 1.824 2.04 0.648 1.296 0.648 3.048v1.272h-8.808q0.048 2.184 1.104 3.336 1.08 1.128 3 1.128 1.224 0 2.16-0.216 0.96-0.24 1.968-0.672v1.848q-0.984 0.432-1.944 0.624-0.96 0.216-2.28 0.216-1.824 0-3.24-0.744-1.392-0.744-2.184-2.208-0.768-1.488-0.768-3.624 0-2.112 0.696-3.624 0.72-1.512 1.992-2.328 1.296-0.816 3-0.816zm-0.024 1.728q-1.512 0-2.4 0.984-0.864 0.96-1.032 2.688h6.552q-0.024-1.632-0.768-2.64-0.744-1.032-2.352-1.032z"/>
      <path d="m263.7349 152.83346q0 1.104-0.264 2.16-0.24 1.056-0.768 1.92-0.528 0.84-1.296 1.368-0.768 0.504-1.824 0.504-1.104 0-1.752-0.624-0.624-0.648-0.768-1.464h-0.12q-0.432 0.888-1.272 1.488t-2.112 0.6q-1.824 0-2.832-1.224-0.984-1.224-0.984-3.24 0-1.584 0.624-2.784 0.624-1.224 1.752-1.92 1.152-0.696 2.712-0.696 1.056 0 2.064 0.192 1.032 0.168 1.608 0.384l-0.24 4.872q-0.024 0.432-0.024 0.624 0 0.168 0 0.24 0 1.248 0.432 1.656 0.456 0.408 1.056 0.408 0.744 0 1.248-0.6 0.528-0.624 0.792-1.632 0.288-1.032 0.288-2.256 0-2.232-0.912-3.768-0.888-1.56-2.472-2.376-1.56-0.816-3.552-0.816-2.736 0-4.632 1.128-1.872 1.128-2.856 3.12-0.96 1.968-0.96 4.512 0 3.552 1.872 5.448t5.4 1.896q1.464 0 2.784-0.336 1.344-0.312 2.376-0.696v1.632q-1.032 0.432-2.328 0.696-1.272 0.288-2.832 0.288-2.832 0-4.848-1.056t-3.096-3.024q-1.056-1.992-1.056-4.776 0-2.232 0.696-4.128 0.696-1.92 2.016-3.312 1.32-1.416 3.192-2.184 1.896-0.792 4.272-0.792 2.496 0 4.44 1.032t3.048 2.952q1.128 1.92 1.128 4.584zm-12.12 1.536q0 1.536 0.6 2.232 0.624 0.696 1.656 0.696 1.344 0 1.92-1.008 0.6-1.008 0.696-2.616l0.144-3q-0.312-0.096-0.792-0.168t-0.984-0.072q-1.176 0-1.896 0.576t-1.032 1.488q-0.312 0.888-0.312 1.872z"/>
      <path d="m271.72685 148.29746q1.272 0 2.28 0.48 1.032 0.48 1.752 1.464h0.12l0.288-1.704h1.68v13.08q0 2.76-1.416 4.152-1.392 1.392-4.344 1.392-2.832 0-4.632-0.816v-1.944q1.896 1.008 4.752 1.008 1.656 0 2.592-0.984 0.96-0.96 0.96-2.64v-0.504q0-0.288 0.024-0.816 0.024-0.552 0.048-0.768h-0.096q-1.296 1.944-3.984 1.944-2.496 0-3.912-1.752-1.392-1.752-1.392-4.896 0-3.072 1.392-4.872 1.416-1.824 3.888-1.824zm0.288 1.776q-1.608 0-2.496 1.296-0.888 1.272-0.888 3.648t0.864 3.648q0.888 1.248 2.568 1.248 1.944 0 2.832-1.032 0.888-1.056 0.888-3.384v-0.504q0-2.64-0.912-3.768-0.912-1.152-2.856-1.152z"/>
      <path d="m296.03885 148.29746q2.184 0 3.264 1.128 1.08 1.104 1.08 3.6v8.376h-2.088v-8.28q0-3.048-2.616-3.048-1.872 0-2.688 1.08-0.792 1.08-0.792 3.144v7.104h-2.088v-8.28q0-3.048-2.64-3.048-1.944 0-2.688 1.2t-0.744 3.456v6.672h-2.112v-12.864h1.704l0.312 1.752h0.12q0.6-1.008 1.608-1.488 1.032-0.504 2.184-0.504 3.024 0 3.936 2.16h0.12q0.648-1.104 1.752-1.632 1.128-0.528 2.376-0.528z"/>
      <path d="m309.23882 148.32146q2.352 0 3.48 1.032t1.128 3.288v8.76h-1.536l-0.408-1.824h-0.096q-0.84 1.056-1.776 1.56-0.912 0.504-2.544 0.504-1.752 0-2.904-0.912-1.152-0.936-1.152-2.904 0-1.92 1.512-2.952 1.512-1.056 4.656-1.152l2.184-0.072v-0.768q0-1.608-0.696-2.232t-1.968-0.624q-1.008 0-1.92 0.312-0.912 0.288-1.704 0.672l-0.648-1.584q0.84-0.456 1.992-0.768 1.152-0.336 2.4-0.336zm0.624 6.864q-2.4 0.096-3.336 0.768-0.912 0.672-0.912 1.896 0 1.08 0.648 1.584 0.672 0.504 1.704 0.504 1.632 0 2.712-0.888 1.08-0.912 1.08-2.784v-1.152z"/>
      <path d="m318.91081 143.71346q0.48 0 0.84 0.336 0.384 0.312 0.384 1.008 0 0.672-0.384 1.008-0.36 0.336-0.84 0.336-0.528 0-0.888-0.336t-0.36-1.008q0-0.696 0.36-1.008 0.36-0.336 0.888-0.336zm1.032 4.824v12.864h-2.112v-12.864z"/>
      <path d="m326.1348 161.40146h-2.112v-18.24h2.112z"/>
      <path d="m329.90278 160.10546q0-0.888 0.432-1.248t1.032-0.36q0.624 0 1.056 0.36 0.456 0.36 0.456 1.248 0 0.864-0.456 1.248-0.432 0.384-1.056 0.384-0.6 0-1.032-0.384t-0.432-1.248z"/>
      <path d="m341.80679 161.64146q-1.704 0-3.048-0.696-1.32-0.696-2.088-2.16-0.744-1.464-0.744-3.744 0-2.376 0.792-3.864t2.136-2.184q1.368-0.696 3.096-0.696 0.984 0 1.896 0.216 0.912 0.192 1.488 0.48l-0.648 1.752q-0.576-0.216-1.344-0.408t-1.44-0.192q-3.792 0-3.792 4.872 0 2.328 0.912 3.576 0.936 1.224 2.76 1.224 1.056 0 1.848-0.216 0.816-0.216 1.488-0.528v1.872q-0.648 0.336-1.44 0.504-0.768 0.192-1.872 0.192z"/>
      <path d="m359.35075 154.94546q0 3.192-1.632 4.944-1.608 1.752-4.368 1.752-1.704 0-3.048-0.768-1.32-0.792-2.088-2.28-0.768-1.512-0.768-3.648 0-3.192 1.608-4.92t4.368-1.728q1.752 0 3.072 0.792 1.344 0.768 2.088 2.256 0.768 1.464 0.768 3.6zm-9.72 0q0 2.28 0.888 3.624 0.912 1.32 2.88 1.32 1.944 0 2.856-1.32 0.912-1.344 0.912-3.624t-0.912-3.576-2.88-1.296-2.856 1.296-0.888 3.576z"/>
      <path d="m376.79877 148.29746q2.184 0 3.264 1.128 1.08 1.104 1.08 3.6v8.376h-2.088v-8.28q0-3.048-2.616-3.048-1.872 0-2.688 1.08-0.792 1.08-0.792 3.144v7.104h-2.088v-8.28q0-3.048-2.64-3.048-1.944 0-2.688 1.2t-0.744 3.456v6.672h-2.112v-12.864h1.704l0.312 1.752h0.12q0.6-1.008 1.608-1.488 1.032-0.504 2.184-0.504 3.024 0 3.936 2.16h0.12q0.648-1.104 1.752-1.632 1.128-0.528 2.376-0.528z"/>
      <path d="m389.32674 154.82546q0 2.904-0.864 5.592-0.84 2.664-2.664 4.776h-1.968q1.656-2.256 2.496-4.92 0.864-2.688 0.864-5.472 0-2.856-0.864-5.568-0.84-2.712-2.52-4.968h1.992q1.824 2.184 2.664 4.92 0.864 2.712 0.864 5.64z"/>
      <path d="m393.64672 155.92946q0-0.912 0.168-1.56 0.192-0.672 0.624-1.272 0.456-0.6 1.224-1.248 0.936-0.792 1.44-1.32 0.528-0.528 0.744-1.032t0.216-1.224q0-1.152-0.744-1.776t-2.16-0.624q-1.176 0-2.088 0.312-0.912 0.288-1.752 0.696l-0.744-1.68q0.96-0.504 2.112-0.84 1.176-0.336 2.616-0.336 2.28 0 3.528 1.128t1.248 3.072q0 1.08-0.36 1.848-0.336 0.744-0.984 1.392-0.624 0.624-1.488 1.344-0.792 0.672-1.224 1.176-0.408 0.504-0.552 1.008-0.144 0.48-0.144 1.176v0.408h-1.68zm-0.552 4.176q0-0.888 0.408-1.248 0.432-0.36 1.08-0.36 0.6 0 1.032 0.36t0.432 1.248q0 0.864-0.432 1.248t-1.032 0.384q-0.648 0-1.08-0.384-0.408-0.384-0.408-1.248z"/>
      <path d="m414.09463 161.40146h-6.192v-1.248l2.016-0.456v-13.704l-2.016-0.48v-1.248h6.192v1.248l-2.016 0.48v13.704l2.016 0.456z"/>
      <path d="m423.04659 150.16946h-3.24v11.232h-2.112v-11.232h-2.256v-0.984l2.256-0.72v-0.744q0-2.496 1.104-3.576 1.104-1.104 3.072-1.104 0.768 0 1.392 0.144 0.648 0.12 1.104 0.288l-0.552 1.656q-0.384-0.12-0.888-0.24t-1.032-0.12q-1.056 0-1.584 0.72-0.504 0.696-0.504 2.208v0.84h3.24z"/>
      <path d="m429.59856 148.53746h2.256l2.784 7.32q0.36 0.96 0.648 1.848 0.288 0.864 0.432 1.656h0.096q0.144-0.6 0.456-1.56 0.312-0.984 0.648-1.968l2.616-7.296h2.28l-5.544 14.64q-0.672 1.824-1.752 2.904-1.056 1.08-2.928 1.08-0.576 0-1.008-0.072-0.432-0.048-0.744-0.12v-1.68q0.264 0.048 0.624 0.096 0.384 0.048 0.792 0.048 1.104 0 1.776-0.624 0.696-0.624 1.08-1.656l0.672-1.704z"/>
      <path d="m455.03852 154.94546q0 3.192-1.632 4.944-1.608 1.752-4.368 1.752-1.704 0-3.048-0.768-1.32-0.792-2.088-2.28-0.768-1.512-0.768-3.648 0-3.192 1.608-4.92t4.368-1.728q1.752 0 3.072 0.792 1.344 0.768 2.088 2.256 0.768 1.464 0.768 3.6zm-9.72 0q0 2.28 0.888 3.624 0.912 1.32 2.88 1.32 1.944 0 2.856-1.32 0.912-1.344 0.912-3.624t-0.912-3.576-2.88-1.296-2.856 1.296-0.888 3.576z"/>
      <path d="m469.12651 148.53746v12.864h-1.728l-0.312-1.704h-0.096q-0.624 1.008-1.728 1.488-1.104 0.456-2.352 0.456-2.328 0-3.504-1.104-1.176-1.128-1.176-3.576v-8.424h2.136v8.28q0 3.072 2.856 3.072 2.136 0 2.952-1.2 0.84-1.2 0.84-3.456v-6.696z"/>
      <path d="m48.791437 191.64146q-2.4 0-3.84-1.656-1.44-1.68-1.44-4.992t1.44-4.992q1.464-1.704 3.864-1.704 1.488 0 2.424 0.552 0.96 0.552 1.56 1.344h0.144q-0.024-0.312-0.096-0.912-0.048-0.624-0.048-0.984v-5.136h2.112v18.24h-1.704l-0.312-1.728h-0.096q-0.576 0.816-1.536 1.392t-2.472 0.576zm0.336-1.752q2.04 0 2.856-1.104 0.84-1.128 0.84-3.384v-0.384q0-2.4-0.792-3.672-0.792-1.296-2.928-1.296-1.704 0-2.568 1.368-0.84 1.344-0.84 3.624 0 2.304 0.84 3.576 0.864 1.272 2.592 1.272z"/>
      <path d="m60.071431 173.71346q0.48 0 0.84 0.336 0.384 0.312 0.384 1.008 0 0.672-0.384 1.008-0.36 0.336-0.84 0.336-0.528 0-0.888-0.336t-0.36-1.008q0-0.696 0.36-1.008 0.36-0.336 0.888-0.336zm1.032 4.824v12.864h-2.112v-12.864z"/>
      <path d="m69.743417 191.64146q-2.4 0-3.84-1.656-1.44-1.68-1.44-4.992t1.44-4.992q1.464-1.704 3.864-1.704 1.488 0 2.424 0.552 0.96 0.552 1.56 1.344h0.144q-0.024-0.312-0.096-0.912-0.048-0.624-0.048-0.984v-5.136h2.112v18.24h-1.704l-0.312-1.728h-0.096q-0.576 0.816-1.536 1.392t-2.472 0.576zm0.336-1.752q2.04 0 2.856-1.104 0.84-1.128 0.84-3.384v-0.384q0-2.4-0.792-3.672-0.792-1.296-2.928-1.296-1.704 0-2.568 1.368-0.84 1.344-0.84 3.624 0 2.304 0.84 3.576 0.864 1.272 2.592 1.272z"/>
      <path d="m86.135412 178.29746q2.304 0 3.48 1.128 1.176 1.104 1.176 3.6v8.376h-2.088v-8.232q0-3.096-2.88-3.096-2.136 0-2.952 1.2t-0.816 3.456v6.672h-2.112v-12.864h1.704l0.312 1.752h0.12q0.624-1.008 1.728-1.488 1.104-0.504 2.328-0.504z"/>
      <path d="m96.407361 174.52946q-0.312 1.248-0.912 2.808-0.576 1.536-1.152 2.808h-1.56q0.24-0.912 0.456-1.944 0.24-1.056 0.432-2.064 0.192-1.032 0.312-1.872h2.256z"/>
      <path d="m103.03134 189.91346q0.48 0 0.984-0.072 0.504-0.096 0.816-0.192v1.608q-0.336 0.168-0.96 0.264-0.624 0.12-1.2 0.12-1.008 0-1.872-0.336-0.839997-0.36-1.367997-1.224t-0.528-2.424v-7.488h-1.824v-1.008l1.848-0.84 0.84-2.736h1.247997v2.952h3.72v1.632h-3.72v7.44q0 1.176 0.552 1.752 0.576 0.552 1.464 0.552z"/>
      <path d="m119.63926 178.29746q0.36 0 0.768 0.048 0.432 0.024 0.744 0.096l-0.264 1.944q-0.312-0.072-0.696-0.12-0.36-0.048-0.696-0.048-0.984 0-1.848 0.552-0.864 0.528-1.392 1.512-0.504 0.96-0.504 2.256v6.864h-2.112v-12.864h1.728l0.24 2.352h0.096q0.624-1.056 1.608-1.824t2.328-0.768z"/>
      <path d="m128.0392 178.29746q1.656 0 2.832 0.72 1.2 0.72 1.824 2.04 0.648 1.296 0.648 3.048v1.272h-8.808q0.048 2.184 1.104 3.336 1.08 1.128 3 1.128 1.224 0 2.16-0.216 0.96-0.24 1.968-0.672v1.848q-0.984 0.432-1.944 0.624-0.96 0.216-2.28 0.216-1.824 0-3.24-0.744-1.392-0.744-2.184-2.208-0.768-1.488-0.768-3.624 0-2.112 0.696-3.624 0.72-1.512 1.992-2.328 1.296-0.816 3-0.816zm-0.024 1.728q-1.512 0-2.4 0.984-0.864 0.96-1.032 2.688h6.552q-0.024-1.632-0.768-2.64-0.744-1.032-2.352-1.032z"/>
      <path d="m145.17518 191.66546q0-0.432 0.024-1.008t0.096-0.984h-0.144q-0.552 0.816-1.536 1.392-0.96 0.576-2.496 0.576-2.328 0-3.792-1.656-1.44-1.68-1.44-4.992t1.464-4.992q1.488-1.704 3.84-1.704 1.512 0 2.472 0.576t1.536 1.416h0.096l0.312-1.752h1.68v18.624h-2.112zm-3.648-1.776q1.992 0 2.808-1.08 0.84-1.104 0.864-3.36v-0.432q0-2.448-0.816-3.696-0.816-1.272-2.904-1.272-1.728 0-2.568 1.368-0.84 1.344-0.84 3.624t0.84 3.576q0.864 1.272 2.616 1.272z"/>
      <path d="m162.11918 178.53746v12.864h-1.728l-0.312-1.704h-0.096q-0.624 1.008-1.728 1.488-1.104 0.456-2.352 0.456-2.328 0-3.504-1.104-1.176-1.128-1.176-3.576v-8.424h2.136v8.28q0 3.072 2.856 3.072 2.136 0 2.952-1.2 0.84-1.2 0.84-3.456v-6.696z"/>
      <path d="m171.16713 178.29746q1.656 0 2.832 0.72 1.2 0.72 1.824 2.04 0.648 1.296 0.648 3.048v1.272h-8.808q0.048 2.184 1.104 3.336 1.08 1.128 3 1.128 1.224 0 2.16-0.216 0.96-0.24 1.968-0.672v1.848q-0.984 0.432-1.944 0.624-0.96 0.216-2.28 0.216-1.824 0-3.24-0.744-1.392-0.744-2.184-2.208-0.768-1.488-0.768-3.624 0-2.112 0.696-3.624 0.72-1.512 1.992-2.328 1.296-0.816 3-0.816zm-0.024 1.728q-1.512 0-2.4 0.984-0.864 0.96-1.032 2.688h6.552q-0.024-1.632-0.768-2.64-0.744-1.032-2.352-1.032z"/>
      <path d="m188.11111 187.84946q0 1.872-1.392 2.832t-3.744 0.96q-1.344 0-2.328-0.216-0.96-0.216-1.704-0.6v-1.92q0.768 0.384 1.848 0.72 1.104 0.312 2.232 0.312 1.608 0 2.328-0.504 0.72-0.528 0.72-1.392 0-0.48-0.264-0.864t-0.96-0.768q-0.672-0.384-1.944-0.864-1.248-0.48-2.136-0.96t-1.368-1.152-0.48-1.728q0-1.632 1.32-2.52 1.344-0.888 3.504-0.888 1.176 0 2.184 0.24 1.032 0.216 1.92 0.624l-0.72 1.68q-0.816-0.336-1.704-0.576t-1.824-0.24q-1.296 0-1.992 0.432-0.672 0.408-0.672 1.128 0 0.528 0.312 0.912 0.312 0.36 1.032 0.72 0.744 0.336 1.968 0.816 1.224 0.456 2.088 0.936t1.32 1.176q0.456 0.672 0.456 1.704z"/>
      <path d="m195.52707 189.91346q0.48 0 0.984-0.072 0.504-0.096 0.816-0.192v1.608q-0.336 0.168-0.96 0.264-0.624 0.12-1.2 0.12-1.008 0-1.872-0.336-0.84-0.36-1.368-1.224t-0.528-2.424v-7.488h-1.824v-1.008l1.848-0.84 0.84-2.736h1.248v2.952h3.72v1.632h-3.72v7.44q0 1.176 0.552 1.752 0.576 0.552 1.464 0.552z"/>
      <path d="m210.43099 189.91346q0.48 0 0.984-0.072 0.504-0.096 0.816-0.192v1.608q-0.336 0.168-0.96 0.264-0.624 0.12-1.2 0.12-1.008 0-1.872-0.336-0.84-0.36-1.368-1.224t-0.528-2.424v-7.488h-1.824v-1.008l1.848-0.84 0.84-2.736h1.248v2.952h3.72v1.632h-3.72v7.44q0 1.176 0.552 1.752 0.576 0.552 1.464 0.552z"/>
      <path d="m216.91094 178.51346q0 0.96-0.12 1.8h0.144q0.624-0.984 1.68-1.488 1.08-0.504 2.328-0.504 2.352 0 3.528 1.128 1.176 1.104 1.176 3.576v8.376h-2.088v-8.232q0-3.096-2.88-3.096-2.16 0-2.976 1.224-0.792 1.2-0.792 3.456v6.648h-2.112v-18.24h2.112z"/>
      <path d="m230.7109 173.71346q0.48 0 0.84 0.336 0.384 0.312 0.384 1.008 0 0.672-0.384 1.008-0.36 0.336-0.84 0.336-0.528 0-0.888-0.336t-0.36-1.008q0-0.696 0.36-1.008 0.36-0.336 0.888-0.336zm1.032 4.824v12.864h-2.112v-12.864z"/>
      <path d="m244.19888 187.84946q0 1.872-1.392 2.832t-3.744 0.96q-1.344 0-2.328-0.216-0.96-0.216-1.704-0.6v-1.92q0.768 0.384 1.848 0.72 1.104 0.312 2.232 0.312 1.608 0 2.328-0.504 0.72-0.528 0.72-1.392 0-0.48-0.264-0.864t-0.96-0.768q-0.672-0.384-1.944-0.864-1.248-0.48-2.136-0.96t-1.368-1.152-0.48-1.728q0-1.632 1.32-2.52 1.344-0.888 3.504-0.888 1.176 0 2.184 0.24 1.032 0.216 1.92 0.624l-0.72 1.68q-0.816-0.336-1.704-0.576t-1.824-0.24q-1.296 0-1.992 0.432-0.672 0.408-0.672 1.128 0 0.528 0.312 0.912 0.312 0.36 1.032 0.72 0.744 0.336 1.968 0.816 1.224 0.456 2.088 0.936t1.32 1.176q0.456 0.672 0.456 1.704z"/>
      <path d="m249.88684 188.88146q-0.312 1.272-0.912 2.784-0.576 1.536-1.152 2.832h-1.56q0.336-1.368 0.672-3 0.36-1.632 0.528-2.88h2.256z"/>
      <path d="m266.11079 178.29746q2.376 0 3.816 1.656 1.464 1.656 1.464 4.992 0 3.288-1.464 4.992-1.44 1.704-3.84 1.704-1.488 0-2.472-0.552-0.96-0.576-1.512-1.32h-0.144q0.048 0.408 0.096 1.032t0.048 1.08v5.28h-2.112v-18.624h1.728l0.288 1.752h0.096q0.576-0.84 1.512-1.416t2.496-0.576zm-0.384 1.776q-1.968 0-2.784 1.104-0.792 1.104-0.84 3.36v0.408q0 2.376 0.768 3.672 0.792 1.272 2.904 1.272 1.176 0 1.92-0.648 0.768-0.648 1.128-1.752 0.384-1.128 0.384-2.568 0-2.208-0.864-3.528-0.84-1.32-2.616-1.32z"/>
      <path d="m276.86278 191.40146h-2.112v-18.24h2.112z"/>
      <path d="m285.91077 178.29746q1.656 0 2.832 0.72 1.2 0.72 1.824 2.04 0.648 1.296 0.648 3.048v1.272h-8.808q0.048 2.184 1.104 3.336 1.08 1.128 3 1.128 1.224 0 2.16-0.216 0.96-0.24 1.968-0.672v1.848q-0.984 0.432-1.944 0.624-0.96 0.216-2.28 0.216-1.824 0-3.24-0.744-1.392-0.744-2.184-2.208-0.768-1.488-0.768-3.624 0-2.112 0.696-3.624 0.72-1.512 1.992-2.328 1.296-0.816 3-0.816zm-0.024 1.728q-1.512 0-2.4 0.984-0.864 0.96-1.032 2.688h6.552q-0.024-1.632-0.768-2.64-0.744-1.032-2.352-1.032z"/>
      <path d="m299.35075 178.32146q2.352 0 3.48 1.032t1.128 3.288v8.76h-1.536l-0.408-1.824h-0.096q-0.84 1.056-1.776 1.56-0.912 0.504-2.544 0.504-1.752 0-2.904-0.912-1.152-0.936-1.152-2.904 0-1.92 1.512-2.952 1.512-1.056 4.656-1.152l2.184-0.072v-0.768q0-1.608-0.696-2.232t-1.968-0.624q-1.008 0-1.92 0.312-0.912 0.288-1.704 0.672l-0.648-1.584q0.84-0.456 1.992-0.768 1.152-0.336 2.4-0.336zm0.624 6.864q-2.4 0.096-3.336 0.768-0.912 0.672-0.912 1.896 0 1.08 0.648 1.584 0.672 0.504 1.704 0.504 1.632 0 2.712-0.888 1.08-0.912 1.08-2.784v-1.152z"/>
      <path d="m316.31874 187.84946q0 1.872-1.392 2.832t-3.744 0.96q-1.344 0-2.328-0.216-0.96-0.216-1.704-0.6v-1.92q0.768 0.384 1.848 0.72 1.104 0.312 2.232 0.312 1.608 0 2.328-0.504 0.72-0.528 0.72-1.392 0-0.48-0.264-0.864t-0.96-0.768q-0.672-0.384-1.944-0.864-1.248-0.48-2.136-0.96t-1.368-1.152-0.48-1.728q0-1.632 1.32-2.52 1.344-0.888 3.504-0.888 1.176 0 2.184 0.24 1.032 0.216 1.92 0.624l-0.72 1.68q-0.816-0.336-1.704-0.576t-1.824-0.24q-1.296 0-1.992 0.432-0.672 0.408-0.672 1.128 0 0.528 0.312 0.912 0.312 0.36 1.032 0.72 0.744 0.336 1.968 0.816 1.224 0.456 2.088 0.936t1.32 1.176q0.456 0.672 0.456 1.704z"/>
      <path d="m324.40668 178.29746q1.656 0 2.832 0.72 1.2 0.72 1.824 2.04 0.648 1.296 0.648 3.048v1.272h-8.808q0.048 2.184 1.104 3.336 1.08 1.128 3 1.128 1.224 0 2.16-0.216 0.96-0.24 1.968-0.672v1.848q-0.984 0.432-1.944 0.624-0.96 0.216-2.28 0.216-1.824 0-3.24-0.744-1.392-0.744-2.184-2.208-0.768-1.488-0.768-3.624 0-2.112 0.696-3.624 0.72-1.512 1.992-2.328 1.296-0.816 3-0.816zm-0.024 1.728q-1.512 0-2.4 0.984-0.864 0.96-1.032 2.688h6.552q-0.024-1.632-0.768-2.64-0.744-1.032-2.352-1.032z"/>
      <path d="m344.37462 191.64146q-1.704 0-3.048-0.696-1.32-0.696-2.088-2.16-0.744-1.464-0.744-3.744 0-2.376 0.792-3.864t2.136-2.184q1.368-0.696 3.096-0.696 0.984 0 1.896 0.216 0.912 0.192 1.488 0.48l-0.648 1.752q-0.576-0.216-1.344-0.408t-1.44-0.192q-3.792 0-3.792 4.872 0 2.328 0.912 3.576 0.936 1.224 2.76 1.224 1.056 0 1.848-0.216 0.816-0.216 1.488-0.528v1.872q-0.648 0.336-1.44 0.504-0.768 0.192-1.872 0.192z"/>
      <path d="m352.84661 191.40146h-2.112v-18.24h2.112z"/>
      <path d="m358.0066 173.71346q0.48 0 0.84 0.336 0.384 0.312 0.384 1.008 0 0.672-0.384 1.008-0.36 0.336-0.84 0.336-0.528 0-0.888-0.336t-0.36-1.008q0-0.696 0.36-1.008 0.36-0.336 0.888-0.336zm1.032 4.824v12.864h-2.112v-12.864z"/>
      <path d="m368.27858 191.64146q-1.704 0-3.048-0.696-1.32-0.696-2.088-2.16-0.744-1.464-0.744-3.744 0-2.376 0.792-3.864t2.136-2.184q1.368-0.696 3.096-0.696 0.984 0 1.896 0.216 0.912 0.192 1.488 0.48l-0.648 1.752q-0.576-0.216-1.344-0.408t-1.44-0.192q-3.792 0-3.792 4.872 0 2.328 0.912 3.576 0.936 1.224 2.76 1.224 1.056 0 1.848-0.216 0.816-0.216 1.488-0.528v1.872q-0.648 0.336-1.44 0.504-0.768 0.192-1.872 0.192z"/>
      <path d="m376.72657 182.68946q0 0.384-0.048 1.008-0.024 0.624-0.048 1.08h0.096q0.144-0.192 0.432-0.552t0.576-0.72q0.312-0.384 0.528-0.624l4.104-4.344h2.472l-5.208 5.496 5.568 7.368h-2.544l-4.464-6-1.464 1.272v4.728h-2.088v-18.24h2.088z"/>
      <path d="m398.85451 191.64146q-1.704 0-3.048-0.696-1.32-0.696-2.088-2.16-0.744-1.464-0.744-3.744 0-2.376 0.792-3.864t2.136-2.184q1.368-0.696 3.096-0.696 0.984 0 1.896 0.216 0.912 0.192 1.488 0.48l-0.648 1.752q-0.576-0.216-1.344-0.408t-1.44-0.192q-3.792 0-3.792 4.872 0 2.328 0.912 3.576 0.936 1.224 2.76 1.224 1.056 0 1.848-0.216 0.816-0.216 1.488-0.528v1.872q-0.648 0.336-1.44 0.504-0.768 0.192-1.872 0.192z"/>
      <path d="m410.08647 178.32146q2.352 0 3.48 1.032t1.128 3.288v8.76h-1.536l-0.408-1.824h-0.096q-0.84 1.056-1.776 1.56-0.912 0.504-2.544 0.504-1.752 0-2.904-0.912-1.152-0.936-1.152-2.904 0-1.92 1.512-2.952 1.512-1.056 4.656-1.152l2.184-0.072v-0.768q0-1.608-0.696-2.232t-1.968-0.624q-1.008 0-1.92 0.312-0.912 0.288-1.704 0.672l-0.648-1.584q0.84-0.456 1.992-0.768 1.152-0.336 2.4-0.336zm0.624 6.864q-2.4 0.096-3.336 0.768-0.912 0.672-0.912 1.896 0 1.08 0.648 1.584 0.672 0.504 1.704 0.504 1.632 0 2.712-0.888 1.08-0.912 1.08-2.784v-1.152z"/>
      <path d="m424.87046 178.29746q2.304 0 3.48 1.128 1.176 1.104 1.176 3.6v8.376h-2.088v-8.232q0-3.096-2.88-3.096-2.136 0-2.952 1.2t-0.816 3.456v6.672h-2.112v-12.864h1.704l0.312 1.752h0.12q0.624-1.008 1.728-1.488 1.104-0.504 2.328-0.504z"/>
      <path d="m438.67043 191.64146q-1.704 0-3.048-0.696-1.32-0.696-2.088-2.16-0.744-1.464-0.744-3.744 0-2.376 0.792-3.864t2.136-2.184q1.368-0.696 3.096-0.696 0.984 0 1.896 0.216 0.912 0.192 1.488 0.48l-0.648 1.752q-0.576-0.216-1.344-0.408t-1.44-0.192q-3.792 0-3.792 4.872 0 2.328 0.912 3.576 0.936 1.224 2.76 1.224 1.056 0 1.848-0.216 0.816-0.216 1.488-0.528v1.872q-0.648 0.336-1.44 0.504-0.768 0.192-1.872 0.192z"/>
      <path d="m449.99839 178.29746q1.656 0 2.832 0.72 1.2 0.72 1.824 2.04 0.648 1.296 0.648 3.048v1.272h-8.808q0.048 2.184 1.104 3.336 1.08 1.128 3 1.128 1.224 0 2.16-0.216 0.96-0.24 1.968-0.672v1.848q-0.984 0.432-1.944 0.624-0.96 0.216-2.28 0.216-1.824 0-3.24-0.744-1.392-0.744-2.184-2.208-0.768-1.488-0.768-3.624 0-2.112 0.696-3.624 0.72-1.512 1.992-2.328 1.296-0.816 3-0.816zm-0.024 1.728q-1.512 0-2.4 0.984-0.864 0.96-1.032 2.688h6.552q-0.024-1.632-0.768-2.64-0.744-1.032-2.352-1.032z"/>
      <path d="m460.6784 191.40146h-2.112v-18.24h2.112z"/>
      <path d="m464.44635 190.10546q0-0.888 0.432-1.248t1.032-0.36q0.624 0 1.056 0.36 0.456 0.36 0.456 1.248 0 0.864-0.456 1.248-0.432 0.384-1.056 0.384-0.6 0-1.032-0.384t-0.432-1.248z"/>
    </g>
  </g>
</svg>
