<!-- Created with Inkscape (http://www.inkscape.org/) -->
<svg width="60mm" height="37.972mm" version="1.1" viewBox="0 0 60 37.972" xml:space="preserve" xmlns="http://www.w3.org/2000/svg"><rect width="60" height="37.972" fill="#483737" stroke-width="1.382"/><g transform="matrix(.26458 0 0 .26458 -1.6233 7.1513)" fill="#f60" stroke-width="5.2233" style="shape-inside:url(#rect568);white-space:pre" aria-label="License Agreement Placeholder"><path d="m47.91 46.97v0.896h-4.448v-7.392h1.0347v6.496z"/><path d="m49.926 47.866h-0.992v-5.5467h0.992zm-0.50134-6.5494q-0.26667 0-0.45867-0.17067-0.18133-0.18133-0.18133-0.48 0-0.29867 0.18133-0.46934 0.192-0.18133 0.45867-0.18133t0.448 0.18133q0.192 0.17067 0.192 0.46934 0 0.29867-0.192 0.48-0.18133 0.17067-0.448 0.17067z"/><path d="m54.044 47.994q-0.672 0-1.184-0.21333-0.50134-0.21333-0.85334-0.59734-0.34133-0.384-0.512-0.90667-0.17067-0.53334-0.17067-1.1733t0.18133-1.1733q0.192-0.53334 0.53334-0.91734 0.34134-0.39467 0.832-0.608 0.50134-0.224 1.1093-0.224 0.37333 0 0.74667 0.064 0.37333 0.064 0.71467 0.20267l-0.224 0.84267q-0.224-0.10667-0.52267-0.17067-0.288-0.064-0.61867-0.064-0.832 0-1.28 0.52267-0.43734 0.52267-0.43734 1.5253 0 0.448 0.096 0.82134 0.10667 0.37333 0.32 0.64 0.224 0.26667 0.56534 0.416 0.34133 0.13867 0.832 0.13867 0.39467 0 0.71467-0.07467t0.50134-0.16l0.13867 0.832q-0.08533 0.05333-0.24533 0.10667-0.16 0.04267-0.36267 0.07467-0.20267 0.04267-0.43734 0.064-0.224 0.032-0.43734 0.032z"/><path d="m56.284 45.103q0-0.736 0.21333-1.28 0.21333-0.55467 0.56534-0.91734 0.352-0.36267 0.81067-0.544t0.93867-0.18133q1.12 0 1.7173 0.704 0.59734 0.69334 0.59734 2.1227 0 0.064 0 0.17067 0 0.096-0.01067 0.18133h-3.7973q0.064 0.864 0.50134 1.312 0.43733 0.448 1.3653 0.448 0.52267 0 0.87467-0.08533 0.36267-0.096 0.544-0.18133l0.13867 0.832q-0.18133 0.096-0.64 0.20267-0.448 0.10667-1.024 0.10667-0.72534 0-1.2587-0.21333-0.52267-0.224-0.864-0.608-0.34134-0.384-0.512-0.90667-0.16-0.53334-0.16-1.1627zm3.808-0.544q0.01067-0.672-0.34134-1.0987-0.34133-0.43734-0.94934-0.43734-0.34133 0-0.608 0.13867-0.256 0.128-0.43734 0.34134t-0.288 0.49067q-0.096 0.27733-0.128 0.56534z"/><path d="m62.556 42.479q0.34133-0.08533 0.90667-0.18133 0.56534-0.096 1.3013-0.096 0.66134 0 1.0987 0.192 0.43733 0.18133 0.69334 0.52267 0.26667 0.33067 0.37334 0.8t0.10667 1.0347v3.1147h-0.992v-2.9013q0-0.512-0.07467-0.87467-0.064-0.36267-0.224-0.58667t-0.42667-0.32q-0.26667-0.10667-0.66134-0.10667-0.16 0-0.33067 0.01067t-0.33067 0.032q-0.14933 0.01067-0.27733 0.032-0.11733 0.02133-0.17067 0.032v4.6827h-0.992z"/><path d="m69.969 47.151q0.608 0 0.896-0.16 0.29867-0.16 0.29867-0.512 0-0.36267-0.288-0.576-0.288-0.21333-0.94934-0.48-0.32-0.128-0.61867-0.256-0.288-0.13867-0.50134-0.32t-0.34134-0.43734q-0.128-0.256-0.128-0.62934 0-0.736 0.544-1.1627 0.544-0.43734 1.4827-0.43734 0.23467 0 0.46934 0.032 0.23467 0.02133 0.43733 0.064 0.20267 0.032 0.352 0.07467 0.16 0.04267 0.24533 0.07467l-0.18133 0.85334q-0.16-0.08533-0.50134-0.17067-0.34134-0.096-0.82134-0.096-0.416 0-0.72534 0.17067-0.30933 0.16-0.30933 0.512 0 0.18133 0.064 0.32 0.07467 0.13867 0.21333 0.256 0.14933 0.10667 0.36267 0.20267 0.21333 0.096 0.512 0.20267 0.39467 0.14933 0.704 0.29867 0.30933 0.13867 0.52267 0.33067 0.224 0.192 0.34134 0.46934 0.11733 0.26667 0.11733 0.66134 0 0.768-0.576 1.1627-0.56534 0.39467-1.6213 0.39467-0.736 0-1.152-0.128-0.416-0.11733-0.56534-0.18133l0.18133-0.85334q0.17067 0.064 0.544 0.192 0.37333 0.128 0.992 0.128z"/><path d="m73.126 45.103q0-0.736 0.21333-1.28 0.21333-0.55467 0.56534-0.91734 0.352-0.36267 0.81067-0.544t0.93867-0.18133q1.12 0 1.7173 0.704 0.59734 0.69334 0.59734 2.1227 0 0.064 0 0.17067 0 0.096-0.01067 0.18133h-3.7973q0.064 0.864 0.50134 1.312 0.43734 0.448 1.3653 0.448 0.52267 0 0.87467-0.08533 0.36267-0.096 0.544-0.18133l0.13867 0.832q-0.18133 0.096-0.64 0.20267-0.448 0.10667-1.024 0.10667-0.72534 0-1.2587-0.21333-0.52267-0.224-0.864-0.608-0.34134-0.384-0.512-0.90667-0.16-0.53334-0.16-1.1627zm3.808-0.544q0.01067-0.672-0.34133-1.0987-0.34133-0.43734-0.94934-0.43734-0.34134 0-0.608 0.13867-0.256 0.128-0.43734 0.34134t-0.288 0.49067q-0.096 0.27733-0.128 0.56534z"/><path d="m86.865 47.866q-0.18133-0.48-0.34134-0.93867-0.16-0.46934-0.33067-0.94934h-3.3493l-0.672 1.888h-1.0773q0.42667-1.1733 0.8-2.1653 0.37334-1.0027 0.72534-1.8987 0.36267-0.896 0.71467-1.7067 0.352-0.82134 0.736-1.6213h0.94934q0.384 0.8 0.736 1.6213 0.352 0.81067 0.704 1.7067 0.36267 0.896 0.736 1.8987 0.37334 0.992 0.8 2.1653zm-0.97067-2.7413q-0.34133-0.928-0.68267-1.792-0.33067-0.87467-0.69334-1.6747-0.37334 0.8-0.71467 1.6747-0.33067 0.864-0.66134 1.792z"/><path d="m92.241 47.311q-0.128 0.08533-0.50134 0.224-0.36267 0.128-0.85334 0.128-0.50134 0-0.94934-0.16-0.43733-0.16-0.768-0.49067-0.33067-0.34133-0.52267-0.84267-0.192-0.50134-0.192-1.1947 0-0.608 0.18133-1.1093 0.18133-0.512 0.52267-0.87467 0.352-0.37333 0.85334-0.576 0.50134-0.21333 1.1307-0.21333 0.69334 0 1.2053 0.10667 0.52267 0.096 0.87467 0.18133v4.9493q0 1.28-0.66134 1.856-0.66134 0.576-2.0053 0.576-0.52267 0-0.992-0.08533-0.45867-0.08533-0.8-0.20267l0.18133-0.864q0.29867 0.11733 0.72534 0.20267 0.43734 0.096 0.90667 0.096 0.88534 0 1.2693-0.352 0.39467-0.352 0.39467-1.12zm-0.01067-4.1173q-0.14933-0.04267-0.40534-0.07467-0.24533-0.04267-0.672-0.04267-0.8 0-1.2373 0.52267-0.42667 0.52267-0.42667 1.3867 0 0.48 0.11733 0.82134 0.128 0.34134 0.33067 0.56534 0.21333 0.224 0.48 0.33067 0.27733 0.10667 0.56534 0.10667 0.39467 0 0.72534-0.10667 0.33067-0.11733 0.52267-0.26667z"/><path d="m96.977 42.202q0.128 0 0.288 0.02133 0.17067 0.01067 0.33067 0.04267 0.16 0.02133 0.288 0.05333 0.13867 0.02133 0.20267 0.04267l-0.17067 0.864q-0.11733-0.04267-0.39467-0.096-0.26667-0.064-0.69334-0.064-0.27733 0-0.55467 0.064-0.26667 0.05333-0.352 0.07467v4.6613h-0.992v-5.312q0.352-0.128 0.87467-0.23467 0.52267-0.11733 1.1733-0.11733z"/><path d="m98.737 45.103q0-0.736 0.21333-1.28 0.21333-0.55467 0.56534-0.91734 0.352-0.36267 0.81067-0.544 0.45867-0.18133 0.93867-0.18133 1.12 0 1.7173 0.704 0.59733 0.69334 0.59733 2.1227 0 0.064 0 0.17067 0 0.096-0.0107 0.18133h-3.7973q0.064 0.864 0.50133 1.312 0.43734 0.448 1.3653 0.448 0.52267 0 0.87467-0.08533 0.36267-0.096 0.544-0.18133l0.13867 0.832q-0.18133 0.096-0.64 0.20267-0.448 0.10667-1.024 0.10667-0.72533 0-1.2587-0.21333-0.52266-0.224-0.864-0.608-0.34133-0.384-0.512-0.90667-0.16-0.53334-0.16-1.1627zm3.808-0.544q0.0107-0.672-0.34133-1.0987-0.34134-0.43734-0.94934-0.43734-0.34133 0-0.608 0.13867-0.256 0.128-0.43734 0.34134-0.18133 0.21333-0.288 0.49067-0.096 0.27733-0.128 0.56534z"/><path d="m104.7 45.103q0-0.736 0.21334-1.28 0.21333-0.55467 0.56533-0.91734 0.352-0.36267 0.81067-0.544t0.93867-0.18133q1.12 0 1.7173 0.704 0.59734 0.69334 0.59734 2.1227 0 0.064 0 0.17067 0 0.096-0.0107 0.18133h-3.7974q0.064 0.864 0.50134 1.312 0.43733 0.448 1.3653 0.448 0.52267 0 0.87467-0.08533 0.36266-0.096 0.544-0.18133l0.13867 0.832q-0.18134 0.096-0.64001 0.20267-0.448 0.10667-1.024 0.10667-0.72534 0-1.2587-0.21333-0.52267-0.224-0.864-0.608-0.34134-0.384-0.512-0.90667-0.16001-0.53334-0.16001-1.1627zm3.808-0.544q0.0107-0.672-0.34134-1.0987-0.34133-0.43734-0.94933-0.43734-0.34134 0-0.60801 0.13867-0.256 0.128-0.43733 0.34134t-0.288 0.49067q-0.096 0.27733-0.128 0.56534z"/><path d="m110.97 42.479q0.34134-0.08533 0.89601-0.18133 0.56533-0.096 1.3013-0.096 0.53334 0 0.89601 0.14933 0.36267 0.13867 0.608 0.416 0.0747-0.05333 0.23467-0.14933 0.16-0.096 0.39466-0.18133 0.23467-0.096 0.52267-0.16 0.288-0.07467 0.61867-0.07467 0.64 0 1.0453 0.192 0.40533 0.18133 0.62933 0.52267 0.23467 0.34134 0.30934 0.81067 0.0853 0.46933 0.0853 1.024v3.1147h-0.992v-2.9013q0-0.49067-0.0533-0.84267-0.0427-0.352-0.18134-0.58667-0.128-0.23467-0.36267-0.34133-0.224-0.11733-0.58667-0.11733-0.50133 0-0.832 0.13867-0.32 0.128-0.43733 0.23467 0.0853 0.27734 0.128 0.608 0.0427 0.33067 0.0427 0.69334v3.1147h-0.992v-2.9013q0-0.49067-0.0533-0.84267-0.0533-0.352-0.192-0.58667-0.128-0.23467-0.36267-0.34133-0.224-0.11733-0.576-0.11733-0.14934 0-0.32 0.01067-0.17067 0.01067-0.33067 0.032-0.14933 0.01067-0.27734 0.032-0.128 0.02133-0.17066 0.032v4.6827h-0.99201z"/><path d="m119.85 45.103q0-0.736 0.21333-1.28 0.21333-0.55467 0.56534-0.91734 0.352-0.36267 0.81066-0.544 0.45867-0.18133 0.93867-0.18133 1.12 0 1.7173 0.704 0.59734 0.69334 0.59734 2.1227 0 0.064 0 0.17067 0 0.096-0.0107 0.18133h-3.7973q0.064 0.864 0.50133 1.312 0.43734 0.448 1.3653 0.448 0.52267 0 0.87467-0.08533 0.36267-0.096 0.544-0.18133l0.13867 0.832q-0.18134 0.096-0.64001 0.20267-0.448 0.10667-1.024 0.10667-0.72533 0-1.2587-0.21333-0.52267-0.224-0.864-0.608-0.34134-0.384-0.512-0.90667-0.16-0.53334-0.16-1.1627zm3.808-0.544q0.0107-0.672-0.34134-1.0987-0.34133-0.43734-0.94933-0.43734-0.34134 0-0.608 0.13867-0.25601 0.128-0.43734 0.34134t-0.288 0.49067q-0.096 0.27733-0.128 0.56534z"/><path d="m126.12 42.479q0.34133-0.08533 0.90667-0.18133 0.56533-0.096 1.3013-0.096 0.66133 0 1.0987 0.192 0.43733 0.18133 0.69333 0.52267 0.26667 0.33067 0.37334 0.8 0.10666 0.46934 0.10666 1.0347v3.1147h-0.992v-2.9013q0-0.512-0.0747-0.87467-0.064-0.36267-0.224-0.58667t-0.42666-0.32q-0.26667-0.10667-0.66134-0.10667-0.16 0-0.33067 0.01067t-0.33067 0.032q-0.14933 0.01067-0.27733 0.032-0.11733 0.02133-0.17067 0.032v4.6827h-0.992z"/><path d="m133.17 42.319h2.1013v0.832h-2.1013v2.56q0 0.416 0.064 0.69334 0.064 0.26667 0.192 0.42667 0.128 0.14933 0.32001 0.21333 0.192 0.064 0.448 0.064 0.448 0 0.71467-0.096 0.27733-0.10667 0.384-0.14933l0.192 0.82134q-0.14934 0.07467-0.52267 0.18133-0.37334 0.11733-0.85334 0.11733-0.56533 0-0.93867-0.13867-0.36266-0.14933-0.58667-0.43734-0.224-0.288-0.32-0.704-0.0853-0.42667-0.0853-0.98134v-4.9493l0.992-0.17067z"/><path d="m141.02 40.399q1.5573 0 2.3894 0.59734 0.84266 0.58667 0.84266 1.76 0 0.64-0.23466 1.0987-0.224 0.448-0.66134 0.736-0.42667 0.27734-1.0453 0.40534-0.61867 0.128-1.3973 0.128h-0.82134v2.7413h-1.0347v-7.2854q0.43734-0.10667 0.97067-0.13867 0.544-0.04267 0.992-0.04267zm0.0853 0.90667q-0.66134 0-1.0133 0.032v2.9013h0.77867q0.53334 0 0.96-0.064 0.42667-0.07467 0.71467-0.23467 0.29867-0.17067 0.45867-0.45867 0.16-0.288 0.16-0.736 0-0.42667-0.17067-0.704-0.16-0.27733-0.448-0.43734-0.27733-0.17067-0.65067-0.23467-0.37333-0.064-0.78933-0.064z"/><path d="m147.14 47.972q-0.91734-0.02133-1.3013-0.39467-0.384-0.37333-0.384-1.1627v-6.656l0.992-0.17067v6.6667q0 0.24533 0.0427 0.40533 0.0427 0.16 0.13867 0.256 0.096 0.096 0.256 0.14933 0.16 0.04267 0.39467 0.07467z"/><path d="m150.27 47.151q0.352 0 0.61867-0.01067 0.27733-0.02133 0.45866-0.064v-1.6533q-0.10666-0.05333-0.352-0.08533-0.23466-0.04267-0.576-0.04267-0.224 0-0.48 0.032-0.24533 0.032-0.45867 0.13867-0.20267 0.096-0.34133 0.27733-0.13867 0.17067-0.13867 0.45867 0 0.53334 0.34133 0.74667 0.34134 0.20267 0.92801 0.20267zm-0.0853-4.9707q0.59734 0 1.0027 0.16 0.416 0.14933 0.66134 0.43733 0.256 0.27733 0.36267 0.672 0.10666 0.384 0.10666 0.85334v3.4667q-0.128 0.02133-0.36266 0.064-0.224 0.032-0.51201 0.064-0.288 0.032-0.62933 0.05333-0.33067 0.032-0.66134 0.032-0.46933 0-0.864-0.096t-0.68267-0.29867q-0.288-0.21333-0.448-0.55467-0.16-0.34134-0.16-0.82134 0-0.45867 0.18133-0.78934 0.192-0.33067 0.51201-0.53334 0.32-0.20267 0.74666-0.29867 0.42667-0.096 0.89601-0.096 0.14933 0 0.30933 0.02133 0.16 0.01067 0.29867 0.04267 0.14933 0.02133 0.256 0.04267 0.10667 0.02133 0.14933 0.032v-0.27733q0-0.24533-0.0533-0.48-0.0533-0.24533-0.192-0.42667-0.13867-0.192-0.384-0.29867-0.23467-0.11733-0.61867-0.11733-0.49067 0-0.864 0.07467-0.36267 0.064-0.544 0.13867l-0.11734-0.82134q0.192-0.08533 0.64-0.16 0.44801-0.08533 0.97067-0.08533z"/><path d="m156.37 47.994q-0.672 0-1.184-0.21333-0.50133-0.21333-0.85333-0.59734-0.34134-0.384-0.512-0.90667-0.17067-0.53334-0.17067-1.1733t0.18133-1.1733q0.192-0.53334 0.53334-0.91734 0.34133-0.39467 0.832-0.608 0.50134-0.224 1.1093-0.224 0.37333 0 0.74667 0.064 0.37333 0.064 0.71467 0.20267l-0.224 0.84267q-0.22401-0.10667-0.52267-0.17067-0.288-0.064-0.61867-0.064-0.832 0-1.28 0.52267-0.43733 0.52267-0.43733 1.5253 0 0.448 0.096 0.82134 0.10667 0.37333 0.32 0.64 0.224 0.26667 0.56534 0.416 0.34133 0.13867 0.832 0.13867 0.39467 0 0.71467-0.07467t0.50133-0.16l0.13867 0.832q-0.0853 0.05333-0.24533 0.10667-0.16 0.04267-0.36267 0.07467-0.20267 0.04267-0.43734 0.064-0.224 0.032-0.43733 0.032z"/><path d="m158.61 45.103q0-0.736 0.21334-1.28 0.21333-0.55467 0.56533-0.91734 0.352-0.36267 0.81067-0.544t0.93867-0.18133q1.12 0 1.7173 0.704 0.59733 0.69334 0.59733 2.1227 0 0.064 0 0.17067 0 0.096-0.0107 0.18133h-3.7974q0.064 0.864 0.50134 1.312 0.43733 0.448 1.3653 0.448 0.52267 0 0.87467-0.08533 0.36267-0.096 0.544-0.18133l0.13867 0.832q-0.18133 0.096-0.64 0.20267-0.448 0.10667-1.024 0.10667-0.72534 0-1.2587-0.21333-0.52267-0.224-0.86401-0.608-0.34133-0.384-0.512-0.90667-0.16-0.53334-0.16-1.1627zm3.808-0.544q0.0107-0.672-0.34133-1.0987-0.34134-0.43734-0.94934-0.43734-0.34133 0-0.608 0.13867-0.256 0.128-0.43733 0.34134-0.18134 0.21333-0.288 0.49067-0.096 0.27733-0.12801 0.56534z"/><path d="m164.88 47.866v-8.1067l0.99201-0.17067v2.8373q0.27733-0.10667 0.58667-0.16 0.32-0.064 0.62933-0.064 0.66134 0 1.0987 0.192 0.43734 0.18133 0.69334 0.52267 0.26667 0.33067 0.37333 0.8 0.10667 0.46934 0.10667 1.0347v3.1147h-0.992v-2.9013q0-0.512-0.0747-0.87467-0.064-0.36267-0.224-0.58667t-0.42667-0.32q-0.26667-0.10667-0.66134-0.10667-0.16 0-0.33066 0.02133-0.17067 0.02133-0.33067 0.05333-0.14933 0.02133-0.27733 0.05333-0.11734 0.032-0.17067 0.05333v4.608z"/><path d="m175.87 45.092q0 0.66134-0.192 1.1947-0.19201 0.53334-0.54401 0.91734-0.34133 0.384-0.82133 0.59734-0.48 0.20267-1.0453 0.20267-0.56533 0-1.0453-0.20267-0.48-0.21333-0.832-0.59734-0.34133-0.384-0.53333-0.91734t-0.192-1.1947q0-0.65067 0.192-1.184 0.192-0.544 0.53333-0.928 0.352-0.384 0.832-0.58667 0.48001-0.21333 1.0453-0.21333 0.56534 0 1.0453 0.21333 0.48 0.20267 0.82133 0.58667 0.352 0.384 0.54401 0.928 0.192 0.53334 0.192 1.184zm-1.0347 0q0-0.93867-0.42667-1.4827-0.416-0.55467-1.1413-0.55467-0.72533 0-1.152 0.55467-0.416 0.544-0.416 1.4827 0 0.93867 0.416 1.4933 0.42667 0.544 1.152 0.544 0.72534 0 1.1413-0.544 0.42667-0.55467 0.42667-1.4933z"/><path d="m178.93 47.972q-0.91734-0.02133-1.3013-0.39467-0.384-0.37333-0.384-1.1627v-6.656l0.992-0.17067v6.6667q0 0.24533 0.0427 0.40533 0.0427 0.16 0.13867 0.256 0.096 0.096 0.256 0.14933 0.16 0.04267 0.39467 0.07467z"/><path d="m183.76 43.492q-0.18133-0.14933-0.52267-0.288-0.34133-0.13867-0.74667-0.13867-0.42666 0-0.736 0.16-0.29867 0.14933-0.49067 0.42667-0.192 0.26667-0.27733 0.64-0.0853 0.37333-0.0853 0.8 0 0.97067 0.48 1.504 0.48 0.52267 1.28 0.52267 0.40534 0 0.672-0.032 0.27734-0.04267 0.42667-0.08533zm0-3.7333 0.992-0.17067v8.1174q-0.34133 0.096-0.87466 0.192-0.53334 0.096-1.2267 0.096-0.64 0-1.152-0.20267-0.512-0.20267-0.87467-0.576-0.36267-0.37334-0.56533-0.90667-0.192-0.544-0.192-1.216 0-0.64 0.16-1.1733 0.17066-0.53334 0.49066-0.91734 0.32001-0.384 0.77867-0.59734 0.46934-0.21333 1.0667-0.21333 0.48001 0 0.84267 0.128 0.37334 0.128 0.55467 0.24533z"/><path d="m186.15 45.103q0-0.736 0.21334-1.28 0.21333-0.55467 0.56533-0.91734 0.35201-0.36267 0.81067-0.544 0.45867-0.18133 0.93867-0.18133 1.12 0 1.7173 0.704 0.59734 0.69334 0.59734 2.1227 0 0.064 0 0.17067 0 0.096-0.0107 0.18133h-3.7974q0.064 0.864 0.50134 1.312 0.43733 0.448 1.3653 0.448 0.52267 0 0.87467-0.08533 0.36266-0.096 0.544-0.18133l0.13867 0.832q-0.18134 0.096-0.64001 0.20267-0.448 0.10667-1.024 0.10667-0.72534 0-1.2587-0.21333-0.52267-0.224-0.864-0.608-0.34134-0.384-0.512-0.90667-0.16001-0.53334-0.16001-1.1627zm3.808-0.544q0.0107-0.672-0.34134-1.0987-0.34133-0.43734-0.94933-0.43734-0.34134 0-0.60801 0.13867-0.256 0.128-0.43733 0.34134t-0.288 0.49067q-0.096 0.27733-0.128 0.56534z"/><path d="m194.47 42.202q0.128 0 0.288 0.02133 0.17067 0.01067 0.33067 0.04267 0.16 0.02133 0.288 0.05333 0.13867 0.02133 0.20267 0.04267l-0.17067 0.864q-0.11733-0.04267-0.39467-0.096-0.26666-0.064-0.69333-0.064-0.27734 0-0.55467 0.064-0.26667 0.05333-0.352 0.07467v4.6613h-0.992v-5.312q0.352-0.128 0.87467-0.23467 0.52266-0.11733 1.1733-0.11733z"/></g></svg>
