<svg enable-background="new 0 0 600 600" version="1.1" viewBox="0 0 70 69.999878" xmlns="http://www.w3.org/2000/svg">
    <path id="XMLID_12_" d="M 57.86613,69.99988 H 12.13374 C 5.46021,69.99988 0,64.53967 0,57.86614 V 12.13374 C 0,5.46021 5.46021,0 12.13374,0 H 57.86626 C 64.53979,0 70,5.46021 70,12.13374 v 45.73252 c -1.2e-4,6.67341 -5.46033,12.13362 -12.13387,12.13362 z" fill="#30c1f1" stroke-width=".124725"/>
    <g fill="#fff" stroke-width=".124725">
        <path id="XMLID_7_" d="m43.2233 17.20069c0.72777 0 1.44482 0.0451 2.15126 0.12498v-5.90161c-0.81034-0.0801-1.63203-0.12186-2.46344-0.12186-13.66287 0-24.73895 11.07595-24.73895 24.73894 0 0.57162 0.0211 1.13824 0.0593 1.70013h6.11925c-0.044-0.52671-0.0718-1.05804-0.0718-1.59611 0-10.46267 8.4818-18.94447 18.94447-18.94447z"/>
        <path id="XMLID_9_" d="m43.18863 25.49328c0.75034 0 1.48111 0.0823 2.18593 0.23448v-5.30492c-0.81346-0.13209-1.64737-0.20355-2.49824-0.20355-8.54653 0-15.47487 6.92834-15.47487 15.47487 0 0.69447 0.0504 1.37684 0.13894 2.04711h5.52856c-0.12011-0.62949-0.18547-1.27856-0.18547-1.94309 2.5e-4 -5.6912 4.61383-10.3049 10.30515-10.3049z"/>
        <circle id="XMLID_11_" cx="41.868427" cy="34.238617" r="4.0578012"/>
        <path id="XMLID_13_" d="m44.26076 40.65584h-4.78469c-0.91598 0-1.66546 0.74947-1.66546 1.66545v13.94238c0 0.91598 0.74948 1.66545 1.66546 1.66545h4.78469c0.91598 0 1.66546-0.74947 1.66546-1.66545v-13.94238c0-0.91598-0.74948-1.66545-1.66546-1.66545z"/>
    </g>
</svg>
