<!-- Created with Inkscape (http://www.inkscape.org/) -->
<svg width="85.638mm" height="19.068mm" version="1.1" viewBox="0 0 85.638 19.068" xmlns="http://www.w3.org/2000/svg">
 <rect width="85.638" height="19.068" rx="0" ry="0" fill="#483737" stroke-width="1.0207"/>
 <g transform="matrix(.26458 0 0 .26458 12.628 4.9455)" fill="#f60" stroke-width="5.2233" style="shape-inside:url(#rect9105);white-space:pre" aria-label="JetBrains Systray Placeholeder">
  <path d="m0.33297 18.574q0 0.86666-0.19067 1.612-0.17333 0.74533-0.64133 1.3173-0.45067 0.55467-1.2307 0.884-0.76267 0.312-1.924 0.312-0.58933 0-1.092-0.104-0.48533-0.08667-0.884-0.22533-0.39867-0.156-0.69333-0.312-0.29467-0.17333-0.468-0.32933l0.65867-1.3347q0.364 0.26 0.936 0.55467 0.58933 0.27733 1.456 0.27733 1.248 0 1.82-0.624 0.572-0.64133 0.572-2.184v-7.9907h1.6813z"/>
  <path d="m2.6209 17.95q0-1.196 0.34667-2.08 0.34667-0.90133 0.91866-1.4907t1.3173-0.884 1.5253-0.29467q1.82 0 2.7907 1.144 0.97066 1.1267 0.97066 3.4493 0 0.104 0 0.27733 0 0.156-0.01733 0.29467h-6.1707q0.104 1.404 0.81467 2.132 0.71067 0.728 2.2187 0.728 0.84933 0 1.4213-0.13867 0.58933-0.156 0.884-0.29467l0.22533 1.352q-0.29467 0.156-1.04 0.32933-0.728 0.17333-1.664 0.17333-1.1787 0-2.0453-0.34667-0.84933-0.364-1.404-0.988t-0.832-1.4733q-0.26-0.86666-0.26-1.8893zm6.188-0.884q0.017333-1.092-0.55467-1.7853-0.55467-0.71067-1.5427-0.71067-0.55467 0-0.988 0.22533-0.416 0.208-0.71067 0.55467t-0.468 0.79733q-0.156 0.45066-0.208 0.91866z"/>
  <path d="m14.321 13.426h3.4147v1.352h-3.4147v4.16q0 0.676 0.104 1.1267 0.104 0.43333 0.312 0.69333 0.208 0.24267 0.52 0.34667 0.312 0.104 0.728 0.104 0.728 0 1.1613-0.156 0.45067-0.17333 0.624-0.24267l0.312 1.3347q-0.24267 0.12133-0.84933 0.29467-0.60667 0.19067-1.3867 0.19067-0.91866 0-1.5253-0.22533-0.58933-0.24267-0.95333-0.71067-0.364-0.468-0.52-1.144-0.13867-0.69333-0.13867-1.5947v-8.0427l1.612-0.27733z"/>
  <path d="m23.126 22.543q-0.364 0-0.79733-0.01733-0.416-0.01733-0.84933-0.052-0.416-0.03467-0.832-0.08667t-0.76266-0.13867v-11.648q0.34667-0.08667 0.76266-0.13867 0.416-0.052 0.832-0.08667 0.43333-0.03467 0.84933-0.052t0.78-0.01733q1.04 0 1.9413 0.156 0.91866 0.156 1.5773 0.53733 0.676 0.364 1.0573 0.97066 0.38133 0.60667 0.38133 1.4907 0 0.988-0.468 1.6293-0.468 0.624-1.248 0.936 1.0573 0.312 1.6813 0.988 0.624 0.676 0.624 1.9067 0 1.8027-1.3347 2.7213-1.3173 0.90133-4.1947 0.90133zm-1.5773-5.7027v4.2293q0.19067 0.01733 0.45067 0.03467 0.22533 0.01733 0.52 0.03467 0.312 0 0.71066 0 0.74533 0 1.404-0.08667 0.676-0.104 1.1787-0.34667 0.50267-0.24267 0.79733-0.676 0.312-0.43333 0.312-1.092 0-0.58933-0.22533-0.988-0.22533-0.416-0.65866-0.65867-0.416-0.24267-1.0053-0.34667-0.58933-0.104-1.3173-0.104zm0-1.352h1.768q0.624 0 1.1787-0.08667 0.55467-0.08667 0.95333-0.312 0.416-0.22533 0.64133-0.58933 0.24267-0.364 0.24267-0.91866 0-0.52-0.24267-0.86666-0.24267-0.364-0.676-0.572-0.416-0.22533-0.988-0.32933-0.572-0.104-1.2133-0.104t-1.0053 0.01733q-0.364 0.01733-0.65867 0.052z"/>
  <path d="m34.254 13.235q0.208 0 0.468 0.03467 0.27733 0.01733 0.53733 0.06933 0.26 0.03467 0.468 0.08667 0.22533 0.03467 0.32933 0.06933l-0.27733 1.404q-0.19067-0.06933-0.64133-0.156-0.43333-0.104-1.1267-0.104-0.45067 0-0.90133 0.104-0.43333 0.08667-0.572 0.12133v7.5747h-1.612v-8.632q0.572-0.208 1.4213-0.38133 0.84933-0.19067 1.9067-0.19067z"/>
  <path d="m40.667 21.278q0.572 0 1.0053-0.01733 0.45066-0.03467 0.74533-0.104v-2.6867q-0.17333-0.08667-0.572-0.13867-0.38133-0.06933-0.936-0.06933-0.364 0-0.78 0.052-0.39867 0.052-0.74533 0.22533-0.32933 0.156-0.55467 0.45067-0.22533 0.27733-0.22533 0.74533 0 0.86666 0.55467 1.2133 0.55467 0.32933 1.508 0.32933zm-0.13867-8.0773q0.97066 0 1.6293 0.26 0.676 0.24267 1.0747 0.71066 0.416 0.45067 0.58933 1.092 0.17333 0.624 0.17333 1.3867v5.6333q-0.208 0.03467-0.58933 0.104-0.364 0.052-0.832 0.104t-1.0227 0.08667q-0.53733 0.052-1.0747 0.052-0.76266 0-1.404-0.156-0.64133-0.156-1.1093-0.48533-0.468-0.34667-0.728-0.90133-0.26-0.55467-0.26-1.3347 0-0.74533 0.29467-1.2827 0.312-0.53733 0.832-0.86666 0.52-0.32933 1.2133-0.48533 0.69333-0.156 1.456-0.156 0.24267 0 0.50267 0.03467 0.26 0.01733 0.48533 0.06933 0.24267 0.03467 0.416 0.06933 0.17333 0.03467 0.24267 0.052v-0.45067q0-0.39867-0.08667-0.78-0.08667-0.39867-0.312-0.69333-0.22533-0.312-0.624-0.48533-0.38133-0.19067-1.0053-0.19067-0.79733 0-1.404 0.12133-0.58933 0.104-0.884 0.22533l-0.19067-1.3347q0.312-0.13867 1.04-0.26 0.728-0.13867 1.5773-0.13867z"/>
  <path d="m48.277 22.439h-1.612v-9.0133h1.612zm-0.81466-10.643q-0.43333 0-0.74533-0.27733-0.29467-0.29467-0.29467-0.78t0.29467-0.76267q0.312-0.29467 0.74533-0.29467t0.728 0.29467q0.312 0.27733 0.312 0.76267t-0.312 0.78q-0.29467 0.27733-0.728 0.27733z"/>
  <path d="m51.05 13.686q0.55467-0.13867 1.4733-0.29467 0.91866-0.156 2.1147-0.156 1.0747 0 1.7853 0.312 0.71066 0.29467 1.1267 0.84933 0.43333 0.53733 0.60667 1.3t0.17333 1.6813v5.0613h-1.612v-4.7147q0-0.832-0.12133-1.4213-0.104-0.58933-0.364-0.95333-0.26-0.364-0.69333-0.52-0.43333-0.17333-1.0747-0.17333-0.26 0-0.53733 0.01733t-0.53733 0.052q-0.24267 0.01733-0.45067 0.052-0.19067 0.03467-0.27733 0.052v7.6093h-1.612z"/>
  <path d="m63.097 21.278q0.988 0 1.456-0.26 0.48533-0.26 0.48533-0.832 0-0.58933-0.468-0.936-0.468-0.34667-1.5427-0.78-0.52-0.208-1.0053-0.416-0.468-0.22533-0.81466-0.52-0.34667-0.29467-0.55466-0.71067-0.208-0.416-0.208-1.0227 0-1.196 0.884-1.8893 0.884-0.71066 2.4093-0.71066 0.38133 0 0.76266 0.052 0.38133 0.03467 0.71067 0.104 0.32933 0.052 0.572 0.12133 0.26 0.06933 0.39867 0.12133l-0.29467 1.3867q-0.26-0.13867-0.81466-0.27733-0.55466-0.156-1.3347-0.156-0.676 0-1.1787 0.27733-0.50267 0.26-0.50267 0.832 0 0.29467 0.104 0.52 0.12133 0.22533 0.34667 0.416 0.24267 0.17333 0.58933 0.32933t0.832 0.32933q0.64133 0.24267 1.144 0.48533 0.50267 0.22533 0.84933 0.53733 0.364 0.312 0.55466 0.76267 0.19067 0.43333 0.19067 1.0747 0 1.248-0.936 1.8893-0.91866 0.64133-2.6347 0.64133-1.196 0-1.872-0.208-0.676-0.19067-0.91866-0.29467l0.29467-1.3867q0.27733 0.104 0.884 0.312 0.60667 0.208 1.612 0.208z"/>
  <path d="m75.629 21.243q2.6347 0 2.6347-1.8027 0-0.55467-0.24267-0.936-0.22533-0.39867-0.624-0.676-0.39867-0.29467-0.91866-0.50267-0.50267-0.208-1.0747-0.416-0.65866-0.22533-1.248-0.50267-0.58933-0.29467-1.0227-0.676-0.43333-0.39866-0.69333-0.936-0.24267-0.53733-0.24267-1.3 0-1.5773 1.0747-2.4613 1.0747-0.884 2.964-0.884 1.092 0 1.976 0.24267 0.90133 0.22533 1.3173 0.50267l-0.53733 1.3693q-0.364-0.22533-1.092-0.43333-0.71067-0.22533-1.664-0.22533-0.48533 0-0.90133 0.104t-0.728 0.312q-0.312 0.208-0.50267 0.53733-0.17333 0.312-0.17333 0.74533 0 0.48533 0.19067 0.81467 0.19067 0.32933 0.53733 0.58933 0.34667 0.24267 0.79733 0.45067 0.468 0.208 1.0227 0.416 0.78 0.312 1.4213 0.624 0.65866 0.312 1.1267 0.74533 0.48533 0.43333 0.74533 1.04 0.26 0.58933 0.26 1.4387 0 1.5773-1.1613 2.4267-1.144 0.84933-3.2413 0.84933-0.71066 0-1.3173-0.104-0.58933-0.08667-1.0573-0.208-0.468-0.13867-0.81466-0.27733-0.32933-0.156-0.52-0.26l0.50267-1.3867q0.39867 0.22533 1.2133 0.50267t1.9933 0.27733z"/>
  <path d="m80.898 24.121q0.19067 0.08667 0.48533 0.156 0.312 0.08667 0.60666 0.08667 0.95333 0 1.4907-0.43333 0.53733-0.416 0.97066-1.3693-1.092-2.08-2.0453-4.4027-0.936-2.34-1.56-4.732h1.7333q0.19067 0.78 0.45066 1.6813 0.27733 0.90133 0.60667 1.8547 0.32933 0.95333 0.71066 1.9067 0.38133 0.95333 0.79733 1.8373 0.65866-1.82 1.144-3.6053 0.48533-1.7853 0.91866-3.6747h1.664q-0.624 2.548-1.3867 4.9053-0.76266 2.34-1.6467 4.3853-0.34667 0.78-0.728 1.3347-0.364 0.572-0.81466 0.936-0.45067 0.364-1.0227 0.53733-0.55467 0.17333-1.2653 0.17333-0.19067 0-0.39867-0.03467-0.208-0.01733-0.416-0.06933-0.19067-0.03467-0.364-0.08667-0.156-0.052-0.22533-0.08667z"/>
  <path d="m92.667 21.278q0.988 0 1.456-0.26 0.48533-0.26 0.48533-0.832 0-0.58933-0.468-0.936t-1.5427-0.78q-0.52-0.208-1.0053-0.416-0.468-0.22533-0.81466-0.52-0.34667-0.29467-0.55467-0.71067t-0.208-1.0227q0-1.196 0.884-1.8893 0.884-0.71066 2.4093-0.71066 0.38133 0 0.76267 0.052 0.38133 0.03467 0.71066 0.104 0.32933 0.052 0.572 0.12133 0.26 0.06933 0.39867 0.12133l-0.29467 1.3867q-0.26-0.13867-0.81467-0.27733-0.55466-0.156-1.3347-0.156-0.676 0-1.1787 0.27733-0.50267 0.26-0.50267 0.832 0 0.29467 0.104 0.52 0.12133 0.22533 0.34667 0.416 0.24267 0.17333 0.58933 0.32933t0.832 0.32933q0.64133 0.24267 1.144 0.48533 0.50267 0.22533 0.84933 0.53733 0.364 0.312 0.55467 0.76267 0.19067 0.43333 0.19067 1.0747 0 1.248-0.936 1.8893-0.91866 0.64133-2.6347 0.64133-1.196 0-1.872-0.208-0.676-0.19067-0.91866-0.29467l0.29467-1.3867q0.27733 0.104 0.884 0.312 0.60667 0.208 1.612 0.208z"/>
  <path d="m99.809 13.426h3.4147v1.352h-3.4147v4.16q0 0.676 0.104 1.1267 0.104 0.43333 0.312 0.69333 0.208 0.24267 0.52 0.34667t0.728 0.104q0.728 0 1.1613-0.156 0.45067-0.17333 0.624-0.24267l0.312 1.3347q-0.24266 0.12133-0.84933 0.29467-0.60667 0.19067-1.3867 0.19067-0.91867 0-1.5253-0.22533-0.58933-0.24267-0.95333-0.71067-0.364-0.468-0.52-1.144-0.13867-0.69333-0.13867-1.5947v-8.0427l1.612-0.27733z"/>
  <path d="m108.6 13.235q0.208 0 0.468 0.03467 0.27733 0.01733 0.53733 0.06933 0.26 0.03467 0.468 0.08667 0.22533 0.03467 0.32933 0.06933l-0.27733 1.404q-0.19067-0.06933-0.64134-0.156-0.43333-0.104-1.1267-0.104-0.45067 0-0.90133 0.104-0.43333 0.08667-0.572 0.12133v7.5747h-1.612v-8.632q0.572-0.208 1.4213-0.38133 0.84934-0.19067 1.9067-0.19067z"/>
  <path d="m115.01 21.278q0.572 0 1.0053-0.01733 0.45066-0.03467 0.74533-0.104v-2.6867q-0.17334-0.08667-0.572-0.13867-0.38133-0.06933-0.936-0.06933-0.364 0-0.78 0.052-0.39866 0.052-0.74533 0.22533-0.32933 0.156-0.55467 0.45067-0.22533 0.27733-0.22533 0.74533 0 0.86666 0.55467 1.2133 0.55466 0.32933 1.508 0.32933zm-0.13866-8.0773q0.97066 0 1.6293 0.26 0.676 0.24267 1.0747 0.71066 0.416 0.45067 0.58934 1.092 0.17333 0.624 0.17333 1.3867v5.6333q-0.208 0.03467-0.58933 0.104-0.364 0.052-0.832 0.104t-1.0227 0.08667q-0.53733 0.052-1.0747 0.052-0.76267 0-1.404-0.156t-1.1093-0.48533q-0.468-0.34667-0.728-0.90133t-0.26-1.3347q0-0.74533 0.29467-1.2827 0.312-0.53733 0.832-0.86666 0.52-0.32933 1.2133-0.48533 0.69333-0.156 1.456-0.156 0.24267 0 0.50267 0.03467 0.26 0.01733 0.48533 0.06933 0.24267 0.03467 0.416 0.06933 0.17333 0.03467 0.24267 0.052v-0.45067q0-0.39867-0.0867-0.78-0.0867-0.39867-0.312-0.69333-0.22533-0.312-0.624-0.48533-0.38133-0.19067-1.0053-0.19067-0.79733 0-1.404 0.12133-0.58933 0.104-0.88399 0.22533l-0.19067-1.3347q0.312-0.13867 1.04-0.26 0.728-0.13867 1.5773-0.13867z"/>
  <path d="m119.69 24.121q0.19067 0.08667 0.48533 0.156 0.312 0.08667 0.60667 0.08667 0.95333 0 1.4907-0.43333 0.53734-0.416 0.97067-1.3693-1.092-2.08-2.0453-4.4027-0.936-2.34-1.56-4.732h1.7333q0.19067 0.78 0.45067 1.6813 0.27733 0.90133 0.60666 1.8547 0.32934 0.95333 0.71067 1.9067 0.38133 0.95333 0.79733 1.8373 0.65866-1.82 1.144-3.6053 0.48533-1.7853 0.91866-3.6747h1.664q-0.624 2.548-1.3867 4.9053-0.76266 2.34-1.6467 4.3853-0.34666 0.78-0.728 1.3347-0.364 0.572-0.81466 0.936-0.45067 0.364-1.0227 0.53733-0.55466 0.17333-1.2653 0.17333-0.19066 0-0.39866-0.03467-0.208-0.01733-0.416-0.06933-0.19067-0.03467-0.364-0.08667-0.156-0.052-0.22534-0.08667z"/>
  <path d="m136.66 10.306q2.5307 0 3.8827 0.97066 1.3693 0.95333 1.3693 2.86 0 1.04-0.38133 1.7853-0.364 0.728-1.0747 1.196-0.69333 0.45067-1.6987 0.65867-1.0053 0.208-2.2707 0.208h-1.3347v4.4547h-1.6813v-11.839q0.71067-0.17333 1.5773-0.22533 0.884-0.06933 1.612-0.06933zm0.13867 1.4733q-1.0747 0-1.6467 0.052v4.7147h1.2653q0.86667 0 1.56-0.104 0.69333-0.12133 1.1613-0.38133 0.48534-0.27733 0.74533-0.74533 0.26-0.468 0.26-1.196 0-0.69333-0.27733-1.144-0.26-0.45067-0.728-0.71067-0.45066-0.27733-1.0573-0.38133-0.60666-0.104-1.2827-0.104z"/>
  <path d="m146.61 22.613q-1.4907-0.03467-2.1147-0.64133-0.624-0.60666-0.624-1.8893v-10.816l1.612-0.27733v10.833q0 0.39867 0.0693 0.65867 0.0693 0.26 0.22534 0.416 0.156 0.156 0.41599 0.24267 0.26 0.06933 0.64134 0.12133z"/>
  <path d="m151.69 21.278q0.572 0 1.0053-0.01733 0.45067-0.03467 0.74533-0.104v-2.6867q-0.17333-0.08667-0.572-0.13867-0.38133-0.06933-0.93599-0.06933-0.364 0-0.78 0.052-0.39867 0.052-0.74533 0.22533-0.32934 0.156-0.55467 0.45067-0.22533 0.27733-0.22533 0.74533 0 0.86666 0.55466 1.2133 0.55467 0.32933 1.508 0.32933zm-0.13867-8.0773q0.97067 0 1.6293 0.26 0.676 0.24267 1.0747 0.71066 0.416 0.45067 0.58933 1.092 0.17333 0.624 0.17333 1.3867v5.6333q-0.208 0.03467-0.58933 0.104-0.364 0.052-0.832 0.104t-1.0227 0.08667q-0.53733 0.052-1.0747 0.052-0.76266 0-1.404-0.156-0.64134-0.156-1.1093-0.48533-0.46799-0.34667-0.72799-0.90133t-0.26-1.3347q0-0.74533 0.29466-1.2827 0.312-0.53733 0.832-0.86666 0.52-0.32933 1.2133-0.48533 0.69333-0.156 1.456-0.156 0.24267 0 0.50267 0.03467 0.25999 0.01733 0.48533 0.06933 0.24266 0.03467 0.416 0.06933 0.17333 0.03467 0.24266 0.052v-0.45067q0-0.39867-0.0867-0.78-0.0867-0.39867-0.312-0.69333-0.22534-0.312-0.624-0.48533-0.38133-0.19067-1.0053-0.19067-0.79734 0-1.404 0.12133-0.58933 0.104-0.884 0.22533l-0.19067-1.3347q0.312-0.13867 1.04-0.26 0.728-0.13867 1.5773-0.13867z"/>
  <path d="m161.6 22.647q-1.092 0-1.924-0.34667-0.81466-0.34667-1.3867-0.97066-0.55467-0.624-0.832-1.4733-0.27733-0.86666-0.27733-1.9067t0.29466-1.9067q0.312-0.86666 0.86667-1.4907 0.55466-0.64133 1.352-0.988 0.81466-0.364 1.8027-0.364 0.60666 0 1.2133 0.104 0.60666 0.104 1.1613 0.32933l-0.364 1.3693q-0.364-0.17333-0.84933-0.27733-0.468-0.104-1.0053-0.104-1.352 0-2.08 0.84933-0.71066 0.84933-0.71066 2.4787 0 0.728 0.156 1.3347 0.17333 0.60666 0.52 1.04 0.36399 0.43333 0.91866 0.676 0.55467 0.22533 1.352 0.22533 0.64133 0 1.1613-0.12133t0.81466-0.26l0.22534 1.352q-0.13867 0.08667-0.39867 0.17333-0.26 0.06933-0.58933 0.12133-0.32933 0.06933-0.71067 0.104-0.364 0.052-0.71066 0.052z"/>
  <path d="m165.24 17.95q0-1.196 0.34666-2.08 0.34667-0.90133 0.91867-1.4907t1.3173-0.884 1.5253-0.29467q1.82 0 2.7907 1.144 0.97067 1.1267 0.97067 3.4493 0 0.104 0 0.27733 0 0.156-0.0173 0.29467h-6.1706q0.104 1.404 0.81466 2.132 0.71067 0.728 2.2187 0.728 0.84933 0 1.4213-0.13867 0.58933-0.156 0.88399-0.29467l0.22534 1.352q-0.29467 0.156-1.04 0.32933-0.728 0.17333-1.664 0.17333-1.1787 0-2.0453-0.34667-0.84933-0.364-1.404-0.988-0.55467-0.624-0.832-1.4733-0.26-0.86666-0.26-1.8893zm6.188-0.884q0.0173-1.092-0.55467-1.7853-0.55466-0.71067-1.5427-0.71067-0.55467 0-0.988 0.22533-0.416 0.208-0.71067 0.55467-0.29466 0.34667-0.468 0.79733-0.15599 0.45066-0.20799 0.91866z"/>
  <path d="m175.43 22.439v-13.173l1.612-0.27733v4.6107q0.45067-0.17333 0.95333-0.26 0.52-0.104 1.0227-0.104 1.0747 0 1.7853 0.312 0.71066 0.29467 1.1267 0.84933 0.43333 0.53733 0.60667 1.3 0.17333 0.76266 0.17333 1.6813v5.0613h-1.612v-4.7147q0-0.832-0.12133-1.4213-0.104-0.58933-0.364-0.95333t-0.69333-0.52q-0.43333-0.17333-1.0747-0.17333-0.26 0-0.53733 0.03467t-0.53733 0.08667q-0.24267 0.03467-0.45067 0.08667-0.19066 0.052-0.27733 0.08667v7.488z"/>
  <path d="m193.29 17.933q0 1.0747-0.312 1.9413t-0.884 1.4907q-0.55467 0.624-1.3347 0.97066-0.78 0.32933-1.6987 0.32933-0.91866 0-1.6987-0.32933-0.78-0.34667-1.352-0.97066-0.55466-0.624-0.86666-1.4907t-0.312-1.9413q0-1.0573 0.312-1.924 0.312-0.884 0.86666-1.508 0.572-0.624 1.352-0.95333 0.78-0.34667 1.6987-0.34667 0.91867 0 1.6987 0.34667 0.77999 0.32933 1.3347 0.95333 0.572 0.624 0.884 1.508 0.312 0.86666 0.312 1.924zm-1.6813 0q0-1.5253-0.69333-2.4093-0.676-0.90133-1.8547-0.90133-1.1787 0-1.872 0.90133-0.676 0.884-0.676 2.4093 0 1.5253 0.676 2.4267 0.69333 0.884 1.872 0.884 1.1787 0 1.8547-0.884 0.69333-0.90133 0.69333-2.4267z"/>
  <path d="m198.26 22.613q-1.4907-0.03467-2.1147-0.64133-0.624-0.60666-0.624-1.8893v-10.816l1.612-0.27733v10.833q0 0.39867 0.0693 0.65867 0.0693 0.26 0.22534 0.416 0.156 0.156 0.416 0.24267 0.26 0.06933 0.64133 0.12133z"/>
  <path d="m199.79 17.95q0-1.196 0.34667-2.08 0.34667-0.90133 0.91867-1.4907 0.57199-0.58933 1.3173-0.884 0.74533-0.29467 1.5253-0.29467 1.82 0 2.7907 1.144 0.97066 1.1267 0.97066 3.4493 0 0.104 0 0.27733 0 0.156-0.0173 0.29467h-6.1707q0.104 1.404 0.81467 2.132 0.71066 0.728 2.2187 0.728 0.84933 0 1.4213-0.13867 0.58933-0.156 0.884-0.29467l0.22533 1.352q-0.29466 0.156-1.04 0.32933-0.728 0.17333-1.664 0.17333-1.1787 0-2.0453-0.34667-0.84933-0.364-1.404-0.988-0.55466-0.624-0.832-1.4733-0.26-0.86666-0.26-1.8893zm6.188-0.884q0.0173-1.092-0.55466-1.7853-0.55467-0.71067-1.5427-0.71067-0.55466 0-0.98799 0.22533-0.416 0.208-0.71067 0.55467t-0.468 0.79733q-0.156 0.45066-0.208 0.91866z"/>
  <path d="m215.8 15.333q-0.29467-0.24267-0.84933-0.468-0.55467-0.22533-1.2133-0.22533-0.69334 0-1.196 0.26-0.48533 0.24267-0.79733 0.69333-0.312 0.43333-0.45067 1.04-0.13867 0.60666-0.13867 1.3 0 1.5773 0.78 2.444 0.78 0.84933 2.08 0.84933 0.65866 0 1.092-0.052 0.45066-0.06933 0.69333-0.13867zm0-6.0667 1.612-0.27733v13.191q-0.55467 0.156-1.4213 0.312-0.86667 0.156-1.9933 0.156-1.04 0-1.872-0.32933-0.832-0.32933-1.4213-0.936-0.58933-0.60666-0.91867-1.4733-0.312-0.884-0.312-1.976 0-1.04 0.26-1.9067 0.27734-0.86666 0.79734-1.4907 0.51999-0.624 1.2653-0.97066 0.76266-0.34667 1.7333-0.34667 0.78 0 1.3693 0.208 0.60666 0.208 0.90133 0.39866z"/>
  <path d="m219.69 17.95q0-1.196 0.34667-2.08 0.34666-0.90133 0.91866-1.4907t1.3173-0.884 1.5253-0.29467q1.82 0 2.7907 1.144 0.97067 1.1267 0.97067 3.4493 0 0.104 0 0.27733 0 0.156-0.0173 0.29467h-6.1706q0.104 1.404 0.81466 2.132 0.71067 0.728 2.2187 0.728 0.84933 0 1.4213-0.13867 0.58933-0.156 0.884-0.29467l0.22533 1.352q-0.29467 0.156-1.04 0.32933-0.728 0.17333-1.664 0.17333-1.1787 0-2.0453-0.34667-0.84933-0.364-1.404-0.988-0.55467-0.624-0.832-1.4733-0.26-0.86666-0.26-1.8893zm6.188-0.884q0.0173-1.092-0.55467-1.7853-0.55466-0.71067-1.5427-0.71067-0.55467 0-0.988 0.22533-0.416 0.208-0.71067 0.55467-0.29466 0.34667-0.46799 0.79733-0.156 0.45066-0.208 0.91866z"/>
  <path d="m233.21 13.235q0.208 0 0.468 0.03467 0.27733 0.01733 0.53733 0.06933 0.26 0.03467 0.468 0.08667 0.22533 0.03467 0.32933 0.06933l-0.27733 1.404q-0.19067-0.06933-0.64133-0.156-0.43334-0.104-1.1267-0.104-0.45066 0-0.90133 0.104-0.43333 0.08667-0.572 0.12133v7.5747h-1.612v-8.632q0.57199-0.208 1.4213-0.38133 0.84933-0.19067 1.9067-0.19067z"/>
 </g>
</svg>
