<?xml version="1.0" encoding="UTF-8" standalone="no"?>
<!-- Created with Inkscape (http://www.inkscape.org/) -->

<svg
   version="1.1"
   id="svg2"
   width="494.68509"
   height="137.8176"
   viewBox="0 0 494.68509 137.8176"
   sodipodi:docname="keepassxc_systray.svg"
   inkscape:version="1.2.2 (b0a8486541, 2022-12-01)"
   inkscape:export-filename="systray.svg"
   inkscape:export-xdpi="96"
   inkscape:export-ydpi="96"
   xml:space="preserve"
   xmlns:inkscape="http://www.inkscape.org/namespaces/inkscape"
   xmlns:sodipodi="http://sodipodi.sourceforge.net/DTD/sodipodi-0.dtd"
   xmlns="http://www.w3.org/2000/svg"
   xmlns:svg="http://www.w3.org/2000/svg"><defs
     id="defs6"><linearGradient
       id="e"
       x1="63.999802"
       y1="-3.3139999"
       x2="63.999802"
       y2="118.486"
       gradientUnits="userSpaceOnUse"><stop
         offset="0"
         stop-color="#414141"
         id="stop1777" /><stop
         offset=".196"
         stop-color="#3e3e3e"
         id="stop1779" /><stop
         offset="1"
         stop-color="#3a3a3a"
         id="stop1781" /></linearGradient><radialGradient
       id="g"
       cx="-237.6422"
       cy="32.9151"
       fx="-237.6422"
       fy="32.9151"
       r="207.2339"
       gradientTransform="matrix(0.3539,0,0,0.3539,144.2833,41.6546)"
       gradientUnits="userSpaceOnUse"><stop
         offset=".6733"
         stop-color="#fcfcfc"
         stop-opacity="0"
         id="stop1784" /><stop
         offset="1"
         stop-color="#fcfcfc"
         id="stop1786" /></radialGradient><radialGradient
       id="i"
       cx="-229.2964"
       cy="60.2127"
       fx="-229.2964"
       fy="60.2127"
       r="172.3893"
       gradientTransform="matrix(0.3539,0,0,0.3539,144.2833,41.6546)"
       gradientUnits="userSpaceOnUse"><stop
         offset=".1088"
         stop-color="#0f0f0d"
         stop-opacity="0"
         id="stop1789" /><stop
         offset=".8856"
         stop-color="#414141"
         stop-opacity="0"
         id="stop1791" /><stop
         offset=".9339"
         stop-color="#1e1e1d"
         stop-opacity=".6841"
         id="stop1793" /><stop
         offset=".9874"
         stop-color="#0f0f0d"
         id="stop1795" /></radialGradient><radialGradient
       id="n"
       cx="-223.5509"
       cy="-43.152199"
       fx="-223.5509"
       fy="-43.152199"
       r="334.8364"
       gradientTransform="matrix(0.3539,0,0,0.2026,144.2833,35.1949)"
       gradientUnits="userSpaceOnUse"><stop
         offset="0"
         stop-color="#2e6b26"
         id="stop1798" /><stop
         offset="1"
         stop-color="#6ab536"
         id="stop1800" /></radialGradient><radialGradient
       id="p"
       cx="-212.61391"
       cy="12.0576"
       fx="-212.61391"
       fy="12.0576"
       r="148.1098"
       gradientTransform="matrix(0.3539,0,0,0.4347,144.2833,40.66)"
       gradientUnits="userSpaceOnUse"><stop
         offset="0"
         stop-color="#000"
         id="stop1803" /><stop
         offset=".7192"
         stop-color="#fff"
         id="stop1805" /></radialGradient><radialGradient
       id="r"
       cx="-226.05611"
       cy="-44.9179"
       fx="-226.05611"
       fy="-44.9179"
       r="65.392502"
       gradientTransform="matrix(0.3539,0,0,0.3539,144.2833,41.6546)"
       gradientUnits="userSpaceOnUse"><stop
         offset="0"
         stop-color="#6ab536"
         id="stop1808" /><stop
         offset="1"
         stop-color="#2e6b26"
         id="stop1810" /></radialGradient><radialGradient
       id="t"
       cx="-263.9234"
       cy="-1.8335"
       fx="-263.9234"
       fy="-1.8335"
       r="96.585098"
       gradientTransform="matrix(0.3356,0,0,0.5572,152.4899,40.1419)"
       gradientUnits="userSpaceOnUse"><stop
         offset="0"
         stop-color="#000"
         id="stop1813" /><stop
         offset=".7842"
         stop-color="#4f4f4f"
         stop-opacity="0"
         id="stop1815" /></radialGradient><radialGradient
       id="w"
       cx="-227.4489"
       cy="-64.572701"
       fx="-227.4489"
       fy="-64.572701"
       r="223.5101"
       gradientTransform="matrix(0.3539,0,0,0.3539,144.2833,41.6546)"
       gradientUnits="userSpaceOnUse"><stop
         offset="0"
         stop-color="#f5f5f5"
         id="stop1818" /><stop
         offset="1"
         stop-color="#e3e3e3"
         id="stop1820" /></radialGradient><style
       type="text/css"
       id="current-color-scheme">
      .ColorScheme-Text {
        color:#eff0f1;
      }
      </style><linearGradient
       id="linearGradient40329"
       x1="229.14143"
       x2="229.14143"
       y1="113.97903"
       y2="297.1691"
       gradientUnits="userSpaceOnUse"
       gradientTransform="matrix(0.96384361,0,0,0.50620947,-61.314358,-26.136964)"><stop
         stop-color="#2a2e32"
         offset="0"
         id="stop7091" /><stop
         stop-color="#2a2e32"
         offset="1"
         id="stop7093" /></linearGradient><inkscape:path-effect
       effect="fillet_chamfer"
       id="path-effect12561"
       is_visible="true"
       lpeversion="1"
       nodesatellites_param="F,0,1,1,0,4.3723765,0,1 @ F,0,1,1,0,4.3723765,0,1 @ F,0,1,1,0,4.3723765,0,1 @ F,0,1,1,0,4.3723765,0,1 @ F,0,1,1,0,4.3723765,0,1 @ F,0,1,1,0,4.3723765,0,1 @ F,0,1,1,0,4.3723765,0,1"
       unit="px"
       method="auto"
       mode="F"
       radius="0"
       chamfer_steps="1"
       flexible="false"
       use_knot_distance="true"
       apply_no_radius="true"
       apply_with_radius="true"
       only_selected="false"
       hide_knots="false" /><inkscape:path-effect
       effect="fillet_chamfer"
       id="path-effect12549"
       is_visible="true"
       lpeversion="1"
       nodesatellites_param="F,0,1,1,0,5.2358504,0,1 @ F,0,1,1,0,5.2358504,0,1 @ F,0,1,1,0,5.2358504,0,1 @ F,0,1,1,0,5.2358504,0,1 @ F,0,1,1,0,5.2358504,0,1 @ F,0,0,1,0,5.2358504,0,1 @ F,0,1,1,0,5.2358504,0,1"
       unit="px"
       method="auto"
       mode="F"
       radius="0"
       chamfer_steps="1"
       flexible="false"
       use_knot_distance="true"
       apply_no_radius="true"
       apply_with_radius="true"
       only_selected="false"
       hide_knots="false" /></defs><sodipodi:namedview
     id="namedview4"
     pagecolor="#ffffff"
     bordercolor="#666666"
     borderopacity="1.0"
     inkscape:showpageshadow="2"
     inkscape:pageopacity="0.0"
     inkscape:pagecheckerboard="0"
     inkscape:deskcolor="#d1d1d1"
     showgrid="false"
     inkscape:zoom="3.5169634"
     inkscape:cx="120.70071"
     inkscape:cy="76.628604"
     inkscape:window-width="2364"
     inkscape:window-height="1361"
     inkscape:window-x="0"
     inkscape:window-y="0"
     inkscape:window-maximized="0"
     inkscape:current-layer="g8" /><g
     inkscape:groupmode="layer"
     inkscape:label="Image"
     id="g8"
     transform="translate(-0.23509124,-0.08112535)"><path
       style="color:#eff0f1;fill:currentColor;fill-opacity:1;stroke:none;stroke-width:3.07143"
       d="m 137.45648,47.293894 v 6.142857 h -6.14285 -3.07143 v 43 h 3.07143 39.92857 V 93.365323 53.436751 h -3.07143 -6.14286 v -6.142857 z m -6.14285,9.214286 h 3.07142 v 6.142858 h 30.7143 V 56.50818 h 3.07142 v 36.857143 h -36.85714 z m 6.14285,9.214286 v 3.071428 h 24.57143 v -3.071428 z m 0,9.214285 v 3.071429 h 18.42857 v -3.071429 z m 0,9.214287 v 3.071428 h 9.21429 v -3.071428 z"
       class="ColorScheme-Text"
       id="path1030" /><rect
       x="0.68911874"
       y="0.53515285"
       width="493.77704"
       height="136.90955"
       ry="4.8634086"
       fill="url(#linearGradient40329)"
       stroke="#888888"
       stroke-width="0.908055"
       id="rect7098"
       style="fill:url(#linearGradient40329)" /><g
       class="ColorScheme-Text"
       fill="currentColor"
       id="g331"
       style="color:#eff0f1"
       transform="matrix(4,0,0,4,219.41576,39.497007)"><path
         d="M 8,2 4,6 v 4 l 4,4 H 9 V 2 Z"
         id="path323" /><path
         d="m 2,6 v 4 H 3 V 6 Z"
         id="path325" /><path
         d="M 10.128906,4.615234 9.7988281,5.603516 A 3,3 0 0 1 11,8 3,3 0 0 1 9.7988281,10.396484 l 0.3281249,0.984375 A 4,4 0 0 0 12,8 4,4 0 0 0 10.128906,4.615234 Z"
         id="path327" /><path
         d="m 9.9453125,2.332031 -0.1679687,1 A 5,5 0 0 1 13,8 5,5 0 0 1 9.7792969,12.671875 l 0.1660156,0.998047 A 6,6 0 0 0 14,8 6,6 0 0 0 9.9453125,2.332031 Z"
         id="path329" /></g><g
       style="isolation:isolate"
       id="g1842"
       transform="matrix(0.5,0,0,0.5,16,40)"><g
         id="b"><g
           id="c"><rect
             width="128"
             height="128"
             style="fill:none"
             id="rect1825"
             x="0"
             y="0" /><g
             id="d"><path
               id="f"
               d="M 63.9999,124.9 C 30.4194,124.9 3.0998,97.5802 3.0998,64 c 0,-33.5802 27.3196,-60.9 60.9001,-60.9 33.5805,0 60.8999,27.3195 60.8999,60.9 0,33.5805 -27.3193,60.9 -60.8999,60.9 z m 0,-116.6759 C 33.2584,8.2241 8.2484,33.2451 8.2484,64 c 0,30.7549 25.01,55.7759 55.7515,55.7759 30.7415,0 55.7512,-25.0212 55.7512,-55.7759 0,-30.7547 -25.0097,-55.7759 -55.7512,-55.7759 z"
               style="fill:url(#e)" /><path
               id="h"
               d="M 63.9999,3.1238 C 30.4325,3.1238 3.1236,30.4327 3.1236,64 c 0,33.5673 27.3089,60.8762 60.8763,60.8762 33.5674,0 60.8761,-27.3091 60.8761,-60.8762 0,-33.5671 -27.3086,-60.8762 -60.8761,-60.8762 z"
               style="opacity:0.32;mix-blend-mode:lighten;fill:url(#g)" /><path
               id="j"
               d="M 63.9999,124.9 C 30.4194,124.9 3.0998,97.5802 3.0998,64 c 0,-33.5802 27.3196,-60.9 60.9001,-60.9 33.5805,0 60.8999,27.3195 60.8999,60.9 0,33.5805 -27.3193,60.9 -60.8999,60.9 z m 0,-116.6759 C 33.2584,8.2241 8.2484,33.2451 8.2484,64 c 0,30.7549 25.01,55.7759 55.7515,55.7759 30.7415,0 55.7512,-25.0212 55.7512,-55.7759 0,-30.7547 -25.0097,-55.7759 -55.7512,-55.7759 z"
               style="opacity:0.44;fill:url(#i)" /><path
               id="k"
               d="m 63.9999,8.5504 c -30.9783,0 -56.1809,25.2025 -56.1809,56.1808 0,30.9783 25.2025,56.1808 56.1809,56.1808 30.9784,0 56.1807,-25.2028 56.1807,-56.1808 0,-30.978 -25.2023,-56.1808 -56.1807,-56.1808 z" /><path
               id="l"
               d="M 63.9999,124.9 C 30.4194,124.9 3.0998,97.5802 3.0998,64 c 0,-33.5802 27.3196,-60.9 60.9001,-60.9 33.5805,0 60.8999,27.3195 60.8999,60.9 0,33.5805 -27.3193,60.9 -60.8999,60.9 z m 0,-120.4966 c -33.5804,0 -60.9001,26.9562 -60.9001,60.0898 0,33.1336 27.3197,60.0898 60.9001,60.0898 33.5804,0 60.8999,-26.9565 60.8999,-60.0898 C 124.8998,31.3599 97.5804,4.4034 64,4.4034 Z"
               style="opacity:0.35;fill:#0f0f0d" /></g><g
             id="m"><path
               id="o"
               d="M 63.9999,8.2241 C 33.2448,8.2241 8.2239,33.245 8.2239,64 c 0,30.755 25.0209,55.7759 55.776,55.7759 30.7551,0 55.7758,-25.0211 55.7758,-55.7759 0,-30.7548 -25.0207,-55.7759 -55.7758,-55.7759 z"
               style="fill:url(#n)" /><path
               id="q"
               d="M 63.9999,8.2241 C 33.2448,8.2241 8.2239,33.245 8.2239,64 c 0,30.755 25.0209,55.7759 55.776,55.7759 30.7551,0 55.7758,-25.0211 55.7758,-55.7759 0,-30.7548 -25.0207,-55.7759 -55.7758,-55.7759 z"
               style="opacity:0.13;mix-blend-mode:multiply;fill:url(#p)" /><path
               id="s"
               d="m 63.9998,12.8613 c -9.1608,0 -16.6136,7.4528 -16.6136,16.6135 0,9.1607 7.4528,16.6135 16.6136,16.6135 9.1608,0 16.6135,-7.4528 16.6135,-16.6135 0,-9.1607 -7.4527,-16.6135 -16.6135,-16.6135 z"
               style="opacity:0.7;mix-blend-mode:lighten;fill:url(#r)" /><path
               id="u"
               d="m 34.6871,16.3645 c -0.0027,0.0191 -0.0054,0.0378 -0.0081,0.0569 -0.0725,0.0136 -0.0736,-0.0037 0.0081,-0.0569 z m 42.1177,35.8001 -0.7714,13.7822 9.1023,9.9165 -9.1023,9.9165 6.0168,6.5549 -6.0168,6.5549 0.7714,13.6696 h -25.61 V 52.1646 C 41.0125,46.9542 34.07,35.6932 34.07,22.7514 c 0,-2.1659 0.3032,-4.1671 0.609,-6.33 1.1046,-0.2082 18.9673,-7.6947 18.9673,-7.6947 -0.1483,0.8092 20.8551,0.8092 20.7068,0 0,0 17.2577,7.4257 18.9891,7.7899 0.438,2.1264 0.5873,4.101 0.5873,6.2348 0,12.9418 -7.0968,24.2029 -17.1248,29.4133 z M 93.3125,16.3645 c 0.0108,0.0511 0.0194,0.1011 0.0299,0.1521 0.1896,0.0399 0.196,-0.0035 -0.0299,-0.1521 z"
               style="opacity:0.3;mix-blend-mode:multiply;fill:url(#t)" /><path
               id="v"
               d="M 34.1161,100.4319 C 24.2184,91.8238 17.9521,79.135 17.9521,64.9351 c 0,-16.5227 8.6409,-31.7744 22.8728,-40.29 -0.2541,1.6523 -0.5083,3.1774 -0.5083,4.8297 0,9.7865 5.7182,18.302 14.1049,22.2421 v 44.6113 l 10.5469,10.5491 10.5469,-10.5491 -0.6354,-9.2781 4.9558,-4.9568 -4.9558,-4.9568 7.4972,-7.4988 -7.4972,-7.4988 0.6354,-10.422 c 8.2596,-3.94 14.1049,-12.4556 14.1049,-22.2421 0,-1.6523 -0.1271,-3.1774 -0.5083,-4.8297 5.1643,3.1178 9.5922,7.1416 13.1419,11.7972 C 93.6697,24.6534 79.7245,16.9836 63.9772,16.9836 c -26.0911,0 -47.2421,21.05 -47.2421,47.0165 0,14.693 6.7736,27.8101 17.3809,36.4318 z m 27.4214,-7.6624 h -3.558 V 57.5634 h 3.558 z M 56.4547,18.7987 c 2.7956,-0.5084 5.7182,-0.7626 8.5138,-0.7626 2.9226,-0.1271 5.7182,0.2542 8.5138,0.7626 0.1271,0.6355 0.2542,1.271 0.2542,1.9064 0,4.8297 -3.9392,8.7698 -8.7679,8.7698 -4.8287,0 -8.7679,-3.94 -8.7679,-8.7698 0,-0.6355 0.1271,-1.2709 0.2542,-1.9064 z"
               style="opacity:0.2;mix-blend-mode:multiply;fill:#0f0f0d" /><path
               id="x"
               d="M 63.9999,8.2241 C 33.2584,8.2241 8.2485,33.245 8.2485,64 c 0,30.755 25.01,55.7759 55.7514,55.7759 30.7414,0 55.7512,-25.0212 55.7512,-55.7759 0,-30.7547 -25.0097,-55.7759 -55.7512,-55.7759 z m -8.5138,9.5882 c 2.7956,-0.5084 5.7182,-0.7626 8.5138,-0.7626 2.9226,-0.1271 5.7182,0.2542 8.5138,0.7626 0.1271,0.6355 0.2542,1.271 0.2542,1.9064 0,4.8297 -3.9392,8.7698 -8.7679,8.7698 -4.8287,0 -8.7679,-3.94 -8.7679,-8.7698 0,-0.6355 0.1271,-1.2709 0.2542,-1.9064 z m 5.0828,38.7648 v 35.2061 h -3.558 V 56.5771 Z m 3.4309,54.3978 c -25.9225,0 -47.0163,-20.9711 -47.0163,-47.0261 0,-16.5227 8.6409,-31.7744 22.8728,-40.29 -0.2541,1.6523 -0.5083,3.1774 -0.5083,4.8297 0,9.7865 5.7182,18.302 14.1049,22.2421 v 44.6113 l 10.5469,10.5491 10.5469,-10.5491 -0.6354,-9.2781 4.9558,-4.9568 -4.9558,-4.9568 7.4972,-7.4988 -7.4972,-7.4988 0.6354,-10.422 c 8.2596,-3.94 14.1049,-12.4556 14.1049,-22.2421 0,-1.6523 -0.1271,-3.1774 -0.5083,-4.8297 14.1049,8.5156 22.7457,23.7673 22.8728,40.29 0,25.9279 -20.9668,47.0261 -47.0163,47.0261 z"
               style="fill:url(#w)" /></g></g></g></g><path
       style="color:#eff0f1;fill:currentColor;fill-opacity:1;stroke:none;stroke-width:4.25"
       d="m 352.92704,46.813225 v 21.41601 l -13.99508,-13.995125 -3.00492,3.00492 15.07424,15.074195 -15.07424,15.07424 3.00492,3.004886 13.99508,-13.995126 v 21.416011 h 4.25 l 12.75,-12.75 -12.75,-12.750011 12.75,-12.75 -12.75,-12.75 z m 4.25,6.00976 6.74028,6.74024 -6.74028,6.740251 z m 0,25.5 6.74028,6.74024 -6.74028,6.740251 z"
       class="ColorScheme-Text"
       id="path1205" /><path
       style="color:#eff0f1;fill:currentColor;fill-opacity:1;stroke:none;stroke-width:3"
       d="m 431.86691,47.98658 v 18 h 6 v 21 c 0,4.986 4.014,9 9,9 h 3 3 6 9 v -3 h -3 -3 v -6 h 3 12 3 v -39 h -3 -27 v 3 h 27 v 30 h -33 v 3 3 h 3 3 v 3 2.1798 0.8202 h -3 c -3.324,0 -6,-2.676 -6,-6 v -21 h 6 v -18 z m 3,3 h 9 v 12 h -9 z m 3,3 v 6 h 3 v -6 z m -6,15 v 18 h 3 v -18 z"
       class="ColorScheme-Text"
       id="path1617" /><path
       class="ColorScheme-Text"
       d="M 94.752982,75.142771 159.2558,131.77993 a 1.9794897,1.9794897 155.64249 0 0 3.28557,-1.48747 V 99.057739 a 4.3723765,4.3723765 135 0 1 4.37238,-4.372376 h 52.10059 a 4.3723765,4.3723765 135 0 0 4.37238,-4.372377 l 0,-36.110277 a 4.3723781,4.3723781 45.00001 0 0 -4.37238,-4.372378 l -52.10059,-1.8e-5 a 4.3723781,4.3723781 45.00001 0 1 -4.37238,-4.372379 V 14.223198 a 1.9794886,1.9794886 24.357499 0 0 -3.28556,-1.487461 L 94.752981,69.372941 a 3.8391974,3.8391974 89.999988 0 0 10e-7,5.76983 z"
       fill="currentColor"
       id="path12557"
       sodipodi:nodetypes="cccccccc"
       style="color:#eff0f1;fill:#ffffff;fill-opacity:1;stroke-width:20.9362"
       inkscape:path-effect="#path-effect12561"
       inkscape:original-d="M 91.467416,72.257857 162.54137,134.66484 V 94.685363 h 60.84535 v -44.85503 l -60.84535,-2.2e-5 V 9.850821 Z" /><path
       class="ColorScheme-Text"
       d="m 101.09397,75.557339 52.97744,45.413801 a 2.4079928,2.4079928 155.30207 0 0 3.97518,-1.82821 V 96.155365 a 5.2358504,5.2358504 135 0 1 5.23585,-5.23585 h 51.47912 a 5.2358504,5.2358504 135 0 0 5.23585,-5.23585 l 0,-27.067956 a 5.2358519,5.2358519 45.000008 0 0 -5.23585,-5.235852 l -51.47912,-1.4e-5 a 5.2358519,5.2358519 45.000008 0 1 -5.23585,-5.235852 V 25.156428 a 2.4079918,2.4079918 24.69792 0 0 -3.97518,-1.828205 L 101.09397,68.74205 a 4.4883246,4.4883246 89.999991 0 0 0,6.815289 z"
       fill="currentColor"
       id="path12547"
       sodipodi:nodetypes="cccccccc"
       style="color:#eff0f1;fill:#f7941d;fill-opacity:1;stroke-width:17.7332"
       inkscape:path-effect="#path-effect12549"
       inkscape:original-d="M 97.118787,72.149695 158.04659,124.37878 V 90.919515 h 61.95082 V 53.379859 l -61.95082,-1.8e-5 V 19.920578 Z" /></g></svg>
