<svg version="1.1" viewBox="0 0 503.5 290" xmlns="http://www.w3.org/2000/svg" xmlns:xlink="http://www.w3.org/1999/xlink">
  <defs>
    <linearGradient id="e" x1="63.999802" x2="63.999802" y1="-3.3139999" y2="118.486" gradientUnits="userSpaceOnUse">
      <stop stop-color="#414141" offset="0"/>
      <stop stop-color="#3e3e3e" offset=".196"/>
      <stop stop-color="#3a3a3a" offset="1"/>
    </linearGradient>
    <radialGradient id="g" cx="-237.642" cy="32.9151" r="207.23399" gradientTransform="matrix(.3539 0 0 .3539 144.283 41.6546)" gradientUnits="userSpaceOnUse">
      <stop stop-color="#fcfcfc" stop-opacity="0" offset=".6733"/>
      <stop stop-color="#fcfcfc" offset="1"/>
    </radialGradient>
    <radialGradient id="i" cx="-229.29601" cy="60.2127" r="172.38901" gradientTransform="matrix(.3539 0 0 .3539 144.283 41.6546)" gradientUnits="userSpaceOnUse">
      <stop stop-color="#0f0f0d" stop-opacity="0" offset=".1088"/>
      <stop stop-color="#414141" stop-opacity="0" offset=".8856"/>
      <stop stop-color="#1e1e1d" stop-opacity=".6841" offset=".9339"/>
      <stop stop-color="#0f0f0d" offset=".9874"/>
    </radialGradient>
    <radialGradient id="n" cx="-223.55099" cy="-43.152199" r="334.836" gradientTransform="matrix(.3539 0 0 .2026 144.283 35.1949)" gradientUnits="userSpaceOnUse">
      <stop stop-color="#2e6b26" offset="0"/>
      <stop stop-color="#6ab536" offset="1"/>
    </radialGradient>
    <radialGradient id="p" cx="-212.614" cy="12.0576" r="148.11" gradientTransform="matrix(.3539 0 0 .4347 144.283 40.66)" gradientUnits="userSpaceOnUse">
      <stop offset="0"/>
      <stop stop-color="#fff" offset=".7192"/>
    </radialGradient>
    <radialGradient id="r" cx="-226.056" cy="-44.9179" r="65.392502" gradientTransform="matrix(.3539 0 0 .3539 144.283 41.6546)" gradientUnits="userSpaceOnUse">
      <stop stop-color="#6ab536" offset="0"/>
      <stop stop-color="#2e6b26" offset="1"/>
    </radialGradient>
    <radialGradient id="t" cx="-263.923" cy="-1.8335" r="96.585098" gradientTransform="matrix(.3356 0 0 .5572 152.49 40.1419)" gradientUnits="userSpaceOnUse">
      <stop offset="0"/>
      <stop stop-color="#4f4f4f" stop-opacity="0" offset=".7842"/>
    </radialGradient>
    <radialGradient id="w" cx="-227.44901" cy="-64.572701" r="223.50999" gradientTransform="matrix(.3539 0 0 .3539 144.283 41.6546)" gradientUnits="userSpaceOnUse">
      <stop stop-color="#f5f5f5" offset="0"/>
      <stop stop-color="#e3e3e3" offset="1"/>
    </radialGradient>
    <linearGradient id="linearGradient14580" x1="436.21014" x2="436.21014" y1="362.60602" y2="344.49173" gradientTransform="matrix(5.0595958 0 0 .9344045 -1766.6386 -411.5115)" gradientUnits="userSpaceOnUse">
      <stop stop-color="#303539" offset="0"/>
      <stop stop-color="#373c41" offset="1"/>
    </linearGradient>
    <linearGradient id="linearGradient31630" x1="436.21014" x2="436.21014" y1="362.60602" y2="344.49173" gradientTransform="matrix(5.0595958 0 0 .9344045 -1758.9253 -110.48549)" gradientUnits="userSpaceOnUse" xlink:href="#linearGradient14580"/>
    <linearGradient id="linearGradient31638" x1="436.21014" x2="436.21014" y1="362.60602" y2="344.49173" gradientTransform="matrix(5.0595958 0 0 .9344045 -1758.9253 -64.48549)" gradientUnits="userSpaceOnUse" xlink:href="#linearGradient14580"/>
    <linearGradient id="linearGradient31646" x1="436.21014" x2="436.21014" y1="362.60602" y2="344.49173" gradientTransform="matrix(5.0595958 0 0 .9344045 -1575.6172 -64.48549)" gradientUnits="userSpaceOnUse" xlink:href="#linearGradient14580"/>
    <linearGradient id="linearGradient31654" x1="436.21014" x2="436.21014" y1="362.60602" y2="344.49173" gradientTransform="matrix(5.0595958 0 0 .9344045 -1418.9253 -64.48549)" gradientUnits="userSpaceOnUse" xlink:href="#linearGradient14580"/>
    <linearGradient id="linearGradient31755" x1="436.21014" x2="436.21014" y1="362.60602" y2="344.49173" gradientTransform="matrix(5.0595958 0 0 .9344045 -1758.9253 -156.48549)" gradientUnits="userSpaceOnUse" xlink:href="#linearGradient14580"/>
  </defs>
  <rect x="1.7105423" y="1.7105423" width="500.07892" height="286.57892" ry="9.1776915" fill="#2a2e32" stroke="#888" stroke-width="3.42109"/>
  <g stroke-width="3.75">
    <circle cx="456.875" cy="45.122585" r="30" fill="#f7941d" stroke="#eff0f1"/>
    <text x="445.233" y="59.222584" font-family="Nunito" font-size="40px" font-weight="bold" style="font-variant-caps:normal;font-variant-east-asian:normal;font-variant-ligatures:normal;font-variant-numeric:normal;line-height:1.25" xml:space="preserve"><tspan x="445.233" y="59.222584" fill="#ffffff" font-family="Nunito" font-size="40px" font-weight="bold" stroke-width="3.75" style="font-variant-caps:normal;font-variant-east-asian:normal;font-variant-ligatures:normal;font-variant-numeric:normal">3</tspan></text>
  </g>
  <g stroke-width="2.5">
    <rect x="15.084782" y="142.37935" width="469.73962" height="35.603424" ry="3.9779475" fill="url(#linearGradient31755)" stroke="#666a6d"/>
    <g transform="translate(-38.28673,255.02601)" fill="#eff0f1" style="inline-size:473.363;white-space:pre" aria-label="Create new database">
      <path d="m204.13082-101.45077q-2.14667 0-3.37867 1.43734-1.232 1.437336-1.232 3.938674 0 2.482671 1.13866 3.938674 1.15734 1.437336 3.45334 1.437336 0.87734 0 1.66134-0.149334 0.784-0.149333 1.53067-0.373334v1.456003q-0.74667 0.28-1.54934 0.410667-0.784 0.130667-1.88533 0.130667-2.03467 0-3.39734-0.840001-1.36267-0.840002-2.05334-2.389338-0.672-1.549336-0.672-3.640006 0-2.016004 0.728-3.546674 0.74667-1.549334 2.184-2.408004 1.43734-0.87733 3.49068-0.87733 2.10933 0 3.67734 0.784l-0.672 1.41867q-0.616-0.28-1.38134-0.50401-0.74667-0.224-1.64267-0.224z"/>
      <path d="m214.65884-99.602762q0.28 0 0.59733 0.03733 0.336 0.01867 0.57867 0.07467l-0.20533 1.512003q-0.24267-0.056-0.54134-0.09333-0.28-0.03733-0.54133-0.03733-0.76534 0-1.43734 0.429334-0.672 0.410667-1.08267 1.176002-0.392 0.746668-0.392 1.75467v5.338676h-1.64267v-10.005351h1.34401l0.18666 1.829337h0.0747q0.48533-0.821335 1.25067-1.41867 0.76533-0.597334 1.81067-0.597334z"/>
      <path d="m221.19214-99.602762q1.288 0 2.20267 0.560001 0.93334 0.560001 1.41867 1.586669 0.504 1.008002 0.504 2.370671v0.989335h-6.85068q0.0373 1.69867 0.85867 2.594672 0.84 0.877335 2.33334 0.877335 0.952 0 1.68-0.168001 0.74667-0.186667 1.53067-0.522667v1.437336q-0.76533 0.336-1.512 0.485334-0.74667 0.168-1.77334 0.168-1.41867 0-2.52-0.578667-1.08267-0.578668-1.69867-1.717337-0.59734-1.157335-0.59734-2.818672 0-1.642669 0.54134-2.818671 0.56-1.176002 1.54933-1.81067 1.00801-0.634668 2.33334-0.634668zm-0.0187 1.344002q-1.176 0-1.86667 0.765335-0.672 0.746668-0.80266 2.09067h5.09601q-0.0187-1.269335-0.59734-2.053337-0.57867-0.802668-1.82934-0.802668z"/>
      <path d="m231.64548-99.584095q1.82933 0 2.70667 0.802668 0.87733 0.802668 0.87733 2.557338v6.813345h-1.19466l-0.31734-1.418669h-0.0747q-0.65333 0.821335-1.38133 1.213336-0.70934 0.392-1.97867 0.392-1.36267 0-2.25867-0.709334-0.896-0.728002-0.896-2.258671 0-1.493336 1.176-2.296004 1.176-0.821335 3.62134-0.896002l1.69867-0.056v-0.597334q0-1.250669-0.54134-1.736003-0.54133-0.485335-1.53067-0.485335-0.784 0-1.49333 0.242667-0.70934 0.224001-1.32534 0.522668l-0.504-1.232002q0.65334-0.354668 1.54934-0.597335 0.896-0.261333 1.86667-0.261333zm0.48533 5.338676q-1.86667 0.07467-2.59467 0.597334-0.70933 0.522668-0.70933 1.47467 0 0.840001 0.504 1.232002 0.52266 0.392001 1.32533 0.392001 1.26934 0 2.10934-0.690668 0.84-0.709335 0.84-2.165338v-0.896001z"/>
      <path d="m241.66948-90.568079q0.37333 0 0.76533-0.056 0.392-0.07467 0.63467-0.149334v1.250669q-0.26133 0.130667-0.74667 0.205334-0.48533 0.09333-0.93333 0.09333-0.784 0-1.45601-0.261334-0.65333-0.28-1.064-0.952001t-0.41067-1.885337v-5.82401h-1.41866v-0.784002l1.43733-0.653334 0.65334-2.128005h0.97066v2.296005h2.89334v1.269336h-2.89334v5.786677q0 0.914668 0.42934 1.362669 0.448 0.429334 1.13867 0.429334z"/>
      <path d="m248.93079-99.602762q1.288 0 2.20267 0.560001 0.93333 0.560001 1.41867 1.586669 0.504 1.008002 0.504 2.370671v0.989335h-6.85068q0.0373 1.69867 0.85867 2.594672 0.84 0.877335 2.33334 0.877335 0.952 0 1.68-0.168001 0.74667-0.186667 1.53067-0.522667v1.437336q-0.76534 0.336-1.512 0.485334-0.74667 0.168-1.77334 0.168-1.41867 0-2.52001-0.578667-1.08266-0.578668-1.69867-1.717337-0.59733-1.157335-0.59733-2.818672 0-1.642669 0.54133-2.818671 0.56001-1.176002 1.54934-1.81067 1.008-0.634668 2.33334-0.634668zm-0.0187 1.344002q-1.176 0-1.86667 0.765335-0.672 0.746668-0.80267 2.09067h5.09601q-0.0187-1.269335-0.59733-2.053337-0.57867-0.802668-1.82934-0.802668z"/>
      <path d="m265.2641-99.602762q1.79201 0 2.70667 0.877335 0.91467 0.858668 0.91467 2.800005v6.514678h-1.624v-6.402678q0-2.408004-2.24-2.408004-1.66134 0-2.29601 0.933335t-0.63467 2.688005v5.189342h-1.64267v-10.005351h1.32534l0.24267 1.362669h0.0933q0.48534-0.784001 1.344-1.157335 0.85867-0.392001 1.81067-0.392001z"/>
      <path d="m275.84809-99.602762q1.288 0 2.20267 0.560001 0.93333 0.560001 1.41867 1.586669 0.504 1.008002 0.504 2.370671v0.989335h-6.85068q0.0373 1.69867 0.85867 2.594672 0.84 0.877335 2.33333 0.877335 0.952 0 1.68001-0.168001 0.74666-0.186667 1.53067-0.522667v1.437336q-0.76534 0.336-1.51201 0.485334-0.74667 0.168-1.77333 0.168-1.41867 0-2.52001-0.578667-1.08267-0.578668-1.69867-1.717337-0.59733-1.157335-0.59733-2.818672 0-1.642669 0.54133-2.818671 0.56-1.176002 1.54934-1.81067 1.008-0.634668 2.33334-0.634668zm-0.0187 1.344002q-1.176 0-1.86667 0.765335-0.672 0.746668-0.80267 2.09067h5.09601q-0.0187-1.269335-0.59733-2.053337-0.57867-0.802668-1.82934-0.802668z"/>
      <path d="m288.59742-95.066754q-0.24267-0.765335-0.42933-1.493336-0.168-0.746668-0.26134-1.157335h-0.0747q-0.0747 0.410667-0.24267 1.157335-0.168 0.728001-0.42934 1.512003l-1.792 5.618677h-1.86667l-2.744-10.005352h1.69867l1.38133 5.338676q0.20534 0.802669 0.392 1.624003 0.18667 0.821335 0.26134 1.36267h0.0747q0.0747-0.317334 0.168-0.784002 0.112-0.466667 0.24267-0.970668 0.13067-0.522668 0.26133-0.933335l1.77334-5.637344h1.792l1.71734 5.637344q0.20533 0.634668 0.392 1.381336 0.20533 0.746668 0.28 1.288002h0.0747q0.056-0.466668 0.24267-1.288002 0.20533-0.821335 0.42933-1.680004l1.4-5.338676h1.68001l-2.78134 10.005352h-1.92267z"/>
      <path d="m305.21074-89.224077q-1.86667 0-2.98668-1.288002-1.12-1.306669-1.12-3.882674 0-2.576004 1.12-3.882673 1.13867-1.325336 3.00534-1.325336 1.15734 0 1.88534 0.429334 0.74667 0.429334 1.21334 1.045335h0.112q-0.0187-0.242667-0.0747-0.709334-0.0373-0.485335-0.0373-0.765335v-3.994678h1.64267v14.186696h-1.32534l-0.24267-1.344002h-0.0747q-0.448 0.634668-1.19467 1.082668-0.74667 0.448001-1.92267 0.448001zm0.26133-1.362669q1.58667 0 2.22134-0.858668 0.65333-0.877335 0.65333-2.632005v-0.298667q0-1.86667-0.616-2.856005-0.616-1.008002-2.27734-1.008002-1.32533 0-1.99733 1.064002-0.65334 1.045335-0.65334 2.818672 0 1.792003 0.65334 2.781338 0.672 0.989335 2.016 0.989335z"/>
      <path d="m316.93342-99.584095q1.82934 0 2.70667 0.802668 0.87734 0.802668 0.87734 2.557338v6.813345h-1.19467l-0.31733-1.418669h-0.0747q-0.65333 0.821335-1.38134 1.213336-0.70933 0.392-1.97867 0.392-1.36267 0-2.25867-0.709334-0.896-0.728002-0.896-2.258671 0-1.493336 1.176-2.296004 1.17601-0.821335 3.62134-0.896002l1.69867-0.056v-0.597334q0-1.250669-0.54133-1.736003-0.54134-0.485335-1.53067-0.485335-0.784 0-1.49334 0.242667-0.70933 0.224001-1.32533 0.522668l-0.504-1.232002q0.65333-0.354668 1.54933-0.597335 0.896-0.261333 1.86667-0.261333zm0.48534 5.338676q-1.86667 0.07467-2.59467 0.597334-0.70934 0.522668-0.70934 1.47467 0 0.840001 0.504 1.232002 0.52267 0.392001 1.32534 0.392001 1.26933 0 2.10933-0.690668 0.84001-0.709335 0.84001-2.165338v-0.896001z"/>
      <path d="m326.95742-90.568079q0.37334 0 0.76534-0.056 0.392-0.07467 0.63466-0.149334v1.250669q-0.26133 0.130667-0.74666 0.205334-0.48534 0.09333-0.93334 0.09333-0.784 0-1.456-0.261334-0.65334-0.28-1.064-0.952001-0.41067-0.672001-0.41067-1.885337v-5.82401h-1.41867v-0.784002l1.43734-0.653334 0.65333-2.128005h0.97067v2.296005h2.89334v1.269336h-2.89334v5.786677q0 0.914668 0.42933 1.362669 0.448 0.429334 1.13867 0.429334z"/>
      <path d="m334.14406-99.584095q1.82934 0 2.70667 0.802668 0.87734 0.802668 0.87734 2.557338v6.813345h-1.19467l-0.31733-1.418669h-0.0747q-0.65333 0.821335-1.38134 1.213336-0.70933 0.392-1.97867 0.392-1.36267 0-2.25867-0.709334-0.896-0.728002-0.896-2.258671 0-1.493336 1.176-2.296004 1.17601-0.821335 3.62134-0.896002l1.69867-0.056v-0.597334q0-1.250669-0.54133-1.736003-0.54134-0.485335-1.53067-0.485335-0.784 0-1.49334 0.242667-0.70933 0.224001-1.32533 0.522668l-0.504-1.232002q0.65333-0.354668 1.54933-0.597335 0.896-0.261333 1.86667-0.261333zm0.48534 5.338676q-1.86667 0.07467-2.59467 0.597334-0.70934 0.522668-0.70934 1.47467 0 0.840001 0.504 1.232002 0.52267 0.392001 1.32534 0.392001 1.26933 0 2.10933-0.690668 0.84001-0.709335 0.84001-2.165338v-0.896001z"/>
      <path d="m342.46939-100.1441q0 0.634671-0.0373 1.194672-0.0187 0.541335-0.056 0.858669h0.0933q0.42934-0.634668 1.176-1.064002 0.74667-0.429334 1.92267-0.429334 1.86667 0 2.98668 1.306669 1.13867 1.288002 1.13867 3.864007 0 2.576004-1.13867 3.882673t-2.98668 1.306669q-1.176 0-1.92267-0.429334-0.74666-0.429334-1.176-1.026668h-0.13066l-0.33601 1.269335h-1.176v-14.186696h1.64267zm2.81867 1.922674q-1.58667 0-2.20267 0.914668t-0.616 2.837338v0.07467q0 1.848004 0.59734 2.837339 0.616 0.970668 2.25867 0.970668 1.344 0 1.99733-0.989335 0.67201-0.989335 0.67201-2.856005 0-3.78934-2.70668-3.78934z"/>
      <path d="m356.09609-99.584095q1.82934 0 2.70667 0.802668 0.87734 0.802668 0.87734 2.557338v6.813345h-1.19467l-0.31734-1.418669h-0.0747q-0.65334 0.821335-1.38134 1.213336-0.70933 0.392-1.97867 0.392-1.36267 0-2.25867-0.709334-0.896-0.728002-0.896-2.258671 0-1.493336 1.176-2.296004 1.176-0.821335 3.62134-0.896002l1.69867-0.056v-0.597334q0-1.250669-0.54134-1.736003-0.54133-0.485335-1.53066-0.485335-0.78401 0-1.49334 0.242667-0.70934 0.224001-1.32534 0.522668l-0.504-1.232002q0.65334-0.354668 1.54934-0.597335 0.896-0.261333 1.86667-0.261333zm0.48533 5.338676q-1.86667 0.07467-2.59467 0.597334-0.70933 0.522668-0.70933 1.47467 0 0.840001 0.504 1.232002 0.52267 0.392001 1.32533 0.392001 1.26934 0 2.10934-0.690668 0.84-0.709335 0.84-2.165338v-0.896001z"/>
      <path d="m369.29341-92.173415q0 1.456002-1.08267 2.20267t-2.912 0.746668q-1.04534 0-1.81067-0.168-0.74667-0.168-1.32534-0.466668v-1.493336q0.59734 0.298668 1.43734 0.560001 0.85867 0.242668 1.736 0.242668 1.25067 0 1.81067-0.392001 0.56-0.410668 0.56-1.082669 0-0.373334-0.20533-0.672001t-0.74667-0.597334q-0.52267-0.298668-1.512-0.672002-0.97067-0.373334-1.66134-0.746668t-1.064-0.896001q-0.37333-0.522668-0.37333-1.344003 0-1.269335 1.02666-1.960003 1.04534-0.690668 2.72534-0.690668 0.91467 0 1.69867 0.186667 0.80267 0.168 1.49334 0.485334l-0.56 1.306669q-0.63467-0.261334-1.32534-0.448001t-1.41867-0.186667q-1.008 0-1.54933 0.336001-0.52267 0.317334-0.52267 0.877335 0 0.410667 0.24267 0.709334 0.24266 0.280001 0.80266 0.560001 0.57867 0.261334 1.53067 0.634668 0.95201 0.354668 1.62401 0.728002t1.02666 0.914668q0.35467 0.522668 0.35467 1.325336z"/>
      <path d="m375.58406-99.602762q1.288 0 2.20267 0.560001 0.93333 0.560001 1.41867 1.586669 0.504 1.008002 0.504 2.370671v0.989335h-6.85068q0.0373 1.69867 0.85867 2.594672 0.84 0.877335 2.33333 0.877335 0.952 0 1.68001-0.168001 0.74666-0.186667 1.53067-0.522667v1.437336q-0.76534 0.336-1.51201 0.485334-0.74667 0.168-1.77333 0.168-1.41867 0-2.52001-0.578667-1.08267-0.578668-1.69867-1.717337-0.59733-1.157335-0.59733-2.818672 0-1.642669 0.54133-2.818671 0.56-1.176002 1.54934-1.81067 1.008-0.634668 2.33334-0.634668zm-0.0187 1.344002q-1.176 0-1.86667 0.765335-0.672 0.746668-0.80267 2.09067h5.09601q-0.0187-1.269335-0.59733-2.053337-0.57867-0.802668-1.82934-0.802668z"/>
    </g>
    <rect x="15.084782" y="188.37935" width="468.54114" height="35.603424" ry="3.9779475" fill="url(#linearGradient31630)" stroke="#666a6d"/>
    <g transform="translate(-38.28673,301.02601)" fill="#eff0f1" style="inline-size:473.363;white-space:pre" aria-label="Open an existing database">
      <path d="m185.25886-96.093422q0 2.072003-0.70934 3.621339-0.69067 1.53067-2.05333 2.389338-1.36267 0.858668-3.37868 0.858668-2.072 0-3.45334-0.858668-1.36267-0.858668-2.03467-2.408004t-0.672-3.62134q0-2.053337 0.672-3.584007 0.672-1.530674 2.03467-2.389334 1.38134-0.85867 3.47201-0.85867 1.99734 0 3.36001 0.85867 1.36266 0.84 2.05333 2.389334 0.70934 1.53067 0.70934 3.602674zm-10.52802 0q0 2.520004 1.064 3.976007 1.064 1.437336 3.32267 1.437336 2.27734 0 3.32268-1.437336 1.04533-1.456003 1.04533-3.976007 0-2.520005-1.04533-3.938678-1.04534-1.43733-3.30401-1.43733t-3.34134 1.43733q-1.064 1.418673-1.064 3.938678z"/>
      <path d="m192.74417-99.602762q1.848 0 2.96801 1.288002 1.13866 1.288003 1.13866 3.882674 0 2.557338-1.13866 3.882674-1.12001 1.325335-2.98668 1.325335-1.15733 0-1.92267-0.429334-0.74666-0.448001-1.176-1.026668h-0.112q0.0373 0.317334 0.0747 0.802668 0.0373 0.485334 0.0373 0.840001v4.106674h-1.64267v-14.485359h1.344l0.224 1.362669h0.0747q0.448-0.653334 1.176-1.101335 0.72801-0.448001 1.94134-0.448001zm-0.29867 1.381336q-1.53067 0-2.16533 0.858668-0.616 0.858668-0.65334 2.613338v0.317334q0 1.848003 0.59734 2.856005 0.616 0.989335 2.25867 0.989335 0.91467 0 1.49333-0.504001 0.59734-0.504001 0.87734-1.362669 0.29867-0.877335 0.29867-1.997337 0-1.717336-0.67201-2.744005-0.65333-1.026668-2.03467-1.026668z"/>
      <path d="m203.32819-99.602762q1.288 0 2.20267 0.560001 0.93333 0.560001 1.41867 1.586669 0.504 1.008002 0.504 2.370671v0.989335h-6.85068q0.0373 1.69867 0.85867 2.594672 0.84 0.877335 2.33333 0.877335 0.95201 0 1.68001-0.168001 0.74667-0.186667 1.53067-0.522667v1.437336q-0.76534 0.336-1.51201 0.485334-0.74666 0.168-1.77333 0.168-1.41867 0-2.52001-0.578667-1.08267-0.578668-1.69867-1.717337-0.59733-1.157335-0.59733-2.818672 0-1.642669 0.54133-2.818671 0.56-1.176002 1.54934-1.81067 1.008-0.634668 2.33334-0.634668zm-0.0187 1.344002q-1.176 0-1.86667 0.765335-0.672 0.746668-0.80267 2.09067h5.09601q-0.0187-1.269335-0.59733-2.053337-0.57867-0.802668-1.82934-0.802668z"/>
      <path d="m214.80819-99.602762q1.79201 0 2.70667 0.877335 0.91467 0.858668 0.91467 2.800005v6.514678h-1.624v-6.402678q0-2.408004-2.24-2.408004-1.66134 0-2.29601 0.933335t-0.63467 2.688005v5.189342h-1.64267v-10.005351h1.32534l0.24267 1.362669h0.0933q0.48533-0.784001 1.344-1.157335 0.85867-0.392001 1.81067-0.392001z"/>
      <path d="m230.17082-99.584095q1.82933 0 2.70667 0.802668 0.87733 0.802668 0.87733 2.557338v6.813345h-1.19467l-0.31733-1.418669h-0.0747q-0.65333 0.821335-1.38133 1.213336-0.70934 0.392-1.97867 0.392-1.36267 0-2.25867-0.709334-0.896-0.728002-0.896-2.258671 0-1.493336 1.176-2.296004 1.176-0.821335 3.62134-0.896002l1.69867-0.056v-0.597334q0-1.250669-0.54134-1.736003-0.54133-0.485335-1.53067-0.485335-0.784 0-1.49333 0.242667-0.70934 0.224001-1.32534 0.522668l-0.504-1.232002q0.65334-0.354668 1.54934-0.597335 0.896-0.261333 1.86667-0.261333zm0.48533 5.338676q-1.86667 0.07467-2.59467 0.597334-0.70933 0.522668-0.70933 1.47467 0 0.840001 0.504 1.232002 0.52266 0.392001 1.32533 0.392001 1.26934 0 2.10934-0.690668 0.84-0.709335 0.84-2.165338v-0.896001z"/>
      <path d="m241.66949-99.602762q1.792 0 2.70667 0.877335 0.91467 0.858668 0.91467 2.800005v6.514678h-1.62401v-6.402678q0-2.408004-2.24-2.408004-1.66134 0-2.29601 0.933335-0.63466 0.933335-0.63466 2.688005v5.189342h-1.64267v-10.005351h1.32533l0.24267 1.362669h0.0933q0.48534-0.784001 1.34401-1.157335 0.85866-0.392001 1.81067-0.392001z"/>
      <path d="m257.10678-99.602762q1.288 0 2.20267 0.560001 0.93334 0.560001 1.41867 1.586669 0.504 1.008002 0.504 2.370671v0.989335h-6.85068q0.0373 1.69867 0.85867 2.594672 0.84 0.877335 2.33334 0.877335 0.952 0 1.68-0.168001 0.74667-0.186667 1.53067-0.522667v1.437336q-0.76533 0.336-1.512 0.485334-0.74667 0.168-1.77334 0.168-1.41867 0-2.52-0.578667-1.08267-0.578668-1.69867-1.717337-0.59734-1.157335-0.59734-2.818672 0-1.642669 0.54134-2.818671 0.56-1.176002 1.54933-1.81067 1.00801-0.634668 2.33334-0.634668zm-0.0187 1.344002q-1.17601 0-1.86667 0.765335-0.67201 0.746668-0.80267 2.09067h5.09601q-0.0187-1.269335-0.59734-2.053337-0.57867-0.802668-1.82933-0.802668z"/>
      <path d="m265.76811-94.52542-3.45334-4.890675h1.86667l2.576 3.770673 2.55734-3.770673h1.84801l-3.45334 4.890675 3.64 5.114676h-1.86667l-2.72534-3.994674-2.76267 3.994674h-1.848z"/>
      <path d="m274.11211-103.1681q0.37334 0 0.65334 0.26133 0.29866 0.24267 0.29866 0.784 0 0.52267-0.29866 0.784-0.28 0.26134-0.65334 0.26134-0.41067 0-0.69067-0.26134-0.28-0.26133-0.28-0.784 0-0.54133 0.28-0.784 0.28-0.26133 0.69067-0.26133zm0.80267 3.752005v10.005351h-1.64267v-10.005351z"/>
      <path d="m284.60278-92.173415q0 1.456002-1.08267 2.20267-1.08266 0.746668-2.912 0.746668-1.04534 0-1.81067-0.168-0.74667-0.168-1.32534-0.466668v-1.493336q0.59734 0.298668 1.43734 0.560001 0.85867 0.242668 1.736 0.242668 1.25067 0 1.81067-0.392001 0.56-0.410668 0.56-1.082669 0-0.373334-0.20533-0.672001t-0.74667-0.597334q-0.52267-0.298668-1.512-0.672002-0.97067-0.373334-1.66134-0.746668t-1.064-0.896001q-0.37333-0.522668-0.37333-1.344003 0-1.269335 1.02666-1.960003 1.04534-0.690668 2.72534-0.690668 0.91467 0 1.69867 0.186667 0.80267 0.168 1.49334 0.485334l-0.56 1.306669q-0.63467-0.261334-1.32534-0.448001t-1.41867-0.186667q-1.008 0-1.54933 0.336001-0.52267 0.317334-0.52267 0.877335 0 0.410667 0.24267 0.709334 0.24266 0.280001 0.80266 0.560001 0.57867 0.261334 1.53067 0.634668 0.95201 0.354668 1.62401 0.728002t1.02667 0.914668q0.35466 0.522668 0.35466 1.325336z"/>
      <path d="m290.37076-90.568079q0.37333 0 0.76533-0.056 0.392-0.07467 0.63467-0.149334v1.250669q-0.26133 0.130667-0.74667 0.205334-0.48533 0.09333-0.93333 0.09333-0.784 0-1.45601-0.261334-0.65333-0.28-1.064-0.952001-0.41066-0.672001-0.41066-1.885337v-5.82401h-1.41867v-0.784002l1.43733-0.653334 0.65334-2.128005h0.97067v2.296005h2.89333v1.269336h-2.89333v5.786677q0 0.914668 0.42933 1.362669 0.448 0.429334 1.13867 0.429334z"/>
      <path d="m294.60807-103.1681q0.37333 0 0.65333 0.26133 0.29867 0.24267 0.29867 0.784 0 0.52267-0.29867 0.784-0.28 0.26134-0.65333 0.26134-0.41067 0-0.69067-0.26134-0.28-0.26133-0.28-0.784 0-0.54133 0.28-0.784 0.28-0.26133 0.69067-0.26133zm0.80267 3.752005v10.005351h-1.64267v-10.005351z"/>
      <path d="m303.40007-99.602762q1.792 0 2.70667 0.877335 0.91467 0.858668 0.91467 2.800005v6.514678h-1.624v-6.402678q0-2.408004-2.24001-2.408004-1.66133 0-2.296 0.933335t-0.63467 2.688005v5.189342h-1.64267v-10.005351h1.32534l0.24266 1.362669h0.0933q0.48533-0.784001 1.344-1.157335 0.85867-0.392001 1.81067-0.392001z"/>
      <path d="m313.66673-99.602762q0.98933 0 1.77334 0.373334 0.80266 0.373334 1.36266 1.138669h0.0933l0.224-1.325336h1.30667v10.173352q0 2.14667-1.10134 3.229339-1.08267 1.082668-3.37867 1.082668-2.20267 0-3.60267-0.634667v-1.512003q1.47467 0.784001 3.696 0.784001 1.28801 0 2.01601-0.765334 0.74666-0.746668 0.74666-2.053338v-0.392q0-0.224001 0.0187-0.634668 0.0187-0.429334 0.0373-0.597334h-0.0747q-1.008 1.512002-3.09867 1.512002-1.94134 0-3.04268-1.362669-1.08267-1.362669-1.08267-3.808007 0-2.389337 1.08267-3.78934 1.10134-1.418669 3.02401-1.418669zm0.224 1.381336q-1.25067 0-1.94134 1.008002-0.69067 0.989335-0.69067 2.837338t0.67201 2.837338q0.69066 0.970669 1.99733 0.970669 1.51201 0 2.20267-0.802668 0.69067-0.821335 0.69067-2.632005v-0.392001q0-2.053337-0.70933-2.930672-0.70934-0.896001-2.22134-0.896001z"/>
      <path d="m330.00006-89.224077q-1.86667 0-2.98667-1.288002-1.12001-1.306669-1.12001-3.882674 0-2.576004 1.12001-3.882673 1.13866-1.325336 3.00533-1.325336 1.15734 0 1.88534 0.429334 0.74667 0.429334 1.21334 1.045335h0.112q-0.0187-0.242667-0.0747-0.709334-0.0373-0.485335-0.0373-0.765335v-3.994678h1.64267v14.186696h-1.32534l-0.24267-1.344002h-0.0747q-0.448 0.634668-1.19467 1.082668-0.74667 0.448001-1.92267 0.448001zm0.26133-1.362669q1.58667 0 2.22134-0.858668 0.65333-0.877335 0.65333-2.632005v-0.298667q0-1.86667-0.616-2.856005-0.616-1.008002-2.27734-1.008002-1.32533 0-1.99733 1.064002-0.65334 1.045335-0.65334 2.818672 0 1.792003 0.65334 2.781338 0.672 0.989335 2.016 0.989335z"/>
      <path d="m341.72274-99.584095q1.82933 0 2.70667 0.802668 0.87733 0.802668 0.87733 2.557338v6.813345h-1.19467l-0.31733-1.418669h-0.0747q-0.65333 0.821335-1.38133 1.213336-0.70934 0.392-1.97867 0.392-1.36267 0-2.25867-0.709334-0.89601-0.728002-0.89601-2.258671 0-1.493336 1.17601-2.296004 1.176-0.821335 3.62134-0.896002l1.69867-0.056v-0.597334q0-1.250669-0.54134-1.736003-0.54133-0.485335-1.53067-0.485335-0.784 0-1.49333 0.242667-0.70934 0.224001-1.32534 0.522668l-0.504-1.232002q0.65333-0.354668 1.54934-0.597335 0.896-0.261333 1.86667-0.261333zm0.48533 5.338676q-1.86667 0.07467-2.59467 0.597334-0.70934 0.522668-0.70934 1.47467 0 0.840001 0.504 1.232002 0.52267 0.392001 1.32534 0.392001 1.26934 0 2.10934-0.690668 0.84-0.709335 0.84-2.165338v-0.896001z"/>
      <path d="m351.74673-90.568079q0.37334 0 0.76534-0.056 0.392-0.07467 0.63467-0.149334v1.250669q-0.26134 0.130667-0.74667 0.205334-0.48534 0.09333-0.93334 0.09333-0.784 0-1.456-0.261334-0.65333-0.28-1.064-0.952001t-0.41067-1.885337v-5.82401h-1.41867v-0.784002l1.43734-0.653334 0.65333-2.128005h0.97067v2.296005h2.89334v1.269336h-2.89334v5.786677q0 0.914668 0.42934 1.362669 0.448 0.429334 1.13866 0.429334z"/>
      <path d="m358.93338-99.584095q1.82934 0 2.70667 0.802668 0.87734 0.802668 0.87734 2.557338v6.813345h-1.19467l-0.31733-1.418669h-0.0747q-0.65333 0.821335-1.38134 1.213336-0.70933 0.392-1.97867 0.392-1.36267 0-2.25867-0.709334-0.896-0.728002-0.896-2.258671 0-1.493336 1.176-2.296004 1.17601-0.821335 3.62134-0.896002l1.69867-0.056v-0.597334q0-1.250669-0.54133-1.736003-0.54134-0.485335-1.53067-0.485335-0.784 0-1.49334 0.242667-0.70933 0.224001-1.32533 0.522668l-0.504-1.232002q0.65333-0.354668 1.54933-0.597335 0.896-0.261333 1.86667-0.261333zm0.48534 5.338676q-1.86667 0.07467-2.59467 0.597334-0.70934 0.522668-0.70934 1.47467 0 0.840001 0.504 1.232002 0.52267 0.392001 1.32534 0.392001 1.26933 0 2.10933-0.690668 0.84001-0.709335 0.84001-2.165338v-0.896001z"/>
      <path d="m367.2587-100.1441q0 0.634671-0.0373 1.194672-0.0187 0.541335-0.056 0.858669h0.0933q0.42933-0.634668 1.176-1.064002t1.92267-0.429334q1.86667 0 2.98667 1.306669 1.13867 1.288002 1.13867 3.864007 0 2.576004-1.13867 3.882673t-2.98667 1.306669q-1.176 0-1.92267-0.429334t-1.176-1.026668h-0.13067l-0.336 1.269335h-1.176v-14.186696h1.64267zm2.81867 1.922674q-1.58667 0-2.20267 0.914668t-0.616 2.837338v0.07467q0 1.848004 0.59733 2.837339 0.616 0.970668 2.25867 0.970668 1.344 0 1.99734-0.989335 0.672-0.989335 0.672-2.856005 0-3.78934-2.70667-3.78934z"/>
      <path d="m380.88539-99.584095q1.82934 0 2.70668 0.802668 0.87733 0.802668 0.87733 2.557338v6.813345h-1.19467l-0.31733-1.418669h-0.0747q-0.65333 0.821335-1.38133 1.213336-0.70934 0.392-1.97868 0.392-1.36266 0-2.25867-0.709334-0.896-0.728002-0.896-2.258671 0-1.493336 1.176-2.296004 1.17601-0.821335 3.62134-0.896002l1.69867-0.056v-0.597334q0-1.250669-0.54133-1.736003-0.54133-0.485335-1.53067-0.485335-0.784 0-1.49334 0.242667-0.70933 0.224001-1.32533 0.522668l-0.504-1.232002q0.65333-0.354668 1.54933-0.597335 0.89601-0.261333 1.86667-0.261333zm0.48534 5.338676q-1.86667 0.07467-2.59467 0.597334-0.70934 0.522668-0.70934 1.47467 0 0.840001 0.504 1.232002 0.52267 0.392001 1.32534 0.392001 1.26933 0 2.10934-0.690668 0.84-0.709335 0.84-2.165338v-0.896001z"/>
      <path d="m394.08273-92.173415q0 1.456002-1.08267 2.20267-1.08266 0.746668-2.912 0.746668-1.04534 0-1.81067-0.168-0.74667-0.168-1.32534-0.466668v-1.493336q0.59734 0.298668 1.43734 0.560001 0.85867 0.242668 1.736 0.242668 1.25067 0 1.81067-0.392001 0.56-0.410668 0.56-1.082669 0-0.373334-0.20533-0.672001t-0.74667-0.597334q-0.52267-0.298668-1.512-0.672002-0.97067-0.373334-1.66134-0.746668t-1.064-0.896001q-0.37333-0.522668-0.37333-1.344003 0-1.269335 1.02666-1.960003 1.04534-0.690668 2.72534-0.690668 0.91467 0 1.69867 0.186667 0.80267 0.168 1.49334 0.485334l-0.56 1.306669q-0.63467-0.261334-1.32534-0.448001t-1.41867-0.186667q-1.008 0-1.54933 0.336001-0.52267 0.317334-0.52267 0.877335 0 0.410667 0.24267 0.709334 0.24266 0.280001 0.80266 0.560001 0.57867 0.261334 1.53067 0.634668 0.95201 0.354668 1.62401 0.728002t1.02667 0.914668q0.35466 0.522668 0.35466 1.325336z"/>
      <path d="m400.37338-99.602762q1.288 0 2.20267 0.560001 0.93333 0.560001 1.41867 1.586669 0.504 1.008002 0.504 2.370671v0.989335h-6.85068q0.0373 1.69867 0.85867 2.594672 0.84 0.877335 2.33333 0.877335 0.952 0 1.68001-0.168001 0.74666-0.186667 1.53067-0.522667v1.437336q-0.76534 0.336-1.51201 0.485334-0.74667 0.168-1.77333 0.168-1.41867 0-2.52001-0.578667-1.08267-0.578668-1.69867-1.717337-0.59733-1.157335-0.59733-2.818672 0-1.642669 0.54133-2.818671 0.56-1.176002 1.54934-1.81067 1.008-0.634668 2.33334-0.634668zm-0.0187 1.344002q-1.176 0-1.86667 0.765335-0.672 0.746668-0.80267 2.09067h5.09601q-0.0187-1.269335-0.59733-2.053337-0.57867-0.802668-1.82934-0.802668z"/>
    </g>
    <rect x="15.084782" y="234.37935" width="161.3958" height="35.586002" ry="3.9779475" fill="url(#linearGradient31638)" stroke="#666a6d"/>
    <g transform="translate(-191.55409,345.4331)" fill="#eff0f1" style="inline-size:355.016;white-space:pre" aria-label="Import from KeePass 1">
      <path d="m216.0401-89.410744h-3.78401v-0.762668l1.232-0.278667v-8.374686l-1.232-0.293334v-0.762669h3.78401v0.762669l-1.232 0.293334v8.374686l1.232 0.278667z"/>
      <path d="m226.3121-97.418762q1.33467 0 1.99468 0.689335 0.66 0.674668 0.66 2.200005v5.118678h-1.27601v-5.060011q0-1.862671-1.59867-1.862671-1.144 0-1.64267 0.660001-0.484 0.660002-0.484 1.921338v4.341343h-1.276v-5.060011q0-1.862671-1.61334-1.862671-1.188 0-1.64267 0.733335t-0.45467 2.112005v4.077342h-1.29067v-7.861351h1.04134l0.19067 1.070669h0.0733q0.36667-0.616001 0.98267-0.909335 0.63067-0.308001 1.33467-0.308001 1.848 0 2.40534 1.320003h0.0733q0.396-0.674668 1.07067-0.997336 0.68934-0.322667 1.452-0.322667z"/>
      <path d="m234.94145-97.418762q1.452 0 2.33201 1.012002 0.89466 1.012003 0.89466 3.050674 0 2.009338-0.89466 3.050674-0.88001 1.041335-2.34668 1.041335-0.90933 0-1.51067-0.337334-0.58666-0.352001-0.924-0.806668h-0.088q0.0293 0.249334 0.0587 0.630668 0.0293 0.381334 0.0293 0.660001v3.226674h-1.29067v-11.381359h1.056l0.176 1.070669h0.0587q0.352-0.513334 0.924-0.865335t1.52534-0.352001zm-0.23467 1.085336q-1.20267 0-1.70133 0.674668-0.48401 0.674668-0.51334 2.053338v0.249334q0 1.452003 0.46934 2.244005 0.484 0.777335 1.77467 0.777335 0.71866 0 1.17333-0.396001 0.46934-0.396001 0.68934-1.070669 0.23466-0.689335 0.23466-1.569337 0-1.349336-0.528-2.156005-0.51333-0.806668-1.59867-0.806668z"/>
      <path d="m246.85614-93.356086q0 1.950671-0.99733 3.02134-0.98267 1.070669-2.66934 1.070669-1.04134 0-1.86268-0.469334-0.80666-0.484001-1.276-1.393337-0.46933-0.924002-0.46933-2.229338 0-1.950671 0.98267-3.006674 0.98267-1.056002 2.66934-1.056002 1.07067 0 1.87733 0.484001 0.82134 0.469334 1.27601 1.37867 0.46933 0.894669 0.46933 2.200005zm-5.94001 0q0 1.393336 0.54267 2.214672 0.55733 0.806668 1.76 0.806668 1.188 0 1.74534-0.806668 0.55733-0.821336 0.55733-2.214672 0-1.393337-0.55733-2.185338-0.55734-0.792002-1.76001-0.792002t-1.74533 0.792002q-0.54267 0.792001-0.54267 2.185338z"/>
      <path d="m252.36148-97.418762q0.22 0 0.46934 0.02933 0.264 0.01467 0.45467 0.05867l-0.16134 1.188003q-0.19067-0.044-0.42533-0.07333-0.22-0.02933-0.42534-0.02933-0.60133 0-1.12933 0.337334-0.528 0.322667-0.85067 0.924002-0.308 0.586668-0.308 1.37867v4.194676h-1.29067v-7.861351h1.056l0.14667 1.437337h0.0587q0.38134-0.645335 0.98267-1.11467 0.60134-0.469334 1.42267-0.469334z"/>
      <path d="m257.17747-90.320079q0.29333 0 0.60133-0.044 0.308-0.05867 0.49867-0.117334v0.982669q-0.20534 0.102667-0.58667 0.161334-0.38133 0.07333-0.73333 0.07333-0.61601 0-1.14401-0.205334-0.51333-0.22-0.836-0.748001t-0.32267-1.481337v-4.57601h-1.11467v-0.616002l1.12934-0.513334 0.51333-1.672004h0.76267v1.804004h2.27334v0.997336h-2.27334v4.546677q0 0.718668 0.33734 1.070669 0.352 0.337334 0.89467 0.337334z"/>
      <path d="m266.88277-96.274759h-1.98v6.864015h-1.29067v-6.864015h-1.37867v-0.601335l1.37867-0.440001v-0.454668q0-1.525337 0.67467-2.185338 0.67466-0.674669 1.87733-0.674669 0.46934 0 0.85067 0.088 0.396 0.0733 0.67467 0.176l-0.33733 1.012003q-0.23467-0.07333-0.54267-0.146667-0.308-0.07333-0.63067-0.07333-0.64534 0-0.968 0.440001-0.308 0.425334-0.308 1.349336v0.513335h1.98z"/>
      <path d="m271.77212-97.418762q0.22 0 0.46933 0.02933 0.264 0.01467 0.45467 0.05867l-0.16134 1.188003q-0.19066-0.044-0.42533-0.07333-0.22-0.02933-0.42533-0.02933-0.60134 0-1.12934 0.337334-0.528 0.322667-0.85067 0.924002-0.308 0.586668-0.308 1.37867v4.194676h-1.29067v-7.861351h1.056l0.14667 1.437337h0.0587q0.38133-0.645335 0.98267-1.11467 0.60133-0.469334 1.42267-0.469334z"/>
      <path d="m280.5041-93.356086q0 1.950671-0.99733 3.02134-0.98267 1.070669-2.66934 1.070669-1.04134 0-1.86267-0.469334-0.80667-0.484001-1.27601-1.393337-0.46933-0.924002-0.46933-2.229338 0-1.950671 0.98267-3.006674 0.98267-1.056002 2.66934-1.056002 1.07067 0 1.87734 0.484001 0.82133 0.469334 1.276 1.37867 0.46933 0.894669 0.46933 2.200005zm-5.94001 0q0 1.393336 0.54267 2.214672 0.55733 0.806668 1.76 0.806668 1.188 0 1.74534-0.806668 0.55733-0.821336 0.55733-2.214672 0-1.393337-0.55733-2.185338-0.55734-0.792002-1.76-0.792002-1.20267 0-1.74534 0.792002-0.54267 0.792001-0.54267 2.185338z"/>
      <path d="m290.96678-97.418762q1.33467 0 1.99468 0.689335 0.66 0.674668 0.66 2.200005v5.118678h-1.27601v-5.060011q0-1.862671-1.59867-1.862671-1.144 0-1.64267 0.660001-0.484 0.660002-0.484 1.921338v4.341343h-1.276v-5.060011q0-1.862671-1.61334-1.862671-1.188 0-1.64267 0.733335t-0.45467 2.112005v4.077342h-1.29067v-7.861351h1.04134l0.19067 1.070669h0.0733q0.36667-0.616001 0.98267-0.909335 0.63067-0.308001 1.33467-0.308001 1.848 0 2.40534 1.320003h0.0733q0.396-0.674668 1.07067-0.997336 0.68934-0.322667 1.452-0.322667z"/>
      <path d="m307.30146-89.410744h-1.55467l-3.71067-5.001345-1.07067 0.938669v4.062676h-1.32001v-10.472024h1.32001v5.162679q0.44-0.498668 0.89467-0.997336 0.45466-0.498668 0.90933-0.997335l2.83067-3.168008h1.54001l-4.15068 4.561344z"/>
      <path d="m311.38413-97.418762q1.012 0 1.73067 0.440001 0.73333 0.440001 1.11467 1.246669 0.396 0.792002 0.396 1.862671v0.777335h-5.38268q0.0293 1.33467 0.67467 2.038672 0.66 0.689335 1.83334 0.689335 0.748 0 1.32-0.132001 0.58667-0.146667 1.20267-0.410667v1.129336q-0.60134 0.264-1.18801 0.381334-0.58666 0.132-1.39333 0.132-1.11467 0-1.98001-0.454667-0.85066-0.454668-1.33467-1.349337-0.46933-0.909335-0.46933-2.214672 0-1.290669 0.42533-2.214671 0.44-0.924002 1.21734-1.42267 0.792-0.498668 1.83334-0.498668zm-0.0147 1.056002q-0.924 0-1.46667 0.601335-0.528 0.586668-0.63067 1.64267h4.00401q-0.0147-0.997335-0.46933-1.613337-0.45467-0.630668-1.43734-0.630668z"/>
      <path d="m319.45613-97.418762q1.01201 0 1.73067 0.440001 0.73334 0.440001 1.11467 1.246669 0.396 0.792002 0.396 1.862671v0.777335h-5.38267q0.0293 1.33467 0.67466 2.038672 0.66001 0.689335 1.83334 0.689335 0.748 0 1.32-0.132001 0.58667-0.146667 1.20267-0.410667v1.129336q-0.60133 0.264-1.188 0.381334-0.58667 0.132-1.39334 0.132-1.11466 0-1.98-0.454667-0.85067-0.454668-1.33467-1.349337-0.46933-0.909335-0.46933-2.214672 0-1.290669 0.42533-2.214671 0.44-0.924002 1.21734-1.42267 0.792-0.498668 1.83333-0.498668zm-0.0147 1.056002q-0.92401 0-1.46667 0.601335-0.528 0.586668-0.63067 1.64267h4.00401q-0.0147-0.997335-0.46934-1.613337-0.45466-0.630668-1.43733-0.630668z"/>
      <path d="m327.44014-99.882768q2.05334 0 2.99201 0.806669 0.93867 0.806668 0.93867 2.273338 0 0.865336-0.39601 1.628004-0.38133 0.748002-1.30533 1.217336-0.90934 0.469335-2.47867 0.469335h-1.20267v4.077342h-1.32001v-10.472024zm-0.11733 1.129336h-1.33467v4.13601h1.056q1.496 0 2.22934-0.484001 0.73333-0.484002 0.73333-1.642671 0-1.012002-0.64533-1.51067-0.64534-0.498668-2.03867-0.498668z"/>
      <path d="m336.14282-97.404095q1.43734 0 2.12667 0.630668 0.68934 0.630668 0.68934 2.009338v5.353345h-0.93867l-0.24934-1.114669h-0.0587q-0.51334 0.645335-1.08534 0.953336-0.55733 0.308-1.55467 0.308-1.07067 0-1.77467-0.557334-0.704-0.572002-0.704-1.774671 0-1.173336 0.924-1.804004 0.924-0.645335 2.84534-0.704002l1.33467-0.044v-0.469334q0-0.982669-0.42533-1.364003-0.42534-0.381335-1.20267-0.381335-0.616 0-1.17334 0.190667-0.55733 0.176001-1.04133 0.410668l-0.39601-0.968002q0.51334-0.278668 1.21734-0.469335 0.704-0.205333 1.46667-0.205333zm0.38133 4.194676q-1.46667 0.05867-2.03867 0.469334-0.55733 0.410668-0.55733 1.15867 0 0.660001 0.396 0.968002 0.41067 0.308001 1.04134 0.308001 0.99733 0 1.65733-0.542668 0.66-0.557335 0.66-1.701338v-0.704001z"/>
      <path d="m346.31216-91.581415q0 1.144002-0.85067 1.73067t-2.28801 0.586668q-0.82133 0-1.42267-0.132-0.58666-0.132-1.04133-0.366668v-1.173336q0.46933 0.234668 1.12934 0.440001 0.67466 0.190668 1.364 0.190668 0.98267 0 1.42267-0.308001 0.44-0.322668 0.44-0.850669 0-0.293334-0.16133-0.528001-0.16134-0.234667-0.58667-0.469334-0.41067-0.234668-1.18801-0.528002-0.76266-0.293334-1.30533-0.586668t-0.836-0.704001q-0.29334-0.410668-0.29334-1.056003 0-0.997335 0.80667-1.540003 0.82134-0.542668 2.14134-0.542668 0.71867 0 1.33467 0.146667 0.63067 0.132 1.17334 0.381334l-0.44001 1.026669q-0.49866-0.205334-1.04133-0.352001t-1.11467-0.146667q-0.792 0-1.21734 0.264001-0.41066 0.249334-0.41066 0.689335 0 0.322667 0.19066 0.557334 0.19067 0.220001 0.63067 0.440001 0.45467 0.205334 1.20267 0.498668 0.748 0.278668 1.276 0.572002t0.80667 0.718668q0.27867 0.410668 0.27867 1.041336z"/>
      <path d="m353.13749-91.581415q0 1.144002-0.85067 1.73067t-2.288 0.586668q-0.82134 0-1.42267-0.132-0.58667-0.132-1.04134-0.366668v-1.173336q0.46934 0.234668 1.12934 0.440001 0.67467 0.190668 1.364 0.190668 0.98267 0 1.42267-0.308001 0.44-0.322668 0.44-0.850669 0-0.293334-0.16133-0.528001-0.16134-0.234667-0.58667-0.469334-0.41067-0.234668-1.188-0.528002-0.76267-0.293334-1.30534-0.586668t-0.836-0.704001q-0.29333-0.410668-0.29333-1.056003 0-0.997335 0.80666-1.540003 0.82134-0.542668 2.14134-0.542668 0.71867 0 1.33467 0.146667 0.63067 0.132 1.17334 0.381334l-0.44 1.026669q-0.49867-0.205334-1.04134-0.352001t-1.11467-0.146667q-0.792 0-1.21733 0.264001-0.41067 0.249334-0.41067 0.689335 0 0.322667 0.19067 0.557334 0.19066 0.220001 0.63066 0.440001 0.45467 0.205334 1.20267 0.498668 0.748 0.278668 1.27601 0.572002 0.528 0.293334 0.80666 0.718668 0.27867 0.410668 0.27867 1.041336z"/>
      <path d="m362.41745-89.410744h-1.26133v-7.318683q0-0.630668 0.0147-1.012003 0.0147-0.381334 0.044-0.792001-0.23467 0.234667-0.42533 0.396001-0.19067 0.161333-0.484 0.410667l-1.11467 0.909336-0.67467-0.865336 2.83067-2.200005h1.07067z"/>
    </g>
    <rect x="184.377" y="234.37935" width="169.21648" height="35.35611" ry="3.9779475" fill="url(#linearGradient31646)" stroke="#666a6d"/>
    <g transform="translate(-19.319522,345.31815)" fill="#eff0f1" style="inline-size:355.016;white-space:pre" aria-label="Import from 1Password">
      <path d="m213.16542-89.410744h-3.78401v-0.762668l1.23201-0.278667v-8.374686l-1.23201-0.293334v-0.762669h3.78401v0.762669l-1.232 0.293334v8.374686l1.232 0.278667z"/>
      <path d="m223.43743-97.418762q1.33467 0 1.99467 0.689335 0.66 0.674668 0.66 2.200005v5.118678h-1.276v-5.060011q0-1.862671-1.59867-1.862671-1.144 0-1.64267 0.660001-0.484 0.660002-0.484 1.921338v4.341343h-1.276v-5.060011q0-1.862671-1.61334-1.862671-1.188 0-1.64267 0.733335t-0.45467 2.112005v4.077342h-1.29067v-7.861351h1.04134l0.19066 1.070669h0.0733q0.36666-0.616001 0.98267-0.909335 0.63066-0.308001 1.33467-0.308001 1.848 0 2.40533 1.320003h0.0733q0.396-0.674668 1.07067-0.997336 0.68933-0.322667 1.452-0.322667z"/>
      <path d="m232.06678-97.418762q1.452 0 2.332 1.012002 0.89467 1.012003 0.89467 3.050674 0 2.009338-0.89467 3.050674-0.88 1.041335-2.34667 1.041335-0.90934 0-1.51067-0.337334-0.58667-0.352001-0.924-0.806668h-0.088q0.0293 0.249334 0.0587 0.630668 0.0293 0.381334 0.0293 0.660001v3.226674h-1.29067v-11.381359h1.056l0.176 1.070669h0.0587q0.352-0.513334 0.924-0.865335t1.52534-0.352001zm-0.23467 1.085336q-1.20267 0-1.70134 0.674668-0.484 0.674668-0.51333 2.053338v0.249334q0 1.452003 0.46933 2.244005 0.484 0.777335 1.77467 0.777335 0.71867 0 1.17334-0.396001 0.46933-0.396001 0.68933-1.070669 0.23467-0.689335 0.23467-1.569337 0-1.349336-0.528-2.156005-0.51334-0.806668-1.59867-0.806668z"/>
      <path d="m243.98147-93.356086q0 1.950671-0.99734 3.02134-0.98267 1.070669-2.66934 1.070669-1.04133 0-1.86267-0.469334-0.80667-0.484001-1.276-1.393337-0.46934-0.924002-0.46934-2.229338 0-1.950671 0.98267-3.006674 0.98267-1.056002 2.66934-1.056002 1.07067 0 1.87734 0.484001 0.82133 0.469334 1.276 1.37867 0.46934 0.894669 0.46934 2.200005zm-5.94002 0q0 1.393336 0.54267 2.214672 0.55734 0.806668 1.76 0.806668 1.18801 0 1.74534-0.806668 0.55734-0.821336 0.55734-2.214672 0-1.393337-0.55734-2.185338-0.55733-0.792002-1.76-0.792002t-1.74534 0.792002q-0.54267 0.792001-0.54267 2.185338z"/>
      <path d="m249.48681-97.418762q0.22 0 0.46933 0.02933 0.264 0.01467 0.45467 0.05867l-0.16133 1.188003q-0.19067-0.044-0.42534-0.07333-0.22-0.02933-0.42533-0.02933-0.60134 0-1.12934 0.337334-0.528 0.322667-0.85067 0.924002-0.308 0.586668-0.308 1.37867v4.194676h-1.29067v-7.861351h1.05601l0.14666 1.437337h0.0587q0.38133-0.645335 0.98267-1.11467 0.60133-0.469334 1.42267-0.469334z"/>
      <path d="m254.30279-90.320079q0.29334 0 0.60134-0.044 0.308-0.05867 0.49866-0.117334v0.982669q-0.20533 0.102667-0.58666 0.161334-0.38134 0.07333-0.73334 0.07333-0.616 0-1.144-0.205334-0.51334-0.22-0.836-0.748001-0.32267-0.528001-0.32267-1.481337v-4.57601h-1.11467v-0.616002l1.12934-0.513334 0.51333-1.672004h0.76267v1.804004h2.27334v0.997336h-2.27334v4.546677q0 0.718668 0.33733 1.070669 0.352 0.337334 0.89467 0.337334z"/>
      <path d="m264.0081-96.274759h-1.98001v6.864015h-1.29067v-6.864015h-1.37867v-0.601335l1.37867-0.440001v-0.454668q0-1.525337 0.67467-2.185338 0.67467-0.674669 1.87734-0.674669 0.46933 0 0.85067 0.088 0.396 0.0733 0.67467 0.176l-0.33734 1.012003q-0.23467-0.07333-0.54267-0.146667-0.308-0.07333-0.63066-0.07333-0.64534 0-0.96801 0.440001-0.308 0.425334-0.308 1.349336v0.513335h1.98001z"/>
      <path d="m268.89744-97.418762q0.22 0 0.46934 0.02933 0.264 0.01467 0.45466 0.05867l-0.16133 1.188003q-0.19067-0.044-0.42533-0.07333-0.22001-0.02933-0.42534-0.02933-0.60133 0-1.12933 0.337334-0.52801 0.322667-0.85067 0.924002-0.308 0.586668-0.308 1.37867v4.194676h-1.29067v-7.861351h1.056l0.14667 1.437337h0.0587q0.38134-0.645335 0.98267-1.11467 0.60134-0.469334 1.42267-0.469334z"/>
      <path d="m277.62943-93.356086q0 1.950671-0.99734 3.02134-0.98267 1.070669-2.66934 1.070669-1.04133 0-1.86267-0.469334-0.80667-0.484001-1.276-1.393337-0.46933-0.924002-0.46933-2.229338 0-1.950671 0.98266-3.006674 0.98267-1.056002 2.66934-1.056002 1.07067 0 1.87734 0.484001 0.82134 0.469334 1.276 1.37867 0.46934 0.894669 0.46934 2.200005zm-5.94001 0q0 1.393336 0.54266 2.214672 0.55734 0.806668 1.76001 0.806668 1.188 0 1.74533-0.806668 0.55734-0.821336 0.55734-2.214672 0-1.393337-0.55734-2.185338-0.55733-0.792002-1.76-0.792002t-1.74534 0.792002q-0.54266 0.792001-0.54266 2.185338z"/>
      <path d="m288.09211-97.418762q1.33467 0 1.99467 0.689335 0.66 0.674668 0.66 2.200005v5.118678h-1.276v-5.060011q0-1.862671-1.59867-1.862671-1.144 0-1.64267 0.660001-0.484 0.660002-0.484 1.921338v4.341343h-1.27601v-5.060011q0-1.862671-1.61333-1.862671-1.188 0-1.64267 0.733335t-0.45467 2.112005v4.077342h-1.29067v-7.861351h1.04134l0.19066 1.070669h0.0733q0.36666-0.616001 0.98267-0.909335 0.63066-0.308001 1.33467-0.308001 1.848 0 2.40533 1.320003h0.0733q0.396-0.674668 1.07067-0.997336 0.68933-0.322667 1.452-0.322667z"/>
      <path d="m300.55478-89.410744h-1.26134v-7.318683q0-0.630668 0.0147-1.012003 0.0147-0.381334 0.044-0.792001-0.23467 0.234667-0.42534 0.396001-0.19066 0.161333-0.484 0.410667l-1.11467 0.909336-0.67466-0.865336 2.83067-2.200005h1.07067z"/>
      <path d="m307.73211-99.882768q2.05333 0 2.992 0.806669 0.93867 0.806668 0.93867 2.273338 0 0.865336-0.396 1.628004-0.38133 0.748002-1.30534 1.217336-0.90933 0.469335-2.47867 0.469335h-1.20267v4.077342h-1.32v-10.472024zm-0.11734 1.129336h-1.33467v4.13601h1.05601q1.496 0 2.22933-0.484001 0.73334-0.484002 0.73334-1.642671 0-1.012002-0.64534-1.51067-0.64533-0.498668-2.03867-0.498668z"/>
      <path d="m316.43479-97.404095q1.43733 0 2.12667 0.630668 0.68933 0.630668 0.68933 2.009338v5.353345h-0.93867l-0.24933-1.114669h-0.0587q-0.51333 0.645335-1.08533 0.953336-0.55734 0.308-1.55467 0.308-1.07067 0-1.77467-0.557334-0.704-0.572002-0.704-1.774671 0-1.173336 0.924-1.804004 0.924-0.645335 2.84534-0.704002l1.33467-0.044v-0.469334q0-0.982669-0.42534-1.364003-0.42533-0.381335-1.20267-0.381335-0.616 0-1.17333 0.190667-0.55734 0.176001-1.04134 0.410668l-0.396-0.968002q0.51334-0.278668 1.21734-0.469335 0.704-0.205333 1.46667-0.205333zm0.38133 4.194676q-1.46667 0.05867-2.03867 0.469334-0.55733 0.410668-0.55733 1.15867 0 0.660001 0.396 0.968002 0.41066 0.308001 1.04133 0.308001 0.99734 0 1.65734-0.542668 0.66-0.557335 0.66-1.701338v-0.704001z"/>
      <path d="m326.60413-91.581415q0 1.144002-0.85067 1.73067t-2.28801 0.586668q-0.82133 0-1.42267-0.132-0.58667-0.132-1.04133-0.366668v-1.173336q0.46933 0.234668 1.12933 0.440001 0.67467 0.190668 1.364 0.190668 0.98267 0 1.42267-0.308001 0.44001-0.322668 0.44001-0.850669 0-0.293334-0.16134-0.528001-0.16133-0.234667-0.58667-0.469334-0.41066-0.234668-1.188-0.528002-0.76267-0.293334-1.30533-0.586668-0.54267-0.293334-0.83601-0.704001-0.29333-0.410668-0.29333-1.056003 0-0.997335 0.80667-1.540003 0.82133-0.542668 2.14134-0.542668 0.71866 0 1.33467 0.146667 0.63066 0.132 1.17333 0.381334l-0.44 1.026669q-0.49867-0.205334-1.04134-0.352001-0.54266-0.146667-1.11466-0.146667-0.79201 0-1.21734 0.264001-0.41067 0.249334-0.41067 0.689335 0 0.322667 0.19067 0.557334 0.19067 0.220001 0.63067 0.440001 0.45466 0.205334 1.20267 0.498668 0.748 0.278668 1.276 0.572002t0.80667 0.718668q0.27867 0.410668 0.27867 1.041336z"/>
      <path d="m333.42945-91.581415q0 1.144002-0.85067 1.73067t-2.288 0.586668q-0.82134 0-1.42267-0.132-0.58667-0.132-1.04134-0.366668v-1.173336q0.46934 0.234668 1.12934 0.440001 0.67466 0.190668 1.364 0.190668 0.98267 0 1.42267-0.308001 0.44-0.322668 0.44-0.850669 0-0.293334-0.16133-0.528001-0.16134-0.234667-0.58667-0.469334-0.41067-0.234668-1.188-0.528002-0.76267-0.293334-1.30534-0.586668t-0.836-0.704001q-0.29334-0.410668-0.29334-1.056003 0-0.997335 0.80667-1.540003 0.82134-0.542668 2.14134-0.542668 0.71867 0 1.33467 0.146667 0.63067 0.132 1.17334 0.381334l-0.44 1.026669q-0.49867-0.205334-1.04134-0.352001t-1.11467-0.146667q-0.792 0-1.21734 0.264001-0.41066 0.249334-0.41066 0.689335 0 0.322667 0.19066 0.557334 0.19067 0.220001 0.63067 0.440001 0.45467 0.205334 1.20267 0.498668 0.748 0.278668 1.276 0.572002 0.52801 0.293334 0.80667 0.718668 0.27867 0.410668 0.27867 1.041336z"/>
      <path d="m340.21078-93.854754q-0.19067-0.601335-0.33734-1.173336-0.132-0.586668-0.20533-0.909335h-0.0587q-0.0587 0.322667-0.19067 0.909335-0.132 0.572001-0.33733 1.188003l-1.408 4.414677h-1.46667l-2.15601-7.861352h1.33467l1.08534 4.194676q0.16133 0.630669 0.308 1.276003 0.14666 0.645335 0.20533 1.07067h0.0587q0.0587-0.249334 0.132-0.616002 0.088-0.366667 0.19067-0.762668 0.10266-0.410668 0.20533-0.733335l1.39334-4.429344h1.408l1.34934 4.429344q0.16133 0.498668 0.308 1.085336 0.16133 0.586668 0.22 1.012002h0.0587q0.044-0.366668 0.19067-1.012002 0.16133-0.645335 0.33733-1.320004l1.10001-4.194676h1.32l-2.18534 7.861352h-1.51067z"/>
      <path d="m353.2988-93.356086q0 1.950671-0.99734 3.02134-0.98267 1.070669-2.66934 1.070669-1.04133 0-1.86267-0.469334-0.80667-0.484001-1.276-1.393337-0.46934-0.924002-0.46934-2.229338 0-1.950671 0.98267-3.006674 0.98267-1.056002 2.66934-1.056002 1.07067 0 1.87734 0.484001 0.82134 0.469334 1.276 1.37867 0.46934 0.894669 0.46934 2.200005zm-5.94002 0q0 1.393336 0.54267 2.214672 0.55734 0.806668 1.76001 0.806668 1.188 0 1.74533-0.806668 0.55734-0.821336 0.55734-2.214672 0-1.393337-0.55734-2.185338-0.55733-0.792002-1.76-0.792002t-1.74534 0.792002q-0.54267 0.792001-0.54267 2.185338z"/>
      <path d="m358.80413-97.418762q0.22 0 0.46933 0.02933 0.26401 0.01467 0.45467 0.05867l-0.16133 1.188003q-0.19067-0.044-0.42534-0.07333-0.22-0.02933-0.42533-0.02933-0.60133 0-1.12934 0.337334-0.528 0.322667-0.85066 0.924002-0.30801 0.586668-0.30801 1.37867v4.194676h-1.29067v-7.861351h1.05601l0.14666 1.437337h0.0587q0.38134-0.645335 0.98267-1.11467 0.60133-0.469334 1.42267-0.469334z"/>
      <path d="m363.48811-89.264077q-1.46667 0-2.34667-1.012002-0.88001-1.026669-0.88001-3.050674 0-2.024004 0.88001-3.050673 0.89466-1.041336 2.36133-1.041336 0.90934 0 1.48134 0.337334 0.58667 0.337334 0.95334 0.821335h0.088q-0.0147-0.190667-0.0587-0.557334-0.0293-0.381335-0.0293-0.601335v-3.138678h1.29067v11.146696h-1.04134l-0.19067-1.056002h-0.0587q-0.352 0.498668-0.93867 0.850668-0.58667 0.352001-1.51067 0.352001zm0.20533-1.070669q1.24667 0 1.74534-0.674668 0.51333-0.689335 0.51333-2.068005v-0.234667q0-1.46667-0.484-2.244005-0.484-0.792002-1.78933-0.792002-1.04134 0-1.56934 0.836002-0.51334 0.821335-0.51334 2.214672 0 1.408003 0.51334 2.185338 0.528 0.777335 1.584 0.777335z"/>
    </g>
    <rect x="361.4899" y="234.37935" width="121.02028" height="35.876007" ry="3.9779475" fill="url(#linearGradient31654)" stroke="#666a6d"/>
    <g transform="translate(133.07193,345.5781)" fill="#eff0f1" style="inline-size:355.016;white-space:pre" aria-label="Import from CSV">
      <path d="m236.86808-89.410744h-3.784v-0.762668l1.232-0.278667v-8.374686l-1.232-0.293334v-0.762669h3.784v0.762669l-1.232 0.293334v8.374686l1.232 0.278667z"/>
      <path d="m247.14009-97.418762q1.33467 0 1.99467 0.689335 0.66 0.674668 0.66 2.200005v5.118678h-1.276v-5.060011q0-1.862671-1.59867-1.862671-1.144 0-1.64267 0.660001-0.484 0.660002-0.484 1.921338v4.341343h-1.276v-5.060011q0-1.862671-1.61334-1.862671-1.188 0-1.64267 0.733335t-0.45467 2.112005v4.077342h-1.29067v-7.861351h1.04134l0.19066 1.070669h0.0733q0.36666-0.616001 0.98267-0.909335 0.63066-0.308001 1.33467-0.308001 1.848 0 2.40533 1.320003h0.0733q0.396-0.674668 1.07067-0.997336 0.68933-0.322667 1.452-0.322667z"/>
      <path d="m255.76944-97.418762q1.452 0 2.332 1.012002 0.89467 1.012003 0.89467 3.050674 0 2.009338-0.89467 3.050674-0.88 1.041335-2.34667 1.041335-0.90934 0-1.51067-0.337334-0.58667-0.352001-0.924-0.806668h-0.088q0.0293 0.249334 0.0587 0.630668 0.0293 0.381334 0.0293 0.660001v3.226674h-1.29067v-11.381359h1.056l0.176 1.070669h0.0587q0.352-0.513334 0.924-0.865335t1.52534-0.352001zm-0.23467 1.085336q-1.20267 0-1.70134 0.674668-0.484 0.674668-0.51333 2.053338v0.249334q0 1.452003 0.46933 2.244005 0.484 0.777335 1.77467 0.777335 0.71867 0 1.17334-0.396001 0.46933-0.396001 0.68933-1.070669 0.23467-0.689335 0.23467-1.569337 0-1.349336-0.528-2.156005-0.51334-0.806668-1.59867-0.806668z"/>
      <path d="m267.68413-93.356086q0 1.950671-0.99734 3.02134-0.98267 1.070669-2.66934 1.070669-1.04133 0-1.86267-0.469334-0.80667-0.484001-1.276-1.393337-0.46934-0.924002-0.46934-2.229338 0-1.950671 0.98267-3.006674 0.98267-1.056002 2.66934-1.056002 1.07067 0 1.87734 0.484001 0.82133 0.469334 1.276 1.37867 0.46934 0.894669 0.46934 2.200005zm-5.94002 0q0 1.393336 0.54267 2.214672 0.55734 0.806668 1.76 0.806668 1.18801 0 1.74534-0.806668 0.55734-0.821336 0.55734-2.214672 0-1.393337-0.55734-2.185338-0.55733-0.792002-1.76-0.792002t-1.74534 0.792002q-0.54267 0.792001-0.54267 2.185338z"/>
      <path d="m273.18947-97.418762q0.22 0 0.46933 0.02933 0.264 0.01467 0.45467 0.05867l-0.16133 1.188003q-0.19067-0.044-0.42534-0.07333-0.22-0.02933-0.42533-0.02933-0.60134 0-1.12934 0.337334-0.528 0.322667-0.85067 0.924002-0.308 0.586668-0.308 1.37867v4.194676h-1.29067v-7.861351h1.05601l0.14666 1.437337h0.0587q0.38133-0.645335 0.98267-1.11467 0.60133-0.469334 1.42267-0.469334z"/>
      <path d="m278.00545-90.320079q0.29334 0 0.60134-0.044 0.308-0.05867 0.49866-0.117334v0.982669q-0.20533 0.102667-0.58666 0.161334-0.38134 0.07333-0.73334 0.07333-0.616 0-1.144-0.205334-0.51334-0.22-0.836-0.748001-0.32267-0.528001-0.32267-1.481337v-4.57601h-1.11467v-0.616002l1.12934-0.513334 0.51333-1.672004h0.76267v1.804004h2.27334v0.997336h-2.27334v4.546677q0 0.718668 0.33733 1.070669 0.352 0.337334 0.89467 0.337334z"/>
      <path d="m287.71076-96.274759h-1.98001v6.864015h-1.29067v-6.864015h-1.37867v-0.601335l1.37867-0.440001v-0.454668q0-1.525337 0.67467-2.185338 0.67467-0.674669 1.87734-0.674669 0.46933 0 0.85067 0.088 0.396 0.0733 0.67467 0.176l-0.33734 1.012003q-0.23467-0.07333-0.54267-0.146667-0.308-0.07333-0.63066-0.07333-0.64534 0-0.96801 0.440001-0.308 0.425334-0.308 1.349336v0.513335h1.98001z"/>
      <path d="m292.6001-97.418762q0.22 0 0.46934 0.02933 0.264 0.01467 0.45466 0.05867l-0.16133 1.188003q-0.19067-0.044-0.42533-0.07333-0.22-0.02933-0.42534-0.02933-0.60133 0-1.12933 0.337334-0.52801 0.322667-0.85067 0.924002-0.308 0.586668-0.308 1.37867v4.194676h-1.29067v-7.861351h1.056l0.14667 1.437337h0.0587q0.38134-0.645335 0.98267-1.11467 0.60134-0.469334 1.42267-0.469334z"/>
      <path d="m301.33209-93.356086q0 1.950671-0.99734 3.02134-0.98267 1.070669-2.66934 1.070669-1.04133 0-1.86267-0.469334-0.80667-0.484001-1.276-1.393337-0.46933-0.924002-0.46933-2.229338 0-1.950671 0.98266-3.006674 0.98267-1.056002 2.66934-1.056002 1.07067 0 1.87734 0.484001 0.82134 0.469334 1.276 1.37867 0.46934 0.894669 0.46934 2.200005zm-5.94001 0q0 1.393336 0.54266 2.214672 0.55734 0.806668 1.76001 0.806668 1.188 0 1.74533-0.806668 0.55734-0.821336 0.55734-2.214672 0-1.393337-0.55734-2.185338-0.55733-0.792002-1.76-0.792002t-1.74534 0.792002q-0.54266 0.792001-0.54266 2.185338z"/>
      <path d="m311.79477-97.418762q1.33467 0 1.99467 0.689335 0.66 0.674668 0.66 2.200005v5.118678h-1.276v-5.060011q0-1.862671-1.59867-1.862671-1.144 0-1.64267 0.660001-0.484 0.660002-0.484 1.921338v4.341343h-1.276v-5.060011q0-1.862671-1.61334-1.862671-1.188 0-1.64267 0.733335t-0.45467 2.112005v4.077342h-1.29067v-7.861351h1.04134l0.19066 1.070669h0.0733q0.36666-0.616001 0.98267-0.909335 0.63066-0.308001 1.33467-0.308001 1.848 0 2.40533 1.320003h0.0733q0.396-0.674668 1.07067-0.997336 0.68933-0.322667 1.452-0.322667z"/>
      <path d="m324.96144-98.870765q-1.68667 0-2.65467 1.129335-0.96801 1.129336-0.96801 3.094674 0 1.950671 0.89467 3.094674 0.90934 1.129336 2.71334 1.129336 0.68934 0 1.30534-0.117334 0.616-0.117333 1.20267-0.293334v1.144003q-0.58667 0.22-1.21734 0.322667-0.616 0.102667-1.48133 0.102667-1.59867 0-2.66934-0.660001-1.07067-0.660002-1.61334-1.877338-0.528-1.217336-0.528-2.860006 0-1.584004 0.572-2.786674 0.58667-1.217336 1.716-1.892004 1.12934-0.68933 2.74268-0.68933 1.65733 0 2.88934 0.615997l-0.528 1.114669q-0.48401-0.220001-1.08534-0.396001-0.58667-0.176-1.29067-0.176z"/>
      <path d="m335.48279-92.212083q0 1.393336-1.012 2.170671t-2.728 0.777335q-0.88001 0-1.62801-0.132t-1.24667-0.366668v-1.261336q0.528 0.234667 1.30534 0.425335 0.792 0.190667 1.628 0.190667 1.17334 0 1.76001-0.454668 0.60133-0.454668 0.60133-1.232003 0-0.513334-0.22-0.865335t-0.76267-0.645335q-0.528-0.308001-1.48133-0.645335-1.33467-0.484001-2.02401-1.188003-0.67467-0.704001-0.67467-1.921337 0-0.836002 0.42534-1.42267 0.42533-0.601335 1.17333-0.924002 0.76267-0.322663 1.74534-0.322663 0.86534 0 1.584 0.161329 0.71867 0.161334 1.30534 0.425334l-0.41067 1.129336q-0.54267-0.234667-1.188-0.396001-0.63067-0.161333-1.32-0.161333-0.98267 0-1.48134 0.425334-0.49867 0.410667-0.49867 1.100002 0 0.528002 0.22 0.880002 0.22 0.352001 0.71867 0.630669 0.49867 0.278667 1.34934 0.601334 0.924 0.337334 1.55467 0.733335 0.64533 0.381334 0.968 0.924002 0.33733 0.542668 0.33733 1.364004z"/>
      <path d="m344.77215-99.882768-3.74001 10.472024h-1.32l-3.74001-10.472024h1.37867l2.36134 6.717349q0.23467 0.645335 0.396 1.217336 0.16133 0.557335 0.264 1.070669 0.10267-0.513334 0.264-1.085336 0.16134-0.572001 0.396-1.232002l2.34667-6.688016z"/>
    </g>
  </g>
  <g transform="matrix(.5 0 0 .5 219.75 22.80623)" style="isolation:isolate">
    <g id="b">
      <g id="c">
        <rect width="128" height="128" fill="none"/>
        <g id="d">
          <path id="f" d="m63.9999 124.9c-33.5805 0-60.9001-27.3198-60.9001-60.9s27.3196-60.9 60.9001-60.9 60.8999 27.3195 60.8999 60.9-27.3193 60.9-60.8999 60.9zm0-116.676c-30.7415 0-55.7515 25.021-55.7515 55.7759s25.01 55.7759 55.7515 55.7759 55.7512-25.0212 55.7512-55.7759-25.0097-55.7759-55.7512-55.7759z" fill="url(#e)"/>
          <path id="h" d="m63.9999 3.1238c-33.5674 0-60.8763 27.3089-60.8763 60.8762s27.3089 60.8762 60.8763 60.8762 60.8761-27.3091 60.8761-60.8762-27.3086-60.8762-60.8761-60.8762z" fill="url(#g)" opacity=".32" style="mix-blend-mode:lighten"/>
          <path id="j" d="m63.9999 124.9c-33.5805 0-60.9001-27.3198-60.9001-60.9s27.3196-60.9 60.9001-60.9 60.8999 27.3195 60.8999 60.9-27.3193 60.9-60.8999 60.9zm0-116.676c-30.7415 0-55.7515 25.021-55.7515 55.7759s25.01 55.7759 55.7515 55.7759 55.7512-25.0212 55.7512-55.7759-25.0097-55.7759-55.7512-55.7759z" fill="url(#i)" opacity=".44"/>
          <path id="k" d="m63.9999 8.5504c-30.9783 0-56.1809 25.2025-56.1809 56.1808s25.2025 56.1808 56.1809 56.1808 56.1807-25.2028 56.1807-56.1808-25.2023-56.1808-56.1807-56.1808z"/>
          <path id="l" d="m63.9999 124.9c-33.5805 0-60.9001-27.3198-60.9001-60.9s27.3196-60.9 60.9001-60.9 60.8999 27.3195 60.8999 60.9-27.3193 60.9-60.8999 60.9zm0-120.497c-33.5804 0-60.9001 26.9562-60.9001 60.0898s27.3197 60.0898 60.9001 60.0898 60.8999-26.9565 60.8999-60.0898-27.3194-60.0898-60.8998-60.0898z" fill="#0f0f0d" opacity=".35"/>
        </g>
        <g id="m">
          <path id="o" d="m63.9999 8.2241c-30.7551 0-55.776 25.0209-55.776 55.7759s25.0209 55.7759 55.776 55.7759 55.7758-25.0211 55.7758-55.7759-25.0207-55.7759-55.7758-55.7759z" fill="url(#n)"/>
          <path id="q" d="m63.9999 8.2241c-30.7551 0-55.776 25.0209-55.776 55.7759s25.0209 55.7759 55.776 55.7759 55.7758-25.0211 55.7758-55.7759-25.0207-55.7759-55.7758-55.7759z" fill="url(#p)" opacity=".13" style="mix-blend-mode:multiply"/>
          <path id="s" d="m63.9998 12.8613c-9.1608 0-16.6136 7.4528-16.6136 16.6135s7.4528 16.6135 16.6136 16.6135 16.6135-7.4528 16.6135-16.6135-7.4527-16.6135-16.6135-16.6135z" fill="url(#r)" opacity=".7" style="mix-blend-mode:lighten"/>
          <path id="u" d="m34.6871 16.3645c-0.0027 0.0191-0.0054 0.0378-0.0081 0.0569-0.0725 0.0136-0.0736-0.0037 0.0081-0.0569zm42.1177 35.8001-0.7714 13.7822 9.1023 9.9165-9.1023 9.9165 6.0168 6.5549-6.0168 6.5549 0.7714 13.6696h-25.61v-60.3946c-10.1823-5.2104-17.1248-16.4714-17.1248-29.4132 0-2.1659 0.3032-4.1671 0.609-6.33 1.1046-0.2082 18.9673-7.6947 18.9673-7.6947-0.1483 0.8092 20.8551 0.8092 20.7068 0 0 0 17.2577 7.4257 18.9891 7.7899 0.438 2.1264 0.5873 4.101 0.5873 6.2348 0 12.9418-7.0968 24.2029-17.1248 29.4133zm16.5077-35.8001c0.0108 0.0511 0.0194 0.1011 0.0299 0.1521 0.1896 0.0399 0.196-0.0035-0.0299-0.1521z" fill="url(#t)" opacity=".3" style="mix-blend-mode:multiply"/>
          <path id="v" d="m34.1161 100.432c-9.8977-8.6081-16.164-21.2969-16.164-35.4968 0-16.5227 8.6409-31.7744 22.8728-40.29-0.2541 1.6523-0.5083 3.1774-0.5083 4.8297 0 9.7865 5.7182 18.302 14.1049 22.2421v44.6113l10.5469 10.5491 10.5469-10.5491-0.6354-9.2781 4.9558-4.9568-4.9558-4.9568 7.4972-7.4988-7.4972-7.4988 0.6354-10.422c8.2596-3.94 14.1049-12.4556 14.1049-22.2421 0-1.6523-0.1271-3.1774-0.5083-4.8297 5.1643 3.1178 9.5922 7.1416 13.1419 11.7972-8.5841-11.7889-22.5293-19.4587-38.2766-19.4587-26.0911 0-47.2421 21.05-47.2421 47.0165 0 14.693 6.7736 27.8101 17.3809 36.4318zm27.4214-7.6624h-3.558v-35.2061h3.558zm-5.0828-73.9708c2.7956-0.5084 5.7182-0.7626 8.5138-0.7626 2.9226-0.1271 5.7182 0.2542 8.5138 0.7626 0.1271 0.6355 0.2542 1.271 0.2542 1.9064 0 4.8297-3.9392 8.7698-8.7679 8.7698s-8.7679-3.94-8.7679-8.7698c0-0.6355 0.1271-1.2709 0.2542-1.9064z" fill="#0f0f0d" opacity=".2" style="mix-blend-mode:multiply"/>
          <path id="x" d="m63.9999 8.2241c-30.7415 0-55.7514 25.0209-55.7514 55.7759s25.01 55.7759 55.7514 55.7759 55.7512-25.0212 55.7512-55.7759-25.0097-55.7759-55.7512-55.7759zm-8.5138 9.5882c2.7956-0.5084 5.7182-0.7626 8.5138-0.7626 2.9226-0.1271 5.7182 0.2542 8.5138 0.7626 0.1271 0.6355 0.2542 1.271 0.2542 1.9064 0 4.8297-3.9392 8.7698-8.7679 8.7698s-8.7679-3.94-8.7679-8.7698c0-0.6355 0.1271-1.2709 0.2542-1.9064zm5.0828 38.7648v35.2061h-3.558v-35.2061zm3.4309 54.3978c-25.9225 0-47.0163-20.9711-47.0163-47.0261 0-16.5227 8.6409-31.7744 22.8728-40.29-0.2541 1.6523-0.5083 3.1774-0.5083 4.8297 0 9.7865 5.7182 18.302 14.1049 22.2421v44.6113l10.5469 10.5491 10.5469-10.5491-0.6354-9.2781 4.9558-4.9568-4.9558-4.9568 7.4972-7.4988-7.4972-7.4988 0.6354-10.422c8.2596-3.94 14.1049-12.4556 14.1049-22.2421 0-1.6523-0.1271-3.1774-0.5083-4.8297 14.1049 8.5156 22.7457 23.7673 22.8728 40.29 0 25.9279-20.9668 47.0261-47.0163 47.0261z" fill="url(#w)"/>
        </g>
      </g>
    </g>
  </g>
  <text x="95.712013" y="116.44412" fill="#eff0f1" font-family="'Noto Sans'" font-size="21.3333px" xml:space="preserve"><tspan x="95.712013" y="116.44412" fill="#eff0f1" font-family="'Noto Sans'" font-size="24px" font-weight="bold" style="font-variant-caps:normal;font-variant-east-asian:normal;font-variant-ligatures:normal;font-variant-numeric:normal">Welcome to KeePassXC 2.75</tspan></text>
</svg>
