<!-- Created with Inkscape (http://www.inkscape.org/) -->
<svg width="101.19mm" height="39.863mm" version="1.1" viewBox="0 0 101.19 39.863" xmlns="http://www.w3.org/2000/svg">
 <rect width="101.19" height="39.863" fill="#483737" stroke-width="1.382"/>
 <g transform="matrix(.26458 0 0 .26458 -40.929 -61.456)" fill="#f60" stroke-width="5.2233" style="shape-inside:url(#rect342);white-space:pre" aria-label="KFocus-Mime BackInTime Placeholder">
  <path d="m206.92 302.21q-0.53733 0.58933-1.2133 1.3173-0.676 0.71067-1.4213 1.4733-0.728 0.74534-1.456 1.4733-0.728 0.728-1.3693 1.352 0.74533 0.52 1.5773 1.2827 0.832 0.76266 1.6293 1.6293 0.79733 0.86666 1.4907 1.768 0.71067 0.90133 1.1787 1.716h-1.976q-0.52-0.81467-1.196-1.6293-0.67599-0.832-1.4387-1.5773-0.74533-0.76267-1.5253-1.404-0.76267-0.64133-1.4907-1.092v5.7027h-1.6813v-12.012h1.6813v5.304q0.60666-0.572 1.3347-1.2827 0.728-0.728 1.4387-1.456 0.71067-0.728 1.3347-1.3867 0.64133-0.676 1.0747-1.1787z"/>
  <path d="m208.93 314.22v-12.012h7.2453v1.4387h-5.564v3.6227h4.94v1.4213h-4.94v5.5293z"/>
  <path d="m225.85 309.71q0 1.0747-0.312 1.9413-0.31199 0.86667-0.88399 1.4907-0.55467 0.624-1.3347 0.97067-0.78 0.32933-1.6987 0.32933-0.91867 0-1.6987-0.32933-0.78-0.34667-1.352-0.97067-0.55467-0.62399-0.86667-1.4907-0.312-0.86666-0.312-1.9413 0-1.0573 0.312-1.924 0.312-0.884 0.86667-1.508 0.572-0.624 1.352-0.95333 0.77999-0.34667 1.6987-0.34667 0.91866 0 1.6987 0.34667 0.78 0.32933 1.3347 0.95333 0.572 0.624 0.88399 1.508 0.312 0.86666 0.312 1.924zm-1.6813 0q0-1.5253-0.69333-2.4093-0.676-0.90133-1.8547-0.90133-1.1787 0-1.872 0.90133-0.676 0.884-0.676 2.4093t0.676 2.4267q0.69333 0.884 1.872 0.884 1.1787 0 1.8547-0.884 0.69333-0.90133 0.69333-2.4267z"/>
  <path d="m232.04 314.43q-1.092 0-1.924-0.34667-0.81466-0.34666-1.3867-0.97066-0.55466-0.624-0.832-1.4733-0.27733-0.86667-0.27733-1.9067 0-1.04 0.29467-1.9067 0.312-0.86666 0.86666-1.4907 0.55467-0.64133 1.352-0.988 0.81466-0.364 1.8027-0.364 0.60667 0 1.2133 0.104 0.60667 0.104 1.1613 0.32933l-0.364 1.3693q-0.364-0.17333-0.84933-0.27733-0.468-0.104-1.0053-0.104-1.352 0-2.08 0.84933-0.71067 0.84933-0.71067 2.4787 0 0.728 0.156 1.3347 0.17333 0.60666 0.52 1.04 0.364 0.43333 0.91866 0.676 0.55467 0.22533 1.352 0.22533 0.64133 0 1.1613-0.12133 0.52-0.12134 0.81467-0.26l0.22533 1.352q-0.13867 0.0867-0.39867 0.17334-0.26 0.0693-0.58933 0.12133-0.32933 0.0693-0.71066 0.104-0.364 0.052-0.71067 0.052z"/>
  <path d="m243.36 313.96q-0.55466 0.13867-1.4733 0.29467-0.90133 0.156-2.0973 0.156-1.04 0-1.7507-0.29467-0.71066-0.312-1.144-0.86667-0.43333-0.55466-0.624-1.3-0.19066-0.76267-0.19066-1.6813v-5.0613h1.612v4.7147q0 1.6467 0.52 2.3573t1.7507 0.71067q0.26 0 0.53733-0.0173t0.52-0.0347q0.24266-0.0347 0.43333-0.052 0.208-0.0347 0.29467-0.0693v-7.6093h1.612z"/>
  <path d="m248.23 313.06q0.988 0 1.456-0.26 0.48533-0.26 0.48533-0.832 0-0.58933-0.468-0.936-0.468-0.34666-1.5427-0.78-0.52-0.208-1.0053-0.416-0.46799-0.22533-0.81466-0.51999-0.34667-0.29467-0.55467-0.71067t-0.208-1.0227q0-1.196 0.884-1.8893 0.884-0.71067 2.4093-0.71067 0.38133 0 0.76267 0.052 0.38133 0.0347 0.71066 0.104 0.32933 0.052 0.572 0.12133 0.26 0.0693 0.39867 0.12134l-0.29467 1.3867q-0.26-0.13867-0.81466-0.27733-0.55467-0.156-1.3347-0.156-0.676 0-1.1787 0.27733-0.50267 0.26-0.50267 0.832 0 0.29467 0.104 0.52 0.12133 0.22533 0.34667 0.416 0.24266 0.17333 0.58933 0.32933t0.832 0.32933q0.64133 0.24267 1.144 0.48534 0.50266 0.22533 0.84933 0.53733 0.364 0.312 0.55466 0.76266 0.19067 0.43334 0.19067 1.0747 0 1.248-0.936 1.8893-0.91866 0.64133-2.6347 0.64133-1.196 0-1.872-0.208-0.676-0.19067-0.91866-0.29467l0.29466-1.3867q0.27734 0.104 0.884 0.312 0.60667 0.208 1.612 0.208z"/>
  <path d="m252.92 308.28h4.2813v1.508h-4.2813z"/>
  <path d="m264.54 312.56q-0.17334-0.416-0.468-1.0573-0.27733-0.64133-0.60667-1.3867-0.32933-0.74533-0.71066-1.5253-0.364-0.79733-0.69333-1.4907-0.32934-0.71066-0.624-1.2653-0.27734-0.55466-0.45067-0.84933-0.19066 2.0453-0.312 4.4373-0.12133 2.3747-0.208 4.8013h-1.6467q0.0693-1.56 0.156-3.1373 0.0867-1.5947 0.19066-3.12 0.12134-1.5427 0.24267-2.9987 0.13867-1.456 0.29467-2.756h1.4733q0.468 0.76267 1.0053 1.8027 0.53733 1.04 1.0747 2.184 0.53734 1.1267 1.04 2.2707 0.50267 1.1267 0.91867 2.0627 0.416-0.936 0.91866-2.0627 0.50267-1.144 1.04-2.2707 0.53733-1.144 1.0747-2.184 0.53734-1.04 1.0053-1.8027h1.4733q0.58933 5.8067 0.88399 12.012h-1.6467q-0.0867-2.4267-0.208-4.8013-0.12133-2.392-0.312-4.4373-0.17333 0.29467-0.468 0.84933-0.27733 0.55467-0.60666 1.2653-0.32934 0.69334-0.71067 1.4907-0.364 0.78-0.69333 1.5253t-0.624 1.3867q-0.27733 0.64133-0.45066 1.0573z"/>
  <path d="m275.75 314.22h-1.612v-9.0133h1.612zm-0.81466-10.643q-0.43333 0-0.74533-0.27733-0.29467-0.29467-0.29467-0.78t0.29467-0.76266q0.312-0.29467 0.74533-0.29467t0.728 0.29467q0.312 0.27733 0.312 0.76266t-0.312 0.78q-0.29467 0.27733-0.728 0.27733z"/>
  <path d="m278.53 305.47q0.55466-0.13866 1.456-0.29466 0.91867-0.156 2.1147-0.156 0.86666 0 1.456 0.24266 0.58934 0.22534 0.988 0.676 0.12133-0.0867 0.38133-0.24266 0.26-0.156 0.64134-0.29467 0.38133-0.156 0.84933-0.26 0.468-0.12133 1.0053-0.12133 1.04 0 1.6987 0.312 0.65867 0.29466 1.0227 0.84933 0.38133 0.55466 0.50266 1.3173 0.13867 0.76266 0.13867 1.664v5.0613h-1.612v-4.7147q0-0.79733-0.0867-1.3693-0.0693-0.572-0.29467-0.95333-0.208-0.38133-0.58933-0.55467-0.364-0.19066-0.95333-0.19066-0.81467 0-1.352 0.22533-0.52 0.208-0.71067 0.38133 0.13867 0.45067 0.208 0.988 0.0693 0.53733 0.0693 1.1267v5.0613h-1.612v-4.7147q0-0.79733-0.0867-1.3693t-0.312-0.95333q-0.208-0.38133-0.58933-0.55467-0.364-0.19066-0.936-0.19066-0.24266 0-0.52 0.0173-0.27733 0.0173-0.53733 0.052-0.24266 0.0173-0.45066 0.052t-0.27734 0.052v7.6093h-1.612z"/>
  <path d="m292.95 309.73q0-1.196 0.34666-2.08 0.34667-0.90133 0.91867-1.4907 0.572-0.58934 1.3173-0.884 0.74533-0.29467 1.5253-0.29467 1.82 0 2.7907 1.144 0.97066 1.1267 0.97066 3.4493 0 0.10399 0 0.27733 0 0.156-0.0173 0.29466h-6.1706q0.104 1.404 0.81466 2.132 0.71067 0.728 2.2187 0.728 0.84933 0 1.4213-0.13867 0.58934-0.156 0.884-0.29466l0.22533 1.352q-0.29466 0.156-1.04 0.32934-0.728 0.17333-1.664 0.17333-1.1787 0-2.0453-0.34667-0.84933-0.364-1.404-0.988-0.55466-0.62399-0.83199-1.4733-0.26-0.86666-0.26-1.8893zm6.188-0.88399q0.0173-1.092-0.55466-1.7853-0.55467-0.71067-1.5427-0.71067-0.55466 0-0.98799 0.22533-0.416 0.208-0.71067 0.55467t-0.468 0.79733q-0.156 0.45067-0.208 0.91867z"/>
  <path d="m310.49 314.32q-0.364 0-0.79733-0.0173-0.416-0.0173-0.84934-0.052-0.41599-0.0347-0.83199-0.0867t-0.76267-0.13867v-11.648q0.34667-0.0867 0.76267-0.13867 0.416-0.052 0.83199-0.0867 0.43334-0.0347 0.84934-0.052t0.78-0.0173q1.04 0 1.9413 0.156 0.91867 0.156 1.5773 0.53733 0.676 0.364 1.0573 0.97067 0.38133 0.60666 0.38133 1.4907 0 0.988-0.468 1.6293-0.468 0.624-1.248 0.936 1.0573 0.312 1.6813 0.988t0.624 1.9067q0 1.8027-1.3347 2.7213-1.3173 0.90133-4.1947 0.90133zm-1.5773-5.7027v4.2293q0.19066 0.0173 0.45066 0.0347 0.22534 0.0173 0.52 0.0347 0.312 0 0.71067 0 0.74533 0 1.404-0.0867 0.67599-0.104 1.1787-0.34667t0.79733-0.676q0.312-0.43333 0.312-1.092 0-0.58933-0.22533-0.988-0.22533-0.41599-0.65867-0.65866-0.416-0.24267-1.0053-0.34667t-1.3173-0.104zm0-1.352h1.768q0.624 0 1.1787-0.0867 0.55466-0.0867 0.95333-0.312 0.416-0.22533 0.64133-0.58933 0.24267-0.364 0.24267-0.91867 0-0.52-0.24267-0.86666-0.24266-0.364-0.676-0.572-0.416-0.22533-0.98799-0.32933-0.572-0.104-1.2133-0.104-0.64133 0-1.0053 0.0173t-0.65866 0.052z"/>
  <path d="m321.34 313.06q0.572 0 1.0053-0.0173 0.45066-0.0347 0.74533-0.10399v-2.6867q-0.17334-0.0867-0.572-0.13866-0.38133-0.0693-0.936-0.0693-0.364 0-0.78 0.052-0.39866 0.052-0.74533 0.22534-0.32933 0.156-0.55467 0.45066-0.22533 0.27734-0.22533 0.74533 0 0.86667 0.55467 1.2133 0.55466 0.32933 1.508 0.32933zm-0.13866-8.0773q0.97066 0 1.6293 0.26 0.676 0.24267 1.0747 0.71067 0.416 0.45066 0.58933 1.092 0.17334 0.624 0.17334 1.3867v5.6333q-0.208 0.0347-0.58933 0.104-0.364 0.052-0.832 0.104t-1.0227 0.0867q-0.53733 0.052-1.0747 0.052-0.76267 0-1.404-0.156t-1.1093-0.48534q-0.468-0.34666-0.728-0.90133-0.26-0.55466-0.26-1.3347 0-0.74533 0.29467-1.2827 0.312-0.53733 0.832-0.86666 0.51999-0.32933 1.2133-0.48533 0.69333-0.156 1.456-0.156 0.24267 0 0.50267 0.0347 0.26 0.0173 0.48533 0.0693 0.24267 0.0347 0.416 0.0693 0.17333 0.0347 0.24267 0.052v-0.45067q0-0.39866-0.0867-0.77999-0.0867-0.39867-0.312-0.69334-0.22533-0.312-0.624-0.48533-0.38133-0.19067-1.0053-0.19067-0.79733 0-1.404 0.12134-0.58933 0.104-0.88399 0.22533l-0.19067-1.3347q0.312-0.13867 1.04-0.26 0.728-0.13867 1.5773-0.13867z"/>
  <path d="m331.25 314.43q-1.092 0-1.924-0.34667-0.81467-0.34666-1.3867-0.97066-0.55466-0.624-0.832-1.4733-0.27733-0.86667-0.27733-1.9067 0-1.04 0.29467-1.9067 0.312-0.86666 0.86666-1.4907 0.55467-0.64133 1.352-0.988 0.81466-0.364 1.8027-0.364 0.60667 0 1.2133 0.104 0.60667 0.104 1.1613 0.32933l-0.36399 1.3693q-0.364-0.17333-0.84934-0.27733-0.468-0.104-1.0053-0.104-1.352 0-2.08 0.84933-0.71067 0.84933-0.71067 2.4787 0 0.728 0.156 1.3347 0.17333 0.60666 0.52 1.04 0.364 0.43333 0.91866 0.676 0.55467 0.22533 1.352 0.22533 0.64133 0 1.1613-0.12133 0.52-0.12134 0.81467-0.26l0.22533 1.352q-0.13867 0.0867-0.39866 0.17334-0.26 0.0693-0.58934 0.12133-0.32933 0.0693-0.71066 0.104-0.364 0.052-0.71067 0.052z"/>
  <path d="m338.65 309.26q0.52 0.39866 1.092 0.98799 0.58933 0.58934 1.144 1.2827 0.572 0.676 1.0747 1.3867 0.50266 0.69333 0.84933 1.3h-1.8893q-0.364-0.60667-0.84933-1.2307-0.468-0.64134-0.988-1.2133-0.52-0.58933-1.0573-1.0747t-1.0227-0.81467v4.3333h-1.612v-13.173l1.612-0.27733v8.216q0.41599-0.416 0.91866-0.91866 0.50267-0.50267 0.988-1.0227t0.91866-0.98799q0.43334-0.48534 0.74534-0.84934h1.8893q-0.39866 0.43334-0.86666 0.95334-0.468 0.51999-0.97066 1.0573-0.50267 0.52-1.0227 1.0573-0.50267 0.52-0.95333 0.988z"/>
  <path d="m344.55 302.21h1.6813v12.012h-1.6813z"/>
  <path d="m349.11 305.47q0.55466-0.13866 1.4733-0.29466 0.91866-0.156 2.1147-0.156 1.0747 0 1.7853 0.312 0.71066 0.29466 1.1267 0.84933 0.43334 0.53733 0.60667 1.3 0.17333 0.76266 0.17333 1.6813v5.0613h-1.612v-4.7147q0-0.832-0.12133-1.4213-0.104-0.58933-0.364-0.95333t-0.69333-0.52q-0.43333-0.17333-1.0747-0.17333-0.26 0-0.53734 0.0173-0.27733 0.0173-0.53733 0.052-0.24266 0.0173-0.45066 0.052-0.19067 0.0347-0.27734 0.052v7.6093h-1.612z"/>
  <path d="m367.19 302.21v1.456h-3.7787v10.556h-1.6813v-10.556h-3.7787v-1.456z"/>
  <path d="m370.46 314.22h-1.612v-9.0133h1.612zm-0.81467-10.643q-0.43333 0-0.74533-0.27733-0.29467-0.29467-0.29467-0.78t0.29467-0.76266q0.312-0.29467 0.74533-0.29467t0.728 0.29467q0.312 0.27733 0.312 0.76266t-0.312 0.78q-0.29467 0.27733-0.728 0.27733z"/>
  <path d="m373.23 305.47q0.55467-0.13866 1.456-0.29466 0.91866-0.156 2.1147-0.156 0.86666 0 1.456 0.24266 0.58933 0.22534 0.98799 0.676 0.12134-0.0867 0.38134-0.24266 0.26-0.156 0.64133-0.29467 0.38133-0.156 0.84933-0.26 0.468-0.12133 1.0053-0.12133 1.04 0 1.6987 0.312 0.65866 0.29466 1.0227 0.84933 0.38133 0.55466 0.50267 1.3173 0.13866 0.76266 0.13866 1.664v5.0613h-1.612v-4.7147q0-0.79733-0.0867-1.3693-0.0693-0.572-0.29467-0.95333-0.208-0.38133-0.58933-0.55467-0.364-0.19066-0.95333-0.19066-0.81467 0-1.352 0.22533-0.52 0.208-0.71066 0.38133 0.13866 0.45067 0.208 0.988 0.0693 0.53733 0.0693 1.1267v5.0613h-1.612v-4.7147q0-0.79733-0.0867-1.3693t-0.312-0.95333q-0.208-0.38133-0.58934-0.55467-0.36399-0.19066-0.93599-0.19066-0.24267 0-0.52 0.0173-0.27734 0.0173-0.53733 0.052-0.24267 0.0173-0.45067 0.052t-0.27733 0.052v7.6093h-1.612z"/>
  <path d="m387.66 309.73q0-1.196 0.34667-2.08 0.34667-0.90133 0.91867-1.4907 0.57199-0.58934 1.3173-0.884 0.74533-0.29467 1.5253-0.29467 1.82 0 2.7907 1.144 0.97066 1.1267 0.97066 3.4493 0 0.10399 0 0.27733 0 0.156-0.0173 0.29466h-6.1707q0.104 1.404 0.81467 2.132 0.71066 0.728 2.2187 0.728 0.84933 0 1.4213-0.13867 0.58933-0.156 0.884-0.29466l0.22533 1.352q-0.29466 0.156-1.04 0.32934-0.728 0.17333-1.664 0.17333-1.1787 0-2.0453-0.34667-0.84933-0.364-1.404-0.988-0.55466-0.62399-0.832-1.4733-0.26-0.86666-0.26-1.8893zm6.188-0.88399q0.0173-1.092-0.55466-1.7853-0.55467-0.71067-1.5427-0.71067-0.55466 0-0.988 0.22533-0.41599 0.208-0.71066 0.55467t-0.468 0.79733q-0.156 0.45067-0.208 0.91867z"/>
  <path d="m405.14 302.09q2.5307 0 3.8827 0.97066 1.3693 0.95334 1.3693 2.86 0 1.04-0.38133 1.7853-0.364 0.728-1.0747 1.196-0.69333 0.45066-1.6987 0.65866t-2.2707 0.208h-1.3347v4.4547h-1.6813v-11.839q0.71067-0.17334 1.5773-0.22534 0.884-0.0693 1.612-0.0693zm0.13867 1.4733q-1.0747 0-1.6467 0.052v4.7147h1.2653q0.86667 0 1.56-0.104 0.69333-0.12134 1.1613-0.38133 0.48533-0.27734 0.74533-0.74534t0.26-1.196q0-0.69334-0.27733-1.144-0.26-0.45067-0.728-0.71067-0.45066-0.27733-1.0573-0.38133t-1.2827-0.104z"/>
  <path d="m415.09 314.39q-1.4907-0.0347-2.1147-0.64133-0.624-0.60667-0.624-1.8893v-10.816l1.612-0.27733v10.833q0 0.39867 0.0693 0.65867t0.22533 0.416q0.156 0.156 0.416 0.24266 0.26 0.0693 0.64134 0.12133z"/>
  <path d="m420.17 313.06q0.572 0 1.0053-0.0173 0.45066-0.0347 0.74533-0.10399v-2.6867q-0.17333-0.0867-0.572-0.13866-0.38133-0.0693-0.936-0.0693-0.364 0-0.77999 0.052-0.39867 0.052-0.74534 0.22534-0.32933 0.156-0.55466 0.45066-0.22533 0.27734-0.22533 0.74533 0 0.86667 0.55466 1.2133 0.55467 0.32933 1.508 0.32933zm-0.13867-8.0773q0.97067 0 1.6293 0.26 0.676 0.24267 1.0747 0.71067 0.416 0.45066 0.58933 1.092 0.17333 0.624 0.17333 1.3867v5.6333q-0.208 0.0347-0.58933 0.104-0.364 0.052-0.832 0.104t-1.0227 0.0867q-0.53734 0.052-1.0747 0.052-0.76266 0-1.404-0.156-0.64133-0.156-1.1093-0.48534-0.468-0.34666-0.728-0.90133-0.26-0.55466-0.26-1.3347 0-0.74533 0.29467-1.2827 0.312-0.53733 0.832-0.86666t1.2133-0.48533 1.456-0.156q0.24266 0 0.50266 0.0347 0.26 0.0173 0.48534 0.0693 0.24266 0.0347 0.41599 0.0693 0.17334 0.0347 0.24267 0.052v-0.45067q0-0.39866-0.0867-0.77999-0.0867-0.39867-0.31199-0.69334-0.22534-0.312-0.624-0.48533-0.38134-0.19067-1.0053-0.19067-0.79734 0-1.404 0.12134-0.58933 0.104-0.884 0.22533l-0.19067-1.3347q0.312-0.13867 1.04-0.26 0.728-0.13867 1.5773-0.13867z"/>
  <path d="m430.09 314.43q-1.092 0-1.924-0.34667-0.81466-0.34666-1.3867-0.97066-0.55467-0.624-0.832-1.4733-0.27733-0.86667-0.27733-1.9067 0-1.04 0.29466-1.9067 0.312-0.86666 0.86667-1.4907 0.55466-0.64133 1.352-0.988 0.81467-0.364 1.8027-0.364 0.60666 0 1.2133 0.104 0.60666 0.104 1.1613 0.32933l-0.364 1.3693q-0.364-0.17333-0.84933-0.27733-0.468-0.104-1.0053-0.104-1.352 0-2.08 0.84933-0.71066 0.84933-0.71066 2.4787 0 0.728 0.15599 1.3347 0.17334 0.60666 0.52 1.04 0.364 0.43333 0.91867 0.676 0.55466 0.22533 1.352 0.22533 0.64133 0 1.1613-0.12133 0.52-0.12134 0.81466-0.26l0.22534 1.352q-0.13867 0.0867-0.39867 0.17334-0.26 0.0693-0.58933 0.12133-0.32934 0.0693-0.71067 0.104-0.364 0.052-0.71066 0.052z"/>
  <path d="m433.73 309.73q0-1.196 0.34666-2.08 0.34667-0.90133 0.91867-1.4907 0.572-0.58934 1.3173-0.884 0.74533-0.29467 1.5253-0.29467 1.82 0 2.7907 1.144 0.97066 1.1267 0.97066 3.4493 0 0.10399 0 0.27733 0 0.156-0.0173 0.29466h-6.1706q0.104 1.404 0.81466 2.132 0.71067 0.728 2.2187 0.728 0.84934 0 1.4213-0.13867 0.58934-0.156 0.884-0.29466l0.22534 1.352q-0.29467 0.156-1.04 0.32934-0.728 0.17333-1.664 0.17333-1.1787 0-2.0453-0.34667-0.84933-0.364-1.404-0.988-0.55466-0.62399-0.83199-1.4733-0.26-0.86666-0.26-1.8893zm6.188-0.88399q0.0173-1.092-0.55466-1.7853-0.55467-0.71067-1.5427-0.71067-0.55467 0-0.988 0.22533-0.416 0.208-0.71067 0.55467-0.29466 0.34667-0.468 0.79733-0.156 0.45067-0.208 0.91867z"/>
  <path d="m443.92 314.22v-13.173l1.612-0.27733v4.6107q0.45067-0.17334 0.95333-0.26 0.52-0.104 1.0227-0.104 1.0747 0 1.7853 0.312 0.71066 0.29466 1.1267 0.84933 0.43333 0.53733 0.60667 1.3 0.17333 0.76266 0.17333 1.6813v5.0613h-1.612v-4.7147q0-0.832-0.12133-1.4213-0.104-0.58933-0.364-0.95333t-0.69333-0.52q-0.43334-0.17333-1.0747-0.17333-0.26 0-0.53733 0.0347t-0.53733 0.0867q-0.24267 0.0347-0.45067 0.0867-0.19066 0.052-0.27733 0.0867v7.488z"/>
  <path d="m461.77 309.71q0 1.0747-0.312 1.9413-0.312 0.86667-0.884 1.4907-0.55467 0.624-1.3347 0.97067-0.77999 0.32933-1.6987 0.32933-0.91866 0-1.6987-0.32933-0.78-0.34667-1.352-0.97067-0.55467-0.62399-0.86667-1.4907-0.31199-0.86666-0.31199-1.9413 0-1.0573 0.31199-1.924 0.312-0.884 0.86667-1.508 0.572-0.624 1.352-0.95333 0.78-0.34667 1.6987-0.34667 0.91867 0 1.6987 0.34667 0.78 0.32933 1.3347 0.95333 0.572 0.624 0.884 1.508 0.312 0.86666 0.312 1.924zm-1.6813 0q0-1.5253-0.69334-2.4093-0.676-0.90133-1.8547-0.90133t-1.872 0.90133q-0.67599 0.884-0.67599 2.4093t0.67599 2.4267q0.69334 0.884 1.872 0.884t1.8547-0.884q0.69334-0.90133 0.69334-2.4267z"/>
  <path d="m466.75 314.39q-1.4907-0.0347-2.1147-0.64133-0.624-0.60667-0.624-1.8893v-10.816l1.612-0.27733v10.833q0 0.39867 0.0693 0.65867t0.22534 0.416q0.156 0.156 0.41599 0.24266 0.26 0.0693 0.64134 0.12133z"/>
  <path d="m474.6 307.11q-0.29466-0.24267-0.84933-0.468-0.55467-0.22534-1.2133-0.22534-0.69333 0-1.196 0.26-0.48533 0.24267-0.79733 0.69334-0.312 0.43333-0.45067 1.04-0.13866 0.60667-0.13866 1.3 0 1.5773 0.78 2.444 0.77999 0.84933 2.08 0.84933 0.65867 0 1.092-0.052 0.45067-0.0693 0.69333-0.13867zm0-6.0667 1.612-0.27733v13.191q-0.55467 0.156-1.4213 0.312-0.86667 0.156-1.9933 0.156-1.04 0-1.872-0.32933-0.832-0.32934-1.4213-0.936-0.58933-0.60667-0.91866-1.4733-0.312-0.884-0.312-1.976 0-1.04 0.26-1.9067 0.27733-0.86667 0.79733-1.4907 0.52-0.62399 1.2653-0.97066 0.76266-0.34667 1.7333-0.34667 0.78 0 1.3693 0.208 0.60667 0.208 0.90133 0.39867z"/>
  <path d="m478.48 309.73q0-1.196 0.34666-2.08 0.34667-0.90133 0.91867-1.4907 0.572-0.58934 1.3173-0.884 0.74533-0.29467 1.5253-0.29467 1.82 0 2.7907 1.144 0.97067 1.1267 0.97067 3.4493 0 0.10399 0 0.27733 0 0.156-0.0173 0.29466h-6.1706q0.104 1.404 0.81466 2.132 0.71067 0.728 2.2187 0.728 0.84934 0 1.4213-0.13867 0.58933-0.156 0.88399-0.29466l0.22534 1.352q-0.29467 0.156-1.04 0.32934-0.728 0.17333-1.664 0.17333-1.1787 0-2.0453-0.34667-0.84933-0.364-1.404-0.988-0.55466-0.62399-0.83199-1.4733-0.26-0.86666-0.26-1.8893zm6.188-0.88399q0.0173-1.092-0.55467-1.7853-0.55467-0.71067-1.5427-0.71067-0.55467 0-0.988 0.22533-0.416 0.208-0.71067 0.55467-0.29466 0.34667-0.468 0.79733-0.156 0.45067-0.208 0.91867z"/>
  <path d="m492 305.02q0.208 0 0.468 0.0347 0.27733 0.0173 0.53733 0.0693 0.26 0.0347 0.468 0.0867 0.22533 0.0347 0.32933 0.0693l-0.27733 1.404q-0.19067-0.0693-0.64133-0.156-0.43334-0.104-1.1267-0.104-0.45067 0-0.90133 0.104-0.43333 0.0867-0.572 0.12134v7.5746h-1.612v-8.632q0.572-0.208 1.4213-0.38134 0.84934-0.19066 1.9067-0.19066z"/>
 </g>
</svg>
