<svg version="1.1" viewBox="0 0 513.59998 271.76025" xmlns="http://www.w3.org/2000/svg" xmlns:xlink="http://www.w3.org/1999/xlink">
  <defs>
    <linearGradient id="linearGradient42076" x1="116.84924" x2="75.976242" y1="164.85487" y2="120.04626" gradientTransform="matrix(.5122 0 0 .5122 24.953 .20732)" gradientUnits="userSpaceOnUse">
      <stop stop-color="#e2e2e2" offset="0"/>
      <stop stop-color="#fefefe" offset="1"/>
    </linearGradient>
    <linearGradient id="linearGradient11473" x1="436.21014" x2="436.21014" y1="362.60602" y2="344.49173" gradientTransform="translate(0,-54)" gradientUnits="userSpaceOnUse">
      <stop stop-color="#324c5b" offset="0"/>
      <stop stop-color="#415a67" offset="1"/>
    </linearGradient>
    <linearGradient id="linearGradient14580" x1="436.21014" x2="436.21014" y1="362.60602" y2="344.49173" gradientTransform="translate(90,-54)" gradientUnits="userSpaceOnUse">
      <stop stop-color="#303539" offset="0"/>
      <stop stop-color="#373c41" offset="1"/>
    </linearGradient>
    <linearGradient id="linearGradient4416" x2="0" y1="43.999989" y2="6.999989" gradientTransform="matrix(-1.4054053,0,0,1.4054053,804.69502,154.09579)" gradientUnits="userSpaceOnUse">
      <stop stop-color="#8e44ad" offset="0"/>
      <stop stop-color="#9b59b6" offset="1"/>
    </linearGradient>
    <linearGradient id="linearGradient4191" x1="9.0000095" x2="23.00004" y1="9" y2="23" gradientTransform="matrix(2 0 0 2 -.99999 -5)" gradientUnits="userSpaceOnUse">
      <stop stop-color="#292c2f" offset="0"/>
      <stop stop-opacity="0" offset="1"/>
    </linearGradient>
    <linearGradient id="linearGradient4244" x2="0" y1="38" y2="12.999999" gradientUnits="userSpaceOnUse">
      <stop stop-color="#b985ce" offset="0"/>
      <stop stop-color="#e2cdeb" offset="1"/>
    </linearGradient>
    <linearGradient id="linearGradient34609" x1="97.298294" x2="97.383865" y1="25.402227" y2="58.856739" gradientTransform="matrix(1.0009138 0 0 .993028 12.877269 32.533857)" gradientUnits="userSpaceOnUse">
      <stop stop-color="#31363b" offset="0"/>
      <stop stop-color="#31363b" offset="1"/>
    </linearGradient>
    <linearGradient id="linearGradient40329" x1="229.14143" x2="229.14143" y1="113.97903" y2="297.1691" gradientUnits="userSpaceOnUse">
      <stop stop-color="#2a2e32" offset="0"/>
      <stop stop-color="#2a2e32" offset="1"/>
    </linearGradient>
  </defs>
  <g transform="translate(-63.679392,-52.03988)">
    <rect x="64.329391" y="52.68988" width="512.29999" height="270.46027" ry="9.607502" fill="url(#linearGradient40329)" stroke="#888" stroke-width="1.3"/>
    <path d="m73.348112 53.311109h493.99328c4.43345 0 8.63602 4.23932 8.63602 8.425283v32.385615l-511.05458 0.071837v-32.173968c0-4.34025 4.28041-8.708767 8.425283-8.708767z" fill="url(#linearGradient34609)" stroke-width=".797571"/>
    <path class="ColorScheme-Text" d="m124.31345 63.274009-8.15819 8.158182-2.37801-2.378016-1.12243 1.122423 4.19641 4.194822-5.78175 5.78016 1.12242 1.12243 5.78017-5.781752 4.19482 4.196407 1.12242-1.122424-2.37801-2.378017 8.15818-8.158182z" color="#eff0f1" fill="#eff0f1" stroke-width="1.58534"/>
    <g transform="matrix(.23624006 0 0 .23428552 70.113135 58.120823)">
      <path d="m62.861861 1.0068349c-4.711489 0.076185-9.423865 0.6993598-13.977752 1.8339349-10.163647 2.5038512-19.621923 7.5548912-27.349526 14.61612-4.270419 3.902055-8.09534 8.488256-11.149388 13.462261-5.196398 8.369014-8.368132 18.088214-9.18349 27.949012-0.300664 3.852906-0.274352 7.861353 0.141538 11.731945 0.9892 9.368818 4.114854 18.527041 9.088931 26.56493 6.058228 9.786642 14.901424 17.925512 25.250386 23.108432 11.85054 5.98707 25.683982 8.09996 38.828492 5.83933 9.888834-1.67423 19.553458-5.80824 27.557308-11.92113 12.16392-9.18858 20.73707-22.842889 23.69275-37.791647 1.4803-7.395176 1.62176-15.07103 0.42871-22.474276-1.32718-8.309482-4.40412-16.478571-8.92016-23.560769-7.22958-11.466356-18.19972-20.476447-30.89391-25.26782-4.946115-1.885242-10.126176-3.1352786-15.329277-3.7028975-2.73237-0.3041714-5.425398-0.42570688-8.184612-0.3874254zm-3.439453 11.128906c1.201636 0.01155 1.609215 1.300271 2.010944 2.205431 2.009813 4.267845 4.001733 8.544737 6.004681 12.816053 1.718265 0.160806 3.424693 0.441542 5.103516 0.841797 3.685326-3.822137 7.327827-7.693437 11.05664-11.46875 0.995666-0.707864 2.080381 0.144574 2.939451 0.652344 2.78719 1.649479 5.64734 3.195082 8.3754 4.928133 0.89416 0.881186 0.20376 2.134552-0.0507 3.134926-1.30616 4.467912-2.61232 8.935825-3.91849 13.403738 1.18687 1.255404 2.28516 2.594435 3.2793 4.007812 5.28241-0.430172 10.56679-0.925521 15.84961-1.294922 1.12246 0.08648 1.49153 1.276986 1.72429 2.191217 1.01118 3.09512 2.12614 6.158068 3.0511 9.277533 0.12654 1.157772-1.10267 1.838871-2.11363 1.865632-6.87029 1.454479-13.74089 2.907473-20.61098 4.362884-1.20376-6.601383-4.71648-12.781057-9.929976-17.033149-5.78611-4.789934-13.494415-7.191365-20.94466-6.400031-2.372494 0.222653-4.696893 0.799833-6.955442 1.546461-2.280894-7.055702-4.61877-14.093538-6.84371-21.164062-0.167109-1.13318 1.009585-1.909376 2.027702-1.912406 3.314011-0.653641 6.621352-1.379568 9.944954-1.960641zm-29.458984 13.158203c1.238392 0.196256 1.759401 1.500212 2.617421 2.256651 4.365303 4.86041 8.734862 9.716996 13.111094 14.567568-3.808004 3.239056-6.782058 7.451522-8.490234 12.154297-1.902645 5.237065-2.225229 11.234827-0.828125 16.708984 1.402881 5.598512 4.983271 11.11136 9.327426 14.905506 0 0-0.46664 0.403422-1.139926 1.147233-3.50514 4.001432-7.125593 7.923404-10.675484 11.892086-1.110815 1.164711-2.112416 2.454451-3.28936 3.543461-0.998395 0.58998-2.115645-0.20088-2.643868-1.05497-2.175166-2.486578-4.403871-4.933866-6.52996-7.458703-0.624936-1.049859 0.316551-2.06237 0.894531-2.875l8.082031-11.609374c-0.721022-1.57182-1.324815-3.195836-1.822265-4.851567-5.151098-1.276489-10.323813-2.488632-15.455078-3.828125-1.10373-0.505163-0.917023-1.864075-0.90625-2.857422 0.01647-3.226288-0.04348-6.460166 0.03906-9.68164 0.238236-1.181172 1.585467-1.33965 2.555929-1.551779 4.587503-1.128687 9.179184-2.2416 13.76829-3.364237 0.499476-1.655251 1.109816-3.276614 1.832031-4.847656-3.012817-4.360843-6.086106-8.687075-9.042969-13.082032-0.493175-1.106084 0.524213-2.01956 1.206673-2.743061 2.12138-2.371279 4.166992-4.821957 6.365593-7.116314 0.300611-0.194228 0.667006-0.29176 1.023438-0.253906zm62.599616 43.763672c7.1269 1.546208 14.27699 2.997536 21.39257 4.587891 0.48892 0.104414 0.4802 0.860381 1.0449 0.71919 0.31255 0.240392-0.29753 1.084326-0.34879 1.563031-1.12737 3.328666-2.20465 6.681085-3.39533 9.983404-0.59691 1.033269-1.91386 0.770194-2.89307 0.657333-4.71554-0.393023-9.43062-0.801404-14.14599-1.200302-0.99563 1.412996-2.09082 2.756078-3.28516 4.005859 1.4668 5.106559 3.0285 10.193288 4.41407 15.318358 0.0856 1.24375-1.23551 1.74134-2.11914 2.25195-2.80499 1.5783-5.55754 3.27713-8.407052 4.75865-1.209141 0.33972-1.956298-0.89378-2.69229-1.61201-3.224049-3.36333-6.448098-6.72666-9.672147-10.09-1.680708 0.40073-3.389185 0.68103-5.109375 0.8418-2.26437 4.78503-4.477717 9.60068-6.796875 14.35547-0.714708 0.9924-2.0289 0.56569-3.009765 0.34375-3.125998-0.67606-6.301566-1.18737-9.391664-1.98714-1.005544-0.51139-0.948142-1.86374-0.481926-2.73037 2.174559-6.67492 4.349929-13.349584 6.52398-20.024677 6.116074 2.201878 13.045174 2.314517 19.138672 0.136719 7.386438-2.564613 13.652482-8.251229 16.742802-15.454158 0.92204-2.088442 1.56274-4.292166 2.00134-6.530217 0.16341 0.03516 0.32682 0.07031 0.49024 0.105469z" fill="#0079c1" stroke="#80cfff"/>
      <g transform="translate(.5 -48.5)">
        <path d="m79.029297 114.16797c-7.226354 0.10305-14.463506-0.18865-21.681641 0.24219-2.789458 0.47765-4.663869 3.41163-4.437376 6.14567 0.05862 6.86943-0.0083 13.74101 0.0069 20.61136-8.72e-4 10.17544-0.01971 20.35573 0.202272 30.52725 0.359066 2.84421 3.319166 4.69823 6.040238 4.6203 2.358281-0.18543 4.810956 0.27579 7.082688-0.56353 2.050008-0.64206 3.276319-2.70856 3.482922-4.76059 0.240698-1.96669-0.05737-3.94637 0.04423-5.92069 0.0071-3.21732 0.01478-6.43464 0.02149-9.65196 2.161668 0.0293 4.618652-0.35165 6.447265 1.08203 2.224363 2.67889 3.156915 6.10986 4.911399 9.06427 1.598102 3.16865 2.875997 6.62077 5.368047 9.22318 2.534839 1.82098 5.800471 1.46255 8.749832 1.46794 2.81903-0.0158 5.888607-0.20428 8.110377-2.15559 1.3159-1.26492 2.06383-3.0019 2.96972-4.57636 1.2125 2.24933 2.42323 4.86043 4.95898 5.85742 3.40805 1.10266 7.03078 0.37537 10.54302 0.55037 2.27367-0.10879 4.58267-1.89242 4.60857-4.29588 0.17923-2.11746-1.17147-3.90785-2.34888-5.52157-2.55234-4.00952-5.10778-8.01711-7.65818-12.02784 3.17214-5.21051 6.74764-10.19417 9.4668-15.66602 0.63266-3.08307-2.60273-6.1362-5.67421-5.42427-3.38929 0.0804-6.98987-0.55089-10.16564 0.97115-1.73017 1.10272-2.64185 3.02152-3.57812 4.76953-1.3312-2.00197-2.5259-4.45389-4.94531-5.31445-0.66231-0.49694-0.21564-1.42592-0.4789-2.10042-0.69401-5.72762-3.8308-11.35974-8.9683-14.21005-3.918176-2.31417-8.581496-3.06149-13.078189-2.94344zm1.181641 16.24414c2.170552-0.10035 4.002171 2.04318 3.780338 4.16015 0.231531 1.97143-1.099267 4.27046-3.226976 4.38924-3.112999 0.45621-6.263443-0.0118-9.391252 0.18011-0.481378-0.14489-1.578598 0.32736-1.582032-0.29669v-8.4289c3.473307-1e-3 6.946614-3e-3 10.419922-4e-3z" fill="#232629" style="font-variant-caps:normal;font-variant-east-asian:normal;font-variant-ligatures:normal;font-variant-numeric:normal"/>
        <path d="m59.195312 117.76953c-0.973801 0-1.66615 0.20479-2.076171 0.61719-0.410022 0.36085-0.615235 1.03226-0.615235 2.01172v49.64258c0 0.97945 0.205213 1.67548 0.615235 2.08789 0.410021 0.36085 1.10237 0.54101 2.076171 0.54101h4.38086c0.973801 0 1.641231-0.18016 2-0.54101 0.410021-0.41241 0.615234-1.10844 0.615234-2.08789v-18.24805h5.6875c2.613888 0 4.535561 0.36032 5.765625 1.08203 1.230065 0.72171 2.357759 2.16496 3.382813 4.33008l6.458984 13.14453c0.461274 0.97946 1.025121 1.62429 1.691406 1.93359 0.666285 0.25776 1.843818 0.38672 3.535157 0.38672h4.458984c0.617927 0 1.063776-0.11038 1.359375-0.31836 1.88435-0.0802 2.32944-0.48529 3.15234-1.85156l4.61133-8.32422 4.70899 8.32422c0.94189 1.71518 1.53742 1.86719 4.11523 1.86719h6.3457c1.53678 0 1.83419-1.00932 1.04102-2.11914l-10.3125-16.14258 9.81641-15.53711c0.69402-1.10982 0.39586-2.01758-0.99219-2.01758h-6.3457c-2.2308 0-2.87452 0.1009-3.81641 1.76563l-4.41211 7.81836-4.46094-7.81836c-0.94189-1.56384-1.587-1.76563-4.115232-1.76563h-0.226563c0.04195-0.57689 0.07031-1.1625 0.07031-1.76953 0-5.30969-1.53812-9.46125-4.613282-12.45117-3.075161-3.04148-7.302061-4.56055-12.683594-4.56055zm6.996094 9.04688h13.298828c2.562635 0 4.561019 0.66945 5.996094 2.00976 1.383823 1.39186 2.076172 3.37756 2.076172 5.95508s-0.692349 4.53469-2.076172 5.875c-1.435075 1.39186-3.433459 2.08789-5.996094 2.08789h-13.298828zm28.736328 18.06836 5.765626 9.2207-5.75586 9.09961-4.914062-9.48047c-0.666285-1.39186-1.487137-2.49941-2.460938-3.32422 3.175079-1.06451 5.627329-2.90591 7.365234-5.51562z" fill="url(#linearGradient42076)" style="font-variant-caps:normal;font-variant-east-asian:normal;font-variant-ligatures:normal;font-variant-numeric:normal"/>
      </g>
    </g>
    <g fill="#eff0f1">
      <text x="240.4809" y="80.086533" xml:space="preserve"><tspan x="240.4809" y="80.086533" fill="#eff0f1" font-family="'Noto Sans'" font-size="21.3333px" style="font-variant-caps:normal;font-variant-east-asian:normal;font-variant-ligatures:normal;font-variant-numeric:normal">Install Package</tspan></text>
      <path class="ColorScheme-Text" d="m522.26412 78.650577-9-9 1.0605-1.0605 7.9395 7.9395 7.9395-7.9395 1.0605 1.0605z" color="#eff0f1" stroke-width="1.5"/>
      <path class="ColorScheme-NegativeText" d="m549.41414 67.086393 5.73242 5.732422-5.72852 5.728516 1.30664 1.103515 5.62696-5.626953 5.72851 5.728516 1.10352-1.306641-5.62695-5.626953 5.72851-5.728516-1.30664-1.103515-5.62695 5.626953-5.73242-5.732422z" color="#da4453"/>
    </g>
    <rect x="64.928062" y="94.108459" width="511.07483" height="1.5698169" rx="0" ry="0" fill="#525659"/>
    <g transform="translate(2,8)" fill="#eff0f1" style="shape-inside:url(#rect10619);white-space:pre" aria-label='"JetBrains Toolbox: Industry Standard IDEs" is available but it is not installed.  Install and start now?'>
      <path d="m156.88403 137.94858-0.42666 5.50399h-1.17334l-0.42666-5.50399zm3.90399 0-0.42666 5.50399h-1.17333l-0.42667-5.50399z"/>
      <path d="m162.08934 157.23389q-0.512 0-0.896-0.0853-0.384-0.064-0.68267-0.192v-1.62133q0.34133 0.0853 0.72533 0.14934 0.384 0.064 0.81067 0.064 0.53333 0 1.00266-0.21334 0.49067-0.21333 0.78934-0.74666 0.29866-0.53334 0.29866-1.49333v-15.14665h1.92v14.99731q0 2.19733-1.088 3.24266-1.088 1.04534-2.87999 1.04534z"/>
      <path d="m174.22796 141.53258q1.472 0 2.51733 0.64 1.06666 0.64 1.62133 1.81333 0.576 1.152 0.576 2.70933v1.13066h-7.82932q0.0427 1.94133 0.98133 2.96533 0.96 1.00266 2.66666 1.00266 1.088 0 1.92-0.192 0.85333-0.21333 1.74933-0.59733v1.64267q-0.87467 0.384-1.728 0.55466-0.85333 0.192-2.02666 0.192-1.62133 0-2.88-0.66133-1.23733-0.66133-1.94133-1.96266-0.68266-1.32267-0.68266-3.22133 0-1.87733 0.61866-3.22133 0.64-1.344 1.77067-2.06933 1.15199-0.72533 2.66666-0.72533zm-0.0213 1.53599q-1.34399 0-2.13333 0.87467-0.76799 0.85333-0.91733 2.38933h5.82399q-0.0213-1.45066-0.68266-2.34666-0.66133-0.91734-2.09067-0.91734z"/>
      <path d="m185.66259 151.85789q0.42666 0 0.87466-0.064 0.448-0.0853 0.72534-0.17066v1.42933q-0.29867 0.14933-0.85334 0.23467-0.55466 0.10666-1.06666 0.10666-0.896 0-1.664-0.29866-0.74666-0.32-1.216-1.088-0.46933-0.768-0.46933-2.15467v-6.65599h-1.62133v-0.89599l1.64266-0.74667 0.74667-2.432h1.10933v2.624h3.30666v1.45066h-3.30666v6.61333q0 1.04533 0.49067 1.55733 0.512 0.49066 1.30133 0.49066z"/>
      <path d="m194.1532 137.94858q2.85867 0 4.30933 0.85334 1.472 0.83199 1.472 2.92266 0 1.34399-0.74667 2.23999-0.74666 0.87467-2.15466 1.13067v0.10666q0.96 0.14934 1.728 0.55467 0.78933 0.40533 1.23733 1.152 0.448 0.74666 0.448 1.94133 0 2.06933-1.42933 3.19999-1.408 1.13067-3.86133 1.13067h-5.35466v-15.23198zm0.384 6.48533q1.96267 0 2.688-0.61867 0.72533-0.64 0.72533-1.87733 0-1.25866-0.896-1.792-0.87466-0.55466-2.81599-0.55466h-2.51733v4.84266zm-2.81599 1.59999v5.52533h3.07199q2.02667 0 2.816-0.78933 0.78933-0.78934 0.78933-2.06933 0-1.19467-0.832-1.92-0.81066-0.74667-2.92266-0.74667z"/>
      <path d="m208.74517 141.53258q0.32 0 0.68267 0.0427 0.38399 0.0213 0.66133 0.0853l-0.23467 1.72799q-0.27733-0.064-0.61866-0.10666-0.32-0.0427-0.61867-0.0427-0.87467 0-1.64266 0.49067-0.768 0.46933-1.23734 1.344-0.44799 0.85333-0.44799 2.00533v6.10132h-1.87733v-11.43465h1.53599l0.21334 2.09066h0.0853q0.55466-0.93866 1.42933-1.62133 0.87467-0.68266 2.06933-0.68266z"/>
      <path d="m216.12645 141.55391q2.09066 0 3.09332 0.91733 1.00267 0.91733 1.00267 2.92266v7.78666h-1.36533l-0.36267-1.62133h-0.0853q-0.74667 0.93866-1.57866 1.38666-0.81067 0.448-2.26133 0.448-1.55734 0-2.58133-0.81066-1.024-0.832-1.024-2.58133 0-1.70667 1.344-2.624 1.34399-0.93866 4.13866-1.024l1.94133-0.064v-0.68266q0-1.42933-0.61867-1.984t-1.74933-0.55467q-0.896 0-1.70666 0.27734-0.81067 0.256-1.51467 0.59733l-0.576-1.408q0.74667-0.40533 1.77067-0.68266 1.02399-0.29867 2.13333-0.29867zm0.55466 6.10132q-2.13333 0.0853-2.96533 0.68267-0.81066 0.59733-0.81066 1.68533 0 0.96 0.576 1.408 0.59733 0.448 1.51466 0.448 1.45067 0 2.41066-0.78933 0.96-0.81067 0.96-2.47467v-1.024z"/>
      <path d="m224.72375 137.45792q0.42666 0 0.74666 0.29866 0.34133 0.27734 0.34133 0.896 0 0.59733-0.34133 0.896-0.32 0.29867-0.74666 0.29867-0.46934 0-0.78934-0.29867t-0.32-0.896q0-0.61866 0.32-0.896 0.32-0.29866 0.78934-0.29866zm0.91733 4.28799v11.43465h-1.87733v-11.43465z"/>
      <path d="m234.77171 141.53258q2.048 0 3.09333 1.00266 1.04533 0.98133 1.04533 3.2v7.44532h-1.85599v-7.31732q0-2.752-2.56-2.752-1.89866 0-2.624 1.06667-0.72533 1.06666-0.72533 3.07199v5.93066h-1.87733v-11.43465h1.51467l0.27733 1.55733h0.10667q0.55466-0.896 1.53599-1.32266 0.98133-0.448 2.06933-0.448z"/>
      <path d="m249.89698 150.02323q0 1.664-1.23733 2.51733t-3.328 0.85333q-1.19466 0-2.06933-0.192-0.85333-0.192-1.51466-0.53333v-1.70666q0.68267 0.34133 1.64266 0.63999 0.98134 0.27734 1.984 0.27734 1.42933 0 2.06933-0.448 0.64-0.46933 0.64-1.23733 0-0.42667-0.23467-0.768-0.23466-0.34133-0.85333-0.68267-0.59733-0.34133-1.728-0.768-1.10933-0.42666-1.89866-0.85333-0.78933-0.42666-1.216-1.024-0.42666-0.59733-0.42666-1.53599 0-1.45067 1.17333-2.24 1.19466-0.78933 3.11466-0.78933 1.04533 0 1.94133 0.21333 0.91733 0.192 1.70666 0.55467l-0.63999 1.49333q-0.72534-0.29867-1.51467-0.512-0.78933-0.21334-1.62133-0.21334-1.152 0-1.77066 0.384-0.59734 0.36267-0.59734 1.00267 0 0.46933 0.27734 0.81066 0.27733 0.32 0.91733 0.64 0.66133 0.29867 1.74933 0.72534 1.088 0.40533 1.856 0.83199 0.768 0.42667 1.17333 1.04534 0.40533 0.59733 0.40533 1.51466z"/>
      <path d="m263.29422 153.18056h-1.92v-13.54665h-4.75732v-1.68533h11.41331v1.68533h-4.73599z"/>
      <path d="m278.52616 147.4419q0 2.83733-1.45067 4.39466-1.42933 1.55733-3.88266 1.55733-1.51466 0-2.70933-0.68266-1.17333-0.704-1.856-2.02667-0.68266-1.34399-0.68266-3.24266 0-2.83733 1.42933-4.37333 1.42933-1.53599 3.88266-1.53599 1.55733 0 2.73066 0.704 1.19467 0.68266 1.856 2.00533 0.68267 1.30133 0.68267 3.19999zm-8.63999 0q0 2.02666 0.78933 3.22133 0.81067 1.17333 2.56 1.17333 1.72799 0 2.53866-1.17333 0.81067-1.19467 0.81067-3.22133t-0.81067-3.17866-2.56-1.152-2.53866 1.152-0.78933 3.17866z"/>
      <path d="m291.43279 147.4419q0 2.83733-1.45066 4.39466-1.42933 1.55733-3.88266 1.55733-1.51466 0-2.70933-0.68266-1.17333-0.704-1.856-2.02667-0.68266-1.34399-0.68266-3.24266 0-2.83733 1.42933-4.37333 1.42933-1.53599 3.88266-1.53599 1.55733 0 2.73066 0.704 1.19467 0.68266 1.856 2.00533 0.68266 1.30133 0.68266 3.19999zm-8.63998 0q0 2.02666 0.78933 3.22133 0.81067 1.17333 2.56 1.17333 1.72799 0 2.53866-1.17333 0.81066-1.19467 0.81066-3.22133t-0.81066-3.17866q-0.81067-1.152-2.56-1.152t-2.53866 1.152-0.78933 3.17866z"/>
      <path d="m296.27544 153.18056h-1.87733v-16.21331h1.87733z"/>
      <path d="m301.77942 140.91391q0 0.72533-0.0427 1.36533-0.0213 0.61867-0.064 0.98133h0.10667q0.49067-0.72533 1.344-1.21599 0.85333-0.49067 2.19733-0.49067 2.13333 0 3.41333 1.49333 1.30133 1.472 1.30133 4.41599 0 2.944-1.30133 4.43733t-3.41333 1.49333q-1.344 0-2.19733-0.49066-0.85333-0.49067-1.344-1.17334h-0.14933l-0.384 1.45067h-1.344v-16.21331h1.87733zm3.22133 2.19733q-1.81333 0-2.51733 1.04533t-0.704 3.24266v0.0853q0 2.11199 0.68267 3.24266 0.704 1.10933 2.58133 1.10933 1.53599 0 2.28266-1.13066 0.768-1.13067 0.768-3.264 0-4.33066-3.09333-4.33066z"/>
      <path d="m322.96339 147.4419q0 2.83733-1.45067 4.39466-1.42933 1.55733-3.88266 1.55733-1.51466 0-2.70933-0.68266-1.17333-0.704-1.85599-2.02667-0.68267-1.34399-0.68267-3.24266 0-2.83733 1.42933-4.37333 1.42933-1.53599 3.88266-1.53599 1.55733 0 2.73067 0.704 1.19466 0.68266 1.85599 2.00533 0.68267 1.30133 0.68267 3.19999zm-8.63999 0q0 2.02666 0.78933 3.22133 0.81067 1.17333 2.56 1.17333 1.728 0 2.53866-1.17333 0.81067-1.19467 0.81067-3.22133t-0.81067-3.17866q-0.81066-1.152-2.55999-1.152t-2.53867 1.152q-0.78933 1.152-0.78933 3.17866z"/>
      <path d="m328.21135 147.33523-3.94666-5.58932h2.13333l2.94399 4.30933 2.92267-4.30933h2.11199l-3.94666 5.58932 4.16 5.84533h-2.13333l-3.11467-4.56533-3.15732 4.56533h-2.112z"/>
      <path d="m336.51 142.89791q0-0.81067 0.384-1.13067t0.91733-0.32q0.55466 0 0.93866 0.32 0.40534 0.32 0.40534 1.13067 0 0.768-0.40534 1.10933-0.384 0.34133-0.93866 0.34133-0.53333 0-0.91733-0.34133t-0.384-1.10933zm0 9.13065q0-0.78933 0.384-1.10933t0.91733-0.32q0.55466 0 0.93866 0.32 0.40534 0.32 0.40534 1.10933 0 0.768-0.40534 1.10933-0.384 0.34134-0.93866 0.34134-0.53333 0-0.91733-0.34134-0.384-0.34133-0.384-1.10933z"/>
      <path d="m352.59525 153.18056h-5.50399v-1.10933l1.792-0.40534v-12.18131l-1.792-0.42667v-1.10933h5.50399v1.10933l-1.79199 0.42667v12.18131l1.79199 0.40534z"/>
      <path d="m360.78722 141.53258q2.04799 0 3.09332 1.00266 1.04534 0.98133 1.04534 3.2v7.44532h-1.856v-7.31732q0-2.752-2.56-2.752-1.89866 0-2.62399 1.06667-0.72533 1.06666-0.72533 3.07199v5.93066h-1.87734v-11.43465h1.51467l0.27733 1.55733h0.10667q0.55466-0.896 1.536-1.32266 0.98133-0.448 2.06933-0.448z"/>
      <path d="m372.5205 153.39389q-2.13333 0-3.41333-1.472-1.28-1.49333-1.28-4.43732 0-2.944 1.28-4.43733 1.30133-1.51466 3.43466-1.51466 1.32266 0 2.15466 0.49066 0.85334 0.49067 1.38667 1.19467h0.128q-0.0213-0.27733-0.0853-0.81067-0.0427-0.55466-0.0427-0.87466v-4.56533h1.87733v16.21331h-1.51467l-0.27733-1.536h-0.0853q-0.512 0.72533-1.36533 1.23733-0.85334 0.512-2.19733 0.512zm0.29866-1.55733q1.81333 0 2.53867-0.98133 0.74666-1.00267 0.74666-3.008v-0.34133q0-2.13333-0.704-3.26399-0.704-1.152-2.60266-1.152-1.51466 0-2.28266 1.216-0.74667 1.19466-0.74667 3.22132 0 2.048 0.74667 3.17867 0.768 1.13066 2.30399 1.13066z"/>
      <path d="m391.14445 141.74591v11.43465h-1.536l-0.27733-1.51467h-0.0853q-0.55467 0.896-1.536 1.32267-0.98133 0.40533-2.09066 0.40533-2.06933 0-3.11466-0.98133-1.04534-1.00266-1.04534-3.17866v-7.48799h1.89867v7.35999q0 2.73066 2.53866 2.73066 1.89866 0 2.624-1.06666 0.74666-1.06667 0.74666-3.072v-5.95199z"/>
      <path d="m402.2164 150.02323q0 1.664-1.23733 2.51733t-3.328 0.85333q-1.19466 0-2.06933-0.192-0.85333-0.192-1.51466-0.53333v-1.70666q0.68267 0.34133 1.64266 0.63999 0.98134 0.27734 1.984 0.27734 1.42933 0 2.06933-0.448 0.64-0.46933 0.64-1.23733 0-0.42667-0.23467-0.768-0.23466-0.34133-0.85333-0.68267-0.59733-0.34133-1.728-0.768-1.10933-0.42666-1.89866-0.85333-0.78933-0.42666-1.216-1.024-0.42666-0.59733-0.42666-1.53599 0-1.45067 1.17333-2.24 1.19466-0.78933 3.11466-0.78933 1.04533 0 1.94133 0.21333 0.91733 0.192 1.70666 0.55467l-0.63999 1.49333q-0.72534-0.29867-1.51467-0.512-0.78933-0.21334-1.62133-0.21334-1.152 0-1.77066 0.384-0.59734 0.36267-0.59734 1.00267 0 0.46933 0.27734 0.81066 0.27733 0.32 0.91733 0.64 0.66133 0.29867 1.74933 0.72534 1.088 0.40533 1.856 0.83199 0.768 0.42667 1.17333 1.04534 0.40533 0.59733 0.40533 1.51466z"/>
      <path d="m408.80835 151.85789q0.42667 0 0.87467-0.064 0.448-0.0853 0.72533-0.17066v1.42933q-0.29867 0.14933-0.85333 0.23467-0.55467 0.10666-1.06667 0.10666-0.896 0-1.66399-0.29866-0.74667-0.32-1.216-1.088-0.46934-0.768-0.46934-2.15467v-6.65599h-1.62133v-0.89599l1.64267-0.74667 0.74666-2.432h1.10934v2.624h3.30666v1.45066h-3.30666v6.61333q0 1.04533 0.49066 1.55733 0.512 0.49066 1.30133 0.49066z"/>
      <path d="m418.02431 141.53258q0.32 0 0.68267 0.0427 0.384 0.0213 0.66133 0.0853l-0.23467 1.72799q-0.27733-0.064-0.61866-0.10666-0.32-0.0427-0.61867-0.0427-0.87466 0-1.64266 0.49067-0.768 0.46933-1.23733 1.344-0.448 0.85333-0.448 2.00533v6.10132h-1.87733v-11.43465h1.53599l0.21334 2.09066h0.0853q0.55467-0.93866 1.42933-1.62133 0.87467-0.68266 2.06933-0.68266z"/>
      <path d="m419.7096 141.74591h2.00533l2.47466 6.50666q0.32 0.85333 0.576 1.64266 0.256 0.768 0.384 1.472h0.0853q0.128-0.53333 0.40533-1.38667 0.27734-0.87466 0.576-1.74933l2.32533-6.48532h2.02667l-4.928 13.01331q-0.59733 1.62133-1.55733 2.58133-0.93866 0.96-2.60266 0.96-0.512 0-0.896-0.064-0.384-0.0427-0.66133-0.10667v-1.49333q0.23467 0.0427 0.55467 0.0853 0.34133 0.0427 0.70399 0.0427 0.98134 0 1.57867-0.55466 0.61866-0.55467 0.96-1.472l0.59733-1.51466z"/>
      <path d="m446.82415 149.1059q0 2.02666-1.47199 3.15733-1.472 1.13066-3.968 1.13066-1.28 0-2.36799-0.192-1.088-0.192-1.81333-0.53333v-1.83466q0.76799 0.34133 1.89866 0.61866 1.152 0.27733 2.368 0.27733 1.70666 0 2.55999-0.66133 0.87467-0.66133 0.87467-1.79199 0-0.74667-0.32-1.25867t-1.10933-0.93866q-0.768-0.448-2.15467-0.93867-1.94133-0.704-2.94399-1.728-0.98133-1.024-0.98133-2.79466 0-1.216 0.61866-2.06933 0.61867-0.87466 1.70667-1.344 1.10933-0.46933 2.53866-0.46933 1.25866 0 2.30399 0.23467 1.04534 0.23466 1.89867 0.61866l-0.59733 1.64267q-0.78934-0.34134-1.728-0.576-0.91733-0.23467-1.92-0.23467-1.42933 0-2.15466 0.61867-0.72533 0.59733-0.72533 1.59999 0 0.768 0.32 1.28 0.31999 0.512 1.04533 0.91733 0.72533 0.40534 1.96266 0.87467 1.344 0.49066 2.26133 1.06666 0.93867 0.55467 1.408 1.344 0.49066 0.78933 0.49066 1.984z"/>
      <path d="m453.4588 151.85789q0.42667 0 0.87467-0.064 0.448-0.0853 0.72533-0.17066v1.42933q-0.29866 0.14933-0.85333 0.23467-0.55467 0.10666-1.06667 0.10666-0.89599 0-1.66399-0.29866-0.74667-0.32-1.216-1.088t-0.46933-2.15467v-6.65599h-1.62133v-0.89599l1.64266-0.74667 0.74667-2.432h1.10933v2.624h3.30666v1.45066h-3.30666v6.61333q0 1.04533 0.49066 1.55733 0.512 0.49066 1.30133 0.49066z"/>
      <path d="m461.67207 141.55391q2.09066 0 3.09332 0.91733 1.00267 0.91733 1.00267 2.92266v7.78666h-1.36533l-0.36267-1.62133h-0.0853q-0.74667 0.93866-1.57866 1.38666-0.81067 0.448-2.26133 0.448-1.55734 0-2.58133-0.81066-1.024-0.832-1.024-2.58133 0-1.70667 1.344-2.624 1.34399-0.93866 4.13866-1.024l1.94133-0.064v-0.68266q0-1.42933-0.61867-1.984t-1.74933-0.55467q-0.896 0-1.70666 0.27734-0.81067 0.256-1.51467 0.59733l-0.576-1.408q0.74667-0.40533 1.77067-0.68266 1.02399-0.29867 2.13333-0.29867zm0.55466 6.10132q-2.13333 0.0853-2.96533 0.68267-0.81066 0.59733-0.81066 1.68533 0 0.96 0.576 1.408 0.59733 0.448 1.51466 0.448 1.45067 0 2.41066-0.78933 0.96-0.81067 0.96-2.47467v-1.024z"/>
      <path d="m474.81335 141.53258q2.048 0 3.09333 1.00266 1.04533 0.98133 1.04533 3.2v7.44532h-1.85599v-7.31732q0-2.752-2.56-2.752-1.89866 0-2.62399 1.06667-0.72534 1.06666-0.72534 3.07199v5.93066h-1.87733v-11.43465h1.51467l0.27733 1.55733h0.10667q0.55466-0.896 1.53599-1.32266 0.98134-0.448 2.06933-0.448z"/>
      <path d="m486.54665 153.39389q-2.13333 0-3.41333-1.472-1.28-1.49333-1.28-4.43732 0-2.944 1.28-4.43733 1.30133-1.51466 3.43466-1.51466 1.32267 0 2.15467 0.49066 0.85333 0.49067 1.38666 1.19467h0.128q-0.0213-0.27733-0.0853-0.81067-0.0427-0.55466-0.0427-0.87466v-4.56533h1.87733v16.21331h-1.51466l-0.27734-1.536h-0.0853q-0.512 0.72533-1.36533 1.23733t-2.19733 0.512zm0.29867-1.55733q1.81333 0 2.53866-0.98133 0.74666-1.00267 0.74666-3.008v-0.34133q0-2.13333-0.70399-3.26399-0.704-1.152-2.60267-1.152-1.51466 0-2.28266 1.216-0.74667 1.19466-0.74667 3.22132 0 2.048 0.74667 3.17867 0.768 1.13066 2.304 1.13066z"/>
      <path d="m499.94395 141.55391q2.09066 0 3.09333 0.91733 1.00266 0.91733 1.00266 2.92266v7.78666h-1.36533l-0.36267-1.62133h-0.0853q-0.74666 0.93866-1.57866 1.38666-0.81067 0.448-2.26133 0.448-1.55733 0-2.58133-0.81066-1.024-0.832-1.024-2.58133 0-1.70667 1.344-2.624 1.34399-0.93866 4.13866-1.024l1.94133-0.064v-0.68266q0-1.42933-0.61867-1.984-0.61866-0.55467-1.74933-0.55467-0.896 0-1.70666 0.27734-0.81067 0.256-1.51467 0.59733l-0.576-1.408q0.74667-0.40533 1.77067-0.68266 1.024-0.29867 2.13333-0.29867zm0.55466 6.10132q-2.13333 0.0853-2.96533 0.68267-0.81066 0.59733-0.81066 1.68533 0 0.96 0.576 1.408 0.59733 0.448 1.51466 0.448 1.45067 0 2.41067-0.78933 0.95999-0.81067 0.95999-2.47467v-1.024z"/>
      <path d="m512.91457 141.53258q0.32 0 0.68266 0.0427 0.384 0.0213 0.66134 0.0853l-0.23467 1.72799q-0.27733-0.064-0.61866-0.10666-0.32-0.0427-0.61867-0.0427-0.87467 0-1.64266 0.49067-0.768 0.46933-1.23734 1.344-0.448 0.85333-0.448 2.00533v6.10132h-1.87733v-11.43465h1.536l0.21333 2.09066h0.0853q0.55466-0.93866 1.42933-1.62133 0.87466-0.68266 2.06933-0.68266z"/>
      <path d="m520.01851 153.39389q-2.13333 0-3.41333-1.472-1.27999-1.49333-1.27999-4.43732 0-2.944 1.27999-4.43733 1.30134-1.51466 3.43467-1.51466 1.32266 0 2.15466 0.49066 0.85333 0.49067 1.38666 1.19467h0.128q-0.0213-0.27733-0.0853-0.81067-0.0427-0.55466-0.0427-0.87466v-4.56533h1.87733v16.21331h-1.51466l-0.27733-1.536h-0.0853q-0.512 0.72533-1.36533 1.23733t-2.19733 0.512zm0.29867-1.55733q1.81333 0 2.53866-0.98133 0.74667-1.00267 0.74667-3.008v-0.34133q0-2.13333-0.704-3.26399-0.704-1.152-2.60266-1.152-1.51467 0-2.28267 1.216-0.74666 1.19466-0.74666 3.22132 0 2.048 0.74666 3.17867 0.768 1.13066 2.304 1.13066z"/>
      <path d="m159.82803 183.04718h-5.50399v-1.10933l1.79199-0.40533v-12.18132l-1.79199-0.42666v-1.10933h5.50399v1.10933l-1.792 0.42666v12.18132l1.792 0.40533z"/>
      <path d="m174.97464 175.28186q0 3.86133-2.11199 5.82399-2.09067 1.94133-5.84533 1.94133h-4.24532v-15.23197h4.69332q2.304 0 3.98933 0.85333t2.60266 2.51733q0.91733 1.64266 0.91733 4.09599zm-2.02666 0.064q0-3.05066-1.51466-4.45866-1.49334-1.42933-4.24533-1.42933h-2.496v11.94665h2.06933q6.18666 0 6.18666-6.05866z"/>
      <path d="m186.85728 183.04718h-8.51199v-15.23197h8.51199v1.68533h-6.59199v4.75732h6.20799v1.664h-6.20799v5.43999h6.59199z"/>
      <path d="m197.39593 179.88985q0 1.664-1.23733 2.51733-1.23734 0.85333-3.328 0.85333-1.19466 0-2.06933-0.19199-0.85333-0.192-1.51466-0.53334v-1.70666q0.68266 0.34133 1.64266 0.64 0.98133 0.27733 1.984 0.27733 1.42933 0 2.06933-0.448 0.64-0.46933 0.64-1.23733 0-0.42667-0.23467-0.768t-0.85333-0.68266q-0.59733-0.34134-1.728-0.768-1.10933-0.42667-1.89866-0.85334-0.78933-0.42666-1.216-1.02399-0.42667-0.59734-0.42667-1.536 0-1.45067 1.17334-2.24 1.19466-0.78933 3.11466-0.78933 1.04533 0 1.94133 0.21333 0.91733 0.192 1.70666 0.55467l-0.64 1.49333q-0.72533-0.29867-1.51466-0.512t-1.62133-0.21333q-1.152 0-1.77067 0.384-0.59733 0.36266-0.59733 1.00266 0 0.46933 0.27733 0.81067 0.27734 0.32 0.91734 0.64 0.66133 0.29866 1.74933 0.72533 1.08799 0.40533 1.85599 0.832 0.768 0.42666 1.17334 1.04533 0.40533 0.59733 0.40533 1.51466z"/>
      <path d="m201.76921 167.81521-0.42666 5.50399h-1.17333l-0.42667-5.50399zm3.904 0-0.42667 5.50399h-1.17333l-0.42667-5.50399z"/>
      <path d="m215.3798 167.32454q0.42667 0 0.74667 0.29867 0.34133 0.27733 0.34133 0.89599 0 0.59734-0.34133 0.896-0.32 0.29867-0.74667 0.29867-0.46933 0-0.78933-0.29867-0.32-0.29866-0.32-0.896 0-0.61866 0.32-0.89599 0.32-0.29867 0.78933-0.29867zm0.91734 4.28799v11.43465h-1.87733v-11.43465z"/>
      <path d="m227.3691 179.88985q0 1.664-1.23733 2.51733t-3.32799 0.85333q-1.19467 0-2.06933-0.19199-0.85334-0.192-1.51467-0.53334v-1.70666q0.68267 0.34133 1.64267 0.64 0.98133 0.27733 1.98399 0.27733 1.42933 0 2.06933-0.448 0.64-0.46933 0.64-1.23733 0-0.42667-0.23466-0.768-0.23467-0.34133-0.85334-0.68266-0.59733-0.34134-1.72799-0.768-1.10933-0.42667-1.89867-0.85334-0.78933-0.42666-1.21599-1.02399-0.42667-0.59734-0.42667-1.536 0-1.45067 1.17333-2.24 1.19467-0.78933 3.11466-0.78933 1.04533 0 1.94133 0.21333 0.91733 0.192 1.70667 0.55467l-0.64 1.49333q-0.72533-0.29867-1.51467-0.512-0.78933-0.21333-1.62133-0.21333-1.152 0-1.77066 0.384-0.59733 0.36266-0.59733 1.00266 0 0.46933 0.27733 0.81067 0.27733 0.32 0.91733 0.64 0.66133 0.29866 1.74933 0.72533 1.088 0.40533 1.856 0.832 0.768 0.42666 1.17333 1.04533 0.40533 0.59733 0.40533 1.51466z"/>
      <path d="m240.01968 171.42053q2.09066 0 3.09333 0.91734 1.00266 0.91733 1.00266 2.92266v7.78665h-1.36533l-0.36267-1.62133h-0.0853q-0.74667 0.93867-1.57866 1.38667-0.81067 0.44799-2.26133 0.44799-1.55733 0-2.58133-0.81066-1.024-0.832-1.024-2.58133 0-1.70666 1.344-2.624 1.34399-0.93866 4.13866-1.02399l1.94133-0.064v-0.68267q0-1.42933-0.61867-1.984-0.61866-0.55466-1.74933-0.55466-0.896 0-1.70666 0.27733-0.81067 0.256-1.51467 0.59733l-0.576-1.40799q0.74667-0.40534 1.77067-0.68267 1.024-0.29867 2.13333-0.29867zm0.55466 6.10133q-2.13333 0.0853-2.96533 0.68266-0.81066 0.59734-0.81066 1.68533 0 0.96 0.576 1.408 0.59733 0.448 1.51466 0.448 1.45067 0 2.41066-0.78933 0.96-0.81067 0.96-2.47466v-1.024z"/>
      <path d="m250.1743 183.04718-4.33066-11.43465h2.00533l2.432 6.74133q0.17067 0.46933 0.36267 1.04533t0.34133 1.10933q0.14933 0.512 0.21333 0.87466h0.0853q0.0853-0.36266 0.23467-0.89599 0.17067-0.53334 0.36267-1.10934 0.21333-0.57599 0.36266-1.02399l2.432-6.74133h2.00533l-4.35199 11.43465z"/>
      <path d="m262.82494 171.42053q2.09066 0 3.09333 0.91734 1.00266 0.91733 1.00266 2.92266v7.78665h-1.36533l-0.36267-1.62133h-0.0853q-0.74667 0.93867-1.57866 1.38667-0.81067 0.44799-2.26133 0.44799-1.55734 0-2.58133-0.81066-1.024-0.832-1.024-2.58133 0-1.70666 1.344-2.624 1.34399-0.93866 4.13866-1.02399l1.94133-0.064v-0.68267q0-1.42933-0.61867-1.984-0.61866-0.55466-1.74933-0.55466-0.896 0-1.70666 0.27733-0.81067 0.256-1.51467 0.59733l-0.576-1.40799q0.74667-0.40534 1.77067-0.68267 1.024-0.29867 2.13333-0.29867zm0.55466 6.10133q-2.13333 0.0853-2.96533 0.68266-0.81066 0.59734-0.81066 1.68533 0 0.96 0.576 1.408 0.59733 0.448 1.51466 0.448 1.45067 0 2.41066-0.78933 0.96-0.81067 0.96-2.47466v-1.024z"/>
      <path d="m271.42224 167.32454q0.42667 0 0.74666 0.29867 0.34134 0.27733 0.34134 0.89599 0 0.59734-0.34134 0.896-0.31999 0.29867-0.74666 0.29867-0.46933 0-0.78933-0.29867-0.32-0.29866-0.32-0.896 0-0.61866 0.32-0.89599 0.32-0.29867 0.78933-0.29867zm0.91733 4.28799v11.43465h-1.87733v-11.43465z"/>
      <path d="m277.84355 183.04718h-1.87733v-16.21331h1.87733z"/>
      <path d="m285.80086 171.42053q2.09066 0 3.09333 0.91734 1.00266 0.91733 1.00266 2.92266v7.78665h-1.36533l-0.36267-1.62133h-0.0853q-0.74666 0.93867-1.57866 1.38667-0.81067 0.44799-2.26133 0.44799-1.55733 0-2.58133-0.81066-1.024-0.832-1.024-2.58133 0-1.70666 1.344-2.624 1.344-0.93866 4.13866-1.02399l1.94133-0.064v-0.68267q0-1.42933-0.61867-1.984-0.61866-0.55466-1.74933-0.55466-0.896 0-1.70666 0.27733-0.81067 0.256-1.51467 0.59733l-0.576-1.40799q0.74667-0.40534 1.77067-0.68267 1.024-0.29867 2.13333-0.29867zm0.55466 6.10133q-2.13333 0.0853-2.96532 0.68266-0.81067 0.59734-0.81067 1.68533 0 0.96 0.576 1.408 0.59733 0.448 1.51466 0.448 1.45067 0 2.41067-0.78933 0.95999-0.81067 0.95999-2.47466v-1.024z"/>
      <path d="m295.31548 170.78053q0 0.72534-0.0427 1.36534-0.0213 0.61866-0.064 0.98133h0.10667q0.49066-0.72533 1.344-1.216 0.85333-0.49067 2.19733-0.49067 2.13333 0 3.41332 1.49333 1.30133 1.472 1.30133 4.416 0 2.94399-1.30133 4.43732t-3.41332 1.49333q-1.344 0-2.19733-0.49066-0.85334-0.49067-1.344-1.17333h-0.14934l-0.38399 1.45066h-1.344v-16.21331h1.87733zm3.22133 2.19733q-1.81333 0-2.51733 1.04534-0.704 1.04533-0.704 3.24266v0.0853q0 2.112 0.68266 3.24266 0.704 1.10933 2.58133 1.10933 1.536 0 2.28267-1.13066 0.76799-1.13067 0.76799-3.264 0-4.33066-3.09332-4.33066z"/>
      <path d="m308.43546 183.04718h-1.87733v-16.21331h1.87733z"/>
      <path d="m316.4781 171.3992q1.472 0 2.51733 0.64 1.06667 0.64 1.62133 1.81333 0.576 1.152 0.576 2.70933v1.13066h-7.82932q0.0427 1.94133 0.98133 2.96533 0.96 1.00267 2.66667 1.00267 1.08799 0 1.91999-0.192 0.85333-0.21334 1.74933-0.59733v1.64266q-0.87466 0.384-1.72799 0.55467-0.85334 0.19199-2.02667 0.19199-1.62133 0-2.87999-0.66133-1.23733-0.66133-1.94133-1.96266-0.68267-1.32267-0.68267-3.22133 0-1.87733 0.61867-3.22133 0.64-1.344 1.77066-2.06933 1.152-0.72533 2.66666-0.72533zm-0.0213 1.536q-1.344 0-2.13333 0.87466-0.768 0.85334-0.91733 2.38933h5.82399q-0.0213-1.45066-0.68267-2.34666-0.66133-0.91733-2.09066-0.91733z"/>
      <path d="m331.51802 170.78053q0 0.72534-0.0427 1.36534-0.0213 0.61866-0.064 0.98133h0.10666q0.49067-0.72533 1.344-1.216t2.19733-0.49067q2.13333 0 3.41333 1.49333 1.30133 1.472 1.30133 4.416 0 2.94399-1.30133 4.43732t-3.41333 1.49333q-1.344 0-2.19733-0.49066-0.85333-0.49067-1.344-1.17333h-0.14933l-0.384 1.45066h-1.344v-16.21331h1.87733zm3.22133 2.19733q-1.81333 0-2.51733 1.04534-0.704 1.04533-0.704 3.24266v0.0853q0 2.112 0.68267 3.24266 0.704 1.10933 2.58133 1.10933 1.536 0 2.28266-1.13066 0.768-1.13067 0.768-3.264 0-4.33066-3.09333-4.33066z"/>
      <path d="m352.31799 171.61253v11.43465h-1.536l-0.27733-1.51466h-0.0853q-0.55467 0.896-1.536 1.32266-0.98133 0.40533-2.09066 0.40533-2.06933 0-3.11467-0.98133-1.04533-1.00266-1.04533-3.17866v-7.48799h1.89867v7.35999q0 2.73066 2.53866 2.73066 1.89866 0 2.62399-1.06666 0.74667-1.06667 0.74667-3.072v-5.95199z"/>
      <path d="m359.76326 181.72452q0.42667 0 0.87467-0.064 0.448-0.0853 0.72533-0.17067v1.42933q-0.29867 0.14934-0.85333 0.23467-0.55467 0.10666-1.06667 0.10666-0.896 0-1.66399-0.29866-0.74667-0.32-1.216-1.088-0.46934-0.768-0.46934-2.15466v-6.65599h-1.62133v-0.896l1.64267-0.74667 0.74666-2.43199h1.10934v2.62399h3.30666v1.45067h-3.30666v6.61332q0 1.04533 0.49066 1.55733 0.512 0.49067 1.30133 0.49067z"/>
      <path d="m370.15251 167.32454q0.42667 0 0.74667 0.29867 0.34133 0.27733 0.34133 0.89599 0 0.59734-0.34133 0.896-0.32 0.29867-0.74667 0.29867-0.46933 0-0.78933-0.29867-0.32-0.29866-0.32-0.896 0-0.61866 0.32-0.89599 0.32-0.29867 0.78933-0.29867zm0.91733 4.28799v11.43465h-1.87733v-11.43465z"/>
      <path d="m378.51515 181.72452q0.42667 0 0.87467-0.064 0.448-0.0853 0.72533-0.17067v1.42933q-0.29866 0.14934-0.85333 0.23467-0.55467 0.10666-1.06666 0.10666-0.896 0-1.664-0.29866-0.74667-0.32-1.216-1.088t-0.46933-2.15466v-6.65599h-1.62133v-0.896l1.64266-0.74667 0.74667-2.43199h1.10933v2.62399h3.30666v1.45067h-3.30666v6.61332q0 1.04533 0.49066 1.55733 0.512 0.49067 1.30133 0.49067z"/>
      <path d="m388.90439 167.32454q0.42666 0 0.74666 0.29867 0.34133 0.27733 0.34133 0.89599 0 0.59734-0.34133 0.896-0.32 0.29867-0.74666 0.29867-0.46934 0-0.78934-0.29867-0.31999-0.29866-0.31999-0.896 0-0.61866 0.31999-0.89599 0.32-0.29867 0.78934-0.29867zm0.91733 4.28799v11.43465h-1.87733v-11.43465z"/>
      <path d="m400.89369 179.88985q0 1.664-1.23733 2.51733t-3.32799 0.85333q-1.19467 0-2.06933-0.19199-0.85334-0.192-1.51467-0.53334v-1.70666q0.68267 0.34133 1.64267 0.64 0.98133 0.27733 1.98399 0.27733 1.42933 0 2.06933-0.448 0.64-0.46933 0.64-1.23733 0-0.42667-0.23466-0.768-0.23467-0.34133-0.85334-0.68266-0.59733-0.34134-1.72799-0.768-1.10934-0.42667-1.89867-0.85334-0.78933-0.42666-1.216-1.02399-0.42666-0.59734-0.42666-1.536 0-1.45067 1.17333-2.24 1.19466-0.78933 3.11466-0.78933 1.04533 0 1.94133 0.21333 0.91733 0.192 1.70667 0.55467l-0.64 1.49333q-0.72534-0.29867-1.51467-0.512t-1.62133-0.21333q-1.152 0-1.77066 0.384-0.59733 0.36266-0.59733 1.00266 0 0.46933 0.27733 0.81067 0.27733 0.32 0.91733 0.64 0.66133 0.29866 1.74933 0.72533 1.088 0.40533 1.856 0.832 0.768 0.42666 1.17333 1.04533 0.40533 0.59733 0.40533 1.51466z"/>
      <path d="m414.71759 171.3992q2.048 0 3.09333 1.00267 1.04533 0.98133 1.04533 3.19999v7.44532h-1.856v-7.31732q0-2.752-2.55999-2.752-1.89867 0-2.624 1.06667-0.72533 1.06666-0.72533 3.07199v5.93066h-1.87733v-11.43465h1.51466l0.27734 1.55733h0.10666q0.55467-0.89599 1.536-1.32266 0.98133-0.448 2.06933-0.448z"/>
      <path d="m432.33888 177.30852q0 2.83733-1.45067 4.39466-1.42933 1.55733-3.88266 1.55733-1.51466 0-2.70933-0.68266-1.17333-0.704-1.85599-2.02666-0.68267-1.344-0.68267-3.24267 0-2.83732 1.42933-4.37332t3.88266-1.536q1.55733 0 2.73066 0.704 1.19467 0.68266 1.856 2.00533 0.68267 1.30133 0.68267 3.19999zm-8.63999 0q0 2.02667 0.78933 3.22133 0.81067 1.17333 2.56 1.17333 1.728 0 2.53866-1.17333 0.81067-1.19466 0.81067-3.22133 0-2.02666-0.81067-3.17866-0.81066-1.152-2.55999-1.152-1.74934 0-2.53867 1.152t-0.78933 3.17866z"/>
      <path d="m439.12284 181.72452q0.42666 0 0.87466-0.064 0.448-0.0853 0.72533-0.17067v1.42933q-0.29866 0.14934-0.85333 0.23467-0.55466 0.10666-1.06666 0.10666-0.896 0-1.664-0.29866-0.74667-0.32-1.216-1.088t-0.46933-2.15466v-6.65599h-1.62133v-0.896l1.64266-0.74667 0.74667-2.43199h1.10933v2.62399h3.30666v1.45067h-3.30666v6.61332q0 1.04533 0.49066 1.55733 0.512 0.49067 1.30134 0.49067z"/>
      <path d="m449.51207 167.32454q0.42666 0 0.74666 0.29867 0.34134 0.27733 0.34134 0.89599 0 0.59734-0.34134 0.896-0.32 0.29867-0.74666 0.29867-0.46933 0-0.78933-0.29867-0.32-0.29866-0.32-0.896 0-0.61866 0.32-0.89599 0.32-0.29867 0.78933-0.29867zm0.91733 4.28799v11.43465h-1.87733v-11.43465z"/>
      <path d="m459.56006 171.3992q2.048 0 3.09333 1.00267 1.04533 0.98133 1.04533 3.19999v7.44532h-1.856v-7.31732q0-2.752-2.55999-2.752-1.89867 0-2.624 1.06667-0.72533 1.06666-0.72533 3.07199v5.93066h-1.87733v-11.43465h1.51466l0.27733 1.55733h0.10667q0.55467-0.89599 1.536-1.32266 0.98133-0.448 2.06933-0.448z"/>
      <path d="m474.68532 179.88985q0 1.664-1.23733 2.51733t-3.328 0.85333q-1.19466 0-2.06933-0.19199-0.85333-0.192-1.51466-0.53334v-1.70666q0.68266 0.34133 1.64266 0.64 0.98133 0.27733 1.984 0.27733 1.42933 0 2.06933-0.448 0.64-0.46933 0.64-1.23733 0-0.42667-0.23467-0.768-0.23466-0.34133-0.85333-0.68266-0.59733-0.34134-1.728-0.768-1.10933-0.42667-1.89866-0.85334-0.78933-0.42666-1.216-1.02399-0.42667-0.59734-0.42667-1.536 0-1.45067 1.17334-2.24 1.19466-0.78933 3.11466-0.78933 1.04533 0 1.94133 0.21333 0.91733 0.192 1.70666 0.55467l-0.64 1.49333q-0.72533-0.29867-1.51466-0.512t-1.62133-0.21333q-1.152 0-1.77067 0.384-0.59733 0.36266-0.59733 1.00266 0 0.46933 0.27733 0.81067 0.27734 0.32 0.91734 0.64 0.66133 0.29866 1.74933 0.72533 1.088 0.40533 1.85599 0.832 0.768 0.42666 1.17334 1.04533 0.40533 0.59733 0.40533 1.51466z"/>
      <path d="m481.27729 181.72452q0.42666 0 0.87466-0.064 0.448-0.0853 0.72533-0.17067v1.42933q-0.29866 0.14934-0.85333 0.23467-0.55467 0.10666-1.06666 0.10666-0.896 0-1.664-0.29866-0.74667-0.32-1.216-1.088t-0.46933-2.15466v-6.65599h-1.62133v-0.896l1.64266-0.74667 0.74667-2.43199h1.10933v2.62399h3.30666v1.45067h-3.30666v6.61332q0 1.04533 0.49066 1.55733 0.512 0.49067 1.30134 0.49067z"/>
      <path d="m489.49055 171.42053q2.09066 0 3.09333 0.91734 1.00266 0.91733 1.00266 2.92266v7.78665h-1.36533l-0.36267-1.62133h-0.0853q-0.74666 0.93867-1.57866 1.38667-0.81067 0.44799-2.26133 0.44799-1.55733 0-2.58133-0.81066-1.024-0.832-1.024-2.58133 0-1.70666 1.344-2.624 1.344-0.93866 4.13866-1.02399l1.94133-0.064v-0.68267q0-1.42933-0.61867-1.984-0.61866-0.55466-1.74933-0.55466-0.896 0-1.70666 0.27733-0.81067 0.256-1.51467 0.59733l-0.576-1.40799q0.74667-0.40534 1.77067-0.68267 1.024-0.29867 2.13333-0.29867zm0.55466 6.10133q-2.13333 0.0853-2.96532 0.68266-0.81067 0.59734-0.81067 1.68533 0 0.96 0.576 1.408 0.59733 0.448 1.51466 0.448 1.45067 0 2.41067-0.78933 0.95999-0.81067 0.95999-2.47466v-1.024z"/>
      <path d="m499.00517 183.04718h-1.87733v-16.21331h1.87733z"/>
      <path d="m504.50917 183.04718h-1.87733v-16.21331h1.87733z"/>
      <path d="m512.5518 171.3992q1.472 0 2.51733 0.64 1.06667 0.64 1.62133 1.81333 0.576 1.152 0.576 2.70933v1.13066h-7.82932q0.0427 1.94133 0.98133 2.96533 0.96 1.00267 2.66667 1.00267 1.08799 0 1.91999-0.192 0.85333-0.21334 1.74933-0.59733v1.64266q-0.87466 0.384-1.72799 0.55467-0.85334 0.19199-2.02667 0.19199-1.62133 0-2.87999-0.66133-1.23733-0.66133-1.94133-1.96266-0.68267-1.32267-0.68267-3.22133 0-1.87733 0.61867-3.22133 0.64-1.344 1.77066-2.06933 1.152-0.72533 2.66666-0.72533zm-0.0213 1.536q-1.344 0-2.13333 0.87466-0.768 0.85334-0.91733 2.38933h5.82399q-0.0213-1.45066-0.68267-2.34666-0.66133-0.91733-2.09066-0.91733z"/>
      <path d="m524.22109 183.26051q-2.13333 0-3.41333-1.47199-1.28-1.49333-1.28-4.43733 0-2.94399 1.28-4.43733 1.30133-1.51466 3.43466-1.51466 1.32267 0 2.15467 0.49067 0.85333 0.49066 1.38666 1.19466h0.128q-0.0213-0.27733-0.0853-0.81066-0.0427-0.55467-0.0427-0.87467v-4.56533h1.87733v16.21331h-1.51466l-0.27734-1.536h-0.0853q-0.512 0.72534-1.36533 1.23734-0.85333 0.51199-2.19733 0.51199zm0.29866-1.55733q1.81334 0 2.53867-0.98133 0.74666-1.00266 0.74666-3.00799v-0.34134q0-2.13333-0.704-3.26399-0.70399-1.152-2.60266-1.152-1.51466 0-2.28266 1.216-0.74667 1.19466-0.74667 3.22133 0 2.04799 0.74667 3.17866 0.768 1.13066 2.30399 1.13066z"/>
      <path d="m533.01042 181.89518q0-0.78933 0.384-1.10933t0.91734-0.32q0.55466 0 0.93866 0.32 0.40533 0.32 0.40533 1.10933 0 0.768-0.40533 1.10934-0.384 0.34133-0.93866 0.34133-0.53334 0-0.91734-0.34133-0.384-0.34134-0.384-1.10934z"/>
      <path d="m159.82803 242.78043h-5.50399v-1.10933l1.79199-0.40534v-12.18131l-1.79199-0.42667v-1.10933h5.50399v1.10933l-1.792 0.42667v12.18131l1.792 0.40534z"/>
      <path d="m168.01999 231.13245q2.04799 0 3.09333 1.00266 1.04533 0.98133 1.04533 3.2v7.44532h-1.856v-7.31732q0-2.752-2.56-2.752-1.89866 0-2.62399 1.06667-0.72533 1.06666-0.72533 3.07199v5.93066h-1.87733v-11.43465h1.51466l0.27733 1.55733h0.10667q0.55467-0.896 1.536-1.32266 0.98133-0.448 2.06933-0.448z"/>
      <path d="m183.14526 239.6231q0 1.664-1.23734 2.51733-1.23733 0.85333-3.32799 0.85333-1.19466 0-2.06933-0.192-0.85333-0.192-1.51466-0.53333v-1.70667q0.68266 0.34134 1.64266 0.64 0.98133 0.27734 1.984 0.27734 1.42933 0 2.06933-0.448 0.64-0.46934 0.64-1.23733 0-0.42667-0.23467-0.768-0.23467-0.34134-0.85333-0.68267-0.59733-0.34133-1.728-0.768-1.10933-0.42666-1.89866-0.85333-0.78934-0.42667-1.216-1.024-0.42667-0.59733-0.42667-1.536 0-1.45066 1.17333-2.23999 1.19467-0.78933 3.11467-0.78933 1.04533 0 1.94133 0.21333 0.91733 0.192 1.70666 0.55466l-0.64 1.49334q-0.72533-0.29867-1.51466-0.512-0.78934-0.21334-1.62133-0.21334-1.152 0-1.77067 0.384-0.59733 0.36267-0.59733 1.00267 0 0.46933 0.27733 0.81066 0.27734 0.32 0.91733 0.64 0.66134 0.29867 1.74934 0.72533 1.08799 0.40534 1.85599 0.832 0.768 0.42667 1.17333 1.04534 0.40534 0.59733 0.40534 1.51466z"/>
      <path d="m189.73721 241.45776q0.42666 0 0.87466-0.064 0.448-0.0853 0.72534-0.17066v1.42933q-0.29867 0.14933-0.85334 0.23466-0.55466 0.10667-1.06666 0.10667-0.896 0-1.664-0.29867-0.74666-0.31999-1.216-1.08799-0.46933-0.768-0.46933-2.15467v-6.65599h-1.62133v-0.896l1.64266-0.74666 0.74667-2.432h1.10933v2.624h3.30666v1.45066h-3.30666v6.61333q0 1.04533 0.49067 1.55733 0.512 0.49066 1.30133 0.49066z"/>
      <path d="m197.95049 231.15378q2.09066 0 3.09333 0.91733 1.00266 0.91733 1.00266 2.92266v7.78666h-1.36533l-0.36266-1.62133h-0.0853q-0.74666 0.93866-1.57866 1.38666-0.81067 0.448-2.26133 0.448-1.55733 0-2.58133-0.81066-1.024-0.832-1.024-2.58133 0-1.70667 1.344-2.624 1.344-0.93866 4.13866-1.024l1.94133-0.064v-0.68266q0-1.42933-0.61867-1.984-0.61866-0.55467-1.74933-0.55467-0.896 0-1.70666 0.27734-0.81067 0.256-1.51466 0.59733l-0.576-1.408q0.74666-0.40533 1.77066-0.68266 1.024-0.29867 2.13333-0.29867zm0.55467 6.10132q-2.13333 0.0853-2.96533 0.68267-0.81067 0.59733-0.81067 1.68533 0 0.96 0.576 1.408 0.59733 0.448 1.51466 0.448 1.45067 0 2.41067-0.78934 0.96-0.81066 0.96-2.47466v-1.024z"/>
      <path d="m207.46512 242.78043h-1.87733v-16.21331h1.87733z"/>
      <path d="m212.9691 242.78043h-1.87733v-16.21331h1.87733z"/>
      <path d="m226.47302 231.15378q2.09067 0 3.09333 0.91733 1.00267 0.91733 1.00267 2.92266v7.78666h-1.36533l-0.36267-1.62133h-0.0853q-0.74667 0.93866-1.57867 1.38666-0.81066 0.448-2.26133 0.448-1.55733 0-2.58133-0.81066-1.024-0.832-1.024-2.58133 0-1.70667 1.344-2.624 1.344-0.93866 4.13866-1.024l1.94133-0.064v-0.68266q0-1.42933-0.61866-1.984-0.61867-0.55467-1.74933-0.55467-0.896 0-1.70667 0.27734-0.81066 0.256-1.51466 0.59733l-0.576-1.408q0.74666-0.40533 1.77066-0.68266 1.024-0.29867 2.13333-0.29867zm0.55467 6.10132q-2.13333 0.0853-2.96533 0.68267-0.81067 0.59733-0.81067 1.68533 0 0.96 0.576 1.408 0.59734 0.448 1.51467 0.448 1.45066 0 2.41066-0.78934 0.96-0.81066 0.96-2.47466v-1.024z"/>
      <path d="m239.61432 231.13245q2.048 0 3.09333 1.00266 1.04533 0.98133 1.04533 3.2v7.44532h-1.856v-7.31732q0-2.752-2.55999-2.752-1.89867 0-2.624 1.06667-0.72533 1.06666-0.72533 3.07199v5.93066h-1.87733v-11.43465h1.51466l0.27733 1.55733h0.10667q0.55467-0.896 1.536-1.32266 0.98133-0.448 2.06933-0.448z"/>
      <path d="m251.34759 242.99376q-2.13333 0-3.41333-1.472-1.27999-1.49333-1.27999-4.43732 0-2.944 1.27999-4.43733 1.30133-1.51466 3.43466-1.51466 1.32267 0 2.15467 0.49066 0.85333 0.49067 1.38666 1.19467h0.128q-0.0213-0.27734-0.0853-0.81067-0.0427-0.55466-0.0427-0.87466v-4.56533h1.87733v16.21331h-1.51466l-0.27733-1.536h-0.0853q-0.512 0.72533-1.36533 1.23733t-2.19733 0.512zm0.29867-1.55733q1.81333 0 2.53866-0.98133 0.74667-1.00267 0.74667-3.008v-0.34133q0-2.13333-0.704-3.26399-0.704-1.152-2.60267-1.152-1.51466 0-2.28266 1.216-0.74666 1.19466-0.74666 3.22132 0 2.048 0.74666 3.17867 0.768 1.13066 2.304 1.13066z"/>
      <path d="m273.40618 239.6231q0 1.664-1.23733 2.51733t-3.32799 0.85333q-1.19467 0-2.06933-0.192-0.85334-0.192-1.51467-0.53333v-1.70667q0.68267 0.34134 1.64267 0.64 0.98133 0.27734 1.98399 0.27734 1.42933 0 2.06933-0.448 0.64-0.46934 0.64-1.23733 0-0.42667-0.23467-0.768-0.23466-0.34134-0.85333-0.68267-0.59733-0.34133-1.72799-0.768-1.10934-0.42666-1.89867-0.85333t-1.216-1.024q-0.42666-0.59733-0.42666-1.536 0-1.45066 1.17333-2.23999 1.19466-0.78933 3.11466-0.78933 1.04533 0 1.94133 0.21333 0.91733 0.192 1.70667 0.55466l-0.64 1.49334q-0.72534-0.29867-1.51467-0.512-0.78933-0.21334-1.62133-0.21334-1.152 0-1.77066 0.384-0.59733 0.36267-0.59733 1.00267 0 0.46933 0.27733 0.81066 0.27733 0.32 0.91733 0.64 0.66133 0.29867 1.74933 0.72533 1.088 0.40534 1.856 0.832 0.768 0.42667 1.17333 1.04534 0.40533 0.59733 0.40533 1.51466z"/>
      <path d="m279.99813 241.45776q0.42667 0 0.87467-0.064 0.448-0.0853 0.72533-0.17066v1.42933q-0.29867 0.14933-0.85333 0.23466-0.55467 0.10667-1.06667 0.10667-0.89599 0-1.66399-0.29867-0.74667-0.31999-1.216-1.08799t-0.46933-2.15467v-6.65599h-1.62133v-0.896l1.64266-0.74666 0.74666-2.432h1.10934v2.624h3.30666v1.45066h-3.30666v6.61333q0 1.04533 0.49066 1.55733 0.512 0.49066 1.30133 0.49066z"/>
      <path d="m288.21142 231.15378q2.09066 0 3.09333 0.91733 1.00266 0.91733 1.00266 2.92266v7.78666h-1.36533l-0.36266-1.62133h-0.0853q-0.74666 0.93866-1.57866 1.38666-0.81067 0.448-2.26133 0.448-1.55733 0-2.58133-0.81066-1.024-0.832-1.024-2.58133 0-1.70667 1.344-2.624 1.344-0.93866 4.13866-1.024l1.94133-0.064v-0.68266q0-1.42933-0.61867-1.984-0.61866-0.55467-1.74933-0.55467-0.896 0-1.70666 0.27734-0.81067 0.256-1.51467 0.59733l-0.57599-1.408q0.74666-0.40533 1.77066-0.68266 1.024-0.29867 2.13333-0.29867zm0.55466 6.10132q-2.13333 0.0853-2.96532 0.68267-0.81067 0.59733-0.81067 1.68533 0 0.96 0.576 1.408 0.59733 0.448 1.51466 0.448 1.45067 0 2.41067-0.78934 0.96-0.81066 0.96-2.47466v-1.024z"/>
      <path d="m301.18204 231.13245q0.32 0 0.68267 0.0427 0.384 0.0213 0.66133 0.0853l-0.23467 1.72799q-0.27733-0.064-0.61866-0.10666-0.32-0.0427-0.61867-0.0427-0.87466 0-1.64266 0.49067-0.768 0.46933-1.23733 1.34399-0.448 0.85334-0.448 2.00533v6.10133h-1.87733v-11.43465h1.53599l0.21334 2.09066h0.0853q0.55467-0.93866 1.42933-1.62133 0.87467-0.68266 2.06933-0.68266z"/>
      <path d="m308.47798 241.45776q0.42667 0 0.87467-0.064 0.448-0.0853 0.72533-0.17066v1.42933q-0.29866 0.14933-0.85333 0.23466-0.55467 0.10667-1.06667 0.10667-0.89599 0-1.66399-0.29867-0.74667-0.31999-1.216-1.08799t-0.46933-2.15467v-6.65599h-1.62133v-0.896l1.64266-0.74666 0.74667-2.432h1.10933v2.624h3.30666v1.45066h-3.30666v6.61333q0 1.04533 0.49066 1.55733 0.512 0.49066 1.30133 0.49066z"/>
      <path d="m323.41122 231.13245q2.048 0 3.09333 1.00266 1.04533 0.98133 1.04533 3.2v7.44532h-1.85599v-7.31732q0-2.752-2.56-2.752-1.89866 0-2.62399 1.06667-0.72534 1.06666-0.72534 3.07199v5.93066h-1.87733v-11.43465h1.51467l0.27733 1.55733h0.10667q0.55466-0.896 1.53599-1.32266 0.98134-0.448 2.06933-0.448z"/>
      <path d="m341.03248 237.04177q0 2.83733-1.45066 4.39466-1.42934 1.55733-3.88266 1.55733-1.51467 0-2.70933-0.68266-1.17334-0.704-1.856-2.02667-0.68267-1.344-0.68267-3.24266 0-2.83733 1.42933-4.37333 1.42934-1.53599 3.88267-1.53599 1.55733 0 2.73066 0.704 1.19466 0.68266 1.85599 2.00533 0.68267 1.30133 0.68267 3.19999zm-8.63999 0q0 2.02666 0.78934 3.22133 0.81066 1.17333 2.55999 1.17333 1.728 0 2.53866-1.17333 0.81067-1.19467 0.81067-3.22133t-0.81067-3.17866q-0.81066-1.152-2.55999-1.152t-2.53866 1.152q-0.78934 1.152-0.78934 3.17866z"/>
      <path d="m350.95245 236.31644q-0.27733-0.87467-0.49067-1.70667-0.192-0.85333-0.29866-1.32266h-0.0853q-0.0853 0.46933-0.27733 1.32266-0.192 0.832-0.49066 1.728l-2.048 6.42132h-2.13333l-3.136-11.43464h1.94133l1.57867 6.10132q0.23466 0.91733 0.448 1.856 0.21333 0.93866 0.29866 1.55733h0.0853q0.0853-0.36267 0.192-0.896 0.128-0.53333 0.27733-1.10933 0.14933-0.59734 0.29867-1.06667l2.02666-6.44265h2.048l1.96266 6.44265q0.23467 0.72533 0.448 1.57867 0.23466 0.85333 0.32 1.47199h0.0853q0.064-0.53333 0.27733-1.47199 0.23467-0.93867 0.49067-1.92l1.6-6.10132h1.91999l-3.17866 11.43464h-2.19733z"/>
      <path d="m361.93905 237.91644q0-0.81067 0.14934-1.38667 0.17066-0.59733 0.55466-1.13066 0.40534-0.53334 1.088-1.10934 0.832-0.70399 1.28-1.17333 0.46933-0.46933 0.66133-0.91733t0.192-1.088q0-1.024-0.66133-1.57866-0.66133-0.55467-1.92-0.55467-1.04533 0-1.85599 0.27734-0.81067 0.256-1.55734 0.61866l-0.66133-1.49333q0.85333-0.448 1.87733-0.74666 1.04533-0.29867 2.32533-0.29867 2.02667 0 3.136 1.00266 1.10933 1.00267 1.10933 2.73067 0 0.95999-0.32 1.64266-0.29867 0.66133-0.87467 1.23733-0.55466 0.55467-1.32266 1.19467-0.704 0.59733-1.088 1.04533-0.36266 0.448-0.49066 0.896-0.128 0.42666-0.128 1.04533v0.36266h-1.49334zm-0.49066 3.71199q0-0.78933 0.36266-1.10933 0.384-0.32 0.96-0.32 0.53334 0 0.91734 0.32 0.38399 0.32 0.38399 1.10933 0 0.768-0.38399 1.10933-0.384 0.34133-0.91734 0.34133-0.576 0-0.96-0.34133-0.36266-0.34133-0.36266-1.10933z"/>
    </g>
    <g>
      <rect x="393.66147" y="266.45773" width="81.152176" height="44.756485" ry="4.2572007" fill="url(#linearGradient11473)" stroke="#5687a3" stroke-width="1.3"/>
      <text x="427.65329" y="296.58926" fill="#eff0f1" font-family="'Noto Sans'" font-size="21.3333px" style="font-variant-caps:normal;font-variant-east-asian:normal;font-variant-ligatures:normal;font-variant-numeric:normal" xml:space="preserve"><tspan x="427.65329" y="296.58926">Yes</tspan></text>
      <path class="ColorScheme-Text" d="m418.96875 283.58008c-2.49023 2.46484-4.98047 4.92969-7.4707 7.39453-0.96798-0.95911-1.93694-1.91723-2.9043-2.87695-0.23967 0.39535-1.15981 0.69471-0.76172 1.26953 1.23481 1.18979 2.45109 2.3991 3.66602 3.60937 2.88292-2.85405 5.76592-5.70805 8.65039-8.56054-0.41614-0.23626-0.61676-0.97945-1.17969-0.83594z" color="#eff0f1" fill="currentColor"/>
    </g>
    <g>
      <rect x="483.66147" y="266.45773" width="81.152176" height="44.756485" ry="4.2572007" fill="url(#linearGradient14580)" stroke="#666a6d" stroke-width="1.3"/>
      <text x="519.65332" y="296.58926" fill="#eff0f1" font-family="'Noto Sans'" font-size="21.3333px" style="font-variant-caps:normal;font-variant-east-asian:normal;font-variant-ligatures:normal;font-variant-numeric:normal" xml:space="preserve"><tspan x="519.65332" y="296.58926">No</tspan></text>
      <path class="ColorScheme-Text" d="m506.04102 282.16211c-3.0323 0.0891-5.69129 2.74939-5.78125 5.78125-0.21228 2.98719 2.09712 5.87821 5.06211 6.32036 2.98112 0.57894 6.17084-1.44436 6.90786-4.39485 0.88651-2.94262-0.87245-6.35994-3.78899-7.34061-0.76239-0.29026-1.58581-0.40515-2.39973-0.36615zm0.30859 1.19141c2.65513-0.0643 5.02872 2.34983 4.89728 5.00612-0.0182 1.04042-0.41308 2.0596-1.0633 2.86692-2.26823-2.26823-4.53645-4.53646-6.80468-6.80468 0.83442-0.6738 1.89465-1.06838 2.9707-1.06836zm2.97461 8.73242c-1.9383 1.65622-5.12231 1.30746-6.70946-0.66799-1.4875-1.68255-1.55222-4.41606-0.0952-6.1367l6.80469 6.80469z" color="#eff0f1" fill="currentColor"/>
    </g>
    <g transform="translate(-662.12038,-38.756534)">
      <g fill-rule="evenodd">
        <path d="m794.85718 163.93361v37.94594h-25.29727l-14.05412 14.05406v-14.05406h-12.64861v-37.94594z" fill="url(#linearGradient4416)"/>
        <path transform="translate(736.85718,157.93361)" d="m36 14.929687-7 1.535156-5 3.535157 6 6-1 3 4.000002 4.000001-4 4 6.94531 6.945311h22.054688v-7.015625z" fill="url(#linearGradient4191)" opacity=".2"/>
        <path transform="translate(736.85718,157.93361)" d="m6 42.945312v1h12.648438v-1zm26.703125 0-14.054687 14.054688v1l14.054687-14.054688h25.296875v-1z" fill="#713e88"/>
      </g>
      <path transform="translate(736.85718,157.93361)" d="m31 13c-1.94444 0-3.760003 0.681878-5.039062 1.960938-1.27906 1.279059-1.960938 3.094622-1.960938 5.039062h4c0-1.05555 0.318133-1.739998 0.789062-2.210938 0.470941-0.47094 1.155388-0.789062 2.210938-0.789062 1.05556 0 1.739997 0.318122 2.210938 0.789062 0.47094 0.470941 0.789062 1.155388 0.789062 2.210938 0 0.91667-0.180695 1.306644-0.421875 1.652344-0.24118 0.34569-0.636269 0.672144-1.224609 1.083984-0.58835 0.41184-1.369877 0.886276-2.091797 1.728516s-1.261719 2.118496-1.261719 3.535156v1h4v-1c0-0.58333 0.0832-0.682084 0.298828-0.933594 0.21558-0.25151 0.685996-0.589584 1.347656-1.052734 0.66165-0.46316 1.516571-1.074206 2.212891-2.072266s1.140625-2.358066 1.140625-3.941406c0-1.94444-0.681867-3.760002-1.960938-5.039062-1.279059-1.27906-3.094612-1.960938-5.039062-1.960938zm-2 20v4h4v-4z" fill="url(#linearGradient4244)" stroke-linecap="round" stroke-linejoin="round" stroke-width="2"/>
    </g>
  </g>
</svg>
