<!-- Created with Inkscape (http://www.inkscape.org/) -->
<svg width="94.21mm" height="28.111mm" version="1.1" viewBox="0 0 94.21 28.111" xmlns="http://www.w3.org/2000/svg">
 <rect x="-1.4211e-14" width="94.21" height="28.111" fill="#483737" stroke-width="1.6698"/>
 <g transform="matrix(.26458 0 0 .26458 -4.7523 3.8139)" fill="#f60" stroke-width="5.2233" style="shape-inside:url(#rect979);white-space:pre" aria-label="Kfocus-mime Thunderbird placeholder">
  <path d="m54.955 31.818q-0.53733 0.58933-1.2133 1.3173-0.676 0.71067-1.4213 1.4733-0.728 0.74533-1.456 1.4733-0.728 0.728-1.3693 1.352 0.74533 0.52 1.5773 1.2827t1.6293 1.6293 1.4907 1.768q0.71066 0.90133 1.1787 1.716h-1.976q-0.52-0.81466-1.196-1.6293-0.676-0.832-1.4387-1.5773-0.74533-0.76266-1.5253-1.404-0.76266-0.64133-1.4907-1.092v5.7027h-1.6813v-12.012h1.6813v5.304q0.60667-0.572 1.3347-1.2827 0.728-0.728 1.4387-1.456 0.71067-0.728 1.3347-1.3867 0.64133-0.676 1.0747-1.1787z"/>
  <path d="m60.38 30.379q0.71066 0 1.2133 0.104 0.52 0.104 0.728 0.19067l-0.29467 1.3867q-0.208-0.104-0.58933-0.19067-0.38133-0.104-0.936-0.104-1.1267 0-1.5773 0.624-0.45067 0.60666-0.45067 1.6467v0.78h3.4667v1.352h-3.4667v7.6613h-1.612v-9.828q0-1.7333 0.84933-2.6693 0.84933-0.95333 2.6693-0.95333z"/>
  <path d="m71.508 39.323q0 1.0747-0.312 1.9413-0.312 0.86666-0.884 1.4907-0.55467 0.624-1.3347 0.97066-0.78 0.32933-1.6987 0.32933-0.91866 0-1.6987-0.32933-0.78-0.34667-1.352-0.97066-0.55467-0.624-0.86666-1.4907-0.312-0.86666-0.312-1.9413 0-1.0573 0.312-1.924 0.312-0.884 0.86666-1.508 0.572-0.624 1.352-0.95333 0.78-0.34667 1.6987-0.34667 0.91866 0 1.6987 0.34667 0.78 0.32933 1.3347 0.95333 0.572 0.624 0.884 1.508 0.312 0.86666 0.312 1.924zm-1.6813 0q0-1.5253-0.69333-2.4093-0.676-0.90133-1.8547-0.90133-1.1787 0-1.872 0.90133-0.676 0.884-0.676 2.4093 0 1.5253 0.676 2.4267 0.69333 0.884 1.872 0.884 1.1787 0 1.8547-0.884 0.69333-0.90133 0.69333-2.4267z"/>
  <path d="m77.696 44.038q-1.092 0-1.924-0.34667-0.81466-0.34667-1.3867-0.97066-0.55466-0.624-0.832-1.4733-0.27733-0.86666-0.27733-1.9067t0.29467-1.9067q0.312-0.86666 0.86666-1.4907 0.55467-0.64133 1.352-0.988 0.81466-0.364 1.8027-0.364 0.60666 0 1.2133 0.104 0.60666 0.104 1.1613 0.32933l-0.364 1.3693q-0.364-0.17333-0.84933-0.27733-0.468-0.104-1.0053-0.104-1.352 0-2.08 0.84933-0.71067 0.84933-0.71067 2.4787 0 0.728 0.156 1.3347 0.17333 0.60666 0.52 1.04 0.364 0.43333 0.91866 0.676 0.55466 0.22533 1.352 0.22533 0.64133 0 1.1613-0.12133t0.81466-0.26l0.22533 1.352q-0.13867 0.08667-0.39867 0.17333-0.26 0.06933-0.58933 0.12133-0.32933 0.06933-0.71066 0.104-0.364 0.052-0.71066 0.052z"/>
  <path d="m89.015 43.57q-0.55467 0.13867-1.4733 0.29467-0.90133 0.156-2.0973 0.156-1.04 0-1.7507-0.29467-0.71067-0.312-1.144-0.86666-0.43333-0.55467-0.624-1.3-0.19067-0.76266-0.19067-1.6813v-5.0613h1.612v4.7147q0 1.6467 0.52 2.3573t1.7507 0.71066q0.26 0 0.53733-0.01733t0.52-0.03467q0.24267-0.03467 0.43333-0.052 0.208-0.03467 0.29467-0.06933v-7.6093h1.612z"/>
  <path d="m93.885 42.669q0.988 0 1.456-0.26 0.48533-0.26 0.48533-0.832 0-0.58933-0.468-0.936t-1.5427-0.78q-0.52-0.208-1.0053-0.416-0.468-0.22533-0.81466-0.52-0.34667-0.29467-0.55467-0.71067-0.208-0.416-0.208-1.0227 0-1.196 0.884-1.8893 0.884-0.71066 2.4093-0.71066 0.38133 0 0.76266 0.052 0.38133 0.03467 0.71066 0.104 0.32933 0.052 0.572 0.12133 0.26 0.06933 0.39867 0.12133l-0.29467 1.3867q-0.26-0.13867-0.81466-0.27733-0.55467-0.156-1.3347-0.156-0.676 0-1.1787 0.27733-0.50267 0.26-0.50267 0.832 0 0.29467 0.104 0.52 0.12133 0.22533 0.34667 0.416 0.24267 0.17333 0.58933 0.32933t0.832 0.32933q0.64133 0.24267 1.144 0.48533 0.50266 0.22533 0.84933 0.53733 0.364 0.312 0.55467 0.76267 0.19067 0.43333 0.19067 1.0747 0 1.248-0.936 1.8893-0.91866 0.64133-2.6347 0.64133-1.196 0-1.872-0.208-0.676-0.19067-0.91866-0.29467l0.29467-1.3867q0.27733 0.104 0.884 0.312 0.60666 0.208 1.612 0.208z"/>
  <path d="m98.583 37.885h4.2813v1.508h-4.2813z"/>
  <path d="m104.7 35.077q0.55467-0.13867 1.456-0.29467 0.91866-0.156 2.1147-0.156 0.86667 0 1.456 0.24267 0.58933 0.22533 0.988 0.676 0.12133-0.08667 0.38133-0.24267 0.26-0.156 0.64133-0.29467 0.38133-0.156 0.84933-0.26 0.468-0.12133 1.0053-0.12133 1.04 0 1.6987 0.312 0.65866 0.29467 1.0227 0.84933 0.38133 0.55467 0.50267 1.3173 0.13866 0.76266 0.13866 1.664v5.0613h-1.612v-4.7147q0-0.79733-0.0867-1.3693-0.0693-0.572-0.29467-0.95333-0.208-0.38133-0.58933-0.55467-0.364-0.19067-0.95333-0.19067-0.81467 0-1.352 0.22533-0.52 0.208-0.71066 0.38133 0.13866 0.45067 0.208 0.988 0.0693 0.53733 0.0693 1.1267v5.0613h-1.612v-4.7147q0-0.79733-0.0867-1.3693t-0.312-0.95333q-0.208-0.38133-0.58933-0.55467-0.364-0.19067-0.936-0.19067-0.24267 0-0.52 0.01733t-0.53733 0.052q-0.24267 0.01733-0.45067 0.052t-0.27733 0.052v7.6093h-1.612z"/>
  <path d="m121.24 43.83h-1.612v-9.0133h1.612zm-0.81467-10.643q-0.43333 0-0.74533-0.27733-0.29467-0.29467-0.29467-0.78t0.29467-0.76266q0.312-0.29467 0.74533-0.29467t0.728 0.29467q0.312 0.27733 0.312 0.76266t-0.312 0.78q-0.29467 0.27733-0.728 0.27733z"/>
  <path d="m124.01 35.077q0.55466-0.13867 1.456-0.29467 0.91866-0.156 2.1147-0.156 0.86666 0 1.456 0.24267 0.58933 0.22533 0.98799 0.676 0.12134-0.08667 0.38134-0.24267 0.26-0.156 0.64133-0.29467 0.38133-0.156 0.84933-0.26 0.468-0.12133 1.0053-0.12133 1.04 0 1.6987 0.312 0.65867 0.29467 1.0227 0.84933 0.38133 0.55467 0.50267 1.3173 0.13866 0.76266 0.13866 1.664v5.0613h-1.612v-4.7147q0-0.79733-0.0867-1.3693-0.0693-0.572-0.29467-0.95333-0.208-0.38133-0.58933-0.55467-0.364-0.19067-0.95333-0.19067-0.81467 0-1.352 0.22533-0.52 0.208-0.71066 0.38133 0.13866 0.45067 0.208 0.988 0.0693 0.53733 0.0693 1.1267v5.0613h-1.612v-4.7147q0-0.79733-0.0867-1.3693t-0.312-0.95333q-0.208-0.38133-0.58934-0.55467-0.364-0.19067-0.93599-0.19067-0.24267 0-0.52 0.01733-0.27734 0.01733-0.53734 0.052-0.24266 0.01733-0.45066 0.052t-0.27733 0.052v7.6093h-1.612z"/>
  <path d="m138.43 39.341q0-1.196 0.34666-2.08 0.34667-0.90133 0.91867-1.4907t1.3173-0.884 1.5253-0.29467q1.82 0 2.7907 1.144 0.97067 1.1267 0.97067 3.4493 0 0.104 0 0.27733 0 0.156-0.0173 0.29467h-6.1706q0.104 1.404 0.81466 2.132 0.71067 0.728 2.2187 0.728 0.84933 0 1.4213-0.13867 0.58933-0.156 0.88399-0.29467l0.22534 1.352q-0.29467 0.156-1.04 0.32933-0.728 0.17333-1.664 0.17333-1.1787 0-2.0453-0.34667-0.84933-0.364-1.404-0.988-0.55467-0.624-0.832-1.4733-0.26-0.86666-0.26-1.8893zm6.188-0.884q0.0173-1.092-0.55467-1.7853-0.55467-0.71067-1.5427-0.71067-0.55467 0-0.988 0.22533-0.416 0.208-0.71067 0.55467-0.29466 0.34667-0.468 0.79733-0.156 0.45066-0.208 0.91866z"/>
  <path d="m160.76 31.818v1.456h-3.7787v10.556h-1.6813v-10.556h-3.7787v-1.456z"/>
  <path d="m162.42 43.83v-13.173l1.612-0.27733v4.6107q0.45067-0.17333 0.95333-0.26 0.52-0.104 1.0227-0.104 1.0747 0 1.7853 0.312 0.71066 0.29467 1.1267 0.84933 0.43333 0.53733 0.60667 1.3 0.17333 0.76266 0.17333 1.6813v5.0613h-1.612v-4.7147q0-0.832-0.12133-1.4213-0.104-0.58933-0.364-0.95333t-0.69333-0.52q-0.43333-0.17333-1.0747-0.17333-0.26 0-0.53733 0.03467t-0.53733 0.08667q-0.24267 0.03467-0.45067 0.08667-0.19066 0.052-0.27733 0.08667v7.488z"/>
  <path d="m179.49 43.57q-0.55466 0.13867-1.4733 0.29467-0.90133 0.156-2.0973 0.156-1.04 0-1.7507-0.29467-0.71067-0.312-1.144-0.86666-0.43333-0.55467-0.624-1.3-0.19066-0.76266-0.19066-1.6813v-5.0613h1.612v4.7147q0 1.6467 0.52 2.3573t1.7507 0.71066q0.25999 0 0.53733-0.01733 0.27733-0.01733 0.52-0.03467 0.24266-0.03467 0.43333-0.052 0.208-0.03467 0.29467-0.06933v-7.6093h1.612z"/>
  <path d="m182.27 35.077q0.55466-0.13867 1.4733-0.29467 0.91866-0.156 2.1147-0.156 1.0747 0 1.7853 0.312 0.71066 0.29467 1.1267 0.84933 0.43334 0.53733 0.60667 1.3t0.17333 1.6813v5.0613h-1.612v-4.7147q0-0.832-0.12134-1.4213-0.104-0.58933-0.364-0.95333t-0.69333-0.52q-0.43333-0.17333-1.0747-0.17333-0.26 0-0.53734 0.01733-0.27733 0.01733-0.53733 0.052-0.24266 0.01733-0.45066 0.052-0.19067 0.03467-0.27734 0.052v7.6093h-1.612z"/>
  <path d="m198.04 36.723q-0.29467-0.24267-0.84933-0.468-0.55467-0.22533-1.2133-0.22533-0.69333 0-1.196 0.26-0.48533 0.24267-0.79733 0.69333-0.312 0.43333-0.45067 1.04-0.13866 0.60666-0.13866 1.3 0 1.5773 0.77999 2.444 0.78 0.84933 2.08 0.84933 0.65867 0 1.092-0.052 0.45066-0.06933 0.69333-0.13867zm0-6.0667 1.612-0.27733v13.191q-0.55467 0.156-1.4213 0.312-0.86667 0.156-1.9933 0.156-1.04 0-1.872-0.32933-0.832-0.32933-1.4213-0.936-0.58933-0.60666-0.91866-1.4733-0.312-0.884-0.312-1.976 0-1.04 0.26-1.9067 0.27733-0.86666 0.79733-1.4907t1.2653-0.97066q0.76266-0.34667 1.7333-0.34667 0.78 0 1.3693 0.208 0.60666 0.208 0.90133 0.39866z"/>
  <path d="m201.92 39.341q0-1.196 0.34667-2.08 0.34666-0.90133 0.91866-1.4907t1.3173-0.884 1.5253-0.29467q1.82 0 2.7907 1.144 0.97067 1.1267 0.97067 3.4493 0 0.104 0 0.27733 0 0.156-0.0173 0.29467h-6.1707q0.104 1.404 0.81467 2.132 0.71066 0.728 2.2187 0.728 0.84933 0 1.4213-0.13867 0.58933-0.156 0.884-0.29467l0.22533 1.352q-0.29467 0.156-1.04 0.32933-0.728 0.17333-1.664 0.17333-1.1787 0-2.0453-0.34667-0.84934-0.364-1.404-0.988-0.55467-0.624-0.832-1.4733-0.26-0.86666-0.26-1.8893zm6.188-0.884q0.0173-1.092-0.55467-1.7853-0.55466-0.71067-1.5427-0.71067-0.55467 0-0.988 0.22533-0.416 0.208-0.71066 0.55467-0.29467 0.34667-0.468 0.79733-0.156 0.45066-0.208 0.91866z"/>
  <path d="m215.44 34.626q0.208 0 0.468 0.03467 0.27733 0.01733 0.53733 0.06933 0.26 0.03467 0.468 0.08667 0.22533 0.03467 0.32933 0.06933l-0.27733 1.404q-0.19067-0.06933-0.64133-0.156-0.43333-0.104-1.1267-0.104-0.45066 0-0.90133 0.104-0.43333 0.08667-0.572 0.12133v7.5747h-1.612v-8.632q0.572-0.208 1.4213-0.38133 0.84933-0.19067 1.9067-0.19067z"/>
  <path d="m220.42 35.215q0.29467-0.19067 0.884-0.39866 0.60667-0.208 1.3867-0.208 0.97067 0 1.716 0.34667 0.76267 0.34667 1.2827 0.97066 0.52 0.624 0.78 1.4907 0.27734 0.86666 0.27734 1.9067 0 1.092-0.32934 1.976-0.312 0.86666-0.90133 1.4733-0.58933 0.60667-1.4213 0.936-0.832 0.32933-1.872 0.32933-1.1267 0-1.9933-0.156-0.86667-0.156-1.4213-0.312v-12.913l1.612-0.27733zm0 7.2107q0.24267 0.06933 0.676 0.13867 0.45067 0.052 1.1093 0.052 1.3 0 2.08-0.84933 0.78-0.86666 0.78-2.444 0-0.69333-0.13867-1.3-0.13867-0.60667-0.45067-1.04-0.312-0.45067-0.81466-0.69333-0.48533-0.26-1.1787-0.26-0.65866 0-1.2133 0.22533-0.55466 0.22533-0.84933 0.468z"/>
  <path d="m230.63 43.83h-1.612v-9.0133h1.612zm-0.81466-10.643q-0.43334 0-0.74534-0.27733-0.29466-0.29467-0.29466-0.78t0.29466-0.76266q0.312-0.29467 0.74534-0.29467 0.43333 0 0.72799 0.29467 0.312 0.27733 0.312 0.76266t-0.312 0.78q-0.29466 0.27733-0.72799 0.27733z"/>
  <path d="m236.73 34.626q0.208 0 0.468 0.03467 0.27733 0.01733 0.53733 0.06933 0.26 0.03467 0.468 0.08667 0.22533 0.03467 0.32933 0.06933l-0.27733 1.404q-0.19067-0.06933-0.64133-0.156-0.43334-0.104-1.1267-0.104-0.45066 0-0.90133 0.104-0.43333 0.08667-0.572 0.12133v7.5747h-1.612v-8.632q0.572-0.208 1.4213-0.38133 0.84934-0.19067 1.9067-0.19067z"/>
  <path d="m245.92 36.723q-0.29467-0.24267-0.84934-0.468-0.55466-0.22533-1.2133-0.22533-0.69333 0-1.196 0.26-0.48534 0.24267-0.79734 0.69333-0.312 0.43333-0.45066 1.04-0.13867 0.60666-0.13867 1.3 0 1.5773 0.78 2.444 0.78 0.84933 2.08 0.84933 0.65866 0 1.092-0.052 0.45067-0.06933 0.69334-0.13867zm0-6.0667 1.612-0.27733v13.191q-0.55466 0.156-1.4213 0.312-0.86666 0.156-1.9933 0.156-1.04 0-1.872-0.32933-0.832-0.32933-1.4213-0.936-0.58934-0.60666-0.91867-1.4733-0.312-0.884-0.312-1.976 0-1.04 0.26-1.9067 0.27733-0.86666 0.79733-1.4907t1.2653-0.97066q0.76267-0.34667 1.7333-0.34667 0.78 0 1.3693 0.208 0.60667 0.208 0.90134 0.39866z"/>
  <path d="m260.56 39.341q0-1.5773-0.78-2.4267-0.78-0.84933-2.08-0.84933-0.728 0-1.144 0.052-0.39867 0.052-0.64133 0.12133v5.6853q0.29466 0.24267 0.84933 0.468 0.55466 0.22533 1.2133 0.22533 0.69333 0 1.1787-0.24267 0.50267-0.26 0.81467-0.69333 0.312-0.45067 0.45066-1.04 0.13867-0.60666 0.13867-1.3zm1.6813 0q0 1.0227-0.27733 1.8893-0.26 0.86666-0.78 1.4907t-1.2827 0.97066q-0.74534 0.34667-1.716 0.34667-0.78 0-1.3867-0.208-0.58933-0.208-0.88399-0.39867v3.6053h-1.612v-11.943q0.572-0.13867 1.4213-0.29467 0.86667-0.17333 1.9933-0.17333 1.04 0 1.872 0.32933 0.83199 0.32933 1.4213 0.936 0.58933 0.60667 0.90133 1.4907 0.32933 0.86666 0.32933 1.9587z"/>
  <path d="m267.22 44.003q-1.4907-0.03467-2.1147-0.64133-0.624-0.60666-0.624-1.8893v-10.816l1.612-0.27733v10.833q0 0.39867 0.0693 0.65867 0.0693 0.26 0.22534 0.416 0.156 0.156 0.41599 0.24267 0.26 0.06933 0.64134 0.12133z"/>
  <path d="m272.3 42.669q0.572 0 1.0053-0.01733 0.45066-0.03467 0.74533-0.104v-2.6867q-0.17334-0.08667-0.572-0.13867-0.38133-0.06933-0.936-0.06933-0.364 0-0.78 0.052-0.39866 0.052-0.74533 0.22533-0.32933 0.156-0.55467 0.45067-0.22533 0.27733-0.22533 0.74533 0 0.86666 0.55467 1.2133 0.55466 0.32933 1.508 0.32933zm-0.13866-8.0773q0.97066 0 1.6293 0.26 0.676 0.24267 1.0747 0.71066 0.416 0.45067 0.58933 1.092 0.17334 0.624 0.17334 1.3867v5.6333q-0.208 0.03467-0.58933 0.104-0.364 0.052-0.832 0.104t-1.0227 0.08667q-0.53733 0.052-1.0747 0.052-0.76267 0-1.404-0.156t-1.1093-0.48533q-0.468-0.34667-0.728-0.90133t-0.26-1.3347q0-0.74533 0.29467-1.2827 0.312-0.53733 0.832-0.86666 0.51999-0.32933 1.2133-0.48533 0.69333-0.156 1.456-0.156 0.24267 0 0.50267 0.03467 0.26 0.01733 0.48533 0.06933 0.24267 0.03467 0.416 0.06933 0.17333 0.03467 0.24267 0.052v-0.45067q0-0.39867-0.0867-0.78-0.0867-0.39867-0.312-0.69333-0.22533-0.312-0.624-0.48533-0.38133-0.19067-1.0053-0.19067-0.79733 0-1.404 0.12133-0.58933 0.104-0.88399 0.22533l-0.19067-1.3347q0.312-0.13867 1.04-0.26 0.728-0.13867 1.5773-0.13867z"/>
  <path d="m282.21 44.038q-1.092 0-1.924-0.34667-0.81467-0.34667-1.3867-0.97066-0.55466-0.624-0.832-1.4733-0.27733-0.86666-0.27733-1.9067t0.29467-1.9067q0.312-0.86666 0.86666-1.4907 0.55467-0.64133 1.352-0.988 0.81466-0.364 1.8027-0.364 0.60667 0 1.2133 0.104 0.60667 0.104 1.1613 0.32933l-0.36399 1.3693q-0.364-0.17333-0.84934-0.27733-0.468-0.104-1.0053-0.104-1.352 0-2.08 0.84933-0.71067 0.84933-0.71067 2.4787 0 0.728 0.156 1.3347 0.17333 0.60666 0.52 1.04 0.364 0.43333 0.91866 0.676 0.55467 0.22533 1.352 0.22533 0.64133 0 1.1613-0.12133t0.81467-0.26l0.22533 1.352q-0.13867 0.08667-0.39866 0.17333-0.26 0.06933-0.58934 0.12133-0.32933 0.06933-0.71066 0.104-0.364 0.052-0.71067 0.052z"/>
  <path d="m285.85 39.341q0-1.196 0.34667-2.08 0.34666-0.90133 0.91866-1.4907t1.3173-0.884q0.74534-0.29467 1.5253-0.29467 1.82 0 2.7907 1.144 0.97066 1.1267 0.97066 3.4493 0 0.104 0 0.27733 0 0.156-0.0173 0.29467h-6.1707q0.104 1.404 0.81467 2.132 0.71066 0.728 2.2187 0.728 0.84933 0 1.4213-0.13867 0.58933-0.156 0.884-0.29467l0.22533 1.352q-0.29466 0.156-1.04 0.32933-0.72799 0.17333-1.664 0.17333-1.1787 0-2.0453-0.34667-0.84933-0.364-1.404-0.988-0.55466-0.624-0.832-1.4733-0.26-0.86666-0.26-1.8893zm6.188-0.884q0.0173-1.092-0.55466-1.7853-0.55467-0.71067-1.5427-0.71067-0.55466 0-0.988 0.22533-0.416 0.208-0.71066 0.55467-0.29467 0.34667-0.468 0.79733-0.156 0.45066-0.208 0.91866z"/>
  <path d="m296.04 43.83v-13.173l1.612-0.27733v4.6107q0.45067-0.17333 0.95333-0.26 0.52-0.104 1.0227-0.104 1.0747 0 1.7853 0.312 0.71066 0.29467 1.1267 0.84933 0.43333 0.53733 0.60667 1.3 0.17333 0.76266 0.17333 1.6813v5.0613h-1.612v-4.7147q0-0.832-0.12133-1.4213-0.104-0.58933-0.364-0.95333t-0.69333-0.52q-0.43333-0.17333-1.0747-0.17333-0.26 0-0.53733 0.03467t-0.53733 0.08667q-0.24267 0.03467-0.45067 0.08667-0.19066 0.052-0.27733 0.08667v7.488z"/>
  <path d="m313.9 39.323q0 1.0747-0.312 1.9413t-0.884 1.4907q-0.55466 0.624-1.3347 0.97066-0.78 0.32933-1.6987 0.32933-0.91867 0-1.6987-0.32933-0.78-0.34667-1.352-0.97066-0.55467-0.624-0.86667-1.4907t-0.312-1.9413q0-1.0573 0.312-1.924 0.312-0.884 0.86667-1.508 0.57199-0.624 1.352-0.95333 0.78-0.34667 1.6987-0.34667 0.91866 0 1.6987 0.34667 0.78 0.32933 1.3347 0.95333 0.572 0.624 0.884 1.508 0.312 0.86666 0.312 1.924zm-1.6813 0q0-1.5253-0.69333-2.4093-0.676-0.90133-1.8547-0.90133-1.1787 0-1.872 0.90133-0.676 0.884-0.676 2.4093 0 1.5253 0.676 2.4267 0.69333 0.884 1.872 0.884 1.1787 0 1.8547-0.884 0.69333-0.90133 0.69333-2.4267z"/>
  <path d="m318.87 44.003q-1.4907-0.03467-2.1147-0.64133-0.624-0.60666-0.624-1.8893v-10.816l1.612-0.27733v10.833q0 0.39867 0.0693 0.65867 0.0693 0.26 0.22534 0.416 0.156 0.156 0.416 0.24267 0.26 0.06933 0.64133 0.12133z"/>
  <path d="m326.72 36.723q-0.29466-0.24267-0.84933-0.468-0.55466-0.22533-1.2133-0.22533-0.69333 0-1.196 0.26-0.48533 0.24267-0.79733 0.69333-0.312 0.43333-0.45066 1.04-0.13867 0.60666-0.13867 1.3 0 1.5773 0.78 2.444 0.78 0.84933 2.08 0.84933 0.65867 0 1.092-0.052 0.45067-0.06933 0.69333-0.13867zm0-6.0667 1.612-0.27733v13.191q-0.55467 0.156-1.4213 0.312-0.86667 0.156-1.9933 0.156-1.04 0-1.872-0.32933-0.83199-0.32933-1.4213-0.936-0.58933-0.60666-0.91866-1.4733-0.312-0.884-0.312-1.976 0-1.04 0.26-1.9067 0.27733-0.86666 0.79733-1.4907t1.2653-0.97066q0.76267-0.34667 1.7333-0.34667 0.78 0 1.3693 0.208 0.60667 0.208 0.90133 0.39866z"/>
  <path d="m330.61 39.341q0-1.196 0.34666-2.08 0.34667-0.90133 0.91867-1.4907t1.3173-0.884 1.5253-0.29467q1.82 0 2.7907 1.144 0.97067 1.1267 0.97067 3.4493 0 0.104 0 0.27733 0 0.156-0.0173 0.29467h-6.1706q0.104 1.404 0.81466 2.132 0.71067 0.728 2.2187 0.728 0.84933 0 1.4213-0.13867 0.58933-0.156 0.88399-0.29467l0.22534 1.352q-0.29467 0.156-1.04 0.32933-0.728 0.17333-1.664 0.17333-1.1787 0-2.0453-0.34667-0.84933-0.364-1.404-0.988-0.55467-0.624-0.832-1.4733-0.26-0.86666-0.26-1.8893zm6.188-0.884q0.0173-1.092-0.55467-1.7853-0.55466-0.71067-1.5427-0.71067-0.55467 0-0.988 0.22533-0.416 0.208-0.71067 0.55467-0.29466 0.34667-0.468 0.79733-0.15599 0.45066-0.20799 0.91866z"/>
  <path d="m344.13 34.626q0.208 0 0.468 0.03467 0.27733 0.01733 0.53733 0.06933 0.26 0.03467 0.468 0.08667 0.22533 0.03467 0.32933 0.06933l-0.27733 1.404q-0.19067-0.06933-0.64133-0.156-0.43334-0.104-1.1267-0.104-0.45066 0-0.90133 0.104-0.43333 0.08667-0.572 0.12133v7.5747h-1.612v-8.632q0.572-0.208 1.4213-0.38133 0.84933-0.19067 1.9067-0.19067z"/>
 </g>
</svg>
