<svg width="124" height="124.01" data-name="Layer 3" version="1.1" viewBox="0 0 123.99999 124.01" xmlns="http://www.w3.org/2000/svg">
    <path d="m60.929364 2.5013766c-4.450453 0.07197-8.900634 0.66066-13.202217 1.732375-9.600538 2.365128-18.534892 7.1373434-25.834352 13.807349-4.033819 3.685866-7.647781 8.01858-10.532623 12.717004-4.908497 7.905335-7.9046101 17.084429-8.6747938 26.398897-0.284006 3.639441-0.258169 7.426263 0.134683 11.082408 0.9343927 8.849747 3.8858988 17.500141 8.5843908 25.092697 5.722577 9.244413 14.075482 16.933273 23.851068 21.829043 11.193972 5.65536 24.262518 7.65168 36.678768 5.51629 3.414809-0.57814 6.79794-1.47414 10.089842-2.65114-0.833333-0.59998-1.667-1.19754-2.518309-1.76558-1.960792-1.33869-4.316345-2.66436-5.023707-5.10489-0.465142-3.55582-0.267508-10.73925-0.267508-10.73925l-17.334829-21.987701s-4.006071-4.25898-5.250629-6.9129c-1.762346-3.973622 1.251929-9.074289 5.521829-9.61939 5.633712-0.0808 11.27418-0.07313 16.910499-0.08856 12.185447-0.03633 24.371934 0.02543 36.557004-0.02766 1.21247-0.01637 2.43945 0.03419 3.61419 0.35976 4.23472 1.140469 6.36333 6.757542 4.02192 10.445913-7.26299 8.984459-14.68359 17.840122-22.05413 26.738359 9.5e-4 3.788399-9e-3 7.576299-0.0168 11.364679 0.59687-0.42012 1.20129-0.83074 1.78035-1.27299 11.49006-8.6795 19.58881-21.576745 22.38074-35.69728 1.39836-6.985456 1.53106-14.236371 0.40411-21.229448-1.25362-7.849102-4.15986-15.565401-8.4257-22.255217-6.82901-10.83107-17.191978-19.341759-29.182858-23.86767-4.672079-1.780792-9.56407-2.96179-14.478898-3.49796-2.580985-0.287318-5.125698-0.403298-7.73204-0.367138zm-31.075758 22.941525c1.169778 0.185367 1.661704 1.418194 2.472185 2.132723 4.123447 4.591123 8.25115 9.177549 12.38492 13.759381-3.597024 3.059598-6.406314 7.038689-8.019849 11.480909-1.797232 4.94691-2.101944 10.612388-0.782244 15.783253 1.325156 5.288331 4.707847 10.496463 8.811316 14.080398 0 0-0.441447 0.382209-1.07743 1.084809-3.310939 3.779737-6.731096 7.483045-10.084308 11.231846-1.049271 1.100178-1.995104 2.319842-3.106839 3.348518-0.943078 0.557292-1.997213-0.191335-2.496171-0.9981-2.054654-2.348806-4.161103-4.658933-6.169398-7.043882-0.59031-0.991693 0.299014-1.94811 0.844972-2.715716l7.63426-10.96618c-0.681074-1.484734-1.251416-3.020618-1.721304-4.584615-4.865708-1.205766-9.751846-2.350756-14.598818-3.616034-1.042578-0.477176-0.866216-1.760801-0.856039-2.699111 0.01555-3.04754-0.04108-6.102257 0.0369-9.145246 0.225038-1.115733 1.498301-1.264487 2.414996-1.464864 4.333335-1.066153 8.669958-2.118352 13.00481-3.17879 0.471802-1.563544 1.048328-3.09508 1.73053-4.579082-2.845891-4.119231-5.748915-8.205784-8.541955-12.357243-0.465853-1.044804 0.495507-1.906845 1.140158-2.590262 2.003845-2.239899 3.935788-4.555632 6.012579-6.722873 0.283955-0.183451 0.63005-0.275595 0.966737-0.239839z" fill="none" stroke="#fff" stroke-width="4.98996"/>
    <path d="m29.947637 25.485846c-1.177854 0 1.652554 1.414693 2.458569 2.127463 4.100752 4.57981 8.20573 9.154939 12.316752 13.725486-3.577228 3.052063-6.37105 7.021352-7.975705 11.452627-1.787336 4.934733-2.090376 10.586241-0.777935 15.744372 1.317852 5.275311 4.681931 10.470607 8.76281 14.045715 0 0-0.439013 0.381267-1.071486 1.082133-3.292725 3.770423-6.694057 7.464612-10.028811 11.204173-1.0435 1.097468-1.984125 2.314133-3.089739 3.340275-0.937888 0.555913-1.986223-0.190856-2.482426-0.995641-2.043349-2.343021-4.138216-4.647456-6.135443-7.026531-0.587062-0.989248 0.297372-1.943308 0.840318-2.709017l7.592238-10.939177c-0.677319-1.481077-1.244523-3.013175-1.711827-4.573319-4.838927-1.2028-9.698157-2.344964-14.518461-3.607138-1.036838-0.475992-0.861447-1.75645-0.851327-2.692458 0.01549-3.040031-0.04085-6.087218 0.03671-9.122704 0.223798-1.112986 1.490052-1.261382 2.401701-1.46126 4.309484-1.063528 8.622252-2.113136 12.933235-3.170963 0.469202-1.559692 1.042552-3.087448 1.720989-4.567797-2.830217-4.109086-5.717258-8.185575-8.494936-12.326804-0.46328-1.042229 0.492782-1.902147 1.133886-2.583877 1.992816-2.234386 3.91412-4.544414 5.979486-6.706312 0.282394-0.183012 1.298114-0.239246 0.961414-0.239246z" fill="#fff"/>
</svg>
