<!-- Created with Inkscape (http://www.inkscape.org/) -->
<svg width="85.638mm" height="34.955mm" version="1.1" viewBox="0 0 85.638 34.955" xmlns="http://www.w3.org/2000/svg">
 <rect width="85.638" height="34.955" rx="0" ry="0" fill="#483737" stroke-width="1.382"/>
 <g transform="matrix(.26458 0 0 .26458 -18.719 -120.51)" fill="#f60" stroke-width="5.2233" style="shape-inside:url(#rect8850);white-space:pre" aria-label="Kfocus-mime JetBrains Placeholder">
  <path d="m103.08 516.1q-0.53733 0.58933-1.2133 1.3173-0.676 0.71067-1.4213 1.4733-0.728 0.74533-1.456 1.4733-0.728 0.728-1.3693 1.352 0.74533 0.52 1.5773 1.2827 0.832 0.76267 1.6293 1.6293 0.79733 0.86667 1.4907 1.768 0.71066 0.90133 1.1787 1.716h-1.976q-0.52-0.81467-1.196-1.6293-0.676-0.832-1.4387-1.5773-0.74533-0.76267-1.5253-1.404-0.76266-0.64133-1.4907-1.092v5.7027h-1.6813v-12.012h1.6813v5.304q0.60667-0.572 1.3347-1.2827 0.728-0.728 1.4387-1.456 0.71067-0.728 1.3347-1.3867 0.64133-0.676 1.0747-1.1787z"/>
  <path d="m108.51 514.66q0.71067 0 1.2133 0.104 0.52 0.104 0.728 0.19066l-0.29467 1.3867q-0.208-0.104-0.58933-0.19067-0.38133-0.104-0.936-0.104-1.1267 0-1.5773 0.624-0.45066 0.60667-0.45066 1.6467v0.78h3.4667v1.352h-3.4667v7.6613h-1.612v-9.828q0-1.7333 0.84933-2.6693 0.84933-0.95333 2.6693-0.95333z"/>
  <path d="m119.63 523.61q0 1.0747-0.312 1.9413-0.312 0.86666-0.884 1.4907-0.55466 0.624-1.3347 0.97067-0.78 0.32933-1.6987 0.32933-0.91867 0-1.6987-0.32933-0.77999-0.34667-1.352-0.97067-0.55467-0.624-0.86667-1.4907-0.312-0.86667-0.312-1.9413 0-1.0573 0.312-1.924 0.312-0.88399 0.86667-1.508 0.572-0.624 1.352-0.95334 0.78-0.34666 1.6987-0.34666 0.91866 0 1.6987 0.34666 0.78 0.32934 1.3347 0.95334 0.572 0.624 0.884 1.508 0.312 0.86667 0.312 1.924zm-1.6813 0q0-1.5253-0.69333-2.4093-0.676-0.90133-1.8547-0.90133-1.1787 0-1.872 0.90133-0.676 0.884-0.676 2.4093t0.676 2.4267q0.69333 0.884 1.872 0.884 1.1787 0 1.8547-0.884 0.69333-0.90133 0.69333-2.4267z"/>
  <path d="m125.82 528.32q-1.092 0-1.924-0.34667-0.81466-0.34666-1.3867-0.97066-0.55467-0.624-0.832-1.4733-0.27733-0.86667-0.27733-1.9067t0.29466-1.9067q0.312-0.86667 0.86667-1.4907 0.55466-0.64134 1.352-0.988 0.81466-0.364 1.8027-0.364 0.60667 0 1.2133 0.104 0.60667 0.104 1.1613 0.32933l-0.364 1.3693q-0.364-0.17333-0.84933-0.27733-0.468-0.104-1.0053-0.104-1.352 0-2.08 0.84933-0.71066 0.84933-0.71066 2.4787 0 0.728 0.156 1.3347 0.17333 0.60666 0.52 1.04 0.364 0.43334 0.91866 0.676 0.55467 0.22534 1.352 0.22534 0.64133 0 1.1613-0.12134 0.52-0.12133 0.81467-0.26l0.22533 1.352q-0.13867 0.0867-0.39867 0.17333-0.26 0.0693-0.58933 0.12134-0.32933 0.0693-0.71067 0.104-0.36399 0.052-0.71066 0.052z"/>
  <path d="m137.14 527.85q-0.55467 0.13866-1.4733 0.29466-0.90134 0.156-2.0973 0.156-1.04 0-1.7507-0.29466-0.71066-0.312-1.144-0.86667-0.43333-0.55466-0.62399-1.3-0.19067-0.76267-0.19067-1.6813v-5.0613h1.612v4.7147q0 1.6467 0.52 2.3573 0.51999 0.71066 1.7507 0.71066 0.26 0 0.53733-0.0173t0.52-0.0347q0.24267-0.0347 0.43333-0.052 0.208-0.0347 0.29467-0.0693v-7.6093h1.612z"/>
  <path d="m142.01 526.95q0.988 0 1.456-0.26 0.48533-0.26 0.48533-0.832 0-0.58933-0.468-0.936t-1.5427-0.78q-0.52-0.208-1.0053-0.416-0.468-0.22533-0.81467-0.52-0.34666-0.29466-0.55466-0.71066t-0.208-1.0227q0-1.196 0.88399-1.8893 0.884-0.71066 2.4093-0.71066 0.38134 0 0.76267 0.052 0.38133 0.0347 0.71066 0.104 0.32934 0.052 0.572 0.12133 0.26 0.0693 0.39867 0.12133l-0.29467 1.3867q-0.26-0.13867-0.81466-0.27733-0.55467-0.156-1.3347-0.156-0.676 0-1.1787 0.27733-0.50267 0.26-0.50267 0.832 0 0.29466 0.104 0.52 0.12134 0.22533 0.34667 0.416 0.24267 0.17333 0.58933 0.32933 0.34667 0.156 0.832 0.32933 0.64133 0.24267 1.144 0.48533 0.50266 0.22534 0.84933 0.53734 0.364 0.31199 0.55466 0.76266 0.19067 0.43333 0.19067 1.0747 0 1.248-0.936 1.8893-0.91866 0.64134-2.6347 0.64134-1.196 0-1.872-0.208-0.676-0.19067-0.91867-0.29467l0.29467-1.3867q0.27733 0.104 0.88399 0.312 0.60667 0.208 1.612 0.208z"/>
  <path d="m146.71 522.17h4.2813v1.508h-4.2813z"/>
  <path d="m152.83 519.36q0.55467-0.13867 1.456-0.29466 0.91866-0.156 2.1147-0.156 0.86667 0 1.456 0.24266 0.58933 0.22533 0.988 0.676 0.12133-0.0867 0.38133-0.24267 0.26-0.156 0.64133-0.29466 0.38133-0.156 0.84933-0.26 0.468-0.12133 1.0053-0.12133 1.04 0 1.6987 0.31199 0.65866 0.29467 1.0227 0.84934 0.38133 0.55466 0.50267 1.3173 0.13866 0.76266 0.13866 1.664v5.0613h-1.612v-4.7147q0-0.79733-0.0867-1.3693-0.0693-0.572-0.29467-0.95333-0.208-0.38133-0.58933-0.55467-0.364-0.19066-0.95333-0.19066-0.81467 0-1.352 0.22533-0.52 0.208-0.71066 0.38133 0.13866 0.45067 0.208 0.988 0.0693 0.53733 0.0693 1.1267v5.0613h-1.612v-4.7147q0-0.79733-0.0867-1.3693t-0.312-0.95333q-0.208-0.38133-0.58933-0.55467-0.364-0.19066-0.936-0.19066-0.24267 0-0.52 0.0173t-0.53733 0.052q-0.24267 0.0173-0.45067 0.052t-0.27733 0.052v7.6093h-1.612z"/>
  <path d="m169.36 528.11h-1.612v-9.0133h1.612zm-0.81467-10.643q-0.43333 0-0.74533-0.27733-0.29467-0.29467-0.29467-0.78t0.29467-0.76266q0.312-0.29467 0.74533-0.29467t0.728 0.29467q0.312 0.27733 0.312 0.76266t-0.312 0.78q-0.29467 0.27733-0.728 0.27733z"/>
  <path d="m172.14 519.36q0.55466-0.13867 1.456-0.29466 0.91866-0.156 2.1147-0.156 0.86666 0 1.456 0.24266 0.58933 0.22533 0.98799 0.676 0.12134-0.0867 0.38134-0.24267 0.26-0.156 0.64133-0.29466 0.38133-0.156 0.84933-0.26 0.468-0.12133 1.0053-0.12133 1.04 0 1.6987 0.31199 0.65867 0.29467 1.0227 0.84934 0.38133 0.55466 0.50267 1.3173 0.13866 0.76266 0.13866 1.664v5.0613h-1.612v-4.7147q0-0.79733-0.0867-1.3693-0.0693-0.572-0.29467-0.95333-0.208-0.38133-0.58933-0.55467-0.364-0.19066-0.95333-0.19066-0.81467 0-1.352 0.22533-0.52 0.208-0.71066 0.38133 0.13866 0.45067 0.208 0.988 0.0693 0.53733 0.0693 1.1267v5.0613h-1.612v-4.7147q0-0.79733-0.0867-1.3693t-0.312-0.95333q-0.208-0.38133-0.58934-0.55467-0.364-0.19066-0.93599-0.19066-0.24267 0-0.52 0.0173-0.27734 0.0173-0.53734 0.052-0.24266 0.0173-0.45066 0.052t-0.27733 0.052v7.6093h-1.612z"/>
  <path d="m186.56 523.62q0-1.196 0.34666-2.08 0.34667-0.90133 0.91867-1.4907 0.572-0.58933 1.3173-0.884 0.74533-0.29466 1.5253-0.29466 1.82 0 2.7907 1.144 0.97067 1.1267 0.97067 3.4493 0 0.104 0 0.27734 0 0.156-0.0173 0.29466h-6.1706q0.104 1.404 0.81466 2.132 0.71067 0.728 2.2187 0.728 0.84933 0 1.4213-0.13867 0.58933-0.156 0.88399-0.29467l0.22534 1.352q-0.29467 0.156-1.04 0.32933-0.728 0.17334-1.664 0.17334-1.1787 0-2.0453-0.34667-0.84933-0.364-1.404-0.988-0.55467-0.624-0.832-1.4733-0.26-0.86666-0.26-1.8893zm6.188-0.884q0.0173-1.092-0.55467-1.7853-0.55467-0.71066-1.5427-0.71066-0.55467 0-0.988 0.22533-0.416 0.208-0.71067 0.55467-0.29466 0.34666-0.468 0.79733-0.156 0.45067-0.208 0.91866z"/>
  <path d="m206.63 524.25q0 0.86667-0.19066 1.612-0.17334 0.74533-0.64134 1.3173-0.45066 0.55466-1.2307 0.884-0.76267 0.312-1.924 0.312-0.58933 0-1.092-0.104-0.48534-0.0867-0.884-0.22534-0.39867-0.156-0.69333-0.312-0.29467-0.17333-0.468-0.32933l0.65866-1.3347q0.364 0.26 0.936 0.55466 0.58933 0.27734 1.456 0.27734 1.248 0 1.82-0.624 0.572-0.64133 0.572-2.184v-7.9906h1.6813z"/>
  <path d="m208.92 523.62q0-1.196 0.34666-2.08 0.34667-0.90133 0.91867-1.4907 0.572-0.58933 1.3173-0.884 0.74533-0.29466 1.5253-0.29466 1.82 0 2.7907 1.144 0.97067 1.1267 0.97067 3.4493 0 0.104 0 0.27734 0 0.156-0.0173 0.29466h-6.1706q0.104 1.404 0.81466 2.132 0.71067 0.728 2.2187 0.728 0.84933 0 1.4213-0.13867 0.58933-0.156 0.884-0.29467l0.22533 1.352q-0.29467 0.156-1.04 0.32933-0.728 0.17334-1.664 0.17334-1.1787 0-2.0453-0.34667-0.84933-0.364-1.404-0.988-0.55467-0.624-0.832-1.4733-0.26-0.86666-0.26-1.8893zm6.188-0.884q0.0173-1.092-0.55467-1.7853-0.55466-0.71066-1.5427-0.71066-0.55467 0-0.988 0.22533-0.416 0.208-0.71067 0.55467-0.29466 0.34666-0.46799 0.79733-0.156 0.45067-0.208 0.91866z"/>
  <path d="m220.62 519.1h3.4147v1.352h-3.4147v4.16q0 0.676 0.104 1.1267 0.104 0.43333 0.312 0.69333 0.208 0.24266 0.52 0.34666 0.31199 0.104 0.72799 0.104 0.728 0 1.1613-0.156 0.45067-0.17333 0.624-0.24266l0.312 1.3347q-0.24266 0.12133-0.84933 0.29467-0.60666 0.19066-1.3867 0.19066-0.91867 0-1.5253-0.22533-0.58934-0.24267-0.95333-0.71066-0.364-0.468-0.52-1.144-0.13867-0.69333-0.13867-1.5947v-8.0426l1.612-0.27733z"/>
  <path d="m229.42 528.22q-0.364 0-0.79733-0.0173-0.416-0.0173-0.84933-0.052-0.416-0.0347-0.832-0.0867t-0.76266-0.13867v-11.648q0.34666-0.0867 0.76266-0.13866 0.416-0.052 0.832-0.0867 0.43333-0.0347 0.84933-0.052t0.78-0.0173q1.04 0 1.9413 0.156 0.91866 0.156 1.5773 0.53733 0.676 0.364 1.0573 0.97066 0.38133 0.60667 0.38133 1.4907 0 0.988-0.468 1.6293-0.46799 0.624-1.248 0.936 1.0573 0.312 1.6813 0.98799 0.624 0.676 0.624 1.9067 0 1.8027-1.3347 2.7213-1.3173 0.90133-4.1947 0.90133zm-1.5773-5.7027v4.2293q0.19067 0.0173 0.45067 0.0347 0.22533 0.0173 0.52 0.0347 0.312 0 0.71066 0 0.74533 0 1.404-0.0867 0.676-0.104 1.1787-0.34666 0.50267-0.24267 0.79734-0.676 0.312-0.43333 0.312-1.092 0-0.58933-0.22534-0.988-0.22533-0.416-0.65866-0.65866-0.416-0.24267-1.0053-0.34667-0.58934-0.104-1.3173-0.104zm0-1.352h1.768q0.624 0 1.1787-0.0867 0.55467-0.0867 0.95334-0.312 0.41599-0.22533 0.64133-0.58933 0.24266-0.364 0.24266-0.91867 0-0.52-0.24266-0.86666-0.24267-0.364-0.676-0.572-0.416-0.22534-0.988-0.32934-0.572-0.10399-1.2133-0.10399t-1.0053 0.0173-0.65867 0.052z"/>
  <path d="m240.55 518.91q0.208 0 0.468 0.0347 0.27733 0.0173 0.53733 0.0693 0.26 0.0347 0.468 0.0867 0.22533 0.0347 0.32933 0.0693l-0.27733 1.404q-0.19067-0.0693-0.64133-0.156-0.43333-0.104-1.1267-0.104-0.45066 0-0.90133 0.104-0.43333 0.0867-0.572 0.12134v7.5746h-1.612v-8.632q0.57199-0.208 1.4213-0.38133 0.84933-0.19066 1.9067-0.19066z"/>
  <path d="m246.96 526.95q0.572 0 1.0053-0.0173 0.45067-0.0347 0.74533-0.104v-2.6867q-0.17333-0.0867-0.572-0.13866-0.38133-0.0693-0.93599-0.0693-0.364 0-0.78 0.052-0.39867 0.052-0.74533 0.22534-0.32934 0.15599-0.55467 0.45066-0.22533 0.27733-0.22533 0.74533 0 0.86667 0.55466 1.2133 0.55467 0.32934 1.508 0.32934zm-0.13867-8.0773q0.97067 0 1.6293 0.26 0.676 0.24266 1.0747 0.71066 0.416 0.45067 0.58933 1.092 0.17333 0.624 0.17333 1.3867v5.6333q-0.208 0.0347-0.58933 0.104-0.364 0.052-0.832 0.104t-1.0227 0.0867q-0.53733 0.052-1.0747 0.052-0.76266 0-1.404-0.156-0.64134-0.156-1.1093-0.48533-0.468-0.34666-0.728-0.90133t-0.26-1.3347q0-0.74534 0.29466-1.2827 0.312-0.53733 0.832-0.86666 0.52-0.32934 1.2133-0.48534t1.456-0.156q0.24267 0 0.50267 0.0347 0.25999 0.0173 0.48533 0.0693 0.24266 0.0347 0.416 0.0693 0.17333 0.0347 0.24266 0.052v-0.45067q0-0.39866-0.0867-0.78-0.0867-0.39866-0.312-0.69333-0.22534-0.312-0.624-0.48533-0.38133-0.19067-1.0053-0.19067-0.79733 0-1.404 0.12134-0.58933 0.104-0.884 0.22533l-0.19066-1.3347q0.31199-0.13866 1.04-0.25999 0.728-0.13867 1.5773-0.13867z"/>
  <path d="m254.57 528.11h-1.612v-9.0133h1.612zm-0.81467-10.643q-0.43333 0-0.74533-0.27733-0.29466-0.29467-0.29466-0.78t0.29466-0.76266q0.312-0.29467 0.74533-0.29467 0.43334 0 0.728 0.29467 0.312 0.27733 0.312 0.76266t-0.312 0.78q-0.29466 0.27733-0.728 0.27733z"/>
  <path d="m257.35 519.36q0.55467-0.13867 1.4733-0.29466 0.91867-0.156 2.1147-0.156 1.0747 0 1.7853 0.31199 0.71066 0.29467 1.1267 0.84934 0.43333 0.53733 0.60667 1.3 0.17333 0.76267 0.17333 1.6813v5.0613h-1.612v-4.7147q0-0.832-0.12133-1.4213-0.104-0.58933-0.364-0.95333t-0.69333-0.52q-0.43334-0.17333-1.0747-0.17333-0.26 0-0.53733 0.0173t-0.53733 0.052q-0.24267 0.0173-0.45067 0.052-0.19066 0.0347-0.27733 0.052v7.6093h-1.612z"/>
  <path d="m269.39 526.95q0.988 0 1.456-0.26 0.48533-0.26 0.48533-0.832 0-0.58933-0.468-0.936t-1.5427-0.78q-0.52-0.208-1.0053-0.416-0.468-0.22533-0.81467-0.52-0.34666-0.29466-0.55466-0.71066t-0.208-1.0227q0-1.196 0.884-1.8893 0.88399-0.71066 2.4093-0.71066 0.38134 0 0.76267 0.052 0.38133 0.0347 0.71066 0.104 0.32934 0.052 0.572 0.12133 0.26 0.0693 0.39867 0.12133l-0.29467 1.3867q-0.26-0.13867-0.81466-0.27733-0.55467-0.156-1.3347-0.156-0.67599 0-1.1787 0.27733-0.50267 0.26-0.50267 0.832 0 0.29466 0.104 0.52 0.12134 0.22533 0.34667 0.416 0.24267 0.17333 0.58933 0.32933 0.34667 0.156 0.832 0.32933 0.64133 0.24267 1.144 0.48533 0.50266 0.22534 0.84933 0.53734 0.364 0.31199 0.55467 0.76266 0.19066 0.43333 0.19066 1.0747 0 1.248-0.936 1.8893-0.91866 0.64134-2.6347 0.64134-1.196 0-1.872-0.208-0.676-0.19067-0.91867-0.29467l0.29467-1.3867q0.27733 0.104 0.884 0.312 0.60666 0.208 1.612 0.208z"/>
  <path d="m282.32 515.98q2.5307 0 3.8827 0.97066 1.3693 0.95333 1.3693 2.86 0 1.04-0.38133 1.7853-0.364 0.728-1.0747 1.196-0.69334 0.45067-1.6987 0.65867t-2.2707 0.208h-1.3347v4.4547h-1.6813v-11.839q0.71066-0.17333 1.5773-0.22533 0.884-0.0693 1.612-0.0693zm0.13867 1.4733q-1.0747 0-1.6467 0.052v4.7147h1.2653q0.86666 0 1.56-0.104 0.69334-0.12134 1.1613-0.38134 0.48533-0.27733 0.74533-0.74533t0.26-1.196q0-0.69333-0.27734-1.144-0.26-0.45067-0.72799-0.71067-0.45067-0.27733-1.0573-0.38133-0.60666-0.104-1.2827-0.104z"/>
  <path d="m292.27 528.29q-1.4907-0.0347-2.1147-0.64133-0.624-0.60667-0.624-1.8893v-10.816l1.612-0.27733v10.833q0 0.39867 0.0693 0.65866 0.0693 0.26 0.22533 0.416 0.156 0.156 0.416 0.24267 0.26 0.0693 0.64133 0.12133z"/>
  <path d="m297.35 526.95q0.572 0 1.0053-0.0173 0.45067-0.0347 0.74534-0.104v-2.6867q-0.17334-0.0867-0.572-0.13866-0.38134-0.0693-0.936-0.0693-0.364 0-0.78 0.052-0.39867 0.052-0.74533 0.22534-0.32933 0.15599-0.55467 0.45066-0.22533 0.27733-0.22533 0.74533 0 0.86667 0.55466 1.2133 0.55467 0.32934 1.508 0.32934zm-0.13866-8.0773q0.97066 0 1.6293 0.26 0.67599 0.24266 1.0747 0.71066 0.416 0.45067 0.58933 1.092 0.17334 0.624 0.17334 1.3867v5.6333q-0.208 0.0347-0.58934 0.104-0.364 0.052-0.832 0.104-0.46799 0.052-1.0227 0.0867-0.53733 0.052-1.0747 0.052-0.76267 0-1.404-0.156t-1.1093-0.48533q-0.468-0.34666-0.728-0.90133t-0.26-1.3347q0-0.74534 0.29467-1.2827 0.31199-0.53733 0.83199-0.86666 0.52-0.32934 1.2133-0.48534 0.69334-0.156 1.456-0.156 0.24267 0 0.50267 0.0347 0.26 0.0173 0.48533 0.0693 0.24267 0.0347 0.416 0.0693 0.17333 0.0347 0.24267 0.052v-0.45067q0-0.39866-0.0867-0.78-0.0867-0.39866-0.312-0.69333-0.22533-0.312-0.624-0.48533-0.38133-0.19067-1.0053-0.19067-0.79733 0-1.404 0.12134-0.58933 0.104-0.884 0.22533l-0.19066-1.3347q0.312-0.13866 1.04-0.25999 0.72799-0.13867 1.5773-0.13867z"/>
  <path d="m307.27 528.32q-1.092 0-1.924-0.34667-0.81466-0.34666-1.3867-0.97066-0.55467-0.624-0.832-1.4733-0.27733-0.86667-0.27733-1.9067t0.29467-1.9067q0.31199-0.86667 0.86666-1.4907 0.55467-0.64134 1.352-0.988 0.81466-0.364 1.8027-0.364 0.60667 0 1.2133 0.104 0.60667 0.104 1.1613 0.32933l-0.364 1.3693q-0.364-0.17333-0.84933-0.27733-0.468-0.104-1.0053-0.104-1.352 0-2.08 0.84933-0.71066 0.84933-0.71066 2.4787 0 0.728 0.156 1.3347 0.17333 0.60666 0.52 1.04 0.364 0.43334 0.91866 0.676 0.55467 0.22534 1.352 0.22534 0.64133 0 1.1613-0.12134 0.52-0.12133 0.81467-0.26l0.22533 1.352q-0.13867 0.0867-0.39867 0.17333-0.26 0.0693-0.58933 0.12134-0.32933 0.0693-0.71066 0.104-0.364 0.052-0.71067 0.052z"/>
  <path d="m310.91 523.62q0-1.196 0.34667-2.08 0.34666-0.90133 0.91866-1.4907 0.572-0.58933 1.3173-0.884 0.74533-0.29466 1.5253-0.29466 1.82 0 2.7907 1.144 0.97067 1.1267 0.97067 3.4493 0 0.104 0 0.27734 0 0.156-0.0173 0.29466h-6.1707q0.104 1.404 0.81467 2.132 0.71066 0.728 2.2187 0.728 0.84933 0 1.4213-0.13867 0.58933-0.156 0.884-0.29467l0.22533 1.352q-0.29467 0.156-1.04 0.32933-0.728 0.17334-1.664 0.17334-1.1787 0-2.0453-0.34667-0.84934-0.364-1.404-0.988-0.55467-0.624-0.832-1.4733-0.26-0.86666-0.26-1.8893zm6.188-0.884q0.0173-1.092-0.55467-1.7853-0.55466-0.71066-1.5427-0.71066-0.55467 0-0.988 0.22533-0.416 0.208-0.71066 0.55467-0.29467 0.34666-0.468 0.79733-0.156 0.45067-0.208 0.91866z"/>
  <path d="m321.1 528.11v-13.173l1.612-0.27733v4.6106q0.45066-0.17333 0.95333-0.25999 0.52-0.104 1.0227-0.104 1.0747 0 1.7853 0.31199 0.71067 0.29467 1.1267 0.84934 0.43333 0.53733 0.60666 1.3 0.17334 0.76267 0.17334 1.6813v5.0613h-1.612v-4.7147q0-0.832-0.12133-1.4213-0.104-0.58933-0.364-0.95333t-0.69333-0.52q-0.43334-0.17333-1.0747-0.17333-0.26 0-0.53733 0.0347t-0.53733 0.0867q-0.24267 0.0347-0.45067 0.0867-0.19066 0.052-0.27733 0.0867v7.488z"/>
  <path d="m338.95 523.61q0 1.0747-0.312 1.9413-0.312 0.86666-0.884 1.4907-0.55466 0.624-1.3347 0.97067-0.78 0.32933-1.6987 0.32933-0.91866 0-1.6987-0.32933-0.78-0.34667-1.352-0.97067-0.55466-0.624-0.86666-1.4907-0.312-0.86667-0.312-1.9413 0-1.0573 0.312-1.924 0.312-0.88399 0.86666-1.508 0.572-0.624 1.352-0.95334 0.78-0.34666 1.6987-0.34666 0.91867 0 1.6987 0.34666 0.78 0.32934 1.3347 0.95334 0.572 0.624 0.884 1.508 0.312 0.86667 0.312 1.924zm-1.6813 0q0-1.5253-0.69333-2.4093-0.676-0.90133-1.8547-0.90133-1.1787 0-1.872 0.90133-0.676 0.884-0.676 2.4093t0.676 2.4267q0.69333 0.884 1.872 0.884 1.1787 0 1.8547-0.884 0.69333-0.90133 0.69333-2.4267z"/>
  <path d="m343.93 528.29q-1.4907-0.0347-2.1147-0.64133-0.624-0.60667-0.624-1.8893v-10.816l1.612-0.27733v10.833q0 0.39867 0.0693 0.65866 0.0693 0.26 0.22533 0.416 0.156 0.156 0.416 0.24267 0.26 0.0693 0.64134 0.12133z"/>
  <path d="m351.78 521.01q-0.29466-0.24266-0.84933-0.46799-0.55467-0.22534-1.2133-0.22534-0.69333 0-1.196 0.26-0.48533 0.24267-0.79733 0.69333-0.312 0.43334-0.45067 1.04-0.13866 0.60667-0.13866 1.3 0 1.5773 0.78 2.444 0.77999 0.84934 2.08 0.84934 0.65867 0 1.092-0.052 0.45067-0.0693 0.69333-0.13867zm0-6.0666 1.612-0.27733v13.191q-0.55467 0.156-1.4213 0.312-0.86667 0.156-1.9933 0.156-1.04 0-1.872-0.32934-0.832-0.32933-1.4213-0.93599-0.58933-0.60667-0.91866-1.4733-0.312-0.884-0.312-1.976 0-1.04 0.26-1.9067 0.27733-0.86667 0.79733-1.4907t1.2653-0.97066q0.76266-0.34667 1.7333-0.34667 0.78 0 1.3693 0.208 0.60667 0.208 0.90133 0.39867z"/>
  <path d="m355.66 523.62q0-1.196 0.34667-2.08 0.34666-0.90133 0.91866-1.4907 0.572-0.58933 1.3173-0.884 0.74534-0.29466 1.5253-0.29466 1.82 0 2.7907 1.144 0.97066 1.1267 0.97066 3.4493 0 0.104 0 0.27734 0 0.156-0.0173 0.29466h-6.1707q0.104 1.404 0.81467 2.132 0.71066 0.728 2.2187 0.728 0.84933 0 1.4213-0.13867 0.58933-0.156 0.884-0.29467l0.22533 1.352q-0.29466 0.156-1.04 0.32933-0.728 0.17334-1.664 0.17334-1.1787 0-2.0453-0.34667-0.84933-0.364-1.404-0.988t-0.832-1.4733q-0.26-0.86666-0.26-1.8893zm6.188-0.884q0.0173-1.092-0.55467-1.7853-0.55466-0.71066-1.5427-0.71066-0.55467 0-0.988 0.22533-0.416 0.208-0.71066 0.55467-0.29467 0.34666-0.468 0.79733-0.156 0.45067-0.208 0.91866z"/>
  <path d="m369.18 518.91q0.208 0 0.468 0.0347 0.27733 0.0173 0.53733 0.0693 0.26 0.0347 0.468 0.0867 0.22533 0.0347 0.32933 0.0693l-0.27733 1.404q-0.19066-0.0693-0.64133-0.156-0.43333-0.104-1.1267-0.104-0.45066 0-0.90133 0.104-0.43333 0.0867-0.572 0.12134v7.5746h-1.612v-8.632q0.572-0.208 1.4213-0.38133 0.84933-0.19066 1.9067-0.19066z"/>
 </g>
</svg>
