<svg width="33.866665mm" height="33.866482mm" version="1.1" viewBox="0 0 127.99906 127.99837" xmlns="http://www.w3.org/2000/svg">
    <defs>
        <style id="current-color-scheme" type="text/css">.ColorScheme-Text {
        color:#eff0f1;
      }
      .ColorScheme-NegativeText {
        color:#da4453;
      }</style>
    </defs>
    <path class="ColorScheme-Text" d="m121.82769 0.56376847-27.753104 27.753103-11.893644-11.893644-30.076092 30.076092 29.394893 29.394894 30.076097-30.076092-11.893649-11.893645 27.753099-27.753102zm-75.329408 51.542811-22.146536 22.146535 11.893645 11.893643-35.681623 35.681623 5.606222 5.60622 35.681624-35.68162 11.893644 11.89364 22.146534-22.146531-17.500213-17.500213z" fill="currentColor" stroke="#000" stroke-width=".797289"/>
    <path class="ColorScheme-NegativeText" d="m93.77392 87.29678-6.476624 6.476625 12.938684 12.938685-12.938684 12.93869 6.476624 6.47662 12.93869-12.93868 12.93868 12.93868 6.47663-6.47662-12.93869-12.93869 12.93869-12.938685-6.47663-6.476625-12.93868 12.93869z" fill="currentColor" stroke-width=".895768"/>
</svg>
