<svg width="10mm" height="10mm" version="1.1" viewBox="0 0 37.795 37.795" xmlns="http://www.w3.org/2000/svg">
 <defs>
  <style id="current-color-scheme" type="text/css">.ColorScheme-Text {
        color:#eff0f1;
      }
      .ColorScheme-NegativeText {
        color:#da4453;
      }</style>
 </defs>
 <path class="ColorScheme-Text" d="m35.21 0.14045-8.0261 8.0261-3.4396-3.4396-8.6979 8.6979 8.5009 8.5009 8.6979-8.6979-3.4396-3.4396 8.0261-8.0261zm-21.785 14.906-6.4047 6.4047 3.4396 3.4396-10.319 10.319 1.6213 1.6213 10.319-10.319 3.4396 3.4396 6.4047-6.4047-5.061-5.061z" fill="currentColor" stroke="#000" stroke-width=".78087"/>
 <path class="ColorScheme-NegativeText" d="m27.278 25.365-1.9124 1.9124 3.8205 3.8205-3.8205 3.8205 1.9124 1.9124 3.8205-3.8205 3.8205 3.8205 1.9124-1.9124-3.8205-3.8205 3.8205-3.8205-1.9124-1.9124-3.8205 3.8205z" fill="currentColor" stroke-width=".2645"/>
</svg>
