<!-- Created with Inkscape (http://www.inkscape.org/) -->
<svg width="60mm" height="9.763mm" version="1.1" viewBox="0 0 60 9.763" xmlns="http://www.w3.org/2000/svg">
 <defs>
  <marker id="marker11488" overflow="visible" markerHeight="6.155385" markerWidth="5.3244081" orient="auto-start-reverse" preserveAspectRatio="xMidYMid" viewBox="0 0 5.3244081 6.1553851">
   <path transform="scale(.5)" d="m5.77 0-8.65 5v-10z" fill="context-stroke" fill-rule="evenodd" stroke="context-stroke" stroke-width="1pt"/>
  </marker>
 </defs>
 <rect x=".095913" y=".095913" width="59.808" height="9.571" fill="#2a2e32" stroke="#000" stroke-width=".19183"/>
 <g transform="matrix(.47708 0 0 .47708 23.77 -492.28)">
  <g transform="translate(0,39.5)">
   <path class="ColorScheme-Text" d="m10.999 993.86v7.0391l-3.2936-3.293-0.00195 2e-3c-0.35575-0.35596-0.99629-0.99609-0.99629-0.99609l-0.70717 0.70703 4.5458 4.5411-4.5458 4.541 0.70717 0.707s0.64055-0.6401 0.99629-0.9961h0.00195l3.2936-3.293v7.0391h1.0002l4.0008-4-4.0008-4 4.0008-4.0001-4.0008-4h-1.0002zm1.0002 1.4141 2.5864 2.5859-2.5864 2.586zm0 8 2.5864 2.586-2.5864 2.5859z" color="#eff0f1" fill="currentColor"/>
  </g>
 </g>
 <g class="ColorScheme-Text" transform="matrix(.63611 0 0 .63611 13.415 -.57343)" color="#eff0f1" fill="currentColor">
  <path d="m8 2-4 4v4l4 4h1v-12z"/>
  <path d="m2 6v4h1v-4z"/>
  <path d="m10.129 4.6152-0.33008 0.98828a3 3 0 0 1 1.2012 2.3965 3 3 0 0 1-1.2012 2.3965l0.32812 0.98438a4 4 0 0 0 1.873-3.3809 4 4 0 0 0-1.8711-3.3848z"/>
  <path d="m9.9453 2.332-0.16797 1a5 5 0 0 1 3.2227 4.668 5 5 0 0 1-3.2207 4.6719l0.16602 0.99805a6 6 0 0 0 4.0547-5.6699 6 6 0 0 0-4.0547-5.668z"/>
 </g>
 <g transform="matrix(.50888 0 0 .50888 .047047 .047047)">
  <path d="m86.85 11.479a1.884 1.884 0 0 0-1.665 1.7865 1.884 1.884 0 0 0 0 0.0847h0.94198a0.94198 0.94198 0 0 1 0.83159-0.93649h0.10856v-0.9346h-0.21711zm0.21892 2e-3v0.94197a0.94198 0.94198 0 0 1 0.93646 0.8316v0.10859h6e-3a0.94198 0.94198 0 0 1-0.83159 0.93645l-0.10859-3e-5v-7e-3a1.884 1.884 0 0 0-0.18766 2e-3 1.884 1.884 0 0 0-0.75432 0.20614v-0.1951h-2e-3v1.884h0.94198v-0.95486h0.2191a1.884 1.884 0 0 0 1.665-1.7865 1.884 1.884 0 0 0 0-0.0847h-0.0128v-0.21718a1.884 1.884 0 0 0-1.7864-1.665 1.884 1.884 0 0 0-0.0846 0zm-0.94015 5.6371v0.94201h0.94199v-0.94201z" fill="#fdbc4b"/>
  <path class="ColorScheme-Text" d="m80.017 1.2807c-3.8953 0-7.4118 1.5671-9.9536 4.1089l0.66467 0.66466c2.3724-2.3724 5.6533-3.8361 9.289-3.8361 3.6356 0 6.9166 1.4637 9.2889 3.8361l0.66468-0.66466c-2.5418-2.5418-6.0583-4.1089-9.9536-4.1089zm0 3.75c-2.8566 0-5.4346 1.15-7.2986 3.0139l0.66284 0.66281c1.6945-1.6945 4.0389-2.7393 6.6358-2.7393s4.9412 1.0447 6.6358 2.7393l0.66283-0.66281c-1.864-1.864-4.442-3.0139-7.2986-3.0139zm0 3.75c-1.8178 0-3.4592 0.73096-4.6454 1.9171l0.66467 0.66467c1.0167-1.0167 2.4226-1.6443 3.9807-1.6443s2.964 0.62756 3.9807 1.6443l0.66467-0.66467c-1.1862-1.1862-2.8276-1.9171-4.6454-1.9171zm0 3.75c-1.0388 0-1.875 0.83626-1.875 1.875 0 1.0388 0.83626 1.875 1.875 1.875 1.0387 0 1.875-0.83625 1.875-1.875 0-1.0387-0.83625-1.875-1.875-1.875zm0 0.93749c0.51938 0 0.9375 0.41815 0.9375 0.93749 0 0.51938-0.41812 0.93752-0.9375 0.93752s-0.93751-0.41814-0.93751-0.93752c0-0.51934 0.41813-0.93749 0.93751-0.93749z" color="#eff0f1" fill="currentColor" opacity=".5"/>
  <path class="ColorScheme-Text" d="m8.8698 1.2807v1.875h-2.8125v13.125h13.125v-13.125h-2.8125v-1.875zm-1.875 2.8125h0.93749v1.875h9.375v-1.875h0.93752v11.25h-11.25zm1.875 2.8125v0.93749h7.5v-0.93749zm0 2.8125v0.93749h5.625v-0.93749zm0 2.8125v0.93749h2.8125v-0.93749z" color="#eff0f1" fill="currentColor"/>
  <path d="m99.899 9.5h12.413" fill="#f60" marker-start="url(#marker11488)" stroke="#f90" stroke-width="2.482"/>
 </g>
</svg>
