<!-- Created with Inkscape (http://www.inkscape.org/) -->
<svg width="60mm" height="12.307mm" version="1.1" viewBox="0 0 60 12.307" xmlns="http://www.w3.org/2000/svg">
 <rect x=".010002" width="60" height="12.307" fill="#483737" stroke-width=".46966"/>
 <text transform="matrix(.39687 0 0 .39687 -3.386 -149.52)" fill="#ff6600" font-family="Ubuntu" font-size="16px" stroke="#ff9900" stroke-width="5.2233" style="font-variant-caps:normal;font-variant-east-asian:normal;font-variant-ligatures:normal;font-variant-numeric:normal;line-height:0px;shape-inside:url(#rect15921);white-space:pre" xml:space="preserve"/>
 <g transform="matrix(.26458 0 0 .26458 -1.4498 3.835)" fill="#d45500" stroke-width="5.2233" style="shape-inside:url(#rect349);white-space:pre" aria-label="Wi-Fi Connection Dialog Here">
  <path d="m20.21 5.9468q-0.672 2.144-1.36 3.968-0.688 1.824-1.376 3.552h-1.552q-0.848-2.448-1.504-5.168-0.64-2.72-1.2-5.92h1.632q0.224 1.248 0.464 2.496t0.496 2.432q0.256 1.168 0.512 2.24 0.256 1.072 0.528 1.984 0.64-1.68 1.36-3.68 0.72-2.016 1.344-4.16h1.344q0.624 2.144 1.36 4.16 0.736 2 1.376 3.68 0.256-0.896 0.512-1.968 0.256-1.072 0.496-2.24 0.256-1.184 0.496-2.432 0.24-1.264 0.464-2.512h1.584q-0.576 3.2-1.232 5.92-0.64 2.72-1.472 5.168h-1.552q-0.704-1.728-1.376-3.552-0.672-1.824-1.344-3.968z"/>
  <path d="m30.402 13.467h-1.488v-8.32h1.488zm-0.752-9.824q-0.4 0-0.688-0.256-0.272-0.272-0.272-0.72t0.272-0.704q0.288-0.272 0.688-0.272t0.672 0.272q0.288 0.256 0.288 0.704t-0.288 0.72q-0.272 0.256-0.672 0.256z"/>
  <path d="m32.097 7.9788h3.952v1.392h-3.952z"/>
  <path d="m37.841 13.467v-11.088h6.688v1.328h-5.136v3.344h4.56v1.312h-4.56v5.104z"/>
  <path d="m47.825 13.467h-1.488v-8.32h1.488zm-0.752-9.824q-0.4 0-0.688-0.256-0.272-0.272-0.272-0.72t0.272-0.704q0.288-0.272 0.688-0.272t0.672 0.272q0.288 0.256 0.288 0.704t-0.288 0.72q-0.272 0.256-0.672 0.256z"/>
  <path d="m58.945 13.707q-1.168 0-2.128-0.384t-1.648-1.12-1.072-1.808q-0.368-1.088-0.368-2.48t0.416-2.464q0.432-1.088 1.152-1.824t1.68-1.12 2.048-0.384q0.688 0 1.232 0.096 0.56 0.096 0.96 0.224 0.416 0.128 0.672 0.256t0.352 0.192l-0.448 1.28q-0.144-0.096-0.416-0.208t-0.624-0.224q-0.336-0.112-0.752-0.176-0.4-0.08-0.816-0.08-0.88 0-1.584 0.304t-1.2 0.88-0.768 1.408q-0.256 0.816-0.256 1.84 0 0.992 0.224 1.808 0.24 0.816 0.704 1.408 0.464 0.576 1.152 0.896 0.704 0.32 1.632 0.32 1.072 0 1.776-0.224t1.056-0.4l0.4 1.28q-0.112 0.08-0.4 0.208-0.288 0.112-0.72 0.224t-1.008 0.192-1.248 0.08z"/>
  <path d="m71.105 9.3068q0 0.992-0.288 1.792t-0.816 1.376q-0.512 0.576-1.232 0.896-0.72 0.304-1.568 0.304t-1.568-0.304q-0.72-0.32-1.248-0.896-0.512-0.576-0.8-1.376t-0.288-1.792q0-0.976 0.288-1.776 0.288-0.816 0.8-1.392 0.528-0.576 1.248-0.88 0.72-0.32 1.568-0.32t1.568 0.32q0.72 0.304 1.232 0.88 0.528 0.576 0.816 1.392 0.288 0.8 0.288 1.776zm-1.552 0q0-1.408-0.64-2.224-0.624-0.832-1.712-0.832t-1.728 0.832q-0.624 0.816-0.624 2.224 0 1.408 0.624 2.24 0.64 0.816 1.728 0.816t1.712-0.816q0.64-0.832 0.64-2.24z"/>
  <path d="m73.201 5.3868q0.512-0.128 1.36-0.272t1.952-0.144q0.992 0 1.648 0.288 0.656 0.272 1.04 0.784 0.4 0.496 0.56 1.2t0.16 1.552v4.672h-1.488v-4.352q0-0.768-0.112-1.312-0.096-0.544-0.336-0.88t-0.64-0.48q-0.4-0.16-0.992-0.16-0.24 0-0.496 0.016t-0.496 0.048q-0.224 0.016-0.416 0.048-0.176 0.032-0.256 0.048v7.024h-1.488z"/>
  <path d="m82.385 5.3868q0.512-0.128 1.36-0.272t1.952-0.144q0.992 0 1.648 0.288 0.656 0.272 1.04 0.784 0.4 0.496 0.56 1.2t0.16 1.552v4.672h-1.488v-4.352q0-0.768-0.112-1.312-0.096-0.544-0.336-0.88t-0.64-0.48q-0.4-0.16-0.992-0.16-0.24 0-0.496 0.016t-0.496 0.048q-0.224 0.016-0.416 0.048-0.176 0.032-0.256 0.048v7.024h-1.488z"/>
  <path d="m91.105 9.3228q0-1.104 0.32-1.92 0.32-0.832 0.848-1.376t1.216-0.816 1.408-0.272q1.68 0 2.576 1.056 0.896 1.04 0.896 3.184 0 0.096 0 0.256 0 0.144-0.016 0.272h-5.696q0.096 1.296 0.752 1.968t2.048 0.672q0.784 0 1.312-0.128 0.544-0.144 0.816-0.272l0.208 1.248q-0.272 0.144-0.96 0.304-0.672 0.16-1.536 0.16-1.088 0-1.888-0.32-0.784-0.336-1.296-0.912t-0.768-1.36q-0.24-0.8-0.24-1.744zm5.712-0.816q0.016-1.008-0.512-1.648-0.512-0.656-1.424-0.656-0.512 0-0.912 0.208-0.384 0.192-0.656 0.512t-0.432 0.736q-0.144 0.416-0.192 0.848z"/>
  <path d="m104.13 13.659q-1.008 0-1.776-0.32-0.752-0.32-1.28-0.896-0.512-0.576-0.768-1.36-0.256-0.8-0.256-1.76 0-0.96 0.272-1.76 0.288-0.8 0.8-1.376 0.512-0.592 1.248-0.912 0.752-0.336 1.664-0.336 0.56 0 1.12 0.096t1.072 0.304l-0.336 1.264q-0.336-0.16-0.784-0.256-0.432-0.096-0.928-0.096-1.248 0-1.92 0.784-0.656 0.784-0.656 2.288 0 0.672 0.144 1.232 0.16 0.56 0.48 0.96 0.336 0.4 0.848 0.624 0.512 0.208 1.248 0.208 0.592 0 1.072-0.112t0.752-0.24l0.208 1.248q-0.128 0.08-0.368 0.16-0.24 0.064-0.544 0.112-0.304 0.064-0.656 0.096-0.336 0.048-0.656 0.048z"/>
  <path d="m109.35 5.1468h3.152v1.248h-3.152v3.84q0 0.624 0.096 1.04 0.096 0.4 0.288 0.64 0.192 0.224 0.48 0.32t0.672 0.096q0.672 0 1.072-0.144 0.416-0.16 0.576-0.224l0.288 1.232q-0.224 0.112-0.784 0.272-0.56 0.176-1.28 0.176-0.848 0-1.408-0.208-0.544-0.224-0.88-0.656t-0.48-1.056q-0.128-0.64-0.128-1.472v-7.424l1.488-0.256z"/>
  <path d="m115.87 13.467h-1.488v-8.32h1.488zm-0.752-9.824q-0.4 0-0.688-0.256-0.272-0.272-0.272-0.72t0.272-0.704q0.288-0.272 0.688-0.272t0.672 0.272q0.288 0.256 0.288 0.704t-0.288 0.72q-0.272 0.256-0.672 0.256z"/>
  <path d="m125.78 9.3068q0 0.992-0.288 1.792t-0.816 1.376q-0.512 0.576-1.232 0.896-0.72 0.304-1.568 0.304t-1.568-0.304q-0.72-0.32-1.248-0.896-0.512-0.576-0.8-1.376t-0.288-1.792q0-0.976 0.288-1.776 0.288-0.816 0.8-1.392 0.528-0.576 1.248-0.88 0.72-0.32 1.568-0.32t1.568 0.32q0.72 0.304 1.232 0.88 0.528 0.576 0.816 1.392 0.288 0.8 0.288 1.776zm-1.552 0q0-1.408-0.64-2.224-0.624-0.832-1.712-0.832t-1.728 0.832q-0.624 0.816-0.624 2.224 0 1.408 0.624 2.24 0.64 0.816 1.728 0.816t1.712-0.816q0.64-0.832 0.64-2.24z"/>
  <path d="m127.87 5.3868q0.512-0.128 1.36-0.272t1.952-0.144q0.992 0 1.648 0.288 0.656 0.272 1.04 0.784 0.4 0.496 0.56 1.2t0.16 1.552v4.672h-1.488v-4.352q0-0.768-0.112-1.312-0.096-0.544-0.336-0.88t-0.64-0.48q-0.4-0.16-0.992-0.16-0.24 0-0.496 0.016t-0.496 0.048q-0.224 0.016-0.416 0.048-0.176 0.032-0.256 0.048v7.024h-1.488z"/>
  <path d="m149.95 7.9148q0 1.44-0.448 2.512-0.448 1.056-1.264 1.76-0.816 0.688-1.952 1.04-1.136 0.336-2.496 0.336-0.672 0-1.488-0.064-0.8-0.048-1.456-0.208v-10.752q0.656-0.16 1.456-0.208 0.816-0.064 1.488-0.064 1.36 0 2.496 0.352 1.136 0.336 1.952 1.04 0.816 0.688 1.264 1.76 0.448 1.056 0.448 2.496zm-6.032 4.288q2.208 0 3.296-1.12 1.088-1.136 1.088-3.168t-1.088-3.152q-1.088-1.136-3.296-1.136-0.656 0-1.024 0.016-0.352 0.016-0.496 0.032v8.48q0.144 0.016 0.496 0.032 0.368 0.016 1.024 0.016z"/>
  <path d="m153.65 13.467h-1.488v-8.32h1.488zm-0.752-9.824q-0.4 0-0.688-0.256-0.272-0.272-0.272-0.72t0.272-0.704q0.288-0.272 0.688-0.272t0.672 0.272q0.288 0.256 0.288 0.704t-0.288 0.72q-0.272 0.256-0.672 0.256z"/>
  <path d="m159.03 12.395q0.528 0 0.928-0.016 0.416-0.032 0.688-0.096v-2.48q-0.16-0.08-0.528-0.128-0.352-0.064-0.864-0.064-0.336 0-0.72 0.048-0.368 0.048-0.688 0.208-0.304 0.144-0.512 0.416-0.208 0.256-0.208 0.688 0 0.8 0.512 1.12 0.512 0.304 1.392 0.304zm-0.128-7.456q0.896 0 1.504 0.24 0.624 0.224 0.992 0.656 0.384 0.416 0.544 1.008 0.16 0.576 0.16 1.28v5.2q-0.192 0.032-0.544 0.096-0.336 0.048-0.768 0.096t-0.944 0.08q-0.496 0.048-0.992 0.048-0.704 0-1.296-0.144t-1.024-0.448q-0.432-0.32-0.672-0.832t-0.24-1.232q0-0.688 0.272-1.184 0.288-0.496 0.768-0.8t1.12-0.448 1.344-0.144q0.224 0 0.464 0.032 0.24 0.016 0.448 0.064 0.224 0.032 0.384 0.064t0.224 0.048v-0.416q0-0.368-0.08-0.72-0.08-0.368-0.288-0.64-0.208-0.288-0.576-0.448-0.352-0.176-0.928-0.176-0.736 0-1.296 0.112-0.544 0.096-0.816 0.208l-0.176-1.232q0.288-0.128 0.96-0.24 0.672-0.128 1.456-0.128z"/>
  <path d="m167.06 13.627q-1.376-0.032-1.952-0.592t-0.576-1.744v-9.984l1.488-0.256v10q0 0.368 0.064 0.608t0.208 0.384 0.384 0.224q0.24 0.064 0.592 0.112z"/>
  <path d="m176.27 9.3068q0 0.992-0.288 1.792t-0.816 1.376q-0.512 0.576-1.232 0.896-0.72 0.304-1.568 0.304t-1.568-0.304q-0.72-0.32-1.248-0.896-0.512-0.576-0.8-1.376t-0.288-1.792q0-0.976 0.288-1.776 0.288-0.816 0.8-1.392 0.528-0.576 1.248-0.88 0.72-0.32 1.568-0.32t1.568 0.32q0.72 0.304 1.232 0.88 0.528 0.576 0.816 1.392 0.288 0.8 0.288 1.776zm-1.552 0q0-1.408-0.64-2.224-0.624-0.832-1.712-0.832t-1.728 0.832q-0.624 0.816-0.624 2.224 0 1.408 0.624 2.24 0.64 0.816 1.728 0.816t1.712-0.816q0.64-0.832 0.64-2.24z"/>
  <path d="m183.59 12.635q-0.192 0.128-0.752 0.336-0.544 0.192-1.28 0.192-0.752 0-1.424-0.24-0.656-0.24-1.152-0.736-0.496-0.512-0.784-1.264t-0.288-1.792q0-0.912 0.272-1.664 0.272-0.768 0.784-1.312 0.528-0.56 1.28-0.864 0.752-0.32 1.696-0.32 1.04 0 1.808 0.16 0.784 0.144 1.312 0.272v7.424q0 1.92-0.992 2.784t-3.008 0.864q-0.784 0-1.488-0.128-0.688-0.128-1.2-0.304l0.272-1.296q0.448 0.176 1.088 0.304 0.656 0.144 1.36 0.144 1.328 0 1.904-0.528 0.592-0.528 0.592-1.68zm-0.016-6.176q-0.224-0.064-0.608-0.112-0.368-0.064-1.008-0.064-1.2 0-1.856 0.784-0.64 0.784-0.64 2.08 0 0.72 0.176 1.232 0.192 0.512 0.496 0.848 0.32 0.336 0.72 0.496 0.416 0.16 0.848 0.16 0.592 0 1.088-0.16 0.496-0.176 0.784-0.4z"/>
  <path d="m198.39 2.3788h1.552v11.088h-1.552v-5.12h-5.424v5.12h-1.552v-11.088h1.552v4.624h5.424z"/>
  <path d="m202.13 9.3228q0-1.104 0.32-1.92 0.32-0.832 0.848-1.376t1.216-0.816 1.408-0.272q1.68 0 2.576 1.056 0.896 1.04 0.896 3.184 0 0.096 0 0.256 0 0.144-0.016 0.272h-5.696q0.096 1.296 0.752 1.968t2.048 0.672q0.784 0 1.312-0.128 0.544-0.144 0.816-0.272l0.208 1.248q-0.272 0.144-0.96 0.304-0.672 0.16-1.536 0.16-1.088 0-1.888-0.32-0.784-0.336-1.296-0.912t-0.768-1.36q-0.24-0.8-0.24-1.744zm5.712-0.816q0.016-1.008-0.512-1.648-0.512-0.656-1.424-0.656-0.512 0-0.912 0.208-0.384 0.192-0.656 0.512t-0.432 0.736q-0.144 0.416-0.192 0.848z"/>
  <path d="m214.61 4.9708q0.192 0 0.432 0.032 0.256 0.016 0.496 0.064 0.24 0.032 0.432 0.08 0.208 0.032 0.304 0.064l-0.256 1.296q-0.176-0.064-0.592-0.144-0.4-0.096-1.04-0.096-0.416 0-0.832 0.096-0.4 0.08-0.528 0.112v6.992h-1.488v-7.968q0.528-0.192 1.312-0.352 0.784-0.176 1.76-0.176z"/>
  <path d="m217.25 9.3228q0-1.104 0.32-1.92 0.32-0.832 0.848-1.376t1.216-0.816 1.408-0.272q1.68 0 2.576 1.056 0.896 1.04 0.896 3.184 0 0.096 0 0.256 0 0.144-0.016 0.272h-5.696q0.096 1.296 0.752 1.968t2.048 0.672q0.784 0 1.312-0.128 0.544-0.144 0.816-0.272l0.208 1.248q-0.272 0.144-0.96 0.304-0.672 0.16-1.536 0.16-1.088 0-1.888-0.32-0.784-0.336-1.296-0.912t-0.768-1.36q-0.24-0.8-0.24-1.744zm5.712-0.816q0.016-1.008-0.512-1.648-0.512-0.656-1.424-0.656-0.512 0-0.912 0.208-0.384 0.192-0.656 0.512t-0.432 0.736q-0.144 0.416-0.192 0.848z"/>
 </g>
</svg>
