<svg data-name="Layer 3" version="1.1" viewBox="0 0 128 128" xmlns="http://www.w3.org/2000/svg">
    <defs>
        <linearGradient id="linearGradient8271" x1="53.809" x2="112.34" y1="22.613" y2="241.07" gradientUnits="userSpaceOnUse">
            <stop stop-color="#fff" offset="0"/>
            <stop stop-color="#606060" offset="1"/>
        </linearGradient>
    </defs>
    <path d="m62.557 7.0156c-15.876 0.31367-31.451 7.702-41.748 19.789-8.5104 9.8551-13.525 22.687-13.789 35.719-0.34965 13.304 4.0691 26.714 12.463 37.066 9.0208 11.296 22.449 19.035 36.812 20.887 13.921 1.893 28.54-1.4831 40.072-9.5527 12.272-8.4709 21.097-21.883 23.695-36.598 2.5772-14.026-0.24735-29.018-8.0156-41.008-7.9981-12.522-21.025-21.79-35.574-24.941-1.7879-0.41199-3.928-0.75486-5.541-0.95312-2.7774-0.33568-5.5781-0.46963-8.375-0.4082zm-4.1055 10.949c2.0028 4.2758 4.0047 8.5524 6.0078 12.828 0.28131 0.53578 0.38411 1.3223 1.166 1.1602 2.6196 0.21506 5.1989 0.70858 7.7539 1.3125 3.5592-3.7005 7.0889-7.4297 10.678-11.102 2.0722 1.2163 4.1708 2.3866 6.2324 3.6211-1.3181 4.5096-2.6348 9.0196-3.9531 13.529-0.088 0.57727-0.66093 1.2682 0.0176 1.668 1.8487 1.9101 3.4883 3.9999 5.0137 6.1738 5.1206-0.42088 10.238-0.88582 15.361-1.2695 0.66517 2.0159 1.3632 4.0207 2.0215 6.0391l-15.146 3.2051c-2.0537-6.8496-6.5315-12.961-12.529-16.875-6.9939-4.6568-15.93-6.3108-24.105-4.3047-1.5978-4.9227-3.2175-9.8534-4.7734-14.738 1.3188-0.26554 2.6537-0.53979 3.9395-0.79297 0.53905-0.10847 1.3402-0.26442 1.7168-0.34375 0.19987-0.03711 0.39974-0.07422 0.59961-0.11133zm-27.264 13.34c3.4645 3.825 6.9072 7.6709 10.363 11.504-0.66884 0.70895-1.3019 1.4503-1.8965 2.2227-4.6705 5.924-6.9832 13.61-6.4316 21.127 0.41019 7.0574 3.5913 13.772 8.3203 18.963-3.4257 3.8754-6.9272 7.6861-10.379 11.539-1.4066-1.5987-2.8269-3.1857-4.2168-4.7988 2.6592-3.8194 5.3195-7.6394 7.9785-11.459 0.21987-0.52095 1.062-0.97977 0.61719-1.5664-1.1464-2.4434-2.0534-4.9841-2.8184-7.5703-4.9845-1.2267-9.9785-2.4152-14.953-3.6816 8e-4 -2.4121-0.0176-4.8244 8e-3 -7.2363 4.5285-1.1066 9.0576-2.2135 13.586-3.3203 0.51219-0.24454 1.4496-0.03234 1.5-0.77148 0.74482-2.5914 1.7428-5.0955 2.873-7.541-2.9208-4.2135-5.8758-8.4032-8.7617-12.641 0.97226-1.0992 1.9428-2.1997 2.9062-3.3066zm62.361 41.586c5.0713 1.0878 10.118 2.1295 15.184 3.2461-0.67634 2.0115-1.3401 4.0274-2.0391 6.0312-4.7121-0.39979-9.4246-0.79956-14.137-1.1992-0.60844-0.02725-1.3391-0.32428-1.5879 0.4375-1.4794 2.1689-3.202 4.1481-5.0078 6.0488 1.4146 4.9378 2.9124 9.8515 4.2871 14.801-1.0602 0.60758-2.1242 1.2089-3.1777 1.8281-0.99943 0.58528-2.0301 1.1739-3.1113 1.7774-3.232-3.3731-6.466-6.7453-9.6992-10.117-0.46866-0.32166-0.75608-1.2382-1.4219-0.91016-2.6122 0.65493-5.2762 1.0396-7.9551 1.2891-2.1867 4.6367-4.3412 9.2888-6.5644 13.908-2.081-0.4374-4.1716-0.82686-6.252-1.2676l4.7949-14.715c0.62185 0.14942 1.2507 0.27241 1.8809 0.38086 7.2951 1.2837 15.03-0.17682 21.33-4.0801 6.4299-3.8979 11.357-10.211 13.471-17.438z" fill-opacity=".66"/>
    <path d="m64 0a64 64 0 0 0-64 64 64 64 0 0 0 64 64 64 64 0 0 0 64-64 64 64 0 0 0-64-64zm-0.79102 6.0137c6.299-0.098549 12.606 0.8603 18.6 2.7969 0.67223 0.21627 1.5328 0.51257 2.0762 0.71094 11.786 4.2638 22.084 12.488 28.844 23.043 7.1697 11.027 10.385 24.552 8.9141 37.625-0.0532 0.57019-0.1703 1.3656-0.2168 1.7891-0.35232 2.4563-0.84046 4.8939-1.498 7.2871-0.13221 0.50903-0.35247 1.2413-0.45507 1.5957-0.43689 1.4152-0.90862 2.8208-1.4512 4.1992-5.0348 13.056-15.018 24.094-27.461 30.48-0.76427 0.38493-1.2814 0.64765-2.041 1-0.78948 0.37257-1.7679 0.77986-2.4629 1.0762-4.6574 1.9302-9.5742 3.2312-14.574 3.8711-11.793 1.5514-24.042-0.63537-34.551-6.2148-0.50165-0.25528-1.1857-0.65197-1.5527-0.84571-6.1319-3.4975-11.626-8.1115-16.119-13.557-8.6908-10.451-13.435-24.054-13.234-37.637 0.008228-0.892 0.037188-1.6115 0.083984-2.4434 0.015808-0.43474 0.074926-1.1639 0.10156-1.5293 0.43704-5.1966 1.5542-10.338 3.3594-15.232 0.45998-1.2233 0.86668-2.2524 1.3789-3.416 0.26872-0.61469 0.64794-1.4173 0.88281-1.9004 2.1679-4.4576 4.8922-8.6481 8.1191-12.412 0.3779-0.44891 0.9229-1.0584 1.2207-1.3867 8.5391-9.3928 20.246-15.825 32.748-18.014 0.61988-0.11427 1.4643-0.23394 1.9512-0.3125 2.4322-0.33429 4.8829-0.53318 7.3379-0.57422z" fill-opacity=".66"/>
    <ellipse cx="64.056" cy="63.703" rx="64.035" ry="63.635" fill="none"/>
    <path d="m62.912 3.5066c-4.5249 0.073163-9.0507 0.67162-13.424 1.7612-9.7612 2.4045-18.845 7.2552-26.266 14.036-4.1013 3.7473-7.7748 8.1516-10.708 12.928-4.9906 8.037-8.0368 17.371-8.8198 26.84-0.28876 3.7001-0.26348 7.5495 0.13593 11.267 0.95003 8.9972 3.9519 17.792 8.729 25.511 5.8183 9.3984 14.311 17.214 24.25 22.192 11.381 5.7496 24.667 7.7787 37.291 5.6077 9.4972-1.6078 18.779-5.5778 26.466-11.448 11.682-8.8241 19.916-21.937 22.754-36.293 1.4217-7.1018 1.5575-14.473 0.41173-21.583-1.2746-7.9799-4.2297-15.825-8.5669-22.626-6.9433-11.012-17.479-19.664-29.67-24.266-4.7502-1.8105-9.7252-3.0109-14.722-3.556-2.6242-0.29211-5.2106-0.40882-7.8605-0.37206zm-3.3032 10.687c1.154 0.01109 1.5455 1.2487 1.9313 2.1179 1.9302 4.0986 3.8433 8.2058 5.7669 12.308 1.6502 0.15443 3.2891 0.42403 4.9014 0.8084 3.5394-3.6705 7.0376-7.3883 10.619-11.014 0.95624-0.67978 1.998 0.13884 2.823 0.62647 2.6768 1.584 5.4237 3.0683 8.0437 4.7326 0.85875 0.84623 0.19569 2.0499-0.0487 3.0106-1.2544 4.2907-2.5089 8.5814-3.7633 12.872 1.1399 1.2056 2.1947 2.4915 3.1494 3.8488 5.0732-0.41311 10.148-0.88881 15.222-1.2436 1.078 0.08305 1.4325 1.2263 1.656 2.1043 0.97113 2.9723 2.0419 5.9138 2.9303 8.9095 0.12153 1.1118-1.059 1.7659-2.0299 1.7916-6.5982 1.3968-13.197 2.7921-19.795 4.1898-1.1561-6.3395-4.5297-12.274-9.5367-16.357-5.557-4.5999-12.96-6.9061-20.115-6.1462-2.2785 0.21382-4.5109 0.76811-6.68 1.4851-2.1906-6.7758-4.4359-13.534-6.5727-20.325-0.16049-1.0882 0.96961-1.8336 1.9474-1.8365 3.1828-0.62771 6.3591-1.3248 9.5511-1.8829zm-28.292 12.636c1.1894 0.18847 1.6897 1.4407 2.5138 2.1671 4.1924 4.6676 8.389 9.3315 12.592 13.99-3.6572 3.1106-6.5135 7.1559-8.154 11.672-1.8273 5.0293-2.1371 10.789-0.79533 16.046 1.3473 5.3764 4.7859 10.671 8.958 14.314 0 0-0.44816 0.38742-1.0948 1.1017-3.3663 3.8427-6.8434 7.6091-10.253 11.42-1.0668 1.1185-2.0288 2.3571-3.1591 3.4029-0.95886 0.56658-2.0319-0.19291-2.5392-1.0131-2.089-2.3879-4.2295-4.7382-6.2714-7.1628-0.60019-1.0082 0.30401-1.9806 0.8591-2.761l7.762-11.149c-0.69247-1.5095-1.2724-3.0691-1.7501-4.6591-4.9471-1.2259-9.915-2.3899-14.843-3.6763-1.06-0.48512-0.8807-1.7901-0.87036-2.7441 0.0158-3.0983-0.0418-6.2039 0.0375-9.2976 0.2288-1.1343 1.5227-1.2865 2.4547-1.4902 4.4058-1.0839 8.8157-2.1527 13.223-3.2308 0.47969-1.5896 1.0659-3.1466 1.7595-4.6554-2.8935-4.1879-5.8451-8.3425-8.6849-12.563-0.47365-1.0622 0.50345-1.9394 1.1589-2.6343 2.0374-2.2772 4.002-4.6307 6.1135-6.834 0.28871-0.18652 0.6406-0.28019 0.98291-0.24383zm60.121 42.028c6.8447 1.4849 13.712 2.8786 20.545 4.4059 0.46955 0.10027 0.46118 0.82625 1.0035 0.69066 0.30017 0.23086-0.28575 1.0413-0.33498 1.501-1.0827 3.1966-2.1173 6.4161-3.2609 9.5874-0.57327 0.99228-1.8381 0.73964-2.7785 0.63126-4.5288-0.37743-9.0572-0.76962-13.586-1.1527-0.9562 1.3569-2.008 2.6468-3.1551 3.847 1.4087 4.904 2.9086 9.7889 4.2393 14.711 0.0822 1.1944-1.1866 1.6723-2.0352 2.1626-2.6939 1.5157-5.3375 3.1471-8.0741 4.5699-1.1612 0.32624-1.8788-0.85833-2.5857-1.5481-3.0964-3.2299-6.1927-6.4598-9.2891-9.6898-1.6142 0.38483-3.255 0.65402-4.907 0.80841-2.1747 4.5952-4.3004 9.2198-6.5277 13.786-0.6864 0.95303-1.9486 0.54325-2.8906 0.33011-3.0022-0.64924-6.052-1.1403-9.0198-1.9083-0.96572-0.49111-0.91059-1.7898-0.46284-2.6221 2.0884-6.4102 4.1777-12.82 6.2656-19.23 5.8739 2.1145 12.529 2.2227 18.381 0.1313 7.0939-2.4629 13.112-7.9239 16.08-14.841 0.88552-2.0056 1.5008-4.1219 1.9221-6.2712 0.15694 0.03377 0.31388 0.06752 0.47083 0.10129z" fill="url(#linearGradient8271)"/>
    <g transform="translate(0,-40)" stroke-width="4">
        <path class="ColorScheme-Text" d="m95.198 164.27c-12.231-0.53916-23.064-9.0272-26.437-20.713-0.86554-2.9989-1.1339-5.2029-1.0504-8.6269 0.11016-4.5181 1.0121-8.0803 3.05-12.047 4.8408-9.4213 14.232-15.35 24.999-15.782 5.6495-0.2268 11.354 1.2504 16.342 4.2315 3.4299 2.0498 7.1494 5.6451 9.316 9.0047 2.1582 3.3465 3.6076 7.1573 4.2394 11.146 0.3288 2.0752 0.3568 6.1874 0.0552 8.1042-1.0244 6.5128-3.7569 11.883-8.3312 16.374-4.3239 4.2449-9.708 6.9632-15.837 7.9958-1.672 0.2816-4.2057 0.4062-6.346 0.312z" color="#232629" fill="#cbcb00"/>
        <path class="ColorScheme-Text" d="m96.38 103.71c-17.673 0-32 14.327-32 32s14.327 32 32 32c17.673 0 32-14.327 32-32s-14.327-32-32-32zm0 4c15.464 0 28 12.536 28 28s-12.536 28-28 28c-15.464-1e-5 -28-12.536-28-28s12.536-28 28-28zm-12 12.148c-0.96252 0-1.1429 0.032-1.6953 0.3048-0.78698 0.3864-1.4886 1.088-1.875 1.875-0.26804 0.54584-0.30468 0.73712-0.30468 1.6406 0 0.87976 0.0372 1.1045 0.28124 1.625 0.51297 1.094 1.4432 1.9012 2.5625 2.2187 0.28772 0.0816 0.81766 0.12 1.2734 0.0936 1.4469-0.0836 2.6312-0.8826 3.2812-2.2031 0.32036-0.65076 0.35156-0.79584 0.35156-1.7344 0-0.906-0.0364-1.0945-0.30468-1.6406-0.38644-0.78696-1.088-1.4886-1.875-1.875-0.55244-0.2712-0.73279-0.3048-1.6953-0.3048zm24 0c-0.96252 0-1.1429 0.032-1.6953 0.3048-0.787 0.3864-1.4886 1.088-1.875 1.875-0.268 0.54584-0.3048 0.73712-0.3048 1.6406 0 0.87976 0.036 1.1045 0.2812 1.625 0.51296 1.094 1.4432 1.9012 2.5625 2.2187 0.2876 0.0816 0.81768 0.12 1.2734 0.0936 1.4469-0.0836 2.6312-0.8826 3.2812-2.2031 0.3204-0.65076 0.3516-0.79584 0.3516-1.7344 0-0.906-0.036-1.0945-0.3048-1.6406-0.3864-0.78696-1.088-1.4886-1.875-1.875-0.55244-0.2712-0.73276-0.3048-1.6953-0.3048zm-27.289 23.945 0.07032 0.2968c0.0392 0.1628 0.20976 0.6646 0.375 1.1172 1.9759 5.4122 6.787 9.38 12.422 10.25 4.1247 0.63684 8.567-0.4598 11.836-2.9297 1.4078-1.0637 2.9711-2.7562 3.9531-4.2812 0.65176-1.0121 1.6118-3.1634 1.8516-4.1562l0.0704-0.2968h-15.289z" color="#232629" fill="#232629"/>
    </g>
</svg>
