<svg data-name="Layer 3" version="1.1" viewBox="0 0 128 128" xmlns="http://www.w3.org/2000/svg">
 <defs>
  <linearGradient id="linearGradient50674" x1="101.99" x2="89.75" y1="116.28" y2="73.212" gradientTransform="translate(-34.839 -12.64)" gradientUnits="userSpaceOnUse">
   <stop stop-color="#a86514" offset="0"/>
   <stop stop-color="#f7a440" offset="1"/>
  </linearGradient>
 </defs>
 <path d="m63.999 2.4427c-33.996 0-61.556 27.559-61.556 61.555 0 33.996 27.56 61.559 61.556 61.559 33.997 0 61.558-27.563 61.558-61.559 0-33.996-27.561-61.555-61.558-61.555zm-3.6078 14.604c0.40605 0.06817 0.76218 0.33831 0.9299 0.73452l4.8994 11.57c2.6056 0.16443 5.1329 0.61659 7.5509 1.3244l8.555-9.1909c0.39098-0.41993 1.0202-0.51417 1.5169-0.2273l7.2523 4.1874c0.49678 0.28687 0.73002 0.87834 0.5617 1.4268l-3.6848 12.014c1.8491 1.7654 3.503 3.7335 4.9275 5.8677l12.467-1.5423c0.5694-0.07041 1.1113 0.26216 1.3075 0.80121l2.8911 7.9436c0.18033 0.49582-5e-3 1.0495-0.44712 1.3366l-18.476 6.6511c-0.7358 0.26498-1.5274-0.21592-1.6813-0.9825-2.3382-11.648-12.626-20.421-24.963-20.421-2.7956 0-5.4861 0.45046-8.0028 1.2831-0.74158 0.24546-1.5495-0.20345-1.6841-0.9731l-3.3195-18.969c-0.11732-0.66915 0.32951-1.306 0.99847-1.424l7.983-1.408c0.14126-0.02492 0.28168-0.02462 0.41703-0.0019zm-28.591 13.119c0.12506 0.01649 0.24892 0.05464 0.36633 0.1146l14.998 12.675c0.5972 0.50467 0.57756 1.4306-0.01 1.9471-8.918 7.8487-11.373 21.144-5.2046 31.828 1.3979 2.4214 3.1332 4.5264 5.1126 6.2895 0.58345 0.51987 0.5983 1.4446-9.6e-4 1.9462l-14.767 12.359c-0.52092 0.43571-1.2973 0.36725-1.7339-0.1531l-5.2102-6.2096c-0.36871-0.43956-0.38513-1.0751-0.0394-1.5329l7.5707-10.028c-1.1602-2.3382-2.032-4.7532-2.6281-7.2015l-12.237-2.8132c-0.55905-0.1284-0.95526-0.62668-0.95526-1.2004v-8.3738c0-0.57373 0.39621-1.0715 0.95526-1.2004l12.246-2.8151c0.60437-2.4844 1.4807-4.901 2.6169-7.2015l-7.5688-10.026c-0.34569-0.45783-0.32926-1.0935 0.0394-1.5329l5.4347-6.4764c0.25421-0.30298 0.63925-0.44402 1.0144-0.3945zm58.275 37.95c0.18005-0.01876 0.36695 0.0014 0.55042 0.06857l18.087 6.6098c0.63817 0.23324 0.96681 0.93889 0.73452 1.5771l-2.7728 7.6167c-0.19623 0.5391-0.73858 0.87143-1.3075 0.80121l-12.47-1.5423c-1.4447 2.1742-3.1002 4.1367-4.9219 5.8771l3.682 12.004c0.16784 0.54824-0.0649 1.1402-0.5617 1.4268l-7.2532 4.1873c-0.49678 0.28712-1.126 0.19254-1.517-0.22731l-8.5607-9.1975c-2.4536 0.71849-4.9854 1.1674-7.5462 1.3338l-4.8974 11.567c-0.22363 0.52852-0.78186 0.83219-1.3469 0.73264l-8.3259-1.4681c-0.51891-0.0919-0.90672-0.52916-0.93367-1.0558l3.4773-19.326c0.13851-0.76947 0.95106-1.2147 1.6917-0.96465 11.256 3.7988 23.998-0.72414 30.166-11.408 1.398-2.4214 2.353-4.9766 2.8902-7.5725 0.11866-0.57385 0.5954-0.98444 1.1356-1.0407z" fill="#fff" stroke="#3f4f69" stroke-width="3"/>
 <g transform="translate(19.057 13.769)">
  <circle cx="76.475" cy="81.763" r="30" fill="url(#linearGradient50674)" stroke-width="1.2744" style="paint-order:markers fill stroke"/>
  <path class="ColorScheme-Text" d="m76.475 49.763c-17.673 0-32 14.327-32 32s14.327 32 32 32c17.673 0 32-14.327 32-32s-14.327-32-32-32zm0 4c15.464 0 28 12.536 28 28s-12.536 28-28 28c-15.464-1e-5 -28-12.536-28-28s12.536-28 28-28z" color="#232629" fill="#3f4f69" stroke-width="4"/>
  <path d="m80.5 77.51-20.422-12.21 12.336 20.68 20.466 12.238zm-1.5137 1.7401a3.816 3.5523 45 0 1 0.18644 5.2108 3.816 3.5523 45 0 1-5.2108-0.18644 3.816 3.5523 45 0 1-0.18506-5.2094 3.816 3.5523 45 0 1 5.2094 0.18506z" fill="#3f4f69"/>
 </g>
</svg>
