<svg data-name="Layer 3" version="1.1" viewBox="0 0 128 128" xmlns="http://www.w3.org/2000/svg">
  <defs>
    <linearGradient id="linearGradient56427" x1="-39.260426" x2="-72.077232" y1="60.846931" y2="110.35937" gradientTransform="translate(-15.580649,1.129032)" gradientUnits="userSpaceOnUse">
      <stop stop-color="#a86514" offset="0"/>
      <stop stop-color="#f7a440" offset="1"/>
    </linearGradient>
  </defs>
  <path d="m62.745474 0.0186222c-18.717229 0.2740886-37.106167 9.3153846-48.70998 24.01331-9.817193 12.217886-14.934708 28.138302-13.903181 43.792346 0.855772 14.398928 6.684213 28.486399 16.441597 39.135342 10.695407 11.78443 25.870091 19.50091 41.768459 20.78351 15.40086 1.3774 31.30152-2.96304 43.686071-12.2678 12.66738-9.34334 21.76805-23.473445 24.7493-38.95443 3.28105-16.429416-0.1041-34.152755-9.53449-48.040795-8.29186-12.411528-21.003881-21.857193-35.388841-25.93318-6.192916-1.8017446-12.660587-2.652938-19.108935-2.528303z" fill="#ecf0f9"/>
  <path d="m63.999077 3.5000059c-33.412544 0-60.499076 27.085902-60.499076 60.498149 0 33.411971 27.086532 60.501835 60.499076 60.501835 33.413392 0 60.500923-27.089864 60.500923-60.501835 0-33.412247-27.087531-60.498149-60.500923-60.498149zm-3.545848 14.35324c0.39907 0.067 0.749086 0.332498 0.913925 0.721908l4.815186 11.371444c2.560839 0.161601 5.044738 0.606 7.421256 1.301651l8.408113-9.033088c0.38427-0.412722 1.00264-0.505343 1.4909-0.223403l7.1277 4.115432c0.48825 0.28194 0.71748 0.863259 0.55204 1.402275l-3.62155 11.807174c1.81736 1.735115 3.44288 3.669365 4.84288 5.76696l12.253071-1.515822c0.55962-0.0692 1.0922 0.257653 1.28502 0.787452l2.84149 7.807137c0.17724 0.487308-5e-3 1.031478-0.43944 1.313654l-18.158481 6.536868c-0.72316 0.260434-1.5012-0.212209-1.65244-0.965621-2.29806-11.447553-12.408815-20.070349-24.533822-20.070349-2.747554 0-5.391884 0.442724-7.865297 1.261031-0.728833 0.241244-1.522872-0.199952-1.655222-0.956391l-3.262439-18.643148c-0.115314-0.657653 0.323858-1.283564 0.98132-1.399505l7.84591-1.383814c0.138841-0.02447 0.276857-0.02417 0.40988-0.0017zm-28.099962 12.893729c0.12291 0.01623 0.24464 0.05371 0.360021 0.112626l14.740048 12.457077c0.586945 0.496004 0.567644 1.406025-0.0096 1.913703-8.764826 7.713932-11.177538 20.78112-5.115207 31.281165 1.373915 2.379824 3.079344 4.448701 5.024745 6.18146 0.573425 0.510939 0.588004 1.419797-9.5e-4 1.912776l-14.512944 12.146897c-0.511974 0.428228-1.274974 0.360939-1.70414-0.150474l-5.120729-6.102989c-0.362385-0.432008-0.378519-1.056624-0.03879-1.506593l7.440645-9.855619c-1.140396-2.298049-1.997201-4.67155-2.583013-7.077842l-12.026881-2.764855c-0.549465-0.126199-0.938855-0.615913-0.938855-1.179793v-8.229943c0-0.563878 0.38939-1.053125 0.938855-1.179792l12.03611-2.766702c0.593994-2.441743 1.455226-4.816845 2.57192-7.077843l-7.438799-9.853775c-0.339751-0.449969-0.323608-1.074679 0.03879-1.506592l5.341382-6.365167c0.249846-0.297772 0.628278-0.436399 0.997011-0.387725zm57.274482 37.2983c0.17698-0.01844 0.36065 0.0014 0.54097 0.0674l17.776311 6.496254c0.62722 0.229238 0.95021 0.922767 0.7219 1.54998l-2.72516 7.485879c-0.19282 0.529847-0.72587 0.856463-1.28502 0.787454l-12.255831-1.515832c-1.41986 2.136877-3.04693 4.065652-4.83734 5.776194l3.61877 11.797926c0.16496 0.53884-0.0638 1.12059-0.55204 1.40229l-7.12862 4.11541c-0.48826 0.28218-1.10664 0.18923-1.4909-0.22339l-8.413655-9.03954c-2.411493 0.706148-4.899741 1.14734-7.416638 1.31088l-4.813342 11.36865c-0.219778 0.51947-0.768436 0.81791-1.323805 0.72007l-8.182857-1.44289c-0.509996-0.0902-0.891155-0.52006-0.917621-1.03762l3.417529-18.993943c0.136124-0.756251 0.934715-1.193864 1.662606-0.948083 11.062963 3.733512 23.585823-0.711697 29.648093-11.211735 1.37401-2.379815 2.3126-4.891101 2.84056-7.442489 0.11662-0.563997 0.58518-0.967537 1.11609-1.022861z" fill="#0064ff"/>
  <g transform="translate(158)">
    <path d="m-40.589844 52.673828c-1.010201 0.168048-1.304858 1.332255-1.918843 2.003202-4.890733 6.94963-9.783478 13.897848-14.672954 20.848361-1.828253-0.685039-3.847606-0.724316-5.711435-0.155923-3.957619 1.130505-7.086223 4.202963-9.028388 7.748712-3.789457 6.03144-9.914226 10.17155-16.317139 13.03273-4.329183 1.95272-8.888433 3.32227-13.464517 4.55807-0.8683 0.39303-0.9536 1.63959-0.26106 2.24874 3.113512 4.47462 6.869478 8.60223 11.237618 11.92314 1.056946 0.54623 1.886064-0.59469 2.704832-1.07471 0.645197-0.52434 1.394674-0.88286 2.119386-1.28076-0.483275 1.23155-1.270111 2.29559-1.927734 3.42969-0.309188 0.83617 0.385928 1.57667 1.121129 1.85593 3.748672 2.21702 7.623308 4.26828 11.724574 5.75344 1.082171 0.16914 1.662527-0.98158 2.426238-1.52925 0.525922-0.57687 1.215983-0.93695 1.870637-1.34379-0.207523 0.7961-0.582923 1.52131-0.903414 2.26387-0.167955 0.85145 0.591719 1.55348 1.400903 1.61443 3.886754 1.10791 7.808841 2.45353 11.895089 2.44201 1.0864-0.2265 1.273867-1.52438 1.852742-2.30088 4.995695-8.91385 10.035799-17.80839 15.004313-26.73391 1.820308-3.71367 2.332721-8.39509 0.233993-12.10696-0.515137-0.9195-1.222484-1.71569-2.016829-2.40317 3.860935-8.293643 7.739651-16.579944 11.587891-24.878909 0.302108-0.859726-0.44429-1.567345-1.186137-1.836031-2.449128-1.332485-4.857694-2.754166-7.33164-4.032148-0.140992-0.04675-0.292082-0.05152-0.439255-0.04588z" fill="url(#linearGradient56427)"/>
    <path d="m-40.63439 52.17473c-0.48815 0.04944-0.94951 0.320398-1.23091 0.722605l-15.519016 22.048008c-0.92668-0.297745-1.875283-0.498578-2.836308-0.481677-4.482699 0.07929-9.023669 3.093053-11.692935 7.679323-6.750488 11.597287-21.927537 15.947305-29.781091 18.034571-1.06008 0.27221-1.60559 1.71743-0.98996 2.62198 3.445992 4.97877 6.8866 8.74553 11.478976 12.36215 0.581283 0.47125 1.482247 0.49445 2.08709 0.0535l2.113875-1.52504-1.150519 1.79277c-0.48564 0.76791-0.215763 1.91178 0.561866 2.38158 3.901417 2.37117 8.333781 4.68067 12.281777 6.1275 0.584344 0.21108 1.281049 0.0719 1.739173-0.34809l1.980108-1.81937-0.321119 0.56187c-0.508458 0.88981 0.0094 2.19101 0.990143 2.48839 4.521013 1.34363 8.73905 2.64878 12.468952 2.64878 0.607892 0 1.203739-0.35079 1.498425-0.88281l15.385263-27.372935c6e-3 -0.0106 0.0207-0.01637 0.0266-0.02661 1.76561-3.048279 2.46843-6.420198 2.11405-9.472257-0.29109-2.506016-1.37095-4.824323-3.18402-6.421822l11.39843-24.456212c0.36175-0.776546 0.0266-1.805525-0.72242-2.220857l-7.7063-4.281155c-0.29864-0.16829-0.64871-0.243984-0.99014-0.214138zm0.66902 3.960216 4.97679 2.756114-10.51563 22.556653-8.749655-5.00376zm-20.202034 21.753858c0.971268-0.01726 1.834473 0.194901 2.568773 0.615447 0.06888 0.04063 11.902761 6.803351 11.987441 6.849918 1.5121 0.864287 2.49469 2.565888 2.75594 4.816412 0.2082 1.793658-0.0983 3.857911-0.93657 5.859951l-24.21546-13.619645c2.183462-2.797287 5.348071-4.478032 7.839876-4.522083zm-9.686041 7.384997 24.482825 13.780026-14.020591 24.911103c-2.302664-0.15032-5.217718-0.86069-8.455327-1.79277l4.869989-8.34834c0.376493-0.69707 0.185009-1.65054-0.431879-2.14768-0.616887-0.49715-1.589404-0.48222-2.190643 0.034l-9.445116 8.66928c-2.941122-1.15771-6.182157-2.81257-9.25813-4.60245l5.030378-7.8931c0.429348-0.66795 0.308709-1.63544-0.271137-2.17717-0.579846-0.54226-1.553269-0.59728-2.190656-0.12388l-8.294772 6.02033c-3.182588-2.62989-5.805111-5.4599-8.32156-8.83003 8.083331-2.22408 21.252591-6.522852 28.496619-17.499303z" fill="#1d2430" stroke-width=".0179797"/>
  </g>
</svg>
