<svg data-name="Layer 3" version="1.1" viewBox="0 0 128 128" xmlns="http://www.w3.org/2000/svg" xmlns:xlink="http://www.w3.org/1999/xlink">
  <defs>
    <linearGradient id="a-2" x2="0" y1="543.79999" y2="512.79999" gradientUnits="userSpaceOnUse">
      <stop stop-color="#cea476" offset="0"/>
      <stop stop-color="#dab58b" offset="1"/>
    </linearGradient>
    <linearGradient id="d-9" x2="0" y1="512.79999" y2="503.79999" gradientTransform="matrix(1.3749995,0,0,1.3749996,-377.18993,-693.52093)" gradientUnits="userSpaceOnUse" xlink:href="#a-2"/>
    <linearGradient id="b-3" x2="0" y1="512.79999" y2="503.79999" gradientUnits="userSpaceOnUse">
      <stop stop-color="#ebc69a" offset="0"/>
      <stop stop-color="#f4e0c8" stop-opacity="0" offset="1"/>
    </linearGradient>
    <linearGradient id="c-6" x2="0" y1="512.79999" y2="503.79999" gradientTransform="matrix(1.3749995,0,0,1.3749996,-377.18993,-716.67866)" gradientUnits="userSpaceOnUse" xlink:href="#b-3"/>
    <linearGradient id="e-2" x1="399.57001" x2="417.57001" y1="516.79999" y2="534.79999" gradientTransform="matrix(1.3749995,0,0,1.3749996,-377.18993,-693.52093)" gradientUnits="userSpaceOnUse">
      <stop stop-color="#292c2f" offset="0"/>
      <stop stop-opacity="0" offset="1"/>
    </linearGradient>
    <linearGradient id="linearGradient9018" x2="0" y1="543.79999" y2="512.79999" gradientTransform="matrix(1.3749995,0,0,1.3749996,-377.18993,-693.52093)" gradientUnits="userSpaceOnUse" xlink:href="#a-2"/>
    <linearGradient id="linearGradient9020" x2="0" y1="512.79999" y2="503.79999" gradientTransform="matrix(1.3749995,0,0,1.3749996,-377.18993,-693.52093)" gradientUnits="userSpaceOnUse" xlink:href="#b-3"/>
    <linearGradient id="linearGradient10068" x1="188.89662" x2="188.58113" y1="111.17887" y2="50.539684" gradientTransform="translate(60,-55)" gradientUnits="userSpaceOnUse">
      <stop stop-color="#232629" offset="0"/>
      <stop stop-color="#17181b" offset="1"/>
    </linearGradient>
  </defs>
  <path d="m62.861861 1.0068349c-4.711489 0.076185-9.423865 0.6993598-13.977752 1.8339349-10.163647 2.5038512-19.621923 7.5548912-27.349526 14.61612-4.270419 3.902055-8.09534 8.488256-11.149388 13.462261-5.196398 8.369014-8.368132 18.088214-9.18349 27.949012-0.300664 3.852906-0.274352 7.861353 0.141538 11.731945 0.9892 9.368818 4.114854 18.527041 9.088931 26.56493 6.058228 9.786642 14.901424 17.925512 25.250386 23.108432 11.85054 5.98707 25.683982 8.09996 38.828492 5.83933 9.888834-1.67423 19.553458-5.80824 27.557308-11.92113 12.16392-9.18858 20.73707-22.842889 23.69275-37.791647 1.4803-7.395176 1.62176-15.07103 0.42871-22.474276-1.32718-8.309482-4.40412-16.478571-8.92016-23.560769-7.22958-11.466356-18.19972-20.476447-30.89391-25.26782-4.946115-1.885242-10.126176-3.1352786-15.329277-3.7028975-2.73237-0.3041714-5.425398-0.42570688-8.184612-0.3874254zm-3.439453 11.128906c1.201636 0.01155 1.609215 1.300271 2.010944 2.205431 2.009813 4.267845 4.001733 8.544737 6.004681 12.816053 1.718265 0.160806 3.424693 0.441542 5.103516 0.841797 3.685326-3.822137 7.327827-7.693437 11.05664-11.46875 0.995666-0.707864 2.080381 0.144574 2.939451 0.652344 2.78719 1.649479 5.64734 3.195082 8.3754 4.928133 0.89416 0.881186 0.20376 2.134552-0.0507 3.134926-1.30616 4.467912-2.61232 8.935825-3.91849 13.403738 1.18687 1.255404 2.28516 2.594435 3.2793 4.007812 5.28241-0.430172 10.56679-0.925521 15.84961-1.294922 1.12246 0.08648 1.49153 1.276986 1.72429 2.191217 1.01118 3.09512 2.12614 6.158068 3.0511 9.277533 0.12654 1.157772-1.10267 1.838871-2.11363 1.865632-6.87029 1.454479-13.74089 2.907473-20.61098 4.362884-1.20376-6.601383-4.71648-12.781057-9.929976-17.033149-5.78611-4.789934-13.494415-7.191365-20.94466-6.400031-2.372494 0.222653-4.696893 0.799833-6.955442 1.546461-2.280894-7.055702-4.61877-14.093538-6.84371-21.164062-0.167109-1.13318 1.009585-1.909376 2.027702-1.912406 3.314011-0.653641 6.621352-1.379568 9.944954-1.960641zm-29.458984 13.158203c1.238392 0.196256 1.759401 1.500212 2.617421 2.256651 4.365303 4.86041 8.734862 9.716996 13.111094 14.567568-3.808004 3.239056-6.782058 7.451522-8.490234 12.154297-1.902645 5.237065-2.225229 11.234827-0.828125 16.708984 1.402881 5.598512 4.983271 11.11136 9.327426 14.905506 0 0-0.46664 0.403422-1.139926 1.147233-3.50514 4.001432-7.125593 7.923404-10.675484 11.892086-1.110815 1.164711-2.112416 2.454451-3.28936 3.543461-0.998395 0.58998-2.115645-0.20088-2.643868-1.05497-2.175166-2.486578-4.403871-4.933866-6.52996-7.458703-0.624936-1.049859 0.316551-2.06237 0.894531-2.875l8.082031-11.609374c-0.721022-1.57182-1.324815-3.195836-1.822265-4.851567-5.151098-1.276489-10.323813-2.488632-15.455078-3.828125-1.10373-0.505163-0.917023-1.864075-0.90625-2.857422 0.01647-3.226288-0.04348-6.460166 0.03906-9.68164 0.238236-1.181172 1.585467-1.33965 2.555929-1.551779 4.587503-1.128687 9.179184-2.2416 13.76829-3.364237 0.499476-1.655251 1.109816-3.276614 1.832031-4.847656-3.012817-4.360843-6.086106-8.687075-9.042969-13.082032-0.493175-1.106084 0.524213-2.01956 1.206673-2.743061 2.12138-2.371279 4.166992-4.821957 6.365593-7.116314 0.300611-0.194228 0.667006-0.29176 1.023438-0.253906zm62.599616 43.763672c7.1269 1.546208 14.27699 2.997536 21.39257 4.587891 0.48892 0.104414 0.4802 0.860381 1.0449 0.71919 0.31255 0.240392-0.29753 1.084326-0.34879 1.563031-1.12737 3.328666-2.20465 6.681085-3.39533 9.983404-0.59691 1.033269-1.91386 0.770194-2.89307 0.657333-4.71554-0.393023-9.43062-0.801404-14.14599-1.200302-0.99563 1.412996-2.09082 2.756078-3.28516 4.005859 1.4668 5.106559 3.0285 10.193288 4.41407 15.318358 0.0856 1.24375-1.23551 1.74134-2.11914 2.25195-2.80499 1.5783-5.55754 3.27713-8.407052 4.75865-1.209141 0.33972-1.956298-0.89378-2.69229-1.61201-3.224049-3.36333-6.448098-6.72666-9.672147-10.09-1.680708 0.40073-3.389185 0.68103-5.109375 0.8418-2.26437 4.78503-4.477717 9.60068-6.796875 14.35547-0.714708 0.9924-2.0289 0.56569-3.009765 0.34375-3.125998-0.67606-6.301566-1.18737-9.391664-1.98714-1.005544-0.51139-0.948142-1.86374-0.481926-2.73037 2.174559-6.67492 4.349929-13.349584 6.52398-20.024677 6.116074 2.201878 13.045174 2.314517 19.138672 0.136719 7.386438-2.564613 13.652482-8.251229 16.742802-15.454158 0.92204-2.088442 1.56274-4.292166 2.00134-6.530217 0.16341 0.03516 0.32682 0.07031 0.49024 0.105469z" fill="#0079c1" stroke="#80cfff"/>
  <g transform="translate(-148.76669,69.553983)">
    <path d="m223.06668-4.653983-9.29999 13.949981v48.049992h61.99999v-48.049992l-7.75001-13.949981z" fill="url(#linearGradient10068)"/>
    <g transform="translate(60.473045 -.65785048)">
      <rect x="157.09366" y="11.57885" width="54.999981" height="42.624989" fill="url(#linearGradient9018)" stroke-opacity=".55" stroke-width="3.85"/>
      <path d="m157.09364 11.578867 8.24999-12.374996h39.87499l6.875 12.374996z" fill="url(#d-9)" fill-rule="evenodd" stroke-width="1.375"/>
      <path d="m188.71863 11.578867 23.37499 23.374993v19.249994h-23.37499z" fill="url(#e-2)" fill-rule="evenodd" opacity=".2" stroke-width="1.375"/>
      <rect x="157.09366" y="52.828835" width="54.999981" height="1.3749996" fill="#9f8569" stroke-opacity=".55" stroke-width="3.85"/>
      <g stroke-width="1.375">
        <path d="m180.46863-0.7961294v54.999983l1.375-1.375 1.375 1.375 1.375-1.375 1.375 1.375 1.375-1.375 1.375 1.375v-54.999983z" fill="#f4e0c8"/>
        <rect x="180.46864" y="-.79614604" width="8.2499971" height="12.374996" fill="url(#linearGradient9020)"/>
        <rect transform="scale(1,-1)" x="180.46864" y="-23.953846" width="8.2499971" height="12.374996" fill="url(#c-6)"/>
      </g>
    </g>
  </g>
</svg>
