<svg data-name="Layer 3" version="1.1" viewBox="0 0 128 128" xmlns="http://www.w3.org/2000/svg">
    <path d="m62.861861 1.0068349c-4.711489 0.076185-9.423865 0.6993598-13.977752 1.8339349-10.163647 2.5038512-19.621923 7.5548912-27.349526 14.61612-4.270419 3.902055-8.09534 8.488256-11.149388 13.462261-5.196398 8.369014-8.368132 18.088214-9.18349 27.949012-0.300664 3.852906-0.274352 7.861353 0.141538 11.731945 0.9892 9.368818 4.114854 18.527041 9.088931 26.56493 6.058228 9.786642 14.901424 17.925512 25.250386 23.108432 11.85054 5.98707 25.683982 8.09996 38.828492 5.83933 9.888834-1.67423 19.553458-5.80824 27.557308-11.92113 12.16392-9.18858 20.73707-22.842889 23.69275-37.791647 1.4803-7.395176 1.62176-15.07103 0.42871-22.474276-1.32718-8.309482-4.40412-16.478571-8.92016-23.560769-7.22958-11.466356-18.19972-20.476447-30.89391-25.26782-4.946115-1.885242-10.126176-3.1352786-15.329277-3.7028975-2.73237-0.3041714-5.425398-0.42570688-8.184612-0.3874256zm-3.439453 11.128906c1.201636 0.01155 1.609215 1.300271 2.010944 2.205431 2.009813 4.267845 4.001733 8.544737 6.004681 12.816053 1.718265 0.160806 3.424693 0.441542 5.103516 0.841797 3.685326-3.822137 7.327827-7.693437 11.05664-11.46875 0.995666-0.707864 2.080381 0.144574 2.939451 0.652344 2.78719 1.649479 5.64734 3.195082 8.3754 4.928133 0.89416 0.881186 0.20376 2.134552-0.0507 3.134926-1.30616 4.467912-2.61232 8.935825-3.91849 13.403738 1.18687 1.255404 2.28516 2.594435 3.2793 4.007812 5.28241-0.430172 10.56679-0.925521 15.84961-1.294922 1.12246 0.08648 1.49153 1.276986 1.72429 2.191217 1.01118 3.09512 2.12614 6.158068 3.0511 9.277533 0.12654 1.157772-1.10267 1.838871-2.11363 1.865632-6.87029 1.454479-13.74089 2.907473-20.61098 4.362884-1.20376-6.601383-4.71648-12.781057-9.929976-17.033149-5.78611-4.789934-13.494415-7.191365-20.94466-6.400031-2.372494 0.222653-4.696893 0.799833-6.955442 1.546461-2.280894-7.055702-4.61877-14.093538-6.84371-21.164062-0.167109-1.13318 1.009585-1.909376 2.027702-1.912406 3.314011-0.653641 6.621352-1.379568 9.944954-1.960641zm-29.458984 13.158203c1.238392 0.196256 1.759401 1.500212 2.617421 2.256651 4.365303 4.86041 8.734862 9.716996 13.111094 14.567568-3.808004 3.239056-6.782058 7.451522-8.490234 12.154297-1.902645 5.237065-2.225229 11.234827-0.828125 16.708984 1.402881 5.598512 4.983271 11.11136 9.327426 14.905506 0 0-0.46664 0.403422-1.139926 1.147233-3.50514 4.001432-7.125593 7.923404-10.675484 11.892086-1.110815 1.164711-2.112416 2.454451-3.28936 3.543461-0.998395 0.58998-2.115645-0.20088-2.643868-1.05497-2.175166-2.486578-4.403871-4.933866-6.52996-7.458703-0.624936-1.049859 0.316551-2.06237 0.894531-2.875l8.082031-11.609374c-0.721022-1.57182-1.324815-3.195836-1.822265-4.851567-5.151098-1.276489-10.323813-2.488632-15.455078-3.828125-1.10373-0.505163-0.917023-1.864075-0.90625-2.857422 0.01647-3.226288-0.04348-6.460166 0.03906-9.68164 0.238236-1.181172 1.585467-1.33965 2.555929-1.551779 4.587503-1.128687 9.179184-2.2416 13.76829-3.364237 0.499476-1.655251 1.109816-3.276614 1.832031-4.847656-3.012817-4.360843-6.086106-8.687075-9.042969-13.082032-0.493175-1.106084 0.524213-2.01956 1.206673-2.743061 2.12138-2.371279 4.166992-4.821957 6.365593-7.116314 0.300611-0.194228 0.667006-0.29176 1.023438-0.253906zm62.599616 43.763672c7.1269 1.546208 14.27699 2.997536 21.39257 4.587891 0.48892 0.104414 0.4802 0.860381 1.0449 0.71919 0.31255 0.240392-0.29753 1.084326-0.34879 1.563031-1.12737 3.328666-2.20465 6.681085-3.39533 9.983404-0.59691 1.033269-1.91386 0.770194-2.89307 0.657333-4.71554-0.393023-9.43062-0.801404-14.14599-1.200302-0.99563 1.412996-2.09082 2.756078-3.28516 4.005859 1.4668 5.106559 3.0285 10.193288 4.41407 15.318358 0.0856 1.24375-1.23551 1.74134-2.11914 2.25195-2.80499 1.5783-5.55754 3.27713-8.407052 4.75865-1.209141 0.33972-1.956298-0.89378-2.69229-1.61201-3.224049-3.36333-6.448098-6.72666-9.672147-10.09-1.680708 0.40073-3.389185 0.68103-5.109375 0.8418-2.26437 4.78503-4.477717 9.60068-6.796875 14.35547-0.714708 0.9924-2.0289 0.56569-3.009765 0.34375-3.125998-0.67606-6.301566-1.18737-9.391664-1.98714-1.005544-0.51139-0.948142-1.86374-0.481926-2.73037 2.174559-6.67492 4.349929-13.349584 6.52398-20.024677 6.116074 2.201878 13.045174 2.314517 19.138672 0.136719 7.386438-2.564613 13.652482-8.251229 16.742802-15.454158 0.92204-2.088442 1.56274-4.292166 2.00134-6.530217 0.16341 0.03516 0.32682 0.07031 0.49024 0.105469z" fill="#0079c1" stroke="#80cfff"/>
    <path class="ColorScheme-Text" d="m94.550611 124.09491c-12.23051-0.53916-23.06423-9.0272-26.43692-20.71288-0.86554-2.99892-1.13389-5.202916-1.0504-8.626916 0.11016-4.51812 1.01206-8.08028 3.05-12.04656 4.84083-9.42132 14.23155-15.34964 24.99892-15.78176 5.649459-0.2268 11.354059 1.2504 16.342139 4.23152 3.42988 2.04984 7.1494 5.64508 9.31604 9.00468 2.1582 3.34652 3.60764 7.15728 4.23944 11.14596 0.3288 2.0752 0.3568 6.1874 0.0552 8.1042-1.02436 6.512836-3.75688 11.883316-8.3312 16.374076-4.32388 4.24488-9.70796 6.9632-15.83728 7.99584-1.671999 0.2816-4.205679 0.4062-6.346009 0.312z" color="#232629" fill="#cbcb00" stroke-width="4"/>
    <path class="ColorScheme-Text" d="m95.733041 63.531532c-17.673096 0-31.999988 14.32688-31.999988 32 0 17.673118 14.326892 31.999998 31.999988 31.999998 17.673129 0 32.000009-14.32688 32.000009-31.999998 0-17.67312-14.32688-32-32.000009-32zm0 4c15.463979-2e-6 28.000009 12.53603 28.000009 28 0 15.463968-12.53603 27.999998-28.000009 27.999998-15.463969-1e-5 -27.999987-12.53603-27.999987-27.999998 0-15.46397 12.536018-27.999989 27.999987-28zm-11.999983 12.14844c-0.962524 0-1.142876 0.032-1.695312 0.3048-0.786977 0.3864-1.488553 1.08804-1.875001 1.875-0.26804 0.54584-0.30468 0.73712-0.30468 1.64064 0 0.87976 0.0372 1.10452 0.28124 1.625 0.512968 1.094 1.443224 1.9012 2.562501 2.21872 0.28772 0.0816 0.817664 0.12 1.273436 0.0936 1.44686-0.0836 2.631173-0.8826 3.281249-2.20312 0.32036-0.65076 0.35156-0.79584 0.35156-1.73436 0-0.906-0.0364-1.09448-0.30468-1.64064-0.38644-0.78696-1.088024-1.48856-1.875001-1.875-0.552436-0.2712-0.732788-0.3048-1.695312-0.3048zm23.999992 0c-0.96252 0-1.14288 0.032-1.69528 0.3048-0.787 0.3864-1.48856 1.08804-1.875 1.875-0.268 0.54584-0.3048 0.73712-0.3048 1.64064 0 0.87976 0.036 1.10452 0.2812 1.625 0.51296 1.094 1.4432 1.9012 2.56248 2.21872 0.2876 0.0816 0.81768 0.12 1.27344 0.0936 1.44688-0.0836 2.63116-0.8826 3.28124-2.20312 0.3204-0.65076 0.3516-0.79584 0.3516-1.73436 0-0.906-0.036-1.09448-0.3048-1.64064-0.3864-0.78696-1.088-1.48856-1.875-1.875-0.55244-0.2712-0.73276-0.3048-1.69532-0.3048zm-27.289057 23.945318 0.07032 0.2968c0.0392 0.1628 0.20976 0.6646 0.375 1.11716 1.975861 5.41224 6.78703 9.38004 12.421879 10.25 4.124689 0.63684 8.567018-0.4598 11.835938-2.92968 1.40784-1.06368 2.97112-2.75624 3.95312-4.28124 0.65176-1.01208 1.61176-3.16344 1.85156-4.15624l0.0704-0.2968h-15.289089z" color="#232629" fill="#232629" stroke-width="4"/>
</svg>
