<svg data-name="Layer 3" version="1.1" viewBox="0 0 128 128" xmlns="http://www.w3.org/2000/svg">
  <defs>
    <linearGradient id="linearGradient42076" x1="116.84924" x2="75.976242" y1="164.85487" y2="120.04626" gradientTransform="matrix(.5122 0 0 .5122 24.953 .20732)" gradientUnits="userSpaceOnUse">
      <stop stop-color="#fff" offset="0"/>
      <stop stop-color="#fefefe" offset="1"/>
    </linearGradient>
  </defs>
  <g transform="translate(.5 -48.5)">
    <g transform="translate(-.48694916 48.761841)">
      <path d="m62.732422 0.015625c-18.717229 0.27408863-37.106167 9.3153846-48.70998 24.01331-9.817193 12.217886-14.934708 28.138302-13.903181 43.792346 0.85577188 14.398928 6.6842127 28.486399 16.441597 39.135349 10.695407 11.78443 25.870091 19.50091 41.768459 20.78351 15.40086 1.3774 31.301515-2.96304 43.686073-12.2678 12.66738-9.34334 21.76805-23.473452 24.7493-38.954437 3.28105-16.429416-0.1041-34.152755-9.53449-48.040795-8.29186-12.411528-21.003886-21.857193-35.388845-25.93318-6.192914-1.8017446-12.660585-2.652938-19.108933-2.528303z" fill="#ecf0f9"/>
      <path d="m63.999077 3.5000012c-33.412544 0-60.499076 27.085903-60.499076 60.49815 0 33.411971 27.086532 60.501849 60.499076 60.501849 33.41339 0 60.500923-27.089878 60.500923-60.501849 0-33.412247-27.087533-60.49815-60.500923-60.49815zm-3.545848 14.353241c0.39907 0.067 0.749086 0.332498 0.913925 0.721908l4.815186 11.371444c2.560839 0.161601 5.044738 0.606 7.421256 1.301651l8.408116-9.033088c0.384262-0.412722 1.00264-0.505343 1.490895-0.223403l7.127696 4.115432c0.488254 0.28194 0.717482 0.863259 0.552048 1.402275l-3.621549 11.807174c1.817353 1.735115 3.442873 3.669365 4.84288 5.76696l12.253068-1.515822c0.55962-0.0692 1.0922 0.257653 1.28502 0.787452l2.84149 7.807137c0.17724 0.487308-5e-3 1.031478-0.43944 1.313654l-18.15848 6.536868c-0.723168 0.260434-1.501199-0.212209-1.652448-0.965621-2.29806-11.447553-12.408808-20.070349-24.533815-20.070349-2.747554 0-5.391884 0.442724-7.865297 1.261031-0.728833 0.241244-1.522872-0.199952-1.655222-0.956391l-3.262439-18.643148c-0.115314-0.657653 0.323858-1.283564 0.98132-1.399505l7.84591-1.383814c0.138841-0.02447 0.276857-0.02417 0.40988-0.0017zm-28.099962 12.893729c0.12291 0.01623 0.24464 0.05371 0.360021 0.112626l14.740048 12.457077c0.586945 0.496004 0.567644 1.406025-0.0096 1.913703-8.764826 7.713932-11.177538 20.78112-5.115207 31.281165 1.373915 2.379824 3.079344 4.448701 5.024745 6.18146 0.573425 0.510939 0.588004 1.419797-9.5e-4 1.912776l-14.512944 12.146897c-0.511974 0.428228-1.274974 0.360939-1.70414-0.150474l-5.120729-6.102989c-0.362385-0.432008-0.378519-1.056624-0.03879-1.506593l7.440645-9.855619c-1.140396-2.298049-1.997201-4.67155-2.583013-7.077842l-12.026881-2.764855c-0.549465-0.126199-0.938855-0.615913-0.938855-1.179793v-8.229943c0-0.563878 0.38939-1.053125 0.938855-1.179792l12.03611-2.766702c0.593994-2.441743 1.455226-4.816845 2.57192-7.077843l-7.438799-9.853775c-0.339751-0.449969-0.323608-1.074679 0.03879-1.506592l5.341382-6.365167c0.249846-0.297772 0.628278-0.436399 0.997011-0.387725zm57.274484 37.2983c0.176977-0.01844 0.360646 0.0014 0.540965 0.0674l17.776314 6.496254c0.62722 0.229238 0.95021 0.922767 0.7219 1.54998l-2.72516 7.485879c-0.19282 0.529847-0.72587 0.856463-1.28502 0.787454l-12.255834-1.515832c-1.419856 2.136877-3.046924 4.065652-4.837339 5.776194l3.618774 11.79793c0.164954 0.53884-0.06377 1.12059-0.552048 1.40229l-7.128619 4.11542c-0.488253 0.28218-1.106633 0.18923-1.490894-0.22339l-8.413656-9.039554c-2.411493 0.706148-4.899741 1.14734-7.416638 1.31088l-4.813342 11.368664c-0.219778 0.51947-0.768436 0.81791-1.323805 0.72007l-8.182857-1.44289c-0.509996-0.0902-0.891155-0.52006-0.917621-1.03762l3.417529-18.993957c0.136124-0.756251 0.934715-1.193864 1.662606-0.948083 11.062963 3.733512 23.58582-0.711697 29.648092-11.211735 1.374013-2.379815 2.312598-4.891101 2.840562-7.442489 0.116621-0.563997 0.585179-0.967537 1.116091-1.022861z" fill="#0064ff"/>
    </g>
    <path d="m79.029297 114.16797c-7.226354 0.10305-14.463506-0.18865-21.681641 0.24219-2.789458 0.47765-4.663869 3.41163-4.437376 6.14567 0.05862 6.86943-0.0083 13.74101 0.0069 20.61136-8.72e-4 10.17544-0.01971 20.35573 0.202272 30.52725 0.359066 2.84421 3.319166 4.69823 6.040238 4.6203 2.358281-0.18543 4.810956 0.27579 7.082688-0.56353 2.050008-0.64206 3.276319-2.70856 3.482922-4.76059 0.240698-1.96669-0.05737-3.94637 0.04423-5.92069 0.0071-3.21732 0.01478-6.43464 0.02149-9.65196 2.161668 0.0293 4.618652-0.35165 6.447265 1.08203 2.224363 2.67889 3.156915 6.10986 4.911399 9.06427 1.598102 3.16865 2.875997 6.62077 5.368047 9.22318 2.534839 1.82098 5.800471 1.46255 8.749832 1.46794 2.81903-0.0158 5.888607-0.20428 8.110377-2.15559 1.3159-1.26492 2.06383-3.0019 2.96972-4.57636 1.2125 2.24933 2.42323 4.86043 4.95898 5.85742 3.40805 1.10266 7.03078 0.37537 10.54302 0.55037 2.27367-0.10879 4.58267-1.89242 4.60857-4.29588 0.17923-2.11746-1.17147-3.90785-2.34888-5.52157-2.55234-4.00952-5.10778-8.01711-7.65818-12.02784 3.17214-5.21051 6.74764-10.19417 9.4668-15.66602 0.63266-3.08307-2.60273-6.1362-5.67421-5.42427-3.38929 0.0804-6.98987-0.55089-10.16564 0.97115-1.73017 1.10272-2.64185 3.02152-3.57812 4.76953-1.3312-2.00197-2.5259-4.45389-4.94531-5.31445-0.66231-0.49694-0.21564-1.42592-0.4789-2.10042-0.69401-5.72762-3.8308-11.35974-8.9683-14.21005-3.918176-2.31417-8.581496-3.06149-13.078189-2.94344zm1.181641 16.24414c2.170552-0.10035 4.002171 2.04318 3.780338 4.16015 0.231531 1.97143-1.099267 4.27046-3.226976 4.38924-3.112999 0.45621-6.263443-0.0118-9.391252 0.18011-0.481378-0.14489-1.578598 0.32736-1.582032-0.29669v-8.4289c3.473307-1e-3 6.946614-3e-3 10.419922-4e-3z" fill="#3f4f69" style="font-variant-caps:normal;font-variant-east-asian:normal;font-variant-ligatures:normal;font-variant-numeric:normal"/>
    <path d="m59.195312 117.76953c-0.973801 0-1.66615 0.20479-2.076171 0.61719-0.410022 0.36085-0.615235 1.03226-0.615235 2.01172v49.64258c0 0.97945 0.205213 1.67548 0.615235 2.08789 0.410021 0.36085 1.10237 0.54101 2.076171 0.54101h4.38086c0.973801 0 1.641231-0.18016 2-0.54101 0.410021-0.41241 0.615234-1.10844 0.615234-2.08789v-18.24805h5.6875c2.613888 0 4.535561 0.36032 5.765625 1.08203 1.230065 0.72171 2.357759 2.16496 3.382813 4.33008l6.458984 13.14453c0.461274 0.97946 1.025121 1.62429 1.691406 1.93359 0.666285 0.25776 1.843818 0.38672 3.535157 0.38672h4.458984c0.617927 0 1.063776-0.11038 1.359375-0.31836 1.88435-0.0802 2.32944-0.48529 3.15234-1.85156l4.61133-8.32422 4.70899 8.32422c0.94189 1.71518 1.53742 1.86719 4.11523 1.86719h6.3457c1.53678 0 1.83419-1.00932 1.04102-2.11914l-10.3125-16.14258 9.81641-15.53711c0.69402-1.10982 0.39586-2.01758-0.99219-2.01758h-6.3457c-2.2308 0-2.87452 0.1009-3.81641 1.76563l-4.41211 7.81836-4.46094-7.81836c-0.94189-1.56384-1.587-1.76563-4.115232-1.76563h-0.226563c0.04195-0.57689 0.07031-1.1625 0.07031-1.76953 0-5.30969-1.53812-9.46125-4.613282-12.45117-3.075161-3.04148-7.302061-4.56055-12.683594-4.56055zm6.996094 9.04688h13.298828c2.562635 0 4.561019 0.66945 5.996094 2.00976 1.383823 1.39186 2.076172 3.37756 2.076172 5.95508s-0.692349 4.53469-2.076172 5.875c-1.435075 1.39186-3.433459 2.08789-5.996094 2.08789h-13.298828zm28.736328 18.06836 5.765626 9.2207-5.75586 9.09961-4.914062-9.48047c-0.666285-1.39186-1.487137-2.49941-2.460938-3.32422 3.175079-1.06451 5.627329-2.90591 7.365234-5.51562z" fill="url(#linearGradient42076)" style="font-variant-caps:normal;font-variant-east-asian:normal;font-variant-ligatures:normal;font-variant-numeric:normal"/>
  </g>
</svg>
