<svg data-name="Layer 3" version="1.1" viewBox="0 0 128 128" xmlns="http://www.w3.org/2000/svg">
 <defs>
  <linearGradient id="linearGradient1401" x1="93.743" x2="93.743" y1="106.74" y2="75.026" gradientTransform="translate(24.839)" gradientUnits="userSpaceOnUse">
   <stop stop-color="#1d99f3" offset="0"/>
   <stop stop-color="#c7e7f9" offset="1"/>
  </linearGradient>
 </defs>
 <circle cx="64" cy="64" r="64" fill="#3f4f69"/>
 <path d="m63.999 3.5c-33.412 0-60.499 27.086-60.499 60.498 0 33.412 27.086 60.502 60.499 60.502 33.413 0 60.501-27.09 60.501-60.502 0-33.412-27.087-60.498-60.501-60.498zm-3.5458 14.353c0.39908 0.067 0.74909 0.3325 0.91393 0.72191l4.8152 11.371c2.5608 0.1616 5.0447 0.606 7.4212 1.3016l8.4081-9.0331c0.38426-0.41272 1.0026-0.50534 1.4909-0.2234l7.1277 4.1154c0.48825 0.28194 0.71748 0.86326 0.55205 1.4023l-3.6215 11.807c1.8173 1.7351 3.4429 3.6694 4.8429 5.767l12.253-1.5158c0.55963-0.0692 1.0922 0.25765 1.285 0.78745l2.8415 7.8071c0.17723 0.48731-5e-3 1.0315-0.43944 1.3137l-18.158 6.5369c-0.72316 0.26043-1.5012-0.21221-1.6524-0.96562-2.298-11.448-12.409-20.07-24.534-20.07-2.7475 0-5.3919 0.44273-7.8653 1.261-0.72884 0.24124-1.5229-0.19996-1.6552-0.95639l-3.2624-18.643c-0.1153-0.65765 0.32385-1.2836 0.98132-1.3995l7.8459-1.3838c0.13884-0.02449 0.27685-0.0242 0.40988-0.0019zm-28.1 12.894c0.12291 0.01621 0.24464 0.0537 0.36003 0.11263l14.74 12.457c0.58694 0.496 0.56764 1.406-0.0098 1.9137-8.7648 7.7139-11.178 20.781-5.1152 31.281 1.3739 2.3798 3.0793 4.4487 5.0247 6.1815 0.57343 0.51094 0.58801 1.4198-9.43e-4 1.9128l-14.513 12.147c-0.51197 0.42823-1.275 0.36094-1.7041-0.15047l-5.1207-6.103c-0.36239-0.43201-0.37852-1.0566-0.03872-1.5066l7.4406-9.8556c-1.1403-2.2981-1.9971-4.6716-2.5829-7.0778l-12.027-2.7649c-0.54946-0.1262-0.93885-0.61591-0.93885-1.1798v-8.2299c0-0.56388 0.38939-1.0531 0.93885-1.1798l12.036-2.7667c0.59399-2.4417 1.4552-4.8168 2.5719-7.0778l-7.4388-9.8538c-0.33975-0.44996-0.32361-1.0747 0.03872-1.5066l5.3414-6.3652c0.24984-0.29777 0.62827-0.4364 0.997-0.38773zm57.274 37.298c0.17696-0.01844 0.36065 0.0014 0.54096 0.06739l17.776 6.4963c0.62721 0.22924 0.9502 0.92277 0.7219 1.55l-2.7251 7.4859c-0.19286 0.52984-0.72589 0.85646-1.285 0.78745l-12.256-1.5158c-1.4199 2.1369-3.0469 4.0657-4.8373 5.7762l3.6188 11.798c0.16496 0.53882-0.06378 1.1206-0.55205 1.4023l-7.1286 4.1154c-0.48824 0.28219-1.1066 0.18923-1.4909-0.22341l-8.4136-9.0395c-2.4115 0.70615-4.8997 1.1473-7.4166 1.3109l-4.8133 11.369c-0.21978 0.51944-0.76843 0.8179-1.3238 0.72006l-8.1828-1.4429c-0.51-0.0903-0.89114-0.52007-0.91762-1.0376l3.4175-18.994c0.13612-0.75625 0.93471-1.1939 1.6626-0.94808 11.063 3.7335 23.586-0.7117 29.648-11.212 1.374-2.3798 2.3126-4.8911 2.8405-7.4425 0.11662-0.564 0.58517-0.96754 1.1161-1.0229z" fill="#fff"/>
 <ellipse cx="64.056" cy="63.703" rx="64.035" ry="63.635" fill="none"/>
 <path d="m117.46 63.762c-12.9 0.05623-25.801-0.0083-38.701 0.03017-5.9669 0.01634-11.938 0.0082-17.902 0.09375-4.5203 0.57707-7.7127 5.9751-5.847 10.182 1.3176 2.8096 3.7441 4.8539 5.56 7.3194 6.1163 7.3756 12.233 14.751 18.349 22.127 0.0859 4.1703-0.25767 8.3741 0.28453 12.519 0.74885 2.5837 3.2422 3.9873 5.318 5.4045 3.0788 2.0544 5.9457 4.4774 9.29 6.098 3.864 1.2586 8.4856-2.0252 8.3578-6.1379 0.0363-5.9631 0.0285-11.926 0.027-17.889 7.8028-9.4202 15.659-18.795 23.348-28.307 2.4787-3.9047 0.2256-9.8508-4.2575-11.058-1.2436-0.34466-2.5429-0.39848-3.8265-0.38129z" fill="#3f4f69" stroke-width="0"/>
 <path d="m122.19 73.925-23.486 28.322v18.982c0 2.4835-2.7952 3.9059-4.8028 2.5013l-10.178-7.1222c-0.82061-0.56998-1.3041-1.5115-1.3041-2.5038v-11.858l-23.489-28.322c-2.2061-2.6603-0.27507-6.64 3.222-6.64h56.82c3.4988 0 5.3181 3.9797 3.2189 6.64z" fill="url(#linearGradient1401)"/>
 <rect x="73.915" y="63.743" width="10.779" height="3.5268" fill="#3f4f69"/>
</svg>
