<svg data-name="Layer 3" version="1.1" viewBox="0 0 128 128" xmlns="http://www.w3.org/2000/svg">
  <g transform="translate(.01305084 .0029956)">
    <path d="m62.732422 0.015625c-18.717229 0.27408863-37.106167 9.3153846-48.70998 24.01331-9.817193 12.217886-14.934708 28.138302-13.903181 43.792346 0.85577188 14.398928 6.6842127 28.486399 16.441597 39.135349 10.695407 11.78443 25.870091 19.50091 41.768459 20.78351 15.40086 1.3774 31.301515-2.96304 43.686073-12.2678 12.66738-9.34334 21.76805-23.473452 24.7493-38.954437 3.28105-16.429416-0.1041-34.152755-9.53449-48.040795-8.29186-12.411528-21.003886-21.857193-35.388845-25.93318-6.192914-1.8017446-12.660585-2.652938-19.108933-2.528303z" fill="#ecf0f9"/>
    <path d="m63.999077 3.5000012c-33.412544 0-60.499076 27.085903-60.499076 60.49815 0 33.411971 27.086532 60.501849 60.499076 60.501849 33.41339 0 60.500923-27.089878 60.500923-60.501849 0-33.412247-27.087533-60.49815-60.500923-60.49815zm-3.545848 14.353241c0.39907 0.067 0.749086 0.332498 0.913925 0.721908l4.815186 11.371444c2.560839 0.161601 5.044738 0.606 7.421256 1.301651l8.408116-9.033088c0.384262-0.412722 1.00264-0.505343 1.490895-0.223403l7.127696 4.115432c0.488254 0.28194 0.717482 0.863259 0.552048 1.402275l-3.621549 11.807174c1.817353 1.735115 3.442873 3.669365 4.84288 5.76696l12.253068-1.515822c0.55962-0.0692 1.0922 0.257653 1.28502 0.787452l2.84149 7.807137c0.17724 0.487308-5e-3 1.031478-0.43944 1.313654l-18.15848 6.536868c-0.723168 0.260434-1.501199-0.212209-1.652448-0.965621-2.29806-11.447553-12.408808-20.070349-24.533815-20.070349-2.747554 0-5.391884 0.442724-7.865297 1.261031-0.728833 0.241244-1.522872-0.199952-1.655222-0.956391l-3.262439-18.643148c-0.115314-0.657653 0.323858-1.283564 0.98132-1.399505l7.84591-1.383814c0.138841-0.02447 0.276857-0.02417 0.40988-0.0017zm-28.099962 12.893729c0.12291 0.01623 0.24464 0.05371 0.360021 0.112626l14.740048 12.457077c0.586945 0.496004 0.567644 1.406025-0.0096 1.913703-8.764826 7.713932-11.177538 20.78112-5.115207 31.281165 1.373915 2.379824 3.079344 4.448701 5.024745 6.18146 0.573425 0.510939 0.588004 1.419797-9.5e-4 1.912776l-14.512944 12.146897c-0.511974 0.428228-1.274974 0.360939-1.70414-0.150474l-5.120729-6.102989c-0.362385-0.432008-0.378519-1.056624-0.03879-1.506593l7.440645-9.855619c-1.140396-2.298049-1.997201-4.67155-2.583013-7.077842l-12.026881-2.764855c-0.549465-0.126199-0.938855-0.615913-0.938855-1.179793v-8.229943c0-0.563878 0.38939-1.053125 0.938855-1.179792l12.03611-2.766702c0.593994-2.441743 1.455226-4.816845 2.57192-7.077843l-7.438799-9.853775c-0.339751-0.449969-0.323608-1.074679 0.03879-1.506592l5.341382-6.365167c0.249846-0.297772 0.628278-0.436399 0.997011-0.387725zm57.274484 37.2983c0.176977-0.01844 0.360646 0.0014 0.540965 0.0674l17.776314 6.496254c0.62722 0.229238 0.95021 0.922767 0.7219 1.54998l-2.72516 7.485879c-0.19282 0.529847-0.72587 0.856463-1.28502 0.787454l-12.255834-1.515832c-1.419856 2.136877-3.046924 4.065652-4.837339 5.776194l3.618774 11.79793c0.164954 0.53884-0.06377 1.12059-0.552048 1.40229l-7.128619 4.11542c-0.488253 0.28218-1.106633 0.18923-1.490894-0.22339l-8.413656-9.039554c-2.411493 0.706148-4.899741 1.14734-7.416638 1.31088l-4.813342 11.368664c-0.219778 0.51947-0.768436 0.81791-1.323805 0.72007l-8.182857-1.44289c-0.509996-0.0902-0.891155-0.52006-0.917621-1.03762l3.417529-18.993957c0.136124-0.756251 0.934715-1.193864 1.662606-0.948083 11.062963 3.733512 23.58582-0.711697 29.648092-11.211735 1.374013-2.379815 2.312598-4.891101 2.840562-7.442489 0.116621-0.563997 0.585179-0.967537 1.116091-1.022861z" fill="#0064ff"/>
  </g>
</svg>
