<svg data-name="Layer 3" version="1.1" viewBox="0 0 128 128" xmlns="http://www.w3.org/2000/svg" xmlns:xlink="http://www.w3.org/1999/xlink">
  <defs>
    <linearGradient id="linearGradient56427" x1="-39.260426" x2="-72.077232" y1="60.846931" y2="110.35937" gradientTransform="translate(-15.580649,1.1290323)" gradientUnits="userSpaceOnUse">
      <stop stop-color="#a86514" offset="0"/>
      <stop stop-color="#f7a440" offset="1"/>
    </linearGradient>
  </defs>
  <path d="m62.861861 1.0068349c-4.711489 0.076185-9.423865 0.6993598-13.977752 1.8339349-10.163647 2.5038512-19.621923 7.5548912-27.349526 14.61612-4.270419 3.902055-8.09534 8.488256-11.149388 13.462261-5.196398 8.369014-8.368132 18.088214-9.18349 27.949012-0.300664 3.852906-0.274352 7.861353 0.141538 11.731945 0.9892 9.368818 4.114854 18.527041 9.088931 26.56493 6.058228 9.786642 14.901424 17.925512 25.250386 23.108432 11.85054 5.98707 25.683982 8.09996 38.828492 5.83933 9.888834-1.67423 19.553458-5.80824 27.557308-11.92113 12.16392-9.18858 20.73707-22.842889 23.69275-37.791647 1.4803-7.395176 1.62176-15.07103 0.42871-22.474276-1.32718-8.309482-4.40412-16.478571-8.92016-23.560769-7.22958-11.466356-18.19972-20.476447-30.89391-25.26782-4.946115-1.885242-10.126176-3.1352786-15.329277-3.7028975-2.73237-0.3041714-5.425398-0.42570688-8.184612-0.3874254zm-3.439453 11.128906c1.201636 0.01155 1.609215 1.300271 2.010944 2.205431 2.009813 4.267845 4.001733 8.544737 6.004681 12.816053 1.718265 0.160806 3.424693 0.441542 5.103516 0.841797 3.685326-3.822137 7.327827-7.693437 11.05664-11.46875 0.995666-0.707864 2.080381 0.144574 2.939451 0.652344 2.78719 1.649479 5.64734 3.195082 8.3754 4.928133 0.89416 0.881186 0.20376 2.134552-0.0507 3.134926-1.30616 4.467912-2.61232 8.935825-3.91849 13.403738 1.18687 1.255404 2.28516 2.594435 3.2793 4.007812 5.28241-0.430172 10.56679-0.925521 15.84961-1.294922 1.12246 0.08648 1.49153 1.276986 1.72429 2.191217 1.01118 3.09512 2.12614 6.158068 3.0511 9.277533 0.12654 1.157772-1.10267 1.838871-2.11363 1.865632-6.87029 1.454479-13.74089 2.907473-20.61098 4.362884-1.20376-6.601383-4.71648-12.781057-9.929976-17.033149-5.78611-4.789934-13.494415-7.191365-20.94466-6.400031-2.372494 0.222653-4.696893 0.799833-6.955442 1.546461-2.280894-7.055702-4.61877-14.093538-6.84371-21.164062-0.167109-1.13318 1.009585-1.909376 2.027702-1.912406 3.314011-0.653641 6.621352-1.379568 9.944954-1.960641zm-29.458984 13.158203c1.238392 0.196256 1.759401 1.500212 2.617421 2.256651 4.365303 4.86041 8.734862 9.716996 13.111094 14.567568-3.808004 3.239056-6.782058 7.451522-8.490234 12.154297-1.902645 5.237065-2.225229 11.234827-0.828125 16.708984 1.402881 5.598512 4.983271 11.11136 9.327426 14.905506 0 0-0.46664 0.403422-1.139926 1.147233-3.50514 4.001432-7.125593 7.923404-10.675484 11.892086-1.110815 1.164711-2.112416 2.454451-3.28936 3.543461-0.998395 0.58998-2.115645-0.20088-2.643868-1.05497-2.175166-2.486578-4.403871-4.933866-6.52996-7.458703-0.624936-1.049859 0.316551-2.06237 0.894531-2.875l8.082031-11.609374c-0.721022-1.57182-1.324815-3.195836-1.822265-4.851567-5.151098-1.276489-10.323813-2.488632-15.455078-3.828125-1.10373-0.505163-0.917023-1.864075-0.90625-2.857422 0.01647-3.226288-0.04348-6.460166 0.03906-9.68164 0.238236-1.181172 1.585467-1.33965 2.555929-1.551779 4.587503-1.128687 9.179184-2.2416 13.76829-3.364237 0.499476-1.655251 1.109816-3.276614 1.832031-4.847656-3.012817-4.360843-6.086106-8.687075-9.042969-13.082032-0.493175-1.106084 0.524213-2.01956 1.206673-2.743061 2.12138-2.371279 4.166992-4.821957 6.365593-7.116314 0.300611-0.194228 0.667006-0.29176 1.023438-0.253906zm62.599616 43.763672c7.1269 1.546208 14.27699 2.997536 21.39257 4.587891 0.48892 0.104414 0.4802 0.860381 1.0449 0.71919 0.31255 0.240392-0.29753 1.084326-0.34879 1.563031-1.12737 3.328666-2.20465 6.681085-3.39533 9.983404-0.59691 1.033269-1.91386 0.770194-2.89307 0.657333-4.71554-0.393023-9.43062-0.801404-14.14599-1.200302-0.99563 1.412996-2.09082 2.756078-3.28516 4.005859 1.4668 5.106559 3.0285 10.193288 4.41407 15.318358 0.0856 1.24375-1.23551 1.74134-2.11914 2.25195-2.80499 1.5783-5.55754 3.27713-8.407052 4.75865-1.209141 0.33972-1.956298-0.89378-2.69229-1.61201-3.224049-3.36333-6.448098-6.72666-9.672147-10.09-1.680708 0.40073-3.389185 0.68103-5.109375 0.8418-2.26437 4.78503-4.477717 9.60068-6.796875 14.35547-0.714708 0.9924-2.0289 0.56569-3.009765 0.34375-3.125998-0.67606-6.301566-1.18737-9.391664-1.98714-1.005544-0.51139-0.948142-1.86374-0.481926-2.73037 2.174559-6.67492 4.349929-13.349584 6.52398-20.024677 6.116074 2.201878 13.045174 2.314517 19.138672 0.136719 7.386438-2.564613 13.652482-8.251229 16.742802-15.454158 0.92204-2.088442 1.56274-4.292166 2.00134-6.530217 0.16341 0.03516 0.32682 0.07031 0.49024 0.105469z" fill="#0079c1" stroke="#80cfff"/>
  <g transform="translate(158)">
    <path d="m-40.589844 52.673828c-1.010201 0.168048-1.304858 1.332255-1.918843 2.003202-4.890733 6.94963-9.783478 13.897848-14.672954 20.848361-1.828253-0.685039-3.847606-0.724316-5.711435-0.155923-3.957619 1.130505-7.086223 4.202963-9.028388 7.748715-3.789457 6.031435-9.914226 10.171551-16.317139 13.032731-4.329183 1.952712-8.888433 3.322269-13.464517 4.558066-0.8683 0.39303-0.9536 1.63959-0.26106 2.24874 3.113512 4.47462 6.869478 8.60223 11.237618 11.92314 1.056946 0.54623 1.886064-0.59469 2.704832-1.07471 0.645197-0.52434 1.394674-0.88286 2.119386-1.28076-0.483275 1.23155-1.270111 2.29559-1.927734 3.42969-0.309188 0.83617 0.385928 1.57667 1.121129 1.85593 3.748672 2.21702 7.623308 4.26828 11.724574 5.75344 1.082171 0.16914 1.662527-0.98158 2.426238-1.52925 0.525922-0.57687 1.215983-0.93695 1.870637-1.34379-0.207523 0.7961-0.582923 1.52131-0.903414 2.26387-0.167955 0.85145 0.591719 1.55348 1.400903 1.61443 3.886754 1.10791 7.808841 2.45353 11.895089 2.44201 1.0864-0.2265 1.273867-1.52438 1.852742-2.30088 4.995695-8.91385 10.035799-17.80839 15.004313-26.733907 1.820308-3.713671 2.332721-8.395091 0.233993-12.106962-0.515137-0.919496-1.222484-1.715694-2.016829-2.403174 3.860935-8.29364 7.739651-16.579941 11.587891-24.878906 0.302108-0.859726-0.44429-1.567345-1.186137-1.836031-2.449128-1.332485-4.857694-2.754166-7.33164-4.032148-0.140992-0.04675-0.292082-0.05152-0.439255-0.04588z" fill="url(#linearGradient56427)"/>
    <path d="m-40.63439 52.17473c-0.48815 0.04944-0.94951 0.320398-1.23091 0.722605l-15.519016 22.048008c-0.92668-0.297745-1.875283-0.498578-2.836308-0.481677-4.482699 0.07929-9.023669 3.093053-11.692935 7.679323-6.750488 11.597287-21.927537 15.947305-29.781091 18.034571-1.06008 0.27221-1.60559 1.71743-0.98996 2.62198 3.445992 4.97877 6.8866 8.74553 11.478976 12.36215 0.581283 0.47125 1.482247 0.49445 2.08709 0.0535l2.113875-1.52504-1.150519 1.79277c-0.48564 0.76791-0.215763 1.91178 0.561866 2.38158 3.901417 2.37117 8.333781 4.68067 12.281777 6.1275 0.584344 0.21108 1.281049 0.0719 1.739173-0.34809l1.980108-1.81937-0.321119 0.56187c-0.508458 0.88981 0.0094 2.19101 0.990143 2.48839 4.521013 1.34363 8.73905 2.64878 12.468952 2.64878 0.607892 0 1.203739-0.35079 1.498425-0.88281l15.385263-27.372935c6e-3 -0.0106 0.0207-0.01637 0.0266-0.02661 1.76561-3.048279 2.46843-6.420198 2.11405-9.472257-0.29109-2.506016-1.37095-4.824323-3.18402-6.421822l11.39843-24.456212c0.36175-0.776546 0.0266-1.805525-0.72242-2.220857l-7.7063-4.281155c-0.29864-0.16829-0.64871-0.243984-0.99014-0.214138zm0.66902 3.960216 4.97679 2.756114-10.51563 22.556653-8.749655-5.00376zm-20.202034 21.753858c0.971268-0.01726 1.834473 0.194901 2.568773 0.615447 0.06888 0.04063 11.902761 6.803351 11.987441 6.849918 1.5121 0.864287 2.49469 2.565888 2.75594 4.816412 0.2082 1.793658-0.0983 3.857911-0.93657 5.859951l-24.21546-13.619645c2.183462-2.797287 5.348071-4.478032 7.839876-4.522083zm-9.686041 7.384997 24.482825 13.780026-14.020591 24.911103c-2.302664-0.15032-5.217718-0.86069-8.455327-1.79277l4.869989-8.34834c0.376493-0.69707 0.185009-1.65054-0.431879-2.14768-0.616887-0.49715-1.589404-0.48222-2.190643 0.034l-9.445116 8.66928c-2.941122-1.15771-6.182157-2.81257-9.25813-4.60245l5.030378-7.8931c0.429348-0.66795 0.308709-1.63544-0.271137-2.17717-0.579846-0.54226-1.553269-0.59728-2.190656-0.12388l-8.294772 6.02033c-3.182588-2.62989-5.805111-5.4599-8.32156-8.83003 8.083331-2.22408 21.252591-6.522852 28.496619-17.499303z" fill="#232629" stroke-width=".0179797"/>
  </g>
</svg>
