<?xml version="1.0" encoding="UTF-8"?>
<svg data-name="Layer 3" version="1.1" viewBox="0 0 128 128" xmlns="http://www.w3.org/2000/svg" xmlns:xlink="http://www.w3.org/1999/xlink">
 <defs>
  <linearGradient id="f" x1="22" x2="22" y1="40" y2="16" gradientTransform="matrix(1.25 0 0 1.25 60.498 55.493)" gradientUnits="userSpaceOnUse">
   <stop stop-color="#3e3e3e" offset="0"/>
   <stop stop-color="#5c5c5c" offset="1"/>
  </linearGradient>
  <linearGradient id="e" x1="16" x2="44" y1="16" y2="44" gradientTransform="matrix(1.25 0 0 1.25 60.498 55.493)" gradientUnits="userSpaceOnUse" xlink:href="#a"/>
  <linearGradient id="a">
   <stop stop-color="#292c2f" offset="0"/>
   <stop stop-opacity="0" offset="1"/>
  </linearGradient>
  <linearGradient id="d" x1="12" x2="12" y1="48" y2="10" gradientTransform="matrix(1.25 0 0 1.25 60.498 55.493)" gradientUnits="userSpaceOnUse">
   <stop stop-color="#eef1f2" offset="0"/>
   <stop stop-color="#f9fafb" offset="1"/>
  </linearGradient>
  <linearGradient id="c" x1="400.57" x2="420.57" y1="511.8" y2="531.8" gradientTransform="matrix(1.25 0 0 1.25 -410.22 -559.25)" gradientUnits="userSpaceOnUse" xlink:href="#a"/>
  <linearGradient id="b" x1="386.57" x2="386.57" y1="549.8" y2="497.8" gradientTransform="matrix(1.25 0 0 1.25 -410.22 -559.25)" gradientUnits="userSpaceOnUse">
   <stop stop-color="#7f8c8d" offset="0"/>
   <stop stop-color="#afb0b3" offset="1"/>
  </linearGradient>
 </defs>
 <g transform="translate(.013051 .0029956)">
  <path d="m62.732 0.015625c-18.717 0.27409-37.106 9.3154-48.71 24.013-9.8172 12.218-14.935 28.138-13.903 43.792 0.85577 14.399 6.6842 28.486 16.442 39.135 10.695 11.784 25.87 19.501 41.768 20.784 15.401 1.3774 31.302-2.963 43.686-12.268 12.667-9.3433 21.768-23.473 24.749-38.954 3.281-16.429-0.1041-34.153-9.5345-48.041-8.2919-12.412-21.004-21.857-35.389-25.933-6.1929-1.8017-12.661-2.6529-19.109-2.5283z" fill="#ecf0f9"/>
  <path d="m63.999 3.5c-33.413 0-60.499 27.086-60.499 60.498 0 33.412 27.087 60.502 60.499 60.502 33.413 0 60.501-27.09 60.501-60.502 0-33.412-27.088-60.498-60.501-60.498zm-3.5458 14.353c0.39907 0.067 0.74909 0.3325 0.91392 0.72191l4.8152 11.371c2.5608 0.1616 5.0447 0.606 7.4213 1.3017l8.4081-9.0331c0.38426-0.41272 1.0026-0.50534 1.4909-0.2234l7.1277 4.1154c0.48825 0.28194 0.71748 0.86326 0.55205 1.4023l-3.6215 11.807c1.8174 1.7351 3.4429 3.6694 4.8429 5.767l12.253-1.5158c0.55962-0.0692 1.0922 0.25765 1.285 0.78745l2.8415 7.8071c0.17724 0.48731-5e-3 1.0315-0.43944 1.3137l-18.158 6.5369c-0.72317 0.26043-1.5012-0.21221-1.6524-0.96562-2.2981-11.448-12.409-20.07-24.534-20.07-2.7476 0-5.3919 0.44272-7.8653 1.261-0.72883 0.24124-1.5229-0.19995-1.6552-0.95639l-3.2624-18.643c-0.11531-0.65765 0.32386-1.2836 0.98132-1.3995l7.8459-1.3838c0.13884-0.02447 0.27686-0.02417 0.40988-0.0017zm-28.1 12.894c0.12291 0.01623 0.24464 0.05371 0.36002 0.11263l14.74 12.457c0.58694 0.496 0.56764 1.406-0.0096 1.9137-8.7648 7.7139-11.178 20.781-5.1152 31.281 1.3739 2.3798 3.0793 4.4487 5.0247 6.1815 0.57342 0.51094 0.588 1.4198-9.5e-4 1.9128l-14.513 12.147c-0.51197 0.42823-1.275 0.36094-1.7041-0.15047l-5.1207-6.103c-0.36238-0.43201-0.37852-1.0566-0.03879-1.5066l7.4406-9.8556c-1.1404-2.298-1.9972-4.6716-2.583-7.0778l-12.027-2.7649c-0.54946-0.1262-0.93886-0.61591-0.93886-1.1798v-8.2299c0-0.56388 0.38939-1.0531 0.93886-1.1798l12.036-2.7667c0.59399-2.4417 1.4552-4.8168 2.5719-7.0778l-7.4388-9.8538c-0.33975-0.44997-0.32361-1.0747 0.03879-1.5066l5.3414-6.3652c0.24985-0.29777 0.62828-0.4364 0.99701-0.38772zm57.274 37.298c0.17698-0.01844 0.36065 0.0014 0.54096 0.0674l17.776 6.4963c0.62722 0.22924 0.95021 0.92277 0.7219 1.55l-2.7252 7.4859c-0.19282 0.52985-0.72587 0.85646-1.285 0.78745l-12.256-1.5158c-1.4199 2.1369-3.0469 4.0657-4.8373 5.7762l3.6188 11.798c0.16495 0.53884-0.06377 1.1206-0.55205 1.4023l-7.1286 4.1154c-0.48825 0.28218-1.1066 0.18923-1.4909-0.22339l-8.4137-9.0396c-2.4115 0.70615-4.8997 1.1473-7.4166 1.3109l-4.8133 11.369c-0.21978 0.51947-0.76844 0.81791-1.3238 0.72007l-8.1829-1.4429c-0.51-0.0902-0.89116-0.52006-0.91762-1.0376l3.4175-18.994c0.13612-0.75625 0.93472-1.1939 1.6626-0.94808 11.063 3.7335 23.586-0.7117 29.648-11.212 1.374-2.3798 2.3126-4.8911 2.8406-7.4425 0.11662-0.564 0.58518-0.96754 1.1161-1.0229z" fill="#0064ff"/>
 </g>
 <path d="m72.998 62.993h55v65h-55z" fill="url(#b)" stroke-width="1.25"/>
 <path d="m119.25 120.49h8.75v7.5h-8.75zm-46.25 0h8.75v7.5h-8.75z" fill="#292c2f" opacity=".2" stroke-width="1.25"/>
 <g transform="matrix(1.25 0 0 1.25 60.498 55.493)" stroke-width="1.857">
  <path d="m10 52h7v6h-1zm37 0h7v6h-7z" fill="#292c2f" opacity=".2"/>
  <path d="m16 52h32v6h-32z" fill="#292c2e"/>
  <path d="m20 54h14v2h-14zm16 0h8v2h-8z" fill="#f6b44d"/>
 </g>
 <g stroke-width="1.25">
  <path d="m77.998 107.99 20 20h30v-48.41l-8.295-8.295z" fill="url(#c)" opacity=".2"/>
  <path d="m89.248 67.993a11.25 11.25 0 0 0-11.25 11.25v10.669a7.5 7.5 0 0 1 2.5 5.5812 7.5 7.5 0 0 1-2.5 5.5788v6.9212l7.5 7.5h30l7.5-7.5v-6.9187a7.5 7.5 0 0 1-2.5-5.5813 7.5 7.5 0 0 1 2.5-5.5787v-10.671a11.25 11.25 0 0 0-11.25-11.25z" fill="url(#d)"/>
  <path d="m72.998 126.74h55v1.25h-55z" fill="#292c2f" opacity=".4"/>
  <path d="m105.81 77.685 17.192 17.194v20.615h-25l-10-10 5-15 2.5-11.25 2.5-2.5z" fill="url(#e)" opacity=".2"/>
  <path d="m100.5 75.493c-4.155 0-7.5 3.345-7.5 7.5v7.5h-5v15h25v-15h-5v-7.5c0-4.155-3.345-7.5-7.5-7.5m0 2.5c3.115 0 5 1.365 5 5v7.5h-10v-7.5c0-3.635 1.885-5 5-5" fill="url(#f)"/>
 </g>
</svg>
