<svg data-name="Layer 3" version="1.1" viewBox="0 0 128 128" xmlns="http://www.w3.org/2000/svg">
  <circle cx="64" cy="64" r="64" fill="#3f4f69"/>
  <path d="m63.999 3.5c-33.412 0-60.499 27.086-60.499 60.498s27.086 60.502 60.499 60.502 60.501-27.09 60.501-60.502-27.087-60.498-60.501-60.498zm-3.5458 14.353c0.39908 0.067 0.74909 0.3325 0.91393 0.72191l4.8152 11.371c2.5608 0.1616 5.0447 0.606 7.4212 1.3016l8.4081-9.0331c0.38426-0.41272 1.0026-0.50534 1.4909-0.2234l7.1277 4.1154c0.48825 0.28194 0.71748 0.86326 0.55205 1.4023l-3.6215 11.807c1.8173 1.7351 3.4429 3.6694 4.8429 5.767l12.253-1.5158c0.55963-0.0692 1.0922 0.25765 1.285 0.78745l2.8415 7.8071c0.17723 0.48731-5e-3 1.0315-0.43944 1.3137l-18.158 6.5369c-0.72316 0.26043-1.5012-0.21221-1.6524-0.96562-2.298-11.448-12.409-20.07-24.534-20.07-2.7475 0-5.3919 0.44273-7.8653 1.261-0.72884 0.24124-1.5229-0.19996-1.6552-0.95639l-3.2624-18.643c-0.1153-0.65765 0.32385-1.2836 0.98132-1.3995l7.8459-1.3838c0.13884-0.02449 0.27685-0.0242 0.40988-0.0019zm-28.1 12.894c0.12291 0.01621 0.24464 0.0537 0.36003 0.11263l14.74 12.457c0.58694 0.496 0.56764 1.406-0.0098 1.9137-8.7648 7.7139-11.178 20.781-5.1152 31.281 1.3739 2.3798 3.0793 4.4487 5.0247 6.1815 0.57343 0.51094 0.58801 1.4198-9.43e-4 1.9128l-14.513 12.147c-0.51197 0.42823-1.275 0.36094-1.7041-0.15047l-5.1207-6.103c-0.36239-0.43201-0.37852-1.0566-0.03872-1.5066l7.4406-9.8556c-1.1403-2.2981-1.9971-4.6716-2.5829-7.0778l-12.027-2.7649c-0.54946-0.1262-0.93885-0.61591-0.93885-1.1798v-8.2299c0-0.56388 0.38939-1.0531 0.93885-1.1798l12.036-2.7667c0.59399-2.4417 1.4552-4.8168 2.5719-7.0778l-7.4388-9.8538c-0.33975-0.44996-0.32361-1.0747 0.03872-1.5066l5.3414-6.3652c0.24984-0.29777 0.62827-0.4364 0.997-0.38773zm57.274 37.298c0.17696-0.01844 0.36065 0.0014 0.54096 0.06739l17.776 6.4963c0.62721 0.22924 0.9502 0.92277 0.7219 1.55l-2.7251 7.4859c-0.19286 0.52984-0.72589 0.85646-1.285 0.78745l-12.256-1.5158c-1.4199 2.1369-3.0469 4.0657-4.8373 5.7762l3.6188 11.798c0.16496 0.53882-0.06378 1.1206-0.55205 1.4023l-7.1286 4.1154c-0.48824 0.28219-1.1066 0.18923-1.4909-0.22341l-8.4136-9.0395c-2.4115 0.70615-4.8997 1.1473-7.4166 1.3109l-4.8133 11.369c-0.21978 0.51944-0.76843 0.8179-1.3238 0.72006l-8.1828-1.4429c-0.51-0.0903-0.89114-0.52007-0.91762-1.0376l3.4175-18.994c0.13612-0.75625 0.93471-1.1939 1.6626-0.94808 11.063 3.7335 23.586-0.7117 29.648-11.212 1.374-2.3798 2.3126-4.8911 2.8405-7.4425 0.11662-0.564 0.58517-0.96754 1.1161-1.0229z" fill="#fff"/>
  <ellipse cx="64.056" cy="63.703" rx="64.035" ry="63.635" fill="none"/>
  <g transform="translate(0,-40)" stroke="#001f4f">
    <path class="ColorScheme-Text" d="m93.78 166.36c-12.975-0.58217-24.468-9.7475-28.046-22.366-0.91822-3.2382-1.2029-5.6181-1.1143-9.3152 0.11686-4.8786 1.0737-8.725 3.2356-13.008 5.1354-10.173 15.098-16.574 26.52-17.041 5.9933-0.2449 12.045 1.3502 17.337 4.5692 3.6386 2.2134 7.5845 6.0955 9.883 9.7232 2.2895 3.6135 3.8272 7.7284 4.4974 12.035 0.34882 2.2408 0.37852 6.6811 0.0586 8.7508-1.0867 7.0325-3.9855 12.831-8.8382 17.681-4.587 4.5836-10.299 7.5188-16.801 8.6338-1.7738 0.30406-4.4616 0.43861-6.7322 0.33689z" color="#232629" fill="#cbcb00" stroke="#3f5069" stroke-width="3.2108"/>
    <path class="ColorScheme-Text" d="m83.5 122.91c-0.96252 0-1.1429 0.032-1.6953 0.3048-0.78698 0.3864-1.4886 1.088-1.875 1.875-0.26804 0.54584-0.30468 0.73712-0.30468 1.6406 0 0.87976 0.0372 1.1045 0.28124 1.625 0.51297 1.094 1.4432 1.9012 2.5625 2.2187 0.28772 0.0816 0.81766 0.12 1.2734 0.0936 1.4469-0.0836 2.6312-0.8826 3.2812-2.2031 0.32036-0.65076 0.35157-0.79584 0.35157-1.7344 0-0.906-0.0364-1.0945-0.30469-1.6406-0.38643-0.78696-1.088-1.4886-1.875-1.875-0.55243-0.2712-0.73278-0.3048-1.6953-0.3048zm24 0c-0.96252 0-1.1429 0.032-1.6953 0.3048-0.787 0.3864-1.4886 1.088-1.875 1.875-0.268 0.54584-0.3048 0.73712-0.3048 1.6406 0 0.87976 0.036 1.1045 0.2812 1.625 0.51296 1.094 1.4432 1.9012 2.5625 2.2187 0.2876 0.0816 0.81768 0.12 1.2734 0.0936 1.4469-0.0836 2.6312-0.8826 3.2812-2.2031 0.3204-0.65076 0.3516-0.79584 0.3516-1.7344 0-0.906-0.036-1.0945-0.3048-1.6406-0.3864-0.78696-1.088-1.4886-1.875-1.875-0.55244-0.2712-0.73276-0.3048-1.6953-0.3048zm-27.289 21.345 0.0703 0.2968c0.0392 0.1628 0.20976 0.6646 0.375 1.1172 1.9759 5.4122 6.787 9.38 12.422 10.25 4.1247 0.63684 8.567-0.4598 11.836-2.9297 1.4078-1.0637 2.9711-2.7562 3.9531-4.2812 0.65176-1.0121 1.6118-3.1634 1.8516-4.1562l0.0704-0.2968h-15.289z" color="#232629" fill="#3f5069" stroke-width="0"/>
  </g>
</svg>
