<svg data-name="Layer 3" version="1.1" viewBox="0 0 128 128" xmlns="http://www.w3.org/2000/svg">
 <ellipse cx="64.056" cy="63.703" rx="64.035" ry="63.635" fill="none"/>
 <path d="m63.999 2.4427c-33.996 0-61.556 27.559-61.556 61.555 0 33.996 27.56 61.559 61.556 61.559 33.997 0 61.558-27.563 61.558-61.559 0-33.996-27.561-61.555-61.558-61.555zm-3.6078 14.604c0.40605 0.06817 0.76217 0.33831 0.9299 0.73452l4.8993 11.57c2.6056 0.16443 5.1329 0.61659 7.5509 1.3244l8.555-9.1909c0.39098-0.41993 1.0202-0.51417 1.517-0.2273l7.2523 4.1874c0.49679 0.28687 0.73002 0.87834 0.5617 1.4268l-3.6848 12.014c1.8491 1.7654 3.503 3.7335 4.9275 5.8677l12.467-1.5423c0.5694-0.07041 1.1113 0.26216 1.3075 0.80121l2.8911 7.9436c0.18033 0.49582-5e-3 1.0495-0.44712 1.3366l-18.476 6.6511c-0.7358 0.26498-1.5274-0.21592-1.6813-0.9825-2.3382-11.648-12.626-20.421-24.963-20.421-2.7956 0-5.4861 0.45046-8.0028 1.2831-0.74157 0.24546-1.5495-0.20345-1.6841-0.9731l-3.3195-18.969c-0.11732-0.66915 0.32951-1.306 0.99847-1.424l7.983-1.408c0.14126-0.02492 0.28169-0.02462 0.41704-0.0019zm-28.591 13.119c0.12507 0.01649 0.24892 0.05464 0.36632 0.1146l14.998 12.675c0.5972 0.50467 0.57756 1.4306-0.0097 1.9471-8.918 7.8487-11.373 21.144-5.2046 31.828 1.3979 2.4214 3.1332 4.5264 5.1126 6.2895 0.58345 0.51987 0.59829 1.4446-9.62e-4 1.9462l-14.767 12.359c-0.52092 0.43571-1.2973 0.36725-1.7339-0.1531l-5.2102-6.2096c-0.36872-0.43956-0.38513-1.0751-0.03944-1.5329l7.5707-10.028c-1.1602-2.3382-2.032-4.7532-2.6281-7.2015l-12.237-2.8132c-0.55906-0.1284-0.95526-0.62668-0.95526-1.2004v-8.3738c0-0.57373 0.3962-1.0715 0.95526-1.2004l12.246-2.8151c0.60437-2.4844 1.4806-4.901 2.6169-7.2015l-7.5688-10.026c-0.34568-0.45783-0.32926-1.0935 0.03944-1.5329l5.4347-6.4764c0.25421-0.30298 0.63925-0.44402 1.0144-0.3945zm58.275 37.95c0.18006-0.01876 0.36696 0.0014 0.55043 0.06857l18.087 6.6098c0.63817 0.23324 0.96681 0.93889 0.73452 1.5771l-2.7728 7.6167c-0.19623 0.53911-0.73858 0.87143-1.3075 0.80122l-12.47-1.5423c-1.4447 2.1742-3.1002 4.1367-4.9219 5.8771l3.682 12.004c0.16784 0.54824-0.06492 1.1402-0.5617 1.4268l-7.2532 4.1873c-0.49679 0.28712-1.126 0.19254-1.517-0.22731l-8.5607-9.1975c-2.4536 0.71849-4.9854 1.1674-7.5463 1.3338l-4.8974 11.567c-0.22363 0.52852-0.78186 0.83219-1.3469 0.73264l-8.3259-1.4681c-0.51891-0.0919-0.90673-0.52916-0.93366-1.0558l3.4773-19.326c0.1385-0.76946 0.95105-1.2147 1.6917-0.96465 11.256 3.7988 23.998-0.72413 30.166-11.408 1.398-2.4214 2.353-4.9766 2.8902-7.5725 0.11866-0.57385 0.5954-0.98444 1.1356-1.0407z" fill="#fff" stroke="#3f4f69" stroke-width="3"/>
 <g transform="translate(0,-40)" stroke="#001f4f">
  <path class="ColorScheme-Text" d="m93.78 166.36c-12.975-0.58217-24.468-9.7475-28.046-22.366-0.91822-3.2382-1.2029-5.6181-1.1143-9.3152 0.11686-4.8786 1.0737-8.725 3.2356-13.008 5.1354-10.173 15.098-16.574 26.52-17.041 5.9933-0.2449 12.045 1.3502 17.337 4.5692 3.6386 2.2134 7.5845 6.0955 9.883 9.7232 2.2895 3.6135 3.8272 7.7284 4.4974 12.035 0.34882 2.2408 0.37852 6.6811 0.0586 8.7508-1.0867 7.0325-3.9855 12.831-8.8382 17.681-4.587 4.5836-10.299 7.5188-16.801 8.6338-1.7738 0.30406-4.4616 0.43861-6.7322 0.33689z" color="#232629" fill="#cbcb00" stroke="#3f5069" stroke-width="3.2108"/>
  <path class="ColorScheme-Text" d="m83.5 122.91c-0.96252 0-1.1429 0.032-1.6953 0.3048-0.78698 0.3864-1.4886 1.088-1.875 1.875-0.26804 0.54584-0.30468 0.73712-0.30468 1.6406 0 0.87976 0.0372 1.1045 0.28124 1.625 0.51297 1.094 1.4432 1.9012 2.5625 2.2187 0.28772 0.0816 0.81766 0.12 1.2734 0.0936 1.4469-0.0836 2.6312-0.8826 3.2812-2.2031 0.32036-0.65076 0.35157-0.79584 0.35157-1.7344 0-0.906-0.0364-1.0945-0.30469-1.6406-0.38643-0.78696-1.088-1.4886-1.875-1.875-0.55243-0.2712-0.73278-0.3048-1.6953-0.3048zm24 0c-0.96252 0-1.1429 0.032-1.6953 0.3048-0.787 0.3864-1.4886 1.088-1.875 1.875-0.268 0.54584-0.3048 0.73712-0.3048 1.6406 0 0.87976 0.036 1.1045 0.2812 1.625 0.51296 1.094 1.4432 1.9012 2.5625 2.2187 0.2876 0.0816 0.81768 0.12 1.2734 0.0936 1.4469-0.0836 2.6312-0.8826 3.2812-2.2031 0.3204-0.65076 0.3516-0.79584 0.3516-1.7344 0-0.906-0.036-1.0945-0.3048-1.6406-0.3864-0.78696-1.088-1.4886-1.875-1.875-0.55244-0.2712-0.73276-0.3048-1.6953-0.3048zm-27.289 21.345 0.0703 0.2968c0.0392 0.1628 0.20976 0.6646 0.375 1.1172 1.9759 5.4122 6.787 9.38 12.422 10.25 4.1247 0.63684 8.567-0.4598 11.836-2.9297 1.4078-1.0637 2.9711-2.7562 3.9531-4.2812 0.65176-1.0121 1.6118-3.1634 1.8516-4.1562l0.0704-0.2968h-15.289z" color="#232629" fill="#3f5069" stroke-width="0"/>
 </g>
</svg>
