<svg data-name="Layer 3" version="1.1" viewBox="0 0 128 128" xmlns="http://www.w3.org/2000/svg">
    <defs>
        <linearGradient id="linearGradient42076" x1="116.84924" x2="75.976242" y1="164.85487" y2="120.04626" gradientTransform="matrix(.5122 0 0 .5122 24.953 .20732)" gradientUnits="userSpaceOnUse">
            <stop stop-color="#e2e2e2" offset="0"/>
            <stop stop-color="#fefefe" offset="1"/>
        </linearGradient>
    </defs>
    <path d="m62.861861 1.0068349c-4.711489 0.076185-9.423865 0.6993598-13.977752 1.8339349-10.163647 2.5038512-19.621923 7.5548912-27.349526 14.61612-4.270419 3.902055-8.09534 8.488256-11.149388 13.462261-5.196398 8.369014-8.368132 18.088214-9.18349 27.949012-0.300664 3.852906-0.274352 7.861353 0.141538 11.731945 0.9892 9.368818 4.114854 18.527041 9.088931 26.56493 6.058228 9.786642 14.901424 17.925512 25.250386 23.108432 11.85054 5.98707 25.683982 8.09996 38.828492 5.83933 9.888834-1.67423 19.553458-5.80824 27.557308-11.92113 12.16392-9.18858 20.73707-22.842889 23.69275-37.791647 1.4803-7.395176 1.62176-15.07103 0.42871-22.474276-1.32718-8.309482-4.40412-16.478571-8.92016-23.560769-7.22958-11.466356-18.19972-20.476447-30.89391-25.26782-4.946115-1.885242-10.126176-3.1352786-15.329277-3.7028975-2.73237-0.3041714-5.425398-0.42570688-8.184612-0.3874254zm-3.439453 11.128906c1.201636 0.01155 1.609215 1.300271 2.010944 2.205431 2.009813 4.267845 4.001733 8.544737 6.004681 12.816053 1.718265 0.160806 3.424693 0.441542 5.103516 0.841797 3.685326-3.822137 7.327827-7.693437 11.05664-11.46875 0.995666-0.707864 2.080381 0.144574 2.939451 0.652344 2.78719 1.649479 5.64734 3.195082 8.3754 4.928133 0.89416 0.881186 0.20376 2.134552-0.0507 3.134926-1.30616 4.467912-2.61232 8.935825-3.91849 13.403738 1.18687 1.255404 2.28516 2.594435 3.2793 4.007812 5.28241-0.430172 10.56679-0.925521 15.84961-1.294922 1.12246 0.08648 1.49153 1.276986 1.72429 2.191217 1.01118 3.09512 2.12614 6.158068 3.0511 9.277533 0.12654 1.157772-1.10267 1.838871-2.11363 1.865632-6.87029 1.454479-13.74089 2.907473-20.61098 4.362884-1.20376-6.601383-4.71648-12.781057-9.929976-17.033149-5.78611-4.789934-13.494415-7.191365-20.94466-6.400031-2.372494 0.222653-4.696893 0.799833-6.955442 1.546461-2.280894-7.055702-4.61877-14.093538-6.84371-21.164062-0.167109-1.13318 1.009585-1.909376 2.027702-1.912406 3.314011-0.653641 6.621352-1.379568 9.944954-1.960641zm-29.458984 13.158203c1.238392 0.196256 1.759401 1.500212 2.617421 2.256651 4.365303 4.86041 8.734862 9.716996 13.111094 14.567568-3.808004 3.239056-6.782058 7.451522-8.490234 12.154297-1.902645 5.237065-2.225229 11.234827-0.828125 16.708984 1.402881 5.598512 4.983271 11.11136 9.327426 14.905506 0 0-0.46664 0.403422-1.139926 1.147233-3.50514 4.001432-7.125593 7.923404-10.675484 11.892086-1.110815 1.164711-2.112416 2.454451-3.28936 3.543461-0.998395 0.58998-2.115645-0.20088-2.643868-1.05497-2.175166-2.486578-4.403871-4.933866-6.52996-7.458703-0.624936-1.049859 0.316551-2.06237 0.894531-2.875l8.082031-11.609374c-0.721022-1.57182-1.324815-3.195836-1.822265-4.851567-5.151098-1.276489-10.323813-2.488632-15.455078-3.828125-1.10373-0.505163-0.917023-1.864075-0.90625-2.857422 0.01647-3.226288-0.04348-6.460166 0.03906-9.68164 0.238236-1.181172 1.585467-1.33965 2.555929-1.551779 4.587503-1.128687 9.179184-2.2416 13.76829-3.364237 0.499476-1.655251 1.109816-3.276614 1.832031-4.847656-3.012817-4.360843-6.086106-8.687075-9.042969-13.082032-0.493175-1.106084 0.524213-2.01956 1.206673-2.743061 2.12138-2.371279 4.166992-4.821957 6.365593-7.116314 0.300611-0.194228 0.667006-0.29176 1.023438-0.253906zm62.599616 43.763672c7.1269 1.546208 14.27699 2.997536 21.39257 4.587891 0.48892 0.104414 0.4802 0.860381 1.0449 0.71919 0.31255 0.240392-0.29753 1.084326-0.34879 1.563031-1.12737 3.328666-2.20465 6.681085-3.39533 9.983404-0.59691 1.033269-1.91386 0.770194-2.89307 0.657333-4.71554-0.393023-9.43062-0.801404-14.14599-1.200302-0.99563 1.412996-2.09082 2.756078-3.28516 4.005859 1.4668 5.106559 3.0285 10.193288 4.41407 15.318358 0.0856 1.24375-1.23551 1.74134-2.11914 2.25195-2.80499 1.5783-5.55754 3.27713-8.407052 4.75865-1.209141 0.33972-1.956298-0.89378-2.69229-1.61201-3.224049-3.36333-6.448098-6.72666-9.672147-10.09-1.680708 0.40073-3.389185 0.68103-5.109375 0.8418-2.26437 4.78503-4.477717 9.60068-6.796875 14.35547-0.714708 0.9924-2.0289 0.56569-3.009765 0.34375-3.125998-0.67606-6.301566-1.18737-9.391664-1.98714-1.005544-0.51139-0.948142-1.86374-0.481926-2.73037 2.174559-6.67492 4.349929-13.349584 6.52398-20.024677 6.116074 2.201878 13.045174 2.314517 19.138672 0.136719 7.386438-2.564613 13.652482-8.251229 16.742802-15.454158 0.92204-2.088442 1.56274-4.292166 2.00134-6.530217 0.16341 0.03516 0.32682 0.07031 0.49024 0.105469z" fill="#0079c1" stroke="#80cfff"/>
    <g transform="translate(.5 -48.5)">
        <path d="m79.029297 114.16797c-7.226354 0.10305-14.463506-0.18865-21.681641 0.24219-2.789458 0.47765-4.663869 3.41163-4.437376 6.14567 0.05862 6.86943-0.0083 13.74101 0.0069 20.61136-8.72e-4 10.17544-0.01971 20.35573 0.202272 30.52725 0.359066 2.84421 3.319166 4.69823 6.040238 4.6203 2.358281-0.18543 4.810956 0.27579 7.082688-0.56353 2.050008-0.64206 3.276319-2.70856 3.482922-4.76059 0.240698-1.96669-0.05737-3.94637 0.04423-5.92069 0.0071-3.21732 0.01478-6.43464 0.02149-9.65196 2.161668 0.0293 4.618652-0.35165 6.447265 1.08203 2.224363 2.67889 3.156915 6.10986 4.911399 9.06427 1.598102 3.16865 2.875997 6.62077 5.368047 9.22318 2.534839 1.82098 5.800471 1.46255 8.749832 1.46794 2.81903-0.0158 5.888607-0.20428 8.110377-2.15559 1.3159-1.26492 2.06383-3.0019 2.96972-4.57636 1.2125 2.24933 2.42323 4.86043 4.95898 5.85742 3.40805 1.10266 7.03078 0.37537 10.54302 0.55037 2.27367-0.10879 4.58267-1.89242 4.60857-4.29588 0.17923-2.11746-1.17147-3.90785-2.34888-5.52157-2.55234-4.00952-5.10778-8.01711-7.65818-12.02784 3.17214-5.21051 6.74764-10.19417 9.4668-15.66602 0.63266-3.08307-2.60273-6.1362-5.67421-5.42427-3.38929 0.0804-6.98987-0.55089-10.16564 0.97115-1.73017 1.10272-2.64185 3.02152-3.57812 4.76953-1.3312-2.00197-2.5259-4.45389-4.94531-5.31445-0.66231-0.49694-0.21564-1.42592-0.4789-2.10042-0.69401-5.72762-3.8308-11.35974-8.9683-14.21005-3.918176-2.31417-8.581496-3.06149-13.078189-2.94344zm1.181641 16.24414c2.170552-0.10035 4.002171 2.04318 3.780338 4.16015 0.231531 1.97143-1.099267 4.27046-3.226976 4.38924-3.112999 0.45621-6.263443-0.0118-9.391252 0.18011-0.481378-0.14489-1.578598 0.32736-1.582032-0.29669v-8.4289c3.473307-1e-3 6.946614-3e-3 10.419922-4e-3z" fill="#232629" style="font-variant-caps:normal;font-variant-east-asian:normal;font-variant-ligatures:normal;font-variant-numeric:normal"/>
        <path d="m59.195312 117.76953c-0.973801 0-1.66615 0.20479-2.076171 0.61719-0.410022 0.36085-0.615235 1.03226-0.615235 2.01172v49.64258c0 0.97945 0.205213 1.67548 0.615235 2.08789 0.410021 0.36085 1.10237 0.54101 2.076171 0.54101h4.38086c0.973801 0 1.641231-0.18016 2-0.54101 0.410021-0.41241 0.615234-1.10844 0.615234-2.08789v-18.24805h5.6875c2.613888 0 4.535561 0.36032 5.765625 1.08203 1.230065 0.72171 2.357759 2.16496 3.382813 4.33008l6.458984 13.14453c0.461274 0.97946 1.025121 1.62429 1.691406 1.93359 0.666285 0.25776 1.843818 0.38672 3.535157 0.38672h4.458984c0.617927 0 1.063776-0.11038 1.359375-0.31836 1.88435-0.0802 2.32944-0.48529 3.15234-1.85156l4.61133-8.32422 4.70899 8.32422c0.94189 1.71518 1.53742 1.86719 4.11523 1.86719h6.3457c1.53678 0 1.83419-1.00932 1.04102-2.11914l-10.3125-16.14258 9.81641-15.53711c0.69402-1.10982 0.39586-2.01758-0.99219-2.01758h-6.3457c-2.2308 0-2.87452 0.1009-3.81641 1.76563l-4.41211 7.81836-4.46094-7.81836c-0.94189-1.56384-1.587-1.76563-4.115232-1.76563h-0.226563c0.04195-0.57689 0.07031-1.1625 0.07031-1.76953 0-5.30969-1.53812-9.46125-4.613282-12.45117-3.075161-3.04148-7.302061-4.56055-12.683594-4.56055zm6.996094 9.04688h13.298828c2.562635 0 4.561019 0.66945 5.996094 2.00976 1.383823 1.39186 2.076172 3.37756 2.076172 5.95508s-0.692349 4.53469-2.076172 5.875c-1.435075 1.39186-3.433459 2.08789-5.996094 2.08789h-13.298828zm28.736328 18.06836 5.765626 9.2207-5.75586 9.09961-4.914062-9.48047c-0.666285-1.39186-1.487137-2.49941-2.460938-3.32422 3.175079-1.06451 5.627329-2.90591 7.365234-5.51562z" fill="url(#linearGradient42076)" style="font-variant-caps:normal;font-variant-east-asian:normal;font-variant-ligatures:normal;font-variant-numeric:normal"/>
    </g>
</svg>
